<svg width="360" height="296" viewBox="0 0 360 296" fill="none" xmlns="http://www.w3.org/2000/svg">
<path opacity="0.7" d="M137.663 34.1247C137.663 34.1247 101.52 65.5008 93.7082 114.994C85.8967 164.487 107.271 206.602 123.672 241.439C140.072 276.275 173.959 285.531 205.603 265.11C237.247 244.689 231.59 212.424 257.374 171.192C283.158 129.961 294.883 122.113 299.071 76.2615C303.259 30.4104 264.903 -4.34287 216.073 1.03322C167.243 6.40932 137.663 34.1247 137.663 34.1247Z" fill="white"/>
<path d="M21.4221 69.3746C32.7002 54.9146 48.9122 42.788 69.7912 40.2243C105.435 35.9296 128.079 59.409 151.119 76.7889C163.063 85.8028 176.392 94.2639 192.752 97.096C217.291 101.336 242.995 93.6193 265.078 83.8087C274.973 79.4128 286.601 73.5303 298.48 74.2037C334.591 76.2429 335.571 112.207 332.692 135.443C328.806 166.828 320.256 200.778 297.416 227.458C242.736 291.372 126.709 271.768 64.9658 234.561C60.4287 231.821 56.0471 228.922 51.8683 225.779C41.0342 217.782 31.5498 208.611 23.6469 198.492C1.58963 169.93 -5.81209 132.674 5.68643 98.6696C9.12705 88.3653 14.4345 78.4844 21.4221 69.3746Z" fill="#06BCC1"/>
<path opacity="0.7" d="M41.4602 77.7249C50.8482 64.4946 64.4142 53.4909 81.9924 51.401C112.002 47.909 131.281 69.9464 150.844 86.3439C160.985 94.8482 172.29 102.86 186.104 105.703C206.822 109.959 228.425 103.165 246.959 94.3846C255.264 90.4502 265.017 85.1634 275.036 85.9476C305.49 88.324 306.611 121.623 304.375 143.089C301.357 172.084 294.427 203.389 275.394 227.773C229.827 286.185 131.865 266.47 79.5167 231.198C75.6699 228.6 71.9528 225.858 68.4047 222.893C59.207 215.344 51.1373 206.728 44.393 197.256C25.5667 170.522 19.0226 135.941 28.4363 104.625C31.2521 95.1345 35.6449 86.0615 41.4602 77.7249Z" fill="white"/>
<path d="M1.1311 268.288L358.868 268.5" stroke="#263238" stroke-linecap="round" stroke-linejoin="round"/>
<path d="M288.328 155.012L286.376 165.621L270.457 175.293L272.658 179.334C272.658 179.334 291.061 173.722 291.51 172.409C291.959 171.096 296.199 157.193 296.199 157.193L288.328 155.012Z" fill="#263238"/>
<path d="M295.301 137.073L294.238 149.937L293.676 156.686C290.607 158.179 287.606 155.934 287.42 155.788C288.255 153.338 289.226 139.513 295.301 137.073Z" fill="#999999" stroke="#263238" stroke-linecap="round" stroke-linejoin="round"/>
<path d="M294.218 149.937L293.657 156.686C290.587 158.179 287.586 155.934 287.401 155.788C287.533 155.847 289.148 156.53 290.197 155.788C289.83 155.392 289.503 154.96 289.221 154.5C289.158 154.246 290.197 154.178 290.197 154.178C290.197 154.178 289.514 148.707 291.334 146.37C292.047 145.481 293.159 147.336 294.218 149.937Z" fill="#263238"/>
<path d="M306.325 256.199L306.813 257.633C306.074 258.854 305.245 260.019 304.334 261.118C304.334 261.118 303.846 260.962 303.046 261.669C302.553 262.161 302.249 262.811 302.187 263.504C302.187 263.504 298.459 267.974 293.73 268.038C289.001 268.101 290.426 265.72 290.426 265.72L306.325 256.199Z" fill="#06BCC1" stroke="#263238" stroke-linecap="round" stroke-linejoin="round"/>
<path d="M301.88 244.824C301.88 244.824 295.536 242.486 294.296 247.161C294.296 247.161 295.428 252.31 294.75 255.125C294.072 257.941 290.656 263.319 290.446 264.339C290.031 266.34 290.343 266.476 290.343 266.476C290.343 266.476 292.827 267.911 296.165 266.374C299.503 264.837 305.281 258.219 306.184 256.858C307.087 255.496 303.354 250.128 303.354 250.128L301.88 244.824Z" fill="white"/>
<mask id="mask0_659_8985" style="mask-type:luminance" maskUnits="userSpaceOnUse" x="290" y="244" width="17" height="24">
<path d="M301.88 244.824C301.88 244.824 295.536 242.486 294.296 247.161C294.296 247.161 295.428 252.31 294.75 255.125C294.072 257.941 290.656 263.319 290.446 264.339C290.031 266.34 290.343 266.476 290.343 266.476C290.343 266.476 292.827 267.911 296.165 266.374C299.503 264.837 305.281 258.219 306.184 256.858C307.087 255.496 303.354 250.128 303.354 250.128L301.88 244.824Z" fill="white"/>
</mask>
<g mask="url(#mask0_659_8985)">
<path opacity="0.4" d="M301.88 244.824C301.88 244.824 295.536 242.486 294.296 247.161C294.296 247.161 295.428 252.31 294.75 255.125C294.072 257.941 290.656 263.319 290.446 264.339C290.031 266.34 290.343 266.476 290.343 266.476C290.343 266.476 292.827 267.911 296.165 266.374C299.503 264.837 305.281 258.219 306.184 256.858C307.087 255.496 303.354 250.128 303.354 250.128L301.88 244.824Z" fill="#06BCC1"/>
</g>
<path d="M301.88 244.824C301.88 244.824 295.536 242.486 294.296 247.161C294.296 247.161 295.428 252.31 294.75 255.125C294.072 257.941 290.656 263.319 290.446 264.339C290.031 266.34 290.343 266.476 290.343 266.476C290.343 266.476 292.827 267.911 296.165 266.374C299.503 264.837 305.281 258.219 306.184 256.858C307.087 255.496 303.354 250.128 303.354 250.128L301.88 244.824Z" stroke="#263238" stroke-linecap="round" stroke-linejoin="round"/>
<path d="M298.635 251.436C299.187 254.585 298.626 257.829 297.049 260.61" stroke="#263238" stroke-linecap="round" stroke-linejoin="round"/>
<path d="M297.049 261.84C296.812 262.434 296.446 262.968 295.977 263.402C295.507 263.836 294.946 264.159 294.335 264.348C293.056 264.691 291.71 264.691 290.431 264.348L291.954 261.264C293.57 261.908 295.329 262.107 297.049 261.84Z" fill="#06BCC1" stroke="#263238" stroke-linecap="round" stroke-linejoin="round"/>
<path d="M297.946 259.971C297.946 259.971 294.628 260.171 292.896 259.483" stroke="#263238" stroke-linecap="round" stroke-linejoin="round"/>
<path d="M298.561 258.141C298.561 258.141 295.458 258.629 293.725 257.653" stroke="#263238" stroke-linecap="round" stroke-linejoin="round"/>
<path d="M299.088 256.106C299.088 256.106 296.37 256.501 294.594 255.662" stroke="#263238" stroke-linecap="round" stroke-linejoin="round"/>
<path d="M299.391 253.803C299.391 253.803 296.365 254.749 294.935 253.803" stroke="#263238" stroke-linecap="round" stroke-linejoin="round"/>
<path d="M299.845 248.112L300.372 251.436C300.372 251.436 296.37 254.071 293.725 250.777V247.307C293.725 247.307 294.721 249.64 299.845 248.112Z" fill="#06BCC1" stroke="#263238" stroke-linecap="round" stroke-linejoin="round"/>
<path d="M296.37 173.512C292.315 186.361 279.729 206.969 281.003 212.244C281.701 215.123 285.854 231.437 289.104 238.596C290.339 241.334 293.008 243.164 293.008 243.164L294.936 247.297C299.635 249.342 301.319 245.184 301.319 245.184L300.372 240.499C302.89 235.922 301.836 235.922 298.561 212.195C298.176 209.399 304.661 200.757 304.661 200.757L307.99 222.502L308.531 240.314L310.259 245.819C310.259 245.819 310.688 250.987 310.649 251.299H318.374L319.214 245.619C319.214 245.619 322.8 242.237 322.8 238.333C322.8 234.429 322.029 214.543 322.8 208.75C323.571 202.958 320.995 175.952 320.995 175.952L296.37 173.512Z" fill="#263238"/>
<path d="M243.855 162.063L254.591 163.029C254.834 163.051 255.059 163.169 255.215 163.356C255.372 163.544 255.447 163.786 255.425 164.029L254.736 171.691L242.165 170.56L242.855 162.898C242.876 162.655 242.994 162.43 243.182 162.273C243.369 162.117 243.611 162.041 243.855 162.063Z" fill="#06BCC1"/>
<mask id="mask1_659_8985" style="mask-type:luminance" maskUnits="userSpaceOnUse" x="242" y="162" width="14" height="10">
<path d="M243.855 162.063L254.591 163.029C254.834 163.051 255.059 163.169 255.215 163.356C255.372 163.544 255.447 163.786 255.425 164.029L254.736 171.691L242.165 170.56L242.855 162.898C242.876 162.655 242.994 162.43 243.182 162.273C243.369 162.117 243.611 162.041 243.855 162.063Z" fill="white"/>
</mask>
<g mask="url(#mask1_659_8985)">
<path opacity="0.3" d="M243.855 162.063L254.591 163.029C254.834 163.051 255.059 163.169 255.215 163.356C255.372 163.544 255.447 163.786 255.425 164.029L254.736 171.691L242.165 170.56L242.855 162.898C242.876 162.655 242.994 162.43 243.182 162.273C243.369 162.117 243.611 162.041 243.855 162.063Z" fill="black" fill-opacity="0.7"/>
<path opacity="0.3" d="M254.759 162.896L251.682 162.632L251.153 168.787L254.23 169.052L254.759 162.896Z" fill="white" fill-opacity="0.7"/>
</g>
<path d="M243.855 162.063L254.591 163.029C254.834 163.051 255.059 163.169 255.215 163.356C255.372 163.544 255.447 163.786 255.425 164.029L254.736 171.691L242.165 170.56L242.855 162.898C242.876 162.655 242.994 162.43 243.182 162.273C243.369 162.117 243.611 162.041 243.855 162.063Z" stroke="#263238" stroke-width="1.00404" stroke-linecap="round" stroke-linejoin="round"/>
<path d="M262.385 162.741L273.082 163.66C273.324 163.681 273.549 163.797 273.705 163.983C273.862 164.169 273.938 164.41 273.918 164.653L273.262 172.286L260.737 171.21L261.393 163.577C261.414 163.334 261.53 163.11 261.716 162.953C261.902 162.797 262.143 162.72 262.385 162.741Z" fill="#06BCC1"/>
<mask id="mask2_659_8985" style="mask-type:luminance" maskUnits="userSpaceOnUse" x="260" y="162" width="14" height="11">
<path d="M262.385 162.741L273.082 163.66C273.324 163.681 273.549 163.797 273.705 163.983C273.862 164.169 273.938 164.41 273.918 164.653L273.262 172.286L260.737 171.21L261.393 163.577C261.414 163.334 261.53 163.11 261.716 162.953C261.902 162.797 262.143 162.72 262.385 162.741Z" fill="white"/>
</mask>
<g mask="url(#mask2_659_8985)">
<path opacity="0.3" d="M262.385 162.741L273.082 163.66C273.324 163.681 273.549 163.797 273.705 163.983C273.862 164.169 273.938 164.41 273.918 164.653L273.262 172.286L260.737 171.21L261.393 163.577C261.414 163.334 261.53 163.11 261.716 162.953C261.902 162.797 262.143 162.72 262.385 162.741Z" fill="black" fill-opacity="0.7"/>
<path opacity="0.3" d="M273.024 164.468L271.167 164.309L270.638 170.464L272.495 170.624L273.024 164.468Z" fill="white" fill-opacity="0.7"/>
</g>
<path d="M262.385 162.741L273.082 163.66C273.324 163.681 273.549 163.797 273.705 163.983C273.862 164.169 273.938 164.41 273.918 164.653L273.262 172.286L260.737 171.21L261.393 163.577C261.414 163.334 261.53 163.11 261.716 162.953C261.902 162.797 262.143 162.72 262.385 162.741Z" stroke="#263238" stroke-linecap="round" stroke-linejoin="round"/>
<path d="M258.5 162.405L269.197 163.324C269.439 163.344 269.663 163.461 269.82 163.647C269.977 163.833 270.053 164.074 270.032 164.316L269.377 171.95L256.852 170.874L257.508 163.24C257.528 162.998 257.645 162.774 257.831 162.617C258.017 162.46 258.258 162.384 258.5 162.405Z" fill="#06BCC1" stroke="#263238" stroke-linecap="round" stroke-linejoin="round"/>
<path d="M276.972 163.995L287.669 164.914C287.911 164.935 288.135 165.051 288.292 165.237C288.449 165.423 288.525 165.664 288.504 165.907L287.849 173.535L275.324 172.459L275.98 164.826C276.002 164.584 276.119 164.361 276.304 164.206C276.49 164.05 276.73 163.974 276.972 163.995Z" fill="#06BCC1" stroke="#263238" stroke-linecap="round" stroke-linejoin="round"/>
<path opacity="0.3" d="M269.346 164.15L266.268 163.886L265.739 170.041L268.817 170.306L269.346 164.15Z" fill="white" fill-opacity="0.7"/>
<path opacity="0.3" d="M287.615 165.718L284.537 165.454L284.009 171.609L287.086 171.873L287.615 165.718Z" fill="white" fill-opacity="0.7"/>
<path d="M293.442 172.238L290.422 207.34L233.867 202.46L236.888 167.363C236.912 167.073 236.994 166.79 237.128 166.531C237.262 166.272 237.446 166.042 237.669 165.855C237.892 165.667 238.15 165.525 238.428 165.437C238.706 165.35 238.998 165.317 239.289 165.343L291.417 169.823C291.709 169.847 291.994 169.928 292.254 170.063C292.515 170.198 292.746 170.383 292.934 170.608C293.123 170.832 293.265 171.092 293.352 171.372C293.439 171.652 293.47 171.946 293.442 172.238Z" fill="#06BCC1"/>
<mask id="mask3_659_8985" style="mask-type:luminance" maskUnits="userSpaceOnUse" x="233" y="165" width="61" height="43">
<path d="M293.442 172.238L290.422 207.34L233.867 202.46L236.888 167.363C236.912 167.073 236.994 166.79 237.128 166.531C237.262 166.272 237.446 166.042 237.669 165.855C237.892 165.667 238.15 165.525 238.428 165.437C238.706 165.35 238.998 165.317 239.289 165.343L291.417 169.823C291.709 169.847 291.994 169.928 292.254 170.063C292.515 170.198 292.746 170.383 292.934 170.608C293.123 170.832 293.265 171.092 293.352 171.372C293.439 171.652 293.47 171.946 293.442 172.238Z" fill="white"/>
</mask>
<g mask="url(#mask3_659_8985)">
<path opacity="0.3" d="M293.442 172.238L290.422 207.34L233.867 202.46L236.888 167.363C236.912 167.073 236.994 166.79 237.128 166.531C237.262 166.272 237.446 166.042 237.669 165.855C237.892 165.667 238.15 165.525 238.428 165.437C238.706 165.35 238.998 165.317 239.289 165.343L291.417 169.823C291.709 169.847 291.994 169.928 292.254 170.063C292.515 170.198 292.746 170.383 292.934 170.608C293.123 170.832 293.265 171.092 293.352 171.372C293.439 171.652 293.47 171.946 293.442 172.238Z" fill="black" fill-opacity="0.7"/>
</g>
<path d="M293.442 172.238L290.422 207.34L233.867 202.46L236.888 167.363C236.912 167.073 236.994 166.79 237.128 166.531C237.262 166.272 237.446 166.042 237.669 165.855C237.892 165.667 238.15 165.525 238.428 165.437C238.706 165.35 238.998 165.317 239.289 165.343L291.417 169.823C291.709 169.847 291.994 169.928 292.254 170.063C292.515 170.198 292.746 170.383 292.934 170.608C293.123 170.832 293.265 171.092 293.352 171.372C293.439 171.652 293.47 171.946 293.442 172.238Z" stroke="#263238" stroke-linecap="round" stroke-linejoin="round"/>
<path d="M293.442 172.238L290.421 207.34L248.453 203.729L251.479 168.632C251.504 168.341 251.585 168.059 251.719 167.8C251.853 167.541 252.037 167.311 252.26 167.123C252.483 166.936 252.741 166.794 253.019 166.706C253.297 166.618 253.59 166.586 253.88 166.611L291.422 169.837C291.712 169.862 291.995 169.943 292.254 170.077C292.513 170.211 292.743 170.395 292.93 170.618C293.118 170.841 293.26 171.099 293.348 171.377C293.436 171.655 293.468 171.948 293.442 172.238Z" fill="#06BCC1" stroke="#263238" stroke-linecap="round" stroke-linejoin="round"/>
<path opacity="0.3" d="M290.495 173.243L254.622 170.159C254.383 170.138 254.161 170.024 254.005 169.842C253.849 169.659 253.771 169.423 253.787 169.183C253.808 168.944 253.923 168.723 254.105 168.567C254.287 168.411 254.524 168.333 254.763 168.349L290.636 171.433C290.875 171.454 291.097 171.568 291.253 171.751C291.409 171.933 291.487 172.169 291.471 172.409C291.45 172.648 291.335 172.869 291.153 173.025C290.971 173.181 290.734 173.26 290.495 173.243Z" fill="white" fill-opacity="0.7"/>
<path d="M318.628 251.499C318.628 251.499 315.924 249.572 310.332 249.957C310.332 249.957 309.922 256.667 309.161 258.619C308.399 260.571 304.388 263.953 303.641 264.534C302.895 265.115 302.895 267.14 302.895 267.14H319.887C319.669 264.235 319.217 261.353 318.535 258.522L318.628 251.499Z" fill="white"/>
<mask id="mask4_659_8985" style="mask-type:luminance" maskUnits="userSpaceOnUse" x="302" y="249" width="18" height="19">
<path d="M318.628 251.499C318.628 251.499 315.924 249.572 310.332 249.957C310.332 249.957 309.922 256.667 309.161 258.619C308.399 260.571 304.388 263.953 303.641 264.534C302.895 265.115 302.895 267.14 302.895 267.14H319.887C319.669 264.235 319.217 261.353 318.535 258.522L318.628 251.499Z" fill="white"/>
</mask>
<g mask="url(#mask4_659_8985)">
<path opacity="0.4" d="M318.628 251.499C318.628 251.499 315.924 249.572 310.332 249.957C310.332 249.957 309.922 256.667 309.161 258.619C308.399 260.571 304.388 263.953 303.641 264.534C302.895 265.115 302.895 267.14 302.895 267.14H319.887C319.669 264.235 319.217 261.353 318.535 258.522L318.628 251.499Z" fill="#06BCC1"/>
</g>
<path d="M318.628 251.499C318.628 251.499 315.924 249.572 310.332 249.957C310.332 249.957 309.922 256.667 309.161 258.619C308.399 260.571 304.388 263.953 303.641 264.534C302.895 265.115 302.895 267.14 302.895 267.14H319.887C319.669 264.235 319.217 261.353 318.535 258.522L318.628 251.499Z" stroke="#263238" stroke-linecap="round" stroke-linejoin="round"/>
<path d="M315.119 252.368C315.119 252.368 314.719 258.546 313.758 260.176C313.244 261.071 312.61 261.892 311.874 262.616" stroke="#263238" stroke-linecap="round" stroke-linejoin="round"/>
<path d="M311.406 263.47C311.406 263.47 310.552 264.534 309.605 264.675C308.658 264.817 303.656 264.534 303.656 264.534L305.696 262.767C305.696 262.767 309.844 262.069 311.406 263.47Z" fill="#06BCC1" stroke="#263238" stroke-linecap="round" stroke-linejoin="round"/>
<path d="M313.172 262.021C313.172 262.021 309.551 259.942 306.97 261.533" stroke="#263238" stroke-linecap="round" stroke-linejoin="round"/>
<path d="M314.046 260.61C314.046 260.61 311.518 258.634 308.536 259.717" stroke="#263238" stroke-linecap="round" stroke-linejoin="round"/>
<path d="M315.119 258.458C315.119 258.458 312.396 256.34 309.527 257.687" stroke="#263238" stroke-linecap="round" stroke-linejoin="round"/>
<path d="M315.49 255.769C315.49 255.769 312.186 253.993 309.785 255.34" stroke="#263238" stroke-linecap="round" stroke-linejoin="round"/>
<path d="M319.882 267.14V268.394H317.93C317.93 268.394 316.256 267.418 314.665 268.394H305.501C304.532 268.391 303.576 268.176 302.7 267.764L302.89 267.14H319.882Z" fill="#06BCC1" stroke="#263238" stroke-linecap="round" stroke-linejoin="round"/>
<path d="M317.447 251.104L317.013 253.842C317.013 253.842 311.913 252.187 309.097 253.261V249.894C309.097 249.894 314.334 248.059 317.447 251.104Z" fill="#06BCC1" stroke="#263238" stroke-linecap="round" stroke-linejoin="round"/>
<path d="M322.961 182.896C322.961 182.896 312.123 185.019 301.489 181.574C299.068 180.802 296.752 179.733 294.594 178.392C294.594 178.392 294.623 177.709 294.643 176.591C294.731 172.228 294.706 161.253 292.408 158.535C290.944 156.822 289.797 146.233 292.622 140.879L301.265 133.93C313.231 136.268 315.758 139.435 317.735 146.267C318.101 147.516 318.442 148.887 318.823 150.4C319.238 152.05 319.628 154.065 319.999 156.256C321.795 167.168 322.961 182.896 322.961 182.896Z" fill="#999999"/>
<mask id="mask5_659_8985" style="mask-type:luminance" maskUnits="userSpaceOnUse" x="290" y="133" width="33" height="51">
<path d="M322.961 182.896C322.961 182.896 312.123 185.019 301.489 181.574C299.068 180.802 296.752 179.733 294.594 178.392C294.594 178.392 294.623 177.709 294.643 176.591C294.731 172.228 294.706 161.253 292.408 158.535C290.944 156.822 289.797 146.233 292.622 140.879L301.265 133.93C313.231 136.268 315.758 139.435 317.735 146.267C318.101 147.516 318.442 148.887 318.823 150.4C319.238 152.05 319.628 154.065 319.999 156.256C321.795 167.168 322.961 182.896 322.961 182.896Z" fill="white"/>
</mask>
<g mask="url(#mask5_659_8985)">
<path opacity="0.2" d="M319.999 156.256L315.119 178.055C315.119 178.055 308.068 180.007 301.494 181.573C299.071 180.802 296.754 179.733 294.594 178.392C294.594 178.392 294.623 177.708 294.643 176.591C300.547 173.57 309.166 169.129 309.097 168.92C308.985 168.593 309.097 157.208 309.097 157.208C309.097 157.208 316.905 155.397 317.735 146.252C318.101 147.501 318.442 148.873 318.823 150.385C319.238 152.04 319.628 154.04 319.999 156.256Z" fill="black"/>
</g>
<path d="M322.961 182.896C322.961 182.896 312.123 185.019 301.489 181.574C299.068 180.802 296.752 179.733 294.594 178.392C294.594 178.392 294.623 177.709 294.643 176.591C294.731 172.228 294.706 161.253 292.408 158.535C290.944 156.822 289.797 146.233 292.622 140.879L301.265 133.93C313.231 136.268 315.758 139.435 317.735 146.267C318.101 147.516 318.442 148.887 318.823 150.4C319.238 152.05 319.628 154.065 319.999 156.256C321.795 167.168 322.961 182.896 322.961 182.896Z" stroke="#263238" stroke-linecap="round" stroke-linejoin="round"/>
<path d="M301.646 124.81C301.646 124.81 297.829 130.275 302.905 134.54C302.905 134.54 296.746 141.45 294.721 140.499C293.867 140.099 294.721 137.605 294.721 137.605L291.149 130.997L301.646 124.81Z" fill="white" stroke="#263238" stroke-linecap="round" stroke-linejoin="round"/>
<path d="M300.401 127.64C301.592 122.433 301.021 114.678 293.725 115.367C288.611 115.855 284.966 118.685 286.405 125.546C287.006 128.44 287.498 132.539 290.153 136.238C290.89 137.263 298.6 133.637 298.132 130.704" fill="white"/>
<path d="M300.401 127.64C301.592 122.433 301.021 114.678 293.725 115.367C288.611 115.855 284.966 118.685 286.405 125.546C287.006 128.44 287.498 132.539 290.153 136.238C290.89 137.263 298.6 133.637 298.132 130.704" stroke="#263238" stroke-linecap="round" stroke-linejoin="round"/>
<path d="M289.963 124.385C290.477 124.186 291.031 124.11 291.58 124.163C292.13 124.216 292.659 124.398 293.125 124.692" stroke="#263238" stroke-linecap="round" stroke-linejoin="round"/>
<path d="M286.293 125.024C286.387 124.825 286.549 124.665 286.751 124.576C286.953 124.486 287.18 124.472 287.391 124.536" stroke="#263238" stroke-linecap="round" stroke-linejoin="round"/>
<path d="M288.118 126.107C288.118 126.107 286.615 128.845 286.61 129.236C286.605 129.626 288.46 129.758 288.46 129.758" fill="white"/>
<path d="M288.118 126.107C288.118 126.107 286.615 128.845 286.61 129.236C286.605 129.626 288.46 129.758 288.46 129.758" stroke="#263238" stroke-linecap="round" stroke-linejoin="round"/>
<path d="M291.349 126.664C291.349 126.962 291.217 127.206 291.032 127.215C290.846 127.225 290.69 126.981 290.68 126.683C290.67 126.386 290.812 126.142 290.997 126.137C291.183 126.132 291.339 126.376 291.349 126.664Z" fill="#263238"/>
<path d="M289.226 131.749C289.226 131.749 292.11 131.207 292.642 130.192" stroke="#263238" stroke-linecap="round" stroke-linejoin="round"/>
<path d="M286.274 120.808L288.518 120.154C288.518 120.154 291.666 118.69 292.334 118.895C293.003 119.1 294.36 121.184 294.316 122.374C294.316 122.374 296.434 124.239 296.702 126.942L297.346 126.649C297.346 126.649 297.312 124.209 298.698 124.273C300.084 124.336 300.709 125.995 300.616 126.518C300.523 127.04 299.005 129.206 299.005 129.206C299.005 129.206 302.48 128.689 302.592 121.886C302.704 115.084 295.248 113.976 291.622 114.254C289.786 114.43 287.942 114.498 286.098 114.459L286.303 116.411L284.839 116.797L285.942 118.148L284.731 118.7L286.274 120.808Z" fill="#263238"/>
<path d="M298.844 194.984C298.844 194.984 307.677 197.321 310.068 203.9" stroke="white" stroke-linecap="round" stroke-linejoin="round"/>
<path d="M302.89 198.522C302.89 198.522 298.117 206.471 290.812 210.6" stroke="white" stroke-linecap="round" stroke-linejoin="round"/>
<path d="M296.18 243.228C296.18 243.228 298.893 242.618 299.635 241.563" stroke="white" stroke-linecap="round" stroke-linejoin="round"/>
<path d="M311.288 244.238C311.288 244.238 313.943 242.861 316.588 244.238" stroke="white" stroke-linecap="round" stroke-linejoin="round"/>
<path d="M319.882 207.228C319.882 207.228 315.427 218.769 313.172 219.838" stroke="white" stroke-linecap="round" stroke-linejoin="round"/>
<path d="M300.372 189.152C300.494 190.407 305.74 196.219 310.068 198.522" stroke="white" stroke-linecap="round" stroke-linejoin="round"/>
<path d="M304.847 184.248C305.478 185.804 305.61 187.518 305.223 189.152C304.802 190.563 304.802 192.066 305.223 193.476" stroke="white" stroke-linecap="round" stroke-linejoin="round"/>
<path d="M295.302 160.248C295.302 160.248 303.515 170.877 312.342 174.366" stroke="#263238" stroke-linecap="round" stroke-linejoin="round"/>
<path d="M303.802 143.065C303.802 143.065 303.773 150.293 308.985 153.553" stroke="#263238" stroke-linecap="round" stroke-linejoin="round"/>
<path d="M306.735 153.611C305.632 154.695 306.833 168.29 306.833 168.29C306.833 168.29 300.426 170.799 298.42 172.414C296.414 174.029 286.913 177.738 286.913 177.738C286.913 177.738 285.449 182.725 287.274 182.896C289.099 183.067 307.999 176.625 312.323 174.366C312.323 174.366 315.139 157.774 315.119 153.553" fill="white"/>
<path d="M306.735 153.611C305.632 154.695 306.833 168.29 306.833 168.29C306.833 168.29 300.426 170.799 298.42 172.414C296.414 174.029 286.913 177.738 286.913 177.738C286.913 177.738 285.449 182.725 287.274 182.896C289.099 183.067 307.999 176.625 312.323 174.366C312.323 174.366 315.139 157.774 315.119 153.553" stroke="#263238" stroke-linecap="round" stroke-linejoin="round"/>
<path d="M287.664 177.44C286.786 177.274 285.224 176.698 284.405 176.889C283.585 177.079 282.087 177.982 280.544 178.353C279.002 178.724 279.642 179.329 280.544 179.509C281.205 179.619 281.88 179.619 282.54 179.509L281.286 180.734C280.568 181.123 279.826 181.467 279.066 181.764C278.612 181.764 277.006 182.198 277.114 182.881C277.221 183.565 278.143 183.486 279.173 183.525C279.173 183.525 277.533 183.852 277.709 184.785C277.817 185.424 279.661 184.848 280.603 184.848C280.603 184.848 279.832 185.687 280.408 185.946C280.984 186.205 282.262 185.56 282.262 185.56C282.262 185.56 282.213 186.253 282.789 186.322C283.365 186.39 284.814 185.834 285.8 185.238C286.771 184.613 287.7 183.925 288.582 183.179C288.955 182.838 289.382 182.561 289.846 182.359" fill="white"/>
<path d="M287.664 177.44C286.786 177.274 285.224 176.698 284.405 176.889C283.585 177.079 282.087 177.982 280.544 178.353C279.002 178.724 279.642 179.329 280.544 179.509C281.205 179.619 281.88 179.619 282.54 179.509L281.286 180.734C280.568 181.123 279.826 181.467 279.066 181.764C278.612 181.764 277.006 182.198 277.114 182.881C277.221 183.565 278.143 183.486 279.173 183.525C279.173 183.525 277.533 183.852 277.709 184.785C277.817 185.424 279.661 184.848 280.603 184.848C280.603 184.848 279.832 185.687 280.408 185.946C280.984 186.205 282.262 185.56 282.262 185.56C282.262 185.56 282.213 186.253 282.789 186.322C283.365 186.39 284.814 185.834 285.8 185.238C286.771 184.613 287.7 183.925 288.582 183.179C288.955 182.838 289.382 182.561 289.846 182.359" stroke="#263238" stroke-linecap="round" stroke-linejoin="round"/>
<path d="M279.198 183.545C279.651 183.521 280.102 183.469 280.549 183.389C280.935 183.291 281.32 183.165 281.32 183.165" stroke="#263238" stroke-linecap="round" stroke-linejoin="round"/>
<path d="M280.608 184.868C281.198 184.785 281.766 184.589 282.282 184.292" stroke="#263238" stroke-linecap="round" stroke-linejoin="round"/>
<path d="M282.267 185.58C282.703 185.525 283.121 185.37 283.487 185.126" stroke="#263238" stroke-linecap="round" stroke-linejoin="round"/>
<path d="M281.442 181.105C281.442 181.105 281.091 181.911 281.442 182.36C281.794 182.809 282.218 182.848 282.282 183.336C282.345 183.824 283.184 183.824 283.487 184.141C283.79 184.458 284.019 185.068 284.985 185.117" stroke="#263238" stroke-linecap="round" stroke-linejoin="round"/>
<path d="M306.325 139.513C303.002 147.033 306.325 157.467 306.325 157.467C306.325 157.467 314.368 160.2 315.109 159.023C315.851 157.847 317.208 152.079 317.437 149.415" fill="#999999"/>
<path d="M306.325 139.513C303.002 147.033 306.325 157.467 306.325 157.467C306.325 157.467 314.368 160.2 315.109 159.023C315.851 157.847 317.208 152.079 317.437 149.415" stroke="#263238" stroke-linecap="round" stroke-linejoin="round"/>
<path d="M315.119 150.249C315.119 150.249 311.703 154.948 308.985 155.012" stroke="#263238" stroke-linecap="round" stroke-linejoin="round"/>
<path d="M55.1122 268.394C55.1122 268.394 54.2777 265.207 55.2537 264.026C57.0007 261.908 55.039 260.122 56.7958 259.395L57.5326 260.249C57.6742 259.385 57.2642 256.745 60.5241 256.404C64.4671 255.989 64.5403 258.844 64.755 259.82L64.6867 258.497C66.3703 258.497 65.4968 260.176 68.0442 262.918C68.712 263.659 69.2203 264.529 69.5377 265.474C69.855 266.419 69.9745 267.42 69.8888 268.413L55.1122 268.394Z" fill="#263238"/>
<path d="M85.1681 268.394C83.5821 267.686 85.0363 261.703 85.0363 261.703C85.0363 261.703 82.9037 260.273 85.0363 258.775C85.8611 259.474 86.8611 259.935 87.9285 260.107C88.9958 260.279 90.0898 260.156 91.0924 259.751C91.0924 259.751 91.5072 255.75 94.0204 256.262C94.0204 256.262 94.6645 258.8 96.1334 260.249C100.111 264.153 105.249 264.641 106.108 266.515C106.367 267.081 106.054 268.374 106.054 268.374L85.1681 268.394Z" fill="#263238"/>
<path d="M78.3897 172.98L80.3417 177.119C80.3417 177.119 88.4132 193.799 93.3567 212.899C93.4738 213.353 96.0309 222.4 93.9813 244.931L95.1525 248.884L93.874 255.413C93.874 255.413 95.7967 258.19 95.7284 259.098C95.7284 259.098 90.985 259.981 89.3844 260.83C88.1546 261.494 84.4605 265.139 84.4605 265.139C83.4113 264.925 83.3185 260.689 83.3185 260.689C83.3185 260.689 81.1274 223.079 80.4979 221.458C79.8684 219.838 76.0229 212.85 70.0205 196.858C70.0205 196.858 69.8839 219.194 68.2832 224.845C66.8534 229.871 68.5468 243.941 68.5468 243.941L67.5708 259.6C67.5708 259.6 70.9477 263.109 68.2101 264.051C68.2101 264.051 66.3801 260.533 61.1682 259.732C58.5184 259.322 55.2195 264.027 55.2195 264.027C54.0581 263.656 55.7075 257.746 55.7075 257.746C52.0133 229.871 54.7315 234.917 53.9995 221.292C53.5115 212.547 51.0471 175.137 53.9556 172.097L78.3897 172.98Z" fill="#BFBFBF"/>
<mask id="mask6_659_8985" style="mask-type:luminance" maskUnits="userSpaceOnUse" x="52" y="172" width="44" height="94">
<path d="M78.3897 172.98L80.3417 177.119C80.3417 177.119 88.4132 193.799 93.3567 212.899C93.4738 213.353 96.0309 222.4 93.9813 244.931L95.1525 248.884L93.874 255.413C93.874 255.413 95.7967 258.19 95.7284 259.098C95.7284 259.098 90.985 259.981 89.3844 260.83C88.1546 261.494 84.4605 265.139 84.4605 265.139C83.4113 264.925 83.3185 260.689 83.3185 260.689C83.3185 260.689 81.1274 223.079 80.4979 221.458C79.8684 219.838 76.0229 212.85 70.0205 196.858C70.0205 196.858 69.8839 219.194 68.2832 224.845C66.8534 229.871 68.5468 243.941 68.5468 243.941L67.5708 259.6C67.5708 259.6 70.9477 263.109 68.2101 264.051C68.2101 264.051 66.3801 260.533 61.1682 259.732C58.5184 259.322 55.2195 264.027 55.2195 264.027C54.0581 263.656 55.7075 257.746 55.7075 257.746C52.0133 229.871 54.7315 234.917 53.9995 221.292C53.5115 212.547 51.0471 175.137 53.9556 172.097L78.3897 172.98Z" fill="white"/>
</mask>
<g mask="url(#mask6_659_8985)">
<path opacity="0.2" d="M52.5989 185.864C65.648 186.888 76.9452 182.618 81.8496 180.388C80.9176 178.3 80.3466 177.119 80.3466 177.119L78.3946 172.985L53.9946 172.097C52.96 173.195 52.594 178.773 52.5989 185.864Z" fill="black"/>
<path opacity="0.2" d="M70.1523 197.146C76.0912 212.933 79.9123 219.843 80.5272 221.453C80.8834 222.39 81.7569 235.161 82.4401 245.878C83.2209 236.118 84.0261 225.836 84.0944 223.82C84.2408 219.799 81.3372 214.29 80.9029 212.865C80.4686 211.44 81.4495 209.897 81.4495 209.897L76.2279 203.309C76.4036 201.074 73.6366 191.319 73.6366 191.319C71.992 192.876 70.528 196.19 70.1523 197.146Z" fill="black"/>
</g>
<path d="M78.3897 172.98L80.3417 177.119C80.3417 177.119 88.4133 193.799 93.3567 212.899C93.4738 213.353 96.0309 222.4 93.9813 244.931L95.1525 248.884L93.874 255.413C93.874 255.413 95.7967 258.19 95.7284 259.098C95.7284 259.098 90.985 259.981 89.3844 260.83C88.1546 261.494 84.4605 265.139 84.4605 265.139C83.4113 264.925 83.3185 260.689 83.3185 260.689C83.3185 260.689 81.1274 223.079 80.4979 221.458C79.8684 219.838 76.0229 212.85 70.0205 196.858C70.0205 196.858 69.8839 219.194 68.2832 224.845C66.8534 229.871 68.5468 243.941 68.5468 243.941L67.5708 259.6C67.5708 259.6 70.9477 263.109 68.2101 264.051C68.2101 264.051 66.3801 260.533 61.1682 259.732C58.5184 259.322 55.2195 264.027 55.2195 264.027C54.0581 263.656 55.7075 257.746 55.7075 257.746C52.0133 229.871 54.7315 234.917 53.9995 221.292C53.5115 212.547 51.0471 175.137 53.9556 172.097L78.3897 172.98Z" stroke="#263238" stroke-linecap="round" stroke-linejoin="round"/>
<path d="M70.0401 196.858C70.0401 196.858 73.0218 191.105 75.5643 189.499" stroke="#263238" stroke-linecap="round" stroke-linejoin="round"/>
<path d="M76.6866 187.635C76.6866 187.635 67.6294 190.392 64.4866 190.924" stroke="#263238" stroke-linecap="round" stroke-linejoin="round"/>
<path d="M72.0506 178.392C72.441 185.932 75.1006 187.215 72.5386 188.86C72.5386 188.86 72.6118 192.388 71.3333 194.623" stroke="#263238" stroke-linecap="round" stroke-linejoin="round"/>
<path d="M56.1809 175.508C56.1809 175.508 57.2496 187.098 53.6823 189.279" stroke="#263238" stroke-linecap="round" stroke-linejoin="round"/>
<path d="M53.6823 179.246C53.6823 179.246 53.4139 186.961 53.6823 193.178C53.6823 193.178 54.5754 219.457 55.4684 222.756C56.3615 226.055 54.0923 231.052 54.2875 245.312" stroke="#263238" stroke-linecap="round" stroke-linejoin="round"/>
<path d="M62.2321 256.472C61.3876 256.289 60.5055 256.406 59.7384 256.804" stroke="#263238" stroke-linecap="round" stroke-linejoin="round"/>
<path d="M67.6001 259.6C66.4809 258.511 65.1836 257.621 63.7644 256.97" stroke="#263238" stroke-linecap="round" stroke-linejoin="round"/>
<path d="M66.1361 198.678C64.1353 200.923 60.9633 205.154 57.7132 205.51" stroke="#263238" stroke-linecap="round" stroke-linejoin="round"/>
<path d="M69.1958 195.028C68.5809 195.804 67.9465 196.565 67.3024 197.321" stroke="#263238" stroke-linecap="round" stroke-linejoin="round"/>
<path d="M66.3459 221.292C66.3459 221.292 61.7978 227.485 59.3041 227.841" stroke="#263238" stroke-linecap="round" stroke-linejoin="round"/>
<path d="M71.6944 195.741C71.6944 195.741 79.7952 218.301 82.611 220.526C82.611 220.526 82.9282 237.118 83.0209 242.911C83.1136 248.703 84.4458 256.404 84.4458 256.404" stroke="#263238" stroke-linecap="round" stroke-linejoin="round"/>
<path d="M93.0932 256.238C93.0932 256.238 89.9749 257.316 88.4572 258.004C87.5253 258.459 86.7951 259.243 86.4076 260.205" stroke="#263238" stroke-linecap="round" stroke-linejoin="round"/>
<path d="M85.2022 212.391C80.8541 209.663 75.1201 206.252 72.807 201.445" stroke="#263238" stroke-linecap="round" stroke-linejoin="round"/>
<path d="M88.994 214.641C88.1693 214.187 87.3592 213.714 86.554 213.226" stroke="#263238" stroke-linecap="round" stroke-linejoin="round"/>
<path d="M75.2909 181.442C72.9534 181.408 70.4109 181.1 68.3955 179.778" stroke="#263238" stroke-linecap="round" stroke-linejoin="round"/>
<path d="M79.0046 181.223C78.3361 181.315 77.6626 181.374 76.9892 181.408" stroke="#263238" stroke-linecap="round" stroke-linejoin="round"/>
<path d="M83.343 129.416C81.5569 126.713 72.4557 126.025 66.6143 126.025C60.773 126.025 53.6823 125.049 50.481 131.637C48.041 136.668 53.6628 163.274 53.6628 163.274L52.2866 174.761C62.8665 178.08 80.9908 177.348 80.9908 177.348L78.5508 166.963C78.5508 166.963 85.129 132.115 83.343 129.416Z" fill="#263238"/>
<path d="M63.1446 119.344C63.1446 119.344 63.9303 125.605 61.5489 126.957C61.5489 126.957 62.7396 131.549 66.9169 131.837C71.0942 132.125 72.9388 127.64 72.9388 127.64L63.1446 119.344Z" fill="white" stroke="#263238" stroke-linecap="round" stroke-linejoin="round"/>
<path d="M85.2822 103.269L95.9728 102.283C96.2151 102.26 96.4563 102.335 96.6435 102.49C96.8306 102.646 96.9483 102.87 96.9706 103.112L97.6743 110.741L85.176 111.894L84.4723 104.265C84.4502 104.026 84.5226 103.788 84.674 103.601C84.8254 103.415 85.0437 103.296 85.2822 103.269Z" fill="#06BCC1"/>
<mask id="mask7_659_8985" style="mask-type:luminance" maskUnits="userSpaceOnUse" x="84" y="102" width="14" height="10">
<path d="M85.2822 103.269L95.9728 102.283C96.2151 102.26 96.4563 102.335 96.6435 102.49C96.8306 102.646 96.9483 102.87 96.9706 103.112L97.6743 110.741L85.176 111.894L84.4723 104.265C84.4502 104.026 84.5226 103.788 84.674 103.601C84.8254 103.415 85.0437 103.296 85.2822 103.269Z" fill="white"/>
</mask>
<g mask="url(#mask7_659_8985)">
<path opacity="0.3" d="M85.2822 103.269L95.9728 102.283C96.2151 102.26 96.4563 102.335 96.6435 102.49C96.8306 102.646 96.9483 102.87 96.9706 103.112L97.6743 110.741L85.176 111.894L84.4723 104.265C84.4502 104.026 84.5226 103.788 84.674 103.601C84.8254 103.415 85.0437 103.296 85.2822 103.269Z" fill="black" fill-opacity="0.7"/>
<path opacity="0.3" d="M96.2843 103.054L93.2083 103.338L93.7758 109.49L96.8517 109.206L96.2843 103.054Z" fill="white" fill-opacity="0.7"/>
</g>
<path d="M85.2822 103.269L95.9728 102.283C96.2151 102.26 96.4563 102.335 96.6435 102.49C96.8306 102.646 96.9483 102.87 96.9706 103.112L97.6743 110.741L85.176 111.894L84.4723 104.265C84.4502 104.026 84.5226 103.788 84.674 103.601C84.8254 103.415 85.0437 103.296 85.2822 103.269Z" stroke="#263238" stroke-linecap="round" stroke-linejoin="round"/>
<path d="M103.766 101.553L114.457 100.567C114.699 100.545 114.941 100.62 115.128 100.775C115.315 100.931 115.433 101.154 115.455 101.397L116.159 109.026L103.641 110.18L102.937 102.551C102.915 102.309 102.99 102.068 103.145 101.881C103.301 101.693 103.524 101.576 103.766 101.553Z" fill="#06BCC1"/>
<mask id="mask8_659_8985" style="mask-type:luminance" maskUnits="userSpaceOnUse" x="102" y="100" width="15" height="11">
<path d="M103.766 101.553L114.457 100.567C114.699 100.545 114.941 100.62 115.128 100.775C115.315 100.931 115.433 101.154 115.455 101.397L116.159 109.026L103.641 110.18L102.937 102.551C102.915 102.309 102.99 102.068 103.145 101.881C103.301 101.693 103.524 101.576 103.766 101.553Z" fill="white"/>
</mask>
<g mask="url(#mask8_659_8985)">
<path opacity="0.3" d="M103.766 101.553L114.457 100.567C114.699 100.545 114.941 100.62 115.128 100.775C115.315 100.931 115.433 101.154 115.455 101.397L116.159 109.026L103.641 110.18L102.937 102.551C102.915 102.309 102.99 102.068 103.145 101.881C103.301 101.693 103.524 101.576 103.766 101.553Z" fill="black" fill-opacity="0.7"/>
<path opacity="0.3" d="M114.548 101.374L112.691 101.545L113.259 107.697L115.115 107.526L114.548 101.374Z" fill="white" fill-opacity="0.7"/>
</g>
<path d="M103.766 101.553L114.457 100.567C114.699 100.545 114.941 100.62 115.128 100.775C115.315 100.931 115.433 101.154 115.455 101.397L116.159 109.026L103.641 110.18L102.937 102.551C102.915 102.309 102.99 102.068 103.145 101.881C103.301 101.693 103.524 101.576 103.766 101.553Z" stroke="#263238" stroke-linecap="round" stroke-linejoin="round"/>
<path d="M99.8822 101.909L110.573 100.923C110.815 100.9 111.056 100.975 111.244 101.131C111.431 101.286 111.548 101.51 111.571 101.752L112.274 109.381L99.7372 110.538L99.0335 102.908C99.0223 102.787 99.0354 102.664 99.0722 102.548C99.109 102.431 99.1686 102.323 99.2477 102.23C99.3267 102.137 99.4236 102.061 99.5326 102.005C99.6415 101.95 99.7604 101.917 99.8822 101.909Z" fill="#06BCC1" stroke="#263238" stroke-linecap="round" stroke-linejoin="round"/>
<path d="M118.348 100.205L129.039 99.2192C129.281 99.1968 129.522 99.2717 129.709 99.4272C129.896 99.5827 130.014 99.8062 130.036 100.048L130.74 107.678L118.222 108.832L117.519 101.203C117.496 100.961 117.571 100.72 117.727 100.532C117.882 100.345 118.106 100.228 118.348 100.205Z" fill="#06BCC1" stroke="#263238" stroke-linecap="round" stroke-linejoin="round"/>
<path opacity="0.3" d="M110.866 101.711L107.79 101.995L108.358 108.147L111.434 107.863L110.866 101.711Z" fill="white" fill-opacity="0.7"/>
<path opacity="0.3" d="M129.129 100.021L126.053 100.305L126.621 106.457L129.697 106.173L129.129 100.021Z" fill="white" fill-opacity="0.7"/>
<path d="M136.023 105.397L139.263 140.474L82.7281 145.696L79.5073 110.609C79.453 110.022 79.6338 109.439 80.0099 108.986C80.386 108.533 80.9267 108.248 81.5129 108.193L133.612 103.386C133.902 103.36 134.195 103.39 134.474 103.477C134.752 103.563 135.011 103.704 135.235 103.891C135.459 104.078 135.644 104.307 135.779 104.565C135.914 104.824 135.997 105.106 136.023 105.397Z" fill="#06BCC1"/>
<mask id="mask9_659_8985" style="mask-type:luminance" maskUnits="userSpaceOnUse" x="79" y="103" width="61" height="43">
<path d="M136.023 105.397L139.263 140.474L82.7281 145.696L79.5073 110.609C79.453 110.022 79.6338 109.439 80.0099 108.986C80.386 108.533 80.9267 108.248 81.5129 108.193L133.612 103.386C133.902 103.36 134.195 103.39 134.474 103.477C134.752 103.563 135.011 103.704 135.235 103.891C135.459 104.078 135.644 104.307 135.779 104.565C135.914 104.824 135.997 105.106 136.023 105.397Z" fill="white"/>
</mask>
<g mask="url(#mask9_659_8985)">
<path opacity="0.3" d="M136.023 105.397L139.263 140.474L82.7281 145.696L79.5073 110.609C79.453 110.022 79.6338 109.439 80.0099 108.986C80.386 108.533 80.9267 108.248 81.5129 108.193L133.612 103.386C133.902 103.36 134.195 103.39 134.474 103.477C134.752 103.563 135.011 103.704 135.235 103.891C135.459 104.078 135.644 104.307 135.779 104.565C135.914 104.824 135.997 105.106 136.023 105.397Z" fill="black" fill-opacity="0.7"/>
</g>
<path d="M136.023 105.397L139.263 140.474L82.7281 145.696L79.5073 110.609C79.453 110.022 79.6338 109.439 80.0099 108.986C80.386 108.533 80.9267 108.248 81.5129 108.193L133.612 103.386C133.902 103.36 134.195 103.39 134.474 103.477C134.752 103.563 135.011 103.704 135.235 103.891C135.459 104.078 135.644 104.307 135.779 104.565C135.914 104.824 135.997 105.106 136.023 105.397Z" stroke="#263238" stroke-linecap="round" stroke-linejoin="round"/>
<path d="M136.023 105.397L139.263 140.475L97.2949 144.345L94.0595 109.267C94.0052 108.681 94.186 108.097 94.5621 107.644C94.9382 107.191 95.4789 106.906 96.0651 106.852L133.587 103.387C133.88 103.357 134.175 103.385 134.457 103.47C134.738 103.555 134.999 103.695 135.226 103.882C135.453 104.069 135.64 104.3 135.777 104.56C135.913 104.82 135.997 105.105 136.023 105.397Z" fill="#06BCC1" stroke="#263238" stroke-linecap="round" stroke-linejoin="round"/>
<path opacity="0.3" d="M133.304 106.905L97.451 110.214C97.2123 110.23 96.9766 110.152 96.7943 109.997C96.612 109.842 96.4974 109.622 96.475 109.384C96.4574 109.146 96.5339 108.91 96.6881 108.728C96.8423 108.545 97.0619 108.43 97.2998 108.408L133.153 105.099C133.392 105.083 133.628 105.161 133.81 105.316C133.992 105.471 134.107 105.691 134.129 105.929C134.144 106.167 134.067 106.401 133.913 106.583C133.759 106.765 133.541 106.88 133.304 106.905Z" fill="white" fill-opacity="0.7"/>
<path d="M70.3036 106.929C70.3036 106.929 62.032 105.27 61.1048 110.594C60.1776 115.918 63.2081 118.182 63.2081 118.182L70.3036 106.929Z" fill="#263238"/>
<path d="M63.2081 121.106C62.2629 118.459 62.1153 115.593 62.7835 112.863C63.5936 109.447 67.6635 104.748 73.8367 109.018C77.0136 111.219 77.2088 115.996 76.2182 120.369C75.9839 121.413 76.1596 122.433 75.8131 123.394C74.5931 126.762 72.363 129.353 71.143 129.412C69.108 129.514 65.0381 127.05 65.204 124.902" fill="white"/>
<path d="M63.2081 121.106C62.2629 118.459 62.1153 115.593 62.7835 112.863C63.5936 109.447 67.6635 104.748 73.8367 109.018C77.0136 111.219 77.2088 115.996 76.2182 120.369C75.9839 121.413 76.1596 122.433 75.8131 123.394C74.5931 126.762 72.363 129.353 71.143 129.412C69.108 129.514 65.0381 127.05 65.204 124.902" stroke="#263238" stroke-linecap="round" stroke-linejoin="round"/>
<path d="M71.4504 119.559C71.4504 119.559 69.8059 118.368 68.2247 119.344" stroke="#263238" stroke-linecap="round" stroke-linejoin="round"/>
<path d="M74.5541 119.344C74.5541 119.344 75.7985 118.202 76.6086 118.368" stroke="#263238" stroke-linecap="round" stroke-linejoin="round"/>
<path d="M69.1275 121.384C69.1275 121.687 69.2788 121.935 69.4691 121.935C69.6594 121.935 69.8156 121.687 69.8156 121.384C69.8156 121.081 69.6594 120.837 69.4691 120.837C69.2788 120.837 69.1275 121.081 69.1275 121.384Z" fill="#263238"/>
<path d="M74.5541 121.628C74.7454 121.628 74.9005 121.383 74.9005 121.081C74.9005 120.779 74.7454 120.535 74.5541 120.535C74.3627 120.535 74.2076 120.779 74.2076 121.081C74.2076 121.383 74.3627 121.628 74.5541 121.628Z" fill="#263238"/>
<path d="M73.8562 120.496C73.2511 121.286 74.1002 124.297 73.8562 124.512C73.6122 124.727 72.0604 124.117 72.0604 124.117C72.0604 124.117 71.6993 123.658 72.4557 123.414" stroke="#263238" stroke-linecap="round" stroke-linejoin="round"/>
<path d="M72.48 126.025C72.48 126.025 70.3963 126.025 69.84 125.264" stroke="#263238" stroke-linecap="round" stroke-linejoin="round"/>
<path d="M67.4927 114.747L67.3317 117.265C67.3317 117.265 65.5456 118.188 65.0966 119.125C64.8295 119.738 64.7317 120.412 64.8136 121.077C64.8136 121.077 63.7302 119.183 63.1446 119.339C62.9348 119.393 62.9348 120.189 62.9348 120.189C62.9348 120.189 60.4948 114.742 62.7006 111.863C64.9063 108.984 67.4927 114.747 67.4927 114.747Z" fill="#757575" stroke="#263238" stroke-linecap="round" stroke-linejoin="round"/>
<path d="M64.0523 120.535C64.0523 120.535 63.5643 118.705 61.9197 118.222C60.2752 117.739 61.4025 122.126 62.803 122.697C64.2036 123.268 64.5549 123.673 64.6379 123.15" fill="white"/>
<path d="M64.0523 120.535C64.0523 120.535 63.5643 118.705 61.9197 118.222C60.2752 117.739 61.4025 122.126 62.803 122.697C64.2036 123.268 64.5549 123.673 64.6379 123.15" stroke="#263238" stroke-linecap="round" stroke-linejoin="round"/>
<path d="M61.8124 114.43C61.6758 114.244 61.0706 109.55 64.1694 107.442C67.2682 105.334 72.5045 105.558 75.8375 108.476C79.1706 111.395 78.2238 116.455 75.8375 118.183V116.07C75.8375 116.07 74.7395 118.187 71.4455 118.363L72.4508 116.811C72.4508 116.811 70.8306 117.787 67.9758 117.704C67.9758 117.704 69.3178 116.636 69.1226 115.684C69.1275 115.684 64.594 118.236 61.8124 114.43Z" fill="#263238"/>
<path d="M62.3931 131.354C60.1093 131.627 56.8592 134.609 58.9771 139.904C60.3289 143.261 71.4357 141.265 71.4357 141.265C75.5545 139.567 81.5715 133.457 85.9879 130.622C85.9879 130.622 85.0558 124.766 83.9822 125.596C78.99 129.417 74.8859 129.68 67.9221 133.028C67.9368 133.008 63.8278 131.183 62.3931 131.354Z" fill="white" stroke="#263238" stroke-linecap="round" stroke-linejoin="round"/>
<path d="M67.4927 137.854C67.4244 140.04 68.3223 140.426 69.8351 140.943L67.4927 137.854Z" fill="white"/>
<path d="M67.4927 137.854C67.4244 140.04 68.3223 140.426 69.8351 140.943" stroke="#263238" stroke-linecap="round" stroke-linejoin="round"/>
<path d="M83.6504 126.025C83.7529 125.708 85.6024 122.458 86.1246 121.633C86.6467 120.808 88.9794 120.062 89.8822 119.564C90.785 119.066 90.8582 118.31 91.3462 118.851C91.8342 119.393 91.3461 120.628 88.6426 121.94C89.6033 121.993 90.5661 121.993 91.5267 121.94C92.249 121.833 92.8931 121.179 93.2152 121.633C93.5373 122.087 93.6007 122.902 91.9903 123.399C91.2245 123.677 90.4222 123.842 89.6089 123.887C90.3968 124.056 91.1714 124.281 91.9269 124.561C92.1855 124.751 92.571 125.195 92.9566 125.264C93.3421 125.332 93.7618 125.752 93.0542 126.24C92.8032 126.378 92.5222 126.454 92.2355 126.459C91.9488 126.464 91.6653 126.399 91.4096 126.269C91.4096 126.269 93.2786 127.172 92.6979 127.733C92.1172 128.294 90.2579 128.182 90.2579 128.182C90.2579 128.182 87.5007 131.544 85.1681 130.841" fill="white"/>
<path d="M83.6504 126.025C83.7529 125.708 85.6024 122.458 86.1246 121.633C86.6467 120.808 88.9794 120.062 89.8822 119.564C90.785 119.066 90.8582 118.31 91.3462 118.851C91.8342 119.393 91.3461 120.628 88.6426 121.94C89.6033 121.993 90.5661 121.993 91.5267 121.94C92.2489 121.833 92.8931 121.179 93.2152 121.633C93.5373 122.087 93.6007 122.902 91.9903 123.399C91.2245 123.677 90.4222 123.842 89.6089 123.887C90.3968 124.056 91.1714 124.281 91.9269 124.561C92.1855 124.751 92.571 125.195 92.9566 125.264C93.3421 125.332 93.7618 125.752 93.0542 126.24C92.8032 126.378 92.5222 126.454 92.2355 126.459C91.9488 126.464 91.6653 126.399 91.4096 126.269C91.4096 126.269 93.2786 127.172 92.6979 127.733C92.1172 128.294 90.2579 128.182 90.2579 128.182C90.2579 128.182 87.5007 131.544 85.1681 130.841" stroke="#263238" stroke-linecap="round" stroke-linejoin="round"/>
<path d="M86.9542 121.628C87.112 121.665 87.2565 121.744 87.372 121.858C87.4874 121.971 87.5691 122.115 87.6081 122.272C87.7691 122.848 88.2425 122.882 88.5304 123.526C88.8183 124.17 88.7354 125.166 89.0184 125.508C89.3014 125.849 89.0184 127.289 89.0184 127.289" stroke="#263238" stroke-linecap="round" stroke-linejoin="round"/>
<path d="M62.8714 130.939C61.6758 129.416 58.9918 130.104 58.9918 130.104" stroke="white" stroke-linecap="round" stroke-linejoin="round"/>
<path d="M57.5278 127.298C57.5278 127.298 60.2899 127.703 61.1048 130.002" stroke="white" stroke-linecap="round" stroke-linejoin="round"/>
<path d="M62.3931 141.851C62.3931 141.851 59.6994 143.934 55.6002 140.943" stroke="white" stroke-linecap="round" stroke-linejoin="round"/>
<path d="M58.9917 142.48C58.9917 142.48 57.6253 144.369 54.2972 144.344" stroke="white" stroke-linecap="round" stroke-linejoin="round"/>
<path d="M76.1108 166.241C76.1108 166.241 69.0641 171.858 61.9051 171.121" stroke="white" stroke-linecap="round" stroke-linejoin="round"/>
<path d="M57.0641 153.899C57.0641 153.899 68.0002 161.922 76.0961 162.435" stroke="white" stroke-linecap="round" stroke-linejoin="round"/>
<path d="M122.387 213.289C124.268 212.246 126.48 211.969 128.56 212.518C132.128 213.416 141.395 226.67 142.683 227.963C143.971 229.257 146.382 229.915 148.603 232.253C152.116 235.918 157.226 239.158 157.743 239.158C158.26 239.158 158.675 238.836 159.319 238.709C159.963 238.582 164.951 238.128 164.951 238.128C164.951 238.128 166.624 238.499 164.951 239.217C163.277 239.934 163.404 240.573 163.404 240.573C163.404 240.573 163.067 241.115 163.74 241.632C164.414 242.15 164.809 241.866 165.77 243.228C166.732 244.589 164.414 243.818 164.414 243.818C164.414 243.818 164.926 245.282 163.896 245.136C162.867 244.99 163.77 246.566 162.096 246.351C160.422 246.136 156.84 243.877 155.942 241.51C155.942 241.51 141.331 234.527 139.145 232.726C136.959 230.926 127.755 221.268 127.126 221.141" fill="#263238"/>
<path d="M160.612 226.367H171.348C171.592 226.367 171.825 226.464 171.997 226.636C172.169 226.808 172.266 227.041 172.266 227.285V234.946H159.695V227.285C159.695 227.041 159.791 226.808 159.963 226.636C160.136 226.464 160.369 226.367 160.612 226.367Z" fill="#06BCC1"/>
<mask id="mask10_659_8985" style="mask-type:luminance" maskUnits="userSpaceOnUse" x="159" y="226" width="14" height="9">
<path d="M160.612 226.367H171.348C171.592 226.367 171.825 226.464 171.997 226.636C172.169 226.808 172.266 227.041 172.266 227.285V234.946H159.695V227.285C159.695 227.041 159.791 226.808 159.963 226.636C160.136 226.464 160.369 226.367 160.612 226.367Z" fill="white"/>
</mask>
<g mask="url(#mask10_659_8985)">
<path opacity="0.3" d="M160.612 226.367H171.348C171.592 226.367 171.825 226.464 171.997 226.636C172.169 226.808 172.266 227.041 172.266 227.285V234.946H159.695V227.285C159.695 227.041 159.791 226.808 159.963 226.636C160.136 226.464 160.369 226.367 160.612 226.367Z" fill="black" fill-opacity="0.7"/>
<path opacity="0.3" d="M171.568 227.177H168.479V233.355H171.568V227.177Z" fill="white" fill-opacity="0.7"/>
</g>
<path d="M160.612 226.367H171.348C171.592 226.367 171.825 226.464 171.997 226.636C172.169 226.808 172.266 227.041 172.266 227.285V234.946H159.695V227.285C159.695 227.041 159.791 226.808 159.963 226.636C160.136 226.464 160.369 226.367 160.612 226.367Z" stroke="#263238" stroke-linecap="round" stroke-linejoin="round"/>
<path d="M179.156 226.367H189.892C190.136 226.367 190.369 226.464 190.541 226.636C190.713 226.808 190.81 227.041 190.81 227.285V234.946H178.239V227.285C178.239 227.164 178.263 227.045 178.309 226.934C178.355 226.822 178.422 226.721 178.507 226.636C178.593 226.551 178.694 226.483 178.805 226.437C178.916 226.391 179.036 226.367 179.156 226.367Z" fill="#06BCC1"/>
<mask id="mask11_659_8985" style="mask-type:luminance" maskUnits="userSpaceOnUse" x="178" y="226" width="13" height="9">
<path d="M179.156 226.367H189.892C190.136 226.367 190.369 226.464 190.541 226.636C190.713 226.808 190.81 227.041 190.81 227.285V234.946H178.239V227.285C178.239 227.164 178.263 227.045 178.309 226.934C178.355 226.822 178.422 226.721 178.507 226.636C178.593 226.551 178.694 226.483 178.805 226.437C178.916 226.391 179.036 226.367 179.156 226.367Z" fill="white"/>
</mask>
<g mask="url(#mask11_659_8985)">
<path opacity="0.3" d="M179.156 226.367H189.892C190.136 226.367 190.369 226.464 190.541 226.636C190.713 226.808 190.81 227.041 190.81 227.285V234.946H178.239V227.285C178.239 227.164 178.263 227.045 178.309 226.934C178.355 226.822 178.422 226.721 178.507 226.636C178.593 226.551 178.694 226.483 178.805 226.437C178.916 226.391 179.036 226.367 179.156 226.367Z" fill="black" fill-opacity="0.7"/>
<path opacity="0.3" d="M189.907 227.177H188.043V233.355H189.907V227.177Z" fill="white" fill-opacity="0.7"/>
</g>
<path d="M179.156 226.367H189.892C190.136 226.367 190.369 226.464 190.541 226.636C190.713 226.808 190.81 227.041 190.81 227.285V234.946H178.239V227.285C178.239 227.164 178.263 227.045 178.309 226.934C178.355 226.822 178.422 226.721 178.507 226.636C178.593 226.551 178.694 226.483 178.805 226.437C178.916 226.391 179.036 226.367 179.156 226.367Z" stroke="#263238" stroke-linecap="round" stroke-linejoin="round"/>
<path d="M175.252 226.367H185.988C186.232 226.367 186.465 226.464 186.637 226.636C186.809 226.808 186.906 227.041 186.906 227.285V234.946H174.335V227.285C174.335 227.164 174.359 227.045 174.405 226.934C174.451 226.822 174.518 226.721 174.603 226.636C174.689 226.551 174.79 226.483 174.901 226.437C175.012 226.391 175.132 226.367 175.252 226.367Z" fill="#06BCC1" stroke="#263238" stroke-linecap="round" stroke-linejoin="round"/>
<path d="M193.796 226.367H204.532C204.776 226.367 205.009 226.464 205.181 226.636C205.353 226.808 205.45 227.041 205.45 227.285V234.946H192.879V227.285C192.879 227.041 192.975 226.808 193.147 226.636C193.32 226.464 193.553 226.367 193.796 226.367Z" fill="#06BCC1" stroke="#263238" stroke-linecap="round" stroke-linejoin="round"/>
<path opacity="0.3" d="M186.208 227.177H183.119V233.355H186.208V227.177Z" fill="white" fill-opacity="0.7"/>
<path opacity="0.3" d="M204.547 227.177H201.458V233.355H204.547V227.177Z" fill="white" fill-opacity="0.7"/>
<path d="M210.92 233.16V268.389H154.161V233.16C154.161 232.571 154.395 232.007 154.811 231.59C155.228 231.174 155.792 230.94 156.381 230.94H208.7C209.289 230.94 209.853 231.174 210.27 231.59C210.686 232.007 210.92 232.571 210.92 233.16Z" fill="#06BCC1"/>
<mask id="mask12_659_8985" style="mask-type:luminance" maskUnits="userSpaceOnUse" x="154" y="230" width="57" height="39">
<path d="M210.92 233.16V268.389H154.161V233.16C154.161 232.571 154.395 232.007 154.811 231.59C155.228 231.174 155.792 230.94 156.381 230.94H208.7C209.289 230.94 209.853 231.174 210.27 231.59C210.686 232.007 210.92 232.571 210.92 233.16Z" fill="white"/>
</mask>
<g mask="url(#mask12_659_8985)">
<path opacity="0.3" d="M210.92 233.16V268.389H154.161V233.16C154.161 232.571 154.395 232.007 154.811 231.59C155.228 231.174 155.792 230.94 156.381 230.94H208.7C209.289 230.94 209.853 231.174 210.27 231.59C210.686 232.007 210.92 232.571 210.92 233.16Z" fill="black" fill-opacity="0.7"/>
</g>
<path d="M210.92 233.16V268.389H154.161V233.16C154.161 232.571 154.395 232.007 154.811 231.59C155.228 231.174 155.792 230.94 156.381 230.94H208.7C209.289 230.94 209.853 231.174 210.27 231.59C210.686 232.007 210.92 232.571 210.92 233.16Z" stroke="#263238" stroke-linecap="round" stroke-linejoin="round"/>
<path d="M210.92 233.16V268.389H168.801V233.16C168.801 232.571 169.035 232.007 169.451 231.59C169.868 231.174 170.432 230.94 171.021 230.94H208.7C209.289 230.94 209.853 231.174 210.27 231.59C210.686 232.007 210.92 232.571 210.92 233.16Z" fill="#06BCC1" stroke="#263238" stroke-linecap="round" stroke-linejoin="round"/>
<path opacity="0.3" d="M208.07 234.414H172.066C171.822 234.414 171.589 234.318 171.417 234.146C171.245 233.974 171.148 233.74 171.148 233.497C171.146 233.375 171.167 233.254 171.212 233.14C171.257 233.026 171.324 232.923 171.41 232.836C171.495 232.748 171.597 232.679 171.71 232.632C171.823 232.584 171.943 232.56 172.066 232.56H208.07C208.314 232.56 208.547 232.657 208.719 232.829C208.891 233.001 208.988 233.234 208.988 233.478C208.99 233.6 208.968 233.721 208.924 233.835C208.879 233.948 208.811 234.052 208.726 234.139C208.641 234.226 208.539 234.295 208.426 234.343C208.313 234.39 208.192 234.414 208.07 234.414Z" fill="white" fill-opacity="0.7"/>
<path d="M141.419 268.389C138.491 268.389 134.377 266.505 129.639 264.514C124.725 262.445 119.127 260.259 113.447 259.932C111.329 259.81 112.613 268.389 112.613 268.389H107.977C107.977 268.389 103.399 262.279 102.867 256.809C102.867 256.809 106.605 254.5 107.503 254.369C107.813 254.336 108.124 254.322 108.435 254.325C109.441 254.325 110.783 254.369 110.783 254.369C110.568 254.242 107.147 252.182 105.258 250.089C103.702 248.361 102.989 245.633 102.936 244.004C102.996 242.924 103.115 241.849 103.292 240.783L127.653 241.188C127.653 241.188 127.916 241.373 128.385 241.72C131.21 243.779 141.536 251.45 146.699 257.233C148.368 259.102 149.496 260.771 149.662 261.991C150.437 267.618 145.836 268.389 141.419 268.389Z" fill="#757575" stroke="#263238" stroke-linecap="round" stroke-linejoin="round"/>
<path d="M146.704 257.223L134.856 259.932C132.824 261.094 131.047 262.652 129.629 264.514C124.715 262.445 119.118 260.259 113.437 259.932C111.319 259.81 112.603 268.389 112.603 268.389H107.967C107.967 268.389 103.399 262.279 102.867 256.809C102.867 256.809 107.181 262.957 108.235 266.081C108.235 266.081 109.909 260.303 112.627 257.985C111.4 256.602 110.004 255.377 108.474 254.339C109.48 254.339 110.822 254.383 110.822 254.383C110.607 254.256 107.186 252.197 105.297 250.104C103.741 248.376 103.111 245.643 102.975 244.018C102.906 243.218 103.004 240.797 103.004 240.797C103.004 240.797 121.172 243.389 128.424 241.734C131.215 243.784 141.541 251.441 146.704 257.223Z" fill="#263238"/>
<path d="M127.658 256.809C127.658 256.809 137.31 261.645 139.887 263.539C142.464 265.432 143.23 264.92 143.23 264.92" stroke="#263238" stroke-linecap="round" stroke-linejoin="round"/>
<path d="M105.263 256.296C105.263 256.296 107.581 259.834 107.703 260.893" stroke="#263238" stroke-linecap="round" stroke-linejoin="round"/>
<path d="M144.089 188.386C144.089 188.386 149.227 186.151 148.739 195.658C148.251 205.164 149.993 205.652 149.993 205.652C149.993 205.652 137.061 210.961 133.777 206.423C130.493 201.884 133.611 189.465 144.089 188.386Z" fill="#263238"/>
<path d="M143.371 205.652C143.371 205.652 138.052 208.16 137.569 210.478C137.086 212.796 130.425 209.307 130.425 209.307L135.251 202.368L143.371 205.652Z" fill="white" stroke="#263238" stroke-linecap="round" stroke-linejoin="round"/>
<path d="M108.494 231.096C96.2938 246.634 106.195 254.13 120.025 252.89L117.253 257.282L124.212 258.487C124.212 258.487 129.546 255.003 136.817 251.28C149.193 244.936 154.195 245.316 152.921 238.967C151.648 232.619 136.481 228.5 121.275 235.19C121.26 235.185 113.003 225.377 108.494 231.096Z" fill="#757575" stroke="#263238" stroke-linecap="round" stroke-linejoin="round"/>
<path d="M112.749 264.919C112.749 264.919 115.926 256.135 117.253 255.647C118.581 255.159 123.597 257.063 124.212 258.478C124.212 258.478 125.906 255.882 126.599 256.985C127.292 258.087 126.291 259.913 126.599 261.308C126.906 262.704 130.337 264.656 131.708 264.915C133.079 265.173 133.86 265.944 133.86 266.715V268.389H112.749C112.515 267.841 112.394 267.251 112.394 266.654C112.394 266.058 112.515 265.468 112.749 264.919Z" fill="white" stroke="#263238" stroke-linecap="round" stroke-linejoin="round"/>
<path d="M126.599 259.932C126.599 259.932 123.802 261.313 122.782 260.908C121.763 260.503 123.305 263.226 123.69 263.485C124.076 263.743 126.618 262.582 126.618 262.582" stroke="#263238" stroke-linecap="round" stroke-linejoin="round"/>
<path d="M115.389 258.483C115.389 258.483 119.186 258.556 120.342 259.947" stroke="#263238" stroke-linecap="round" stroke-linejoin="round"/>
<path d="M112.749 264.919C112.749 264.919 118.8 266.335 119.313 266.335C120.145 266.17 120.961 265.933 121.753 265.627C121.753 265.627 123.412 266.462 124.515 266.979C125.618 267.496 132.811 266.979 132.811 266.979" stroke="#263238" stroke-linecap="round" stroke-linejoin="round"/>
<path d="M120.025 252.9C125.803 252.275 137.027 245.155 140.931 242.681C144.835 240.207 145.811 240.856 145.811 240.856" stroke="#263238" stroke-linecap="round" stroke-linejoin="round"/>
<path d="M102.97 240.773L103.892 233.77L106.117 232.092C109.724 223.342 126.062 206.999 130.517 207.052C137.208 207.13 138.389 214.153 139.213 221.839C140.038 229.525 129.614 228.368 129.614 228.368V230.296L123.685 233.365L127.277 233.253C127.277 233.253 116.946 243.296 102.97 240.773Z" fill="#06BCC1" stroke="#263238" stroke-linecap="round" stroke-linejoin="round"/>
<path d="M131.928 193.52C133.328 189.128 139.736 187.957 142.039 188.674C143.93 189.412 145.479 190.826 146.387 192.642C146.973 193.905 145.748 196.14 146.621 197.443C147.871 199.312 147.763 203.256 147.314 205.739C147.07 207.057 141.59 207.838 137.11 204.763C132.298 201.435 130.571 197.746 131.928 193.52Z" fill="white" stroke="#263238" stroke-linecap="round" stroke-linejoin="round"/>
<path d="M138.403 187.362C138.403 187.362 144.045 186.444 144.084 187.893C144.333 197.522 138.56 199.542 138.56 199.542C138.56 199.542 136.202 197.663 135.675 198.952C135.148 200.24 136.505 203.802 138.174 203.875C137.789 204.473 137.579 205.166 137.567 205.876C137.555 206.587 137.742 207.286 138.106 207.897C138.106 207.897 128.551 209.492 127.76 205.066C128.129 203.528 128.394 201.966 128.551 200.391C129.17 194.189 127.721 190.016 138.403 187.362Z" fill="#263238"/>
<path d="M145.938 197.175C147.114 198.234 147.958 198.234 147.944 198.615C147.9 199.801 146.48 200.391 146.48 200.391" fill="white"/>
<path d="M145.938 197.175C147.114 198.234 147.958 198.234 147.944 198.615C147.9 199.801 146.48 200.391 146.48 200.391" stroke="#263238" stroke-linecap="round" stroke-linejoin="round"/>
<path d="M146.45 202.368C145.619 202.649 144.723 202.671 143.879 202.431" stroke="#263238" stroke-linecap="round" stroke-linejoin="round"/>
<path d="M143.322 191.266C143.322 191.266 147.075 190.177 146.387 196.268C146.387 196.268 147.949 194.145 147.944 191.759C147.944 187.625 142.415 188.455 142.415 188.455L143.137 191.383" fill="#263238"/>
<path d="M146.734 194.247C146.591 194.153 146.432 194.088 146.264 194.057C146.096 194.026 145.924 194.029 145.758 194.067" stroke="#263238" stroke-linecap="round" stroke-linejoin="round"/>
<path d="M144.206 194.179C144.206 194.179 142.19 194.296 141.317 195.643" stroke="#263238" stroke-linecap="round" stroke-linejoin="round"/>
<path d="M143.723 197.385C143.752 197.707 143.615 197.985 143.415 198.005C143.215 198.024 143.03 197.775 142.995 197.453C142.961 197.131 143.103 196.853 143.303 196.834C143.503 196.814 143.693 197.063 143.723 197.385Z" fill="#263238"/>
<path d="M120.342 254.364C120.342 254.364 124.832 254.852 125.808 256.804" stroke="#263238" stroke-linecap="round" stroke-linejoin="round"/>
<path d="M131.708 210.346C133.589 209.303 135.801 209.026 137.881 209.575C141.453 210.478 150.716 223.727 152.004 225.02C153.292 226.314 155.703 226.972 157.923 229.31C161.437 232.975 166.546 236.215 167.064 236.215C167.581 236.215 167.996 235.893 168.64 235.766C169.284 235.639 174.271 235.186 174.271 235.186C174.271 235.186 175.945 235.561 174.271 236.274C172.598 236.986 172.724 237.635 172.724 237.635C172.724 237.635 172.393 238.172 173.061 238.689C173.73 239.207 174.13 238.924 175.091 240.285C176.053 241.647 173.735 240.876 173.735 240.876C173.735 240.876 174.247 242.34 173.217 242.193C172.188 242.047 173.09 243.623 171.417 243.408C169.743 243.194 166.161 240.934 165.263 238.567C165.263 238.567 150.652 231.584 148.466 229.783C146.28 227.983 137.086 218.325 136.437 218.198" fill="white"/>
<path d="M131.708 210.346C133.589 209.303 135.801 209.026 137.881 209.575C141.453 210.478 150.716 223.727 152.004 225.02C153.292 226.314 155.703 226.972 157.923 229.31C161.437 232.975 166.546 236.215 167.064 236.215C167.581 236.215 167.996 235.893 168.64 235.766C169.284 235.639 174.271 235.186 174.271 235.186C174.271 235.186 175.945 235.561 174.271 236.274C172.598 236.986 172.724 237.635 172.724 237.635C172.724 237.635 172.393 238.172 173.061 238.689C173.73 239.207 174.13 238.924 175.091 240.285C176.053 241.647 173.735 240.876 173.735 240.876C173.735 240.876 174.247 242.34 173.217 242.193C172.188 242.047 173.09 243.623 171.417 243.408C169.743 243.194 166.161 240.934 165.263 238.567C165.263 238.567 150.652 231.584 148.466 229.783C146.28 227.983 137.086 218.325 136.437 218.198" stroke="#263238" stroke-linecap="round" stroke-linejoin="round"/>
<path d="M129.61 208.931C129.61 208.931 136.813 207.004 139.326 208.419C141.839 209.834 146.602 216.398 146.602 216.398C146.602 216.398 140.795 221.595 138.999 221.122C137.203 220.648 131.708 219.872 131.708 219.872" fill="#06BCC1"/>
<path d="M129.61 208.931C129.61 208.931 136.813 207.004 139.326 208.419C141.839 209.834 146.602 216.398 146.602 216.398C146.602 216.398 140.795 221.595 138.999 221.122C137.203 220.648 131.708 219.872 131.708 219.872" stroke="#263238" stroke-linecap="round" stroke-linejoin="round"/>
<path d="M135.856 220.506C135.856 220.506 133.245 221.941 132.284 221.941" stroke="#263238" stroke-linecap="round" stroke-linejoin="round"/>
<path d="M131.708 213.309C131.928 213.694 131.854 217.915 136.437 219.228" stroke="#263238" stroke-linecap="round" stroke-linejoin="round"/>
<path d="M107.215 232.228C107.215 232.228 116.975 233.902 120.342 230.94" stroke="#263238" stroke-linecap="round" stroke-linejoin="round"/>
<path d="M123.68 233.365C123.68 233.365 121.24 232.936 120.342 234.19C119.445 235.444 114.555 236.63 114.555 236.63" stroke="#263238" stroke-linecap="round" stroke-linejoin="round"/>
<path d="M104.063 242.681C104.063 242.681 102.652 248.762 108.67 251.465" stroke="#263238" stroke-linecap="round" stroke-linejoin="round"/>
<path d="M107.215 243.101C107.215 243.101 107.249 246.097 108.191 247.737L111.183 248.713L114.53 246.849C114.53 246.849 113.818 243.018 113.754 242.242" stroke="#263238" stroke-linecap="round" stroke-linejoin="round"/>
</svg>
