<svg width="361" height="349" viewBox="0 0 361 349" fill="none" xmlns="http://www.w3.org/2000/svg">
<path d="M31.8672 276.711H332.939" stroke="#263238" stroke-linecap="round" stroke-linejoin="round"/>
<path d="M212.435 42.8282V22.2847C196.641 26.1995 182.143 33.098 167.921 42.8092L212.435 42.8282Z" fill="#06BCC1"/>
<path d="M327.645 50.2305H218.639V185.103H327.645V50.2305Z" fill="#06BCC1"/>
<path d="M212.435 50.2305H157.713C145.484 59.3525 132.931 68.5885 118.28 73.8527C113.381 75.6201 108.424 77.1689 103.43 78.6037V185.103H212.435V50.2305Z" fill="#06BCC1"/>
<path d="M349.21 71.8096C345.084 64.4203 339.912 57.6615 333.854 51.7412V185.103H345.064C362.297 150.734 367.94 105.685 349.21 71.8096Z" fill="#06BCC1"/>
<path d="M97.2354 80.3423C91.2971 81.9671 85.3112 83.497 79.3252 85.0933C32.4193 97.5886 3.3378 139.607 8.72326 185.103H97.2354V80.3423Z" fill="#06BCC1"/>
<path d="M333.854 192.505V203.613C335.233 201.776 336.552 199.876 337.81 197.912C338.935 196.154 340.021 194.339 341.089 192.496L333.854 192.505Z" fill="#06BCC1"/>
<path d="M327.645 192.505H218.639V249.385C227.704 249.499 236.692 250.221 245.862 249.223C275.963 245.955 306.808 233.678 327.645 211.044V192.505Z" fill="#06BCC1"/>
<path d="M218.639 42.8282H323.432C302.166 27.0357 274.591 19.1869 248.493 18.5598C238.485 18.2654 228.475 19.0587 218.639 20.9258V42.8282Z" fill="#06BCC1"/>
<path d="M212.435 192.505H103.43V273.463C122.331 273.786 141.319 268.37 159.238 262.308C173.479 257.5 187.834 252.521 202.875 250.278C206.033 249.82 209.216 249.547 212.407 249.461L212.435 192.505Z" fill="#06BCC1"/>
<path d="M97.2353 192.505H9.90506C16.787 225.763 43.3426 256.084 76.742 268.57C83.3304 271.023 90.2262 272.561 97.2353 273.14V192.505Z" fill="#06BCC1"/>
<g opacity="0.7">
<path d="M208.136 196.257C235.975 184.263 246.321 233.559 298.319 224.611C341.172 217.286 367.927 129.899 355 78.5C339.486 16.7966 295.101 -1.20139 260.195 0.865496C221.004 3.17068 200.563 26.3495 164.979 42.0536C123.769 60.2632 57.8688 55.1565 25.1794 88.7158C-6.31224 121.037 -5.87766 197.967 15.9633 238.051C37.6437 277.845 87.03 314.547 127.908 291.536C172.707 266.302 167.5 213.825 208.136 196.257Z" fill="#06BCC1"/>
<path d="M212.435 42.8282V22.2847C196.641 26.1995 182.143 33.098 167.921 42.8092L212.435 42.8282Z" fill="white"/>
<path d="M327.644 50.2305H218.639V185.103H327.644V50.2305Z" fill="white"/>
<path d="M212.435 50.2305H157.713C145.484 59.3525 132.931 68.5885 118.28 73.8527C113.381 75.6201 108.424 77.1689 103.43 78.6037V185.103H212.435V50.2305Z" fill="white"/>
<path d="M349.21 71.8096C345.084 64.4203 339.912 57.6615 333.854 51.7412V185.103H345.063C362.297 150.734 367.463 104.5 349.21 71.8096Z" fill="white"/>
<path d="M97.2354 80.3428C91.2971 81.9676 85.3112 83.4975 79.3252 85.0938C32.4193 97.5891 3.3378 139.607 8.72326 185.103H97.2354V80.3428Z" fill="white"/>
<path d="M333.854 192.505V203.613C335.233 201.776 336.551 199.876 337.81 197.912C338.934 196.154 340.021 194.339 341.089 192.496L333.854 192.505Z" fill="white"/>
<path d="M327.644 192.505H218.639V249.385C227.704 249.499 236.692 250.221 245.862 249.223C275.963 245.955 306.808 233.678 327.644 211.044V192.505Z" fill="white"/>
<path d="M218.639 42.8282H323.431C302.166 27.0357 274.59 19.1869 248.492 18.5598C238.485 18.2654 228.474 19.0587 218.639 20.9258V42.8282Z" fill="white"/>
<path d="M212.435 192.505H103.43V273.463C122.331 273.786 141.319 268.37 159.238 262.308C173.479 257.5 187.834 252.521 202.875 250.278C206.033 249.82 209.216 249.547 212.407 249.461L212.435 192.505Z" fill="white"/>
<path d="M97.2353 192.505H9.90506C16.787 225.763 43.3426 256.084 76.742 268.57C83.3304 271.023 90.2262 272.561 97.2353 273.14V192.505Z" fill="white"/>
</g>
<path d="M295.311 216.533H292.589H169.665H166.943V221.96H169.665V277.128H292.589V221.96H295.311V216.533Z" fill="#06BCC1"/>
<path opacity="0.5" d="M295.311 216.533H292.589H169.665H166.943V221.96H169.665V277.128H292.589V221.96H295.311V216.533Z" fill="white"/>
<path d="M172.952 245.358H206.484V227.502H172.952V245.358ZM173.633 228.181H205.804V244.68H173.633V228.181Z" fill="white"/>
<path d="M214.592 245.358H248.118V227.502H214.592V245.358ZM215.273 228.181H247.437V244.68H215.273V228.181Z" fill="white"/>
<path d="M256.226 227.502V245.358H289.751V227.502H256.226ZM289.071 244.68H256.907V228.181H289.071V244.68Z" fill="white"/>
<path d="M172.952 269.326H206.484V251.464H172.952V269.326ZM173.633 252.142H205.804V268.648H173.633V252.142Z" fill="white"/>
<path d="M214.592 269.326H248.118V251.464H214.592V269.326ZM215.273 252.142H247.437V268.648H215.273V252.142Z" fill="white"/>
<path d="M256.226 269.326H289.751V251.464H256.226V269.326ZM256.907 252.142H289.071V268.648H256.907V252.142Z" fill="white"/>
<path d="M190.075 238.69C193.081 238.69 195.519 237.778 195.519 236.654C195.519 235.53 193.081 234.619 190.075 234.619C187.068 234.619 184.63 235.53 184.63 236.654C184.63 237.778 187.068 238.69 190.075 238.69Z" fill="white"/>
<path d="M231.509 238.69C234.516 238.69 236.953 237.778 236.953 236.654C236.953 235.53 234.516 234.619 231.509 234.619C228.502 234.619 226.065 235.53 226.065 236.654C226.065 237.778 228.502 238.69 231.509 238.69Z" fill="white"/>
<path d="M274.151 238.69C277.158 238.69 279.595 237.778 279.595 236.654C279.595 235.53 277.158 234.619 274.151 234.619C271.144 234.619 268.707 235.53 268.707 236.654C268.707 237.778 271.144 238.69 274.151 238.69Z" fill="white"/>
<path d="M190.075 258.587C187.07 258.587 184.637 259.496 184.637 260.622C184.637 261.749 187.07 262.657 190.075 262.657C193.079 262.657 195.519 261.749 195.519 260.622C195.519 259.496 193.085 258.587 190.075 258.587Z" fill="white"/>
<path d="M231.509 258.587C228.505 258.587 226.071 259.496 226.071 260.622C226.071 261.749 228.505 262.657 231.509 262.657C234.514 262.657 236.953 261.749 236.953 260.622C236.953 259.496 234.52 258.587 231.509 258.587Z" fill="white"/>
<path d="M274.151 258.587C271.146 258.587 268.707 259.496 268.707 260.622C268.707 261.749 271.146 262.657 274.151 262.657C277.155 262.657 279.595 261.749 279.595 260.622C279.595 259.496 277.155 258.587 274.151 258.587Z" fill="white"/>
<path d="M120.167 211.797C117.689 215.457 114.235 220.225 112.393 224.053C113.092 221.531 113.779 219.15 114.402 217.013C115.346 215.169 117.875 210.497 120.822 207.413C124.526 203.457 126.112 200.923 124.115 200.699C122.735 200.545 118.691 205.915 116.155 211.253C116.707 209.429 117.143 208.053 117.407 207.221C117.529 206.856 117.644 206.446 117.76 206.017C120.385 202.363 122.773 198.545 124.912 194.587C128.654 187.611 129.861 181.032 127.364 183.867C125.066 186.472 121.066 199.419 117.894 205.518C118.158 204.469 118.414 203.304 118.639 202.158C119.089 201.051 119.679 199.925 120.013 198.901C120.533 197.333 120.989 195.739 121.355 194.126C121.958 191.61 122.264 189.033 122.266 186.446C122.33 183.408 121.5 180.418 119.878 177.845C119.448 177.205 116.822 173.288 116.026 175.285C115.924 175.618 115.904 175.972 115.968 176.315C116.354 179.649 117.567 182.715 118.318 185.96C119.442 190.817 118.697 198.977 118.318 202.446C118.177 202.99 117.997 203.675 117.785 204.462C118.305 198.414 115.68 191.253 113.246 190.005C110.235 188.456 113.189 194.536 115.513 199.841C116.616 202.165 117.134 204.722 117.021 207.291C116.546 209.038 116.001 210.997 115.436 212.981C115.326 213.256 115.217 213.525 115.115 213.793C115.375 212.498 115.482 211.177 115.436 209.857C115.211 206.389 111.269 199.445 108.65 200.424C106.03 201.403 110.467 205.07 112.835 209.333C114.046 211.67 114.508 214.322 114.158 216.929C114.158 217.083 114.107 217.237 114.087 217.39C113.818 218.293 113.548 219.169 113.285 219.995C112.643 221.915 112.097 223.758 111.551 225.537C112.222 222.958 112.516 220.296 112.425 217.633C112.097 212.545 109.112 207.745 106.647 207.093C104.181 206.44 108.887 214.728 110.467 219.387C111.325 222.108 111.471 225.003 110.89 227.797C110.126 230.318 109.407 232.801 108.669 235.438C108.878 231.993 108.805 228.536 108.451 225.102C107.969 219.445 104.599 215.829 102.268 215.976C99.9377 216.123 102.371 219.336 105.722 226.216C107.491 229.828 108.279 233.84 108.008 237.851C107.706 238.965 107.366 240.104 107.083 241.294C106.724 242.651 106.441 244.123 106.191 245.633C105.851 244.289 105.35 242.318 104.766 240.142C104.085 237.735 103.592 235.278 103.289 232.795C102.974 229.909 102.21 226.312 99.3727 224.808C99.1808 224.673 98.9613 224.582 98.7299 224.541C98.4986 224.5 98.2611 224.511 98.0343 224.572C97.8075 224.633 97.597 224.743 97.4177 224.894C97.2385 225.046 97.095 225.235 96.9973 225.448C96.7309 226.065 96.6702 226.752 96.824 227.406C97.201 229.368 97.8492 231.267 98.75 233.051C98.1881 234.115 97.9326 235.313 98.0117 236.513C98.0117 236.968 98.0502 237.416 98.0823 237.857C97.8319 237.403 97.5944 236.981 97.3697 236.577C96.9634 235.9 96.4618 235.283 95.8803 234.747C96.0253 233.686 96.0982 232.617 96.0986 231.547C96.0986 230.139 94.4486 226.568 92.9592 229.217C92.3685 230.273 92.4777 232.36 92.4199 233.742C92.0154 234.12 91.8934 234.901 92.2337 236.136C91.8961 239.342 92.065 242.582 92.7345 245.736L92.2273 244.84C91.4978 241.138 91.0684 237.384 90.9433 233.614C90.6993 227.4 91.688 222.28 89.9931 220.36C88.2982 218.44 87.3417 225.192 88.0671 232.52C88.4117 235.88 89.3097 239.16 90.725 242.229C89.0558 239.24 87.4059 236.193 85.8458 233.269C85.2038 231.694 83.6116 227.457 84.0033 223.157C84.4976 217.729 84.8571 213.294 82.7899 210.241C80.7226 207.189 80.2925 209.166 81.3069 215.528C82.0002 219.899 82.7385 225.736 84.0161 229.787C82.8027 227.464 81.6664 225.256 80.652 223.253C80.0742 221.262 78.726 216.129 78.726 211.873C78.726 206.465 78.1418 203.553 76.5368 204.725C75.4197 205.557 76.1388 212.232 77.9364 217.851C77.0954 216.142 76.4598 214.83 76.0938 214.056C75.9269 213.704 75.7407 213.333 75.5289 212.936C74.9551 208.481 74.0974 204.066 72.9609 199.72C70.9257 192.04 67.3048 186.446 67.414 190.209C67.5167 193.678 73.4616 205.864 75.317 212.481C74.7906 211.534 74.1807 210.51 73.5643 209.518C73.1342 208.405 72.7939 207.182 72.3381 206.203C71.6383 204.705 70.8872 203.227 70.0462 201.8C68.7651 199.545 67.2223 197.449 65.4495 195.553C63.4146 193.289 60.7585 191.669 57.8097 190.894C57.0521 190.715 52.4554 189.614 53.2386 191.662C53.3886 191.972 53.6083 192.244 53.8806 192.456C56.4486 194.632 59.4275 196.046 62.2266 197.909C66.3739 200.693 71.4137 207.163 73.4937 209.966L74.4824 211.809C70.7267 207.035 63.9023 203.585 61.2701 204.328C58.0087 205.243 64.3324 207.681 69.661 209.979C72.0594 210.926 74.1886 212.445 75.8627 214.401C76.7101 215.995 77.6539 217.8 78.5976 219.637C78.7068 219.912 78.8095 220.181 78.9251 220.443C78.2269 219.32 77.3995 218.283 76.4598 217.352C73.8918 214.971 66.2841 212.577 65.045 215.073C63.8059 217.569 69.539 217.23 74.1999 218.734C76.7118 219.606 78.89 221.234 80.4338 223.393L80.697 223.784C81.1207 224.629 81.5187 225.448 81.8975 226.235C82.7706 228.065 83.6052 229.787 84.427 231.464C83.153 229.112 81.5442 226.956 79.6505 225.064C75.9269 221.569 70.4571 220.091 68.1908 221.307C65.9245 222.523 75.0602 225.365 79.4001 227.707C81.8908 229.111 83.9794 231.127 85.467 233.563C86.6355 235.925 87.8103 238.235 89.0751 240.661C86.8546 238.001 84.4221 235.525 81.8012 233.256C77.5768 229.454 72.6334 229.109 71.0349 230.792C69.4363 232.475 73.4103 233.179 80.5621 235.912C84.3252 237.352 87.645 239.748 90.1921 242.862C90.7314 243.88 91.2836 244.923 91.8742 246.005C92.5808 247.304 93.3544 248.567 94.1918 249.787C93.0234 249.032 91.3028 247.931 89.3896 246.741C87.2443 245.445 85.203 243.986 83.2842 242.376C81.0758 240.456 78.0519 238.369 74.9382 239.176C74.7069 239.211 74.4861 239.295 74.2911 239.424C74.0961 239.553 73.9317 239.723 73.8094 239.921C73.6871 240.12 73.6098 240.343 73.583 240.575C73.5562 240.806 73.5805 241.041 73.6542 241.262C73.881 241.895 74.3065 242.438 74.8676 242.811C77.7951 245.077 81.7306 246.165 85.1396 247.496C88.2638 248.722 91.4658 249.742 94.7247 250.549C95.5336 251.707 96.381 252.846 97.222 253.941L95.6941 253.985C93.8836 254.037 85.7174 250.35 81.5701 249.16C77.4228 247.969 73.5451 250.222 77.8914 252.552C82.2378 254.881 94.057 254.363 94.057 254.363L97.466 254.28C98.2685 255.304 99.0582 256.27 99.7965 257.16H83.6052V261.64H86.8152L89.3832 277.563H110.948L113.516 261.653H116.726V257.173H105.992C105.905 255.239 105.957 253.301 106.146 251.374C106.861 250.648 107.656 250.004 108.515 249.454C113.227 246.209 121.214 245.941 123.339 239.694C123.852 238.184 123.274 236.251 121.464 236.334C120.18 236.398 118.787 237.531 117.978 238.465C115.282 241.569 113.253 244.789 109.747 247.137C109.587 247.246 107.378 249 106.281 250.088C106.403 249.07 106.557 247.982 106.756 246.811C107.603 245.313 108.569 243.886 109.645 242.542C112.514 238.997 116.88 236.917 119.981 233.531C120.931 232.494 122.183 228.769 119.281 229.691C117.997 230.107 116.469 232.053 115.461 232.949C112.611 235.509 109.683 238.235 107.821 241.601C107.899 241.269 107.982 240.961 108.059 240.597C110.063 237.401 112.317 234.369 114.8 231.528C118.922 226.849 123.146 223.79 123.217 221.237C123.287 218.683 117.971 222.965 113.458 228.827C111.411 231.516 109.823 234.524 108.759 237.729C109.587 234.408 110.467 231.061 111.327 227.848C111.917 226.248 113.67 222.088 116.899 219.201C120.976 215.573 124.276 212.577 124.86 208.961C125.444 205.345 123.788 206.453 120.167 211.797ZM97.3697 252.961C96.7619 252.134 96.1199 251.229 95.4437 250.248C95.0395 248.576 94.7711 246.875 94.6412 245.16C94.5533 243.691 94.62 242.218 94.8402 240.763C95.9343 242.115 97.0979 243.409 98.3263 244.641C98.2971 245.923 98.1401 247.199 97.8576 248.449C97.8384 248.635 97.4275 251.419 97.3697 252.961ZM100.862 257.173C100.034 256.296 99.1288 255.253 98.1465 253.973C98.1712 252.957 98.3112 251.948 98.5638 250.965C98.9569 249.414 99.521 247.911 100.246 246.485C101.767 247.925 102.884 248.885 102.884 248.885L105.452 251.125C105.253 253.365 105.138 255.457 105.067 257.16L100.862 257.173ZM105.485 250.734L104.335 249.729C103.693 249.153 102.538 246.926 101.279 244.366C101.82 243.286 102.296 242.175 102.705 241.038C104.066 243.553 105.273 245.518 105.985 246.561C105.812 247.957 105.619 249.365 105.485 250.734Z" fill="#06BCC1"/>
<path opacity="0.5" d="M120.167 211.797C117.689 215.457 114.235 220.225 112.393 224.053C113.092 221.531 113.779 219.15 114.402 217.013C115.346 215.169 117.875 210.497 120.822 207.413C124.526 203.457 126.112 200.923 124.115 200.699C122.735 200.545 118.691 205.915 116.155 211.253C116.707 209.429 117.143 208.053 117.407 207.221C117.529 206.856 117.644 206.446 117.76 206.017C120.385 202.363 122.773 198.545 124.912 194.587C128.654 187.611 129.861 181.032 127.364 183.867C125.066 186.472 121.066 199.419 117.894 205.518C118.158 204.469 118.414 203.304 118.639 202.158C119.089 201.051 119.679 199.925 120.013 198.901C120.533 197.333 120.989 195.739 121.355 194.126C121.958 191.61 122.264 189.033 122.266 186.446C122.33 183.408 121.5 180.418 119.878 177.845C119.448 177.205 116.822 173.288 116.026 175.285C115.924 175.618 115.904 175.972 115.968 176.315C116.354 179.649 117.567 182.715 118.318 185.96C119.442 190.817 118.697 198.977 118.318 202.446C118.177 202.99 117.997 203.675 117.785 204.462C118.305 198.414 115.68 191.253 113.246 190.005C110.235 188.456 113.189 194.536 115.513 199.841C116.616 202.165 117.134 204.722 117.021 207.291C116.546 209.038 116.001 210.997 115.436 212.981C115.326 213.256 115.217 213.525 115.115 213.793C115.375 212.498 115.482 211.177 115.436 209.857C115.211 206.389 111.269 199.445 108.65 200.424C106.03 201.403 110.467 205.07 112.835 209.333C114.046 211.67 114.508 214.322 114.158 216.929C114.158 217.083 114.107 217.237 114.087 217.39C113.818 218.293 113.548 219.169 113.285 219.995C112.643 221.915 112.097 223.758 111.551 225.537C112.222 222.958 112.516 220.296 112.425 217.633C112.097 212.545 109.112 207.745 106.647 207.093C104.181 206.44 108.887 214.728 110.467 219.387C111.325 222.108 111.471 225.003 110.89 227.797C110.126 230.318 109.407 232.801 108.669 235.438C108.878 231.993 108.805 228.536 108.451 225.102C107.969 219.445 104.599 215.829 102.268 215.976C99.9377 216.123 102.371 219.336 105.722 226.216C107.491 229.828 108.279 233.84 108.008 237.851C107.706 238.965 107.366 240.104 107.083 241.294C106.724 242.651 106.441 244.123 106.191 245.633C105.851 244.289 105.35 242.318 104.766 240.142C104.085 237.735 103.592 235.278 103.289 232.795C102.974 229.909 102.21 226.312 99.3727 224.808C99.1808 224.673 98.9613 224.582 98.7299 224.541C98.4986 224.5 98.2611 224.511 98.0343 224.572C97.8075 224.633 97.597 224.743 97.4177 224.894C97.2385 225.046 97.095 225.235 96.9973 225.448C96.7309 226.065 96.6702 226.752 96.824 227.406C97.201 229.368 97.8492 231.267 98.75 233.051C98.1881 234.115 97.9326 235.313 98.0117 236.513C98.0117 236.968 98.0502 237.416 98.0823 237.857C97.8319 237.403 97.5944 236.981 97.3697 236.577C96.9634 235.9 96.4618 235.283 95.8803 234.747C96.0253 233.686 96.0982 232.617 96.0986 231.547C96.0986 230.139 94.4486 226.568 92.9592 229.217C92.3685 230.273 92.4777 232.36 92.4199 233.742C92.0154 234.12 91.8934 234.901 92.2337 236.136C91.8961 239.342 92.065 242.582 92.7345 245.736L92.2273 244.84C91.4978 241.138 91.0684 237.384 90.9433 233.614C90.6993 227.4 91.688 222.28 89.9931 220.36C88.2982 218.44 87.3417 225.192 88.0671 232.52C88.4117 235.88 89.3097 239.16 90.725 242.229C89.0558 239.24 87.4059 236.193 85.8458 233.269C85.2038 231.694 83.6116 227.457 84.0033 223.157C84.4976 217.729 84.8571 213.294 82.7899 210.241C80.7226 207.189 80.2925 209.166 81.3069 215.528C82.0002 219.899 82.7385 225.736 84.0161 229.787C82.8027 227.464 81.6664 225.256 80.652 223.253C80.0742 221.262 78.726 216.129 78.726 211.873C78.726 206.465 78.1418 203.553 76.5368 204.725C75.4197 205.557 76.1388 212.232 77.9364 217.851C77.0954 216.142 76.4598 214.83 76.0938 214.056C75.9269 213.704 75.7407 213.333 75.5289 212.936C74.9551 208.481 74.0974 204.066 72.9609 199.72C70.9257 192.04 67.3048 186.446 67.414 190.209C67.5167 193.678 73.4616 205.864 75.317 212.481C74.7906 211.534 74.1807 210.51 73.5643 209.518C73.1342 208.405 72.7939 207.182 72.3381 206.203C71.6383 204.705 70.8872 203.227 70.0462 201.8C68.7651 199.545 67.2223 197.449 65.4495 195.553C63.4146 193.289 60.7585 191.669 57.8097 190.894C57.0521 190.715 52.4554 189.614 53.2386 191.662C53.3886 191.972 53.6083 192.244 53.8806 192.456C56.4486 194.632 59.4275 196.046 62.2266 197.909C66.3739 200.693 71.4137 207.163 73.4937 209.966L74.4824 211.809C70.7267 207.035 63.9023 203.585 61.2701 204.328C58.0087 205.243 64.3324 207.681 69.661 209.979C72.0594 210.926 74.1886 212.445 75.8627 214.401C76.7101 215.995 77.6539 217.8 78.5976 219.637C78.7068 219.912 78.8095 220.181 78.9251 220.443C78.2269 219.32 77.3995 218.283 76.4598 217.352C73.8918 214.971 66.2841 212.577 65.045 215.073C63.8059 217.569 69.539 217.23 74.1999 218.734C76.7118 219.606 78.89 221.234 80.4338 223.393L80.697 223.784C81.1207 224.629 81.5187 225.448 81.8975 226.235C82.7706 228.065 83.6052 229.787 84.427 231.464C83.153 229.112 81.5442 226.956 79.6505 225.064C75.9269 221.569 70.4571 220.091 68.1908 221.307C65.9245 222.523 75.0602 225.365 79.4001 227.707C81.8908 229.111 83.9794 231.127 85.467 233.563C86.6355 235.925 87.8103 238.235 89.0751 240.661C86.8546 238.001 84.4221 235.525 81.8012 233.256C77.5768 229.454 72.6334 229.109 71.0349 230.792C69.4363 232.475 73.4103 233.179 80.5621 235.912C84.3252 237.352 87.645 239.748 90.1921 242.862C90.7314 243.88 91.2836 244.923 91.8742 246.005C92.5808 247.304 93.3544 248.567 94.1918 249.787C93.0234 249.032 91.3028 247.931 89.3896 246.741C87.2443 245.445 85.203 243.986 83.2842 242.376C81.0758 240.456 78.0519 238.369 74.9382 239.176C74.7069 239.211 74.4861 239.295 74.2911 239.424C74.0961 239.553 73.9317 239.723 73.8094 239.921C73.6871 240.12 73.6098 240.343 73.583 240.575C73.5562 240.806 73.5805 241.041 73.6542 241.262C73.881 241.895 74.3065 242.438 74.8676 242.811C77.7951 245.077 81.7306 246.165 85.1396 247.496C88.2638 248.722 91.4658 249.742 94.7247 250.549C95.5336 251.707 96.381 252.846 97.222 253.941L95.6941 253.985C93.8836 254.037 85.7174 250.35 81.5701 249.16C77.4228 247.969 73.5451 250.222 77.8914 252.552C82.2378 254.881 94.057 254.363 94.057 254.363L97.466 254.28C98.2685 255.304 99.0582 256.27 99.7965 257.16H83.6052V261.64H86.8152L89.3832 277.563H110.948L113.516 261.653H116.726V257.173H105.992C105.905 255.239 105.957 253.301 106.146 251.374C106.861 250.648 107.656 250.004 108.515 249.454C113.227 246.209 121.214 245.941 123.339 239.694C123.852 238.184 123.274 236.251 121.464 236.334C120.18 236.398 118.787 237.531 117.978 238.465C115.282 241.569 113.253 244.789 109.747 247.137C109.587 247.246 107.378 249 106.281 250.088C106.403 249.07 106.557 247.982 106.756 246.811C107.603 245.313 108.569 243.886 109.645 242.542C112.514 238.997 116.88 236.917 119.981 233.531C120.931 232.494 122.183 228.769 119.281 229.691C117.997 230.107 116.469 232.053 115.461 232.949C112.611 235.509 109.683 238.235 107.821 241.601C107.899 241.269 107.982 240.961 108.059 240.597C110.063 237.401 112.317 234.369 114.8 231.528C118.922 226.849 123.146 223.79 123.217 221.237C123.287 218.683 117.971 222.965 113.458 228.827C111.411 231.516 109.823 234.524 108.759 237.729C109.587 234.408 110.467 231.061 111.327 227.848C111.917 226.248 113.67 222.088 116.899 219.201C120.976 215.573 124.276 212.577 124.86 208.961C125.444 205.345 123.788 206.453 120.167 211.797ZM97.3697 252.961C96.7619 252.134 96.1199 251.229 95.4437 250.248C95.0395 248.576 94.7711 246.875 94.6412 245.16C94.5533 243.691 94.62 242.218 94.8402 240.763C95.9343 242.115 97.0979 243.409 98.3263 244.641C98.2971 245.923 98.1401 247.199 97.8576 248.449C97.8384 248.635 97.4275 251.419 97.3697 252.961ZM100.862 257.173C100.034 256.296 99.1288 255.253 98.1465 253.973C98.1712 252.957 98.3112 251.948 98.5638 250.965C98.9569 249.414 99.521 247.911 100.246 246.485C101.767 247.925 102.884 248.885 102.884 248.885L105.452 251.125C105.253 253.365 105.138 255.457 105.067 257.16L100.862 257.173ZM105.485 250.734L104.335 249.729C103.693 249.153 102.538 246.926 101.279 244.366C101.82 243.286 102.296 242.175 102.705 241.038C104.066 243.553 105.273 245.518 105.985 246.561C105.812 247.957 105.619 249.365 105.485 250.734Z" fill="#4ECED1"/>
<path d="M123.782 293.755C138.666 293.755 150.733 291.15 150.733 287.937C150.733 284.724 138.666 282.12 123.782 282.12C108.897 282.12 96.8304 284.724 96.8304 287.937C96.8304 291.15 108.897 293.755 123.782 293.755Z" fill="#06BCC1"/>
<path opacity="0.5" d="M123.782 293.755C138.666 293.755 150.733 291.15 150.733 287.937C150.733 284.724 138.666 282.12 123.782 282.12C108.897 282.12 96.8304 284.724 96.8304 287.937C96.8304 291.15 108.897 293.755 123.782 293.755Z" fill="#4ECED1"/>
<path d="M221.571 293.755C236.456 293.755 248.522 291.15 248.522 287.937C248.522 284.724 236.456 282.12 221.571 282.12C206.686 282.12 194.62 284.724 194.62 287.937C194.62 291.15 206.686 293.755 221.571 293.755Z" fill="#06BCC1"/>
<path opacity="0.5" d="M221.571 293.755C236.456 293.755 248.522 291.15 248.522 287.937C248.522 284.724 236.456 282.12 221.571 282.12C206.686 282.12 194.62 284.724 194.62 287.937C194.62 291.15 206.686 293.755 221.571 293.755Z" fill="white"/>
<path d="M176.336 181.723C177.422 182.401 178.35 183.302 179.058 184.366C179.867 185.832 183.256 186.786 183.256 186.786H184.508L185.022 192.654C183.731 192.696 182.445 192.82 181.17 193.026C180.419 193.191 179.653 193.287 178.884 193.314C178.884 193.314 174.91 188.328 174.249 187.374C173.588 186.421 173.517 184.443 173.813 184.072C174.108 183.701 176.336 181.723 176.336 181.723Z" fill="white" stroke="#263238" stroke-width="0.75" stroke-linecap="round" stroke-linejoin="round"/>
<path d="M171.039 191.701C171.039 191.701 168.831 192.437 169.787 193.025C170.279 193.243 170.827 193.304 171.355 193.198C171.883 193.093 172.364 192.827 172.734 192.437C173.1 191.848 171.938 191.406 171.039 191.701Z" fill="white" stroke="#263238" stroke-width="0.75" stroke-linecap="round" stroke-linejoin="round"/>
<path d="M168.612 184.955C168.612 184.955 175.161 182.606 175.456 182.824C175.751 183.041 176.265 185.025 176.265 185.025C176.265 185.025 180.823 187.739 181.196 188.769C181.491 190.369 181.491 192.008 181.196 193.608C180.971 193.979 179.725 194.414 179.27 194.561C178.81 194.675 178.33 194.675 177.87 194.561C177.652 194.491 174.114 192.001 174.114 192.001C174.114 192.001 170.513 192.366 169.704 192.366C168.895 192.366 168.08 192.296 168.08 192.296L168.612 184.955Z" fill="white" stroke="#263238" stroke-width="0.75" stroke-linecap="round" stroke-linejoin="round"/>
<path d="M176.779 187.72C176.779 187.72 179.205 189.045 179.725 189.774C180.245 190.504 180.753 193.665 180.753 193.665" stroke="#263238" stroke-width="0.75" stroke-linecap="round" stroke-linejoin="round"/>
<path d="M175.751 189.064C175.751 189.064 178.621 190.6 178.91 191.336C179.185 192.275 179.399 193.231 179.552 194.197" stroke="#263238" stroke-width="0.75" stroke-linecap="round" stroke-linejoin="round"/>
<path d="M177.222 183.118C177.222 183.118 174.057 186.638 173.318 187.01C172.58 187.381 172.439 186.933 172.034 186.638C171.63 186.344 174.39 182.389 174.32 182.094C174.706 181.811 175.175 181.663 175.654 181.676C176.134 181.689 176.595 181.861 176.965 182.165" fill="white"/>
<path d="M177.222 183.118C177.222 183.118 174.057 186.638 173.318 187.01C172.58 187.381 172.439 186.933 172.034 186.638C171.63 186.344 174.39 182.389 174.32 182.094C174.706 181.811 175.175 181.663 175.654 181.676C176.134 181.689 176.595 181.861 176.965 182.165" stroke="#263238" stroke-width="0.75" stroke-linecap="round" stroke-linejoin="round"/>
<path d="M172.58 190.92L172.464 191.317C172.232 192.018 172.096 192.748 172.06 193.486C172.208 193.781 173.094 194.075 173.389 193.633C173.684 193.192 174.268 190.997 174.121 190.702C173.973 190.408 173.395 189.134 172.58 190.92Z" fill="white" stroke="#263238" stroke-width="0.75" stroke-linecap="round" stroke-linejoin="round"/>
<path d="M175.379 190.6C175.148 190.888 174.095 194.05 174.352 194.44C174.609 194.83 175.674 194.958 175.97 194.517C176.265 194.075 177.292 191.317 176.997 190.677C176.702 190.037 176.432 189.352 175.379 190.6Z" fill="white" stroke="#263238" stroke-width="0.75" stroke-linecap="round" stroke-linejoin="round"/>
<path d="M177.222 191.259L177.113 191.515C176.792 192.276 175.873 194.574 176.117 195.003C176.361 195.432 177.806 195.643 178.101 194.932C178.397 194.222 179.43 191.483 178.743 190.824C178.635 190.696 178.493 190.602 178.333 190.553C178.173 190.505 178.002 190.503 177.841 190.549C177.68 190.595 177.536 190.687 177.426 190.813C177.316 190.939 177.245 191.094 177.222 191.259Z" fill="white" stroke="#263238" stroke-width="0.75" stroke-linecap="round" stroke-linejoin="round"/>
<path d="M126.574 129.569C126.574 129.569 126.959 131.931 126.517 132.872C126.074 133.812 125.412 135.784 125.412 135.784L135.184 144.424C135.184 144.424 138.162 140.68 138.715 139.944C139.267 139.208 139.999 138.235 139.999 138.235C139.999 138.235 135.196 135.208 134.221 133.006C133.245 130.804 133.726 128.001 131.653 127.56C129.579 127.118 127.184 128.251 126.574 129.569Z" fill="white" stroke="#263238" stroke-width="0.75" stroke-linecap="round" stroke-linejoin="round"/>
<path d="M145.173 114.99C145.173 114.99 149.256 114.933 148.428 111.029C147.6 107.125 138.053 106.293 136.288 108.11C134.522 109.928 134.798 110.67 134.798 110.67C134.798 110.67 126.574 110.453 124.475 114.907C122.376 119.361 123.319 125.147 124.7 128.168C126.08 131.189 128.398 131.521 129.611 131.137C130.824 130.753 131.704 130.037 131.704 128.936C131.704 127.835 132.481 125.198 133.418 125.857C134.355 126.517 135.344 126.734 137.007 125.141C138.67 123.547 141.032 121.563 140.153 119.969C139.273 118.376 137.777 118.318 138.605 117.601C139.434 116.885 144.127 116.321 144.563 115.841C144.806 115.588 145.012 115.302 145.173 114.99Z" fill="#263238" stroke="#263238" stroke-width="0.75" stroke-linecap="round" stroke-linejoin="round"/>
<path d="M144.974 112.648C144.974 112.648 145.552 113.806 140.056 115.246C134.561 116.686 125.29 116.974 125.014 120.437" stroke="white" stroke-width="0.75" stroke-linecap="round" stroke-linejoin="round"/>
<path d="M134.285 119.285C134.285 119.285 127.634 121.301 126.183 123.611C124.732 125.921 126.767 127.931 126.767 127.931" stroke="white" stroke-width="0.75" stroke-linecap="round" stroke-linejoin="round"/>
<path d="M145.173 114.99C145.173 114.99 146.72 120.213 146.72 121.262C146.72 122.312 145.616 123.349 146.11 124.507C146.605 125.665 148.261 127.918 148.261 128.635C148.261 129.352 145.834 130.062 145.834 130.062C145.834 130.062 143.793 137.742 143.35 138.702C142.907 139.662 141.424 139.803 139.652 139.342C137.88 138.881 133.2 136.424 131.948 134.504C130.696 132.584 131.614 129.326 131.614 129.326C131.614 129.326 129.046 128.174 128.526 125.755C128.006 123.336 129.906 121.736 131.563 122.286C132.028 122.424 132.46 122.656 132.83 122.969C133.2 123.282 133.501 123.668 133.713 124.104C133.713 124.104 133.88 124.705 134.355 124.545C134.83 124.385 135.293 123.387 135.736 123.329C136.179 123.272 139.324 122.177 138.946 120.968C138.567 119.758 134.638 119.688 134.914 118.325C135.19 116.961 145.173 114.99 145.173 114.99Z" fill="white" stroke="#263238" stroke-width="0.75" stroke-linecap="round" stroke-linejoin="round"/>
<path d="M140.262 128.961L138.663 130.062" stroke="#263238" stroke-width="0.75" stroke-linecap="round" stroke-linejoin="round"/>
<path d="M139.652 129.678C139.652 129.678 140.153 130.997 142.22 131.438L139.652 129.678Z" fill="white"/>
<path d="M139.652 129.678C139.652 129.678 140.153 130.997 142.22 131.438" stroke="#263238" stroke-width="0.75" stroke-linecap="round" stroke-linejoin="round"/>
<path d="M139.71 130.062C139.71 130.062 138.772 132.622 139.928 133.198C141.083 133.774 141.584 131.387 141.584 131.387L139.71 130.062Z" fill="black"/>
<path d="M145.943 124.923C145.879 126.261 145.539 127.329 145.186 127.31C144.833 127.291 144.608 126.197 144.679 124.859C144.749 123.521 145.083 122.459 145.436 122.472C145.789 122.485 146.014 123.585 145.943 124.923Z" fill="white" stroke="#263238" stroke-width="0.75" stroke-linecap="round" stroke-linejoin="round"/>
<path d="M144.679 123.573H133.418" stroke="#263238" stroke-width="0.75" stroke-linecap="round" stroke-linejoin="round"/>
<path d="M143.902 122.088C143.986 121.788 144.14 121.511 144.35 121.281C144.561 121.051 144.823 120.874 145.115 120.763C146.059 120.488 146.219 120.987 146.219 120.987" fill="white"/>
<path d="M143.902 122.088C143.986 121.788 144.14 121.511 144.35 121.281C144.561 121.051 144.823 120.874 145.115 120.763C146.059 120.488 146.219 120.987 146.219 120.987" stroke="#263238" stroke-width="0.75" stroke-linecap="round" stroke-linejoin="round"/>
<path d="M105.619 215.323L139.838 214.299C139.838 214.299 141.969 237.915 141.456 238.433C140.942 238.952 107.019 240.353 107.019 240.353C107.019 240.353 104.393 240.539 104.021 239.368C103.648 238.196 105.619 215.323 105.619 215.323Z" fill="white" stroke="#263238" stroke-width="0.75" stroke-linecap="round" stroke-linejoin="round"/>
<path d="M105.619 215.323C105.619 215.323 102.409 238.721 102.968 239.387C103.526 240.052 106.178 240.532 107.019 240.34C107.789 240.2 105.619 215.323 105.619 215.323Z" fill="white" stroke="#263238" stroke-width="0.75" stroke-linecap="round" stroke-linejoin="round"/>
<path d="M115.699 279.438C113.818 280.584 112.906 282.516 113.349 284.059C113.792 285.601 113.933 285.748 115.115 285.979C116.296 286.209 121.586 285.39 127.313 284.436C133.039 283.483 133.867 283.265 134.375 282.459C134.882 281.652 135.774 280.846 130.105 279.899C124.436 278.952 123.923 277.915 123.923 277.915C123.923 277.915 118.716 277.601 115.699 279.438Z" fill="#06BCC1" stroke="#263238" stroke-width="0.75" stroke-linecap="round" stroke-linejoin="round"/>
<path d="M134.22 280.961C133.835 281.749 132.628 283.163 128.834 283.617C124.822 284.097 117.561 284.821 113.728 285.147C113.991 285.691 114.312 285.787 115.115 285.966C116.289 286.184 121.586 285.377 127.313 284.424C133.039 283.47 133.867 283.253 134.375 282.446C134.702 281.96 135.145 281.473 134.22 280.961Z" fill="#263238" stroke="#263238" stroke-width="0.75" stroke-linecap="round" stroke-linejoin="round"/>
<path d="M125.855 281.416C125.855 281.416 131.742 284.206 134.984 284.865C138.227 285.524 139.029 285.601 138.663 286.625C138.297 287.649 138.22 287.95 133.29 289.121C128.359 290.292 122.986 288.974 120.629 288.532C118.273 288.091 117.541 288.756 116.514 288.315C115.487 287.873 115.776 285.672 115.776 285.672L125.855 281.416Z" fill="#06BCC1" stroke="#263238" stroke-width="0.75" stroke-linecap="round" stroke-linejoin="round"/>
<path d="M133.29 289.121C137.43 288.136 138.143 287.771 138.483 287.067C133.989 288.987 128.032 288.193 123.486 287.675C120.559 287.336 117.766 287.035 115.782 286.875C115.772 287.159 115.836 287.441 115.967 287.694C116.099 287.946 116.294 288.16 116.533 288.315C117.561 288.757 118.299 288.097 120.649 288.533C122.998 288.968 128.359 290.293 133.29 289.121Z" fill="#263238" stroke="#263238" stroke-width="0.75" stroke-linecap="round" stroke-linejoin="round"/>
<path d="M119.236 227.502C119.236 227.502 118.203 235.861 116.142 239.458C114.081 243.054 111.288 245.544 110.845 250.754C110.402 255.963 111.872 277.237 112.02 279.074C112.168 280.91 111.378 281.493 112.168 282.664C112.663 283.382 113.203 284.069 113.786 284.718L116.219 282.594C116.219 282.594 117.984 276.942 117.541 266.158C117.098 255.374 117.175 248.117 119.089 240.923C121.002 233.73 121.368 231.829 120.482 229.038C119.596 226.248 119.236 227.502 119.236 227.502Z" fill="#263238" stroke="#263238" stroke-width="0.75" stroke-linecap="round" stroke-linejoin="round"/>
<path d="M114.601 210.171C114.601 210.171 117.028 214.734 117.58 215.931C118.132 217.128 119.397 231.01 118.408 235.63C117.419 240.251 113.567 248.104 113.914 254.997C114.261 261.89 114.556 280.162 114.556 280.379C114.335 281.469 114.335 282.592 114.556 283.682C114.922 285.659 116.026 286.242 116.026 286.242C117.9 285.372 119.843 284.661 121.836 284.117C125.444 283.086 126.472 281.621 126.472 281.621C126.157 280.671 125.788 279.739 125.367 278.83C124.854 277.806 123.974 276.194 124.122 275.675C124.269 275.157 125.226 258.293 127.139 252.718C129.052 247.144 130.15 241.275 131.774 236.136C133.399 230.997 137.27 217.23 137.27 213.71V209.384L114.312 208.942L114.601 210.171Z" fill="#263238" stroke="#263238" stroke-width="0.75" stroke-linecap="round" stroke-linejoin="round"/>
<path d="M116.495 243.042C115.853 245.006 115.14 247.208 114.601 248.955C113.317 253.115 114.601 276.475 114.601 276.475C114.741 278.178 114.782 279.888 114.723 281.595C114.601 283.714 114.723 284.552 115.249 285.122" stroke="white" stroke-width="0.75" stroke-linecap="round" stroke-linejoin="round"/>
<path d="M118.132 238.075C118.132 238.075 117.657 239.49 117.021 241.429" stroke="white" stroke-width="0.75" stroke-linecap="round" stroke-linejoin="round"/>
<path d="M124.7 133.806C124.7 133.806 127.268 134.683 131.12 138.043C134.972 141.403 138.901 144.59 138.072 145.723C137.244 146.856 135.697 150.843 135.697 150.843C135.697 150.843 134.265 148.475 130.015 145.083C125.765 141.691 122.504 138.645 122.504 138.645C122.504 138.645 124.257 134.523 124.7 133.806Z" fill="white" stroke="#263238" stroke-width="0.75" stroke-linecap="round" stroke-linejoin="round"/>
<path d="M121.278 139.195C121.278 139.195 113.054 145.025 111.648 150.638C110.242 156.251 109.658 159.003 109.773 169.729C109.889 180.456 110.544 187.227 110.544 187.72C110.544 188.212 108.38 208.136 108.38 208.353C108.38 208.571 112.232 212.097 123.005 212.315C130.316 212.361 137.618 211.792 144.833 210.612L140.14 171.988C140.14 171.988 138.316 155.534 136.442 152.456C134.567 149.377 121.278 139.195 121.278 139.195Z" fill="#06BCC1" stroke="#263238" stroke-width="0.75" stroke-linecap="round" stroke-linejoin="round"/>
<path d="M126.022 192.731C126.022 192.731 132.866 194.107 137.578 192.398" stroke="#263238" stroke-width="0.75" stroke-linecap="round" stroke-linejoin="round"/>
<path d="M126.022 194.76C126.022 194.76 132.866 196.136 137.578 194.434" stroke="#263238" stroke-width="0.75" stroke-linecap="round" stroke-linejoin="round"/>
<path d="M167.431 183.854L169.126 184.66L168.092 192.289L166.404 191.995L167.431 183.854Z" fill="white" stroke="#263238" stroke-width="0.75" stroke-linecap="round" stroke-linejoin="round"/>
<path d="M128.577 149.23C127.614 149.533 126.751 150.09 126.08 150.843C124.976 152.123 119.018 159.496 119.454 162.728C119.891 165.96 127.64 177.761 130.208 181.435C133.37 186.09 137.923 189.633 143.221 191.56C149.699 193.908 166.552 192.737 166.552 192.737L167.444 183.63C167.444 183.63 158.251 180.699 151.92 178.792C148.4 177.754 144.957 176.471 141.616 174.952C141.616 174.952 140.146 171.355 139.113 170.772C138.079 170.19 137.938 169.819 137.938 169.819C137.938 169.819 135.954 159.035 134.92 155.508C133.887 151.982 132.494 151.112 132.494 151.112" fill="#06BCC1"/>
<path d="M128.577 149.23C127.614 149.533 126.751 150.09 126.08 150.843C124.976 152.123 119.018 159.496 119.454 162.728C119.891 165.96 127.64 177.761 130.208 181.435C133.37 186.09 137.923 189.633 143.221 191.56C149.699 193.908 166.552 192.737 166.552 192.737L167.444 183.63C167.444 183.63 158.251 180.699 151.92 178.792C148.4 177.754 144.957 176.471 141.616 174.952C141.616 174.952 140.146 171.355 139.113 170.772C138.079 170.19 137.938 169.819 137.938 169.819C137.938 169.819 135.954 159.035 134.92 155.508C133.887 151.982 132.494 151.112 132.494 151.112" stroke="#263238" stroke-width="0.75" stroke-linecap="round" stroke-linejoin="round"/>
<path d="M214.605 277.736C211.98 279.247 209.251 280.571 206.439 281.697C202.683 283.093 201.797 283.617 202.536 284.411C203.274 285.205 209.675 285.806 213.276 285.051C216.878 284.296 218.284 283.809 219.902 283.88C221.52 283.95 223.754 284.392 224.537 283.291C225.32 282.19 225.641 281.973 225.051 280.136C224.46 278.299 214.605 277.736 214.605 277.736Z" fill="#06BCC1" stroke="#263238" stroke-width="0.75" stroke-linecap="round" stroke-linejoin="round"/>
<path d="M213.276 285.07C216.884 284.341 218.284 283.829 219.902 283.899C221.52 283.969 223.754 284.411 224.537 283.31C225.115 282.523 225.429 282.184 225.346 281.39C222.727 281.173 217.674 281.998 211.652 283.31C208.604 284.05 205.444 284.211 202.337 283.784C202.302 283.898 202.302 284.02 202.337 284.134C202.373 284.248 202.442 284.349 202.536 284.424C203.274 285.217 209.675 285.806 213.276 285.07Z" fill="#263238" stroke="#263238" stroke-width="0.75" stroke-linecap="round" stroke-linejoin="round"/>
<path d="M228.511 282.581C227.037 284.17 225.465 285.666 223.805 287.061C221.372 289.038 217.18 291.758 217.623 292.929C218.066 294.101 221.077 295.201 227.407 293.569C231.458 292.465 235.29 290.68 238.738 288.289C239.445 288.159 240.076 287.765 240.504 287.189C241.024 286.305 240.433 284.917 240.433 284.917L228.511 282.581Z" fill="#06BCC1" stroke="#263238" stroke-width="0.75" stroke-linecap="round" stroke-linejoin="round"/>
<path d="M227.407 293.582C231.458 292.478 235.29 290.693 238.738 288.302C239.445 288.172 240.076 287.778 240.504 287.201C240.784 286.525 240.784 285.766 240.504 285.089C231.349 291.995 222.784 293.409 218.252 293.614C219.446 294.433 222.386 294.862 227.407 293.582Z" fill="#263238" stroke="#263238" stroke-width="0.75" stroke-linecap="round" stroke-linejoin="round"/>
<path d="M217.52 197.115C217.52 197.115 213.623 197.633 210.824 196.603C208.025 195.572 205.38 194.772 205.38 194.772C205.38 194.772 203.833 214.798 205.527 222.868C207.222 230.939 211.71 240.788 211.78 243.041C211.87 245.751 212.19 248.449 212.737 251.105C213.251 253.16 215.754 269.025 215.902 270.766C216 271.644 216 272.531 215.902 273.409C215.902 273.409 214.137 273.998 214.137 274.51V278.248C215.593 279.011 217.122 279.626 218.701 280.084C221.423 280.891 225.25 281.55 225.25 281.55C225.578 280.072 225.823 278.576 225.982 277.07C225.982 276.046 225.34 273.332 225.34 271.86C225.34 270.388 225.712 252.788 225.712 252.788C225.712 252.788 229.314 267.828 229.314 272.814C229.314 277.8 229.243 279.419 229.243 279.419C229.243 279.419 227.625 278.907 227.625 280.008C227.625 281.108 227.548 283.745 227.548 283.745C227.548 283.745 233.287 285.211 236.01 286.017C237.633 286.505 239.348 286.606 241.017 286.312C241.017 286.312 242.487 280.737 242.34 278.907C242.192 277.076 240.356 275.528 240.356 274.504C240.356 273.48 241.312 263.355 239.913 254.548C238.513 245.742 234.835 241.71 234.687 237.384C234.539 233.057 235.329 217.505 235.425 214.984C235.522 212.462 238.07 207.208 238.443 204.859C238.815 202.51 238.513 195.547 238.513 195.547C238.513 195.547 222.014 197.921 217.52 197.115Z" fill="#263238" stroke="#263238" stroke-width="0.75" stroke-linecap="round" stroke-linejoin="round"/>
<path d="M210.484 207.169L214.458 209.736" stroke="white" stroke-width="0.75" stroke-linecap="round" stroke-linejoin="round"/>
<path d="M224.826 250.542C225.378 251.969 225.718 252.795 225.718 252.795" stroke="white" stroke-width="0.75" stroke-linecap="round" stroke-linejoin="round"/>
<path d="M213.135 209.077C213.135 209.077 215.78 224.552 218.945 234.235C220.569 239.201 222.309 243.963 223.619 247.413" stroke="white" stroke-width="0.75" stroke-linecap="round" stroke-linejoin="round"/>
<path d="M183.256 185.762C183.327 185.979 183.693 193.979 183.693 193.979L204.815 192.059L204.378 181.717L183.256 185.762Z" fill="#263238" stroke="#263238" stroke-width="0.75" stroke-linecap="round" stroke-linejoin="round"/>
<path d="M224.685 143.861C224.685 143.861 219.902 145.544 218.945 146.721C217.989 147.899 212.32 167.771 210.458 173.64C208.596 179.509 208.031 197.262 208.031 197.262C209.06 197.642 210.119 197.937 211.196 198.145C212.256 198.324 213.332 198.397 214.406 198.363C214.406 198.363 220.589 177.601 223.606 170.491C226.624 163.381 231.695 153.179 233.615 149.217C235.535 145.256 237.217 144.52 236.998 142.613C236.78 140.705 235.894 139.969 234.79 139.822C233.686 139.675 224.685 143.861 224.685 143.861Z" fill="white" stroke="#263238" stroke-width="0.75" stroke-linecap="round" stroke-linejoin="round"/>
<path d="M225.282 143.278C225.282 143.278 220.499 144.961 219.542 146.139C218.586 147.316 212.923 167.188 211.1 173.057C209.277 178.926 208.654 196.68 208.654 196.68C209.683 197.059 210.742 197.355 211.819 197.563C212.88 197.738 213.954 197.81 215.029 197.78C215.029 197.78 221.211 177.019 224.229 169.902C227.246 162.785 232.325 152.622 234.238 148.628C236.151 144.635 237.839 143.937 237.621 142.03C237.403 140.123 236.517 139.387 235.413 139.24C234.308 139.092 225.282 143.278 225.282 143.278Z" fill="#06BCC1" stroke="#263238" stroke-width="0.75" stroke-linecap="round" stroke-linejoin="round"/>
<path d="M231.747 145.691C228.747 150.806 226.117 156.127 223.876 161.614C220.858 169.39 218.432 176.334 215.337 186.702C213.477 193.104 212.854 199.8 213.501 206.433C213.501 206.433 214.971 208.929 223.658 209.224C232.344 209.518 243.232 206.728 243.232 206.728C243.232 206.728 241.755 197.921 241.608 192.718C241.46 187.515 245.659 169.243 247.424 164.475C249.19 159.707 253.016 154.939 249.35 150.318C245.685 145.697 236.915 140.488 236.915 140.488C236.915 140.488 232.703 144.078 231.747 145.691Z" fill="#263238" stroke="#263238" stroke-width="0.75" stroke-linecap="round" stroke-linejoin="round"/>
<path d="M221.815 145.621C221.815 145.621 219.536 148.482 217.475 154.581C215.414 160.68 211.588 176.885 209.822 183.778C208.057 190.67 207.171 206.005 207.171 206.005C207.171 206.005 206.214 205.934 204.231 205.934C202.924 205.896 201.641 205.57 200.475 204.981C200.475 204.981 201.874 189.941 203.126 182.901C204.378 175.861 208.057 163.31 208.718 158.395C209.379 153.48 209.598 152.238 210.484 151.573C211.37 150.907 218.284 146.734 219.684 145.781C221.083 144.827 221.815 145.621 221.815 145.621Z" fill="#263238" stroke="#263238" stroke-width="0.75" stroke-linecap="round" stroke-linejoin="round"/>
<path d="M239.181 142.101C239.181 142.101 234.989 150.389 233.885 151.931C233.244 152.811 232.678 153.742 232.19 154.715L228.511 156.11L229.981 158.459C229.981 158.459 222.553 171.72 220.64 176.136C218.727 180.552 216.788 185.307 216.788 185.307" stroke="white" stroke-width="0.75" stroke-linecap="round" stroke-linejoin="round"/>
<path d="M208.949 179.444C208.814 180.91 208.789 181.492 208.789 181.492" stroke="white" stroke-width="0.75" stroke-linecap="round" stroke-linejoin="round"/>
<path d="M218.066 148.187L213.944 154.497L214.901 155.963L212.615 158.753C212.615 158.753 210.188 168.801 209.527 174.229C209.399 175.285 209.29 176.206 209.206 177.006" stroke="white" stroke-width="0.75" stroke-linecap="round" stroke-linejoin="round"/>
<path d="M218.875 145.473L218.066 149.358L222.258 146.574L218.875 145.473Z" fill="white" stroke="#263238" stroke-width="0.75" stroke-linecap="round" stroke-linejoin="round"/>
<path d="M222.406 142.395C222.329 142.613 218.875 145.473 218.875 145.473L222.772 147.086L223.58 143.931L222.406 142.395Z" fill="white" stroke="#263238" stroke-width="0.75" stroke-linecap="round" stroke-linejoin="round"/>
<path d="M221.006 113.121C219.345 114.153 218.036 115.661 217.25 117.448C215.928 120.456 214.901 121.704 215.196 122.657C215.408 123.302 215.554 123.967 215.633 124.641C215.633 124.859 212.545 127.797 212.467 128.673C212.39 129.55 214.458 131.169 214.458 131.169C214.458 131.169 214.676 136.232 214.676 136.673C214.676 137.115 214.824 139.387 216.961 139.969C218.416 140.304 219.929 140.279 221.372 139.899L222.772 147.086C222.772 147.086 232.562 141.07 233.589 140.558C234.616 140.046 235.868 139.387 235.945 138.581C236.022 137.774 235.355 133.294 235.355 133.294C235.355 133.294 240.581 128.526 240.491 122.952C240.401 117.377 237.422 113.857 231.971 112.2C226.521 110.542 221.006 113.121 221.006 113.121Z" fill="white" stroke="#263238" stroke-width="0.75" stroke-linecap="round" stroke-linejoin="round"/>
<path d="M240.504 122.952C240.433 117.377 237.416 113.857 231.971 112.168C226.527 110.478 221.006 113.121 221.006 113.121C220.576 113.378 220.172 113.676 219.799 114.011C221.597 113.691 224.556 113.467 226.675 114.811C229.885 116.865 227.85 118.92 226.746 120.021C225.641 121.121 225.423 121.557 226.232 122.581C227.041 123.605 228.588 123.605 228.216 124.558C227.843 125.512 226.746 126.837 227.631 127.201C228.517 127.566 229.32 126.76 229.692 125.659C230.065 124.558 231.894 124.558 232.633 126.837C232.9 127.693 232.895 128.612 232.618 129.465C232.341 130.319 231.806 131.066 231.085 131.605C230.493 132.042 229.76 132.249 229.025 132.187C230.289 132.827 231.622 133.321 232.999 133.659C233.797 133.726 234.602 133.663 235.38 133.473C235.38 133.358 235.38 133.288 235.38 133.288C235.38 133.288 240.581 128.526 240.504 122.952Z" fill="#263238" stroke="#263238" stroke-width="0.75" stroke-linecap="round" stroke-linejoin="round"/>
<path d="M219.093 125.813C219.093 126.382 218.913 126.843 218.688 126.843C218.464 126.843 218.284 126.382 218.284 125.813C218.284 125.243 218.464 124.789 218.688 124.789C218.913 124.789 219.093 125.249 219.093 125.813Z" fill="black"/>
<path d="M217.18 122.734C217.18 122.734 217.475 121.704 219.106 121.78C220.736 121.857 220.801 123.028 220.801 123.028" fill="white"/>
<path d="M217.18 122.734C217.18 122.734 217.475 121.704 219.106 121.78C220.736 121.857 220.801 123.028 220.801 123.028" stroke="#263238" stroke-width="0.75" stroke-linecap="round" stroke-linejoin="round"/>
<path d="M214.458 131.169C214.907 131.331 215.39 131.383 215.863 131.319C216.337 131.256 216.789 131.079 217.18 130.804C218.355 129.851 217.398 129.038 217.398 129.038" fill="white"/>
<path d="M214.458 131.169C214.907 131.331 215.39 131.383 215.863 131.319C216.337 131.256 216.789 131.079 217.18 130.804C218.355 129.851 217.398 129.038 217.398 129.038" stroke="#263238" stroke-width="0.75" stroke-linecap="round" stroke-linejoin="round"/>
<path d="M214.753 132.341C214.753 132.341 218.65 130.421 220.415 130.363C222.181 130.306 224.023 133.32 223.298 135.88C222.573 138.44 221.757 139.72 219.253 140.725C216.75 141.73 214.393 141.531 213.957 139.842C213.52 138.152 215.498 135.739 216.454 135.298C217.411 134.856 218.149 134.786 218.001 135.592C217.854 136.398 217.411 136.981 219.253 136.616C221.096 136.251 222.123 135.739 222.194 133.755C222.264 131.771 221.552 131.042 219.626 131.336C217.7 131.63 214.843 133.166 214.843 133.166L214.753 132.341Z" fill="#263238" stroke="#263238" stroke-width="0.75" stroke-linecap="round" stroke-linejoin="round"/>
<path d="M216.294 133.883C216.294 133.883 219.388 133.736 220.492 132.488L216.294 133.883Z" fill="white"/>
<path d="M216.294 133.883C216.294 133.883 219.388 133.736 220.492 132.488" stroke="#263238" stroke-width="0.75" stroke-linecap="round" stroke-linejoin="round"/>
<path d="M228.736 132.123C228.74 132.725 228.61 133.321 228.355 133.867C228.099 134.413 227.725 134.895 227.259 135.278" fill="white"/>
<path d="M228.736 132.123C228.74 132.725 228.61 133.321 228.355 133.867C228.099 134.413 227.725 134.895 227.259 135.278" stroke="#263238" stroke-width="0.75" stroke-linecap="round" stroke-linejoin="round"/>
<path d="M222.772 147.086L224.909 152.001C224.909 152.001 232.999 145.985 234.989 143.637C236.979 141.288 238.52 140.117 237.416 138.517C236.311 136.917 234.693 138.222 234.398 138.369C234.103 138.517 222.772 147.086 222.772 147.086Z" fill="white" stroke="#263238" stroke-width="0.75" stroke-linecap="round" stroke-linejoin="round"/>
<path d="M206.606 190.44C205.69 187.468 204.954 184.444 204.404 181.384C203.961 178.574 203.762 175.713 203.762 175.713C200.207 175.39 196.733 174.473 193.484 173C188.63 170.657 187.596 169.8 187.596 169.8C187.596 169.8 194.145 191.073 195.474 195.547C196.803 200.021 197.092 200.974 197.092 200.974C199.192 202.011 201.416 202.777 203.711 203.253C205.533 203.591 207.379 203.786 209.232 203.835L206.606 190.44Z" fill="white" stroke="#263238" stroke-width="0.75" stroke-linecap="round" stroke-linejoin="round"/>
<path d="M213.944 190.44C212.388 190.152 210.876 189.659 209.45 188.974C208.38 188.356 207.212 187.923 205.996 187.694H205.701L206.58 190.408C205.494 190.647 204.386 190.772 203.274 190.779C201.509 190.779 197.823 190.19 197.682 190.408C197.546 190.934 197.496 191.479 197.535 192.021C197.535 192.539 200.18 195.694 201.727 196.795C203.274 197.896 204.667 198.626 206.067 198.626C207.466 198.626 214.971 197.602 214.971 197.602L213.944 190.44Z" fill="white" stroke="#263238" stroke-width="0.75" stroke-linecap="round" stroke-linejoin="round"/>
<path d="M235.355 161.832C235.355 161.832 235.721 170.049 235.945 175.988C236.17 181.928 236.536 182.446 236.536 182.446C236.536 182.446 220.049 188.609 217.546 189.121C215.042 189.633 213.135 190.222 213.135 190.222L214.239 198.216C219.634 198.669 225.067 198.173 230.289 196.75C238.314 194.401 250.673 192.052 250.898 190.958C251.122 189.864 250.898 186.555 250.898 185.838C250.898 185.121 250.673 169.332 250.673 162.292C250.673 155.252 251.186 153.633 250.307 152.168C249.427 150.702 244.933 149.966 242.359 151.432" fill="#263238"/>
<path d="M235.355 161.832C235.355 161.832 235.721 170.049 235.945 175.988C236.17 181.928 236.536 182.446 236.536 182.446C236.536 182.446 220.049 188.609 217.546 189.121C215.042 189.633 213.135 190.222 213.135 190.222L214.239 198.216C219.634 198.669 225.067 198.173 230.289 196.75C238.314 194.401 250.673 192.052 250.898 190.958C251.122 189.864 250.898 186.555 250.898 185.838C250.898 185.121 250.673 169.332 250.673 162.292C250.673 155.252 251.186 153.633 250.307 152.168C249.427 150.702 244.933 149.966 242.359 151.432" stroke="#263238" stroke-width="0.75" stroke-linecap="round" stroke-linejoin="round"/>
<path d="M222.906 187.163L236.536 182.446L235.329 164.34" stroke="white" stroke-width="0.75" stroke-linecap="round" stroke-linejoin="round"/>
<path d="M219.08 188.488L221.051 187.81" stroke="white" stroke-width="0.75" stroke-linecap="round" stroke-linejoin="round"/>
<path d="M240.054 155.214C240.054 155.214 245.19 148.814 250.294 152.148" stroke="white" stroke-width="0.75" stroke-linecap="round" stroke-linejoin="round"/>
<path d="M197.823 191.176C197.823 191.176 201.213 193.448 203.492 193.819" stroke="#263238" stroke-width="0.75" stroke-linecap="round" stroke-linejoin="round"/>
<path d="M198.414 193.377C199.413 194.254 200.558 194.949 201.797 195.432L203.345 195.867" stroke="#263238" stroke-width="0.75" stroke-linecap="round" stroke-linejoin="round"/>
<path d="M202.112 197.044C202.988 197.364 203.904 197.562 204.834 197.633" stroke="#263238" stroke-width="0.75" stroke-linecap="round" stroke-linejoin="round"/>
<path d="M139.62 169.576C139.62 169.576 138.605 159.24 137.411 151.956C136.769 147.931 134.323 144.5 131.768 141.428C129.656 138.868 126.465 136.526 124.706 133.806C124.096 132.872 120.899 139.63 120.893 139.636C120.251 141.076 127.858 145.64 128.885 146.676C130.234 148.02 131.453 149.608 132.68 151.054C133.238 151.694 134.708 154.132 135.549 154.337L136.91 154.676L135.89 157.729L139.62 169.576Z" fill="#06BCC1" stroke="#263238" stroke-width="0.75" stroke-linecap="round" stroke-linejoin="round"/>
</svg>
