<svg width="364" height="364" viewBox="0 0 364 364" fill="none" xmlns="http://www.w3.org/2000/svg">
<path d="M166.384 125.944C144.108 133.493 138.72 95.9866 97.8359 99.9979C64.1441 103.267 32.4324 152.246 39.7124 191.464C48.4484 238.544 88.1899 269.513 115.424 269.775C146 270.081 163.13 253.759 191.624 243.829C224.624 232.312 275.555 239.563 302.761 216.092C328.969 193.488 332.769 135.772 317.954 104.577C303.248 73.6079 266.848 43.5196 233.848 58.6548C197.681 75.2532 198.904 114.878 166.384 125.944Z" fill="#06BCC1"/>
<path opacity="0.7" d="M166.384 125.944C144.108 133.493 138.72 95.9866 97.8359 99.9979C64.1441 103.267 32.4324 152.246 39.7124 191.464C48.4484 238.544 88.1899 269.513 115.424 269.775C146 270.081 163.13 253.759 191.624 243.829C224.624 232.312 275.555 239.563 302.761 216.092C328.969 193.488 332.769 135.772 317.954 104.577C303.248 73.6079 266.848 43.5196 233.848 58.6548C197.681 75.2532 198.904 114.878 166.384 125.944Z" fill="white"/>
<path d="M31.4642 284.211H332.536" stroke="#263238" stroke-linecap="round" stroke-linejoin="round"/>
<path d="M184.359 309.072C241.729 309.072 288.237 306.058 288.237 302.338C288.237 298.619 241.729 295.604 184.359 295.604C126.988 295.604 80.4804 298.619 80.4804 302.338C80.4804 306.058 126.988 309.072 184.359 309.072Z" fill="#06BCC1"/>
<path d="M46.4318 161.5C46.4318 161.5 57.7814 174.793 60.657 205.609C63.5326 236.425 66.8522 258.899 66.8522 258.899" stroke="#263238" stroke-width="2" stroke-linecap="round" stroke-linejoin="round"/>
<path d="M28.4648 137.177C28.0387 137.124 27.6085 137.235 27.2603 137.486C26.912 137.737 26.6714 138.11 26.5866 138.531C24.9049 147.085 17.6322 188.217 34.6819 182.793C48.827 178.294 47.9024 167.942 46.4974 162.941C46.4319 162.707 46.4335 162.46 46.5021 162.228C46.5707 161.995 46.7035 161.787 46.8852 161.627C47.0669 161.466 47.2901 161.36 47.5293 161.321C47.7685 161.282 48.0138 161.311 48.2373 161.405C53.7555 163.683 65.7602 167.272 67.0852 156.003C68.614 143.023 36.0578 138.138 28.4648 137.177Z" fill="#06BCC1" stroke="#263238" stroke-linecap="round" stroke-linejoin="round"/>
<path d="M34.6819 144.661C38.0852 148.538 41.0538 152.776 43.5344 157.299" stroke="#263238" stroke-linecap="round" stroke-linejoin="round"/>
<path d="M29.4986 139.586C30.5491 140.436 31.5482 141.348 32.4906 142.316" stroke="#263238" stroke-linecap="round" stroke-linejoin="round"/>
<path d="M42.224 160.16C42.224 160.16 37.4702 155.166 25.8076 157.32" stroke="#263238" stroke-linecap="round" stroke-linejoin="round"/>
<path d="M47.4292 143.263C48.7432 147.849 48.7432 152.712 47.4292 157.299" stroke="#263238" stroke-linecap="round" stroke-linejoin="round"/>
<path d="M27.8314 170.032C27.082 170.682 26.4081 171.415 25.8222 172.216" stroke="#263238" stroke-linecap="round" stroke-linejoin="round"/>
<path d="M43.5344 164.433C43.5344 164.433 35.672 164.834 29.848 168.532" stroke="#263238" stroke-linecap="round" stroke-linejoin="round"/>
<path d="M50.0209 160.16C50.0209 160.16 58.8734 157.539 61.0355 150.303" stroke="#263238" stroke-linecap="round" stroke-linejoin="round"/>
<path d="M78.3546 206.126C78.3546 206.126 71.8682 213.726 70.2229 231.351C68.5776 248.976 66.6775 261.833 66.6775 261.833" stroke="#263238" stroke-width="2" stroke-linecap="round" stroke-linejoin="round"/>
<path d="M88.0225 192.993C88.2673 192.962 88.5145 193.026 88.7145 193.17C88.9144 193.315 89.0521 193.53 89.0999 193.772C90.0609 198.657 94.1959 222.164 84.4698 219.084C76.3818 216.507 76.9132 210.589 77.714 207.728C77.7564 207.593 77.7589 207.449 77.7212 207.314C77.6835 207.178 77.6072 207.056 77.5016 206.963C77.3961 206.87 77.2657 206.809 77.1264 206.788C76.987 206.768 76.8447 206.788 76.7166 206.847C73.5644 208.157 66.6994 210.203 65.9422 203.76C65.0686 196.334 83.72 193.546 88.0225 192.993Z" fill="#06BCC1" stroke="#263238" stroke-linecap="round" stroke-linejoin="round"/>
<path d="M84.448 197.288C82.4919 199.505 80.7832 201.929 79.352 204.517" stroke="#263238" stroke-linecap="round" stroke-linejoin="round"/>
<path d="M87.4401 194.376C86.8354 194.862 86.2616 195.384 85.722 195.941" stroke="#263238" stroke-linecap="round" stroke-linejoin="round"/>
<path d="M80.1455 206.126C80.1455 206.126 82.8682 203.265 89.5367 204.502" stroke="#263238" stroke-linecap="round" stroke-linejoin="round"/>
<path d="M77.168 196.473C76.4195 199.09 76.4195 201.864 77.168 204.481" stroke="#263238" stroke-linecap="round" stroke-linejoin="round"/>
<path d="M88.3865 211.782C88.8159 212.152 89.2018 212.57 89.5367 213.027" stroke="#263238" stroke-linecap="round" stroke-linejoin="round"/>
<path d="M79.403 208.579C79.403 208.579 83.8874 208.812 87.229 210.923" stroke="#263238" stroke-linecap="round" stroke-linejoin="round"/>
<path d="M75.712 206.126C75.712 206.126 70.616 204.626 69.4148 200.484" stroke="#263238" stroke-linecap="round" stroke-linejoin="round"/>
<path d="M47.7422 199.042C47.7422 199.042 58.2109 211.309 60.8462 239.752C61.7126 248.75 62.608 256.984 63.4015 264.016" stroke="#263238" stroke-width="2" stroke-linecap="round" stroke-linejoin="round"/>
<path d="M27.846 190.088C27.5301 190.196 27.2669 190.42 27.109 190.714C26.951 191.009 26.9101 191.352 26.9942 191.675C28.7342 198.227 37.6886 229.364 47.7204 219.776C56.056 211.811 51.8773 204.91 49.1764 201.903C49.0516 201.764 48.9687 201.591 48.9372 201.407C48.9057 201.222 48.9269 201.032 48.9983 200.859C49.0697 200.686 49.1885 200.536 49.341 200.427C49.4936 200.318 49.6737 200.255 49.8607 200.244C54.4835 199.952 64.0786 198.358 61.1666 190.052C57.825 180.478 33.488 188.173 27.846 190.088Z" fill="#06BCC1" stroke="#263238" stroke-linecap="round" stroke-linejoin="round"/>
<path opacity="0.2" d="M27.846 190.088C27.5301 190.196 27.2669 190.42 27.109 190.714C26.951 191.009 26.9101 191.352 26.9942 191.675C28.7342 198.227 37.6886 229.364 47.7204 219.776C56.056 211.811 51.8773 204.91 49.1764 201.903C49.0516 201.764 48.9687 201.591 48.9372 201.407C48.9057 201.222 48.9269 201.032 48.9983 200.859C49.0697 200.686 49.1885 200.536 49.341 200.427C49.4936 200.318 49.6737 200.255 49.8607 200.244C54.4835 199.952 64.0786 198.358 61.1666 190.052C57.825 180.478 33.488 188.173 27.846 190.088Z" fill="#263238"/>
<path d="M34.7256 193.182C38.4222 194.735 41.9376 196.688 45.2088 199.006" stroke="#263238" stroke-linecap="round" stroke-linejoin="round"/>
<path d="M29.3821 191.413C30.4038 191.648 31.4103 191.944 32.396 192.301" stroke="#263238" stroke-linecap="round" stroke-linejoin="round"/>
<path d="M45.2743 201.401C45.2743 201.401 40.2584 199.537 32.8546 205.041" stroke="#263238" stroke-linecap="round" stroke-linejoin="round"/>
<path d="M43.134 187.868C45.6144 190.616 47.2719 194.007 47.917 197.652" stroke="#263238" stroke-linecap="round" stroke-linejoin="round"/>
<path d="M38.584 213.216C38.2824 213.917 38.0602 214.65 37.9215 215.4" stroke="#263238" stroke-linecap="round" stroke-linejoin="round"/>
<path d="M47.6403 203.949C47.6403 203.949 42.3114 206.905 39.5013 211.477" stroke="#263238" stroke-linecap="round" stroke-linejoin="round"/>
<path d="M50.6979 198.744C50.6979 198.744 55.9759 193.896 55.015 188.115" stroke="#263238" stroke-linecap="round" stroke-linejoin="round"/>
<path d="M69.888 284.211H59.3466C57.3759 284.21 55.4802 283.456 54.048 282.102C52.6159 280.749 51.7559 278.898 51.6443 276.931L50.5669 256.139H78.675L77.5975 276.931C77.4842 278.899 76.6226 280.749 75.1893 282.103C73.756 283.456 71.8594 284.21 69.888 284.211Z" fill="#999999" stroke="#263238" stroke-linecap="round" stroke-linejoin="round"/>
<path d="M108.472 69.8882H92.6234C89.706 69.8882 86.9081 71.0471 84.8452 73.11C82.7823 75.1729 81.6234 77.9709 81.6234 80.8883V256.176C81.6234 259.094 82.7823 261.891 84.8452 263.954C86.9081 266.017 89.706 267.176 92.6234 267.176H108.472V69.8882Z" fill="#999999" stroke="#263238" stroke-linecap="round" stroke-linejoin="round"/>
<path d="M84.5572 99.5688H82.5188C81.393 99.5688 80.4804 100.481 80.4804 101.607V114.515C80.4804 115.64 81.393 116.553 82.5188 116.553H84.5572C85.683 116.553 86.5956 115.64 86.5956 114.515V101.607C86.5956 100.481 85.683 99.5688 84.5572 99.5688Z" fill="#263238" stroke="#263238" stroke-linecap="round" stroke-linejoin="round"/>
<path d="M84.5572 101.607C84.5572 101.067 84.3424 100.548 83.9602 100.166C83.5779 99.7836 83.0594 99.5688 82.5188 99.5688C81.9782 99.5688 81.4597 99.7836 81.0774 100.166C80.6952 100.548 80.4804 101.067 80.4804 101.607V114.515C80.4804 115.055 80.6952 115.574 81.0774 115.956C81.4597 116.338 81.9782 116.553 82.5188 116.553C83.0594 116.553 83.5779 116.338 83.9602 115.956C84.3424 115.574 84.5572 115.055 84.5572 114.515V101.607Z" fill="#06BCC1" stroke="#263238" stroke-linecap="round" stroke-linejoin="round"/>
<path d="M84.5572 120.63H82.5188C81.393 120.63 80.4804 121.543 80.4804 122.668V126.257C80.4804 127.383 81.393 128.296 82.5188 128.296H84.5572C85.683 128.296 86.5956 127.383 86.5956 126.257V122.668C86.5956 121.543 85.683 120.63 84.5572 120.63Z" fill="#263238" stroke="#263238" stroke-linecap="round" stroke-linejoin="round"/>
<path d="M84.5572 122.668C84.5572 122.128 84.3424 121.609 83.9602 121.227C83.5779 120.845 83.0594 120.63 82.5188 120.63C81.9782 120.63 81.4597 120.845 81.0774 121.227C80.6952 121.609 80.4804 122.128 80.4804 122.668V126.257C80.4804 126.798 80.6952 127.316 81.0774 127.699C81.4597 128.081 81.9782 128.296 82.5188 128.296C83.0594 128.296 83.5779 128.081 83.9602 127.699C84.3424 127.316 84.5572 126.798 84.5572 126.257V122.668Z" fill="#06BCC1" stroke="#263238" stroke-linecap="round" stroke-linejoin="round"/>
<path d="M173.271 69.8882H99.9034C93.8283 69.8882 88.9034 74.8131 88.9034 80.8883V256.176C88.9034 262.251 93.8283 267.176 99.9034 267.176H173.271C179.346 267.176 184.271 262.251 184.271 256.176V80.8883C184.271 74.8131 179.346 69.8882 173.271 69.8882Z" fill="#06BCC1"/>
<mask id="mask0_659_9399" style="mask-type:luminance" maskUnits="userSpaceOnUse" x="88" y="69" width="97" height="199">
<path d="M173.271 69.8882H99.9034C93.8283 69.8882 88.9034 74.8131 88.9034 80.8883V256.176C88.9034 262.251 93.8283 267.176 99.9034 267.176H173.271C179.346 267.176 184.271 262.251 184.271 256.176V80.8883C184.271 74.8131 179.346 69.8882 173.271 69.8882Z" fill="white"/>
</mask>
<g mask="url(#mask0_659_9399)">
<path opacity="0.5" d="M173.271 69.8882H99.9034C93.8283 69.8882 88.9034 74.8131 88.9034 80.8883V256.176C88.9034 262.251 93.8283 267.176 99.9034 267.176H173.271C179.346 267.176 184.271 262.251 184.271 256.176V80.8883C184.271 74.8131 179.346 69.8882 173.271 69.8882Z" fill="white"/>
<path opacity="0.3" d="M75.3698 256.984H36.7058L167.826 76.4399H206.49L75.3698 256.984Z" fill="white"/>
<path opacity="0.3" d="M91.5023 256.984H82.9556L214.083 76.4399H222.63L91.5023 256.984Z" fill="white"/>
</g>
<path d="M173.271 69.8882H99.9034C93.8283 69.8882 88.9034 74.8131 88.9034 80.8883V256.176C88.9034 262.251 93.8283 267.176 99.9034 267.176H173.271C179.346 267.176 184.271 262.251 184.271 256.176V80.8883C184.271 74.8131 179.346 69.8882 173.271 69.8882Z" stroke="#263238" stroke-linecap="round" stroke-linejoin="round"/>
<path d="M173.264 69.8882H99.9034C96.986 69.8882 94.1881 71.0471 92.1252 73.11C90.0623 75.1729 88.9034 77.9709 88.9034 80.8883V82.9922H184.271V80.8883C184.269 77.9702 183.109 75.1723 181.045 73.1096C178.981 71.0469 176.182 69.8882 173.264 69.8882Z" fill="#263238" stroke="#263238" stroke-linecap="round" stroke-linejoin="round"/>
<path d="M139.252 78.2747C139.51 78.3074 139.772 78.2848 140.021 78.2083C140.27 78.1318 140.5 78.0032 140.695 77.8311C140.891 77.6589 141.047 77.4471 141.154 77.2098C141.262 76.9725 141.317 76.7151 141.317 76.4547C141.317 76.1943 141.262 75.9369 141.154 75.6996C141.047 75.4622 140.891 75.2505 140.695 75.0783C140.5 74.9061 140.27 74.7775 140.021 74.7011C139.772 74.6246 139.51 74.6019 139.252 74.6347H127.604C127.346 74.6019 127.083 74.6246 126.834 74.7011C126.585 74.7775 126.356 74.9061 126.16 75.0783C125.965 75.2505 125.808 75.4622 125.701 75.6996C125.594 75.9369 125.539 76.1943 125.539 76.4547C125.539 76.7151 125.594 76.9725 125.701 77.2098C125.808 77.4471 125.965 77.6589 126.16 77.8311C126.356 78.0032 126.585 78.1318 126.834 78.2083C127.083 78.2848 127.346 78.3074 127.604 78.2747H139.252Z" fill="#999999" stroke="#263238" stroke-linecap="round" stroke-linejoin="round"/>
<path d="M145.542 78.2746C146.555 78.2746 147.376 77.4532 147.376 76.44C147.376 75.4268 146.555 74.6055 145.542 74.6055C144.529 74.6055 143.707 75.4268 143.707 76.44C143.707 77.4532 144.529 78.2746 145.542 78.2746Z" fill="#999999" stroke="#263238" stroke-linecap="round" stroke-linejoin="round"/>
<path d="M88.9034 248.976V256.176C88.9034 259.093 90.0623 261.891 92.1252 263.954C94.1881 266.017 96.986 267.176 99.9034 267.176H173.264C176.182 267.176 178.981 266.017 181.045 263.955C183.109 261.892 184.269 259.094 184.271 256.176V248.976H88.9034Z" fill="#263238" stroke="#263238" stroke-linecap="round" stroke-linejoin="round"/>
<path d="M136.587 263.572C139.623 263.572 142.084 261.112 142.084 258.076C142.084 255.04 139.623 252.58 136.587 252.58C133.552 252.58 131.091 255.04 131.091 258.076C131.091 261.112 133.552 263.572 136.587 263.572Z" fill="#999999" stroke="#263238" stroke-linecap="round" stroke-linejoin="round"/>
<path d="M135.131 143.751C149.348 143.751 160.873 132.226 160.873 118.009C160.873 103.792 149.348 92.2671 135.131 92.2671C120.914 92.2671 109.389 103.792 109.389 118.009C109.389 132.226 120.914 143.751 135.131 143.751Z" fill="#999999"/>
<path d="M136.587 142.295C150.804 142.295 162.329 130.77 162.329 116.553C162.329 102.336 150.804 90.811 136.587 90.811C122.37 90.811 110.845 102.336 110.845 116.553C110.845 130.77 122.37 142.295 136.587 142.295Z" fill="white"/>
<mask id="mask1_659_9399" style="mask-type:luminance" maskUnits="userSpaceOnUse" x="110" y="90" width="53" height="53">
<path d="M136.587 142.295C150.804 142.295 162.329 130.77 162.329 116.553C162.329 102.336 150.804 90.811 136.587 90.811C122.37 90.811 110.845 102.336 110.845 116.553C110.845 130.77 122.37 142.295 136.587 142.295Z" fill="white"/>
</mask>
<g mask="url(#mask1_659_9399)">
<path d="M119.938 145.754L119.508 142.361C118.984 138.248 128.863 133.094 128.863 133.094L138.669 134.586L143.911 130.902C154.38 133.086 152.873 135.183 153.12 138.095C153.259 139.697 153.55 141.487 153.55 141.487L119.938 145.754Z" fill="#06BCC1" stroke="#263238" stroke-linecap="round" stroke-linejoin="round"/>
<path d="M131.615 119.101C131.615 119.101 133.799 124.022 130.421 132.052L138.655 134.375L141.982 130.582L140.024 121.802L131.615 119.101Z" fill="white"/>
<mask id="mask2_659_9399" style="mask-type:luminance" maskUnits="userSpaceOnUse" x="130" y="119" width="12" height="16">
<path d="M131.615 119.101C131.615 119.101 133.799 124.022 130.421 132.052L138.655 134.375L141.982 130.582L140.024 121.802L131.615 119.101Z" fill="white"/>
</mask>
<g mask="url(#mask2_659_9399)">
<path d="M131.266 119.902C131.266 119.902 133.704 128.958 142.186 128.638C150.667 128.317 134.01 118.082 134.01 118.082L131.957 117.936L131.266 119.902Z" fill="#263238"/>
</g>
<path d="M131.615 119.101C131.615 119.101 133.799 124.022 130.421 132.052L138.655 134.375L141.982 130.582L140.024 121.802L131.615 119.101Z" stroke="#263238" stroke-linecap="round" stroke-linejoin="round"/>
<path d="M131.615 119.101C131.615 119.101 128.172 118.752 126.883 108.072C125.835 99.4089 131.091 93.5776 138.022 93.6795C145.447 93.796 150.041 102.234 154.467 102.75C154.467 102.75 150.099 104.614 148.41 103.515C148.41 103.515 151.875 106.427 148.752 107.883C145.629 109.339 131.615 119.101 131.615 119.101Z" fill="#263238" stroke="#263238" stroke-miterlimit="10"/>
<path d="M148.512 105.714L149.371 112.491C149.371 112.491 150.827 117.092 149.56 120.623C148.294 124.154 146.859 128.136 142.673 127.262C138.487 126.389 134.949 126.272 131.652 119.101L132.554 115.891C132.554 115.891 130.166 115.942 129.766 111.69C129.366 107.439 133.501 110.06 133.501 110.06C134.629 108.046 135.211 105.772 135.19 103.464C135.131 99.6784 142.062 105.692 146.153 104.607L143.074 101.316C143.074 101.316 147.58 103.435 148.512 105.714Z" fill="white" stroke="#263238" stroke-linecap="round" stroke-linejoin="round"/>
<path d="M144.719 112.659L146.808 115.534C146.883 115.634 146.933 115.75 146.954 115.872C146.975 115.994 146.966 116.12 146.929 116.239C146.892 116.357 146.828 116.466 146.741 116.554C146.654 116.643 146.548 116.71 146.43 116.75L144.348 117.478" stroke="#263238" stroke-linecap="round" stroke-linejoin="round"/>
<path d="M138.8 119.742C138.8 119.742 140.708 121.467 144.37 120.47" stroke="#263238" stroke-linecap="round" stroke-linejoin="round"/>
<path d="M139.9 112.345C139.9 113.073 139.681 113.678 139.361 113.685C139.041 113.692 138.771 113.11 138.75 112.382C138.728 111.654 138.968 111.049 139.281 111.035C139.594 111.02 139.878 111.61 139.9 112.345Z" fill="#263238"/>
<path d="M146.925 112.112C146.925 112.84 146.707 113.445 146.386 113.452C146.066 113.459 145.797 112.877 145.775 112.149C145.753 111.421 145.986 110.816 146.306 110.809C146.626 110.802 146.903 111.384 146.925 112.112Z" fill="#263238"/>
<path d="M137.483 110.656C137.483 110.656 138.866 108.269 141.931 109.426" stroke="#263238" stroke-linecap="round" stroke-linejoin="round"/>
<path d="M145.6 109.31C145.6 109.31 147.18 107.912 148.578 110.088" stroke="#263238" stroke-linecap="round" stroke-linejoin="round"/>
<path d="M146.539 100.341C147.033 100.75 147.57 101.104 148.141 101.396" stroke="#7F7F7F" stroke-linecap="round" stroke-linejoin="round"/>
<path d="M130.807 106.842C130.807 106.842 130.021 99.1179 135.219 96.5699C139.063 94.6843 143.161 97.7492 145.862 99.824" stroke="#7F7F7F" stroke-linecap="round" stroke-linejoin="round"/>
<path d="M137.177 99.4233C138.444 99.4233 140.184 100.224 142.499 102.954" stroke="#7F7F7F" stroke-linecap="round" stroke-linejoin="round"/>
<path d="M134.469 101.367C134.699 100.859 135.043 100.411 135.474 100.057" stroke="#7F7F7F" stroke-linecap="round" stroke-linejoin="round"/>
<path d="M127.313 133.64L129.824 131.281L138.364 133.712L142.295 129.701L145.039 130.684L142.426 136.362L138.669 135.008L135.954 138.022L127.313 133.64Z" fill="#06BCC1"/>
<mask id="mask3_659_9399" style="mask-type:luminance" maskUnits="userSpaceOnUse" x="127" y="129" width="19" height="10">
<path d="M127.313 133.64L129.824 131.281L138.364 133.712L142.295 129.701L145.039 130.684L142.426 136.362L138.669 135.008L135.954 138.022L127.313 133.64Z" fill="white"/>
</mask>
<g mask="url(#mask3_659_9399)">
<path opacity="0.5" d="M127.313 133.64L129.824 131.281L138.364 133.712L142.295 129.701L145.039 130.684L142.426 136.362L138.669 135.008L135.954 138.022L127.313 133.64Z" fill="white"/>
</g>
<path d="M127.313 133.64L129.824 131.281L138.364 133.712L142.295 129.701L145.039 130.684L142.426 136.362L138.669 135.008L135.954 138.022L127.313 133.64Z" stroke="#263238" stroke-linecap="round" stroke-linejoin="round"/>
</g>
<path d="M136.587 142.295C150.804 142.295 162.329 130.77 162.329 116.553C162.329 102.336 150.804 90.811 136.587 90.811C122.37 90.811 110.845 102.336 110.845 116.553C110.845 130.77 122.37 142.295 136.587 142.295Z" stroke="#263238" stroke-linecap="round" stroke-linejoin="round"/>
<path d="M155.035 128.295H146.75C144.507 128.295 142.688 130.114 142.688 132.358V140.642C142.688 142.886 144.507 144.705 146.75 144.705H155.035C157.278 144.705 159.097 142.886 159.097 140.642V132.358C159.097 130.114 157.278 128.295 155.035 128.295Z" fill="#06BCC1" stroke="#263238" stroke-linecap="round" stroke-linejoin="round"/>
<path d="M153.091 133.028C152.976 132.807 152.802 132.622 152.589 132.494C152.376 132.366 152.132 132.298 151.883 132.3H149.91C149.661 132.298 149.416 132.366 149.203 132.494C148.99 132.622 148.816 132.807 148.701 133.028" stroke="#263238" stroke-linecap="round" stroke-linejoin="round"/>
<path d="M147.398 133.435C147.041 133.435 146.698 133.577 146.446 133.83C146.193 134.082 146.051 134.425 146.051 134.782V139.376C146.051 139.733 146.193 140.075 146.446 140.328C146.698 140.58 147.041 140.722 147.398 140.722H154.387C154.564 140.723 154.74 140.689 154.905 140.622C155.069 140.555 155.218 140.456 155.344 140.33C155.47 140.205 155.57 140.057 155.638 139.893C155.706 139.729 155.741 139.553 155.741 139.376V134.782C155.741 134.604 155.706 134.429 155.638 134.265C155.57 134.101 155.47 133.952 155.344 133.827C155.218 133.702 155.069 133.603 154.905 133.536C154.74 133.468 154.564 133.434 154.387 133.435" stroke="#263238" stroke-linecap="round" stroke-linejoin="round"/>
<path d="M150.893 135.183C150.516 135.183 150.149 135.294 149.836 135.503C149.524 135.713 149.28 136.01 149.136 136.357C148.993 136.705 148.956 137.087 149.03 137.456C149.103 137.825 149.285 138.163 149.552 138.429C149.818 138.694 150.157 138.875 150.526 138.947C150.895 139.02 151.278 138.981 151.625 138.836C151.972 138.691 152.268 138.446 152.476 138.133C152.684 137.82 152.794 137.452 152.793 137.075C152.794 136.826 152.745 136.579 152.65 136.348C152.555 136.118 152.415 135.908 152.238 135.732C152.061 135.556 151.851 135.417 151.62 135.323C151.389 135.228 151.142 135.181 150.893 135.183Z" stroke="#263238" stroke-linecap="round" stroke-linejoin="round"/>
<path d="M168.525 226.816H103.194C99.6237 226.816 96.7294 229.71 96.7294 233.281V239.279C96.7294 242.85 99.6237 245.744 103.194 245.744H168.525C172.095 245.744 174.989 242.85 174.989 239.279V233.281C174.989 229.71 172.095 226.816 168.525 226.816Z" fill="#999999"/>
<path d="M169.253 224.632H103.922C100.352 224.632 97.4574 227.526 97.4574 231.096V237.095C97.4574 240.666 100.352 243.56 103.922 243.56H169.253C172.823 243.56 175.717 240.666 175.717 237.095V231.096C175.717 227.526 172.823 224.632 169.253 224.632Z" fill="#06BCC1" stroke="#263238" stroke-linecap="round" stroke-linejoin="round"/>
<path d="M105.655 231.934C105.653 231.537 105.77 231.149 105.989 230.819C106.208 230.488 106.521 230.231 106.887 230.078C107.253 229.926 107.656 229.886 108.045 229.963C108.434 230.04 108.792 230.23 109.072 230.511C109.353 230.791 109.543 231.149 109.621 231.538C109.698 231.927 109.657 232.33 109.505 232.696C109.352 233.062 109.095 233.375 108.764 233.594C108.434 233.814 108.046 233.93 107.649 233.928M107.649 227.464C106.464 227.464 105.327 227.935 104.489 228.773C103.65 229.611 103.179 230.748 103.179 231.934C103.179 233.674 105.363 237.219 106.703 239.17C106.807 239.326 106.947 239.454 107.112 239.543C107.277 239.632 107.462 239.678 107.649 239.678C107.837 239.678 108.021 239.632 108.186 239.543C108.352 239.454 108.492 239.326 108.596 239.17C109.928 237.219 112.112 233.688 112.112 231.934C112.112 230.75 111.642 229.614 110.805 228.776C109.969 227.938 108.834 227.466 107.649 227.464Z" stroke="#263238" stroke-linecap="round" stroke-linejoin="round"/>
<path d="M160.531 228.796H123.629C123.362 228.796 123.098 228.848 122.852 228.951C122.605 229.053 122.381 229.202 122.193 229.391C122.004 229.579 121.855 229.803 121.752 230.05C121.65 230.296 121.598 230.56 121.598 230.827C121.598 231.094 121.65 231.358 121.752 231.604C121.855 231.851 122.004 232.075 122.193 232.263C122.381 232.452 122.605 232.601 122.852 232.704C123.098 232.806 123.362 232.858 123.629 232.858H160.531C161.07 232.858 161.587 232.644 161.968 232.263C162.348 231.882 162.562 231.366 162.562 230.827C162.562 230.288 162.348 229.772 161.968 229.391C161.587 229.01 161.07 228.796 160.531 228.796Z" fill="#858585" stroke="#263238" stroke-linecap="round" stroke-linejoin="round"/>
<path d="M149.786 235.326H123.629C123.09 235.326 122.574 235.54 122.193 235.921C121.812 236.302 121.598 236.819 121.598 237.357C121.598 237.896 121.812 238.413 122.193 238.794C122.574 239.174 123.09 239.388 123.629 239.388H149.786C150.325 239.388 150.841 239.174 151.222 238.794C151.603 238.413 151.817 237.896 151.817 237.357C151.817 236.819 151.603 236.302 151.222 235.921C150.841 235.54 150.325 235.326 149.786 235.326Z" fill="#999999" stroke="#263238" stroke-linecap="round" stroke-linejoin="round"/>
<path d="M162.839 235.326H155.362C154.824 235.326 154.307 235.54 153.926 235.921C153.545 236.302 153.331 236.819 153.331 237.357C153.331 237.896 153.545 238.413 153.926 238.794C154.307 239.174 154.824 239.388 155.362 239.388H162.839C163.378 239.388 163.894 239.174 164.275 238.794C164.656 238.413 164.87 237.896 164.87 237.357C164.87 236.819 164.656 236.302 164.275 235.921C163.894 235.54 163.378 235.326 162.839 235.326Z" fill="#999999" stroke="#263238" stroke-linecap="round" stroke-linejoin="round"/>
<path d="M178.717 203.156H113.386C109.816 203.156 106.921 206.05 106.921 209.62V215.619C106.921 219.189 109.816 222.084 113.386 222.084H178.717C182.287 222.084 185.181 219.189 185.181 215.619V209.62C185.181 206.05 182.287 203.156 178.717 203.156Z" fill="#999999"/>
<path d="M179.445 200.972H114.114C110.544 200.972 107.649 203.866 107.649 207.436V213.435C107.649 217.005 110.544 219.9 114.114 219.9H179.445C183.015 219.9 185.909 217.005 185.909 213.435V207.436C185.909 203.866 183.015 200.972 179.445 200.972Z" fill="#06BCC1" stroke="#263238" stroke-linecap="round" stroke-linejoin="round"/>
<path d="M113.961 212.474V213.413C113.962 213.485 113.982 213.555 114.019 213.617C114.056 213.678 114.109 213.729 114.172 213.763L117.652 215.648C117.71 215.681 117.775 215.698 117.841 215.698C117.908 215.698 117.973 215.681 118.031 215.648L121.518 213.763C121.581 213.729 121.634 213.678 121.671 213.617C121.708 213.555 121.728 213.485 121.729 213.413V212.474" stroke="#263238" stroke-linecap="round" stroke-linejoin="round"/>
<path d="M123.462 214.032V209.926L124.459 209.387C124.529 209.355 124.588 209.304 124.629 209.24C124.67 209.175 124.692 209.1 124.692 209.023C124.692 208.947 124.67 208.872 124.629 208.807C124.588 208.743 124.529 208.691 124.459 208.659L118.031 205.179C117.973 205.147 117.908 205.13 117.841 205.13C117.775 205.13 117.71 205.147 117.652 205.179L111.231 208.659C111.161 208.691 111.102 208.743 111.061 208.807C111.02 208.872 110.998 208.947 110.998 209.023C110.998 209.1 111.02 209.175 111.061 209.24C111.102 209.304 111.161 209.355 111.231 209.387L117.652 212.86C117.71 212.892 117.775 212.91 117.841 212.91C117.908 212.91 117.973 212.892 118.031 212.86L121.729 210.865" stroke="#263238" stroke-linecap="round" stroke-linejoin="round"/>
<path d="M170.723 205.136H133.821C133.282 205.136 132.766 205.35 132.385 205.731C132.004 206.112 131.79 206.628 131.79 207.167C131.79 207.706 132.004 208.222 132.385 208.603C132.766 208.984 133.282 209.198 133.821 209.198H170.723C171.262 209.198 171.779 208.984 172.16 208.603C172.54 208.222 172.754 207.706 172.754 207.167C172.754 206.628 172.54 206.112 172.16 205.731C171.779 205.35 171.262 205.136 170.723 205.136Z" fill="#858585" stroke="#263238" stroke-linecap="round" stroke-linejoin="round"/>
<path d="M153.426 211.666H133.821C133.282 211.666 132.766 211.88 132.385 212.261C132.004 212.642 131.79 213.158 131.79 213.697C131.79 214.236 132.004 214.752 132.385 215.133C132.766 215.514 133.282 215.728 133.821 215.728H153.426C153.965 215.728 154.481 215.514 154.862 215.133C155.243 214.752 155.457 214.236 155.457 213.697C155.457 213.158 155.243 212.642 154.862 212.261C154.481 211.88 153.965 211.666 153.426 211.666Z" fill="#999999" stroke="#263238" stroke-linecap="round" stroke-linejoin="round"/>
<path d="M166.646 211.666H159.17C158.631 211.666 158.115 211.88 157.734 212.261C157.353 212.642 157.139 213.158 157.139 213.697C157.139 214.236 157.353 214.752 157.734 215.133C158.115 215.514 158.631 215.728 159.17 215.728H166.646C167.185 215.728 167.702 215.514 168.083 215.133C168.464 214.752 168.678 214.236 168.678 213.697C168.678 213.158 168.464 212.642 168.083 212.261C167.702 211.88 167.185 211.666 166.646 211.666Z" fill="#999999" stroke="#263238" stroke-linecap="round" stroke-linejoin="round"/>
<path d="M159.061 179.496H93.73C90.1597 179.496 87.2654 182.39 87.2654 185.96V191.959C87.2654 195.529 90.1597 198.424 93.73 198.424H159.061C162.631 198.424 165.525 195.529 165.525 191.959V185.96C165.525 182.39 162.631 179.496 159.061 179.496Z" fill="#999999"/>
<path d="M159.789 177.312H94.458C90.8877 177.312 87.9934 180.206 87.9934 183.776V189.775C87.9934 193.345 90.8877 196.24 94.458 196.24H159.789C163.359 196.24 166.253 193.345 166.253 189.775V183.776C166.253 180.206 163.359 177.312 159.789 177.312Z" fill="#06BCC1" stroke="#263238" stroke-linecap="round" stroke-linejoin="round"/>
<path d="M98.4911 187.569H97.8796C97.4775 187.569 97.1516 187.895 97.1516 188.297V189.862C97.1516 190.264 97.4775 190.59 97.8796 190.59H98.4911C98.8932 190.59 99.2191 190.264 99.2191 189.862V188.297C99.2191 187.895 98.8932 187.569 98.4911 187.569Z" stroke="#263238" stroke-linecap="round" stroke-linejoin="round"/>
<path d="M93.2277 189.68C93.2277 190.281 93.4662 190.857 93.8908 191.281C94.3154 191.706 94.8913 191.944 95.4918 191.944H100.886C101.487 191.944 102.063 191.706 102.487 191.281C102.912 190.857 103.15 190.281 103.15 189.68" stroke="#263238" stroke-linecap="round" stroke-linejoin="round"/>
<path d="M94.5963 182.968H93.8683C93.5561 182.97 93.2573 183.095 93.0365 183.315C92.8157 183.536 92.6909 183.835 92.689 184.147V186.499C92.688 186.802 92.747 187.103 92.8625 187.384C92.9781 187.665 93.1479 187.92 93.3623 188.135C93.5767 188.35 93.8314 188.521 94.1119 188.637C94.3924 188.754 94.6931 188.814 94.9967 188.814H95.7247M100.682 188.814H101.374C101.988 188.814 102.577 188.57 103.011 188.136C103.445 187.702 103.689 187.113 103.689 186.499V184.184C103.687 183.871 103.562 183.573 103.342 183.352C103.121 183.131 102.822 183.006 102.51 183.004H101.782M96.278 183.004V182.728C96.2799 182.434 96.3981 182.152 96.6068 181.945C96.8155 181.737 97.0977 181.621 97.3918 181.621H99.008C99.2984 181.627 99.575 181.746 99.779 181.952C99.983 182.159 100.098 182.437 100.1 182.728V182.99" stroke="#263238" stroke-linecap="round" stroke-linejoin="round"/>
<path d="M151.067 181.476H114.165C113.626 181.476 113.11 181.69 112.729 182.07C112.348 182.451 112.134 182.968 112.134 183.507C112.134 184.045 112.348 184.562 112.729 184.943C113.11 185.324 113.626 185.538 114.165 185.538H151.067C151.606 185.538 152.123 185.324 152.504 184.943C152.884 184.562 153.098 184.045 153.098 183.507C153.098 182.968 152.884 182.451 152.504 182.07C152.123 181.69 151.606 181.476 151.067 181.476Z" fill="#858585" stroke="#263238" stroke-linecap="round" stroke-linejoin="round"/>
<path d="M144.69 188.006H114.165C113.626 188.006 113.11 188.22 112.729 188.601C112.348 188.982 112.134 189.498 112.134 190.037C112.134 190.576 112.348 191.092 112.729 191.473C113.11 191.854 113.626 192.068 114.165 192.068H144.69C145.229 192.068 145.745 191.854 146.126 191.473C146.507 191.092 146.721 190.576 146.721 190.037C146.721 189.498 146.507 188.982 146.126 188.601C145.745 188.22 145.229 188.006 144.69 188.006Z" fill="#999999" stroke="#263238" stroke-linecap="round" stroke-linejoin="round"/>
<path d="M232.341 285.755L232.108 291.768C232.108 291.768 225.309 296.304 222.338 297.286C220.882 297.767 216.929 298.276 216.929 300.075C216.929 301.873 222.025 302.135 224.785 302.135C226.241 302.135 229.939 301.997 234.525 301.946C238.66 301.902 242.322 301.334 242.322 299.354C242.244 296.675 241.493 294.059 240.138 291.746L241.004 285.755H232.341Z" fill="white" stroke="#263238" stroke-linecap="round" stroke-linejoin="round"/>
<path d="M233.157 181.621C233.157 181.621 232.101 198.074 232.319 209.751C232.487 219.099 230.638 246.399 230.638 246.399L231.366 287.64L241.507 288.368C241.507 288.368 246.93 266.324 245.736 246.872C245.736 246.872 249.77 219.689 250.978 210.953C250.978 210.953 259.146 200.266 258.819 181.439L233.157 181.621Z" fill="#263238"/>
<path d="M237.808 196.56C239.258 199.688 241.462 202.407 244.222 204.473" stroke="#7F7F7F" stroke-linecap="round" stroke-linejoin="round"/>
<path d="M216.944 300.067C216.944 301.865 222.04 302.135 224.799 302.135C226.255 302.135 229.953 301.996 234.54 301.945C238.675 301.902 242.337 301.334 242.337 299.354C242.259 296.675 241.508 294.058 240.153 291.746C238.202 292.474 237.466 295.131 237.466 295.131C237.466 295.131 232.283 295.947 233.644 294.119C235.006 292.292 232.094 291.768 232.094 291.768C232.094 291.768 225.294 296.303 222.324 297.286C220.897 297.752 216.944 298.276 216.944 300.067Z" fill="#06BCC1" stroke="#263238" stroke-linecap="round" stroke-linejoin="round"/>
<path d="M230.638 285.165L230.842 288.623L241.987 289.577L242.941 286.097L230.638 285.165Z" fill="#999999" stroke="#263238" stroke-linecap="round" stroke-linejoin="round"/>
<path d="M238.012 244.39C239.48 245.527 241.153 246.37 242.941 246.872C248.117 248.328 237.969 248.692 237.583 250.694" stroke="#7F7F7F" stroke-linecap="round" stroke-linejoin="round"/>
<path d="M235.493 241.776C235.838 242.281 236.231 242.752 236.666 243.181" stroke="#7F7F7F" stroke-linecap="round" stroke-linejoin="round"/>
<path d="M213.457 165.038L207.553 169.1C206.613 168.364 205.456 167.959 204.262 167.95C202.493 168.037 200.768 168.969 199.581 169.1C198.22 169.238 194.165 168.481 194.165 169.74C194.165 171.59 201.095 170.905 201.314 171.772C201.532 172.638 196.713 173.861 196.713 173.861L196.123 175.004L205.718 175.914C205.718 175.914 209.955 176.365 211.957 173.497L219.601 169.129L215 163.749L213.457 165.038Z" fill="white" stroke="#263238" stroke-linecap="round" stroke-linejoin="round"/>
<path d="M233.062 125.944C230.769 132.649 228.381 153.047 228.381 153.047L211.848 164.972L216.944 171.342C216.944 171.342 233.382 163.116 236.003 161.092C238.624 159.068 241.725 137.454 243.349 133.137C244.972 128.819 244.004 124.233 239.847 122.522C235.69 120.811 233.688 124.153 233.062 125.944Z" fill="#06BCC1" stroke="#263238" stroke-linecap="round" stroke-linejoin="round"/>
<path d="M210.297 164.252L213.69 161.376L220.518 170.694L216.755 172.973L210.297 164.252Z" fill="#06BCC1"/>
<mask id="mask4_659_9399" style="mask-type:luminance" maskUnits="userSpaceOnUse" x="210" y="161" width="11" height="12">
<path d="M210.297 164.252L213.69 161.376L220.518 170.694L216.755 172.973L210.297 164.252Z" fill="white"/>
</mask>
<g mask="url(#mask4_659_9399)">
<path opacity="0.5" d="M210.297 164.252L213.69 161.376L220.518 170.694L216.755 172.973L210.297 164.252Z" fill="white"/>
</g>
<path d="M210.297 164.252L213.69 161.376L220.518 170.694L216.755 172.973L210.297 164.252Z" stroke="#263238" stroke-linecap="round" stroke-linejoin="round"/>
<path d="M244.062 115.417L258.12 113.51L246.748 120.804L244.674 121.139L244.062 115.417Z" fill="#06BCC1" stroke="#263238" stroke-linecap="round" stroke-linejoin="round"/>
<path d="M244.317 112.745C244.317 112.745 239.432 114.558 238.347 111.158C237.688 109.091 237.32 106.942 237.255 104.774L235.457 103.769C235.349 103.71 235.255 103.629 235.181 103.532C235.106 103.435 235.053 103.323 235.024 103.203C234.995 103.084 234.992 102.96 235.014 102.84C235.036 102.719 235.082 102.604 235.151 102.502L237.983 98.3165C237.983 98.3165 237.161 95.288 237.619 93.701C238.078 92.1139 240.269 87.1926 240.269 87.1926C240.269 87.1926 250.971 78.9153 256.445 87.7386C261.92 96.562 254.698 108.312 254.698 108.312L256.445 116.953L246.108 122.049L244.317 112.745Z" fill="white"/>
<mask id="mask5_659_9399" style="mask-type:luminance" maskUnits="userSpaceOnUse" x="234" y="83" width="25" height="40">
<path d="M244.317 112.745C244.317 112.745 239.432 114.558 238.347 111.158C237.688 109.091 237.32 106.942 237.255 104.774L235.457 103.769C235.349 103.71 235.255 103.629 235.181 103.532C235.106 103.435 235.053 103.323 235.024 103.203C234.995 103.084 234.992 102.96 235.014 102.84C235.036 102.719 235.082 102.604 235.151 102.502L237.983 98.3165C237.983 98.3165 237.161 95.288 237.619 93.701C238.078 92.1139 240.269 87.1926 240.269 87.1926C240.269 87.1926 250.971 78.9153 256.445 87.7386C261.92 96.562 254.698 108.312 254.698 108.312L256.445 116.953L246.108 122.049L244.317 112.745Z" fill="white"/>
</mask>
<g mask="url(#mask5_659_9399)">
<path d="M244.317 112.745C246.003 112.024 247.566 111.041 248.947 109.833C249.002 109.783 249.073 109.753 249.148 109.748C249.222 109.743 249.297 109.763 249.359 109.804C249.421 109.846 249.467 109.908 249.49 109.979C249.513 110.05 249.511 110.127 249.486 110.197C248.476 112.956 246.679 115.359 244.317 117.106C239.709 120.499 244.317 112.745 244.317 112.745Z" fill="#999999"/>
</g>
<path d="M244.317 112.745C244.317 112.745 239.432 114.558 238.347 111.158C237.688 109.091 237.32 106.942 237.255 104.774L235.457 103.769C235.349 103.71 235.255 103.629 235.181 103.532C235.106 103.435 235.053 103.323 235.024 103.203C234.995 103.084 234.992 102.96 235.014 102.84C235.036 102.719 235.082 102.604 235.151 102.502L237.983 98.3165C237.983 98.3165 237.161 95.288 237.619 93.701C238.078 92.1139 240.269 87.1926 240.269 87.1926C240.269 87.1926 250.971 78.9153 256.445 87.7386C261.92 96.562 254.698 108.312 254.698 108.312L256.445 116.953L246.108 122.049L244.317 112.745Z" stroke="#263238" stroke-linecap="round" stroke-linejoin="round"/>
<path d="M238.486 94.189C238.486 94.189 240.233 92.6529 242.126 95.2009" stroke="#263238" stroke-linecap="round" stroke-linejoin="round"/>
<path d="M240.24 105.997C240.24 105.997 241.521 106.922 243.509 105.342" stroke="#263238" stroke-linecap="round" stroke-linejoin="round"/>
<path d="M240.684 97.3992C240.684 97.9088 240.437 98.3165 240.138 98.3165C239.84 98.3165 239.585 97.9088 239.585 97.3992C239.585 96.8896 239.832 96.4819 240.138 96.4819C240.444 96.4819 240.684 96.8969 240.684 97.3992Z" fill="#263238"/>
<path d="M249.304 98.3165C249.304 98.3165 250.949 95.2006 253.053 97.3992C256.314 100.814 251.48 103.303 251.48 103.303C251.986 105.275 253.115 107.032 254.698 108.312C254.698 108.312 256.03 106.856 257.515 105.029C259.001 103.201 263.041 96.562 260.158 89.1C260.158 89.1 260.457 82.2058 249.966 80.8299C239.476 79.454 238.362 84.6883 234.977 84.1642C234.977 84.1642 237.554 86.4646 240.109 84.8048C239.876 85.4128 239.474 85.9414 238.95 86.3284C238.426 86.7154 237.803 86.9445 237.153 86.9888C237.153 86.9888 240.32 89.697 243.509 88.9908C246.697 88.2846 245.336 93.337 249.304 98.3165Z" fill="#263238" stroke="#263238" stroke-miterlimit="10"/>
<path d="M257.515 87.6948C257.837 88.3051 258.082 88.9532 258.243 89.624" stroke="#7F7F7F" stroke-linecap="round" stroke-linejoin="round"/>
<path d="M242.664 82.9411C242.664 82.9411 252.128 81.4851 256.416 86.1589" stroke="#7F7F7F" stroke-linecap="round" stroke-linejoin="round"/>
<path d="M243.152 86.4062C242.57 86.4863 241.965 86.6028 241.332 86.7411" stroke="#7F7F7F" stroke-linecap="round" stroke-linejoin="round"/>
<path d="M256.445 90.9999C256.445 90.9999 253.861 85.7947 245.452 86.1659" stroke="#7F7F7F" stroke-linecap="round" stroke-linejoin="round"/>
<path d="M256.19 104.402C255.928 104.861 255.644 105.327 255.331 105.8" stroke="#7F7F7F" stroke-linecap="round" stroke-linejoin="round"/>
<path d="M258.535 93.3516C259.032 96.5885 258.497 99.8998 257.006 102.816" stroke="#7F7F7F" stroke-linecap="round" stroke-linejoin="round"/>
<path d="M261.505 287.211L262.007 291.768C262.007 291.768 255.208 296.303 252.237 297.286C250.781 297.767 246.821 298.276 246.821 300.074C246.821 301.872 251.917 302.135 254.684 302.135C256.14 302.135 259.83 301.996 264.417 301.945C268.559 301.902 272.214 301.334 272.214 299.354C272.136 296.675 271.385 294.058 270.03 291.746L269.76 286.097L261.505 287.211Z" fill="white" stroke="#263238" stroke-linecap="round" stroke-linejoin="round"/>
<path d="M266.448 295.313C264.264 295.313 263.449 294.673 263.449 294.673C265.269 293.129 262.036 291.761 262.036 291.761C262.036 291.761 255.237 296.296 252.267 297.279C250.811 297.759 246.85 298.269 246.85 300.06C246.85 301.851 251.946 302.127 254.713 302.127C256.169 302.127 259.86 301.989 264.446 301.938C268.588 301.894 272.243 301.327 272.243 299.346C272.165 296.667 271.414 294.051 270.059 291.739C267.606 292.736 268.632 295.313 266.448 295.313Z" fill="#06BCC1" stroke="#263238" stroke-linecap="round" stroke-linejoin="round"/>
<path d="M244.324 181.716H266.892C266.892 181.716 269.6 195.221 268.799 208.652C267.999 222.084 269.142 245.293 269.142 245.293C269.142 245.293 271.923 257.123 270.423 288.354L261.134 289.082C261.134 289.082 254.516 258.229 253.191 246.13C252.405 238.908 250.563 219.922 248.721 212.875C246.792 205.624 244.979 202.879 244.324 181.716Z" fill="#263238"/>
<path d="M267.394 283.265C267.394 284.182 267.453 285.129 267.482 286.097" stroke="#7F7F7F" stroke-linecap="round" stroke-linejoin="round"/>
<path d="M262.866 221.269C263.216 229.539 263.427 240 264.082 245.897C265.108 255.091 266.499 259.532 267.285 280.113" stroke="#7F7F7F" stroke-linecap="round" stroke-linejoin="round"/>
<path d="M255.106 191.464C256.166 194.31 258.24 196.664 260.93 198.074C260.93 198.074 261.658 205.354 262.386 213.115C262.502 214.33 262.597 215.757 262.684 217.344" stroke="#7F7F7F" stroke-linecap="round" stroke-linejoin="round"/>
<path d="M253.737 186.07C253.855 187.236 254.081 188.389 254.414 189.513" stroke="#7F7F7F" stroke-linecap="round" stroke-linejoin="round"/>
<path d="M244.542 188.742C244.509 187.994 244.472 187.208 244.433 186.383" stroke="#7F7F7F" stroke-linecap="round" stroke-linejoin="round"/>
<path d="M246.29 204.43C245.407 200.158 244.874 195.822 244.695 191.464" stroke="#7F7F7F" stroke-linecap="round" stroke-linejoin="round"/>
<path d="M249.624 217.366C249.311 215.612 249.005 214.076 248.692 212.889C248.263 211.266 247.84 209.213 247.44 207.902" stroke="#7F7F7F" stroke-linecap="round" stroke-linejoin="round"/>
<path d="M259.547 286.752L260.304 290.137L271.457 289.271L271.821 285.878L259.547 286.752Z" fill="#999999" stroke="#263238" stroke-linecap="round" stroke-linejoin="round"/>
<path d="M267.904 152.006C268.137 137.243 273.24 121.095 273.24 121.095C273.24 121.095 268.392 115.686 258.287 114.711L247.025 121.452L244.659 121.139L243.713 116.589C237.255 119.101 233.055 123.571 232.523 128.106C231.722 134.869 233.739 155.246 233.011 168.379C232.574 176.205 232.05 184.395 232.05 184.395L241.121 186.361L242.752 184.133L245.46 186.361L269.178 183.951C269.178 183.951 267.686 166.77 267.904 152.006Z" fill="#06BCC1" stroke="#263238" stroke-linecap="round" stroke-linejoin="round"/>
<path d="M244.324 115.039L245.693 120.368L258.142 113.139L261.17 114.718L251.444 124.175L245.547 121.336L241.368 123.571L241.82 116.626L244.324 115.039Z" fill="#06BCC1"/>
<mask id="mask6_659_9399" style="mask-type:luminance" maskUnits="userSpaceOnUse" x="241" y="113" width="21" height="12">
<path d="M244.324 115.039L245.693 120.368L258.142 113.139L261.17 114.718L251.444 124.175L245.547 121.336L241.368 123.571L241.82 116.626L244.324 115.039Z" fill="white"/>
</mask>
<g mask="url(#mask6_659_9399)">
<path opacity="0.5" d="M244.324 115.039L245.693 120.368L258.142 113.139L261.17 114.718L251.444 124.175L245.547 121.336L241.368 123.571L241.82 116.626L244.324 115.039Z" fill="white"/>
</g>
<path d="M244.324 115.039L245.693 120.368L258.142 113.139L261.17 114.718L251.444 124.175L245.547 121.336L241.368 123.571L241.82 116.626L244.324 115.039Z" stroke="#263238" stroke-linecap="round" stroke-linejoin="round"/>
<path d="M242.817 178.92C242.817 180.588 242.817 181.439 242.817 181.439" stroke="#263238" stroke-linecap="round" stroke-linejoin="round"/>
<path d="M244.433 128.805C243.384 136.612 242.856 144.479 242.854 152.356C242.737 163.931 242.766 172.303 242.803 177.013" stroke="#263238" stroke-linecap="round" stroke-linejoin="round"/>
<path d="M245.169 124.648C245.169 124.648 244.994 125.376 244.732 126.913" stroke="#263238" stroke-linecap="round" stroke-linejoin="round"/>
<path d="M230.492 148.796H165.161C161.591 148.796 158.697 151.69 158.697 155.261V168.539C158.697 172.11 161.591 175.004 165.161 175.004H230.492C234.062 175.004 236.957 172.11 236.957 168.539V155.261C236.957 151.69 234.062 148.796 230.492 148.796Z" fill="#06BCC1" stroke="#263238" stroke-linecap="round" stroke-linejoin="round"/>
<path d="M168.474 162.104L165.664 159.52L170.236 154.504C170.477 154.263 170.804 154.127 171.146 154.127C171.487 154.127 171.814 154.263 172.056 154.504L172.885 155.275C173.147 155.496 173.311 155.811 173.341 156.152C173.371 156.493 173.265 156.832 173.046 157.095L168.474 162.104Z" stroke="#263238" stroke-linecap="round" stroke-linejoin="round"/>
<path d="M166.603 163.29L164.375 163.763L164.644 161.485" stroke="#263238" stroke-linecap="round" stroke-linejoin="round"/>
<path d="M220.213 153.645H183.31C182.772 153.645 182.255 153.859 181.874 154.239C181.493 154.62 181.279 155.137 181.279 155.676C181.279 156.214 181.493 156.731 181.874 157.112C182.255 157.493 182.772 157.707 183.31 157.707H220.213C220.751 157.707 221.268 157.493 221.649 157.112C222.03 156.731 222.244 156.214 222.244 155.676C222.244 155.137 222.03 154.62 221.649 154.239C221.268 153.859 220.751 153.645 220.213 153.645Z" fill="#858585" stroke="#263238" stroke-linecap="round" stroke-linejoin="round"/>
<path d="M213.835 160.16H183.31C182.772 160.16 182.255 160.374 181.874 160.755C181.493 161.136 181.279 161.653 181.279 162.191C181.279 162.73 181.493 163.247 181.874 163.627C182.255 164.008 182.772 164.222 183.31 164.222H213.835C214.374 164.222 214.891 164.008 215.272 163.627C215.653 163.247 215.867 162.73 215.867 162.191C215.867 161.653 215.653 161.136 215.272 160.755C214.891 160.374 214.374 160.16 213.835 160.16Z" fill="#999999" stroke="#263238" stroke-linecap="round" stroke-linejoin="round"/>
<path d="M250.68 165.591C250.68 165.591 241.427 168.044 240.313 168.386C239.199 168.729 237.939 170.614 236.498 172.376C235.394 173.839 233.87 174.93 232.13 175.506C230.943 175.783 227.58 176.962 227.536 175.965C227.493 174.968 230.929 174.647 230.929 174.647L233.775 173.235C232.319 174.152 227.18 174.938 227.18 174.938C226.424 175.05 225.653 174.899 224.996 174.509C223.991 173.868 224.595 173.111 224.595 173.111C224.224 172.325 225.906 171.866 225.906 171.866L229 169.806C229 169.806 231.453 166.224 231.002 165.591C230.55 164.958 225.971 167.098 225.411 166.042C224.85 164.987 229 163.494 231.366 162.934C233.732 162.373 237.546 162.934 237.546 162.934L248.248 158.944L250.68 165.591Z" fill="white" stroke="#263238" stroke-linecap="round" stroke-linejoin="round"/>
<path d="M225.716 173.264C226.158 173.267 226.599 173.23 227.034 173.155C228.215 172.691 229.311 172.037 230.281 171.219C231.009 170.556 231.737 169.275 232.283 169.18" stroke="#263238" stroke-linecap="round" stroke-linejoin="round"/>
<path d="M226.211 174.145C226.674 174.122 227.131 174.029 227.566 173.868C228.864 173.497 230.126 173.009 231.337 172.412C232.065 171.946 233.011 170.956 233.521 171.051" stroke="#263238" stroke-linecap="round" stroke-linejoin="round"/>
<path d="M262.08 128.259C262.036 125.697 262.138 118.795 269.047 119.298C275.956 119.8 275.235 127.014 274.995 132.038C274.754 137.061 276.902 158.1 272.243 159.607L247.396 167.615L244.302 158.711L262.983 150.893C262.983 150.893 262.189 133.952 262.08 128.259Z" fill="#06BCC1"/>
<path d="M269.993 155.246C270.33 155.697 270.614 156.186 270.838 156.702" stroke="#263238" stroke-linecap="round" stroke-linejoin="round"/>
<path d="M270.816 150.368C270.816 150.368 265.807 148.84 265.058 150.776C264.49 152.232 266.965 152.392 269.025 154.22" stroke="#263238" stroke-linecap="round" stroke-linejoin="round"/>
<path d="M262.146 130.269C262.146 129.504 262.146 128.813 262.102 128.259" stroke="#263238" stroke-linecap="round" stroke-linejoin="round"/>
<path d="M269.069 119.297C275.978 119.771 275.257 127.014 275.017 132.037C274.776 137.061 276.924 158.1 272.265 159.607L247.418 167.615L244.324 158.711L263.005 150.893C263.005 150.893 262.466 139.645 262.218 132.394" stroke="#263238" stroke-linecap="round" stroke-linejoin="round"/>
<path d="M242.854 158.449L246.945 156.717L250.68 167.651L246.399 168.707L242.854 158.449Z" fill="#06BCC1"/>
<mask id="mask7_659_9399" style="mask-type:luminance" maskUnits="userSpaceOnUse" x="242" y="156" width="9" height="13">
<path d="M242.854 158.449L246.945 156.717L250.68 167.651L246.399 168.707L242.854 158.449Z" fill="white"/>
</mask>
<g mask="url(#mask7_659_9399)">
<path opacity="0.5" d="M242.854 158.449L246.945 156.717L250.68 167.651L246.399 168.707L242.854 158.449Z" fill="white"/>
</g>
<path d="M242.854 158.449L246.945 156.717L250.68 167.651L246.399 168.707L242.854 158.449Z" stroke="#263238" stroke-linecap="round" stroke-linejoin="round"/>
<path d="M195.948 174.531C195.752 173.759 195.344 171.553 196.531 171.553C197.718 171.553 197.936 172.864 197.936 172.864C197.936 172.864 197.732 171.328 198.897 171.553C200.062 171.779 200.244 173.504 200.244 173.504C200.244 173.504 200.047 172.107 201.314 172.252C202.581 172.398 201.823 175.579 203.338 175.565C203.978 175.565 203.236 173.293 204.473 173.301C205.711 173.308 205.201 175.747 207.524 175.747C208.252 175.747 205.427 176.722 203.549 176.322C203.549 176.322 202.675 177.115 200.426 175.87C200.023 176.06 199.573 176.126 199.133 176.061C198.693 175.997 198.282 175.804 197.95 175.506C197.761 175.623 197.546 175.69 197.324 175.701C197.102 175.712 196.881 175.667 196.681 175.57C196.481 175.473 196.309 175.326 196.181 175.145C196.053 174.963 195.973 174.752 195.948 174.531Z" fill="white" stroke="#263238" stroke-linecap="round" stroke-linejoin="round"/>
<path d="M197.914 173.781C197.886 174.043 197.911 174.308 197.987 174.56" stroke="#263238" stroke-linecap="round" stroke-linejoin="round"/>
<path d="M200.309 174.378C200.309 174.378 200.266 174.334 200.397 174.939" stroke="#263238" stroke-linecap="round" stroke-linejoin="round"/>
</svg>
