<svg width="342" height="342" viewBox="0 0 342 342" fill="none" xmlns="http://www.w3.org/2000/svg">
<path d="M299.182 215.412C299.182 215.412 334.127 176.137 323.019 107.799C311.911 39.4601 254.845 14.282 216.999 27.4354C179.153 40.5887 170.617 63.4822 139.707 76.5739C108.797 89.6657 50.062 80.6779 20.691 124.652C-8.67995 168.627 28.8169 241.493 76.5533 287.184C124.29 332.876 246.103 304.271 299.182 215.412Z" fill="#06BCC1"/>
<path opacity="0.7" d="M299.182 215.412C299.182 215.412 334.127 176.137 323.019 107.799C311.911 39.4601 254.845 14.282 216.999 27.4354C179.153 40.5887 170.617 63.4822 139.707 76.5739C108.797 89.6657 50.062 80.6779 20.691 124.652C-8.67995 168.627 28.8169 241.493 76.5533 287.184C124.29 332.876 246.103 304.271 299.182 215.412Z" fill="white"/>
<path d="M314.873 313.176H22.6541C22.5851 313.176 22.519 313.149 22.4703 313.1C22.4215 313.051 22.3942 312.985 22.3942 312.916C22.3942 312.882 22.4009 312.849 22.4141 312.818C22.4272 312.787 22.4465 312.758 22.4707 312.735C22.4949 312.711 22.5236 312.693 22.5551 312.68C22.5866 312.668 22.6203 312.662 22.6541 312.663H314.873C314.906 312.662 314.939 312.668 314.971 312.681C315.002 312.693 315.03 312.712 315.054 312.735C315.077 312.759 315.096 312.787 315.108 312.818C315.121 312.849 315.127 312.883 315.126 312.916C315.127 312.95 315.121 312.984 315.108 313.015C315.096 313.047 315.078 313.075 315.054 313.1C315.03 313.124 315.002 313.143 314.971 313.156C314.94 313.169 314.906 313.176 314.873 313.176Z" fill="#263238"/>
<path d="M32.5584 204.577C32.5584 204.577 30.7595 209.529 26.9291 210.206C23.0987 210.884 16.3476 203.449 20.6226 199.618C24.8976 195.788 30.78 201.875 32.5584 204.577Z" fill="#06BCC1"/>
<path d="M26.4161 210.59C23.9332 210.59 20.8757 207.991 19.6103 205.385C18.4612 203.032 18.7553 200.836 20.3969 199.365C20.9304 198.867 21.5683 198.495 22.2641 198.275C22.9598 198.055 23.696 197.993 24.4188 198.093C27.8388 198.524 31.3135 202.095 32.8457 204.386C32.8708 204.433 32.884 204.486 32.884 204.54C32.884 204.594 32.8708 204.646 32.8457 204.694C32.7704 204.899 30.9305 209.837 26.9564 210.542C26.778 210.573 26.5972 210.589 26.4161 210.59ZM23.7416 198.736C22.6694 198.737 21.6376 199.145 20.8552 199.878C18.9331 201.595 19.6376 203.88 20.2259 205.09C21.5939 207.909 24.8224 210.22 26.8675 209.878C30.0823 209.318 31.8334 205.467 32.1754 204.632C30.6706 202.443 27.4284 199.16 24.3367 198.784C24.1396 198.755 23.9408 198.739 23.7416 198.736Z" fill="#263238"/>
<path d="M38.4134 180.261C38.4134 180.261 32.7841 193.989 35.0345 200.747C37.2848 207.505 51.2453 212.457 55.3014 203.674C59.3575 194.892 50.3492 182.511 46.9703 179.81C43.5913 177.108 39.542 178.004 38.4134 180.261Z" fill="#06BCC1"/>
<path d="M47.5038 208.736H46.8198C41.5051 208.442 36.0878 204.912 34.7404 200.877C32.4695 194.078 37.8936 180.712 38.1604 180.152C38.4769 179.586 38.9157 179.099 39.4446 178.725C39.9736 178.351 40.5794 178.1 41.2178 177.99C42.277 177.789 43.3676 177.829 44.4094 178.106C45.4512 178.383 46.4175 178.89 47.237 179.591C50.657 182.327 59.7953 194.912 55.6639 203.866C54.1386 207.005 51.3 208.736 47.5038 208.736ZM38.7212 180.398C38.5366 180.87 33.2014 194.167 35.3628 200.637C36.6008 204.372 41.854 207.751 46.8266 208.031C49.0428 208.148 53.051 207.73 54.9868 203.531C58.9608 194.919 50.1098 182.758 46.7788 180.076C46.0338 179.439 45.1559 178.976 44.2092 178.722C43.2624 178.467 42.2708 178.428 41.3068 178.606C40.7709 178.697 40.2616 178.905 39.8149 179.215C39.3681 179.524 38.9948 179.928 38.7212 180.398Z" fill="#263238"/>
<path d="M71.2865 186.109C71.2865 186.109 61.601 194.892 60.4793 203.674C59.3575 212.457 65.8829 215.61 72.6339 214.482C79.385 213.353 82.764 196.246 80.712 188.367C78.66 180.487 71.2865 186.109 71.2865 186.109Z" fill="#06BCC1"/>
<path d="M70.0348 215.042C67.0252 215.042 64.4054 214.126 62.6134 212.402C60.5203 210.384 59.6585 207.347 60.1373 203.633C61.2659 194.823 70.6572 186.219 71.0813 185.849C71.2318 185.733 74.857 183.018 77.8734 184.071C79.4124 184.604 80.4931 186.027 81.0745 188.284C82.5383 193.982 81.2318 205.227 77.3467 211.192C75.9787 213.319 74.3987 214.543 72.6955 214.824C71.816 214.969 70.9261 215.042 70.0348 215.042ZM71.5054 186.376C71.1155 186.732 61.8952 195.268 60.8144 203.715C60.3698 207.217 61.1564 210.049 63.0922 211.923C65.2331 213.975 68.6941 214.803 72.5792 214.16C74.084 213.907 75.4999 212.792 76.7722 210.829C80.5615 205.001 81.8406 194.023 80.411 188.462C79.8912 186.41 78.961 185.179 77.675 184.721C75.0622 183.804 71.7242 186.212 71.5054 186.376Z" fill="#263238"/>
<path d="M73.0854 234.742C73.0854 234.742 62.2782 235.193 61.8267 240.371C61.3753 245.549 66.56 246.677 71.7379 242.177C76.9158 237.676 77.5861 234.967 73.0854 234.742Z" fill="#06BCC1"/>
<path d="M65.5751 245.337C64.8644 245.35 64.1609 245.193 63.5231 244.879C62.0114 244.113 61.2864 242.498 61.4711 240.344C61.9362 234.927 72.5998 234.42 73.0512 234.4C74.8775 234.489 75.965 234.995 76.2797 235.905C76.7653 237.314 75.3358 239.448 71.9021 242.423C69.768 244.325 67.4971 245.337 65.5751 245.337ZM73.0991 235.077C72.6476 235.077 62.5928 235.652 62.1551 240.392C61.9909 242.252 62.586 243.62 63.8309 244.256C65.7324 245.221 68.742 244.297 71.4985 241.903C75.6025 238.312 75.883 236.739 75.6709 236.117C75.4178 235.364 74.1319 235.139 73.0854 235.091L73.0991 235.077Z" fill="#263238"/>
<path d="M62.1482 241.917L61.8678 241.295C62.2166 241.137 70.4657 237.375 74.3029 236.698L74.4192 237.382C70.6709 238.032 62.244 241.883 62.1482 241.917Z" fill="#263238"/>
<path d="M75.4931 268.627C75.4931 268.627 67.5587 261.288 63.5641 264.612C59.5696 267.936 62.4287 272.41 69.2755 272.909C76.1224 273.408 78.5095 271.986 75.4931 268.627Z" fill="#06BCC1"/>
<path d="M71.7311 273.347C70.9855 273.347 70.1579 273.347 69.2482 273.251C65.2673 272.964 62.3261 271.329 61.5737 268.997C61.0538 267.389 61.6831 265.741 63.3452 264.352C67.5245 260.864 75.3973 268.073 75.7256 268.381C76.9432 269.749 77.3536 270.871 76.9295 271.733C76.4302 272.82 74.7133 273.347 71.7311 273.347ZM66.1154 264.085C65.2678 264.061 64.4396 264.342 63.783 264.879C62.3534 266.076 61.7994 267.444 62.244 268.812C62.928 270.864 65.664 272.328 69.3166 272.588C74.7886 272.984 76.0745 272.061 76.3618 271.473C76.7174 270.741 75.9719 269.667 75.2742 268.894C74.9801 268.62 69.9458 264.085 66.1154 264.085Z" fill="#263238"/>
<path d="M74.556 271.425C71.4438 269.236 62.7638 265.953 62.6749 265.953L62.9143 265.31C63.2769 265.446 71.7653 268.647 74.9459 270.891L74.556 271.425Z" fill="#263238"/>
<path d="M33.6186 266.466C33.6186 266.466 44.5626 256.336 50.0346 260.932C55.5066 265.529 51.6078 271.678 42.1686 272.369C32.7294 273.06 29.4667 271.09 33.6186 266.466Z" fill="#06BCC1"/>
<path d="M38.8786 272.84C34.8156 272.84 32.4148 272.156 31.7239 270.713C31.163 269.578 31.7239 268.073 33.3655 266.24C33.8238 265.823 44.5968 255.98 50.2603 260.693C52.5107 262.574 53.3657 264.797 52.668 266.958C51.6488 270.125 47.6406 272.341 42.2028 272.738C41.04 272.792 39.8909 272.84 38.8786 272.84ZM33.8648 266.684C32.4284 268.285 31.9154 269.53 32.3395 270.392C32.7636 271.253 34.5694 272.553 42.1754 272.006C47.2439 271.637 51.1153 269.557 52.0387 266.705C52.6406 264.824 51.8609 262.861 49.8431 261.171C44.7131 256.903 34.2684 266.342 33.8648 266.705V266.684Z" fill="#263238"/>
<path d="M34.8156 270.214L34.4257 269.66C38.7965 266.575 50.4792 262.17 50.9785 261.985L51.2179 262.621C51.0948 262.656 39.118 267.184 34.8156 270.214Z" fill="#263238"/>
<path d="M46.2931 245.556C46.2931 245.556 45.1645 250.959 41.1152 252.984C37.066 255.009 29.8566 250.734 33.687 244.188C37.5174 237.642 44.2685 242.82 46.2931 245.556Z" fill="#06BCC1"/>
<path d="M38.858 253.825C37.913 253.819 36.9788 253.623 36.1107 253.249C35.2425 252.875 34.458 252.332 33.8033 251.65C31.8949 249.598 31.7513 246.862 33.3929 244.03C34.6172 241.937 36.2383 240.816 38.1809 240.706C41.6009 240.515 45.1166 243.442 46.5393 245.351C46.5692 245.389 46.5902 245.433 46.6008 245.48C46.6115 245.528 46.6115 245.577 46.6009 245.624C46.553 245.85 45.3902 251.212 41.2383 253.285C40.4978 253.648 39.6827 253.833 38.858 253.825ZM38.5229 241.383H38.2424C36.5187 241.479 35.0823 242.485 33.9811 244.366C32.4968 246.896 32.6131 249.372 34.3026 251.206C35.9921 253.039 38.9538 253.702 40.9647 252.697C44.4531 250.953 45.7049 246.541 45.9237 245.652C44.46 243.791 41.3615 241.383 38.5229 241.383Z" fill="#263238"/>
<path d="M36.8402 228.668C36.8402 228.668 34.7882 224.16 26.9291 227.088C19.0699 230.015 15.8961 234.523 20.8483 236.096C25.8005 237.669 36.8402 228.668 36.8402 228.668Z" fill="#06BCC1"/>
<path d="M22.1411 236.623C21.6777 236.626 21.2164 236.559 20.7731 236.424C18.6458 235.74 18.1807 234.632 18.1602 233.812C18.1055 231.513 21.5118 228.75 26.8402 226.766C34.884 223.764 37.1275 228.456 37.148 228.524C37.179 228.594 37.1864 228.671 37.1691 228.745C37.1518 228.82 37.1108 228.886 37.0523 228.935C36.635 229.27 27.5652 236.623 22.1411 236.623ZM31.7513 226.438C30.1396 226.48 28.5483 226.809 27.0522 227.409C21.3408 229.53 18.7758 232.197 18.8442 233.798C18.8442 234.872 20.0207 235.467 20.9851 235.768C25.3217 237.136 34.8498 229.824 36.423 228.579C36.0194 227.977 34.7609 226.438 31.7513 226.438Z" fill="#263238"/>
<path d="M22.6883 233.463L22.2437 232.936C26.7854 229.078 34.9456 228.148 35.2944 228.148L35.3628 228.832C35.2807 228.811 27.0659 229.735 22.6883 233.463Z" fill="#263238"/>
<path d="M59.3507 174.632C59.3507 174.632 60.7187 177.778 63.4068 177.108C66.0949 176.437 66.7789 172.374 71.0608 173.503C75.3426 174.632 78.9404 179.584 78.9404 177.333C78.9404 175.083 73.5368 169.228 67.4561 169.228C61.3753 169.228 59.5764 171.684 59.3507 174.632Z" fill="#06BCC1"/>
<path d="M78.5985 178.257C78.0923 178.257 77.422 177.737 76.3412 176.889C74.9733 175.815 73.017 174.345 70.9719 173.804C68.5163 173.161 67.374 174.324 66.1839 175.548C65.4851 176.408 64.5581 177.053 63.5094 177.409C61.1496 178.004 59.5627 175.918 59.0566 174.734C59.0462 174.683 59.0462 174.629 59.0566 174.577C59.3507 170.781 62.1961 168.859 67.504 168.859C73.6121 168.859 79.3303 174.666 79.3303 177.306C79.3303 177.47 79.3303 177.99 78.9405 178.161C78.8382 178.226 78.7193 178.259 78.5985 178.257ZM69.6586 172.963C70.1626 172.969 70.6638 173.041 71.1497 173.175C73.3248 173.749 75.3084 175.261 76.7585 176.369C77.305 176.856 77.9204 177.259 78.5848 177.566C78.5848 177.566 78.5848 177.477 78.5848 177.334C78.5848 175.432 73.571 169.57 67.4424 169.57C62.5244 169.57 59.9868 171.205 59.6859 174.57C59.9047 175.029 61.1086 177.306 63.311 176.773C64.2342 176.444 65.0486 175.866 65.664 175.104C66.6695 174.085 67.7776 172.963 69.6586 172.963Z" fill="#263238"/>
<path d="M51.2521 240.946C50.9759 239.843 50.6403 238.756 50.2466 237.69C46.3615 227.314 36.9975 228.983 36.936 229.003L36.806 228.319C36.9086 228.319 46.8335 226.527 50.9238 237.437C51.3167 238.528 51.6479 239.64 51.9156 240.768L51.2521 240.946Z" fill="#263238"/>
<path d="M77.292 218.237C77.292 218.237 79.344 213.736 87.1963 216.664C95.0486 219.591 98.2292 224.092 93.2771 225.665C88.3249 227.238 77.292 218.237 77.292 218.237Z" fill="#06BCC1"/>
<path d="M91.9912 226.192C86.567 226.192 77.4972 218.846 77.08 218.504C77.0223 218.455 76.982 218.388 76.9647 218.314C76.9475 218.24 76.9543 218.163 76.9842 218.093C76.9842 218.045 79.2346 213.305 87.3263 216.342C92.6478 218.319 96.0541 221.082 95.9994 223.388C95.9994 224.201 95.5138 225.316 93.3865 225.994C92.9345 226.132 92.4638 226.199 91.9912 226.192ZM77.7366 218.148C79.3166 219.4 88.8379 226.719 93.1813 225.344C94.1389 225.036 95.2949 224.441 95.3154 223.367C95.3564 221.78 92.7983 219.099 87.1074 216.978C80.5752 214.564 78.2701 217.3 77.7366 218.148Z" fill="#263238"/>
<path d="M90.7873 223.039C87.1074 218.483 79.1935 218.873 79.1182 218.873L79.0772 218.189C79.4192 218.189 87.422 217.785 91.3208 222.608L90.7873 223.039Z" fill="#263238"/>
<path d="M70.7256 219.461L70.452 218.839C72.6217 217.885 75.0153 217.561 77.3604 217.901L77.2373 218.585C75.0275 218.282 72.7768 218.585 70.7256 219.461Z" fill="#263238"/>
<path d="M41.7582 210.398C37.1412 205.685 32.5515 204.926 32.5037 204.926C32.4558 204.926 25.6637 203.161 23.1465 205.487L22.6883 204.981C25.4995 202.402 32.3532 204.181 32.6473 204.256C32.8046 204.256 37.4695 205.056 42.2233 209.933L41.7582 210.398Z" fill="#263238"/>
<path d="M42.89 183.256L42.2225 183.405L42.6443 185.287L43.3117 185.138L42.89 183.256Z" fill="#263238"/>
<path d="M54.2754 284.763H53.5914C53.5914 284.373 54.59 245.87 53.5914 234.249C52.5927 222.628 47.9347 208.886 47.88 208.75L43.092 187.286L43.776 187.135L48.564 208.565C48.564 208.668 53.2836 222.498 54.2891 234.174C55.2945 245.85 54.2822 284.38 54.2754 284.763Z" fill="#263238"/>
<path d="M74.5031 191.522L73.6339 193.38L74.2535 193.67L75.1227 191.811L74.5031 191.522Z" fill="#263238"/>
<path d="M56.6284 284.715H55.9444C55.9444 284.359 56.3 249.215 57.6338 239.215C58.9676 229.215 64.3234 213.401 64.3781 213.223L72.6476 195.494L73.2701 195.781L64.98 213.49C64.939 213.613 59.6106 229.352 58.2836 239.297C56.9567 249.242 56.6352 284.366 56.6284 284.715Z" fill="#263238"/>
<path d="M58.6462 284.783L57.9622 284.742C59.2891 262.115 61.6352 241.773 61.6626 241.568L62.3466 241.65C62.3261 241.848 59.98 262.177 58.6462 284.783Z" fill="#263238"/>
<path d="M50.9101 284.722H50.2261C50.2261 284.394 50.9101 252.389 49.5421 248.114C49.0838 246.63 48.4682 245.741 47.7569 245.536C47.5376 245.482 47.309 245.481 47.0892 245.532C46.8695 245.583 46.6647 245.685 46.4915 245.83L46.4094 245.891H46.3068C46.2452 245.891 40.2124 246.65 38.0988 250.077L37.5174 249.715C39.7062 246.213 45.3287 245.337 46.1563 245.228C46.413 245.035 46.7098 244.902 47.0247 244.839C47.3397 244.776 47.6647 244.785 47.9758 244.865C48.9334 245.139 49.6858 246.165 50.2261 247.902C51.5668 252.273 50.9375 283.395 50.9101 284.722Z" fill="#263238"/>
<path d="M52.5928 284.763L51.9088 284.729C51.9088 284.414 53.5093 253.155 51.7788 243.442L52.4628 243.326C54.2002 253.114 52.6065 284.448 52.5928 284.763Z" fill="#263238"/>
<path d="M59.6448 284.763C59.6448 282.847 59.2344 237.724 63.2426 227.019C64.211 224.167 66.0449 221.687 68.4889 219.926L68.872 220.487C66.5469 222.172 64.8042 224.538 63.8856 227.259C59.9184 237.847 60.3288 284.291 60.3288 284.756L59.6448 284.763Z" fill="#263238"/>
<path d="M55.616 284.756L54.932 284.667C55.8896 277.704 53.9676 237.41 48.564 221.869C47.3281 218.147 45.4124 214.687 42.9142 211.664L43.434 211.219C45.9859 214.297 47.9435 217.823 49.207 221.616C54.6448 237.266 56.5668 277.779 55.616 284.756Z" fill="#263238"/>
<path d="M56.6284 284.715H55.9444C55.9444 284.325 56.1838 245.234 56.5052 225.925H57.1892C56.8678 245.241 56.6352 284.325 56.6284 284.715Z" fill="#263238"/>
<path d="M57.2303 223.504H56.5463C56.813 207.929 57.0661 197.04 57.2918 191.144C57.8801 175.877 58.7351 174.564 59.0976 174.352C59.4533 173.538 61.2317 170.412 67.6134 170.822L67.5723 171.506C60.9512 171.082 59.7269 174.598 59.679 174.748L59.508 175.261L59.378 175.131C59.0976 175.877 58.4478 178.907 58.01 191.171C57.7501 197.047 57.497 207.936 57.2303 223.504Z" fill="#263238"/>
<path d="M48.2767 238.244C48.2767 238.244 42.6474 233.223 44.8978 230.754C47.1481 228.285 61.1086 226.479 65.1578 229.687C69.2071 232.895 60.192 237.423 56.8267 238.408C53.4614 239.393 49.3985 239.065 48.2767 238.244Z" fill="#06BCC1"/>
<path d="M52.3602 239.352C50.4382 239.352 48.776 239.037 48.0715 238.517C47.9142 238.381 44.1933 235.029 44.0565 232.361C44.0295 232.035 44.0703 231.707 44.1762 231.398C44.2822 231.088 44.451 230.804 44.672 230.562C47.1071 227.888 61.177 226.11 65.3972 229.454C65.8105 229.721 66.1364 230.102 66.3346 230.552C66.5328 231.002 66.5946 231.501 66.5122 231.985C65.9239 235.002 59.5217 238.018 56.9362 238.77C55.4454 239.176 53.9052 239.372 52.3602 239.352ZM48.4888 237.984C49.5079 238.709 53.393 239.065 56.6968 238.086C59.6106 237.238 65.2878 234.338 65.7803 231.828C65.8437 231.471 65.8017 231.104 65.6596 230.771C65.5174 230.439 65.2813 230.154 64.98 229.954C61.1428 226.917 47.3328 228.634 45.185 230.987C45.0265 231.162 44.9053 231.367 44.8289 231.591C44.7524 231.814 44.7223 232.051 44.7405 232.286C44.8294 234.612 48.2562 237.765 48.4888 237.977V237.984Z" fill="#263238"/>
<path d="M53.6871 235.631H53.0031C53.0087 235.113 53.0522 234.596 53.1331 234.085L53.8171 234.188C53.7365 234.665 53.693 235.147 53.6871 235.631Z" fill="#263238"/>
<path d="M54.2891 232.101L53.6051 231.903C53.9947 230.605 54.4864 229.341 55.0757 228.121L55.6844 228.428C55.1277 229.616 54.6612 230.844 54.2891 232.101Z" fill="#263238"/>
<path d="M48.2767 271.062C48.2767 271.062 42.6474 266.042 44.8978 263.579C47.1481 261.117 61.1086 259.298 65.1578 262.506C69.2071 265.713 60.192 270.242 56.8267 271.227C53.4614 272.211 49.3985 271.89 48.2767 271.062Z" fill="#06BCC1"/>
<path d="M52.3602 272.17C50.4382 272.17 48.776 271.856 48.0715 271.343C47.9142 271.199 44.1933 267.847 44.0565 265.187C44.0295 264.86 44.0703 264.532 44.1762 264.223C44.2822 263.913 44.451 263.629 44.672 263.388C47.1071 260.713 61.177 258.935 65.3972 262.28C65.8099 262.547 66.1353 262.928 66.3334 263.378C66.5315 263.828 66.5937 264.326 66.5122 264.81C65.9239 267.827 59.5217 270.85 56.9362 271.596C55.445 271.999 53.9048 272.193 52.3602 272.17ZM48.4888 270.802C49.5079 271.527 53.393 271.883 56.6968 270.905C59.6106 270.057 65.2878 267.156 65.7803 264.646C65.8437 264.29 65.8017 263.923 65.6596 263.59C65.5174 263.257 65.2813 262.973 64.98 262.772C61.1428 259.735 47.3328 261.452 45.185 263.805C45.0265 263.98 44.9053 264.185 44.8289 264.409C44.7524 264.632 44.7223 264.869 44.7405 265.104C44.8294 267.444 48.2562 270.583 48.4888 270.795V270.802Z" fill="#263238"/>
<path d="M53.6871 268.456H53.0031C53.0031 265.173 55.0141 261.11 55.103 260.932L55.7118 261.24C55.6913 261.288 53.6871 265.337 53.6871 268.456Z" fill="#263238"/>
<path d="M52.4628 257.184C52.4628 257.184 48.6392 253.764 50.1714 252.102C51.7035 250.44 61.1769 249.195 63.9266 251.377C66.6763 253.559 60.5682 256.623 58.2699 257.293C55.9717 257.964 53.2289 257.745 52.4628 257.184Z" fill="#06BCC1"/>
<path d="M55.233 258.053C54.208 258.124 53.1828 257.918 52.2645 257.457C52.155 257.362 49.5969 255.057 49.5285 253.189C49.5099 252.954 49.5398 252.717 49.6163 252.494C49.6928 252.27 49.8142 252.065 49.9731 251.89C51.642 250.057 61.3001 248.832 64.1934 251.124C64.4913 251.318 64.7258 251.595 64.8681 251.92C65.0103 252.246 65.054 252.606 64.9937 252.957C64.5559 255.166 59.9595 257.198 58.4205 257.642C57.3829 257.93 56.3096 258.068 55.233 258.053ZM52.668 256.917C53.352 257.382 55.9717 257.601 58.14 256.965C60.0415 256.411 63.913 254.441 64.2276 252.799C64.2612 252.574 64.2271 252.344 64.1297 252.138C64.0323 251.933 63.8759 251.76 63.6804 251.643C61.1017 249.591 51.8335 250.747 50.3903 252.327C50.2924 252.436 50.2176 252.564 50.1706 252.703C50.1235 252.842 50.1052 252.989 50.1167 253.135C50.2193 254.448 51.984 256.295 52.668 256.917Z" fill="#263238"/>
<path d="M56.2521 255.412H55.5681C55.5681 253.155 56.9361 250.378 57.0045 250.262L57.6133 250.57C57.6133 250.57 56.2521 253.319 56.2521 255.412Z" fill="#263238"/>
<path d="M62.415 279.133H47.1755V312.923H62.415V279.133Z" fill="#263238"/>
<path d="M62.415 313.272H47.196C47.1053 313.272 47.0183 313.236 46.9542 313.172C46.89 313.108 46.854 313.021 46.854 312.93V279.134C46.854 279.043 46.89 278.956 46.9542 278.892C47.0183 278.828 47.1053 278.792 47.196 278.792H62.415C62.5057 278.792 62.5927 278.828 62.6568 278.892C62.721 278.956 62.757 279.043 62.757 279.134V312.916C62.7588 312.962 62.7514 313.008 62.735 313.051C62.7186 313.094 62.6937 313.134 62.6618 313.167C62.6299 313.2 62.5915 313.227 62.5491 313.245C62.5067 313.263 62.4611 313.272 62.415 313.272ZM47.5175 312.588H62.073V279.476H47.5175V312.588Z" fill="#263238"/>
<path d="M109.303 157.245H40.6707C40.6368 157.245 40.6034 157.238 40.5722 157.225C40.541 157.212 40.5128 157.193 40.4892 157.168C40.4656 157.144 40.4471 157.115 40.4348 157.084C40.4225 157.052 40.4167 157.019 40.4176 156.985V71.6217C40.4167 71.5879 40.4225 71.5543 40.4348 71.5228C40.4471 71.4913 40.4656 71.4626 40.4892 71.4383C40.5128 71.4141 40.541 71.3949 40.5722 71.3817C40.6034 71.3686 40.6368 71.3618 40.6707 71.3618H109.303C109.337 71.3618 109.37 71.3686 109.402 71.3817C109.433 71.3949 109.461 71.4141 109.485 71.4383C109.508 71.4626 109.527 71.4913 109.539 71.5228C109.551 71.5543 109.557 71.5879 109.556 71.6217V156.985C109.557 157.019 109.551 157.052 109.539 157.084C109.527 157.115 109.508 157.144 109.485 157.168C109.461 157.193 109.433 157.212 109.402 157.225C109.37 157.238 109.337 157.245 109.303 157.245ZM40.9032 156.732H109.016V71.8748H40.9306L40.9032 156.732Z" fill="#263238"/>
<path d="M105.767 152.847H44.2069C44.1392 152.845 44.0748 152.817 44.0276 152.768C43.9803 152.72 43.9538 152.655 43.9539 152.587V76.0198C43.9539 75.9527 43.9805 75.8883 44.028 75.8408C44.0754 75.7934 44.1398 75.7667 44.2069 75.7667H105.767C105.8 75.7658 105.834 75.7717 105.865 75.784C105.896 75.7964 105.924 75.815 105.948 75.8387C105.972 75.8624 105.99 75.8907 106.003 75.9218C106.015 75.953 106.021 75.9863 106.02 76.0198V152.587C106.021 152.621 106.015 152.654 106.003 152.686C105.99 152.717 105.972 152.746 105.948 152.77C105.925 152.794 105.897 152.814 105.865 152.827C105.834 152.84 105.801 152.847 105.767 152.847ZM44.46 152.334H105.5V76.2797H44.46V152.334Z" fill="#263238"/>
<path d="M88.749 131.677H61.2249C61.1916 131.677 61.1587 131.67 61.128 131.658C61.0973 131.645 61.0694 131.626 61.0459 131.603C61.0224 131.579 61.0038 131.551 60.991 131.521C60.9783 131.49 60.9718 131.457 60.9718 131.424V97.2238C60.9709 97.19 60.9767 97.1563 60.989 97.1248C61.0013 97.0933 61.0198 97.0646 61.0434 97.0404C61.067 97.0162 61.0952 96.9969 61.1264 96.9838C61.1576 96.9706 61.191 96.9639 61.2249 96.9639H88.749C88.8179 96.9639 88.8841 96.9913 88.9328 97.04C88.9816 97.0887 89.0089 97.1549 89.0089 97.2238V131.424C89.0072 131.492 88.979 131.556 88.9304 131.603C88.8819 131.65 88.8168 131.677 88.749 131.677ZM61.4848 131.164H88.4959V97.4427H61.4848V131.164Z" fill="#263238"/>
<path d="M296.753 162.655H261.972C261.938 162.655 261.905 162.649 261.874 162.636C261.842 162.622 261.814 162.603 261.791 162.579C261.767 162.555 261.749 162.526 261.736 162.494C261.724 162.463 261.718 162.429 261.719 162.396V119.091C261.718 119.058 261.724 119.024 261.736 118.993C261.749 118.961 261.767 118.932 261.791 118.908C261.814 118.884 261.842 118.865 261.874 118.851C261.905 118.838 261.938 118.832 261.972 118.832H296.788C296.857 118.832 296.923 118.859 296.971 118.908C297.02 118.956 297.048 119.023 297.048 119.091V162.396C297.048 162.433 297.04 162.47 297.025 162.504C297.01 162.538 296.988 162.568 296.96 162.593C296.932 162.617 296.899 162.636 296.863 162.646C296.828 162.657 296.79 162.66 296.753 162.655ZM262.198 162.142H296.5V119.345H262.198V162.142Z" fill="#263238"/>
<path d="M294.961 160.418H263.73C263.663 160.417 263.6 160.389 263.553 160.342C263.506 160.295 263.479 160.232 263.477 160.165V121.321C263.479 121.254 263.506 121.191 263.553 121.144C263.6 121.097 263.663 121.07 263.73 121.068H294.961C295.028 121.068 295.093 121.095 295.14 121.142C295.188 121.189 295.214 121.254 295.214 121.321V160.165C295.214 160.232 295.188 160.297 295.14 160.344C295.093 160.392 295.028 160.418 294.961 160.418ZM264.024 159.905H294.736V121.601H264.024V159.905Z" fill="#263238"/>
<path d="M286.329 149.68H272.369C272.335 149.681 272.301 149.675 272.27 149.662C272.238 149.65 272.21 149.632 272.185 149.608C272.161 149.584 272.142 149.556 272.129 149.525C272.116 149.494 272.109 149.46 272.109 149.427V132.06C272.109 132.026 272.116 131.993 272.129 131.961C272.142 131.93 272.161 131.902 272.185 131.878C272.21 131.855 272.238 131.836 272.27 131.824C272.301 131.812 272.335 131.806 272.369 131.807H286.329C286.396 131.807 286.461 131.833 286.508 131.881C286.556 131.928 286.582 131.993 286.582 132.06V149.427C286.582 149.46 286.576 149.493 286.563 149.523C286.55 149.554 286.532 149.582 286.508 149.606C286.485 149.629 286.457 149.648 286.426 149.66C286.395 149.673 286.362 149.68 286.329 149.68ZM272.649 149.167H286.097V132.32H272.622L272.649 149.167Z" fill="#263238"/>
<path d="M325.584 136.937H302.006C301.939 136.935 301.874 136.907 301.827 136.858C301.78 136.81 301.753 136.745 301.753 136.677V107.388C301.753 107.32 301.78 107.255 301.827 107.206C301.874 107.158 301.939 107.13 302.006 107.128H325.584C325.653 107.128 325.719 107.155 325.768 107.204C325.817 107.253 325.844 107.319 325.844 107.388V136.684C325.842 136.751 325.814 136.816 325.765 136.863C325.717 136.91 325.652 136.937 325.584 136.937ZM302.287 136.424H325.31V107.634H302.266L302.287 136.424Z" fill="#263238"/>
<path d="M324.353 135.432H303.224C303.156 135.432 303.091 135.406 303.043 135.358C302.994 135.311 302.966 135.247 302.964 135.179V108.886C302.966 108.818 302.994 108.754 303.043 108.706C303.091 108.659 303.156 108.633 303.224 108.633H324.353C324.386 108.633 324.419 108.639 324.45 108.652C324.48 108.665 324.508 108.683 324.532 108.707C324.555 108.73 324.574 108.758 324.587 108.789C324.599 108.82 324.606 108.853 324.606 108.886V135.172C324.607 135.206 324.601 135.239 324.589 135.271C324.576 135.302 324.558 135.331 324.534 135.355C324.511 135.38 324.482 135.399 324.451 135.412C324.42 135.425 324.387 135.432 324.353 135.432ZM303.477 134.919H324.093V109.146H303.477V134.919Z" fill="#263238"/>
<path d="M318.511 128.161H309.065C308.996 128.161 308.93 128.134 308.882 128.085C308.833 128.036 308.805 127.97 308.805 127.901V116.15C308.807 116.082 308.835 116.018 308.884 115.971C308.933 115.923 308.998 115.897 309.065 115.897H318.511C318.579 115.897 318.643 115.924 318.69 115.971C318.738 116.019 318.765 116.083 318.765 116.15V127.908C318.765 127.975 318.738 128.04 318.69 128.087C318.643 128.134 318.579 128.161 318.511 128.161ZM309.318 127.648H318.252V116.41H309.318V127.648Z" fill="#263238"/>
<path d="M161.357 122.834C162.643 121.954 163.698 120.778 164.432 119.403C165.165 118.029 165.557 116.498 165.572 114.94C165.468 112.307 164.349 109.816 162.45 107.99C160.55 106.163 158.017 105.143 155.382 105.143C152.746 105.143 150.213 106.163 148.314 107.99C146.414 109.816 145.295 112.307 145.191 114.94C145.188 116.817 145.737 118.654 146.77 120.221C141.844 122.052 138.363 126.465 138.363 131.627C138.363 136.608 141.6 140.886 146.257 142.828C145.208 143.55 144.349 144.515 143.754 145.64C143.159 146.766 142.845 148.019 142.839 149.292C142.953 151.454 143.893 153.489 145.463 154.979C147.034 156.469 149.116 157.299 151.281 157.299C153.446 157.299 155.528 156.469 157.098 154.979C158.669 153.489 159.608 151.454 159.723 149.292C159.717 148.102 159.442 146.929 158.919 145.86C158.395 144.791 157.636 143.854 156.7 143.12C161.759 141.344 165.383 136.876 165.383 131.627C165.372 129.96 165.008 128.314 164.314 126.798C163.62 125.282 162.612 123.931 161.357 122.834Z" fill="#263238"/>
<path d="M151.3 157.707C149.012 157.747 146.801 156.882 145.147 155.301C143.492 153.719 142.53 151.549 142.468 149.261C142.47 148.038 142.745 146.831 143.272 145.728C143.799 144.625 144.565 143.653 145.515 142.883C143.318 141.911 141.445 140.332 140.114 138.333C138.783 136.334 138.05 133.997 138 131.595C138 126.551 141.213 122.044 146.217 119.992C145.289 118.459 144.798 116.701 144.796 114.909C144.902 112.172 146.063 109.583 148.037 107.684C150.01 105.785 152.643 104.725 155.381 104.725C158.12 104.725 160.752 105.785 162.726 107.684C164.699 109.583 165.861 112.172 165.966 114.909C165.954 116.452 165.588 117.972 164.895 119.352C164.203 120.731 163.203 121.933 161.972 122.865C163.164 123.987 164.116 125.339 164.768 126.84C165.421 128.341 165.762 129.959 165.769 131.595C165.769 136.608 162.47 141.21 157.489 143.222C158.321 143.993 158.986 144.927 159.443 145.966C159.899 147.005 160.137 148.126 160.141 149.261C160.079 151.55 159.115 153.722 157.459 155.304C155.804 156.886 153.59 157.749 151.3 157.707ZM155.381 105.5C152.833 105.449 150.369 106.411 148.53 108.175C146.69 109.939 145.626 112.361 145.57 114.909C145.583 116.714 146.132 118.476 147.148 119.968L147.425 120.379L146.959 120.56C142.01 122.4 138.805 126.733 138.805 131.611C138.866 133.97 139.625 136.258 140.985 138.187C142.344 140.116 144.245 141.599 146.446 142.449L147.101 142.725L146.525 143.136C145.526 143.819 144.707 144.735 144.141 145.805C143.574 146.875 143.276 148.066 143.273 149.277C143.385 151.335 144.281 153.273 145.778 154.691C147.275 156.109 149.258 156.899 151.32 156.899C153.382 156.899 155.365 156.109 156.862 154.691C158.359 153.273 159.256 151.335 159.367 149.277C159.361 148.146 159.099 147.031 158.601 146.016C158.104 145 157.384 144.11 156.494 143.412L155.942 142.97L156.613 142.733C161.704 140.941 164.995 136.576 164.995 131.611C164.985 130.005 164.633 128.419 163.963 126.959C163.294 125.499 162.322 124.198 161.112 123.142L160.741 122.81L161.151 122.526C162.385 121.675 163.395 120.541 164.099 119.218C164.802 117.895 165.177 116.423 165.193 114.924C165.141 112.374 164.078 109.948 162.238 108.181C160.398 106.413 157.932 105.449 155.381 105.5Z" fill="#263238"/>
<path d="M159.335 257.653L158.254 305.803C158.254 305.803 155.026 310.263 153.644 312.726C152.263 315.188 151.639 317.959 152.105 319.49C152.571 321.022 156.257 321.495 158.42 320.106C160.582 318.717 162.414 310.879 162.879 309.189C163.345 307.5 163.953 303.498 163.953 303.498L171.957 259.5L159.335 257.653Z" fill="white"/>
<path d="M155.326 321.329C154.627 321.336 153.933 321.221 153.273 320.99C152.919 320.903 152.59 320.733 152.315 320.492C152.04 320.252 151.828 319.949 151.695 319.609C151.19 317.935 151.821 315.094 153.273 312.505C154.552 310.231 157.346 306.34 157.844 305.645L158.925 257.18L172.407 259.145L164.332 303.546C164.332 303.696 163.716 307.571 163.251 309.268C163.203 309.434 163.148 309.655 163.077 309.923C161.972 314.194 160.456 319.238 158.625 320.414C157.634 321.026 156.49 321.343 155.326 321.329ZM159.714 258.111L158.649 305.937L158.578 306.032C158.578 306.079 155.341 310.508 153.984 312.915C152.626 315.323 152.042 317.927 152.484 319.38C152.583 319.596 152.73 319.787 152.913 319.939C153.096 320.091 153.311 320.199 153.542 320.256C154.309 320.506 155.119 320.592 155.921 320.509C156.724 320.427 157.5 320.176 158.199 319.774C160.006 318.614 161.743 311.944 162.311 309.75C162.382 309.474 162.446 309.252 162.493 309.087C162.943 307.429 163.551 303.475 163.559 303.435L171.452 259.832L159.714 258.111Z" fill="#263238"/>
<path d="M159.028 314.399C154.869 315.188 154.292 312.615 154.292 311.668C154.063 312.039 153.85 312.394 153.677 312.71C152.287 315.172 151.672 317.943 152.137 319.474C152.603 321.006 156.289 321.479 158.452 320.09C160.615 318.701 162.446 310.863 162.912 309.173C162.872 309.189 161.357 314.004 159.028 314.399Z" fill="#263238"/>
<path d="M155.326 321.33C154.627 321.336 153.933 321.221 153.273 320.99C152.919 320.904 152.59 320.733 152.315 320.492C152.04 320.252 151.828 319.949 151.695 319.609C151.19 317.935 151.821 315.094 153.273 312.505C153.455 312.189 153.668 311.826 153.905 311.455L154.552 310.405L154.631 311.636C154.643 312.003 154.731 312.363 154.89 312.693C155.049 313.024 155.275 313.317 155.555 313.555C156.289 314.131 157.425 314.281 158.933 314.005C160.614 313.697 162.09 310.318 162.469 309.04L163.259 309.268C163.211 309.434 163.156 309.655 163.085 309.924C161.98 314.194 160.464 319.238 158.633 320.414C157.64 321.027 156.493 321.345 155.326 321.33ZM154.079 312.757L153.984 312.915C152.666 315.283 152.042 317.928 152.484 319.38C152.583 319.596 152.73 319.787 152.913 319.939C153.096 320.091 153.311 320.199 153.542 320.256C154.309 320.506 155.119 320.593 155.921 320.51C156.724 320.427 157.5 320.176 158.199 319.775C159.407 318.985 160.567 315.757 161.404 313.042C160.883 313.898 160.061 314.528 159.099 314.81C157.354 315.125 156.012 314.92 155.097 314.202C154.623 313.83 154.269 313.328 154.079 312.757Z" fill="#263238"/>
<path d="M194.958 311.281L189.433 260.36L201.155 260.021L200.776 307.634C200.776 307.634 205.441 311.502 207.035 312.528C208.63 313.554 212.387 316.854 212.387 317.761C212.387 318.669 209.537 319.127 206.238 318.551C202.939 317.974 197.461 316.056 196.087 315.188C194.714 314.32 195.069 313.444 194.958 311.281Z" fill="white"/>
<path d="M209.025 319.206C208.064 319.2 207.106 319.115 206.16 318.954C202.86 318.385 197.303 316.428 195.898 315.473C194.643 314.636 194.635 313.815 194.619 312.457C194.619 312.118 194.619 311.747 194.619 311.313L189.031 260.006L201.589 259.643L201.21 307.485C202 308.14 205.891 311.329 207.288 312.221C208.472 313.01 212.814 316.507 212.814 317.785C212.812 317.926 212.777 318.064 212.713 318.188C212.648 318.313 212.556 318.421 212.443 318.504C211.874 318.954 210.572 319.206 209.025 319.206ZM189.852 260.724L195.377 311.242C195.377 311.692 195.377 312.086 195.377 312.434C195.377 313.712 195.377 314.194 196.309 314.802C197.643 315.694 203.128 317.612 206.286 318.156C208.977 318.622 211.282 318.37 211.882 317.864C211.937 317.817 211.969 317.778 211.969 317.746C211.914 317.083 208.535 313.965 206.799 312.844C205.22 311.818 200.697 308.108 200.484 307.927L200.342 307.808L200.713 260.408L189.852 260.724Z" fill="#263238"/>
<path d="M198.029 311.62C196.874 310.767 195.765 309.852 194.706 308.881L194.959 311.249C195.069 313.412 194.73 314.209 196.095 315.117C197.461 316.025 202.923 317.959 206.223 318.527C209.522 319.095 212.372 318.645 212.372 317.738C212.372 316.83 208.614 313.531 207.02 312.504L203.381 314.438C201.5 313.696 199.705 312.751 198.029 311.62Z" fill="#263238"/>
<path d="M209.025 319.206C208.064 319.2 207.106 319.115 206.16 318.954C202.86 318.385 197.303 316.428 195.898 315.473C194.643 314.636 194.635 313.815 194.619 312.457C194.619 312.118 194.619 311.739 194.619 311.297L194.256 307.895L195.046 308.59C196.091 309.553 197.19 310.457 198.337 311.297C199.932 312.39 201.642 313.306 203.436 314.028L207.123 312.071L207.312 312.197C208.496 312.986 212.837 316.483 212.837 317.762C212.835 317.902 212.801 318.04 212.736 318.164C212.672 318.289 212.58 318.397 212.466 318.48C211.874 318.954 210.572 319.206 209.025 319.206ZM195.204 309.853L195.353 311.234C195.353 311.708 195.353 312.102 195.353 312.45C195.353 313.728 195.353 314.21 196.285 314.818C197.619 315.709 203.105 317.628 206.262 318.172C208.954 318.638 211.259 318.385 211.859 317.88C211.914 317.833 211.945 317.793 211.945 317.762C211.898 317.122 208.788 314.194 206.965 312.986L203.373 314.896L203.207 314.833C201.294 314.073 199.47 313.104 197.769 311.944C197.035 311.392 196.167 310.697 195.204 309.853Z" fill="#263238"/>
<path d="M171.231 177.496C171.231 177.496 161.491 191.625 159.581 198.121C157.67 204.618 159.004 259.982 159.004 259.982C159.004 259.982 175.581 262.658 183.474 262.468C189.546 262.193 195.6 261.61 201.613 260.724C201.613 260.724 203.137 247.55 203.523 239.341C203.91 231.132 208.867 209.346 206.389 197.908C203.91 186.471 196.917 176.383 196.917 176.383L171.231 177.496Z" fill="#263238"/>
<path d="M182.622 262.871C174.562 262.871 159.107 260.4 158.941 260.377L158.618 260.321V259.998C158.562 257.732 157.307 204.483 159.21 198.011C161.112 191.538 170.513 177.851 170.908 177.275L171.018 177.109L197.13 176.004L197.248 176.185C197.319 176.28 204.281 186.447 206.72 197.845C208.465 205.865 206.625 218.565 205.141 228.763C204.51 233.121 203.965 236.886 203.855 239.38C203.476 247.51 201.953 260.692 201.937 260.795V261.095L201.637 261.142C201.534 261.142 191.21 262.674 183.482 262.863L182.622 262.871ZM159.391 259.642C161.759 260.013 176.346 262.239 183.435 262.074C189.389 261.813 195.327 261.254 201.226 260.4C201.463 258.387 202.758 246.76 203.105 239.349C203.223 236.815 203.768 233.034 204.4 228.653C205.789 219.047 207.683 205.896 205.978 198.011C203.721 187.591 197.651 178.214 196.711 176.809L171.452 177.883C170.363 179.461 161.728 192.249 159.968 198.232C158.199 204.333 159.289 255.048 159.391 259.642Z" fill="#263238"/>
<path d="M226.012 118.319C226.012 118.319 225.262 151.542 225.088 153.452C224.914 155.363 198.653 151.542 198.653 151.542C198.653 151.542 198.653 163.382 198.306 166.492C197.958 169.602 197.611 172.057 197.611 173.273C197.655 174.367 197.416 175.455 196.916 176.43C196.395 177.472 194.312 179.382 185.96 180.779C177.609 182.176 172.747 179.556 172.052 178.688C171.358 177.819 170.829 173.975 170.829 173.975L164.609 158.978L156.494 174.449L154.126 187.923L152.232 202.96C152.48 203.645 152.797 204.304 153.179 204.925C153.968 206.212 156.431 208.919 156.565 209.393C156.684 210.269 156.729 211.154 156.7 212.037C156.7 212.779 156.7 216.773 156.565 217.389C156.431 218.005 155.823 216.773 155.823 216.773C155.681 217.285 155.451 217.768 155.145 218.202C154.742 218.676 154.466 217.523 154.466 217.523C154.063 218.81 153.795 218.541 153.59 218.676C153.384 218.81 153.045 216.102 153.045 216.102C153.045 216.102 152.911 216.844 152.776 217.523C152.76 217.703 152.69 217.874 152.576 218.015C152.463 218.155 152.31 218.259 152.137 218.312C151.443 217.76 151.719 212.913 151.719 212.913C151.719 212.913 149.777 211.106 149.082 210.419C148.388 209.732 147.559 206.117 147.559 206.117C147.559 206.117 146.454 175.909 146.454 175.214C146.454 174.52 156.715 145.148 156.715 144.178C156.715 143.207 170.576 138.076 170.576 138.076L186.789 134.611C186.789 134.611 196.806 133.727 197.761 134.208C198.716 134.69 216.429 141.802 216.429 141.802L221.631 115.675C221.631 115.675 221.994 110.654 222.349 110.149C223.165 108.909 223.847 107.586 224.385 106.202C224.504 105.484 224.741 103.692 225.459 103.929C226.177 104.166 226.659 105.366 226.532 106.297C226.406 107.229 225.341 108.926 225.341 109.407C225.341 109.889 232.042 107.971 231.561 110.986C231.079 114.001 230.724 116.251 230.124 116.724C229.524 117.198 226.012 118.319 226.012 118.319Z" fill="white"/>
<path d="M153.62 219.133L153.392 219.039C153.257 218.976 153.123 218.912 152.957 218.123C152.872 218.267 152.758 218.392 152.623 218.49C152.487 218.588 152.332 218.657 152.168 218.691L151.987 218.731L151.837 218.612C151.102 218.02 151.181 214.666 151.268 213.087C150.81 212.661 149.35 211.303 148.758 210.719C148.024 209.985 147.274 206.851 147.132 206.236C147.077 204.925 146.011 175.933 146.011 175.238C146.011 174.907 147.022 171.868 150.518 161.591C153.044 154.139 156.194 144.864 156.265 144.186C156.265 143.893 156.265 142.954 170.378 137.729L186.646 134.248C189.07 134.035 196.908 133.387 197.879 133.877C198.731 134.303 213.334 140.191 216.081 141.281L221.188 115.619C221.322 113.749 221.606 110.457 221.977 109.96C222.755 108.771 223.411 107.507 223.935 106.187V106.037C224.101 105.026 224.306 104.008 224.858 103.669C224.955 103.611 225.063 103.576 225.174 103.563C225.286 103.551 225.399 103.563 225.506 103.598C226.461 103.921 226.982 105.342 226.848 106.416C226.681 107.125 226.415 107.808 226.058 108.444C225.948 108.665 225.821 108.941 225.727 109.155L226.516 109.076C228.095 108.91 230.463 108.649 231.449 109.652C231.628 109.842 231.757 110.073 231.825 110.325C231.892 110.578 231.896 110.842 231.836 111.096V111.183C231.276 114.688 230.944 116.543 230.258 117.08C228.997 117.734 227.675 118.262 226.311 118.658C226.232 122.108 225.522 151.708 225.387 153.539C225.379 153.629 225.352 153.715 225.307 153.793C225.262 153.871 225.2 153.938 225.127 153.989C223.296 155.442 203.941 152.766 198.96 152.047C198.96 154.281 198.96 163.785 198.613 166.587C198.51 167.495 198.416 168.339 198.321 169.113C198.1 170.999 197.918 172.483 197.918 173.32C197.958 174.467 197.705 175.605 197.184 176.627C196.513 177.969 194.027 179.84 185.944 181.19C177.624 182.579 172.525 180.006 171.657 178.964C170.939 178.064 170.449 174.709 170.362 174.125L164.49 159.98L156.786 174.623L154.418 188.041L152.531 202.968C152.773 203.596 153.072 204.201 153.423 204.775C154.029 205.693 154.696 206.568 155.42 207.396C155.978 207.974 156.456 208.625 156.841 209.33C156.98 210.241 157.03 211.164 156.991 212.085C156.991 214.263 156.991 216.979 156.849 217.523C156.835 217.641 156.782 217.752 156.7 217.837C156.617 217.923 156.509 217.979 156.391 217.997C156.304 217.997 156.099 217.997 155.815 217.705C155.693 217.988 155.533 218.253 155.341 218.494C155.271 218.592 155.174 218.666 155.061 218.708C154.949 218.75 154.827 218.758 154.71 218.731C154.586 218.696 154.474 218.628 154.386 218.534C154.32 218.665 154.224 218.78 154.106 218.869C153.989 218.958 153.852 219.019 153.707 219.047L153.62 219.133ZM153.107 213.498L153.431 216.055C153.526 216.805 153.66 217.634 153.77 218.139C153.907 217.909 154.013 217.662 154.086 217.405L154.512 216.039L154.844 217.428C154.871 217.547 154.908 217.663 154.954 217.776C155.158 217.428 155.319 217.057 155.436 216.671L155.712 215.7L156.17 216.6L156.225 216.718C156.265 216.063 156.296 214.737 156.296 212.037C156.321 211.191 156.282 210.344 156.178 209.503C155.786 208.93 155.361 208.379 154.907 207.854C154.157 206.989 153.463 206.077 152.831 205.123C152.447 204.483 152.129 203.806 151.884 203.102V203.023L153.794 187.907L156.21 174.291L164.663 158.11L171.231 173.896C171.42 175.333 171.902 177.843 172.359 178.396C173.015 179.185 177.885 181.679 185.897 180.337C194.366 178.932 196.158 176.983 196.561 176.209C197.032 175.296 197.258 174.276 197.216 173.249C197.216 172.365 197.397 170.881 197.626 168.947C197.713 168.158 197.816 167.329 197.918 166.429C198.258 163.359 198.258 151.637 198.258 151.519V151.061L198.716 151.132C210.627 152.86 223.501 154.147 224.701 153.326C224.874 150.832 225.608 118.595 225.616 118.287V118.003L225.893 117.916C227.248 117.526 228.569 117.022 229.839 116.409C230.313 116.03 230.723 113.472 231.118 111.002V110.915C231.158 110.779 231.162 110.635 231.13 110.496C231.098 110.358 231.032 110.231 230.936 110.125C230.25 109.399 227.913 109.66 226.658 109.794C225.577 109.912 225.253 109.936 225.04 109.739L224.906 109.62V109.407C224.987 108.922 225.158 108.456 225.411 108.034C225.715 107.47 225.949 106.871 226.106 106.25C226.208 105.46 225.798 104.442 225.316 104.276C225.229 104.324 225.016 104.624 224.78 106.092V106.242C224.233 107.69 223.526 109.072 222.672 110.362C222.322 112.109 222.108 113.879 222.033 115.659L216.712 142.323L216.27 142.141C215.544 141.857 198.526 135.037 197.571 134.532C196.979 134.271 191.635 134.532 186.804 134.982L170.639 138.439C164.442 140.736 157.693 143.53 157.086 144.249C156.936 145.133 155.207 150.311 151.3 161.796C149.145 168.15 146.911 174.717 146.84 175.215C146.84 175.854 147.937 205.762 147.945 206.062C148.253 207.341 148.908 209.653 149.358 210.095C150.037 210.774 151.963 212.566 151.979 212.582L152.113 212.708V212.89C151.976 214.498 152.029 216.117 152.271 217.713C152.328 217.621 152.368 217.519 152.389 217.413C152.523 216.742 152.657 216 152.657 216L153.107 213.498Z" fill="#263238"/>
<path d="M154.852 217.539H154.063C154.063 217.539 154.174 214.682 154.174 214.074V212.148H154.963V214.074C154.963 214.666 154.86 217.421 154.852 217.539Z" fill="#263238"/>
<path d="M156.103 211.595L155.314 211.613L155.432 216.782L156.221 216.764L156.103 211.595Z" fill="#263238"/>
<path d="M153.432 212.629H152.643V216.102H153.432V212.629Z" fill="#263238"/>
<path d="M217.573 136.008L216.413 141.825C216.413 141.825 198.7 134.721 197.745 134.232C196.79 133.742 186.773 134.634 186.773 134.634L170.56 138.099C170.56 138.099 156.699 143.23 156.699 144.201C156.699 145.172 146.438 174.543 146.438 175.238C146.438 175.475 146.564 179.027 146.73 183.644L154.402 186.304L156.486 174.464L164.608 159.017L170.828 174.014C170.828 174.014 171.349 177.835 172.044 178.703C172.739 179.571 177.569 182.184 185.952 180.795C194.335 179.406 196.387 177.488 196.908 176.446C197.408 175.47 197.647 174.383 197.603 173.288C197.603 172.073 197.95 169.641 198.298 166.508C198.645 163.374 198.645 151.558 198.645 151.558C198.645 151.558 224.906 155.386 225.08 153.468C225.151 152.679 225.332 146.143 225.514 138.936L217.573 136.008Z" fill="white"/>
<path d="M154.718 186.794L146.359 183.897V183.629C146.161 178.103 146.067 175.419 146.067 175.206C146.067 174.875 147.077 171.836 150.574 161.559C153.1 154.107 156.249 144.832 156.32 144.154C156.32 143.862 156.32 142.922 170.434 137.697L186.702 134.216C189.125 134.003 196.963 133.355 197.934 133.845C198.787 134.271 213.39 140.16 216.136 141.249L217.289 135.447L225.932 138.652V138.936C225.703 147.887 225.561 152.789 225.49 153.492C225.482 153.581 225.455 153.668 225.41 153.745C225.365 153.823 225.303 153.89 225.23 153.941C223.398 155.394 204.044 152.718 199.063 152C199.063 154.234 199.063 163.737 198.716 166.539C198.613 167.447 198.518 168.292 198.424 169.065C198.203 170.952 198.021 172.436 198.021 173.272C198.061 174.419 197.808 175.557 197.287 176.58C196.616 177.922 194.13 179.792 186.047 181.142C177.727 182.531 172.628 179.958 171.76 178.916C171.041 178.016 170.552 174.662 170.465 174.078L164.592 159.933L156.889 174.575L154.718 186.794ZM147.148 183.368L154.134 185.791L156.178 174.299L164.664 158.109L171.231 173.896C171.42 175.333 171.902 177.843 172.36 178.395C173.015 179.185 177.885 181.679 185.897 180.337C194.366 178.932 196.158 176.974 196.561 176.209C197.032 175.296 197.258 174.276 197.216 173.249C197.216 172.365 197.397 170.881 197.626 168.947C197.713 168.158 197.816 167.329 197.918 166.429C198.258 163.358 198.258 151.637 198.258 151.518V151.06L198.716 151.131C210.627 152.86 223.501 154.147 224.701 153.326C224.74 152.679 224.851 149.632 225.119 139.173L217.873 136.481L216.713 142.322L216.271 142.141C215.544 141.857 198.526 135.037 197.571 134.532C196.987 134.271 191.635 134.532 186.805 134.982L170.639 138.439C164.442 140.736 157.694 143.53 157.086 144.248C156.936 145.132 155.207 150.303 151.3 161.795C149.145 168.15 146.911 174.717 146.84 175.214C146.84 175.404 146.935 178.135 147.148 183.368Z" fill="#263238"/>
<path d="M228.095 109.218C228.095 109.218 227.961 111.16 228.427 111.294C229.474 111.445 230.543 111.345 231.545 111.002C231.818 110.788 232.005 110.483 232.073 110.143C232.142 109.803 232.085 109.449 231.916 109.147C231.647 108.547 228.766 108.878 228.095 109.218Z" fill="white"/>
<path d="M229.302 111.751C228.974 111.765 228.646 111.738 228.324 111.673C227.803 111.523 227.597 110.694 227.7 109.186V108.965L227.905 108.862C229.137 108.433 230.458 108.329 231.741 108.563C231.853 108.592 231.957 108.645 232.045 108.719C232.134 108.792 232.205 108.885 232.255 108.989C232.474 109.379 232.541 109.837 232.444 110.274C232.346 110.711 232.09 111.097 231.726 111.357C230.955 111.66 230.129 111.795 229.302 111.751ZM228.6 110.962C229.522 111.063 230.454 110.972 231.339 110.694C231.813 110.417 231.718 109.715 231.552 109.344C231.26 109.107 229.287 109.265 228.474 109.526C228.437 109.998 228.48 110.472 228.6 110.931V110.962Z" fill="#263238"/>
<path d="M231.979 111.088C232.149 111.219 232.273 111.4 232.334 111.606C232.395 111.811 232.39 112.031 232.319 112.233C232.253 112.553 232.098 112.848 231.871 113.084C231.645 113.32 231.357 113.487 231.04 113.567C230.503 113.701 228.427 113.567 228.167 113.101C227.906 112.635 227.764 111.357 228.427 111.294C229.09 111.23 231.979 111.088 231.979 111.088Z" fill="white"/>
<path d="M230.384 114.009C229.484 114.009 228.142 113.859 227.819 113.299C227.666 113.005 227.577 112.682 227.556 112.352C227.536 112.022 227.585 111.691 227.7 111.38C227.766 111.25 227.863 111.137 227.983 111.053C228.103 110.969 228.242 110.916 228.387 110.899C229.066 110.836 231.844 110.702 231.963 110.702H232.081L232.192 110.765C232.431 110.941 232.609 111.189 232.7 111.472C232.791 111.756 232.79 112.061 232.697 112.343C232.614 112.736 232.422 113.097 232.143 113.385C231.863 113.673 231.508 113.875 231.118 113.97C230.875 114.006 230.63 114.019 230.384 114.009ZM231.837 111.491C231.221 111.491 229.034 111.633 228.466 111.688C228.466 111.688 228.466 111.688 228.403 111.744C228.296 112.13 228.332 112.542 228.506 112.904C229.284 113.193 230.121 113.291 230.945 113.188C231.192 113.125 231.416 112.993 231.591 112.807C231.765 112.621 231.884 112.389 231.931 112.138C231.968 112.031 231.979 111.916 231.963 111.803C231.946 111.69 231.903 111.583 231.837 111.491Z" fill="#263238"/>
<path d="M231.647 113.504C231.831 113.878 231.9 114.298 231.845 114.712C231.71 115.248 230.637 115.714 229.903 115.643C229.169 115.572 227.898 115.311 227.898 114.909C227.898 114.506 228.687 113.504 228.687 113.504H231.647Z" fill="white"/>
<path d="M230.029 116.046H229.848C229.129 115.983 227.48 115.746 227.48 114.917C227.633 114.302 227.937 113.735 228.364 113.267L228.482 113.117H231.868L231.971 113.338C232.207 113.792 232.29 114.31 232.208 114.814C232.05 115.485 230.937 116.046 230.029 116.046ZM228.285 114.846C228.799 115.085 229.353 115.224 229.919 115.256C230.205 115.273 230.49 115.224 230.755 115.113C231.019 115.002 231.254 114.833 231.442 114.617C231.477 114.374 231.447 114.126 231.355 113.899H228.869C228.644 114.19 228.456 114.508 228.308 114.846H228.285Z" fill="#263238"/>
<path d="M230.905 115.643C230.905 115.643 231.576 115.446 231.442 116.117C231.308 116.787 230.653 117.593 230.037 117.593C229.421 117.593 227.898 116.985 228.032 116.385C228.091 116.053 228.254 115.749 228.498 115.517L230.905 115.643Z" fill="white"/>
<path d="M230.029 117.987C229.203 117.93 228.424 117.583 227.827 117.009C227.74 116.915 227.678 116.801 227.645 116.677C227.612 116.553 227.609 116.423 227.638 116.298C227.716 115.876 227.929 115.491 228.245 115.201L228.364 115.114L230.866 115.248C231.001 115.21 231.143 115.204 231.28 115.231C231.417 115.259 231.546 115.319 231.655 115.406C231.757 115.508 231.829 115.635 231.864 115.774C231.898 115.913 231.895 116.059 231.853 116.196C231.663 117.064 230.858 117.987 230.029 117.987ZM228.648 115.919C228.529 116.084 228.445 116.273 228.403 116.472C228.848 116.891 229.421 117.147 230.029 117.198C230.392 117.198 230.945 116.567 231.048 116.038H231H230.937H230.874L228.648 115.919Z" fill="#263238"/>
<path d="M224.236 116.614L223.92 115.888C223.92 115.888 225.436 115.209 225.775 114.119C225.994 113.285 226.037 112.414 225.901 111.562L226.691 111.42C226.856 112.397 226.808 113.399 226.548 114.356C226.083 115.785 224.315 116.574 224.236 116.614Z" fill="#263238"/>
<path d="M195.739 142.888L195.002 143.17L198.275 151.696L199.012 151.414L195.739 142.888Z" fill="#263238"/>
<path d="M168.423 152.997L164.299 158.762L164.941 159.221L169.065 153.456L168.423 152.997Z" fill="#263238"/>
<path d="M170.142 124.531L172.005 132.725L185.621 130.096L183.3 125.613L170.142 124.531Z" fill="white"/>
<path d="M171.697 133.19L169.637 124.089L183.545 125.233L186.213 130.388L171.697 133.19ZM170.647 124.957L172.305 132.259L185.037 129.812L183.064 125.983L170.647 124.957Z" fill="#263238"/>
<path d="M177.419 136.284L184.997 161.977L180.971 164.448L175.872 136.75L177.419 136.284Z" fill="#06BCC1"/>
<path d="M180.695 165.087L175.415 136.474L177.68 135.795L185.463 162.151L180.695 165.087ZM176.354 137.026L181.287 163.809L184.563 161.796L177.143 136.797L176.354 137.026Z" fill="#263238"/>
<path d="M171.689 137.058L173.702 171.876L183.301 170.636L177.42 136.284L171.689 137.058Z" fill="#06BCC1"/>
<path d="M173.331 172.317L171.279 136.71L177.744 135.834L183.758 170.968L173.331 172.317ZM172.108 137.397L174.073 171.425L182.843 170.289L177.088 136.718L172.108 137.397Z" fill="#263238"/>
<path d="M187.318 128.399L168.902 131.959L170.142 138.763L188.249 134.895L187.318 128.399Z" fill="#06BCC1"/>
<path d="M169.826 139.236L168.461 131.643L187.665 127.933L188.707 135.203L169.826 139.236ZM169.361 132.267L170.458 138.289L187.823 134.587L187.034 128.865L169.361 132.267Z" fill="#263238"/>
<path d="M178.501 94.6624C178.501 94.6624 181.903 91.7182 184.997 92.4996C188.092 93.2811 190.412 97.7567 188.865 100.543C187.318 103.329 182.369 102.248 182.369 102.248L178.035 96.8252L178.501 94.6624Z" fill="#263238"/>
<path d="M184.516 102.856C183.766 102.858 183.018 102.784 182.282 102.635H182.148L177.609 96.9593L178.138 94.4807L178.241 94.3939C178.391 94.2676 181.84 91.3234 185.092 92.1443C186.017 92.4356 186.864 92.9299 187.573 93.5909C188.282 94.2519 188.834 95.0629 189.189 95.9647C189.556 96.7114 189.747 97.5323 189.747 98.3643C189.747 99.1963 189.556 100.017 189.189 100.764C188.25 102.477 186.15 102.856 184.516 102.856ZM182.59 101.893C183.379 102.035 187.271 102.611 188.526 100.361C188.825 99.7152 188.975 99.0099 188.964 98.2979C188.953 97.5859 188.782 96.8855 188.463 96.2489C188.157 95.459 187.678 94.7474 187.062 94.1657C186.447 93.584 185.709 93.147 184.903 92.8863C182.33 92.2469 179.425 94.465 178.857 94.8912L178.462 96.7383L182.59 101.893Z" fill="#263238"/>
<path d="M165.193 97.1404C165.193 97.1404 160.086 100.077 159.004 104.568C157.923 109.059 162.714 118.334 163.803 120.355C164.893 122.376 168.129 124.996 172.312 126.859C176.496 128.722 181.437 129.18 183.916 127.648C186.394 126.117 187.01 116.811 187.168 113.101C187.326 109.391 182.834 99.6348 181.903 97.6219C180.972 95.6091 173.394 91.2598 165.193 97.1404Z" fill="white"/>
<path d="M179.82 128.904C177.171 128.856 174.56 128.268 172.147 127.175C168.137 125.391 164.641 122.715 163.465 120.505C162.06 117.885 157.537 108.981 158.634 104.442C159.731 99.9035 164.609 96.9987 164.996 96.7777C170.158 93.0757 174.831 93.5572 177.16 94.1729C179.875 94.8912 181.785 96.3436 182.282 97.4013C184.319 101.822 187.713 109.731 187.579 113.062C187.374 117.94 186.655 126.354 184.137 127.925C182.814 128.637 181.321 128.975 179.82 128.904ZM173.829 94.5439C170.791 94.584 167.846 95.5934 165.422 97.425C165.375 97.425 160.449 100.338 159.415 104.6C158.365 108.981 163.196 118.287 164.151 120.111C165.256 122.171 168.603 124.712 172.471 126.425C176.71 128.312 181.438 128.643 183.703 127.215C185.282 126.22 186.442 120.9 186.774 113.007C186.869 110.694 184.966 105.113 181.548 97.7091C181.201 96.9671 179.543 95.6016 176.947 94.9149C175.926 94.6694 174.878 94.5553 173.829 94.5754V94.5439Z" fill="#263238"/>
<path d="M182.834 99.6984C182.424 98.7749 182.092 98.0408 181.903 97.6303C180.979 95.6254 173.394 91.3156 165.192 97.1725C165.192 97.1725 160.085 100.109 159.004 104.6C157.994 108.792 162.114 117.174 163.543 119.898L165.192 116.669C165.192 116.669 168.129 114.964 167.513 113.417C166.897 111.87 163.338 110.015 165.658 105.524C167.979 101.032 176.109 95.9885 182.834 99.6984Z" fill="#263238"/>
<path d="M163.543 120.718L163.188 120.047C161.475 116.78 157.592 108.712 158.618 104.474C159.731 99.8718 164.783 96.9197 164.996 96.7934C170.134 93.1151 174.815 93.5887 177.144 94.2044C179.859 94.9227 181.769 96.3751 182.267 97.4328C182.448 97.8432 182.788 98.5773 183.198 99.5009L183.672 100.566L182.645 100.006C181.363 99.3381 179.958 98.9365 178.516 98.8252C177.074 98.714 175.625 98.8955 174.255 99.3588C170.774 100.416 167.38 103.021 166.006 105.674C164.427 108.831 165.801 110.512 166.945 111.878C167.32 112.283 167.633 112.74 167.877 113.235C168.556 114.925 166.101 116.551 165.509 116.914L163.543 120.718ZM173.805 94.5754C170.767 94.6155 167.822 95.6249 165.398 97.4565C165.319 97.5117 160.394 100.393 159.36 104.655C158.452 108.436 161.941 115.911 163.52 118.998L164.869 116.353L164.972 116.29C165.659 115.895 167.522 114.53 167.127 113.535C166.916 113.118 166.65 112.731 166.338 112.383C165.185 111.002 163.441 108.91 165.304 105.279C166.772 102.453 170.355 99.6903 173.986 98.5694C176.603 97.6964 179.445 97.7803 182.006 98.8062C181.801 98.3484 181.627 98.0169 181.517 97.7327C181.169 96.9907 179.512 95.6252 176.915 94.9385C175.905 94.6877 174.868 94.5657 173.828 94.5754H173.805Z" fill="#263238"/>
<path d="M167.514 117.853C167.514 117.853 163.488 112.896 161.199 114.443C158.91 115.99 160.583 119.55 161.665 120.632C162.746 121.713 165.382 121.871 166.156 121.097" fill="white"/>
<path d="M164.443 122.005C163.319 122.039 162.221 121.66 161.357 120.939C160.215 119.695 159.599 118.058 159.636 116.369C159.669 115.922 159.805 115.489 160.032 115.103C160.259 114.717 160.572 114.389 160.947 114.143C163.543 112.415 167.648 117.411 167.822 117.624L167.206 118.121C166.148 116.819 163.046 113.693 161.389 114.798C161.109 114.978 160.875 115.221 160.707 115.508C160.538 115.794 160.439 116.116 160.418 116.448C160.394 117.906 160.928 119.317 161.91 120.395C162.904 121.381 165.272 121.429 165.856 120.86L166.417 121.421C165.856 121.857 165.151 122.065 164.443 122.005Z" fill="#263238"/>
<path d="M180.514 116.875C180.413 116.875 180.316 116.837 180.243 116.768C180.17 116.699 180.125 116.604 180.119 116.504C180.116 116.452 180.123 116.4 180.14 116.351C180.157 116.302 180.184 116.256 180.218 116.218C180.253 116.179 180.294 116.147 180.341 116.124C180.388 116.102 180.439 116.088 180.49 116.085C181.444 116.064 182.384 115.86 183.261 115.486C182.621 114.791 181.897 114.178 181.106 113.662C180.607 113.342 180.146 112.966 179.733 112.541C179.22 111.862 179.622 109.076 179.812 107.908C179.828 107.803 179.886 107.709 179.972 107.647C180.058 107.585 180.165 107.56 180.269 107.576C180.374 107.593 180.468 107.651 180.53 107.737C180.592 107.822 180.618 107.929 180.601 108.034C180.317 109.715 180.159 111.736 180.372 112.068C180.75 112.415 181.154 112.735 181.58 113.023C183.056 114.104 184.027 114.854 184.074 115.486C184.083 115.577 184.072 115.669 184.04 115.755C184.009 115.841 183.958 115.919 183.892 115.983C183.206 116.677 180.98 116.851 180.546 116.875H180.514Z" fill="#263238"/>
<path d="M178.446 120.324C177.597 120.272 176.767 120.051 176.005 119.673C175.243 119.294 174.565 118.767 174.01 118.121C173.961 118.038 173.943 117.939 173.96 117.843C173.978 117.748 174.029 117.662 174.105 117.601C174.181 117.54 174.277 117.509 174.374 117.514C174.471 117.518 174.563 117.557 174.634 117.624C174.721 117.743 177.002 120.474 180.057 119.203C180.153 119.166 180.26 119.167 180.356 119.207C180.451 119.246 180.528 119.321 180.57 119.416C180.589 119.464 180.598 119.516 180.598 119.568C180.597 119.619 180.586 119.671 180.566 119.718C180.545 119.766 180.515 119.809 180.478 119.845C180.441 119.881 180.397 119.91 180.349 119.929C179.747 120.185 179.1 120.319 178.446 120.324Z" fill="#263238"/>
<path d="M175.249 113.694C175.764 113.694 176.181 113.072 176.181 112.304C176.181 111.537 175.764 110.915 175.249 110.915C174.735 110.915 174.318 111.537 174.318 112.304C174.318 113.072 174.735 113.694 175.249 113.694Z" fill="#263238"/>
<path d="M183.916 109.825C183.916 110.615 183.498 111.222 182.984 111.222C182.471 111.222 182.061 110.599 182.061 109.825C182.061 109.052 182.471 108.436 182.984 108.436C183.498 108.436 183.916 109.06 183.916 109.825Z" fill="#263238"/>
<path d="M170.765 110.993H170.647C170.597 110.978 170.551 110.953 170.51 110.92C170.47 110.886 170.437 110.845 170.413 110.799C170.389 110.753 170.374 110.702 170.369 110.65C170.365 110.598 170.371 110.546 170.387 110.496C170.387 110.386 171.286 107.773 175.359 107.284C175.464 107.271 175.569 107.301 175.652 107.366C175.735 107.431 175.789 107.526 175.801 107.631C175.814 107.736 175.784 107.841 175.719 107.924C175.654 108.007 175.559 108.06 175.454 108.073C171.878 108.507 171.144 110.717 171.136 110.741C171.108 110.816 171.058 110.881 170.991 110.927C170.925 110.972 170.846 110.995 170.765 110.993Z" fill="#263238"/>
<path d="M180.514 107.126C180.418 107.127 180.326 107.093 180.253 107.031C180.175 106.961 180.127 106.864 180.12 106.759C180.112 106.654 180.146 106.551 180.214 106.471C180.839 105.78 181.701 105.349 182.629 105.263C183.075 105.256 183.517 105.344 183.926 105.523C184.334 105.701 184.7 105.965 184.997 106.297C185.034 106.334 185.064 106.377 185.084 106.426C185.104 106.474 185.114 106.525 185.114 106.577C185.114 106.629 185.104 106.681 185.084 106.729C185.064 106.777 185.034 106.821 184.997 106.858C184.924 106.93 184.824 106.97 184.721 106.97C184.618 106.97 184.519 106.93 184.445 106.858C184.223 106.614 183.954 106.419 183.654 106.283C183.354 106.148 183.03 106.074 182.7 106.068C181.986 106.151 181.325 106.487 180.838 107.015C180.796 107.058 180.745 107.09 180.689 107.109C180.633 107.129 180.573 107.134 180.514 107.126Z" fill="#263238"/>
</svg>
