<svg width="386" height="257" viewBox="0 0 386 257" fill="none" xmlns="http://www.w3.org/2000/svg">
<path d="M306.134 223.009C332.799 221.549 356.01 204.392 365.835 179.602C370.37 168.217 374.163 154.57 374.163 140.836C374.163 106.912 361.811 52.4281 324.755 32.8961C287.699 13.3641 243.952 15.9341 218.733 26.7281C193.515 37.5221 186.824 52.9421 161.605 56.0261C136.387 59.1101 117.859 28.7841 73.0827 27.7561C28.3067 26.7281 6.17602 89.9501 12.8667 122.332C19.5574 154.714 54.2356 177.705 54.7811 191.085C55.3267 204.464 69.9947 226.16 106.536 232.328C143.077 238.496 195.059 211.768 219.763 210.74C244.467 209.712 277.405 224.104 304.683 223.076L306.134 223.009Z" fill="#06BCC1"/>
<path opacity="0.7" d="M306.134 223.009C332.799 221.549 356.01 204.392 365.835 179.602C370.37 168.217 374.163 154.57 374.163 140.836C374.163 106.912 361.811 52.4281 324.755 32.8961C287.699 13.3641 243.952 15.9341 218.733 26.7281C193.515 37.5221 186.824 52.9421 161.605 56.0261C136.387 59.1101 117.859 28.7841 73.0827 27.7561C28.3067 26.7281 6.17602 89.9501 12.8667 122.332C19.5574 154.714 54.2356 177.705 54.7811 191.085C55.3267 204.464 69.9947 226.16 106.536 232.328C143.077 238.496 195.059 211.768 219.763 210.74C244.467 209.712 277.405 224.104 304.683 223.076L306.134 223.009Z" fill="white"/>
<path opacity="0.2" d="M238.908 16.4482H242.712" stroke="black" stroke-linecap="round" stroke-linejoin="round"/>
<path opacity="0.2" d="M245.517 16.4482H252.701V57.5682H219.248V16.4482H235.301" stroke="black" stroke-linecap="round" stroke-linejoin="round"/>
<path opacity="0.2" d="M288.213 16.4482H254.76V57.5682H288.213V16.4482Z" stroke="black" stroke-linecap="round" stroke-linejoin="round"/>
<path opacity="0.2" d="M315.439 16.4482H323.725V57.5682H290.272V16.4482H311.631" stroke="black" stroke-linecap="round" stroke-linejoin="round"/>
<path opacity="0.2" d="M359.237 47.4322V57.5682H325.784V16.4482H359.237V45.2477" stroke="black" stroke-linecap="round" stroke-linejoin="round"/>
<path opacity="0.2" d="M252.701 60.1382H219.248V101.258H252.701V60.1382Z" stroke="black" stroke-linecap="round" stroke-linejoin="round"/>
<path opacity="0.2" d="M254.76 73.0293V60.1382H288.213V101.258H254.76V76.7455" stroke="black" stroke-linecap="round" stroke-linejoin="round"/>
<path opacity="0.2" d="M323.725 60.1382H290.272V101.258H323.725V60.1382Z" stroke="black" stroke-linecap="round" stroke-linejoin="round"/>
<path opacity="0.2" d="M334.158 60.1382H359.237V101.258H325.784V60.1382H331.528" stroke="black" stroke-linecap="round" stroke-linejoin="round"/>
<path opacity="0.2" d="M252.701 103.828H219.248V144.948H252.701V103.828Z" stroke="black" stroke-linecap="round" stroke-linejoin="round"/>
<path opacity="0.2" d="M288.213 103.828H254.76V144.948H288.213V103.828Z" stroke="black" stroke-linecap="round" stroke-linejoin="round"/>
<path opacity="0.2" d="M323.725 103.828H290.272V144.948H323.725V103.828Z" stroke="black" stroke-linecap="round" stroke-linejoin="round"/>
<path opacity="0.2" d="M359.237 138.436V144.948H325.784V118.313" stroke="black" stroke-linecap="round" stroke-linejoin="round"/>
<path opacity="0.2" d="M359.237 132.314V136.03" stroke="black" stroke-linecap="round" stroke-linejoin="round"/>
<path opacity="0.2" d="M325.784 114.812V103.828H359.237V129.908" stroke="black" stroke-linecap="round" stroke-linejoin="round"/>
<path opacity="0.2" d="M252.701 147.518H219.248V188.638H252.701V147.518Z" stroke="black" stroke-linecap="round" stroke-linejoin="round"/>
<path opacity="0.2" d="M288.213 147.518H254.76V188.638H288.213V147.518Z" stroke="black" stroke-linecap="round" stroke-linejoin="round"/>
<path opacity="0.2" d="M323.725 147.518H290.272V188.638H323.725V147.518Z" stroke="black" stroke-linecap="round" stroke-linejoin="round"/>
<path opacity="0.2" d="M333.72 188.638H325.784V147.518H359.237V188.638H337.004" stroke="black" stroke-linecap="round" stroke-linejoin="round"/>
<g opacity="0.2">
<path d="M45.0848 87.3801H84.4053V17.4761H29.336V87.3801H41.3638" stroke="black" stroke-linecap="round" stroke-linejoin="round"/>
<path d="M72.6864 20.5601H50.5609" stroke="black" stroke-linecap="round" stroke-linejoin="round"/>
<path d="M31.7652 48.9637V84.2961H81.9761V20.5601H75.5324" stroke="black" stroke-linecap="round" stroke-linejoin="round"/>
<path d="M47.0611 20.5601H31.7652V45.4634" stroke="black" stroke-linecap="round" stroke-linejoin="round"/>
<path d="M64.5804 37.7275H45.2906V67.1283H59.9844" stroke="black" stroke-linecap="round" stroke-linejoin="round"/>
<path d="M62.3931 67.1283H68.4507V37.7275H66.989" stroke="black" stroke-linecap="round" stroke-linejoin="round"/>
</g>
<g opacity="0.2">
<path d="M111.683 60.0507C123.004 60.0507 132.182 50.8848 132.182 39.5781C132.182 28.2714 123.004 19.1055 111.683 19.1055C100.361 19.1055 91.1835 28.2714 91.1835 39.5781C91.1835 50.8848 100.361 60.0507 111.683 60.0507Z" stroke="black" stroke-linecap="round" stroke-linejoin="round"/>
<path d="M111.683 57.1772C121.415 57.1772 129.305 49.2977 129.305 39.5779C129.305 29.858 121.415 21.9785 111.683 21.9785C101.95 21.9785 94.0604 29.858 94.0604 39.5779C94.0604 49.2977 101.95 57.1772 111.683 57.1772Z" stroke="black" stroke-linecap="round" stroke-linejoin="round"/>
<path d="M106.809 44.9134L111.683 39.5781H126.006" stroke="black" stroke-linecap="round" stroke-linejoin="round"/>
</g>
<path d="M57.3493 122.024C57.3493 122.024 50.5351 118.22 50.0307 126.809C49.5264 135.398 48.2654 206.443 48.2654 206.443" stroke="#263238" stroke-width="2" stroke-linecap="round" stroke-linejoin="round"/>
<path d="M46.495 127.564C46.495 127.564 52.0483 155.295 49.5264 205.692" stroke="#263238" stroke-width="2" stroke-linecap="round" stroke-linejoin="round"/>
<path d="M51.9814 123.746C51.9814 123.746 49.372 125.416 47.864 123.504C46.3561 121.592 48.8934 118.102 46.6751 116.606C44.4569 115.111 40.705 117.393 40.705 117.393C40.705 117.393 43.618 118.246 43.5254 119.834C43.4327 121.423 42.0277 122.024 41.8373 121.33C41.6469 120.636 40.2624 117.141 37.9001 118.596C37.2181 118.997 36.6247 119.532 36.1558 120.169C35.687 120.806 35.3524 121.532 35.1723 122.301C35.1723 122.301 40.6587 121.716 41.0087 123.787C41.3586 125.858 38.7544 123.427 36.4796 123.273C34.2048 123.119 32.141 123.468 32.2851 124.846C32.3381 126.06 32.2657 127.276 32.0689 128.475C33.3139 127.452 34.8831 126.905 36.495 126.933C38.9912 127.082 38.8985 128.67 36.6289 128.536C34.3592 128.403 32.424 130.556 32.424 130.556C32.424 130.556 34.4827 134.093 37.1281 135.84C39.7735 137.588 40.7307 136.966 41.0138 135.614C41.2969 134.262 40.6175 130.813 42.2078 130.906C43.7982 130.998 39.5522 136.904 41.5851 137.238C43.618 137.572 45.2444 137.002 45.7796 135.665L46.2943 134.329C46.2943 134.329 45.5841 130.875 45.8929 129.528C46.2017 128.182 46.5722 129.569 46.9222 131.183C47.2722 132.797 47.5089 136.678 48.2037 136.493C48.8985 136.308 51.1167 133.476 51.6417 132.381C52.1666 131.286 48.7132 127.884 48.7544 127.205C48.7956 126.527 51.4564 127.817 51.8424 128.526C52.1415 129.058 52.4129 129.606 52.6556 130.166C52.6556 130.166 54.3128 129.138 54.2768 125.935C54.2407 122.733 51.9814 123.746 51.9814 123.746Z" fill="#06BCC1"/>
<path opacity="0.3" d="M51.9814 123.746C51.9814 123.746 49.372 125.416 47.864 123.504C46.3561 121.592 48.8934 118.102 46.6751 116.606C44.4569 115.111 40.705 117.393 40.705 117.393C40.705 117.393 43.618 118.246 43.5254 119.834C43.4327 121.423 42.0277 122.024 41.8373 121.33C41.6469 120.636 40.2624 117.141 37.9001 118.596C37.2181 118.997 36.6247 119.532 36.1558 120.169C35.687 120.806 35.3524 121.532 35.1723 122.301C35.1723 122.301 40.6587 121.716 41.0087 123.787C41.3586 125.858 38.7544 123.427 36.4796 123.273C34.2048 123.119 32.141 123.468 32.2851 124.846C32.3381 126.06 32.2657 127.276 32.0689 128.475C33.3139 127.452 34.8831 126.905 36.495 126.933C38.9912 127.082 38.8985 128.67 36.6289 128.536C34.3592 128.403 32.424 130.556 32.424 130.556C32.424 130.556 34.4827 134.093 37.1281 135.84C39.7735 137.588 40.7307 136.966 41.0138 135.614C41.2969 134.262 40.6175 130.813 42.2078 130.906C43.7982 130.998 39.5522 136.904 41.5851 137.238C43.618 137.572 45.2444 137.002 45.7796 135.665L46.2943 134.329C46.2943 134.329 45.5841 130.875 45.8929 129.528C46.2017 128.182 46.5722 129.569 46.9222 131.183C47.2722 132.797 47.5089 136.678 48.2037 136.493C48.8985 136.308 51.1167 133.476 51.6417 132.381C52.1666 131.286 48.7132 127.884 48.7544 127.205C48.7956 126.527 51.4564 127.817 51.8424 128.526C52.1415 129.058 52.4129 129.606 52.6556 130.166C52.6556 130.166 54.3128 129.138 54.2768 125.935C54.2407 122.733 51.9814 123.746 51.9814 123.746Z" fill="#263238"/>
<path d="M38.7441 131.224C40.4425 129.127 42.949 126.29 45.0437 124.933" stroke="#263238" stroke-linecap="round" stroke-linejoin="round"/>
<path d="M36.7729 133.779C36.7729 133.779 37.2104 133.172 37.9155 132.268" stroke="#263238" stroke-linecap="round" stroke-linejoin="round"/>
<path d="M46.1553 125.452C46.1553 125.452 48.6772 129.019 49.1455 132.689" stroke="#263238" stroke-linecap="round" stroke-linejoin="round"/>
<path d="M43.2938 127.56C43.2938 127.56 44.004 127.148 43.7364 131.672" stroke="#263238" stroke-linecap="round" stroke-linejoin="round"/>
<path d="M45.1414 123.36C45.1414 123.36 46.5825 122.08 45.8208 119.531" stroke="#263238" stroke-linecap="round" stroke-linejoin="round"/>
<path d="M43.1857 125.509L42.1615 123.627" stroke="#263238" stroke-linecap="round" stroke-linejoin="round"/>
<path d="M41.0241 127.426C41.0241 127.426 37.7508 124.959 35.7076 124.856" stroke="#263238" stroke-linecap="round" stroke-linejoin="round"/>
<path d="M61.2453 117.022C61.2453 117.022 61.1424 120.764 58.2191 120.949C55.2958 121.134 53.4842 116.262 50.4991 117.434C47.514 118.606 47.2155 123.941 47.2155 123.941C47.2155 123.941 50.0565 121.612 51.585 122.79C53.1136 123.967 52.7585 125.776 51.935 125.488C51.1116 125.2 46.6597 124.208 46.5053 127.544C46.4426 128.504 46.5763 129.467 46.8984 130.373C47.2205 131.28 47.7242 132.112 48.3787 132.818C48.3787 132.818 51.5439 126.917 53.8444 127.991C56.145 129.065 51.9453 130.006 50.2418 132.185C48.5382 134.365 47.4832 136.662 48.9602 137.454C50.2138 138.229 51.3848 139.129 52.4548 140.142C52.4548 140.142 52.0534 137.058 53.901 134.653C55.7487 132.247 57.2824 133.434 55.5994 135.614C53.9165 137.793 54.7554 141.216 54.7554 141.216C54.7554 141.216 59.7116 141.556 63.2577 140.116C66.8037 138.677 66.8192 137.3 65.6818 136.076C64.5444 134.853 60.5917 133.198 61.7703 131.677C62.9489 130.155 65.9803 138.389 67.7147 136.596C69.4491 134.802 69.9689 132.771 68.9962 131.327L68.0235 129.883C68.0235 129.883 64.076 128.238 62.9334 127.009C61.7909 125.781 63.4481 126.357 65.3009 127.097C67.1537 127.837 71.2144 130.258 71.4769 129.436C71.7394 128.613 70.4476 124.465 69.6807 123.19C68.9139 121.916 63.1805 123.052 62.5269 122.548C61.8732 122.044 64.9818 120.266 65.97 120.333C66.9581 120.399 68.1728 120.636 68.1728 120.636C68.1728 120.636 68.2602 118.271 65.0333 116.138C61.8063 114.005 61.2453 117.022 61.2453 117.022Z" fill="#06BCC1"/>
<path opacity="0.2" d="M61.2453 117.022C61.2453 117.022 61.1424 120.764 58.2191 120.949C55.2958 121.134 53.4842 116.262 50.4991 117.434C47.514 118.606 47.2155 123.941 47.2155 123.941C47.2155 123.941 50.0565 121.612 51.585 122.79C53.1136 123.967 52.7585 125.776 51.935 125.488C51.1116 125.2 46.6597 124.208 46.5053 127.544C46.4426 128.504 46.5763 129.467 46.8984 130.373C47.2205 131.28 47.7242 132.112 48.3787 132.818C48.3787 132.818 51.5439 126.917 53.8444 127.991C56.145 129.065 51.9453 130.006 50.2418 132.185C48.5382 134.365 47.4832 136.662 48.9602 137.454C50.2138 138.229 51.3848 139.129 52.4548 140.142C52.4548 140.142 52.0534 137.058 53.901 134.653C55.7487 132.247 57.2824 133.434 55.5994 135.614C53.9165 137.793 54.7554 141.216 54.7554 141.216C54.7554 141.216 59.7116 141.556 63.2577 140.116C66.8037 138.677 66.8192 137.3 65.6818 136.076C64.5444 134.853 60.5917 133.198 61.7703 131.677C62.9489 130.155 65.9803 138.389 67.7147 136.596C69.4491 134.802 69.9689 132.771 68.9962 131.327L68.0235 129.883C68.0235 129.883 64.076 128.238 62.9334 127.009C61.7909 125.781 63.4481 126.357 65.3009 127.097C67.1537 127.837 71.2144 130.258 71.4769 129.436C71.7394 128.613 70.4476 124.465 69.6807 123.19C68.9139 121.916 63.1805 123.052 62.5269 122.548C61.8732 122.044 64.9818 120.266 65.97 120.333C66.9581 120.399 68.1728 120.636 68.1728 120.636C68.1728 120.636 68.2602 118.271 65.0333 116.138C61.8063 114.005 61.2453 117.022 61.2453 117.022Z" fill="#263238"/>
<path d="M59.7322 135.331C58.7904 132.201 57.6736 127.76 57.7199 124.738" stroke="#263238" stroke-linecap="round" stroke-linejoin="round"/>
<path d="M60.952 139.042C60.952 139.042 60.6432 138.189 60.2109 136.863" stroke="#263238" stroke-linecap="round" stroke-linejoin="round"/>
<path d="M59.0014 123.987C59.0014 123.987 64.2922 123.889 68.2654 125.925" stroke="#263238" stroke-linecap="round" stroke-linejoin="round"/>
<path d="M59.1867 128.284C59.1867 128.284 59.2588 127.292 63.6231 130.654" stroke="#263238" stroke-linecap="round" stroke-linejoin="round"/>
<path d="M56.1913 123.566C56.1913 123.566 55.8928 121.248 52.8203 120.271" stroke="#263238" stroke-linecap="round" stroke-linejoin="round"/>
<path d="M57.0302 126.989L54.4415 126.732" stroke="#263238" stroke-linecap="round" stroke-linejoin="round"/>
<path d="M57.4831 130.463C57.4831 130.463 52.7739 132.052 51.2608 134.015" stroke="#263238" stroke-linecap="round" stroke-linejoin="round"/>
<path d="M29.8507 141.931C29.8507 141.931 44.7349 167.117 44.4827 205.184" stroke="#263238" stroke-width="2" stroke-linecap="round" stroke-linejoin="round"/>
<path d="M48.2037 139.33C48.2037 139.33 47.7251 143.643 44.3386 143.576C40.952 143.509 39.3154 137.721 35.7539 138.78C32.1924 139.839 31.3484 145.976 31.3484 145.976C31.3484 145.976 34.8481 143.555 36.495 145.056C38.142 146.557 37.5707 148.613 36.6443 148.207C35.7179 147.801 30.6844 146.249 30.1904 150.088C30.0302 151.185 30.0935 152.302 30.3765 153.373C30.6595 154.445 31.1564 155.448 31.8373 156.323C31.8373 156.323 36.0267 149.831 38.6 151.291C41.1734 152.751 36.2171 153.429 34.071 155.788C31.9248 158.148 30.4683 160.697 32.0946 161.746C33.4668 162.76 34.7324 163.91 35.8723 165.179C35.8723 165.179 35.7024 161.581 38.0648 158.985C40.4271 156.39 42.074 157.891 39.9279 160.25C37.7817 162.609 38.425 166.639 38.425 166.639C38.425 166.639 44.0864 167.497 48.3375 166.171C52.5887 164.845 52.7173 163.257 51.5182 161.735C50.319 160.214 45.9186 157.937 47.4008 156.287C48.8831 154.637 51.6262 164.434 53.793 162.527C55.9597 160.62 56.7575 158.328 55.7693 156.57L54.7863 154.812C54.7863 154.812 50.3859 152.54 49.1867 151.013C47.9875 149.487 49.83 150.309 51.9093 151.337C53.9886 152.365 58.4353 155.542 58.8419 154.622C59.2485 153.702 58.1162 148.788 57.3648 147.246C56.6134 145.704 49.8918 146.49 49.1867 145.827C48.4816 145.164 52.2335 143.427 53.371 143.601C54.2173 143.742 55.0556 143.928 55.8825 144.157C55.8825 144.157 56.2068 141.438 52.6865 138.672C49.1661 135.907 48.2037 139.33 48.2037 139.33Z" fill="#06BCC1"/>
<path opacity="0.3" d="M48.2037 139.33C48.2037 139.33 47.7251 143.643 44.3386 143.576C40.952 143.509 39.3154 137.721 35.7539 138.78C32.1924 139.839 31.3484 145.976 31.3484 145.976C31.3484 145.976 34.8481 143.555 36.495 145.056C38.142 146.557 37.5707 148.613 36.6443 148.207C35.7179 147.801 30.6844 146.249 30.1904 150.088C30.0302 151.185 30.0935 152.302 30.3765 153.373C30.6595 154.445 31.1564 155.448 31.8373 156.323C31.8373 156.323 36.0267 149.831 38.6 151.291C41.1734 152.751 36.2171 153.429 34.071 155.788C31.9248 158.148 30.4683 160.697 32.0946 161.746C33.4668 162.76 34.7324 163.91 35.8723 165.179C35.8723 165.179 35.7024 161.581 38.0648 158.985C40.4271 156.39 42.074 157.891 39.9279 160.25C37.7817 162.609 38.425 166.639 38.425 166.639C38.425 166.639 44.0864 167.497 48.3375 166.171C52.5887 164.845 52.7173 163.257 51.5182 161.735C50.319 160.214 45.9186 157.937 47.4008 156.287C48.8831 154.637 51.6262 164.434 53.793 162.527C55.9597 160.62 56.7575 158.328 55.7693 156.57L54.7863 154.812C54.7863 154.812 50.3859 152.54 49.1867 151.013C47.9875 149.487 49.83 150.309 51.9093 151.337C53.9886 152.365 58.4353 155.542 58.8419 154.622C59.2485 153.702 58.1162 148.788 57.3648 147.246C56.6134 145.704 49.8918 146.49 49.1867 145.827C48.4816 145.164 52.2335 143.427 53.371 143.601C54.2173 143.742 55.0556 143.928 55.8825 144.157C55.8825 144.157 56.2068 141.438 52.6865 138.672C49.1661 135.907 48.2037 139.33 48.2037 139.33Z" fill="#263238"/>
<path d="M44.7297 160.317C43.9371 156.616 43.0416 151.384 43.4122 147.904" stroke="#263238" stroke-linecap="round" stroke-linejoin="round"/>
<path d="M45.8054 164.712C45.8054 164.712 45.5275 163.684 45.162 162.142" stroke="#263238" stroke-linecap="round" stroke-linejoin="round"/>
<path d="M44.9562 147.153C44.9562 147.153 51.0756 147.544 55.4966 150.268" stroke="#263238" stroke-linecap="round" stroke-linejoin="round"/>
<path d="M44.74 152.144C44.74 152.144 44.915 151.008 49.6345 155.295" stroke="#263238" stroke-linecap="round" stroke-linejoin="round"/>
<path d="M41.7601 146.403C41.7601 146.403 41.6314 143.704 38.1574 142.291" stroke="#263238" stroke-linecap="round" stroke-linejoin="round"/>
<path d="M42.4034 150.433L39.4389 149.898" stroke="#263238" stroke-linecap="round" stroke-linejoin="round"/>
<path d="M42.5938 154.483C42.5938 154.483 37.0097 155.876 35.0797 157.999" stroke="#263238" stroke-linecap="round" stroke-linejoin="round"/>
<path d="M48.2037 175.351C48.2037 175.351 47.7251 179.664 44.3386 179.597C40.9521 179.53 39.3154 173.732 35.7539 174.811C32.1924 175.891 31.3484 182.007 31.3484 182.007C31.3484 182.007 34.8481 179.586 36.4951 181.087C38.142 182.588 37.5707 184.644 36.6443 184.238C35.7179 183.832 30.6793 182.264 30.1852 186.125C30.025 187.221 30.0883 188.338 30.3713 189.41C30.6544 190.481 31.1512 191.485 31.8322 192.359C31.8322 192.359 36.0267 185.852 38.6 187.312C41.1734 188.772 36.2171 189.45 34.071 191.809C31.9248 194.169 30.4683 196.718 32.0947 197.767C33.4668 198.781 34.7325 199.931 35.8723 201.2C35.8723 201.2 35.7025 197.602 38.0648 195.006C40.4271 192.411 42.074 193.912 39.9279 196.271C37.7817 198.63 38.4251 202.66 38.4251 202.66C38.4251 202.66 44.0864 203.518 48.3375 202.192C52.5887 200.866 52.7173 199.278 51.5182 197.756C50.319 196.235 45.9186 193.958 47.4008 192.308C48.8831 190.658 51.6263 200.455 53.793 198.548C55.9597 196.641 56.7575 194.349 55.7693 192.591L54.7863 190.833C54.7863 190.833 50.3859 188.561 49.1867 187.034C47.9876 185.508 49.8301 186.33 51.9093 187.358C53.9886 188.386 58.4353 191.563 58.8419 190.643C59.2485 189.723 58.1162 184.809 57.3648 183.267C56.6134 181.725 49.8918 182.47 49.1867 181.848C48.4816 181.226 52.2336 179.448 53.371 179.622C54.2173 179.763 55.0557 179.949 55.8825 180.178C55.8825 180.178 56.2068 177.459 52.6865 174.693C49.1662 171.928 48.2037 175.351 48.2037 175.351Z" fill="#06BCC1"/>
<path opacity="0.3" d="M48.2037 175.351C48.2037 175.351 47.7251 179.664 44.3386 179.597C40.9521 179.53 39.3154 173.732 35.7539 174.811C32.1924 175.891 31.3484 182.007 31.3484 182.007C31.3484 182.007 34.8481 179.586 36.4951 181.087C38.142 182.588 37.5707 184.644 36.6443 184.238C35.7179 183.832 30.6793 182.264 30.1852 186.125C30.025 187.221 30.0883 188.338 30.3713 189.41C30.6544 190.481 31.1512 191.485 31.8322 192.359C31.8322 192.359 36.0267 185.852 38.6 187.312C41.1734 188.772 36.2171 189.45 34.071 191.809C31.9248 194.169 30.4683 196.718 32.0947 197.767C33.4668 198.781 34.7325 199.931 35.8723 201.2C35.8723 201.2 35.7025 197.602 38.0648 195.006C40.4271 192.411 42.074 193.912 39.9279 196.271C37.7817 198.63 38.4251 202.66 38.4251 202.66C38.4251 202.66 44.0864 203.518 48.3375 202.192C52.5887 200.866 52.7173 199.278 51.5182 197.756C50.319 196.235 45.9186 193.958 47.4008 192.308C48.8831 190.658 51.6263 200.455 53.793 198.548C55.9597 196.641 56.7575 194.349 55.7693 192.591L54.7863 190.833C54.7863 190.833 50.3859 188.561 49.1867 187.034C47.9876 185.508 49.8301 186.33 51.9093 187.358C53.9886 188.386 58.4353 191.563 58.8419 190.643C59.2485 189.723 58.1162 184.809 57.3648 183.267C56.6134 181.725 49.8918 182.47 49.1867 181.848C48.4816 181.226 52.2336 179.448 53.371 179.622C54.2173 179.763 55.0557 179.949 55.8825 180.178C55.8825 180.178 56.2068 177.459 52.6865 174.693C49.1662 171.928 48.2037 175.351 48.2037 175.351Z" fill="#263238"/>
<path d="M44.7297 196.348C43.9371 192.652 43.0416 187.42 43.4122 183.94" stroke="#263238" stroke-linecap="round" stroke-linejoin="round"/>
<path d="M45.8054 200.733C45.8054 200.733 45.5275 199.705 45.162 198.163" stroke="#263238" stroke-linecap="round" stroke-linejoin="round"/>
<path d="M44.9562 183.174C44.9562 183.174 51.0756 183.565 55.4966 186.289" stroke="#263238" stroke-linecap="round" stroke-linejoin="round"/>
<path d="M44.74 188.15C44.74 188.15 44.915 187.014 49.6345 191.301" stroke="#263238" stroke-linecap="round" stroke-linejoin="round"/>
<path d="M41.7601 182.424C41.7601 182.424 41.6314 179.726 38.1574 178.312" stroke="#263238" stroke-linecap="round" stroke-linejoin="round"/>
<path d="M42.4034 186.454L39.4389 185.919" stroke="#263238" stroke-linecap="round" stroke-linejoin="round"/>
<path d="M42.5938 190.504C42.5938 190.504 37.0097 191.897 35.0797 194.02" stroke="#263238" stroke-linecap="round" stroke-linejoin="round"/>
<path d="M35.651 171.912C35.651 171.912 45.2392 194.6 46.248 205.436L44.2305 153.773" stroke="#263238" stroke-width="2" stroke-linecap="round" stroke-linejoin="round"/>
<path d="M58.8625 166.624C46.248 164.352 46.248 205.436 46.248 205.436" stroke="#263238" stroke-width="2" stroke-linecap="round" stroke-linejoin="round"/>
<path d="M47.7611 205.184C47.7611 205.184 40.4425 136.637 61.6571 136.637" stroke="#263238" stroke-width="2" stroke-linecap="round" stroke-linejoin="round"/>
<path d="M54.04 165.092C52.3159 163.159 48.6566 163.159 46.5001 168.104C44.3437 173.049 46.32 172.19 46.32 172.19C46.32 172.19 50.4373 170.9 53.0107 170.042C55.584 169.183 59.0426 167.03 59.2536 168.32C59.4646 169.61 57.5346 170.89 55.162 171.332C52.7894 171.774 46.5465 173.486 47.1949 174.776C47.8434 176.066 49.3462 179.916 49.3462 179.916C51.1882 178.356 53.131 176.919 55.162 175.613C57.9618 173.892 59.6859 174.539 58.1779 176.472C56.67 178.404 52.3622 180.584 53.2268 183.154C54.0915 185.724 59.2536 188.962 59.2536 188.962C59.2536 188.962 59.9021 183.586 61.41 181.864C62.918 180.142 62.918 182.08 62.4857 185.092C62.2719 186.373 62.1293 187.665 62.0585 188.962L68.0853 191.111C68.0853 191.111 70.2417 187.888 71.3174 186.808L72.393 185.734C72.393 185.734 67.6581 181.648 67.4419 179.052C67.2258 176.456 70.674 179.052 71.7497 179.479C72.8253 179.905 74.5495 182.923 74.5495 182.923C74.5495 182.923 75.6251 177.973 75.8413 176.241L76.0574 174.519C76.0574 174.519 71.5335 172.797 69.8094 172.797C68.0853 172.797 67.2361 174.087 67.2361 172.365C67.2361 170.643 68.9602 169.569 70.8953 169.795C72.6508 170.088 74.3804 170.52 76.0677 171.085C76.0677 171.085 77.3596 170.011 76.9272 166.783C76.4949 163.555 75.4193 163.555 72.8356 164.419C70.252 165.282 68.5279 167.215 66.5876 167.215C64.6473 167.215 65.7281 164.845 67.0199 164.203C68.3117 163.56 71.5438 162.265 72.1923 162.049C72.8408 161.833 68.744 158.826 66.5876 158.394C64.4311 157.963 61.6468 159.479 61.8526 161.622C62.2386 166.171 55.7796 167.05 54.04 165.092Z" fill="#06BCC1"/>
<path d="M67.936 187.24C68.0029 187.893 68.0493 188.541 68.0698 189.188" stroke="#263238" stroke-linecap="round" stroke-linejoin="round"/>
<path d="M63.5922 171.799C65.4846 176.06 66.8467 180.536 67.6478 185.127" stroke="#263238" stroke-linecap="round" stroke-linejoin="round"/>
<path d="M62.8202 170.072C61.7497 167.78 60.9468 166.382 60.9468 166.382C62.1212 165.831 63.0984 164.934 63.7466 163.812C64.2528 162.797 64.9917 161.917 65.9031 161.242" stroke="#263238" stroke-linecap="round" stroke-linejoin="round"/>
<path d="M53.4121 173.696C53.4121 173.696 61.163 170.474 61.163 171.126" stroke="#263238" stroke-linecap="round" stroke-linejoin="round"/>
<path d="M65.4708 169.62C65.4708 169.62 68.919 167.898 71.935 167.898" stroke="#263238" stroke-linecap="round" stroke-linejoin="round"/>
<path d="M64.1789 174.76C62.675 175.993 61.296 177.37 60.0616 178.872C58.802 180.352 57.7842 182.02 57.0457 183.817" stroke="#263238" stroke-linecap="round" stroke-linejoin="round"/>
<path d="M66.5464 175.634C66.5464 175.634 71.0704 174.344 73.443 176.492" stroke="#263238" stroke-linecap="round" stroke-linejoin="round"/>
<path d="M74.7399 146.567C72.3982 145.185 69.8043 145.154 68.533 143.689C67.2618 142.224 69.7579 141.489 71.1064 142.039C72.4548 142.589 75.5377 144.182 76.1244 144.527C76.7111 144.871 76.3045 139.813 75.2186 137.906C74.1326 135.999 71.1578 134.894 69.6704 136.452C66.5361 139.736 61.6519 135.424 61.9865 132.854C62.321 130.284 59.9278 127.524 54.7811 129.143C49.6345 130.762 51.549 131.661 51.549 131.661C51.549 131.661 55.2083 133.897 57.5552 135.259C59.9021 136.621 63.7827 137.829 62.9489 138.857C62.1151 139.885 59.8609 139.248 57.9875 137.747C56.1141 136.246 50.7153 132.658 50.1646 133.99C49.6139 135.321 47.6685 139.001 47.6685 139.001C50.0553 139.359 52.4159 139.874 54.7348 140.543C57.8743 141.53 58.5125 143.252 56.0627 143.381C53.6128 143.509 49.161 141.674 47.7714 144.018C46.3818 146.362 47.3339 152.376 47.3339 152.376C47.3339 152.376 51.827 149.338 54.1121 149.343C56.3972 149.348 54.9407 150.623 52.3828 152.273C51.2711 152.95 50.1989 153.689 49.1713 154.488L51.4667 160.481C51.4667 160.481 55.3164 159.967 56.8398 160.096L58.3838 160.204C58.3838 160.204 58.3838 153.953 60.1748 152.098C61.9659 150.242 62.2953 154.534 62.6761 155.629C63.057 156.724 61.9093 159.993 61.9093 159.993C61.9093 159.993 66.356 157.562 67.7971 156.601L69.2433 155.634C69.2433 155.634 67.5758 151.091 66.4486 149.795C65.3215 148.5 63.7775 148.69 65.0796 147.564C66.3817 146.439 68.322 147.05 69.4286 148.634C70.3598 150.147 71.1671 151.734 71.8423 153.378C71.8423 153.378 73.5047 153.645 75.6612 151.204C77.8176 148.762 77.0868 147.955 74.7399 146.567ZM54.3591 153.455C52.635 152.591 56.7266 150.885 56.7266 150.885C58.2346 150.659 56.0987 154.313 54.3591 153.455ZM57.2618 145.421C56.5259 145.056 58.7286 144.321 58.7286 144.321C61.9093 144.948 57.9927 145.791 57.2618 145.421Z" fill="#06BCC1"/>
<path d="M54.3128 157.834C53.865 158.307 53.4018 158.769 52.9283 159.212" stroke="#263238" stroke-linecap="round" stroke-linejoin="round"/>
<path d="M63.1496 144.434C61.1716 148.663 58.6809 152.634 55.7333 156.256" stroke="#263238" stroke-linecap="round" stroke-linejoin="round"/>
<path d="M63.9473 142.733C64.9767 140.425 65.4913 138.903 65.4913 138.903C66.6814 139.427 68.0037 139.572 69.2793 139.32C70.3802 139.032 71.5337 139.009 72.6452 139.253" stroke="#263238" stroke-linecap="round" stroke-linejoin="round"/>
<path d="M55.0385 138.014C55.0385 138.014 62.5629 141.746 62.0739 142.167" stroke="#263238" stroke-linecap="round" stroke-linejoin="round"/>
<path d="M66.0369 144.434C66.0369 144.434 69.5984 145.904 71.5747 148.181" stroke="#263238" stroke-linecap="round" stroke-linejoin="round"/>
<path d="M61.2865 146.84C59.3793 146.519 57.4454 146.383 55.512 146.434C53.5671 146.455 51.6377 146.781 49.794 147.4" stroke="#263238" stroke-linecap="round" stroke-linejoin="round"/>
<path d="M62.1872 149.188C62.1872 149.188 66.1295 151.758 66.0575 154.95" stroke="#263238" stroke-linecap="round" stroke-linejoin="round"/>
<path d="M41.2711 176.374C39.3823 175.259 37.2979 175.238 36.2737 174.061C35.2495 172.884 37.2619 172.288 38.3324 172.73C39.4029 173.172 41.899 174.457 42.3725 174.734C42.846 175.012 42.5166 170.941 41.6417 169.404C40.7667 167.867 38.3735 166.978 37.1795 168.232C34.6576 170.879 30.7256 167.41 31.0035 165.344C31.2814 163.277 29.3411 161.052 25.1929 162.357C21.0447 163.663 22.6196 164.382 22.6196 164.382C22.6196 164.382 25.5635 166.187 27.4523 167.297C29.3411 168.407 32.4652 169.353 31.791 170.18C31.1167 171.008 29.3154 170.499 27.8023 169.286C26.2892 168.073 21.9454 165.174 21.5028 166.264C21.0602 167.353 19.4956 170.299 19.4956 170.299C21.4084 170.594 23.2996 171.014 25.1569 171.558C27.6839 172.349 28.1986 173.732 26.2274 173.84C24.2562 173.948 20.669 172.468 19.5367 174.354C18.4045 176.24 19.1868 181.077 19.1868 181.077C19.1868 181.077 22.7894 178.631 24.6422 178.641C26.495 178.651 25.3061 179.669 23.2475 180.995C22.3567 181.541 21.4975 182.136 20.6742 182.779L22.5475 187.569C23.9809 187.378 25.4247 187.275 26.8707 187.261L28.0905 187.348C28.0905 187.348 28.0905 182.316 29.5367 180.825C30.9829 179.335 31.2403 182.784 31.5439 183.668C31.8476 184.552 30.9315 187.178 30.9315 187.178C30.9315 187.178 34.5341 185.225 35.6664 184.449L36.8295 183.668C36.8295 183.668 35.4914 180.018 34.5804 178.97C33.6695 177.921 32.424 178.081 33.4533 177.176C34.4827 176.271 36.0627 176.744 36.9582 178.034C37.7048 179.254 38.3536 180.531 38.8985 181.853C38.8985 181.853 40.2366 182.069 41.9865 180.106C43.7364 178.142 43.1599 177.49 41.2711 176.374ZM24.8687 181.915C23.4791 181.221 26.773 179.859 26.773 179.859C27.9876 179.664 26.248 182.609 24.8687 181.915ZM27.2053 175.454C26.6134 175.156 28.3839 174.57 28.3839 174.57C30.9469 175.058 27.792 175.747 27.2053 175.454Z" fill="#06BCC1"/>
<path d="M24.8327 185.441C24.4724 185.821 24.1019 186.191 23.721 186.551" stroke="#263238" stroke-linecap="round" stroke-linejoin="round"/>
<path d="M31.9454 174.667C30.3498 178.063 28.3449 181.251 25.9752 184.161" stroke="#263238" stroke-linecap="round" stroke-linejoin="round"/>
<path d="M32.5836 173.29C33.4173 171.429 33.8445 170.206 33.8445 170.206C34.8014 170.628 35.8649 170.746 36.8913 170.545C37.7765 170.313 38.7043 170.293 39.5985 170.489" stroke="#263238" stroke-linecap="round" stroke-linejoin="round"/>
<path d="M25.4142 169.492C25.4142 169.492 31.4719 172.493 31.0756 172.833" stroke="#263238" stroke-linecap="round" stroke-linejoin="round"/>
<path d="M34.2665 174.652C34.2665 174.652 37.1332 175.84 38.7236 177.67" stroke="#263238" stroke-linecap="round" stroke-linejoin="round"/>
<path d="M30.4425 176.595C28.913 176.334 27.3616 176.224 25.8105 176.266C24.2454 176.285 22.6928 176.548 21.2094 177.047" stroke="#263238" stroke-linecap="round" stroke-linejoin="round"/>
<path d="M31.1682 178.487C31.1682 178.487 34.3437 180.543 34.2562 183.113" stroke="#263238" stroke-linecap="round" stroke-linejoin="round"/>
<path d="M33.5769 140.836C33.5769 140.836 31.2094 142.558 29.7014 140.836C28.1935 139.114 30.3448 135.696 28.1935 134.386C26.0422 133.075 22.5939 135.46 22.5939 135.46C22.5939 135.46 25.3937 136.102 25.3937 137.608C25.3937 139.114 24.1019 139.762 23.8857 139.114C23.6695 138.467 22.1616 135.244 20.0051 136.75C19.3839 137.168 18.8539 137.707 18.447 138.335C18.0401 138.963 17.7648 139.667 17.6376 140.404C17.6376 140.404 22.7843 139.546 23.2372 141.484C23.6901 143.422 21.0859 141.268 18.9295 141.268C16.773 141.268 14.8121 141.7 15.054 142.99C15.1714 144.133 15.1714 145.285 15.054 146.429C16.1762 145.382 17.6373 144.773 19.1714 144.712C21.5388 144.712 21.5388 146.213 19.3875 146.213C17.2362 146.213 15.5069 148.366 15.5069 148.366C15.5069 148.366 17.6634 151.594 20.247 153.1C22.8306 154.606 23.6953 153.959 23.9114 152.668C24.1276 151.378 23.263 148.15 24.7709 148.15C26.2789 148.15 22.6196 153.959 24.5548 154.175C26.4899 154.39 28.003 153.743 28.4354 152.453L28.8625 151.162C28.8625 151.162 28.003 147.935 28.2192 146.644C28.4354 145.354 28.8625 146.644 29.2948 148.15C29.7272 149.656 30.1543 153.316 30.8028 153.1C31.4513 152.884 33.3762 150.088 33.8188 149.014C34.2614 147.94 30.8028 144.902 30.8028 144.28C30.8028 143.658 33.3762 144.712 33.8188 145.354C34.1317 145.841 34.4186 146.343 34.6783 146.86C34.6783 146.86 36.1862 145.786 35.9701 142.774C35.7539 139.762 33.5769 140.836 33.5769 140.836Z" fill="#06BCC1"/>
<path d="M21.5131 148.654C23.0004 146.598 25.2084 143.756 27.1126 142.357" stroke="#263238" stroke-linecap="round" stroke-linejoin="round"/>
<path d="M19.7889 151.178C19.7889 151.178 20.1698 150.582 20.7874 149.682" stroke="#263238" stroke-linecap="round" stroke-linejoin="round"/>
<path d="M28.1935 142.789C28.1935 142.789 30.7668 146.017 31.4204 149.471" stroke="#263238" stroke-linecap="round" stroke-linejoin="round"/>
<path d="M25.6047 144.948C25.6047 144.948 26.2532 144.522 26.2532 148.824" stroke="#263238" stroke-linecap="round" stroke-linejoin="round"/>
<path d="M27.1127 140.836C27.1127 140.836 28.4096 139.546 27.545 137.182" stroke="#263238" stroke-linecap="round" stroke-linejoin="round"/>
<path d="M25.3937 143.005L24.3129 141.283" stroke="#263238" stroke-linecap="round" stroke-linejoin="round"/>
<path d="M23.4534 144.948C23.4534 144.948 20.2213 142.8 18.3067 142.8" stroke="#263238" stroke-linecap="round" stroke-linejoin="round"/>
<path d="M54.5547 186.582C54.5547 186.582 52.1821 188.299 50.6741 186.582C49.1661 184.865 51.3226 181.417 49.1661 180.126C47.0097 178.836 43.5666 181.201 43.5666 181.201C43.5666 181.201 46.3663 181.848 46.3663 183.354C46.3663 184.86 45.0745 185.503 44.8584 184.86C44.6422 184.218 43.1342 180.985 40.9829 182.491C40.3603 182.908 39.8294 183.448 39.4224 184.077C39.0154 184.707 38.7408 185.412 38.6155 186.15C38.6155 186.15 43.7621 185.287 44.215 187.225C44.6679 189.162 42.0586 187.009 39.9073 187.009C37.756 187.009 35.8157 187.441 36.0267 188.731C36.144 189.876 36.144 191.03 36.0267 192.175C37.1481 191.126 38.6093 190.515 40.144 190.453C42.5115 190.453 42.5115 191.959 40.355 191.959C38.1986 191.959 36.4796 194.107 36.4796 194.107C36.4796 194.107 38.636 197.335 41.2197 198.841C43.8033 200.347 44.6628 199.705 44.879 198.409C45.0951 197.114 44.2356 193.896 45.7436 193.896C47.2516 193.896 43.5871 199.705 45.5274 199.915C47.4677 200.126 48.9705 199.489 49.4029 198.199L49.8352 196.903C49.8352 196.903 48.9706 193.681 49.1867 192.39C49.4029 191.1 49.8352 192.39 50.2675 193.896C50.6998 195.402 51.127 199.036 51.7755 198.841C52.424 198.646 54.3488 195.829 54.7863 194.755C55.2237 193.681 51.7755 190.669 51.7755 190.021C51.7755 189.373 54.3488 190.453 54.7863 191.095C55.1 191.582 55.3885 192.085 55.6509 192.601C55.6509 192.601 57.1589 191.527 56.9427 188.515C56.7266 185.503 54.5547 186.582 54.5547 186.582Z" fill="#06BCC1"/>
<path d="M42.5012 194.374C43.9886 192.292 46.1965 189.471 48.1059 188.078" stroke="#263238" stroke-linecap="round" stroke-linejoin="round"/>
<path d="M40.7822 196.893C40.7822 196.893 41.1631 196.297 41.7807 195.402" stroke="#263238" stroke-linecap="round" stroke-linejoin="round"/>
<path d="M49.1816 188.504C49.1816 188.504 51.7549 191.732 52.4137 195.186" stroke="#263238" stroke-linecap="round" stroke-linejoin="round"/>
<path d="M46.598 190.658C46.598 190.658 47.2464 190.226 47.2464 194.528" stroke="#263238" stroke-linecap="round" stroke-linejoin="round"/>
<path d="M48.1059 186.582C48.1059 186.582 49.3977 185.287 48.5382 182.922" stroke="#263238" stroke-linecap="round" stroke-linejoin="round"/>
<path d="M46.3818 188.72L45.3062 186.999" stroke="#263238" stroke-linecap="round" stroke-linejoin="round"/>
<path d="M44.4467 190.658C44.4467 190.658 41.2145 188.504 39.3 188.504" stroke="#263238" stroke-linecap="round" stroke-linejoin="round"/>
<path d="M55.3267 204.469H38.6772V228.406H55.3267V204.469Z" fill="#263238" stroke="#263238" stroke-width="2" stroke-linecap="round" stroke-linejoin="round"/>
<path d="M21.6675 228.406H373.133" stroke="#263238" stroke-linecap="round" stroke-linejoin="round"/>
<path d="M313.885 177.33L316.201 226.674" stroke="#263238" stroke-width="6" stroke-linecap="round" stroke-linejoin="round"/>
<path d="M303.494 177.33L306.067 226.674" stroke="#263238" stroke-width="6" stroke-linecap="round" stroke-linejoin="round"/>
<path d="M270.37 177.33L267.024 226.674" stroke="#263238" stroke-width="6" stroke-linecap="round" stroke-linejoin="round"/>
<path d="M262.799 177.33L254.822 226.674" stroke="#263238" stroke-width="6" stroke-linecap="round" stroke-linejoin="round"/>
<path d="M315.419 123.509L315.588 175.598H268.285L269.973 123.509H315.419Z" fill="#808080" stroke="#263238" stroke-linecap="round" stroke-linejoin="round"/>
<path d="M259.201 178.415H315.588V175.449H259.201V178.415Z" fill="#808080" stroke="#263238" stroke-linecap="round" stroke-linejoin="round"/>
<path d="M259.202 178.415H306.963V175.449H259.202V178.415Z" fill="#808080" stroke="#263238" stroke-linecap="round" stroke-linejoin="round"/>
<path d="M271.157 148.546C271.157 148.546 266.777 155.228 266.088 160.275C265.398 165.323 266.551 171.069 269.773 173.156C271.872 174.438 274.236 175.225 276.685 175.459H304.091C304.091 175.459 308.929 174.308 311.003 169.707C313.077 165.107 311.692 159.124 310.313 156.133C308.934 153.141 307.771 150.602 307.771 150.602L271.157 148.546Z" fill="#263238" stroke="#263238" stroke-linecap="round" stroke-linejoin="round"/>
<path d="M284.055 95.6039C284.055 95.6039 267.93 101.587 267.009 103.196C266.088 104.805 274.153 136.549 274.153 136.549L270.004 149.661C276.32 150.997 282.702 151.997 289.124 152.658C298.795 153.578 308.239 150.818 308.239 150.818L304.554 135.398L310.545 103.196C310.545 103.196 298.707 97.588 296.103 96.596C293.499 95.6039 285.897 95.3932 284.055 95.6039Z" fill="#06BCC1" stroke="#263238" stroke-linecap="round" stroke-linejoin="round"/>
<path d="M301.106 98.8165C298.923 97.8193 296.988 96.9507 296.103 96.6166C293.499 95.6246 285.897 95.3933 284.055 95.6246C284.055 95.6246 280.102 97.0895 276 98.7651L285.208 137.032L293.267 138.179L301.106 98.8165Z" fill="#06BCC1" stroke="#263238" stroke-linecap="round" stroke-linejoin="round"/>
<path d="M292.66 152.859L295.485 96.4213C292.459 95.5938 285.769 95.3933 284.055 95.6246L282.737 96.1386L285.753 152.324C286.865 152.458 287.992 152.581 289.124 152.689C290.256 152.797 291.497 152.843 292.66 152.859Z" fill="white" stroke="#263238" stroke-linecap="round" stroke-linejoin="round"/>
<path d="M267.009 103.216C267.009 103.216 252.269 143.704 254.801 145.082C257.333 146.459 286.818 146.922 286.818 146.922V143.704L267.261 136.57L271.178 123.92L267.009 103.216Z" fill="#06BCC1" stroke="#263238" stroke-linecap="round" stroke-linejoin="round"/>
<path d="M286.818 143.704C286.818 143.704 294.652 142.784 295.341 142.784C296.031 142.784 302.248 147.153 302.248 147.153L286.808 146.922L286.818 143.704Z" fill="white" stroke="#263238" stroke-linecap="round" stroke-linejoin="round"/>
<path d="M310.478 103.216C310.478 103.216 325.223 143.704 322.686 145.082C320.148 146.459 290.673 146.922 290.673 146.922V143.704L310.231 136.57L306.515 124.599L310.478 103.216Z" fill="#06BCC1" stroke="#263238" stroke-linecap="round" stroke-linejoin="round"/>
<path d="M316.849 135.696C317.331 135.698 317.811 135.739 318.285 135.819" stroke="#263238" stroke-linecap="round" stroke-linejoin="round"/>
<path d="M310.251 136.57C312.111 136.124 314.005 135.834 315.913 135.701" stroke="#263238" stroke-linecap="round" stroke-linejoin="round"/>
<path d="M290.673 143.704C290.673 143.704 282.84 142.784 282.15 142.784C281.461 142.784 275.239 147.153 275.239 147.153L290.679 146.922L290.673 143.704Z" fill="white" stroke="#263238" stroke-linecap="round" stroke-linejoin="round"/>
<path d="M311.286 158.579C309.443 151.034 302.295 149.625 295.974 149.106C289.654 148.587 285.439 150.458 285.439 150.458C285.439 150.458 295.733 150.972 297.035 158.003L292.845 168.145C292.845 168.145 292.053 170.489 296.005 174.128" fill="#263238"/>
<path d="M311.286 158.579C309.443 151.034 302.295 149.625 295.974 149.106C289.654 148.587 285.439 150.458 285.439 150.458C285.439 150.458 295.733 150.972 297.035 158.003L292.845 168.145C292.845 168.145 292.053 170.489 296.005 174.128" stroke="#263238" stroke-linecap="round" stroke-linejoin="round"/>
<path d="M294.508 161.689C294.935 166.615 295.643 171.513 296.628 176.358C298.28 184.505 305.588 214.07 306.062 215.237C306.535 216.404 311.955 224.083 311.013 226.874C310.071 229.665 308.893 229.444 306.767 227.342C304.641 225.24 302.526 216.399 302.289 215.469C302.053 214.538 289.793 193.582 286.021 184.037C282.248 174.492 279.886 169.131 281.07 162.156C282.253 155.182 286.489 154.96 289.819 155.87C293.149 156.78 294.508 161.689 294.508 161.689Z" fill="white" stroke="#263238" stroke-linecap="round" stroke-linejoin="round"/>
<path d="M294.322 164.171L286.021 184.037L283.797 178.126L294.322 164.171Z" fill="#263238" stroke="#263238" stroke-miterlimit="10"/>
<path d="M311.013 226.874C311.528 225.368 310.174 222.433 308.754 219.874C307.04 222.444 305.233 222.181 303.967 221.416C304.77 223.867 305.769 226.355 306.767 227.342C308.893 229.439 310.071 229.67 311.013 226.874Z" fill="#263238" stroke="#263238" stroke-linecap="round" stroke-linejoin="round"/>
<path d="M296.263 155.228C296.263 155.228 292.331 148.305 286.155 150.371C279.979 152.437 266.803 197.53 262.66 203.971C261.591 205.639 260.439 207.251 259.207 208.802C257.028 209.407 254.777 209.716 252.516 209.722C248.831 209.722 245.604 209.722 248.368 212.02C251.131 214.318 256.891 215.932 259.886 216.389C262.881 216.846 264.492 211.1 264.492 211.1C264.492 211.1 282.228 180.969 285.449 177.747C288.671 174.524 294.667 164.177 295.815 162.105C296.963 160.034 296.721 157.284 296.263 155.228Z" fill="white" stroke="#263238" stroke-linecap="round" stroke-linejoin="round"/>
<path d="M264.214 211.886C260.926 212.236 255.722 212.708 255.722 212.708L253.9 209.676C253.448 209.701 252.979 209.722 252.501 209.722C248.816 209.722 245.589 209.722 248.352 212.02C251.116 214.317 256.875 215.931 259.871 216.389C262.166 216.743 263.648 213.443 264.214 211.886Z" fill="#263238" stroke="#263238" stroke-linecap="round" stroke-linejoin="round"/>
<path d="M279.356 77.7991C279.356 77.7991 277.03 79.6598 277.493 81.7518C277.956 83.8437 276.798 87.0922 275.167 87.56C273.535 88.0277 275.166 90.13 276.33 90.3458L277.493 90.5771C277.493 90.5771 278.656 96.3853 279.587 97.0844C280.519 97.7834 284.008 97.0844 284.008 97.0844C284.008 97.0844 285.172 104.748 286.798 107.071C288.424 109.395 289.371 109.857 291.43 106.84C293.489 103.823 296.062 96.6166 296.062 96.6166C296.062 96.6166 296.762 88.9529 294.899 83.6073C293.036 78.2617 286.103 71.297 279.356 77.7991Z" fill="white" stroke="#263238" stroke-linecap="round" stroke-linejoin="round"/>
<path d="M279.716 85.6321C279.716 86.2284 279.505 86.7115 279.243 86.7115C278.98 86.7115 278.769 86.2284 278.769 85.6321C278.769 85.0359 278.985 84.5527 279.243 84.5527C279.5 84.5527 279.716 85.0359 279.716 85.6321Z" fill="#263238"/>
<path d="M278.502 83.0677C278.502 83.0677 279.582 81.8546 280.529 83.4737" stroke="#263238" stroke-linecap="round" stroke-linejoin="round"/>
<path d="M279.042 92.0058C279.042 92.0058 279.716 92.2731 281.337 91.0601" stroke="#263238" stroke-linecap="round" stroke-linejoin="round"/>
<path d="M281.332 70.0428C281.332 70.0428 276.448 72.0576 277.611 76.3495C278.774 80.6414 285.522 84.1675 287.611 87.6986C289.701 91.2298 289.243 95.018 287.611 96.5292C285.98 98.0403 284.822 98.2973 284.822 98.2973C288.38 100.273 292.382 101.315 296.453 101.325C303.2 101.325 305.954 94.3704 305.486 89.8318C305.017 85.2931 303.803 74.6276 298.918 71.3278C294.034 68.0279 285.985 67.7709 281.332 70.0428Z" fill="#263238" stroke="#263238" stroke-linecap="round" stroke-linejoin="round"/>
<path d="M98.9601 177.33L90.9828 226.674" stroke="#263238" stroke-width="6" stroke-linecap="round" stroke-linejoin="round"/>
<path d="M125.723 177.33L117.745 226.674" stroke="#263238" stroke-width="6" stroke-linecap="round" stroke-linejoin="round"/>
<path d="M136.788 177.33L144.765 226.674" stroke="#263238" stroke-width="6" stroke-linecap="round" stroke-linejoin="round"/>
<path d="M164.58 177.33L172.557 226.674" stroke="#263238" stroke-width="6" stroke-linecap="round" stroke-linejoin="round"/>
<path d="M85.764 123.509L97.2514 175.598H134.755L121.41 123.509H85.764Z" fill="#808080" stroke="#263238" stroke-linecap="round" stroke-linejoin="round"/>
<path d="M168.178 175.449H97.2514V178.415H168.178V175.449Z" fill="#808080" stroke="#263238" stroke-linecap="round" stroke-linejoin="round"/>
<path d="M168.178 175.449H144.174V178.415H168.178V175.449Z" fill="#808080" stroke="#263238" stroke-linecap="round" stroke-linejoin="round"/>
<path d="M107.365 100.23L93.1238 107.94L100.674 154.2C100.674 154.2 100.329 155.398 101.189 155.912C102.048 156.426 104.446 156.601 104.446 156.601H132.413C133.417 156.285 134.31 155.689 134.987 154.884C135.841 153.686 135.841 153.003 135.841 151.8C135.841 150.597 138.759 107.257 138.245 106.398C137.848 105.781 137.387 105.208 136.87 104.687L122.12 98.8579L107.365 100.23Z" fill="white" stroke="#263238" stroke-linecap="round" stroke-linejoin="round"/>
<path d="M117.519 110.675L120.875 112.978L119.938 145.421L126.201 152.026L131.245 144.383L123.134 112.453L125.399 107.591L118.96 103.941L117.519 110.675Z" fill="#263238" stroke="#263238" stroke-linecap="round" stroke-linejoin="round"/>
<path d="M128.121 73.1578L130.18 79.3258L129.325 81.7262L132.069 86.3522L130.18 87.5498C130.18 87.5498 131.209 93.8925 130.869 94.4065C130.53 94.9205 123.319 95.4345 123.319 95.4345L122.29 105.715L110.797 99.0325V88.9222C110.797 88.9222 107.02 74.6998 107.879 73.5022C108.739 72.3046 114.57 69.9042 121.605 69.0458C128.641 68.1874 129.665 67.5038 130.01 69.5598C130.355 71.6158 128.121 73.1578 128.121 73.1578Z" fill="white" stroke="#263238" stroke-linecap="round" stroke-linejoin="round"/>
<path d="M130.01 69.5599C129.665 67.5039 128.636 68.1926 121.605 69.0459C114.575 69.8991 108.739 72.3046 107.879 73.5023C107.02 74.6999 110.797 88.9223 110.797 88.9223V91.667C111.251 91.7392 111.713 91.7392 112.166 91.667C114.055 91.3278 116.629 88.7578 116.629 88.7578C116.629 88.7578 114.055 90.2998 113.026 88.7578C112.019 87.2465 111.649 85.3996 111.997 83.6178C112.341 81.901 114.915 82.415 114.915 83.2734C114.915 84.1318 115.944 85.8434 116.798 85.499C117.653 85.1546 117.828 81.2174 117.828 81.2174C117.828 81.2174 121.43 78.817 121.605 77.6194C121.78 76.4218 120.576 74.5354 120.576 74.5354L128.121 73.163C128.121 73.163 130.355 71.6159 130.01 69.5599Z" fill="#263238" stroke="#263238" stroke-linecap="round" stroke-linejoin="round"/>
<path d="M128.296 80.0147C128.296 80.0147 126.237 79.3259 125.033 80.8679" stroke="#263238" stroke-linecap="round" stroke-linejoin="round"/>
<path d="M128.466 82.3278C128.466 82.9394 128.234 83.438 127.951 83.438C127.668 83.438 127.437 82.924 127.437 82.3278C127.437 81.7315 127.668 81.2124 127.951 81.2124C128.234 81.2124 128.466 81.7264 128.466 82.3278Z" fill="#263238"/>
<path d="M129.495 89.2667C129.495 89.2667 127.267 89.7807 126.407 88.9224" stroke="#263238" stroke-linecap="round" stroke-linejoin="round"/>
<path d="M123.319 95.4346H119.372L122.635 100.744L123.319 95.4346Z" fill="#263238" stroke="#263238" stroke-linecap="round" stroke-linejoin="round"/>
<path d="M110.797 97.146L106.505 100.574L116.973 112.566L122.29 105.714L110.797 97.146Z" fill="white" stroke="#263238" stroke-linecap="round" stroke-linejoin="round"/>
<path d="M122.29 105.714L126.237 110.854L125.033 100.06L123.149 97.8296L122.29 105.714Z" fill="white" stroke="#263238" stroke-linecap="round" stroke-linejoin="round"/>
<path d="M138.245 106.398L152.31 140.152L142.877 143.92L136.87 133.296L138.245 106.398Z" fill="white" stroke="#263238" stroke-linecap="round" stroke-linejoin="round"/>
<path d="M127.781 139.978C127.781 139.978 140.133 138.096 143.736 137.408C147.339 136.719 150.252 137.238 151.971 139.124C153.69 141.011 153.34 144.604 152.825 145.462C152.31 146.32 147.678 146.66 144.59 146.66C141.502 146.66 132.069 144.264 130.18 143.75L128.296 143.236L127.781 139.978Z" fill="white" stroke="#263238" stroke-linecap="round" stroke-linejoin="round"/>
<path d="M139.274 144.948C139.274 144.948 143.906 145.632 144.251 146.146C144.596 146.66 148.368 150.947 148.883 151.461C149.397 151.975 149.737 156.77 149.737 156.77C149.737 156.77 148.538 157.629 148.193 157.115C147.848 156.601 143.906 151.63 143.906 151.63C143.906 151.63 138.929 149.919 138.589 148.891L138.245 147.863L139.274 144.948Z" fill="white" stroke="#263238" stroke-linecap="round" stroke-linejoin="round"/>
<path d="M93.1238 107.94C93.1238 107.94 101.703 147.004 102.388 147.174C103.072 147.344 138.245 147.863 138.245 147.863L139.274 144.948L110.108 137.583L108.224 111.538" fill="white"/>
<path d="M93.1238 107.94C93.1238 107.94 101.703 147.004 102.388 147.174C103.072 147.344 138.245 147.863 138.245 147.863L139.274 144.948L110.108 137.583L108.224 111.538" stroke="#263238" stroke-linecap="round" stroke-linejoin="round"/>
<path d="M153 159.613C153 159.613 171.528 163.987 172.897 164.825C174.266 165.663 173.587 168.695 172.727 171.219C171.868 173.743 145.62 218.646 145.62 218.646L141.677 217.618L153.685 175.069H138.589L153 159.613Z" fill="#263238" stroke="#263238" stroke-linecap="round" stroke-linejoin="round"/>
<path d="M145.62 218.646L148.708 225.708C148.708 225.708 153 228.9 152.825 229.409C152.65 229.918 150.597 229.923 150.597 229.923L145.62 228.73C145.62 228.73 140.988 224.356 139.789 223.513C138.589 222.67 137.215 222.485 138.245 221.159C139.312 219.91 140.459 218.73 141.677 217.628L145.62 218.646Z" fill="white" stroke="#263238" stroke-linecap="round" stroke-linejoin="round"/>
<path d="M101.189 155.912C101.189 155.912 100.329 165.164 100.329 167.518C100.329 169.872 102.218 173.573 105.651 174.919C109.084 176.266 149.053 174.919 149.053 174.919L164.837 223.354L169.469 221.668C169.469 221.668 163.633 168.864 163.633 167.698C163.633 166.531 163.118 162.316 161.405 161.473C159.691 160.63 132.413 156.595 132.413 156.595L101.189 155.912Z" fill="#263238" stroke="#263238" stroke-linecap="round" stroke-linejoin="round"/>
<path d="M169.469 221.668C169.469 221.668 178.389 222.845 179.418 222.696C180.447 222.547 183.705 221.853 182.676 223.534C181.646 225.215 174.956 227.065 172.213 228.242C169.469 229.419 166.721 231.269 165.867 229.928C165.012 228.586 164.837 223.369 164.837 223.369L169.469 221.668Z" fill="white" stroke="#263238" stroke-linecap="round" stroke-linejoin="round"/>
<path d="M121.261 137.408H118.003L114.57 141.35C114.57 141.35 113.541 143.75 114.57 143.75C115.599 143.75 118.003 144.264 119.547 143.75C121.091 143.236 125.378 141.52 125.378 141.52C125.162 140.511 124.658 139.586 123.927 138.856C123.197 138.127 122.271 137.624 121.261 137.408Z" fill="white" stroke="#263238" stroke-linecap="round" stroke-linejoin="round"/>
<path d="M122.974 138.097L127.781 139.978L128.466 142.034L125.378 141.52L122.974 138.097Z" fill="white" stroke="#263238" stroke-linecap="round" stroke-linejoin="round"/>
<path d="M114.38 142.378C114.38 142.378 118.914 138.415 120.087 137.922" stroke="#263238" stroke-linecap="round" stroke-linejoin="round"/>
<path d="M115.208 143.498C115.208 143.498 121.23 138.425 122.475 138.425" stroke="#263238" stroke-linecap="round" stroke-linejoin="round"/>
<path d="M117.493 144.018C117.493 144.018 121.852 139.978 123.824 139.772" stroke="#263238" stroke-linecap="round" stroke-linejoin="round"/>
<path d="M345.995 148.33H84.7759V160.342H345.995V148.33Z" fill="white" stroke="#263238" stroke-linecap="round" stroke-linejoin="round"/>
<path d="M87.0507 228.314H83.5304L80.9931 148.33H89.588L87.0507 228.314Z" fill="white" stroke="#263238" stroke-linecap="round" stroke-linejoin="round"/>
<path d="M346.551 228.314H343.03L340.493 148.33H349.088L346.551 228.314Z" fill="white" stroke="#263238" stroke-linecap="round" stroke-linejoin="round"/>
<path d="M348.903 152.237H81.127V149.41H349.088L348.903 152.237Z" fill="#263238" stroke="#263238" stroke-miterlimit="10"/>
<path d="M351.661 147.004H77.0868V149.831H351.661V147.004Z" fill="white" stroke="#263238" stroke-linecap="round" stroke-linejoin="round"/>
<path d="M237.658 137.161C237.658 137.161 238.898 136.647 239.603 137.074C240.308 137.5 240.488 142.455 239.603 143.956C239.397 144.367 239.098 144.724 238.73 145C238.362 145.275 237.935 145.462 237.483 145.544L237.308 143.159C237.308 143.159 238.1 143.601 238.543 141.926C238.985 140.25 238.898 138.842 238.63 138.749C238.327 138.737 238.026 138.797 237.75 138.924L237.658 137.161Z" fill="#06BCC1" stroke="#263238" stroke-linecap="round" stroke-linejoin="round"/>
<path d="M237.853 134.755H227.879V147.323H237.853V134.755Z" fill="#06BCC1" stroke="#263238" stroke-linecap="round" stroke-linejoin="round"/>
<path d="M92.4856 137.161C92.4856 137.161 91.2504 136.647 90.5453 137.074C89.8402 137.5 89.6601 142.455 90.5453 143.956C90.7514 144.367 91.0503 144.724 91.4182 145C91.7862 145.275 92.2133 145.462 92.6657 145.544L92.8407 143.159C92.8407 143.159 92.0481 143.601 91.6055 141.926C91.1629 140.25 91.2504 138.842 91.518 138.749C91.8211 138.737 92.1228 138.797 92.3981 138.924L92.4856 137.161Z" fill="#06BCC1" stroke="#263238" stroke-linecap="round" stroke-linejoin="round"/>
<path d="M92.2952 147.328H102.269V134.76H92.2952V147.328Z" fill="#06BCC1" stroke="#263238" stroke-linecap="round" stroke-linejoin="round"/>
<path d="M329.232 137.161C329.232 137.161 327.997 136.647 327.292 137.074C326.587 137.5 326.407 142.455 327.292 143.956C327.498 144.367 327.797 144.724 328.165 145C328.533 145.275 328.96 145.462 329.412 145.544L329.587 143.159C329.587 143.159 328.795 143.601 328.352 141.926C327.91 140.25 327.997 138.842 328.265 138.749C328.568 138.737 328.87 138.797 329.145 138.924L329.232 137.161Z" fill="#06BCC1" stroke="#263238" stroke-linecap="round" stroke-linejoin="round"/>
<path d="M329.042 147.328H339.016V134.76H329.042V147.328Z" fill="#06BCC1" stroke="#263238" stroke-linecap="round" stroke-linejoin="round"/>
<path d="M287.616 124.028H246.906V147.174H287.616V124.028Z" fill="#263238" stroke="#263238" stroke-miterlimit="10"/>
<path d="M168.981 31.1792H129.017C128.362 31.1779 127.714 31.3055 127.11 31.5547C126.505 31.8039 125.955 32.1699 125.493 32.6317C125.03 33.0934 124.663 33.6418 124.413 34.2455C124.162 34.8492 124.034 35.4962 124.035 36.1496V55.1676C124.034 55.8201 124.162 56.4663 124.412 57.0693C124.661 57.6723 125.027 58.2203 125.489 58.6819C125.951 59.1435 126.499 59.5097 127.103 59.7595C127.706 60.0094 128.353 60.138 129.006 60.138H133.885L131.564 69.6624L139.989 60.138H168.97C169.624 60.138 170.271 60.0094 170.875 59.7596C171.479 59.5098 172.027 59.1437 172.489 58.6822C172.952 58.2206 173.318 57.6727 173.568 57.0697C173.818 56.4666 173.947 55.8203 173.947 55.1676V36.1496C173.947 34.8331 173.424 33.5705 172.493 32.6386C171.562 31.7068 170.299 31.1819 168.981 31.1792Z" fill="#263238"/>
<path d="M156.973 39.3828H166.515" stroke="white" stroke-linecap="round" stroke-linejoin="round"/>
<path d="M141.43 39.3828H154.704" stroke="white" stroke-linecap="round" stroke-linejoin="round"/>
<path d="M131.384 39.3828H138.96" stroke="white" stroke-linecap="round" stroke-linejoin="round"/>
<path d="M160.396 43.5615H166.526" stroke="white" stroke-linecap="round" stroke-linejoin="round"/>
<path d="M148.636 43.5615H159.068" stroke="white" stroke-linecap="round" stroke-linejoin="round"/>
<path d="M131.384 43.5615H147.709" stroke="white" stroke-linecap="round" stroke-linejoin="round"/>
<path d="M155.084 47.7407H166.526" stroke="white" stroke-linecap="round" stroke-linejoin="round"/>
<path d="M140.103 47.7407H153.191" stroke="white" stroke-linecap="round" stroke-linejoin="round"/>
<path d="M131.384 47.7407H138.589" stroke="white" stroke-linecap="round" stroke-linejoin="round"/>
<path d="M163.242 51.9141H166.526" stroke="white" stroke-linecap="round" stroke-linejoin="round"/>
<path d="M152.619 51.9141H161.343" stroke="white" stroke-linecap="round" stroke-linejoin="round"/>
<path d="M147.879 51.9141H151.312" stroke="white" stroke-linecap="round" stroke-linejoin="round"/>
<path d="M133.463 51.9141H145.414" stroke="white" stroke-linecap="round" stroke-linejoin="round"/>
<path d="M131.384 51.9141H132.516" stroke="white" stroke-linecap="round" stroke-linejoin="round"/>
<path d="M178.219 177.33L175.903 226.674" stroke="#263238" stroke-width="6" stroke-linecap="round" stroke-linejoin="round"/>
<path d="M203.437 177.33L200.864 226.674" stroke="#263238" stroke-width="6" stroke-linecap="round" stroke-linejoin="round"/>
<path d="M216.047 177.33L219.392 226.674" stroke="#263238" stroke-width="6" stroke-linecap="round" stroke-linejoin="round"/>
<path d="M229.428 177.33L237.405 226.674" stroke="#263238" stroke-width="6" stroke-linecap="round" stroke-linejoin="round"/>
<path d="M174.287 123.509L176.51 175.598H218.131L214.05 123.509H174.287Z" fill="#808080" stroke="#263238" stroke-linecap="round" stroke-linejoin="round"/>
<path d="M233.026 175.449H176.51V178.415H233.026V175.449Z" fill="#808080" stroke="#263238" stroke-linecap="round" stroke-linejoin="round"/>
<path d="M233.026 175.449H199.5V178.415H233.026V175.449Z" fill="#808080" stroke="#263238" stroke-linecap="round" stroke-linejoin="round"/>
<path d="M181.677 149.338C181.677 149.338 179.588 168.176 180.283 170.638C180.582 171.724 181.155 172.715 181.947 173.517C182.739 174.318 183.723 174.904 184.806 175.218C186.721 175.732 213.293 175.218 214.029 175.218C218.26 175.3 219.104 173.131 219.248 168.88C219.407 164.254 218.733 148.032 218.733 148.032L181.677 149.338Z" fill="#263238" stroke="#263238" stroke-linecap="round" stroke-linejoin="round"/>
<path d="M190.72 97.9946C190.72 97.9946 175.11 104.163 175.625 105.191C176.139 106.219 180.771 136.21 180.962 137.059C181.152 137.907 181.477 147.853 181.477 148.706C181.477 149.559 182.506 151.106 183.535 151.276C188.908 152.17 194.75 151.708 200.185 151.79C203.859 151.834 207.531 151.846 211.199 151.826C213.36 151.826 218.404 152.854 219.212 150.443C219.557 148.557 219.541 106.239 219.727 104.183C219.912 102.127 217.843 101.613 215.609 100.416C213.376 99.2179 203.087 96.4731 202.058 96.4731C201.029 96.4731 190.72 97.9946 190.72 97.9946Z" fill="white" stroke="#263238" stroke-linecap="round" stroke-linejoin="round"/>
<path d="M195.198 107.776L198.677 112.644L194.703 142.389L200.962 148.994L206.006 141.35L200.941 112.119L203.201 107.257L196.762 103.607L195.198 107.776Z" fill="#263238" stroke="#263238" stroke-linecap="round" stroke-linejoin="round"/>
<path d="M191.919 96.4525C191.919 96.4525 189.86 97.1361 189.691 98.5085C189.521 99.8809 190.035 110.675 190.035 110.675L196.726 108.105L199.639 107.426L207.2 108.83C207.2 108.83 207.019 102.631 205.815 99.5468C204.611 96.4628 203.242 95.4348 202.212 95.2652C201.183 95.0955 191.919 96.4525 191.919 96.4525Z" fill="white" stroke="#263238" stroke-linecap="round" stroke-linejoin="round"/>
<path d="M190.89 95.9385C190.89 95.9385 192.779 102.965 193.463 104.162C194.148 105.36 198.61 108.958 199.639 107.416C200.668 105.874 201.698 101.762 201.873 101.248C202.048 100.734 202.212 95.2549 202.212 95.2549C202.212 95.2549 193.978 98.1744 190.89 95.9385Z" fill="white" stroke="#263238" stroke-linecap="round" stroke-linejoin="round"/>
<path d="M194.256 100.41C194.256 100.41 194.446 100.698 196.973 101.767C198.345 102.388 199.831 102.717 201.338 102.734L201.821 100.893L202.115 95.9487L194.256 100.41Z" fill="#263238" stroke="#263238" stroke-miterlimit="10"/>
<path d="M207.143 82.9187C207.143 82.9187 207.745 77.3059 207.143 74.0985C206.541 70.8911 203.129 69.894 200.519 69.4725C197.91 69.051 186.875 70.0739 185.47 73.0705C184.065 76.0671 187.076 78.4778 187.076 78.4778C187.076 78.4778 185.27 79.6805 186.073 81.2842C186.875 82.8879 187.879 85.093 187.879 85.093L189.083 80.467L197.508 80.6674L200.72 81.4693L204.132 85.6789C204.132 85.6789 205.939 86.0798 206.541 85.278C207.143 84.4762 207.143 82.9187 207.143 82.9187Z" fill="#263238" stroke="#263238" stroke-linecap="round" stroke-linejoin="round"/>
<path d="M188.147 84.2964C188.147 84.2964 186.433 82.4152 186.433 84.4712C186.433 86.5272 188.492 88.5832 188.492 88.5832L188.147 84.2964Z" stroke="#263238" stroke-linecap="round" stroke-linejoin="round"/>
<path d="M187.879 79.1102C187.879 79.1102 188.08 90.3309 188.481 92.5359C188.883 94.741 193.7 100.554 194.704 100.554C195.707 100.554 197.107 100.955 198.306 99.9529C199.505 98.9506 204.528 94.3401 204.93 92.9368C205.235 91.5523 205.437 90.1469 205.532 88.7323C205.532 88.7323 208.744 87.1286 208.342 84.7231C207.941 82.3176 206.736 82.1171 206.134 82.7185C205.56 83.3549 205.024 84.0242 204.528 84.7231C204.528 84.7231 204.127 82.7185 203.324 81.9167C202.521 81.1148 200.113 80.7139 200.514 79.9121L202.722 75.502C202.722 75.502 198.908 78.7093 195.301 79.3107C192.832 79.6456 190.326 79.5779 187.879 79.1102Z" fill="white" stroke="#263238" stroke-linecap="round" stroke-linejoin="round"/>
<path d="M191.621 84.6203C191.621 85.1805 191.338 85.6483 190.982 85.6483C190.627 85.6483 190.344 85.2011 190.344 84.6203C190.344 84.0395 190.632 83.5923 190.982 83.5923C191.332 83.5923 191.621 84.0652 191.621 84.6203Z" fill="#263238"/>
<path d="M198.1 84.6203C198.1 85.1805 197.817 85.6483 197.462 85.6483C197.107 85.6483 196.824 85.2011 196.824 84.6203C196.824 84.0395 197.112 83.5923 197.462 83.5923C197.812 83.5923 198.1 84.0652 198.1 84.6203Z" fill="#263238"/>
<path d="M193.319 84.3579C193.319 84.3579 191.832 90.0839 192.47 90.4026C193.108 90.7212 196.721 89.3437 196.721 89.3437" stroke="#263238" stroke-linecap="round" stroke-linejoin="round"/>
<path d="M192.485 90.4024C191.618 90.7174 190.795 91.1461 190.041 91.6772C189.088 92.4173 190.787 93.0547 193.015 93.0547C195.244 93.0547 198.116 92.9519 199.392 92.3145C200.668 91.6772 199.603 91.1477 198.543 90.7211C197.573 90.395 196.578 90.1474 195.568 89.981C195.568 89.981 193.515 90.2996 192.485 90.4024Z" fill="#263238" stroke="#263238" stroke-linecap="round" stroke-linejoin="round"/>
<path d="M189.603 82.3433C189.603 82.3433 190.56 81.2793 192.367 82.1274" stroke="#263238" stroke-linecap="round" stroke-linejoin="round"/>
<path d="M195.445 82.2401C196.065 81.9166 196.773 81.8038 197.464 81.9188C198.154 82.0338 198.787 82.3704 199.269 82.8775" stroke="#263238" stroke-linecap="round" stroke-linejoin="round"/>
<path d="M175.625 105.19C175.625 105.19 164.817 136.03 164.817 136.544C164.817 137.058 163.273 139.968 164.817 141.854C166.361 143.74 169.104 144.424 170.648 143.74C172.192 143.057 180.257 128.834 180.257 128.834C180.257 128.834 176.14 106.912 175.625 105.19Z" fill="white" stroke="#263238" stroke-linecap="round" stroke-linejoin="round"/>
<path d="M176.572 116.673L176.031 114.925" stroke="#263238" stroke-linecap="round" stroke-linejoin="round"/>
<path d="M179.531 126.244L177.107 118.411" stroke="#263238" stroke-linecap="round" stroke-linejoin="round"/>
<path d="M167.236 132.442L198.291 119.248L198.975 122.502C198.975 122.502 175.47 140.666 173.757 142.034C172.043 143.401 171.353 144.434 169.125 144.434C166.896 144.434 163.978 142.378 163.978 139.638C164.019 137.861 164.427 136.111 165.177 134.498" fill="white"/>
<path d="M167.236 132.442L198.291 119.248L198.975 122.502C198.975 122.502 175.47 140.666 173.757 142.034C172.043 143.401 171.353 144.434 169.125 144.434C166.896 144.434 163.978 142.378 163.978 139.638C164.019 137.861 164.427 136.111 165.177 134.498" stroke="#263238" stroke-linecap="round" stroke-linejoin="round"/>
<path d="M194.812 121.037L195.98 123.957" stroke="#263238" stroke-linecap="round" stroke-linejoin="round"/>
<path d="M198.291 119.248C198.291 119.248 199.32 115.481 199.66 114.967C199.999 114.453 202.063 113.08 202.923 112.397C203.782 111.713 205.151 110.51 205.321 111.369C205.491 112.227 203.262 114.792 203.262 114.792C203.262 114.792 206.695 113.08 207.894 112.911C209.067 112.685 210.266 112.623 211.456 112.725C212.315 112.895 211.425 113.378 211.327 114.622C211.163 116.678 207.555 118.565 206.525 119.593C205.496 120.621 198.975 122.502 198.975 122.502L198.291 119.248Z" fill="white" stroke="#263238" stroke-linecap="round" stroke-linejoin="round"/>
<path d="M211.163 113.893L205.033 115.933" stroke="#263238" stroke-linecap="round" stroke-linejoin="round"/>
<path d="M210.874 115.789L205.615 117.686" stroke="#263238" stroke-linecap="round" stroke-linejoin="round"/>
<path d="M207.369 118.997L206.052 119.433" stroke="#263238" stroke-linecap="round" stroke-linejoin="round"/>
<path d="M203.262 114.792L201.235 114.915" stroke="#263238" stroke-linecap="round" stroke-linejoin="round"/>
<path d="M219.371 102.965C219.371 102.965 222.681 111.292 223.489 113.07C224.451 115.203 228.826 124.044 228.826 124.044L237.061 106.229L241.523 108.11C241.523 108.11 234.487 130.212 232.943 133.471C231.399 136.73 231.744 139.294 229.341 139.125C226.937 138.955 219.562 131.415 219.562 131.415L219.371 102.965Z" fill="white" stroke="#263238" stroke-linecap="round" stroke-linejoin="round"/>
<path d="M228.826 124.044L225.475 130.078" stroke="#263238" stroke-linecap="round" stroke-linejoin="round"/>
<path d="M227.519 126.29L224.745 128.475" stroke="#263238" stroke-linecap="round" stroke-linejoin="round"/>
<path d="M235.99 109.082L240.37 111.266" stroke="#263238" stroke-linecap="round" stroke-linejoin="round"/>
<path d="M237.061 106.229C237.061 106.229 236.891 101.428 237.405 100.4C237.92 99.3718 239.804 96.6322 239.979 95.9485C240.154 95.2649 241.008 94.0622 241.178 95.2598C241.257 96.1781 241.2 97.103 241.008 98.0045C241.008 98.0045 243.237 95.9485 243.406 95.2598C243.576 94.571 243.406 92.1758 244.096 92.1758C244.786 92.1758 245.465 92.6898 246.155 94.7458C246.844 96.8018 246.155 100.061 245.81 101.258C245.465 102.456 242.037 107.082 242.037 107.082L241.523 108.11L237.061 106.229Z" fill="white" stroke="#263238" stroke-linecap="round" stroke-linejoin="round"/>
<path d="M246.211 96.1181C246.211 96.1181 245.918 94.9513 245.63 95.8303C245.342 96.7092 244.461 100.055 244.461 100.055C244.461 100.055 239.932 103.139 239.932 103.998V104.856" stroke="#263238" stroke-linecap="round" stroke-linejoin="round"/>
<path d="M220.447 220.033L224.353 225.225C224.353 225.225 229.567 226.587 229.603 227.126C229.639 227.666 227.74 228.458 227.74 228.458L222.686 229.244C222.686 229.244 216.7 226.9 215.259 226.566C213.818 226.232 212.49 226.602 212.912 224.942C213.334 223.282 214.009 219.848 214.009 219.848L220.447 220.033Z" fill="white" stroke="#263238" stroke-linecap="round" stroke-linejoin="round"/>
<path d="M206.706 166.87C206.706 166.87 210.705 159.752 216.273 156.971C221.842 154.19 226.711 155.228 231.229 155.228C235.748 155.228 243.406 155.922 244.276 156.966C245.146 158.009 220.447 220.028 220.447 220.028L214.009 219.854C214.009 219.854 218.708 199.006 219.402 194.154C220.097 189.301 221.821 175.213 221.821 175.213C221.821 175.213 209.758 175.213 204.194 175.017" fill="#263238"/>
<path d="M206.706 166.87C206.706 166.87 210.705 159.752 216.273 156.971C221.842 154.19 226.711 155.228 231.229 155.228C235.748 155.228 243.406 155.922 244.276 156.966C245.146 158.009 220.447 220.028 220.447 220.028L214.009 219.854C214.009 219.854 218.708 199.006 219.402 194.154C220.097 189.301 221.821 175.213 221.821 175.213C221.821 175.213 209.758 175.213 204.194 175.017" stroke="#263238" stroke-linecap="round" stroke-linejoin="round"/>
<path d="M183.221 157.331C183.221 157.331 183.396 154.725 188.96 154.55C194.523 154.375 200.442 153.856 201.137 157.156C201.832 160.456 202.007 211.013 202.007 212.75C202.007 214.488 202.521 218.656 202.521 218.656L196.083 219.17C196.083 219.17 187.745 191.208 186.35 184.953C184.956 178.698 185.136 163.586 185.136 162.368" fill="#263238"/>
<path d="M183.221 157.331C183.221 157.331 183.396 154.725 188.96 154.55C194.523 154.375 200.442 153.856 201.137 157.156C201.832 160.456 202.007 211.013 202.007 212.75C202.007 214.488 202.521 218.656 202.521 218.656L196.083 219.17C196.083 219.17 187.745 191.208 186.35 184.953C184.956 178.698 185.136 163.586 185.136 162.368" stroke="#263238" stroke-linecap="round" stroke-linejoin="round"/>
<path d="M202.532 218.656C202.532 218.656 204.791 226.299 205.311 227.168C205.831 228.036 206.181 228.561 204.616 229.599C203.051 230.637 199.922 231.336 198.008 230.817C196.093 230.298 195.743 226.993 196.093 224.217C196.304 222.543 196.304 220.849 196.093 219.175L202.532 218.656Z" fill="white" stroke="#263238" stroke-linecap="round" stroke-linejoin="round"/>
<path d="M224.225 35.4663H186.824C186.17 35.4663 185.523 35.5949 184.919 35.8447C184.316 36.0944 183.767 36.4606 183.305 36.9221C182.843 37.3836 182.476 37.9316 182.226 38.5346C181.976 39.1376 181.847 39.784 181.847 40.4367V57.9744C181.847 58.6271 181.976 59.2734 182.226 59.8765C182.476 60.4795 182.843 61.0274 183.305 61.489C183.767 61.9505 184.316 62.3166 184.919 62.5664C185.523 62.8162 186.17 62.9447 186.824 62.9447H213.309V70.7935L218.023 62.9447H224.23C224.884 62.9447 225.531 62.8162 226.135 62.5664C226.738 62.3166 227.287 61.9505 227.749 61.489C228.211 61.0274 228.578 60.4795 228.828 59.8765C229.078 59.2734 229.207 58.6271 229.207 57.9744V40.4161C229.201 39.1006 228.674 37.8408 227.74 36.913C226.806 35.9852 225.542 35.4649 224.225 35.4663Z" fill="white" stroke="#263238" stroke-linecap="round" stroke-linejoin="round"/>
<path d="M213.88 43.1763H223.422" stroke="#263238" stroke-linecap="round" stroke-linejoin="round"/>
<path d="M198.327 43.1763H211.6" stroke="#263238" stroke-linecap="round" stroke-linejoin="round"/>
<path d="M188.281 43.1763H195.862" stroke="#263238" stroke-linecap="round" stroke-linejoin="round"/>
<path d="M217.292 47.3501H223.422" stroke="#263238" stroke-linecap="round" stroke-linejoin="round"/>
<path d="M205.532 47.3501H215.964" stroke="#263238" stroke-linecap="round" stroke-linejoin="round"/>
<path d="M188.281 47.3501H204.585" stroke="#263238" stroke-linecap="round" stroke-linejoin="round"/>
<path d="M211.981 51.5288H223.422" stroke="#263238" stroke-linecap="round" stroke-linejoin="round"/>
<path d="M196.999 51.5288H210.087" stroke="#263238" stroke-linecap="round" stroke-linejoin="round"/>
<path d="M188.281 51.5288H195.486" stroke="#263238" stroke-linecap="round" stroke-linejoin="round"/>
<path d="M220.138 55.7075H223.422" stroke="#263238" stroke-linecap="round" stroke-linejoin="round"/>
<path d="M209.516 55.7075H218.265" stroke="#263238" stroke-linecap="round" stroke-linejoin="round"/>
<path d="M204.776 55.7075H208.188" stroke="#263238" stroke-linecap="round" stroke-linejoin="round"/>
<path d="M190.36 55.7075H202.31" stroke="#263238" stroke-linecap="round" stroke-linejoin="round"/>
<path d="M188.281 55.7075H189.397" stroke="#263238" stroke-linecap="round" stroke-linejoin="round"/>
<path d="M275.83 25.4175H238.419C237.099 25.4175 235.834 25.9411 234.9 26.8733C233.967 27.8054 233.443 29.0696 233.443 30.3879V47.9255C233.443 48.5783 233.571 49.2246 233.821 49.8276C234.071 50.4307 234.438 50.9786 234.9 51.4401C235.362 51.9017 235.911 52.2678 236.515 52.5176C237.119 52.7674 237.766 52.8959 238.419 52.8959H265.82L272.161 63.5306L271.132 52.8959H275.82C276.474 52.8959 277.121 52.7674 277.725 52.5176C278.329 52.2678 278.877 51.9017 279.339 51.4401C279.801 50.9786 280.168 50.4307 280.418 49.8276C280.668 49.2246 280.797 48.5783 280.797 47.9255V30.3879C280.797 29.0714 280.274 27.8087 279.343 26.8769C278.412 25.9451 277.149 25.4202 275.83 25.4175Z" fill="#06BCC1" stroke="#263238" stroke-linecap="round" stroke-linejoin="round"/>
<path d="M265.084 32.562H274.631" stroke="#263238" stroke-linecap="round" stroke-linejoin="round"/>
<path d="M249.531 32.562H262.809" stroke="#263238" stroke-linecap="round" stroke-linejoin="round"/>
<path d="M239.485 32.562H247.066" stroke="#263238" stroke-linecap="round" stroke-linejoin="round"/>
<path d="M268.496 36.7407H274.631" stroke="#263238" stroke-linecap="round" stroke-linejoin="round"/>
<path d="M256.741 36.7407H267.169" stroke="#263238" stroke-linecap="round" stroke-linejoin="round"/>
<path d="M239.485 36.7407H255.789" stroke="#263238" stroke-linecap="round" stroke-linejoin="round"/>
<path d="M263.19 40.9199H274.631" stroke="#263238" stroke-linecap="round" stroke-linejoin="round"/>
<path d="M248.203 40.9199H261.291" stroke="#263238" stroke-linecap="round" stroke-linejoin="round"/>
<path d="M239.485 40.9199H246.69" stroke="#263238" stroke-linecap="round" stroke-linejoin="round"/>
<path d="M271.343 45.0986H274.631" stroke="#263238" stroke-linecap="round" stroke-linejoin="round"/>
<path d="M260.725 45.0986H269.449" stroke="#263238" stroke-linecap="round" stroke-linejoin="round"/>
<path d="M255.98 45.0986H259.392" stroke="#263238" stroke-linecap="round" stroke-linejoin="round"/>
<path d="M241.569 45.0986H253.515" stroke="#263238" stroke-linecap="round" stroke-linejoin="round"/>
<path d="M239.485 45.0986H240.617" stroke="#263238" stroke-linecap="round" stroke-linejoin="round"/>
</svg>
