<svg width="361" height="362" viewBox="0 0 361 362" fill="none" xmlns="http://www.w3.org/2000/svg">
<path d="M118.659 288.5C118.659 288.5 164.458 308.759 212.058 285.293C259.657 261.827 286.095 210.273 308.61 169.076C331.124 127.879 322.29 83.6552 288.414 61.316C254.538 38.9768 228.891 66.3718 179.578 64.205C130.266 62.0383 117.464 53.949 74.9048 79.105C32.3456 104.261 20.912 170.166 50.144 221.699C79.376 273.231 118.659 288.5 118.659 288.5Z" fill="#06BCC1"/>
<path opacity="0.7" d="M118.659 288.5C118.659 288.5 164.458 308.759 212.058 285.293C259.657 261.827 286.095 210.273 308.61 169.076C331.124 127.879 322.29 83.6552 288.414 61.316C254.538 38.9768 228.891 66.3718 179.578 64.205C130.266 62.0383 117.464 53.949 74.9048 79.105C32.3456 104.261 20.912 170.166 50.144 221.699C79.376 273.231 118.659 288.5 118.659 288.5Z" fill="white"/>
<path d="M76.3808 99.4869C65.3905 113.646 58.6252 130.64 56.8688 148.499L43.3472 146.52C45.461 126.159 53.2738 106.814 65.8832 90.7188L76.3808 99.4869Z" stroke="#808080" stroke-linecap="round" stroke-linejoin="round"/>
<path d="M194.684 258.057C175.697 266.295 154.762 268.932 134.333 265.659C113.905 262.385 94.8309 253.337 79.3472 239.575L88.412 229.319C101.954 241.345 118.632 249.25 136.491 252.111C154.351 254.971 172.654 252.667 189.255 245.468L194.684 258.057Z" stroke="#808080" stroke-linecap="round" stroke-linejoin="round"/>
<path d="M151.448 157.968V48.9078C122.933 48.872 95.5532 60.111 75.2432 80.1884L84.5384 90.2638L88.4624 94.5034L95.324 101.914L144.37 154.862L147.25 157.989L147.632 158.401L148.935 159.802L149.382 160.286L150.102 161.008L151.189 162.185L149.346 162.727L119.437 230.655C111.951 227.338 105.025 222.871 98.9096 217.416L146.502 163.558L142.038 164.865L76.6112 184.034L66.92 186.872L61.3832 188.49L48.2432 192.339C54.2876 210.555 65.0168 226.849 79.3472 239.575L88.4048 229.319C101.947 241.344 118.624 249.25 136.484 252.11C154.344 254.971 172.647 252.667 189.248 245.468L186.98 240.16L182.977 230.879C175.666 234.065 167.914 236.116 159.987 236.96L151.448 157.968ZM151.448 157.968L142.938 78.9751C129.108 80.4499 115.916 85.5763 104.706 93.8317L151.448 157.968Z" stroke="#808080" stroke-linecap="round" stroke-linejoin="round"/>
<path d="M80.7872 103.199C70.4779 116.528 64.1557 132.521 62.5568 149.315L56.8688 148.499C58.6278 130.645 65.393 113.657 76.3808 99.5015L80.7872 103.199Z" stroke="#808080" stroke-linecap="round" stroke-linejoin="round"/>
<path d="M146.509 163.558L148.114 161.738L149.202 160.51L149.418 160.265L151.448 157.968H147.286H146.163H122.151H72.248" stroke="#808080" stroke-linecap="round" stroke-linejoin="round"/>
<path d="M62.168 157.968H56.408H34.808" stroke="#808080" stroke-linecap="round" stroke-linejoin="round"/>
<path d="M79.34 239.575L67.208 253.305" stroke="#808080" stroke-linecap="round" stroke-linejoin="round"/>
<path d="M88.4048 229.319L92.228 224.992L98.9168 217.416" stroke="#808080" stroke-linecap="round" stroke-linejoin="round"/>
<path d="M246.488 157.967C246.494 176.563 241.078 194.754 230.907 210.301C220.737 225.848 206.256 238.072 189.248 245.468L186.951 240.159C201.099 234.011 213.418 224.292 222.709 211.949C232 199.606 237.946 185.059 239.968 169.726C241.99 154.393 240.019 138.796 234.247 124.455C228.475 110.113 219.099 97.5146 207.032 87.8874L210.632 83.3589C221.826 92.2816 230.865 103.626 237.074 116.546C243.283 129.465 246.501 143.625 246.488 157.967Z" stroke="#808080" stroke-linecap="round" stroke-linejoin="round"/>
<path d="M207.032 87.8876L200.754 95.8323C195.468 91.5962 189.66 88.0617 183.474 85.3164L187.549 76.0571C194.52 79.1493 201.068 83.1252 207.032 87.8876Z" stroke="#808080" stroke-linecap="round" stroke-linejoin="round"/>
<path d="M210.625 83.3594L229.928 59.0195H251.528" stroke="#808080" stroke-linecap="round" stroke-linejoin="round"/>
<path d="M200.754 95.7964L151.448 157.968" stroke="#808080" stroke-linecap="round" stroke-linejoin="round"/>
<path d="M144.536 93.8173L142.938 78.9751C129.108 80.45 115.916 85.5764 104.706 93.8318L113.49 105.886C122.595 99.1851 133.307 95.0211 144.536 93.8173Z" stroke="#808080" stroke-linecap="round" stroke-linejoin="round"/>
<path d="M158.612 224.472L159.987 236.96C167.914 236.116 175.666 234.065 182.977 230.879L177.937 219.178C171.81 221.943 165.289 223.73 158.612 224.472Z" stroke="#808080" stroke-linecap="round" stroke-linejoin="round"/>
<path d="M159.987 236.96C146.165 238.448 132.196 236.274 119.473 230.655L149.382 162.727L146.538 163.558L98.9456 217.416C90.5603 209.965 83.8491 200.813 79.2564 190.564C74.6637 180.315 72.2944 169.204 72.3056 157.968C72.3056 155.541 72.4136 153.136 72.6368 150.745C73.9694 135.809 79.5079 121.561 88.6064 109.663C90.7008 106.92 92.9713 104.317 95.4032 101.87C98.3072 98.9411 101.437 96.246 104.763 93.8101L151.506 157.946L159.987 236.96Z" stroke="#808080" stroke-linecap="round" stroke-linejoin="round"/>
<path d="M189.608 71.2974L187.527 76.0209" stroke="#808080" stroke-linecap="round" stroke-linejoin="round"/>
<path d="M183.452 85.2803L151.448 157.968" stroke="#808080" stroke-linecap="round" stroke-linejoin="round"/>
<path d="M141.296 63.7715L141.85 68.9211L142.938 78.9748" stroke="#808080" stroke-linecap="round" stroke-linejoin="round"/>
<path d="M151.448 157.968L65.048 119.688" stroke="#808080" stroke-linecap="round" stroke-linejoin="round"/>
<path d="M72.7016 166.505L62.6792 167.595C62.3379 164.398 62.1672 161.184 62.168 157.968H72.248C72.2462 160.82 72.3976 163.669 72.7016 166.505Z" stroke="#808080" stroke-linecap="round" stroke-linejoin="round"/>
<path d="M62.6792 167.595L57.5456 168.151" stroke="#808080" stroke-linecap="round" stroke-linejoin="round"/>
<path d="M151.448 157.968L75.2 213.884" stroke="#808080" stroke-linecap="round" stroke-linejoin="round"/>
<path d="M113.288 244.638L115.369 239.914L119.444 230.655" stroke="#808080" stroke-linecap="round" stroke-linejoin="round"/>
<path d="M149.353 162.727L149.684 161.969L150.022 161.203L150.109 161.008L151.448 157.968" stroke="#808080" stroke-linecap="round" stroke-linejoin="round"/>
<path d="M162.334 264.947L161.046 247.014L159.958 236.96" stroke="#808080" stroke-linecap="round" stroke-linejoin="round"/>
<path d="M207.19 234.454L204.138 230.272L198.19 222.104" stroke="#808080" stroke-linecap="round" stroke-linejoin="round"/>
<path d="M151.448 157.968L237.848 196.247" stroke="#808080" stroke-linecap="round" stroke-linejoin="round"/>
<path d="M151.448 157.967L245.35 147.784" stroke="#808080" stroke-linecap="round" stroke-linejoin="round"/>
<path d="M227.696 102.051L223.527 105.113" stroke="#808080" stroke-linecap="round" stroke-linejoin="round"/>
<path d="M215.384 111.079L151.448 157.968" stroke="#808080" stroke-linecap="round" stroke-linejoin="round"/>
<path d="M151.448 98.0063C142.606 106.269 119.977 114.618 93.5888 132.32C93.5888 132.32 95.2376 192.159 151.448 224.87V98.0063Z" fill="#06BCC1" stroke="#263238" stroke-linecap="round" stroke-linejoin="round"/>
<path d="M151.448 98.0063C160.29 106.269 182.919 114.618 209.307 132.32C209.307 132.32 207.658 192.159 151.448 224.87V98.0063Z" fill="#263238" stroke="#263238" stroke-linecap="round" stroke-linejoin="round"/>
<path d="M151.448 103.098C140.778 110.53 122.281 117.608 97.8296 134.018C97.8296 134.018 99.3632 189.465 151.448 219.77C203.533 189.465 205.059 134.054 205.059 134.054C180.615 117.608 162.205 110.53 151.448 103.098Z" fill="#263238" stroke="#263238" stroke-linecap="round" stroke-linejoin="round"/>
<path d="M205.059 134.054C180.579 117.644 162.205 110.566 151.448 103.134V219.77C203.533 189.465 205.059 134.054 205.059 134.054Z" fill="#06BCC1" stroke="#263238" stroke-linecap="round" stroke-linejoin="round"/>
<path d="M171.759 159H131.799C131.368 159.005 130.94 158.925 130.54 158.764C130.14 158.602 129.775 158.364 129.467 158.061C129.159 157.759 128.913 157.398 128.744 157.001C128.574 156.603 128.485 156.176 128.48 155.743V137.261C128.48 124.643 138.927 114.373 151.779 114.373C164.631 114.373 175.107 124.665 175.107 137.261V155.721C175.104 156.158 175.015 156.59 174.845 156.991C174.675 157.393 174.427 157.757 174.115 158.062C173.804 158.367 173.436 158.607 173.031 158.768C172.627 158.929 172.194 159.008 171.759 159ZM135.118 152.5H168.44V137.261C168.313 132.913 166.501 128.787 163.391 125.757C160.28 122.727 156.115 121.032 151.779 121.032C147.443 121.032 143.278 122.727 140.168 125.757C137.057 128.787 135.246 132.913 135.118 137.261V152.5Z" fill="white" stroke="#263238" stroke-linecap="round" stroke-linejoin="round"/>
<path d="M176.886 150.095H126.01V192.311H176.886V150.095Z" fill="white" stroke="#263238" stroke-linecap="round" stroke-linejoin="round"/>
<path d="M156.74 167.624C156.688 166.185 156.082 164.822 155.049 163.822C154.015 162.822 152.635 162.263 151.2 162.263C149.764 162.263 148.384 162.822 147.351 163.822C146.317 164.822 145.711 166.185 145.659 167.624C145.66 168.609 145.929 169.576 146.437 170.419C146.944 171.263 147.671 171.952 148.539 172.413L147.61 182.004H154.731L153.802 172.413C154.681 171.96 155.42 171.274 155.938 170.43C156.456 169.586 156.733 168.615 156.74 167.624Z" fill="#263238" stroke="#263238" stroke-linecap="round" stroke-linejoin="round"/>
<path d="M277.146 67.9318H291.596V59.0192H283.208L282.358 56.8452H277.146V67.9318Z" fill="#06BCC1" stroke="#263238" stroke-miterlimit="10"/>
<path d="M277.146 82.3336H291.596V73.4283H283.208L282.358 71.2471H277.146V82.3336Z" fill="#06BCC1" stroke="#263238" stroke-miterlimit="10"/>
<path d="M277.146 96.7422H291.596V87.8296H283.208L282.358 85.6484H277.146V96.7422Z" fill="#263238" stroke="#263238" stroke-miterlimit="10"/>
<path d="M277.146 187.103H291.596V178.191H283.208L282.358 176.017H277.146V187.103Z" fill="#06BCC1" stroke="#263238" stroke-miterlimit="10"/>
<path d="M277.146 201.505H291.596V192.6H283.208L282.358 190.418H277.146V201.505Z" fill="#06BCC1" stroke="#263238" stroke-miterlimit="10"/>
<path d="M277.146 215.914H291.596V207.001H283.208L282.358 204.827H277.146V215.914Z" fill="#263238" stroke="#263238" stroke-miterlimit="10"/>
<path d="M277.146 231.16H291.596V222.248H283.208L282.358 220.074H277.146V231.16Z" fill="#06BCC1" stroke="#263238" stroke-miterlimit="10"/>
<path d="M277.146 245.562H291.596V236.657H283.208L282.358 234.476H277.146V245.562Z" fill="#06BCC1" stroke="#263238" stroke-miterlimit="10"/>
<path d="M277.146 259.971H291.596V251.058H283.208L282.358 248.884H277.146V259.971Z" fill="#263238" stroke="#263238" stroke-miterlimit="10"/>
<path d="M255.668 139.485C255.563 138.043 255.563 136.594 255.668 135.152" stroke="#263238" stroke-linecap="round" stroke-linejoin="round"/>
<path d="M260.355 139.11C260.269 137.891 260.269 136.667 260.355 135.448" stroke="#263238" stroke-linecap="round" stroke-linejoin="round"/>
<path d="M255.574 137.326L260.276 137.29" stroke="#263238" stroke-linecap="round" stroke-linejoin="round"/>
<path d="M255.675 134.588C255.799 133.147 256.02 131.716 256.338 130.305" stroke="#263238" stroke-linecap="round" stroke-linejoin="round"/>
<path d="M260.362 134.978C260.47 133.764 260.658 132.557 260.924 131.367" stroke="#263238" stroke-linecap="round" stroke-linejoin="round"/>
<path d="M255.934 132.436L260.578 133.158" stroke="#263238" stroke-linecap="round" stroke-linejoin="round"/>
<path d="M256.467 129.756C256.812 128.35 257.262 126.971 257.814 125.632" stroke="#263238" stroke-linecap="round" stroke-linejoin="round"/>
<path d="M261.032 130.898C261.325 129.712 261.703 128.548 262.162 127.417" stroke="#263238" stroke-linecap="round" stroke-linejoin="round"/>
<path d="M257.065 127.669L261.536 129.134" stroke="#263238" stroke-linecap="round" stroke-linejoin="round"/>
<path d="M258.03 125.112C258.6 123.783 259.264 122.497 260.017 121.263" stroke="#263238" stroke-linecap="round" stroke-linejoin="round"/>
<path d="M262.35 126.976C262.832 125.854 263.393 124.768 264.027 123.726" stroke="#263238" stroke-linecap="round" stroke-linejoin="round"/>
<path d="M258.951 123.155L263.127 125.321" stroke="#263238" stroke-linecap="round" stroke-linejoin="round"/>
<path d="M260.312 120.786C260.694 120.172 261.104 119.58 261.543 119.002L262.897 117.319" stroke="#263238" stroke-linecap="round" stroke-linejoin="round"/>
<path d="M264.279 123.321C264.602 122.801 264.95 122.297 265.323 121.812L266.468 120.367" stroke="#263238" stroke-linecap="round" stroke-linejoin="round"/>
<path d="M261.543 119.002L265.323 121.811" stroke="#263238" stroke-linecap="round" stroke-linejoin="round"/>
<path d="M263.25 116.879C263.739 116.351 264.258 115.846 264.762 115.326C265.021 115.073 265.258 114.806 265.532 114.604L266.36 113.881" stroke="#263238" stroke-linecap="round" stroke-linejoin="round"/>
<path d="M266.763 120.012L268.045 118.705C268.261 118.489 268.462 118.258 268.693 118.056L269.413 117.478" stroke="#263238" stroke-linecap="round" stroke-linejoin="round"/>
<path d="M264.762 115.326L268.045 118.706" stroke="#263238" stroke-linecap="round" stroke-linejoin="round"/>
<path d="M266.799 113.512C267.34 113.032 267.915 112.593 268.52 112.198C269.118 111.801 269.708 111.382 270.32 111" stroke="#263238" stroke-linecap="round" stroke-linejoin="round"/>
<path d="M269.766 117.167C270.217 116.763 270.698 116.393 271.206 116.062C271.717 115.73 272.214 115.34 272.725 115.051" stroke="#263238" stroke-linecap="round" stroke-linejoin="round"/>
<path d="M268.52 112.199L271.213 116.063" stroke="#263238" stroke-linecap="round" stroke-linejoin="round"/>
<path d="M270.817 110.731L272.718 109.699C273.373 109.403 274.042 109.136 274.705 108.854" stroke="#263238" stroke-linecap="round" stroke-linejoin="round"/>
<path d="M273.157 114.819L274.762 113.953L276.44 113.239" stroke="#263238" stroke-linecap="round" stroke-linejoin="round"/>
<path d="M272.718 109.7L274.762 113.954" stroke="#263238" stroke-linecap="round" stroke-linejoin="round"/>
<path d="M275.23 108.63C275.893 108.363 276.598 108.19 277.282 107.959L278.312 107.641L279.37 107.417" stroke="#263238" stroke-linecap="round" stroke-linejoin="round"/>
<path d="M276.879 113.05C277.448 112.819 278.038 112.675 278.614 112.487L279.493 112.213L280.386 112.025" stroke="#263238" stroke-linecap="round" stroke-linejoin="round"/>
<path d="M277.282 107.959L278.614 112.487" stroke="#263238" stroke-linecap="round" stroke-linejoin="round"/>
<path d="M279.925 107.33C280.624 107.166 281.334 107.048 282.049 106.977C282.769 106.905 283.489 106.804 284.209 106.76" stroke="#263238" stroke-linecap="round" stroke-linejoin="round"/>
<path d="M280.854 111.931C281.445 111.783 282.047 111.682 282.654 111.628C283.258 111.57 283.863 111.477 284.468 111.44" stroke="#263238" stroke-linecap="round" stroke-linejoin="round"/>
<path d="M282.049 106.948L282.654 111.628" stroke="#263238" stroke-linecap="round" stroke-linejoin="round"/>
<path d="M284.763 106.717L286.923 106.688L289.083 106.861" stroke="#263238" stroke-linecap="round" stroke-linejoin="round"/>
<path d="M284.943 111.433L286.772 111.404L288.594 111.556" stroke="#263238" stroke-linecap="round" stroke-linejoin="round"/>
<path d="M286.923 106.688L286.772 111.404" stroke="#263238" stroke-linecap="round" stroke-linejoin="round"/>
<path d="M289.645 106.904C290.365 106.991 291.085 107.15 291.805 107.272C292.158 107.337 292.525 107.395 292.863 107.467L293.907 107.763" stroke="#263238" stroke-linecap="round" stroke-linejoin="round"/>
<path d="M289.069 111.592C289.674 111.664 290.271 111.801 290.869 111.902C291.164 111.953 291.466 112.003 291.769 112.068L292.64 112.313" stroke="#263238" stroke-linecap="round" stroke-linejoin="round"/>
<path d="M291.776 107.273L290.869 111.903" stroke="#263238" stroke-linecap="round" stroke-linejoin="round"/>
<path d="M294.418 107.923C295.805 108.321 297.162 108.815 298.479 109.402" stroke="#263238" stroke-linecap="round" stroke-linejoin="round"/>
<path d="M293.101 112.451C294.269 112.789 295.414 113.204 296.528 113.692" stroke="#263238" stroke-linecap="round" stroke-linejoin="round"/>
<path d="M296.47 108.595L294.836 113.022" stroke="#263238" stroke-linecap="round" stroke-linejoin="round"/>
<path d="M298.983 109.664L300.906 110.653C301.532 111.007 302.122 111.425 302.727 111.815" stroke="#263238" stroke-linecap="round" stroke-linejoin="round"/>
<path d="M296.953 113.917L298.58 114.755C299.106 115.05 299.602 115.411 300.121 115.736" stroke="#263238" stroke-linecap="round" stroke-linejoin="round"/>
<path d="M300.906 110.653L298.58 114.755" stroke="#263238" stroke-linecap="round" stroke-linejoin="round"/>
<path d="M303.202 112.119C303.8 112.522 304.375 112.958 304.923 113.426C305.498 113.862 306.046 114.332 306.565 114.834" stroke="#263238" stroke-linecap="round" stroke-linejoin="round"/>
<path d="M300.517 115.998C301.019 116.335 301.5 116.704 301.957 117.102C302.448 117.468 302.915 117.866 303.354 118.294" stroke="#263238" stroke-linecap="round" stroke-linejoin="round"/>
<path d="M304.923 113.426L301.971 117.103" stroke="#263238" stroke-linecap="round" stroke-linejoin="round"/>
<path d="M306.968 115.232C307.472 115.745 308.012 116.229 308.487 116.77L309.862 118.446" stroke="#263238" stroke-linecap="round" stroke-linejoin="round"/>
<path d="M303.706 118.626C304.131 119.067 304.592 119.471 304.988 119.926L306.154 121.37" stroke="#263238" stroke-linecap="round" stroke-linejoin="round"/>
<path d="M308.487 116.771L304.988 119.927" stroke="#263238" stroke-linecap="round" stroke-linejoin="round"/>
<path d="M310.222 118.887C311.071 120.058 311.843 121.284 312.534 122.556" stroke="#263238" stroke-linecap="round" stroke-linejoin="round"/>
<path d="M306.457 121.704C307.169 122.694 307.819 123.729 308.401 124.802" stroke="#263238" stroke-linecap="round" stroke-linejoin="round"/>
<path d="M311.432 120.678L307.479 123.226" stroke="#263238" stroke-linecap="round" stroke-linejoin="round"/>
<path d="M312.8 123.047L313.304 124L313.729 125.004C313.995 125.669 314.312 126.326 314.528 127.012" stroke="#263238" stroke-linecap="round" stroke-linejoin="round"/>
<path d="M308.624 125.221L309.056 126.03L309.409 126.875C309.632 127.445 309.913 127.994 310.129 128.572" stroke="#263238" stroke-linecap="round" stroke-linejoin="round"/>
<path d="M313.729 125.004L309.409 126.873" stroke="#263238" stroke-linecap="round" stroke-linejoin="round"/>
<path d="M314.701 127.554C314.91 128.276 315.14 128.926 315.32 129.627L315.766 131.75" stroke="#263238" stroke-linecap="round" stroke-linejoin="round"/>
<path d="M310.23 129.034C310.402 129.619 310.604 130.197 310.762 130.789L311.137 132.58" stroke="#263238" stroke-linecap="round" stroke-linejoin="round"/>
<path d="M315.32 129.626L310.762 130.788" stroke="#263238" stroke-linecap="round" stroke-linejoin="round"/>
<path d="M315.882 132.306C316.088 133.742 316.203 135.189 316.227 136.64" stroke="#263238" stroke-linecap="round" stroke-linejoin="round"/>
<path d="M311.238 133.05C311.404 134.247 311.5 135.453 311.526 136.661" stroke="#263238" stroke-linecap="round" stroke-linejoin="round"/>
<path d="M316.119 134.458L311.432 134.87" stroke="#263238" stroke-linecap="round" stroke-linejoin="round"/>
<path d="M316.227 137.188C316.227 137.55 316.227 137.911 316.227 138.272L316.141 139.348C316.069 140.07 316.062 140.793 315.925 141.515" stroke="#263238" stroke-linecap="round" stroke-linejoin="round"/>
<path d="M311.533 137.181C311.533 137.484 311.533 137.788 311.533 138.091L311.461 139.008C311.431 139.618 311.368 140.226 311.274 140.829" stroke="#263238" stroke-linecap="round" stroke-linejoin="round"/>
<path d="M316.148 139.347L311.461 139.008" stroke="#263238" stroke-linecap="round" stroke-linejoin="round"/>
<path d="M315.831 142.063C315.694 142.786 315.594 143.508 315.428 144.194L314.838 146.281" stroke="#263238" stroke-linecap="round" stroke-linejoin="round"/>
<path d="M311.187 141.276C311.065 141.876 310.986 142.483 310.842 143.075L310.345 144.837" stroke="#263238" stroke-linecap="round" stroke-linejoin="round"/>
<path d="M315.428 144.194L310.849 143.097" stroke="#263238" stroke-linecap="round" stroke-linejoin="round"/>
<path d="M314.679 146.823C314.202 148.189 313.634 149.521 312.98 150.81" stroke="#263238" stroke-linecap="round" stroke-linejoin="round"/>
<path d="M310.222 145.321C309.814 146.47 309.333 147.592 308.782 148.679" stroke="#263238" stroke-linecap="round" stroke-linejoin="round"/>
<path d="M313.894 148.844L309.553 147.025" stroke="#263238" stroke-linecap="round" stroke-linejoin="round"/>
<path d="M312.721 151.315L312.224 152.276C312.044 152.587 311.835 152.883 311.648 153.193L310.467 154.999" stroke="#263238" stroke-linecap="round" stroke-linejoin="round"/>
<path d="M308.566 149.105L308.149 149.922C307.998 150.189 307.818 150.434 307.659 150.694L306.658 152.233" stroke="#263238" stroke-linecap="round" stroke-linejoin="round"/>
<path d="M311.648 153.192L307.659 150.694" stroke="#263238" stroke-linecap="round" stroke-linejoin="round"/>
<path d="M310.114 155.447L308.754 157.166C308.3 157.729 307.76 158.213 307.263 158.733" stroke="#263238" stroke-linecap="round" stroke-linejoin="round"/>
<path d="M306.356 152.601L305.211 154.045C304.83 154.522 304.369 154.926 303.951 155.366" stroke="#263238" stroke-linecap="round" stroke-linejoin="round"/>
<path d="M308.754 157.13L305.211 154.031" stroke="#263238" stroke-linecap="round" stroke-linejoin="round"/>
<path d="M306.867 159.102C306.358 159.617 305.817 160.099 305.247 160.546C304.705 161.022 304.136 161.466 303.541 161.874" stroke="#263238" stroke-linecap="round" stroke-linejoin="round"/>
<path d="M303.613 155.721C303.186 156.158 302.729 156.563 302.245 156.934C301.789 157.34 301.308 157.716 300.805 158.06" stroke="#263238" stroke-linecap="round" stroke-linejoin="round"/>
<path d="M305.247 160.539L302.245 156.906" stroke="#263238" stroke-linecap="round" stroke-linejoin="round"/>
<path d="M303.08 162.222C302.468 162.612 301.899 163.059 301.258 163.399L299.358 164.388" stroke="#263238" stroke-linecap="round" stroke-linejoin="round"/>
<path d="M300.387 158.292C299.869 158.624 299.394 159.014 298.854 159.288L297.248 160.162" stroke="#263238" stroke-linecap="round" stroke-linejoin="round"/>
<path d="M301.258 163.363L298.882 159.289" stroke="#263238" stroke-linecap="round" stroke-linejoin="round"/>
<path d="M298.854 164.641C297.544 165.246 296.194 165.759 294.814 166.178" stroke="#263238" stroke-linecap="round" stroke-linejoin="round"/>
<path d="M296.852 160.373C295.744 160.88 294.604 161.314 293.439 161.672" stroke="#263238" stroke-linecap="round" stroke-linejoin="round"/>
<path d="M296.859 165.486L295.167 161.081" stroke="#263238" stroke-linecap="round" stroke-linejoin="round"/>
<path d="M294.274 166.346C293.589 166.566 292.889 166.74 292.179 166.865C291.467 167.031 290.746 167.157 290.019 167.241" stroke="#263238" stroke-linecap="round" stroke-linejoin="round"/>
<path d="M292.978 161.81C292.4 161.998 291.808 162.143 291.207 162.243C290.617 162.39 290.018 162.499 289.414 162.568" stroke="#263238" stroke-linecap="round" stroke-linejoin="round"/>
<path d="M292.179 166.866L291.207 162.243" stroke="#263238" stroke-linecap="round" stroke-linejoin="round"/>
<path d="M289.494 167.277C288.774 167.342 288.054 167.479 287.334 167.472H285.174" stroke="#263238" stroke-linecap="round" stroke-linejoin="round"/>
<path d="M288.939 162.619C288.335 162.706 287.727 162.762 287.118 162.785H285.289" stroke="#263238" stroke-linecap="round" stroke-linejoin="round"/>
<path d="M287.341 167.501L287.118 162.785" stroke="#263238" stroke-linecap="round" stroke-linejoin="round"/>
<path d="M284.619 167.515C283.169 167.447 281.725 167.276 280.299 167.003" stroke="#263238" stroke-linecap="round" stroke-linejoin="round"/>
<path d="M284.814 162.799C283.605 162.737 282.402 162.592 281.214 162.366" stroke="#263238" stroke-linecap="round" stroke-linejoin="round"/>
<path d="M282.466 167.342L282.992 162.655" stroke="#263238" stroke-linecap="round" stroke-linejoin="round"/>
<path d="M279.774 166.901C279.065 166.771 278.365 166.598 277.678 166.381C276.979 166.207 276.291 165.988 275.619 165.725" stroke="#263238" stroke-linecap="round" stroke-linejoin="round"/>
<path d="M280.724 162.279C280.125 162.171 279.533 162.024 278.953 161.838C278.364 161.692 277.784 161.509 277.218 161.29" stroke="#263238" stroke-linecap="round" stroke-linejoin="round"/>
<path d="M277.678 166.382L278.953 161.839" stroke="#263238" stroke-linecap="round" stroke-linejoin="round"/>
<path d="M275.094 165.521C274.424 165.239 273.733 165.015 273.092 164.691L271.17 163.666" stroke="#263238" stroke-linecap="round" stroke-linejoin="round"/>
<path d="M276.771 161.115C276.21 160.877 275.626 160.697 275.086 160.394L273.466 159.557" stroke="#263238" stroke-linecap="round" stroke-linejoin="round"/>
<path d="M273.092 164.692L275.086 160.416" stroke="#263238" stroke-linecap="round" stroke-linejoin="round"/>
<path d="M270.673 163.434C269.478 162.625 268.225 161.91 267.073 160.986" stroke="#263238" stroke-linecap="round" stroke-linejoin="round"/>
<path d="M273.027 159.332C272.019 158.61 270.946 158.047 270.01 157.267" stroke="#263238" stroke-linecap="round" stroke-linejoin="round"/>
<path d="M268.858 162.251L271.508 158.351" stroke="#263238" stroke-linecap="round" stroke-linejoin="round"/>
<path d="M266.67 160.64C265.553 159.723 264.504 158.726 263.53 157.657" stroke="#263238" stroke-linecap="round" stroke-linejoin="round"/>
<path d="M269.65 156.991C268.71 156.214 267.825 155.372 267.001 154.472" stroke="#263238" stroke-linecap="round" stroke-linejoin="round"/>
<path d="M265.05 159.203L268.282 155.772" stroke="#263238" stroke-linecap="round" stroke-linejoin="round"/>
<path d="M263.149 157.245C262.201 156.155 261.327 155.002 260.535 153.793" stroke="#263238" stroke-linecap="round" stroke-linejoin="round"/>
<path d="M266.677 154.117C265.874 153.207 265.136 152.242 264.466 151.229" stroke="#263238" stroke-linecap="round" stroke-linejoin="round"/>
<path d="M261.781 155.561L265.525 152.702" stroke="#263238" stroke-linecap="round" stroke-linejoin="round"/>
<path d="M260.226 153.316C259.46 152.09 258.782 150.81 258.195 149.488" stroke="#263238" stroke-linecap="round" stroke-linejoin="round"/>
<path d="M264.207 150.81C263.561 149.773 262.989 148.692 262.494 147.574" stroke="#263238" stroke-linecap="round" stroke-linejoin="round"/>
<path d="M259.146 151.438L263.3 149.221" stroke="#263238" stroke-linecap="round" stroke-linejoin="round"/>
<path d="M257.965 148.975C257.412 147.638 256.95 146.265 256.582 144.866" stroke="#263238" stroke-linecap="round" stroke-linejoin="round"/>
<path d="M262.299 147.141C261.832 146.011 261.442 144.85 261.133 143.667" stroke="#263238" stroke-linecap="round" stroke-linejoin="round"/>
<path d="M257.209 146.945L261.658 145.422" stroke="#263238" stroke-linecap="round" stroke-linejoin="round"/>
<path d="M256.467 144.324C256.13 142.917 255.889 141.488 255.747 140.048" stroke="#263238" stroke-linecap="round" stroke-linejoin="round"/>
<path d="M261.01 143.205C260.728 142.016 260.523 140.81 260.398 139.594" stroke="#263238" stroke-linecap="round" stroke-linejoin="round"/>
<path d="M256.006 142.2L260.643 141.406" stroke="#263238" stroke-linecap="round" stroke-linejoin="round"/>
<path d="M286.131 118.706C288.732 118.738 291.297 119.325 293.655 120.427C296.013 121.528 298.11 123.12 299.809 125.096C301.507 127.072 302.768 129.388 303.507 131.89C304.246 134.392 304.446 137.023 304.095 139.608" stroke="#263238" stroke-width="2" stroke-miterlimit="10"/>
<path d="M268.786 130.501C270.134 126.995 272.518 123.987 275.618 121.879C278.718 119.771 282.386 118.664 286.131 118.706" stroke="#06BCC1" stroke-width="5" stroke-miterlimit="10"/>
<path d="M289.22 155.216C286.014 155.804 282.709 155.526 279.646 154.408C276.583 153.291 273.871 151.376 271.79 148.859C269.71 146.342 268.335 143.315 267.807 140.088C267.279 136.862 267.617 133.552 268.786 130.5" stroke="#263238" stroke-width="2" stroke-miterlimit="10"/>
<path d="M304.095 139.608C303.569 143.449 301.848 147.026 299.177 149.828C296.506 152.63 293.022 154.516 289.22 155.216" stroke="#06BCC1" stroke-width="5" stroke-miterlimit="10"/>
<path d="M133.045 247.014H147.495V238.101H139.107L138.258 235.92H133.045V247.014Z" fill="#06BCC1" stroke="#263238" stroke-miterlimit="10"/>
<path d="M133.045 261.416H147.495V252.503H139.107L138.258 250.329H133.045V261.416Z" fill="#06BCC1" stroke="#263238" stroke-miterlimit="10"/>
<path d="M133.045 275.817H147.495V266.904H139.107L138.258 264.73H133.045V275.817Z" fill="#263238" stroke="#263238" stroke-miterlimit="10"/>
<path d="M156.085 247.014H170.535V238.101H162.147L161.298 235.92H156.085V247.014Z" fill="#06BCC1" stroke="#263238" stroke-miterlimit="10"/>
<path d="M156.085 261.416H170.535V252.503H162.147L161.298 250.329H156.085V261.416Z" fill="#263238" stroke="#263238" stroke-miterlimit="10"/>
<path d="M156.085 275.817H170.535V266.904H162.147L161.298 264.73H156.085V275.817Z" fill="#06BCC1" stroke="#263238" stroke-miterlimit="10"/>
<path d="M133.045 65.729H147.495V56.8164H139.107L138.258 54.6353H133.045V65.729Z" fill="#06BCC1" stroke="#263238" stroke-miterlimit="10"/>
<path d="M133.045 80.1305H147.495V71.2179H139.107L138.258 69.0439H133.045V80.1305Z" fill="#06BCC1" stroke="#263238" stroke-miterlimit="10"/>
<path d="M133.045 94.5323H147.495V85.6198H139.107L138.258 83.4458H133.045V94.5323Z" fill="#06BCC1" stroke="#263238" stroke-miterlimit="10"/>
<path d="M156.085 65.729H170.535V56.8164H162.147L161.298 54.6353H156.085V65.729Z" fill="#263238" stroke="#263238" stroke-miterlimit="10"/>
<path d="M156.085 80.1305H170.535V71.2179H162.147L161.298 69.0439H156.085V80.1305Z" fill="#06BCC1" stroke="#263238" stroke-miterlimit="10"/>
<path d="M156.085 94.5323H170.535V85.6198H162.147L161.298 83.4458H156.085V94.5323Z" fill="#263238" stroke="#263238" stroke-miterlimit="10"/>
<path d="M237.078 321.196C258.948 321.196 276.678 318.447 276.678 315.057C276.678 311.666 258.948 308.917 237.078 308.917C215.207 308.917 197.478 311.666 197.478 315.057C197.478 318.447 215.207 321.196 237.078 321.196Z" fill="#263238"/>
<path d="M229.719 306.613C229.719 306.613 222.159 311.488 218.019 312.391C213.879 313.294 212.619 314.558 216.039 316.183C219.459 317.808 229.899 318.35 234.759 317.266C239.619 316.183 241.419 317.628 241.959 315.461C242.359 313.427 242.298 311.329 241.779 309.322C241.419 307.697 232.599 305.169 229.719 306.613Z" fill="white" stroke="#263238" stroke-linecap="round" stroke-linejoin="round"/>
<path d="M219.819 209.11C219.819 209.11 220.719 223.194 223.239 234.208C225.759 245.222 227.019 260.028 228.279 268.154C229.539 276.279 230.439 289.641 230.619 295.599C230.799 301.558 231.159 303.363 230.799 303.905C230.439 304.447 229.539 304.627 229.539 305.35C229.539 306.072 229.359 307.697 229.359 307.697C229.359 307.697 230.979 309.141 235.299 310.767C239.619 312.392 242.499 313.294 242.499 313.294C243.794 312.046 244.621 310.388 244.839 308.6C245.379 305.35 243.759 301.558 243.759 299.391C243.759 297.224 248.439 278.265 246.819 270.501C245.199 262.737 241.959 253.889 241.959 249.195C241.959 244.5 243.759 230.597 243.759 230.597C243.759 230.597 248.439 222.833 248.619 217.235C248.73 213.924 248.67 210.609 248.439 207.304C248.439 207.304 227.199 210.374 219.819 209.11Z" fill="#263238" stroke="#263238" stroke-linecap="round" stroke-linejoin="round"/>
<path d="M223.527 158.834C221.886 163.322 220.996 168.052 220.892 172.831C220.892 180.09 219.841 195.806 218.782 202.667C217.724 209.529 216.946 209.933 218.782 210.988C220.618 212.042 226.026 213.234 234.054 212.707C242.082 212.179 250.614 209.536 251.038 208.373C251.463 207.21 251.168 205.6 250.772 204.04C250.376 202.48 252.212 185.817 248.274 171.957C244.335 158.097 241.556 151.091 239.713 149.243L237.87 147.394L223.527 158.834Z" fill="#06BCC1" stroke="#263238" stroke-linecap="round" stroke-linejoin="round"/>
<path d="M211.15 123.703C211.15 123.703 210.891 128.593 211.546 130.312C212.202 132.031 212.468 134.003 211.813 135.324C211.158 136.646 209.833 138.213 210.754 139.022C211.362 139.533 212.024 139.976 212.727 140.344C212.727 140.344 215.362 145.096 216.68 147.74C217.998 150.383 218.653 151.041 219.97 150.513C220.928 150.106 221.853 149.623 222.735 149.069C222.735 149.069 226.422 153.294 226.947 154.349C227.42 155.128 228.047 155.801 228.79 156.327L237.747 146.548C236.202 144.822 235.115 142.733 234.586 140.474C233.665 136.646 233.406 136.141 234.327 134.4C235.249 132.659 237.092 132.551 236.034 128.326C234.975 124.101 236.43 122.779 232.614 120.143C228.798 117.507 221.554 117.102 219.452 117.102C217.758 117.055 216.096 117.562 214.714 118.547C213.649 119.348 211.15 123.703 211.15 123.703Z" fill="white" stroke="#263238" stroke-linecap="round" stroke-linejoin="round"/>
<path d="M219.704 113.939C219.704 113.939 210.229 116.972 208.904 118.164C207.579 119.356 210.884 126.614 210.884 126.614L217.465 122.779L214.707 126.109C214.707 126.109 213.267 126.499 218.394 126.239C223.52 125.979 226.026 124.123 226.026 124.123C226.026 124.123 222.735 127.82 223.002 128.875C223.268 129.929 225.104 131.648 225.63 132.443C226.155 133.237 226.947 132.183 226.947 132.183C226.947 132.183 227.739 135.484 227.998 134.689C228.249 133.512 228.424 132.32 228.524 131.121C228.524 131.121 229.712 128.485 231.404 129.142C233.096 129.799 234.032 134.025 232.844 136.011C232.101 137.206 230.919 138.059 229.554 138.387C229.554 138.387 232.318 141.42 233.103 140.763C233.888 140.106 234.162 138.784 234.687 138.12C235.213 137.455 241.794 131.786 242.607 127.69C243.421 123.595 237.474 113.693 232.866 112.769C228.258 111.844 219.704 113.939 219.704 113.939Z" fill="#263238" stroke="#263238" stroke-linecap="round" stroke-linejoin="round"/>
<path d="M211.863 131.02L212.936 135.353C212.987 135.583 213.109 135.791 213.285 135.947C213.461 136.102 213.681 136.198 213.915 136.22C215.118 136.328 217.314 136.437 217.602 135.866C217.998 135.079 217.472 129.929 216.81 129.135C216.003 128.16 214.167 128.94 213.274 129.366C212.913 129.568 212.564 129.792 212.23 130.038C212.081 130.149 211.968 130.3 211.903 130.474C211.837 130.649 211.824 130.838 211.863 131.02Z" fill="white" stroke="#263238" stroke-linecap="round" stroke-linejoin="round"/>
<path d="M217.731 131.229L228.661 130.175L217.782 132.42L217.731 131.229Z" fill="#263238" stroke="#263238" stroke-linecap="round" stroke-linejoin="round"/>
<path d="M228.92 138.387C228.92 138.387 230.504 143.01 229.446 144.324C228.387 145.639 224.974 147.762 224.974 147.762" fill="white"/>
<path d="M228.92 138.387C228.92 138.387 230.504 143.01 229.446 144.324C228.387 145.639 224.974 147.762 224.974 147.762" stroke="#263238" stroke-linecap="round" stroke-linejoin="round"/>
<path d="M237.747 143.912C237.747 143.912 220.899 159.361 221.295 159.758C221.691 160.156 224.694 164.742 224.694 164.742C226.997 161.295 229.479 157.973 232.131 154.789C234.907 151.846 237.837 149.051 240.908 146.418L237.747 143.912Z" fill="#263238" stroke="#263238" stroke-linecap="round" stroke-linejoin="round"/>
<path d="M198.147 185.369C198.147 185.369 193.41 185.369 192.488 186.431C191.566 187.493 194.065 188.54 194.986 188.67C196.139 188.664 197.289 188.534 198.414 188.28L198.147 185.369Z" fill="white" stroke="#263238" stroke-linecap="round" stroke-linejoin="round"/>
<path d="M200.228 184.185C200.228 184.185 198.118 183.39 197.593 185.109C197.067 186.828 198.385 191.971 199.17 192.108C199.954 192.245 200.358 191.711 200.358 190.129C200.358 188.547 200.228 184.185 200.228 184.185Z" fill="white" stroke="#263238" stroke-linecap="round" stroke-linejoin="round"/>
<path d="M203.907 183.889C203.907 183.889 201.142 182.307 200.084 183.491C199.026 184.676 200.221 191.682 200.221 191.682C201.006 192.079 202.323 187.456 203.511 186.005C204.048 185.388 204.53 184.726 204.951 184.026L203.907 183.889Z" fill="white" stroke="#263238" stroke-linecap="round" stroke-linejoin="round"/>
<path d="M221.022 184.055C221.022 184.055 214.182 190.389 212.994 190.389C211.806 190.389 206.938 184.712 205.758 184.055C204.577 183.398 202.993 187.088 202.597 188.28C202.298 189.58 202.122 190.905 202.071 192.238C202.151 192.344 202.256 192.428 202.377 192.481C202.498 192.535 202.631 192.556 202.763 192.543C202.894 192.53 203.021 192.483 203.129 192.407C203.237 192.33 203.324 192.228 203.382 192.108C204.203 190.704 204.95 189.257 205.621 187.774L206.413 188.836" fill="white"/>
<path d="M221.022 184.055C221.022 184.055 214.182 190.389 212.994 190.389C211.806 190.389 206.938 184.712 205.758 184.055C204.577 183.398 202.993 187.088 202.597 188.28C202.298 189.58 202.122 190.905 202.071 192.238C202.151 192.344 202.256 192.428 202.377 192.481C202.498 192.535 202.631 192.556 202.763 192.543C202.894 192.53 203.021 192.483 203.129 192.407C203.237 192.33 203.324 192.228 203.382 192.108C204.203 190.704 204.95 189.257 205.621 187.774L206.413 188.836" stroke="#263238" stroke-linecap="round" stroke-linejoin="round"/>
<path d="M210.099 188.54C210.099 188.54 206.017 189.205 205.362 190.389C204.706 191.573 204.57 191.711 206.017 191.833C207.464 191.956 210.891 192.361 211.417 191.703C211.942 191.046 210.625 188.67 210.099 188.54Z" fill="white" stroke="#263238" stroke-linecap="round" stroke-linejoin="round"/>
<path d="M186.404 196.593L170.082 160.813L180.082 161.34L194.173 194.882L186.404 196.593Z" fill="#7D7D7D" stroke="#263238" stroke-linecap="round" stroke-linejoin="round"/>
<path d="M193.251 192.368L186.008 195.539H225.63L220.237 192.108L193.251 192.368Z" fill="#7D7D7D" stroke="#263238" stroke-linecap="round" stroke-linejoin="round"/>
<path d="M236.163 158.567C236.163 158.567 231.159 159.491 230.367 163.984C229.575 168.476 231.807 185.651 231.807 186.034V189.205C231.807 189.992 234.968 189.732 238.654 191.444C242.341 193.155 244.58 195.936 244.58 193.82C244.58 191.704 244.054 166.374 244.054 166.374" fill="#06BCC1"/>
<path d="M236.163 158.567C236.163 158.567 231.159 159.491 230.367 163.984C229.575 168.476 231.807 185.651 231.807 186.034V189.205C231.807 189.992 234.968 189.732 238.654 191.444C242.341 193.155 244.58 195.936 244.58 193.82C244.58 191.704 244.054 166.374 244.054 166.374" stroke="#263238" stroke-linecap="round" stroke-linejoin="round"/>
<path d="M244.321 176.522L246.43 169.263" stroke="#263238" stroke-linecap="round" stroke-linejoin="round"/>
<path d="M229.316 187.088L229.971 192.765C229.971 192.765 244.321 201.216 244.717 200.956C245.113 200.696 245.509 199.894 245.509 198.579C245.509 197.265 247.611 190.389 245.113 188.807C242.614 187.226 233.427 186.958 233.427 186.958C233.427 186.958 230.763 186.431 229.316 187.088Z" fill="#263238" stroke="#263238" stroke-linecap="round" stroke-linejoin="round"/>
<path d="M231.03 192.505C231.03 192.505 217.472 197.388 208.652 197.915C199.832 198.442 198.781 197.915 198.781 197.915C198.781 197.915 197.989 194.744 196.671 193.957C195.354 193.17 191.142 193.82 190.35 193.292C189.558 192.765 189.565 191.053 189.039 190.519C188.514 189.984 186.159 190.259 186.159 190.259C186.159 190.259 184.978 190.916 184.978 191.841C184.978 192.765 184.186 198.709 185.238 199.237C186.289 199.764 199.983 202.407 205.117 202.407C210.25 202.407 225.392 203.852 233.154 202.667C240.915 201.483 243.817 200.558 243.558 198.442C243.298 196.326 233.528 191.971 231.03 192.505Z" fill="white" stroke="#263238" stroke-linecap="round" stroke-linejoin="round"/>
<path d="M185.482 191.054L185.749 198.045" stroke="#263238" stroke-linecap="round" stroke-linejoin="round"/>
<path d="M187.592 190.389L187.981 197.258" stroke="#263238" stroke-linecap="round" stroke-linejoin="round"/>
<path d="M190.35 193.278C190.35 193.278 189.824 194.867 190.746 195.524C191.667 196.181 195.224 196.716 195.224 196.716" fill="white"/>
<path d="M190.35 193.278C190.35 193.278 189.824 194.867 190.746 195.524C191.667 196.181 195.224 196.716 195.224 196.716" stroke="#263238" stroke-linecap="round" stroke-linejoin="round"/>
<path d="M229.582 173.886H223.261V184.315H229.582V173.886Z" fill="white" stroke="#263238" stroke-linecap="round" stroke-linejoin="round"/>
</svg>
