<svg width="360" height="360" viewBox="0 0 360 360" fill="none" xmlns="http://www.w3.org/2000/svg">
<path d="M281.009 34.1928C281.009 34.1928 245.102 4.86717 198.403 17.8704C151.704 30.8736 132.163 71.1 105.372 98.7552C91.3464 113.242 70.6248 118.584 53.964 129.715C0.720008 165.377 8.57521 245.52 49.68 275.76C85.248 301.932 129.694 304.668 187.524 285.365C245.354 266.062 286.747 254.462 322.618 199.174C358.488 143.885 325.238 73.9872 281.009 34.1928Z" fill="#06BCC1"/>
<path opacity="0.7" d="M281.009 34.1928C281.009 34.1928 245.102 4.86717 198.403 17.8704C151.704 30.8736 132.163 71.1 105.372 98.7552C91.3464 113.242 70.6248 118.584 53.964 129.715C0.720008 165.377 8.57521 245.52 49.68 275.76C85.248 301.932 129.694 304.668 187.524 285.365C245.354 266.062 286.747 254.462 322.618 199.174C358.488 143.885 325.238 73.9872 281.009 34.1928Z" fill="white"/>
<path d="M178.625 151.466C129.758 151.466 84.0672 164.599 53.2728 187.466L58.4208 189.986C87.2568 168.545 129.701 156.038 175.306 155.426V166.802C101.988 167.933 42.8904 204.185 42.8904 248.609C42.8904 262.944 49.0608 276.43 59.868 288.158L43.5456 294.113C30.96 280.541 24.0048 264.96 24.0048 248.609C24.0048 232.884 30.6288 217.339 43.1568 203.666L37.3536 201.737C24.2856 216 17.3736 232.207 17.3736 248.609C17.3736 268.445 27.2376 287.489 45.9 303.782C64.1304 319.666 89.4528 331.819 119.131 338.918L121.579 335.203C89.7264 327.6 63.9432 314.237 46.8936 297.562L63.2232 291.6C87.1848 314.856 129.946 330.372 178.625 330.372C253.462 330.372 314.352 293.652 314.352 248.609C314.352 220.594 290.945 194.832 251.712 179.705L248.112 183.067C285.408 197.467 307.678 221.947 307.678 248.587C307.678 276.667 282.838 301.327 245.693 315L237.182 306.857C252.569 301.234 265.73 293.35 275.45 283.615L269.77 281.556C250.33 300.996 216.245 312.646 178.582 312.646C145.829 312.646 115.394 303.754 95.0616 288.252L89.856 290.729C98.9044 297.468 108.901 302.83 119.52 306.641L111.334 314.957C74.2824 301.277 49.5144 276.653 49.5144 248.609C49.5144 205.726 107.431 170.849 178.618 170.849C196.585 170.768 214.484 173.083 231.84 177.732L234.576 174.132C217.396 169.524 199.702 167.105 181.915 166.932V155.52C265.68 156.557 333.238 197.914 333.238 248.609C333.238 299.966 263.88 341.748 178.625 341.748C168.233 341.742 157.85 341.105 147.535 339.84L146.21 343.749C156.96 345.062 167.781 345.719 178.61 345.715C267.516 345.715 339.89 302.141 339.89 248.58C339.89 195.019 267.53 151.466 178.625 151.466ZM125.28 308.628C141.444 313.848 159.667 316.663 178.632 316.663C197.597 316.663 215.503 313.92 231.451 308.88L239.983 317.052C221.724 323.021 200.822 326.412 178.625 326.412C156.427 326.412 135.389 322.999 117.079 316.994L125.28 308.628Z" fill="#263238"/>
<path d="M283.19 274.406C288.77 266.212 291.593 257.529 291.593 248.608C291.593 211.082 240.912 180.547 178.625 180.547C152.122 180.547 126.353 186.192 106.078 196.43L110.34 199.49C129.427 189.849 153.677 184.543 178.625 184.543C194.962 184.468 211.22 186.822 226.865 191.527L217.656 203.349C205.012 199.465 191.852 197.523 178.625 197.589C173.236 197.587 167.851 197.895 162.497 198.511L163.75 202.435C168.688 201.873 173.655 201.594 178.625 201.6C221.04 201.6 255.6 222.04 256.637 247.435H234.367C234 240.955 230.573 234.734 224.402 229.399L218.966 231.688C224.726 236.664 227.772 242.488 227.772 248.608C227.772 263.93 207.936 276.897 182.614 278.128L183.139 282.11C189.971 281.795 196.74 280.657 203.299 278.719L214.87 290.239C203.124 293.877 190.892 295.698 178.596 295.639C151.423 295.639 127.476 287.229 113.472 274.507L132.955 267.955C138.838 272.995 147.024 277.063 156.881 279.576L159.466 275.896C157.81 275.469 156.209 274.989 154.663 274.456L164.57 265.168C169.119 266.536 173.846 267.22 178.596 267.199C181.032 267.201 183.464 267.028 185.875 266.68L184.32 262.8C182.413 263.077 180.487 263.214 178.56 263.21C165.168 263.21 154.282 256.651 154.282 248.587C154.282 240.523 165.233 234 178.625 234C192.017 234 202.896 240.566 202.896 248.63C202.896 252.093 200.844 255.463 197.136 258.098L202.176 260.683C206.921 257.328 209.534 253.044 209.534 248.63C209.534 238.363 195.674 230.011 178.632 230.011C173.824 229.989 169.04 230.691 164.441 232.092L154.397 222.84C162.21 220.25 170.394 218.951 178.625 218.995C189.086 218.995 199.073 220.946 207.504 224.647L211.406 221.414C201.838 217.216 190.526 214.999 178.625 214.999C159.71 214.999 142.236 220.708 131.882 230.256L137.434 232.416C140.837 229.371 144.694 226.876 148.867 225.021L158.904 234.259C152.078 237.679 147.715 242.827 147.715 248.587C147.715 254.347 152.136 259.567 159.055 262.987L149.134 272.304C136.894 266.796 129.47 258.084 129.47 248.608C129.476 246.115 129.981 243.647 130.954 241.351L124.56 240.379C123.457 242.983 122.884 245.781 122.875 248.608C122.875 254.296 125.251 259.747 129.535 264.542L110.095 271.08C104.033 264.398 100.584 256.744 100.584 248.608C100.584 230.608 117.972 213.976 144.893 206.186L142.013 202.586C113.81 210.751 95.256 227.88 94.0176 246.607H72.3456C73.0152 233.272 80.3736 220.651 93.7584 209.995L88.4736 207.583C73.5408 219.47 65.6496 233.654 65.6496 248.623C65.6496 259.228 69.588 269.388 77.3568 278.82L83.2968 277.048C76.4784 268.761 72.792 259.884 72.3312 250.617H94.0104C95.76 277.826 133.034 299.642 178.625 299.642C225.324 299.642 263.318 276.753 263.318 248.623C263.318 230.392 247.363 214.38 223.43 205.351L232.704 193.464C263.959 204.638 284.962 225.144 284.962 248.608C284.962 257.011 282.305 265.168 277.042 272.887L283.19 274.406ZM220.622 288.216L209.066 276.696C223.085 271.137 232.711 261.892 234.194 251.416H256.514C255.01 266.875 241.056 280.324 220.622 288.216Z" fill="#263238"/>
<path opacity="0.3" d="M200.448 233.402C200.383 233.194 200.174 232.546 196.128 232.862L188.014 233.474C187.078 232.754 176.134 224.518 176.098 224.597C175.694 224.237 169.675 219.046 167.81 217.555C168.454 217.54 169.075 217.318 169.582 216.922C169.834 216.626 170.899 215.266 171.086 215.021C174.852 212.638 182.002 208.123 182.448 207.886C183.686 207.223 183.838 206.611 183.744 206.215C183.607 205.603 182.83 205.243 181.584 205.2C180.821 205.2 178.078 204.667 174.902 204.091C169.38 203.083 161.813 201.708 158.234 201.614C154.492 201.58 150.756 201.939 147.089 202.687C145.483 202.903 143.395 203.234 141.026 203.681C140.61 202.572 140.009 201.542 139.248 200.635C140.227 199.577 140.162 198.634 139.565 198.115C139.133 197.741 134.114 197.136 133.862 197.604C132.07 197.604 130.061 197.741 128.153 197.906C128.39 197.719 127.606 197.446 126.763 198.036C125.546 198.166 124.409 198.317 123.437 198.49C118.274 199.397 111.247 201.802 110.585 203.53C110.354 204.134 110.743 204.674 111.37 205.128C110.578 205.366 111.19 205.927 112.183 205.625C112.401 205.742 112.624 205.848 112.853 205.942C112.486 206.021 113.342 206.575 114.048 206.41C113.96 206.466 113.888 206.546 113.84 206.639C113.792 206.733 113.769 206.837 113.774 206.942C113.825 208.008 117.115 208.426 117.144 208.426C117.369 208.452 117.595 208.464 117.821 208.462C118.651 208.45 119.475 208.321 120.269 208.08C120.708 208.224 121.162 208.361 121.622 208.498C121.303 208.731 121.004 208.991 120.73 209.275C118.958 209.995 116.633 210.989 114.523 211.954H114.422C111.181 213.253 108.025 214.759 104.976 216.461C104.747 216.563 104.556 216.734 104.427 216.949C104.298 217.164 104.238 217.413 104.256 217.663C104.429 219.406 109.13 221.911 118.217 225.115L118.361 225.166C119.907 225.728 121.539 226.02 123.185 226.03C124.215 226.026 125.241 225.907 126.245 225.677C128.614 228.182 135.511 238.637 137.47 239.99C138.593 240.775 143.474 250.978 146.304 253.793C145.987 254.052 146.477 254.585 146.815 254.304C147.492 255.024 148.932 256.982 149.27 256.781L149.702 257.22C149.465 257.335 149.926 257.94 150.235 257.76L151.675 259.2C151.243 260.064 150.617 261.626 151.286 262.361C151.623 262.703 152.029 262.969 152.478 263.14C152.926 263.312 153.406 263.385 153.886 263.354C155.04 263.313 156.177 263.052 157.234 262.584C159.754 261.547 160.906 260.129 160.661 258.343C160.627 258.093 160.554 257.85 160.445 257.623C160.479 257.582 160.503 257.533 160.516 257.48C160.528 257.428 160.529 257.373 160.517 257.321L157.86 247.709C158.141 247.054 153.144 226.21 153.144 226.21C153.229 226.193 153.305 226.147 153.36 226.08C156.146 227.794 163.663 232.286 168.718 234.295C168.502 234.533 168.278 234.77 168.041 235.015C168.007 235.049 167.98 235.088 167.962 235.132C167.944 235.176 167.934 235.223 167.934 235.271C167.934 235.318 167.944 235.365 167.962 235.409C167.98 235.453 168.007 235.493 168.041 235.526C168.073 235.561 168.112 235.588 168.155 235.607C168.199 235.626 168.246 235.635 168.293 235.635C168.34 235.635 168.387 235.626 168.43 235.607C168.473 235.588 168.512 235.561 168.545 235.526C168.854 235.224 169.15 234.907 169.438 234.583C171.614 235.209 173.878 235.476 176.141 235.375C178.898 236.196 180.806 236.678 180.85 236.686C181.029 236.706 181.21 236.706 181.39 236.686C181.832 236.763 182.28 236.799 182.729 236.794C183.986 236.759 185.238 236.621 186.473 236.383L186.804 236.333C187.568 236.232 188.338 236.186 189.108 236.196C190.429 236.199 191.749 236.12 193.061 235.958C196.042 235.577 199.145 234.677 200.066 234.108C200.513 233.863 200.498 233.561 200.448 233.402ZM170.114 208.649L166.514 214.322L164.822 215.208L164.657 215.078C164.664 215.019 164.664 214.958 164.657 214.898C164.441 214.322 160.726 210.024 158.047 207.18H158.429L170.114 208.649Z" fill="black"/>
<path d="M199.44 143.798L194.969 147.528C194.969 147.528 194.098 148.896 194.717 149.645C195.195 150.265 195.612 150.931 195.962 151.632C195.962 151.632 196.682 153.122 197.453 153.374C198.223 153.626 199.073 153.749 199.57 152.878C200.066 152.006 202.55 147.406 202.55 147.406L199.44 143.798Z" fill="white" stroke="#263238" stroke-linecap="round" stroke-linejoin="round"/>
<path d="M155.57 248.342C155.57 248.342 152.165 255.737 152.014 258.991C151.862 262.245 152.611 265.651 156.334 263.577C160.056 261.504 161.626 256.197 162.403 252.777C162.857 251.042 163.056 249.249 162.994 247.457L155.57 248.342Z" fill="white" stroke="#263238" stroke-linecap="round" stroke-linejoin="round"/>
<path d="M196.841 231.48C196.841 231.48 202.313 234.583 204.977 236.067C207.641 237.55 208.526 239.76 207.346 240.948C206.165 242.136 202.91 242.871 200.246 241.978C197.582 241.085 196.402 238.875 194.918 238.579C193.435 238.284 190.332 237.989 189.878 233.993C189.425 229.997 196.841 231.48 196.841 231.48Z" fill="white" stroke="#263238" stroke-linecap="round" stroke-linejoin="round"/>
<path d="M157.68 147.528C157.68 147.528 155.938 190.678 156.312 197.885C156.686 205.092 155.189 248.868 155.189 248.868C156.374 249.954 157.938 250.533 159.545 250.481C162.425 250.481 163.145 249.365 163.145 249.365L178.445 169.2C178.445 169.2 180.806 200.534 183.665 213.12C185.382 220.664 187.489 228.114 189.979 235.44C189.979 235.44 190.505 236.772 193.86 236.11C196.783 235.534 197.842 232.128 197.842 232.128C197.842 232.128 197.222 200.448 197.345 180.9C197.467 161.352 196.848 143.1 196.848 143.1C196.848 143.1 183.665 147.42 174.218 148.572C168.689 149.253 163.08 148.899 157.68 147.528Z" fill="#263238"/>
<mask id="mask0_659_10053" style="mask-type:luminance" maskUnits="userSpaceOnUse" x="155" y="143" width="43" height="108">
<path d="M157.68 147.528C157.68 147.528 155.938 190.678 156.312 197.885C156.686 205.092 155.189 248.868 155.189 248.868C156.374 249.954 157.938 250.533 159.545 250.481C162.425 250.481 163.145 249.365 163.145 249.365L178.445 169.2C178.445 169.2 180.806 200.534 183.665 213.12C185.382 220.664 187.489 228.114 189.979 235.44C189.979 235.44 190.505 236.772 193.86 236.11C196.783 235.534 197.842 232.128 197.842 232.128C197.842 232.128 197.222 200.448 197.345 180.9C197.467 161.352 196.848 143.1 196.848 143.1C196.848 143.1 183.665 147.42 174.218 148.572C168.689 149.253 163.08 148.899 157.68 147.528Z" fill="white"/>
</mask>
<g mask="url(#mask0_659_10053)">
<path d="M175.766 189.907C172.091 199.595 167.51 208.914 162.086 217.742C159.588 221.872 156.86 225.857 153.914 229.68" stroke="#8A8A8A" stroke-linecap="round" stroke-linejoin="round"/>
<path d="M165.96 222.48C164.368 225.531 162.591 228.481 160.639 231.315C158.721 234.183 156.455 236.802 153.893 239.112" stroke="#8A8A8A" stroke-linecap="round" stroke-linejoin="round"/>
<path d="M172.289 207.605C170.965 211.531 169.417 215.377 167.652 219.125" stroke="#8A8A8A" stroke-linecap="round" stroke-linejoin="round"/>
<path d="M198.202 178.215C198.202 178.215 190.282 202.551 181.771 215.82" stroke="#8A8A8A" stroke-linecap="round" stroke-linejoin="round"/>
<path d="M197.885 185.796C195.624 200.326 193.075 214.985 186.703 228.276" stroke="#8A8A8A" stroke-linecap="round" stroke-linejoin="round"/>
<path d="M178.294 172.21L179.878 168.415L184.298 165.888" stroke="#8A8A8A" stroke-linecap="round" stroke-linejoin="round"/>
<path d="M195.876 141.523C195.876 141.523 190.692 146.513 177.732 147.903C164.772 149.292 158.796 147.903 158.796 147.903C158.796 147.903 157.162 148.687 158.177 149.89C158.177 149.89 157.399 151.092 161.582 152.093C163.658 152.578 165.77 152.896 167.897 153.043L167.767 150.883L170.158 150.48V153.13C172.356 153.172 174.555 153.064 176.738 152.806V150.48L178.531 150.286L178.387 152.59L179.107 152.475C182.435 151.945 185.706 151.106 188.878 149.969V146.499L191.47 146.297L191.232 149.026C192.848 148.371 194.343 147.449 195.653 146.297C196.313 145.692 196.706 144.85 196.748 143.956C196.79 143.062 196.476 142.187 195.876 141.523Z" fill="#969696"/>
<path d="M164.074 234.151C160.874 237.213 157.509 240.097 153.994 242.791" stroke="#8A8A8A" stroke-linecap="round" stroke-linejoin="round"/>
</g>
<path d="M157.68 147.528C157.68 147.528 155.938 190.678 156.312 197.885C156.686 205.092 155.189 248.868 155.189 248.868C156.374 249.954 157.938 250.533 159.545 250.481C162.425 250.481 163.145 249.365 163.145 249.365L178.445 169.2C178.445 169.2 180.806 200.534 183.665 213.12C185.382 220.664 187.489 228.114 189.979 235.44C189.979 235.44 190.505 236.772 193.86 236.11C196.783 235.534 197.842 232.128 197.842 232.128C197.842 232.128 197.222 200.448 197.345 180.9C197.467 161.352 196.848 143.1 196.848 143.1C196.848 143.1 183.665 147.42 174.218 148.572C168.689 149.253 163.08 148.899 157.68 147.528Z" stroke="#263238" stroke-linecap="round" stroke-linejoin="round"/>
<path d="M194.234 89.5825C196.115 89.654 197.962 90.0975 199.67 90.8871C201.378 91.6768 202.912 92.7971 204.185 94.1833C208.505 98.9137 217.865 122.04 219.478 123.905C221.09 125.77 220.493 129.406 218.218 131.321C217.498 131.947 202.565 147.406 202.565 147.406L199.454 143.806L208.289 125.403L197.719 107.28" fill="#06BCC1"/>
<path d="M194.234 89.5825C196.115 89.654 197.962 90.0975 199.67 90.8871C201.378 91.6768 202.912 92.7971 204.185 94.1833C208.505 98.9137 217.865 122.04 219.478 123.905C221.09 125.77 220.493 129.406 218.218 131.321C217.498 131.947 202.565 147.406 202.565 147.406L199.454 143.806L208.289 125.403L197.719 107.28" stroke="#263238" stroke-linecap="round" stroke-linejoin="round"/>
<path d="M198.979 105.653L199.375 102.441L200.578 111.794L199.109 110.059L198.979 105.653Z" fill="#263238" stroke="#263238" stroke-linecap="round" stroke-linejoin="round"/>
<path d="M213.329 128.16C210.19 128.333 208.289 125.374 208.289 125.374C208.655 126.522 209.372 127.527 210.34 128.247C211.307 128.966 212.476 129.364 213.682 129.384" stroke="#263238" stroke-linecap="round" stroke-linejoin="round"/>
<path d="M199.03 106.495C198.756 117.576 197.431 141.423 197.093 143.424C196.718 145.663 194.112 147.024 183.787 150.142C173.462 153.259 159.17 152.129 158.177 149.89C157.183 147.651 155.189 136.714 155.189 131.487C155.189 126.259 150.221 105.999 154.57 101.398C158.918 96.7969 170.856 90.5977 170.856 90.5977C180.432 86.8609 190.879 88.2289 195.106 89.8777C195.764 90.1154 196.382 90.4555 196.934 90.8857" fill="#06BCC1"/>
<path d="M199.03 106.495C198.756 117.576 197.431 141.423 197.093 143.424C196.718 145.663 194.112 147.024 183.787 150.142C173.462 153.259 159.17 152.129 158.177 149.89C157.183 147.651 155.189 136.714 155.189 131.487C155.189 126.259 150.221 105.999 154.57 101.398C158.918 96.7969 170.856 90.5977 170.856 90.5977C180.432 86.8609 190.879 88.2289 195.106 89.8777C195.764 90.1154 196.382 90.4555 196.934 90.8857" stroke="#263238" stroke-linecap="round" stroke-linejoin="round"/>
<path d="M174.715 103.01L178.819 106.495L175.954 142.056L182.794 149.148L187.394 138.823L181.181 105.998L184.162 101.146L179.438 96.6743L174.715 103.01Z" fill="white" stroke="#263238" stroke-linecap="round" stroke-linejoin="round"/>
<path d="M186.149 132.228L176.155 139.608L175.954 142.056L178.229 144.41L187.2 137.786L186.149 132.228Z" fill="#263238"/>
<path d="M182.376 112.32L181.325 106.762L178.632 108.742L178.092 115.481L182.376 112.32Z" fill="#263238"/>
<path d="M183.737 119.491L177.394 124.178L176.854 130.918L184.788 125.057L183.737 119.491Z" fill="#263238"/>
<path d="M170.856 88.2143C170.856 88.2143 167.256 92.0735 167.256 93.3119C167.256 94.5503 170.611 104.011 171.482 104.882C172.354 105.753 179.186 100.281 179.186 100.281C179.186 100.281 186.386 104.508 186.898 103.881C187.409 103.255 186.278 96.4223 184.91 92.9447C183.542 89.4671 176.206 84.7367 170.856 88.2143Z" fill="#06BCC1" stroke="#263238" stroke-linecap="round" stroke-linejoin="round"/>
<path d="M172.476 93.312C172.476 93.312 176.206 102.888 179.935 103.392C183.665 103.896 184.414 95.688 184.162 93.312C183.91 90.936 175.68 87.5952 172.476 93.312Z" fill="#263238" stroke="#263238" stroke-linecap="round" stroke-linejoin="round"/>
<path d="M190.015 73.9153C190.015 73.9153 189.418 84.3913 188.222 88.8769C187.027 93.3625 185.53 98.1505 182.988 98.7553C180.446 99.3601 175.068 96.8041 172.512 94.4353C169.956 92.0665 167.278 80.2225 167.278 76.7809C167.278 73.3393 176.702 70.3441 181.937 70.2001C183.477 70.1637 185.006 70.4794 186.406 71.1233C187.806 71.7671 189.04 72.722 190.015 73.9153Z" fill="white" stroke="#263238" stroke-linecap="round" stroke-linejoin="round"/>
<path d="M184.075 84.4058V90.245L181.757 90.5906" stroke="#263238" stroke-linecap="round" stroke-linejoin="round"/>
<path d="M175.745 84.4058C175.745 84.4058 177.12 85.9538 181.073 84.8378" stroke="#263238" stroke-linecap="round" stroke-linejoin="round"/>
<path d="M184.594 84.3191C184.594 84.3191 186.221 84.8375 187.942 83.2031" stroke="#263238" stroke-linecap="round" stroke-linejoin="round"/>
<path d="M184.248 83.5919C184.248 83.5919 184.968 81.6839 188.078 81.0791" stroke="#263238" stroke-linecap="round" stroke-linejoin="round"/>
<path d="M181.526 83.995C180.773 83.2763 179.849 82.7606 178.841 82.4962C177.834 82.2317 176.776 82.2272 175.766 82.483" stroke="#263238" stroke-linecap="round" stroke-linejoin="round"/>
<path d="M181.627 93.3622L183.946 92.959" stroke="#263238" stroke-linecap="round" stroke-linejoin="round"/>
<path d="M177.12 85.5073C177.509 85.7087 177.942 85.8138 178.38 85.8138C178.818 85.8138 179.251 85.7087 179.64 85.5073" stroke="#263238" stroke-linecap="round" stroke-linejoin="round"/>
<path d="M184.954 84.8088C185.38 84.9107 185.824 84.9084 186.249 84.8018C186.674 84.6953 187.067 84.4877 187.394 84.1968" stroke="#263238" stroke-linecap="round" stroke-linejoin="round"/>
<path d="M168.026 80.64C168.026 80.64 171.166 82.584 172.663 80.9424C174.161 79.3008 173.304 78.9264 173.902 77.7312C174.499 76.536 175.68 77.1984 175.824 79.4448C175.968 81.6912 174.01 81.8352 176.4 82.1376C178.79 82.44 179.028 83.1672 184.716 80.6184C190.404 78.0696 192.859 70.92 192.859 67.0248C192.859 63.1296 184.63 57.0024 179.698 56.2248C174.766 55.4472 166.975 58.5072 164.88 63.8928C162.785 69.2784 165.182 76.7592 165.334 77.6592C165.485 78.5592 165.485 80.2008 168.026 80.64Z" fill="#263238"/>
<mask id="mask1_659_10053" style="mask-type:luminance" maskUnits="userSpaceOnUse" x="164" y="56" width="29" height="27">
<path d="M168.026 80.64C168.026 80.64 171.166 82.584 172.663 80.9424C174.161 79.3008 173.304 78.9264 173.902 77.7312C174.499 76.536 175.68 77.1984 175.824 79.4448C175.968 81.6912 174.01 81.8352 176.4 82.1376C178.79 82.44 179.028 83.1672 184.716 80.6184C190.404 78.0696 192.859 70.92 192.859 67.0248C192.859 63.1296 184.63 57.0024 179.698 56.2248C174.766 55.4472 166.975 58.5072 164.88 63.8928C162.785 69.2784 165.182 76.7592 165.334 77.6592C165.485 78.5592 165.485 80.2008 168.026 80.64Z" fill="white"/>
</mask>
<g mask="url(#mask1_659_10053)">
<path d="M186.242 66.2397C182.7 70.6605 175.932 75.2973 163.116 75.1389" stroke="#8A8A8A" stroke-linecap="round" stroke-linejoin="round"/>
<path d="M189.986 58.4424C189.61 60.3309 188.911 62.1405 187.92 63.792" stroke="#8A8A8A" stroke-linecap="round" stroke-linejoin="round"/>
<path d="M184.615 55.915C184.615 55.915 174.816 69.8398 161.23 71.7118" stroke="#8A8A8A" stroke-linecap="round" stroke-linejoin="round"/>
</g>
<path d="M170.23 82.2885C170.23 82.2885 168.595 77.083 165.974 77.0254C163.354 76.9678 164.844 82.4829 165.974 84.3693C166.266 84.8832 166.743 85.2662 167.308 85.4402C167.873 85.6142 168.482 85.5659 169.013 85.3054" fill="white"/>
<path d="M170.23 82.2885C170.23 82.2885 168.595 77.083 165.974 77.0254C163.354 76.9678 164.844 82.4829 165.974 84.3693C166.266 84.8832 166.743 85.2662 167.308 85.4402C167.873 85.6142 168.482 85.5659 169.013 85.3054" stroke="#263238" stroke-linecap="round" stroke-linejoin="round"/>
<path d="M166.32 81.8854C166.32 81.8854 165.715 79.3654 166.925 79.8694C168.134 80.3734 168.739 82.1806 168.739 82.1806C168.739 82.1806 167.731 82.0798 167.832 82.6846C167.933 83.2894 168.638 83.2894 168.638 83.2894" stroke="#263238" stroke-linecap="round" stroke-linejoin="round"/>
<path d="M160.042 96.9189C155.868 99.2229 151.985 102.02 148.478 105.249C143.626 109.98 150.84 139.197 151.711 142.805C152.971 148.01 154.822 150.386 157.428 150.264C160.034 150.141 168.869 134.849 171.605 128.253C173.452 123.491 174.897 118.583 175.925 113.58C175.925 113.58 179.41 112.212 180.029 110.973C180.437 110.133 180.769 109.259 181.022 108.36C181.022 108.36 181.649 110.225 182.765 109.728C183.881 109.231 184.385 106.373 184.63 104.378C184.874 102.384 179.784 100.649 179.784 100.649C179.784 100.649 180.403 98.0421 181.894 97.6677C183.384 97.2933 185.126 95.9253 184.63 95.1765C184.133 94.4277 179.906 97.0485 179.906 97.0485C179.906 97.0485 176.551 102.269 175.306 104.63C174.492 106.178 172.512 110.484 171.238 113.27C170.463 114.974 169.525 116.6 168.437 118.123L162.374 126.633C162.374 126.633 162.13 111.341 162.13 110.714" fill="#06BCC1"/>
<path d="M160.042 96.9189C155.868 99.2229 151.985 102.02 148.478 105.249C143.626 109.98 150.84 139.197 151.711 142.805C152.971 148.01 154.822 150.386 157.428 150.264C160.034 150.141 168.869 134.849 171.605 128.253C173.452 123.491 174.897 118.583 175.925 113.58C175.925 113.58 179.41 112.212 180.029 110.973C180.437 110.133 180.769 109.259 181.022 108.36C181.022 108.36 181.649 110.225 182.765 109.728C183.881 109.231 184.385 106.373 184.63 104.378C184.874 102.384 179.784 100.649 179.784 100.649C179.784 100.649 180.403 98.0421 181.894 97.6677C183.384 97.2933 185.126 95.9253 184.63 95.1765C184.133 94.4277 179.906 97.0485 179.906 97.0485C179.906 97.0485 176.551 102.269 175.306 104.63C174.492 106.178 172.512 110.484 171.238 113.27C170.463 114.974 169.525 116.6 168.437 118.123L162.374 126.633C162.374 126.633 162.13 111.341 162.13 110.714" stroke="#263238" stroke-linecap="round" stroke-linejoin="round"/>
<path d="M162.36 115.401L164.498 110.059" stroke="#263238" stroke-linecap="round" stroke-linejoin="round"/>
<path d="M154.476 136.253C154.476 134.813 162.396 126.641 162.396 126.641C162.396 126.641 153.67 132.242 152.734 133.841" stroke="#263238" stroke-linecap="round" stroke-linejoin="round"/>
<path d="M180.058 110.974C180.466 110.134 180.798 109.259 181.051 108.36C181.051 108.36 181.678 110.225 182.794 109.728C183.91 109.231 184.414 106.373 184.658 104.379C184.903 102.384 180.187 100.527 180.187 100.527C180.187 100.527 180.907 98.2874 181.922 97.6466C183.233 96.833 185.155 95.9042 184.658 95.1554C184.378 94.7306 182.88 95.1554 181.649 95.6018C180.568 95.9867 179.666 96.7554 179.114 97.7618C178.034 99.6842 176.191 103.003 175.334 104.623C174.614 106.063 172.858 109.786 171.59 112.543C172.138 113.494 173.29 114.631 175.687 114.833C175.86 114.034 175.954 113.566 175.954 113.566C175.954 113.566 179.438 112.212 180.058 110.974Z" fill="white" stroke="#263238" stroke-linecap="round" stroke-linejoin="round"/>
<path d="M179.935 105.005C181.209 105.519 182.453 106.101 183.665 106.747C183.764 106.794 183.854 106.86 183.927 106.943C184 107.025 184.056 107.121 184.091 107.225C184.126 107.329 184.139 107.44 184.13 107.55C184.122 107.659 184.09 107.766 184.039 107.863" fill="white"/>
<path d="M179.935 105.005C181.209 105.519 182.453 106.101 183.665 106.747C183.764 106.794 183.854 106.86 183.927 106.943C184 107.025 184.056 107.121 184.091 107.225C184.126 107.329 184.139 107.44 184.13 107.55C184.122 107.659 184.09 107.766 184.039 107.863" stroke="#263238" stroke-linecap="round" stroke-linejoin="round"/>
<path d="M179.69 102.643C179.69 102.643 183.917 104.63 184.536 105.249L179.69 102.643Z" fill="white"/>
<path d="M179.69 102.643C179.69 102.643 183.917 104.63 184.536 105.249" stroke="#263238" stroke-linecap="round" stroke-linejoin="round"/>
</svg>
