<svg width="320" height="321" viewBox="0 0 320 321" fill="none" xmlns="http://www.w3.org/2000/svg">
<path d="M39.3152 132.57C39.3152 132.57 13.44 171.642 31.8272 230.574C50.2144 289.505 103.789 304.538 135.558 288.174C167.328 271.809 171.962 250.51 197.638 235.054C223.315 219.598 276.262 220.142 296.653 177.62C317.043 135.098 274.758 75.5015 226.893 41.1783C179.027 6.85512 74.976 47.4503 39.3152 132.57Z" fill="#06BCC1"/>
<path opacity="0.7" d="M39.3152 132.57C39.3152 132.57 13.44 171.642 31.8272 230.574C50.2144 289.505 103.789 304.538 135.558 288.174C167.328 271.809 171.962 250.51 197.638 235.054C223.315 219.598 276.262 220.142 296.653 177.62C317.043 135.098 274.758 75.5015 226.893 41.1783C179.027 6.85512 74.976 47.4503 39.3152 132.57Z" fill="white"/>
<path d="M293.538 282.26H25.2816C25.1967 282.26 25.1153 282.226 25.0553 282.166C24.9953 282.105 24.9616 282.024 24.9616 281.939C24.9616 281.854 24.9953 281.772 25.0553 281.712C25.1153 281.651 25.1967 281.618 25.2816 281.618H293.538C293.622 281.618 293.704 281.651 293.764 281.712C293.824 281.772 293.858 281.854 293.858 281.939C293.856 282.023 293.822 282.104 293.762 282.164C293.702 282.224 293.622 282.258 293.538 282.26Z" fill="#263238"/>
<path d="M204.019 216.884C206.31 217.882 211.898 217.754 211.904 217.754C211.91 217.754 210.701 214.094 210.592 213.87C209.37 211.31 205.472 207.066 202.336 207.47C201.814 207.555 201.315 207.749 200.873 208.04C200.431 208.33 200.054 208.71 199.769 209.156C199.483 209.602 199.295 210.102 199.216 210.625C199.136 211.149 199.168 211.683 199.309 212.193C199.834 214.407 202.074 216.033 204.019 216.884Z" fill="#263238"/>
<path d="M205.952 233.076C208.32 233.422 213.312 231.975 213.709 231.86C214.531 234.715 215.542 237.511 216.736 240.231C217.421 241.819 218.163 243.399 218.925 244.974C218.47 244.334 218.054 243.694 217.99 243.636C216.128 241.486 211.27 238.42 208.339 239.668C207.858 239.888 207.428 240.208 207.078 240.605C206.729 241.002 206.466 241.469 206.309 241.974C206.151 242.479 206.102 243.012 206.164 243.538C206.226 244.064 206.398 244.57 206.669 245.025C207.75 246.996 210.342 247.969 212.429 248.276C214.515 248.583 218.829 247.438 219.968 247.118C220.262 247.719 220.557 248.321 220.858 248.923C222.304 251.796 223.757 254.683 225.094 257.518C225.568 258.523 225.997 259.527 226.432 260.532C226.029 259.943 225.683 259.451 225.619 259.38C223.757 257.23 218.899 254.164 215.968 255.412C215.487 255.632 215.057 255.95 214.708 256.347C214.358 256.744 214.096 257.21 213.938 257.714C213.78 258.219 213.731 258.752 213.793 259.277C213.855 259.802 214.027 260.308 214.298 260.763C215.379 262.734 217.971 263.713 220.058 264.014C222.144 264.315 226.048 263.291 227.392 262.913C227.802 263.963 228.218 265.006 228.57 266.036C228.794 266.747 229.062 267.412 229.248 268.135C229.434 268.859 229.645 269.556 229.837 270.254C230.163 271.617 230.509 273.019 230.797 274.35C231.002 275.278 231.181 276.167 231.36 277.063C230.906 276.059 229.965 274.107 229.862 273.953C228.352 271.54 224.013 267.777 220.902 268.564C220.393 268.709 219.92 268.959 219.513 269.299C219.107 269.639 218.777 270.06 218.545 270.536C218.312 271.012 218.183 271.531 218.164 272.06C218.146 272.59 218.239 273.117 218.438 273.607C219.213 275.719 221.638 277.076 223.654 277.697C225.894 278.375 230.842 277.755 231.462 277.697C231.757 279.175 232.032 280.622 232.269 281.985C232.397 282.708 232.512 283.387 232.621 284.065H234.592C234.445 283.284 234.291 282.478 234.125 281.639C233.83 280.135 233.485 278.535 233.114 276.891C234.606 276.295 236.061 275.611 237.472 274.843C239.104 276.609 243.277 278.683 243.821 278.939C243.251 280.334 242.682 281.691 242.131 282.958C241.965 283.342 241.798 283.7 241.638 284.065H243.712L243.866 283.694C244.454 282.279 245.043 280.75 245.645 279.175C246.24 279.303 251.142 280.302 253.427 279.783C255.501 279.316 258.01 278.145 258.938 276.097C259.172 275.623 259.304 275.104 259.325 274.576C259.346 274.047 259.256 273.52 259.059 273.028C258.863 272.537 258.566 272.092 258.186 271.723C257.807 271.355 257.354 271.07 256.858 270.887C253.837 269.87 249.229 273.3 247.539 275.591C247.443 275.726 246.522 277.307 245.965 278.318C246.202 277.678 246.445 277.038 246.682 276.398C247.162 275.118 247.603 273.761 248.09 272.34C248.294 271.643 248.506 270.939 248.73 270.228C248.954 269.518 249.107 268.763 249.299 268.027C249.709 266.299 250.042 264.532 250.336 262.747C251.488 263.163 255.597 264.596 257.722 264.443C259.846 264.289 262.502 263.515 263.731 261.633C264.034 261.199 264.241 260.705 264.341 260.185C264.44 259.666 264.429 259.131 264.308 258.615C264.188 258.1 263.96 257.616 263.64 257.194C263.32 256.772 262.915 256.422 262.451 256.167C259.616 254.708 254.541 257.396 252.525 259.406C252.403 259.527 251.117 261.134 250.426 262.023C250.598 260.948 250.771 259.879 250.906 258.785C251.296 255.623 251.597 252.417 251.91 249.217C252.006 248.238 252.109 247.259 252.211 246.286C252.621 246.439 257.472 248.244 259.853 248.078C261.971 247.924 264.634 247.15 265.856 245.262C266.159 244.828 266.368 244.334 266.468 243.814C266.568 243.294 266.557 242.759 266.436 242.243C266.315 241.728 266.087 241.243 265.767 240.822C265.446 240.4 265.041 240.051 264.576 239.796C261.747 238.337 256.672 241.031 254.656 243.035C254.502 243.188 252.659 245.499 252.218 246.107C252.448 243.956 252.691 241.812 253.024 239.707C253.452 236.864 254.065 234.053 254.861 231.291C255.046 231.367 260.096 233.268 262.541 233.102C264.659 232.948 267.315 232.174 268.544 230.286C268.847 229.852 269.056 229.358 269.156 228.838C269.256 228.318 269.245 227.783 269.124 227.267C269.003 226.752 268.775 226.267 268.455 225.846C268.134 225.424 267.729 225.075 267.264 224.82C264.435 223.361 259.36 226.055 257.344 228.059C257.184 228.219 255.2 230.702 254.874 231.182C254.918 231.022 254.95 230.849 255.002 230.689C255.875 227.942 256.991 225.277 258.336 222.727C259.059 221.313 259.827 220.001 260.608 218.734C261.517 219.188 265.67 221.204 267.885 221.294C270.099 221.383 272.736 220.897 274.163 219.163C274.513 218.766 274.776 218.3 274.935 217.796C275.093 217.291 275.144 216.759 275.084 216.233C275.023 215.707 274.853 215.2 274.584 214.745C274.316 214.289 273.954 213.895 273.523 213.588C270.867 211.828 265.53 213.947 263.283 215.719C263.162 215.815 262.042 216.929 261.242 217.755C261.6 217.191 261.958 216.603 262.317 216.065C263.648 214.062 264.992 212.308 266.195 210.759C266.886 209.889 267.526 209.115 268.115 208.391C269.235 208.391 273.741 208.238 275.712 207.31C277.683 206.382 279.834 204.75 280.301 202.523C280.427 202.009 280.443 201.474 280.349 200.954C280.256 200.433 280.053 199.938 279.756 199.5C279.458 199.063 279.072 198.693 278.623 198.414C278.173 198.135 277.67 197.954 277.146 197.883C273.984 197.543 270.221 201.883 269.062 204.481C268.96 204.705 267.782 208.398 267.859 208.398H267.93C267.328 209.076 266.694 209.812 266.01 210.631C264.768 212.155 263.386 213.883 262.003 215.867C260.493 217.991 259.106 220.201 257.85 222.484C256.433 225.036 255.246 227.709 254.304 230.471C254.304 230.503 254.304 230.542 254.304 230.574C254.304 229.639 254.304 227.028 254.253 226.83C253.888 224.007 251.526 218.772 248.39 218.196C247.868 218.115 247.334 218.144 246.823 218.283C246.313 218.421 245.837 218.666 245.427 219C245.017 219.335 244.682 219.751 244.444 220.224C244.206 220.696 244.07 221.213 244.045 221.742C243.866 223.982 245.485 226.222 247.072 227.643C248.858 229.236 253.818 230.779 254.214 230.9C253.325 233.735 252.624 236.626 252.115 239.553C251.814 241.262 251.558 242.983 251.328 244.718C251.328 243.911 251.328 243.188 251.29 243.092C250.918 240.27 248.557 235.035 245.427 234.452C244.904 234.37 244.369 234.399 243.858 234.537C243.347 234.675 242.87 234.919 242.46 235.253C242.049 235.588 241.714 236.005 241.475 236.478C241.236 236.951 241.1 237.469 241.075 237.998C240.896 240.238 242.522 242.478 244.102 243.899C245.683 245.319 249.914 246.74 251.027 247.099C250.95 247.739 250.861 248.43 250.778 249.095C250.394 252.295 250.029 255.495 249.574 258.606C249.414 259.7 249.216 260.782 249.018 261.857C249.018 261.14 249.018 260.539 248.979 260.443C248.614 257.627 246.253 252.391 243.123 251.809C242.6 251.727 242.065 251.755 241.554 251.893C241.043 252.031 240.566 252.276 240.156 252.61C239.745 252.945 239.41 253.362 239.171 253.835C238.932 254.308 238.796 254.826 238.771 255.355C238.592 257.595 240.211 259.835 241.798 261.255C243.386 262.676 247.2 263.956 248.525 264.385C248.294 265.479 248.064 266.58 247.789 267.636C247.584 268.353 247.437 269.051 247.194 269.761C246.95 270.471 246.739 271.163 246.515 271.854C246.035 273.172 245.549 274.529 245.05 275.803C244.71 276.686 244.371 277.524 244.032 278.363C244.205 277.275 244.493 275.124 244.499 274.945C244.465 272.444 243.789 269.993 242.534 267.828C242.546 267.548 242.529 267.267 242.483 266.99C242.418 266.464 242.243 265.958 241.97 265.505C241.696 265.052 241.33 264.661 240.895 264.359C240.46 264.057 239.966 263.85 239.446 263.752C238.925 263.654 238.39 263.667 237.875 263.79C234.797 264.609 232.845 270.011 232.698 272.852C232.698 273.019 232.8 274.849 232.89 276.001C232.736 275.329 232.589 274.676 232.422 273.991C232.102 272.628 231.738 271.278 231.354 269.825C231.142 269.134 230.931 268.43 230.714 267.719C230.496 267.009 230.214 266.292 229.965 265.569C229.357 263.905 228.685 262.247 227.923 260.59C229.114 260.308 233.331 259.233 235.021 257.934C236.71 256.635 238.496 254.523 238.477 252.276C238.489 251.749 238.391 251.224 238.188 250.737C237.984 250.25 237.681 249.812 237.297 249.449C236.913 249.087 236.457 248.81 235.959 248.635C235.461 248.461 234.932 248.393 234.406 248.436C231.238 248.782 228.493 253.825 227.917 256.609C227.885 256.782 227.693 258.83 227.61 259.956C227.162 258.964 226.714 257.972 226.221 256.987C224.806 254.132 223.29 251.297 221.779 248.455C221.318 247.585 220.87 246.708 220.416 245.838C220.845 245.742 225.882 244.558 227.776 243.118C229.466 241.838 231.251 239.707 231.232 237.46C231.245 236.933 231.146 236.408 230.943 235.921C230.74 235.434 230.436 234.996 230.052 234.633C229.668 234.271 229.213 233.994 228.715 233.819C228.217 233.645 227.688 233.577 227.162 233.62C224 233.966 221.248 239.009 220.672 241.793C220.634 242.004 220.365 244.948 220.333 245.697C219.334 243.777 218.362 241.857 217.478 239.937C216.265 237.331 215.226 234.648 214.368 231.905C214.566 231.86 219.827 230.663 221.773 229.179C223.456 227.899 225.248 225.767 225.229 223.521C225.24 222.994 225.141 222.47 224.938 221.983C224.734 221.497 224.431 221.058 224.047 220.697C223.663 220.335 223.208 220.057 222.71 219.882C222.213 219.707 221.684 219.639 221.158 219.681C217.99 220.02 215.245 225.07 214.669 227.854C214.624 228.071 214.342 231.239 214.33 231.815C214.278 231.655 214.214 231.495 214.163 231.335C213.378 228.564 212.838 225.728 212.55 222.862C212.378 221.281 212.294 219.758 212.25 218.273C213.254 218.151 217.83 217.543 219.725 216.391C221.619 215.239 223.565 213.39 223.782 211.15C223.856 210.626 223.817 210.092 223.67 209.583C223.523 209.075 223.27 208.603 222.928 208.199C222.586 207.795 222.163 207.468 221.686 207.238C221.209 207.009 220.689 206.883 220.16 206.868C216.96 206.868 213.69 211.572 212.813 214.279C212.768 214.427 212.448 215.975 212.23 217.108C212.23 216.436 212.198 215.745 212.198 215.105C212.198 212.699 212.358 210.491 212.506 208.539C212.602 207.431 212.71 206.427 212.819 205.492C213.741 204.852 217.427 202.292 218.579 200.404C219.731 198.516 220.589 195.969 219.763 193.876C219.586 193.378 219.305 192.922 218.94 192.539C218.575 192.156 218.133 191.854 217.643 191.653C217.154 191.452 216.627 191.356 216.098 191.372C215.569 191.388 215.049 191.515 214.573 191.745C211.744 193.211 211.002 198.907 211.469 201.71C211.507 201.953 212.576 205.671 212.627 205.639L212.678 205.601C212.557 206.497 212.435 207.463 212.32 208.519C212.128 210.471 211.923 212.679 211.872 215.099C211.781 217.703 211.843 220.31 212.058 222.907C212.281 225.818 212.765 228.703 213.504 231.527C213.513 231.562 213.523 231.596 213.536 231.63C213.03 230.843 211.558 228.686 211.424 228.532C209.568 226.382 204.704 223.323 201.773 224.564C201.291 224.784 200.862 225.104 200.512 225.501C200.162 225.898 199.9 226.365 199.742 226.87C199.585 227.375 199.535 227.908 199.597 228.434C199.659 228.96 199.832 229.466 200.102 229.921C201.261 231.796 203.853 232.769 205.952 233.076Z" fill="#263238"/>
<path d="M260.57 218.1C260.621 218.132 261.587 214.382 261.619 214.139C262.016 211.323 261.114 205.646 258.246 204.263C257.764 204.048 257.242 203.937 256.714 203.936C256.186 203.935 255.664 204.046 255.181 204.26C254.698 204.474 254.266 204.787 253.912 205.179C253.558 205.571 253.29 206.033 253.126 206.535C252.358 208.647 253.331 211.239 254.483 213.025C255.834 215.131 260.57 218.1 260.57 218.1Z" fill="#263238"/>
<path d="M124.045 175.003H39.232V65.1401H124.045V175.003ZM39.872 174.363H123.405V65.7801H39.872V174.363Z" fill="#263238"/>
<path d="M121.651 171.905H41.6V68.2251H121.651V171.905ZM42.2912 171.265H121.011V68.8651H42.24L42.2912 171.265Z" fill="#263238"/>
<path d="M101.76 146.075H61.5232V94.0747H101.76V146.075ZM62.176 145.435H101.12V94.7147H62.1632L62.176 145.435Z" fill="#263238"/>
<path d="M215.539 128.5L201.722 126.548L203.642 112.827L217.466 114.747L215.539 128.5ZM202.445 126.004L214.995 127.777L216.755 115.323L204.198 113.55L202.445 126.004ZM217.741 107.931L205.101 106.145L206.931 93.1785L207.053 93.1017C210.401 91.0494 213.585 88.7406 216.576 86.1961C219.374 83.838 221.809 81.0797 223.802 78.0105C225.686 75.085 226.913 71.7857 227.398 68.3401C227.776 65.6713 227.469 63.4889 226.483 61.8377C225.498 60.1865 223.872 59.2329 221.626 58.9129C220.769 58.7439 219.887 58.7463 219.032 58.9198C218.176 59.0934 217.363 59.4347 216.64 59.9241C215.965 60.4472 215.405 61.1045 214.996 61.8546C214.588 62.6048 214.339 63.4314 214.266 64.2825C214.14 65.1172 214.118 65.9642 214.202 66.8041C214.285 67.6297 214.394 68.5193 214.528 69.4473L214.573 69.7865L201.37 70.7657L201.318 70.4905C201.045 69.1449 200.88 67.7794 200.826 66.4073C200.776 65.0727 200.844 63.7363 201.03 62.4137C201.818 56.8393 204.192 52.5705 208.07 49.7225C211.949 46.8745 217.158 45.8825 223.514 46.7913C230.003 47.7065 234.854 50.2153 237.946 54.2409C241.037 58.2665 242.144 63.6041 241.229 70.0937C240.7 74.1196 239.377 78.0005 237.338 81.5113C235.276 84.955 232.669 88.0415 229.619 90.6505C226.345 93.4572 222.826 95.9653 219.104 98.1449L217.741 107.931ZM205.824 105.601L217.197 107.207L218.534 97.7225L218.669 97.6457C222.404 95.4672 225.934 92.9545 229.216 90.1385C232.212 87.5674 234.774 84.5288 236.8 81.1401C238.808 77.7091 240.114 73.9127 240.64 69.9721C241.53 63.6617 240.467 58.4905 237.485 54.6121C234.502 50.7337 229.805 48.3017 223.469 47.4057C217.286 46.5353 212.243 47.4825 208.493 50.2217C204.742 52.9609 202.426 57.0761 201.664 62.4713C201.483 63.7557 201.417 65.0536 201.466 66.3497C201.515 67.5937 201.656 68.8323 201.888 70.0553L213.843 69.1657C213.734 68.3529 213.638 67.5721 213.562 66.8361C213.474 65.9449 213.498 65.0463 213.632 64.1609C213.716 63.2255 213.993 62.3176 214.446 61.4947C214.899 60.6718 215.517 59.9518 216.262 59.3801C217.051 58.8393 217.939 58.4607 218.875 58.2662C219.811 58.0718 220.777 58.0653 221.715 58.2473C224.166 58.5929 225.952 59.6809 227.027 61.4473C228.102 63.2137 228.429 65.5497 228.032 68.3657C227.538 71.9119 226.278 75.3079 224.339 78.3177C222.313 81.4373 219.837 84.2408 216.992 86.6377C214.013 89.1686 210.846 91.4706 207.52 93.5241L205.824 105.601Z" fill="#263238"/>
<path d="M134.982 159.86C134.982 159.86 93.9008 160.404 92.6208 163.329C91.3408 166.254 85.4976 201.678 85.1328 213.889C84.768 226.1 84.5888 234.158 85.8624 235.617C87.136 237.076 107.046 248.583 107.046 248.583C107.046 248.583 97.7344 281.268 100.646 282.369C103.558 283.47 121.466 288.027 132.966 288.212C144.467 288.398 155.795 288.391 156.71 288.391C157.626 288.391 187.021 289.486 197.248 287.111C207.475 284.737 210.573 284.551 210.573 280.539C210.573 276.526 208.013 271.579 207.834 270.683C207.654 269.787 214.778 200.558 210.758 183.579C206.739 166.599 201.446 160.02 197.427 158.926C193.408 157.831 164.742 158.561 164.742 158.561L134.982 159.86Z" fill="#06BCC1"/>
<path d="M172.474 288.999C167.994 288.999 162.995 288.929 157.606 288.775H156.717C154.669 288.775 143.917 288.775 132.973 288.596C121.28 288.41 103.386 283.796 100.544 282.727C99.904 282.497 98.4512 281.946 102.464 265.057C104.218 257.62 106.304 250.215 106.688 248.801C104.416 247.489 86.88 237.313 85.6448 235.892C84.2944 234.35 84.448 226.932 84.832 213.946C85.2032 201.575 91.1424 166.004 92.3456 163.246C93.6256 160.282 128.09 159.674 134.995 159.585L164.755 158.305C165.933 158.273 193.555 157.588 197.536 158.682C200.006 159.322 206.259 163.124 211.098 183.566C214.406 197.556 210.246 246.119 208.678 264.398C208.378 267.911 208.16 270.452 208.179 270.702C208.323 271.147 208.49 271.585 208.678 272.014C209.459 273.934 210.918 277.543 210.918 280.602C210.918 284.442 208.314 285.006 200.57 286.753L197.37 287.489C192.954 288.5 184.32 288.999 172.474 288.999ZM182.938 158.682C174.24 158.682 164.922 158.913 164.755 158.919L134.995 160.199C119.187 160.41 93.792 161.479 92.9216 163.476C91.7248 166.209 85.8304 201.614 85.4592 213.94C85.1392 224.711 84.8576 234.017 86.0992 235.45C87.1168 236.615 101.677 245.153 107.219 248.346C107.281 248.382 107.329 248.437 107.355 248.503C107.382 248.57 107.386 248.643 107.366 248.711C102.816 264.641 99.1104 281.46 100.768 282.1C103.59 283.156 121.363 287.738 132.979 287.924C143.93 288.097 154.669 288.103 156.717 288.103H157.626C177.152 288.654 191.2 288.199 197.178 286.823C198.349 286.548 199.424 286.311 200.41 286.087C207.974 284.378 210.259 283.86 210.259 280.558C210.259 277.626 208.832 274.1 208.064 272.206C207.855 271.735 207.676 271.252 207.526 270.759C207.494 270.574 207.584 269.447 208.026 264.295C209.587 246.042 213.741 197.562 210.451 183.655C205.696 163.546 199.706 159.886 197.35 159.239C195.667 158.817 189.478 158.682 182.938 158.682Z" fill="#263238"/>
<path d="M152.595 177.038C152.533 177.039 152.471 177.021 152.419 176.987C152.366 176.953 152.325 176.904 152.301 176.846C152.284 176.807 152.275 176.766 152.274 176.723C152.273 176.681 152.281 176.639 152.296 176.6C152.312 176.561 152.335 176.525 152.364 176.495C152.393 176.464 152.428 176.44 152.467 176.423C153.922 175.802 155.337 175.09 156.704 174.292C156.741 174.271 156.781 174.258 156.823 174.252C156.865 174.247 156.907 174.25 156.948 174.261C156.988 174.272 157.027 174.291 157.06 174.316C157.093 174.342 157.121 174.374 157.142 174.411C157.163 174.447 157.177 174.488 157.182 174.529C157.188 174.571 157.185 174.614 157.174 174.654C157.163 174.695 157.144 174.733 157.118 174.767C157.093 174.8 157.061 174.828 157.024 174.849C155.635 175.659 154.196 176.381 152.717 177.012C152.679 177.03 152.637 177.039 152.595 177.038Z" fill="#263238"/>
<path d="M158.797 173.697C158.744 173.696 158.692 173.683 158.645 173.659C158.599 173.634 158.558 173.599 158.528 173.556C158.482 173.485 158.467 173.398 158.485 173.315C158.503 173.233 158.553 173.16 158.624 173.114C163.711 169.726 168.178 165.487 171.827 160.583C171.851 160.549 171.882 160.519 171.918 160.496C171.954 160.474 171.994 160.459 172.035 160.451C172.077 160.444 172.12 160.445 172.161 160.455C172.202 160.464 172.241 160.482 172.275 160.506C172.31 160.53 172.339 160.56 172.361 160.595C172.384 160.631 172.399 160.67 172.406 160.711C172.414 160.752 172.412 160.794 172.403 160.835C172.394 160.876 172.376 160.914 172.352 160.948C168.654 165.915 164.129 170.21 158.976 173.646C158.923 173.681 158.86 173.699 158.797 173.697Z" fill="#263238"/>
<path d="M162.56 175.489C162.503 175.488 162.446 175.472 162.397 175.443C162.347 175.414 162.307 175.372 162.278 175.322C162.258 175.285 162.245 175.245 162.241 175.203C162.236 175.161 162.24 175.118 162.252 175.078C162.264 175.038 162.284 175 162.31 174.967C162.337 174.934 162.369 174.907 162.406 174.887C165.606 173.172 169.35 167.943 169.389 167.892C169.411 167.854 169.442 167.821 169.478 167.795C169.514 167.769 169.555 167.751 169.598 167.742C169.642 167.733 169.687 167.733 169.73 167.742C169.773 167.751 169.814 167.769 169.85 167.795C169.887 167.821 169.917 167.854 169.939 167.892C169.962 167.93 169.976 167.972 169.982 168.016C169.987 168.06 169.983 168.105 169.97 168.148C169.958 168.19 169.936 168.229 169.907 168.263C169.754 168.481 166.067 173.665 162.707 175.45C162.662 175.476 162.612 175.489 162.56 175.489Z" fill="#263238"/>
<path d="M143.546 226.907C143.478 226.906 143.413 226.883 143.359 226.843C143.305 226.803 143.265 226.747 143.245 226.683L142.17 223.342C142.156 223.302 142.15 223.26 142.153 223.217C142.156 223.175 142.167 223.134 142.186 223.097C142.205 223.059 142.232 223.026 142.264 222.998C142.297 222.971 142.334 222.951 142.374 222.939C142.455 222.912 142.543 222.919 142.618 222.958C142.694 222.996 142.751 223.063 142.778 223.143L143.853 226.484C143.879 226.565 143.872 226.653 143.834 226.728C143.795 226.804 143.729 226.861 143.648 226.887C143.615 226.9 143.581 226.906 143.546 226.907Z" fill="#263238"/>
<path d="M149.408 245.108C149.34 245.108 149.275 245.086 149.22 245.046C149.166 245.006 149.127 244.949 149.107 244.884L144.346 230.107C144.319 230.022 144.328 229.93 144.369 229.851C144.411 229.773 144.482 229.714 144.566 229.687C144.651 229.661 144.743 229.67 144.822 229.711C144.9 229.752 144.959 229.823 144.986 229.908L149.747 244.692C149.772 244.773 149.764 244.86 149.726 244.935C149.688 245.01 149.622 245.068 149.542 245.095L149.408 245.108Z" fill="#263238"/>
<path d="M150.874 245.473C150.812 245.476 150.751 245.458 150.701 245.422C150.665 245.399 150.634 245.37 150.609 245.336C150.585 245.302 150.567 245.263 150.558 245.222C150.548 245.181 150.547 245.139 150.554 245.097C150.561 245.055 150.576 245.016 150.598 244.98L155.347 237.498C155.369 237.462 155.398 237.43 155.432 237.405C155.466 237.38 155.505 237.362 155.546 237.353C155.587 237.343 155.63 237.342 155.672 237.35C155.714 237.357 155.753 237.373 155.789 237.396C155.86 237.442 155.91 237.514 155.929 237.596C155.948 237.679 155.935 237.765 155.891 237.838L151.142 245.326C151.113 245.37 151.073 245.407 151.026 245.433C150.979 245.458 150.927 245.472 150.874 245.473Z" fill="#263238"/>
<path d="M161.645 241.089C161.582 241.091 161.521 241.075 161.468 241.042C161.415 241.008 161.373 240.96 161.347 240.903C161.322 240.846 161.314 240.783 161.325 240.721C161.336 240.66 161.365 240.603 161.408 240.558L172.928 227.591C172.985 227.528 173.065 227.489 173.15 227.484C173.235 227.48 173.319 227.509 173.382 227.566C173.446 227.623 173.485 227.702 173.489 227.788C173.494 227.873 173.465 227.956 173.408 228.02L161.888 240.987C161.857 241.02 161.82 241.047 161.778 241.065C161.736 241.082 161.69 241.091 161.645 241.089Z" fill="#263238"/>
<path d="M156.717 288.749H156.627L131.84 281.524C131.8 281.512 131.762 281.492 131.729 281.466C131.696 281.44 131.669 281.407 131.649 281.371C131.629 281.334 131.616 281.293 131.611 281.251C131.607 281.21 131.611 281.167 131.622 281.127C131.633 281.086 131.653 281.048 131.679 281.015C131.705 280.982 131.737 280.954 131.774 280.934C131.811 280.913 131.852 280.901 131.894 280.897C131.936 280.892 131.979 280.897 132.019 280.909L156.8 288.122C156.885 288.134 156.962 288.179 157.013 288.248C157.065 288.316 157.087 288.402 157.075 288.487C157.063 288.572 157.018 288.649 156.95 288.7C156.881 288.752 156.795 288.774 156.71 288.762L156.717 288.749Z" fill="#263238"/>
<path d="M129.011 280.679H128.922L124.672 279.437C124.587 279.414 124.515 279.357 124.472 279.28C124.429 279.204 124.418 279.113 124.442 279.028C124.465 278.943 124.522 278.871 124.599 278.828C124.675 278.785 124.766 278.774 124.851 278.797L129.101 280.039C129.141 280.051 129.179 280.07 129.212 280.097C129.244 280.123 129.272 280.156 129.292 280.192C129.312 280.229 129.325 280.27 129.329 280.311C129.334 280.353 129.33 280.396 129.318 280.436C129.301 280.505 129.262 280.566 129.206 280.61C129.151 280.654 129.082 280.678 129.011 280.679Z" fill="#263238"/>
<path d="M134.726 78.6631C134.726 78.6631 121.83 75.6999 119.366 79.0151C116.902 82.3303 121.811 85.4663 121.114 86.1639C120.416 86.8615 105.421 94.5287 106.637 102.03C107.853 109.53 117.971 117.198 118.323 119.31C118.675 121.422 106.637 122.1 105.069 125.236C103.501 128.372 101.229 143.194 114.31 148.078C127.392 152.961 143.75 144.762 148.307 144.762C152.864 144.762 157.376 153.658 162.605 153.134C165.79 152.769 168.719 151.212 170.803 148.775C170.803 148.775 176.205 156.276 184.051 153.134C191.898 149.991 200.966 139.009 197.133 135.7C193.299 132.391 188.934 131.342 191.725 128.378C194.515 125.415 200.269 117.569 199.405 110.766C198.541 103.962 190.509 103.444 187.373 101.351C184.237 99.2583 190.861 95.7703 190.688 90.0167C190.515 84.2631 186.323 74.6567 165.056 68.2567C143.789 61.8567 133.325 64.9415 132.275 70.3495C131.947 71.8295 132 73.3685 132.429 74.8224C132.857 76.2764 133.648 77.5979 134.726 78.6631Z" fill="#263238"/>
<path d="M180.262 154.196C175.277 154.196 171.757 150.401 170.816 149.262C168.7 151.61 165.797 153.104 162.656 153.46C159.744 153.754 157.107 151.329 154.566 148.98C152.39 146.97 150.33 145.076 148.326 145.076C147.104 145.076 144.909 145.716 142.131 146.535C134.803 148.679 123.725 151.918 114.221 148.372C109.677 146.676 106.541 143.662 104.851 139.412C102.611 133.703 103.712 127.252 104.8 125.089C105.696 123.303 109.51 122.305 112.877 121.428C115.226 120.788 118.144 120.052 117.997 119.354C117.85 118.657 116.55 117.274 114.995 115.598C111.866 112.212 107.13 107.098 106.317 102.094C105.248 95.5336 115.757 89.108 119.718 86.6888C120.269 86.3496 120.794 86.0488 120.877 85.9464C120.669 85.5955 120.433 85.2616 120.173 84.948C119.11 83.5656 117.331 81.2424 119.104 78.836C121.254 75.9176 130.624 77.556 133.773 78.1512C132.903 77.0535 132.29 75.775 131.979 74.4095C131.668 73.044 131.666 71.6261 131.974 70.26C132.166 69.4365 132.531 68.6633 133.045 67.9923C133.56 67.3212 134.211 66.7677 134.957 66.3688C140.288 63.1688 151.302 63.7192 165.158 67.924C187.277 74.6312 190.854 84.6408 191.021 90.0168C191.104 92.9096 189.555 95.22 188.307 97.0568C187.456 98.3368 186.726 99.412 186.88 100.199C186.929 100.383 187.015 100.555 187.133 100.705C187.251 100.855 187.398 100.979 187.565 101.07C188.633 101.687 189.764 102.189 190.938 102.567C194.566 103.911 199.078 105.588 199.731 110.714C200.589 117.402 195.251 125.095 191.974 128.583C191.733 128.783 191.537 129.033 191.402 129.316C191.266 129.599 191.193 129.908 191.187 130.222C191.29 131.156 192.55 132.007 194.15 133.076C195.263 133.801 196.332 134.591 197.35 135.444C197.784 135.856 198.1 136.376 198.267 136.951C198.433 137.526 198.444 138.134 198.298 138.714C197.491 143.527 190.368 150.945 184.186 153.434C182.938 153.935 181.607 154.193 180.262 154.196ZM170.822 148.436C170.872 148.437 170.92 148.449 170.964 148.473C171.007 148.496 171.044 148.53 171.072 148.57C171.13 148.641 176.429 155.828 183.949 152.82C189.965 150.414 196.89 143.22 197.664 138.606C197.862 137.415 197.619 136.513 196.934 135.924C195.934 135.094 194.885 134.325 193.792 133.62C192.058 132.455 190.688 131.534 190.547 130.311C190.541 129.903 190.624 129.498 190.791 129.125C190.958 128.753 191.204 128.421 191.514 128.154C194.496 124.954 199.93 117.274 199.098 110.804C198.49 106.068 194.176 104.468 190.714 103.182C189.493 102.786 188.317 102.263 187.206 101.62C186.969 101.482 186.763 101.297 186.599 101.077C186.435 100.857 186.317 100.607 186.253 100.34C186.048 99.2968 186.81 98.1576 187.776 96.7176C188.973 94.9384 190.458 92.724 190.381 90.036C190.221 84.8328 186.714 75.1304 164.973 68.5384C151.29 64.3848 140.467 63.796 135.29 66.9192C134.621 67.2722 134.036 67.7635 133.572 68.3606C133.109 68.9576 132.778 69.6466 132.602 70.3816C132.28 71.8137 132.326 73.3038 132.734 74.7136C133.142 76.1234 133.9 77.4071 134.938 78.4456C134.991 78.4937 135.027 78.5577 135.041 78.628C135.055 78.6984 135.045 78.7713 135.014 78.836C134.982 78.8998 134.929 78.9509 134.864 78.9811C134.799 79.0113 134.726 79.0188 134.656 79.0024C131.123 78.1896 121.542 76.6536 119.642 79.2264C118.157 81.2488 119.642 83.1688 120.704 84.5768C121.344 85.3896 121.786 85.9848 121.344 86.4136C120.939 86.7243 120.511 87.0045 120.064 87.252C116.576 89.3832 105.984 95.8664 106.963 102.004C107.744 106.817 112.397 111.847 115.482 115.175C117.306 117.146 118.509 118.446 118.643 119.265C118.854 120.545 116.41 121.185 113.03 122.062C109.952 122.862 106.125 123.86 105.35 125.39C104.339 127.412 103.277 133.742 105.421 139.188C106.202 141.191 107.412 142.998 108.967 144.483C110.522 145.968 112.383 147.095 114.419 147.783C123.725 151.258 134.675 148.052 141.939 145.934C144.768 145.108 146.995 144.449 148.339 144.449C150.592 144.449 152.742 146.426 155.014 148.519C157.453 150.766 159.974 153.082 162.605 152.82C165.7 152.457 168.546 150.945 170.579 148.583C170.606 148.542 170.642 148.507 170.684 148.482C170.726 148.456 170.773 148.441 170.822 148.436Z" fill="#263238"/>
<path d="M137.05 134.605C137.05 134.605 132.691 161.805 132.518 162.676C132.346 163.546 140.198 171.393 150.822 169.997C157.046 169.249 162.765 166.205 166.861 161.46L163.552 134.433C163.552 134.433 154.483 138.791 148.902 138.618C143.322 138.445 137.05 134.605 137.05 134.605Z" fill="white"/>
<path d="M148.314 170.484C142.604 170.391 137.15 168.098 133.088 164.084C132.109 163.041 132.179 162.708 132.205 162.58C132.371 161.729 136.685 134.798 136.73 134.523C136.739 134.471 136.761 134.422 136.793 134.381C136.825 134.339 136.867 134.306 136.914 134.284C136.962 134.262 137.014 134.252 137.067 134.254C137.12 134.257 137.171 134.272 137.216 134.299C137.28 134.337 143.488 138.094 148.915 138.267C154.342 138.439 163.322 134.158 163.411 134.113C163.457 134.089 163.507 134.077 163.558 134.077C163.61 134.077 163.66 134.089 163.706 134.113C163.749 134.138 163.786 134.174 163.814 134.216C163.842 134.258 163.86 134.306 163.866 134.356L167.181 161.377C167.186 161.419 167.183 161.461 167.172 161.502C167.161 161.542 167.143 161.58 167.117 161.614C162.955 166.408 157.167 169.494 150.867 170.279C150.021 170.404 149.168 170.472 148.314 170.484ZM137.293 135.118C136.698 138.823 132.992 161.927 132.813 162.74C132.947 163.534 140.384 171.06 150.733 169.684C156.817 168.916 162.414 165.959 166.477 161.364L163.29 134.9C161.446 135.751 153.888 139.086 148.896 138.932C144.051 138.785 138.784 135.975 137.293 135.118Z" fill="#263238"/>
<path d="M135.258 149.197L153.619 145.645L137.05 134.605L135.258 149.197Z" fill="#263238"/>
<path d="M135.258 149.518C135.178 149.515 135.101 149.486 135.04 149.435C135.004 149.399 134.977 149.356 134.96 149.308C134.944 149.26 134.938 149.209 134.944 149.159L136.73 134.567C136.736 134.513 136.757 134.462 136.789 134.418C136.822 134.374 136.865 134.34 136.915 134.318C136.964 134.292 137.017 134.279 137.072 134.279C137.127 134.279 137.18 134.292 137.229 134.318L153.792 145.364C153.846 145.398 153.888 145.447 153.913 145.505C153.938 145.564 153.945 145.628 153.933 145.691C153.92 145.753 153.889 145.81 153.843 145.854C153.797 145.899 153.739 145.929 153.677 145.94L135.322 149.492L135.258 149.518ZM137.306 135.163L135.629 148.801L152.787 145.479L137.306 135.163Z" fill="#263238"/>
<path d="M127.36 110.625C127.36 110.625 124.288 106.734 122.88 111.649C121.472 116.564 127.59 122.529 127.59 122.529L127.36 110.625Z" fill="white"/>
<path d="M127.565 122.823C127.489 122.819 127.417 122.79 127.36 122.74C127.104 122.49 121.094 116.609 122.566 111.565C123.034 109.965 123.738 109.063 124.659 108.884C126.157 108.596 127.571 110.356 127.629 110.433C127.674 110.487 127.698 110.555 127.699 110.625L127.904 122.503C127.904 122.566 127.886 122.628 127.852 122.681C127.818 122.735 127.769 122.777 127.712 122.804C127.664 122.817 127.615 122.824 127.565 122.823ZM125.005 109.485C124.932 109.479 124.86 109.479 124.787 109.485C124.147 109.613 123.578 110.388 123.187 111.719C122.08 115.521 125.798 120.077 127.258 121.671L127.066 110.721C126.675 110.311 125.792 109.485 124.979 109.485H125.005Z" fill="#263238"/>
<path d="M171.373 110.625C171.373 110.625 174.445 106.734 175.853 111.649C177.261 116.564 171.142 122.529 171.142 122.529L171.373 110.625Z" fill="white"/>
<path d="M171.168 122.823C171.126 122.83 171.082 122.83 171.04 122.823C170.981 122.799 170.931 122.756 170.897 122.703C170.863 122.649 170.846 122.586 170.848 122.522L171.053 110.644C171.054 110.575 171.077 110.508 171.117 110.452C171.181 110.375 172.602 108.609 174.086 108.903C175.014 109.082 175.718 109.985 176.186 111.585C177.651 116.628 171.642 122.51 171.386 122.759C171.324 122.807 171.246 122.83 171.168 122.823ZM171.686 110.74L171.52 121.69C172.973 120.097 176.698 115.54 175.59 111.738C175.2 110.407 174.643 109.633 173.984 109.505C173.101 109.338 172.09 110.273 171.686 110.74Z" fill="#263238"/>
<path d="M137.011 86.0357C137.011 86.0357 128.218 94.5797 126.944 97.1397C125.67 99.6997 126.182 128.871 127.584 131.7C128.986 134.529 143.002 145.466 145.293 146.356C147.584 147.245 152.813 148.141 156.89 146.1C160.966 144.058 170.778 133.613 171.802 130.938C172.826 128.263 171.546 97.6581 170.906 94.7461C170.266 91.8341 154.88 81.3189 148.352 80.8133C141.824 80.3077 137.011 86.0357 137.011 86.0357Z" fill="white"/>
<path d="M151.04 147.611C149.036 147.621 147.046 147.283 145.158 146.612C142.694 145.652 128.698 134.638 127.277 131.803C125.856 128.967 125.306 99.6426 126.637 96.9802C127.917 94.4202 136.237 86.2986 136.755 85.8186C137.075 85.441 141.875 79.9818 148.358 80.4938C154.688 80.993 170.483 91.3226 171.2 94.6314C171.795 97.3834 173.12 128.263 172.077 131.009C170.982 133.889 161.05 144.327 157.011 146.369C155.142 147.235 153.099 147.66 151.04 147.611ZM147.52 81.1018C141.658 81.1018 137.28 86.1898 137.235 86.2218C137.146 86.305 128.467 94.753 127.232 97.2234C125.997 99.6938 126.541 128.814 127.872 131.47C129.203 134.126 143.078 145.057 145.414 145.966C147.872 146.919 152.915 147.643 156.755 145.723C160.87 143.668 170.566 133.204 171.507 130.734C172.538 128.033 171.194 97.4538 170.598 94.7274C170.003 92.001 154.752 81.633 148.326 81.1402C148.064 81.1402 147.802 81.1018 147.539 81.1018H147.52Z" fill="#263238"/>
<path d="M143.923 80.8136C143.923 80.8136 157.094 92.8328 166.566 93.2936L176.045 93.7544C176.045 93.7544 155.245 90.9832 148.774 76.8904C148.774 76.8904 141.613 70.9 143.923 80.8136Z" fill="#263238"/>
<path d="M176.045 94.0743L166.573 93.6135C157.094 93.1527 144.269 81.5495 143.725 81.0503C143.678 81.007 143.645 80.9515 143.629 80.8903C142.867 77.6135 143.034 75.6935 144.141 75.0151C145.779 74.0103 148.678 76.3719 148.998 76.6407C149.037 76.6715 149.068 76.711 149.088 76.7559C155.411 90.5287 175.898 93.3959 176.102 93.4407C176.185 93.4504 176.261 93.4919 176.313 93.5564C176.366 93.6209 176.391 93.7034 176.384 93.7863C176.374 93.8683 176.334 93.9436 176.271 93.997C176.208 94.0505 176.127 94.0781 176.045 94.0743ZM144.211 80.6343C145.286 81.5943 157.696 92.5255 166.611 92.9607L171.962 93.2231C165.562 91.6103 153.267 87.2775 148.544 77.0759C147.712 76.3911 145.517 74.9127 144.48 75.5463C143.891 75.9047 143.398 77.0695 144.211 80.6471V80.6343Z" fill="#263238"/>
<path d="M152.32 117.831C152.239 117.832 152.162 117.801 152.102 117.747C152.043 117.692 152.006 117.617 152 117.537L150.982 104.666C150.979 104.624 150.984 104.582 150.997 104.542C151.01 104.502 151.031 104.465 151.058 104.433C151.085 104.401 151.119 104.374 151.156 104.355C151.194 104.336 151.235 104.324 151.277 104.321C151.319 104.317 151.361 104.322 151.401 104.335C151.441 104.348 151.478 104.369 151.511 104.396C151.543 104.424 151.569 104.457 151.588 104.495C151.607 104.532 151.619 104.573 151.622 104.615L152.64 117.486C152.644 117.528 152.639 117.57 152.626 117.61C152.613 117.65 152.592 117.688 152.565 117.72C152.537 117.752 152.504 117.778 152.466 117.797C152.429 117.816 152.388 117.828 152.346 117.831H152.32Z" fill="#263238"/>
<path d="M149.37 123.95C147.59 123.95 145.888 122.03 145.818 121.927C145.788 121.896 145.764 121.859 145.749 121.819C145.734 121.779 145.727 121.735 145.729 121.692C145.73 121.649 145.741 121.607 145.76 121.568C145.778 121.529 145.805 121.494 145.837 121.465C145.869 121.437 145.907 121.415 145.948 121.402C145.989 121.388 146.033 121.383 146.076 121.387C146.119 121.391 146.161 121.403 146.199 121.423C146.237 121.444 146.27 121.471 146.298 121.505C146.298 121.505 147.885 123.31 149.37 123.31C150.592 123.31 152.442 120.929 153.056 120.014C153.079 119.978 153.108 119.948 153.143 119.924C153.178 119.9 153.217 119.884 153.258 119.875C153.299 119.867 153.341 119.867 153.383 119.875C153.424 119.884 153.463 119.9 153.498 119.924C153.568 119.971 153.617 120.044 153.633 120.127C153.65 120.209 153.634 120.295 153.587 120.366C153.344 120.731 151.149 123.95 149.37 123.95Z" fill="#263238"/>
<path d="M147.856 131.243C148.242 131.184 148.634 131.124 149.032 131.102C152.969 130.767 156.596 135.056 156.753 135.239C156.78 135.272 156.8 135.309 156.813 135.35C156.826 135.39 156.83 135.432 156.826 135.474C156.822 135.516 156.81 135.557 156.791 135.595C156.771 135.632 156.744 135.665 156.712 135.692C156.68 135.719 156.642 135.74 156.602 135.752C156.562 135.765 156.519 135.77 156.477 135.766C156.435 135.762 156.394 135.75 156.357 135.73C156.319 135.711 156.286 135.684 156.259 135.651C156.251 135.601 152.69 131.438 149.085 131.742C146.476 132.05 143.926 132.74 141.518 133.79C141.438 133.826 141.347 133.829 141.264 133.798C141.182 133.767 141.115 133.704 141.079 133.624C141.042 133.544 141.039 133.452 141.071 133.37C141.102 133.287 141.164 133.221 141.245 133.184C143.362 132.273 145.582 131.622 147.856 131.243Z" fill="#263238"/>
<path d="M154.149 100.748C154.149 100.748 159.652 101.629 161.751 101.854C163.849 102.078 167.959 97.4899 167.959 97.4899C167.959 97.4899 165.225 101.632 163.368 103.027C161.51 104.422 155.797 103.649 154.744 102.451C153.69 101.252 152.87 102.132 154.149 100.748Z" fill="#263238"/>
<path d="M154.011 100.487C153.976 100.498 153.943 100.515 153.914 100.537C153.302 101.193 153.122 101.387 153.169 101.644C153.202 101.739 153.259 101.824 153.334 101.891C153.409 101.958 153.5 102.005 153.598 102.027C153.944 102.15 154.252 102.36 154.491 102.638C155.629 103.93 161.507 104.769 163.534 103.242C165.42 101.832 168.092 97.7947 168.207 97.627C168.25 97.559 168.267 97.4772 168.254 97.3976C168.241 97.318 168.198 97.2461 168.135 97.1958C168.071 97.146 167.991 97.1222 167.91 97.1292C167.83 97.1363 167.755 97.1736 167.7 97.2337C166.591 98.472 163.362 101.645 161.763 101.493C159.682 101.303 154.242 100.418 154.187 100.41C154.122 100.419 154.061 100.446 154.011 100.487ZM153.925 101.504L154.277 101.113C155.216 101.268 159.835 102.002 161.721 102.178C162.804 102.28 164.276 101.322 165.546 100.268C164.857 101.193 164.062 102.036 163.178 102.778C161.456 104.06 155.921 103.31 154.984 102.267C154.7 101.918 154.332 101.647 153.913 101.481L153.925 101.504Z" fill="#263238"/>
<path d="M145.112 100.883C145.003 101.475 144.725 102.024 144.313 102.463C143.901 102.903 143.371 103.214 142.787 103.361C140.702 103.951 130.815 103.514 132.434 103.157C134.053 102.801 140.799 101.446 142.543 101.062C143.377 100.823 144.253 100.762 145.112 100.883Z" fill="#263238"/>
<path d="M132.367 102.838C132.277 102.845 132.191 102.877 132.118 102.93C132.046 102.983 131.989 103.056 131.955 103.139C131.938 103.198 131.935 103.26 131.949 103.321C131.962 103.381 131.99 103.436 132.031 103.483C132.55 104.024 141.156 104.153 142.864 103.666C143.51 103.506 144.094 103.162 144.548 102.675C145.002 102.189 145.305 101.582 145.42 100.927C145.43 100.85 145.411 100.772 145.368 100.707C145.325 100.642 145.26 100.594 145.185 100.573C144.275 100.443 143.349 100.502 142.464 100.746C141.576 100.942 139.401 101.421 137.25 101.829C135.099 102.237 133.161 102.664 132.367 102.838ZM142.539 103.082C140.964 103.429 136.344 103.339 133.926 103.164L137.394 102.452C139.538 102.013 141.726 101.564 142.614 101.368C143.304 101.201 144.013 101.128 144.723 101.153C144.576 101.617 144.311 102.036 143.955 102.368C143.599 102.7 143.163 102.935 142.689 103.049L142.539 103.082Z" fill="#263238"/>
<path d="M165.555 110.503C163.632 110.94 161.665 111.154 159.693 111.143C157.133 111.015 154.848 110.247 155.853 111.393C156.858 112.539 158.912 113.563 162.093 112.923C165.274 112.283 166.445 111.649 165.555 110.503Z" fill="#263238"/>
<path d="M142.49 110.503C140.566 110.94 138.599 111.154 136.627 111.143C134.067 111.015 131.789 110.247 132.787 111.393C133.786 112.539 135.846 113.563 139.034 112.923C142.221 112.283 143.36 111.649 142.49 110.503Z" fill="#263238"/>
<path d="M100.083 183.95C100.083 183.95 103.923 162.83 105.664 160.763C107.405 158.695 126.413 143.15 127.456 142.107C128.499 141.063 136 129.723 136.352 131.118C136.704 132.513 135.482 138.619 133.21 141.927C130.938 145.236 127.808 149.255 127.808 149.255C127.808 149.255 139.52 152.219 140.16 152.916C140.8 153.614 144.832 162.292 145.043 163.374C145.414 165.243 144.877 167.246 143.302 167.387C141.869 167.508 132.493 162.676 132.493 162.676L125.018 163.7C125.018 163.7 119.616 170.324 115.949 171.547C114.304 172.148 112.613 172.615 110.893 172.942L111.072 185.844L100.083 183.95Z" fill="white"/>
<path d="M111.072 186.19H111.014L100.032 184.27C99.9468 184.254 99.871 184.206 99.8208 184.135C99.7746 184.066 99.7563 183.981 99.7696 183.899C99.9296 183.035 103.642 162.695 105.421 160.564C106.586 159.163 115.072 152.084 121.267 146.919C124.403 144.302 126.886 142.235 127.232 141.883C127.578 141.531 128.557 140.161 129.728 138.529C134.285 132.18 135.635 130.567 136.307 130.695C136.394 130.713 136.473 130.756 136.536 130.819C136.598 130.881 136.641 130.961 136.659 131.047C137.037 132.558 135.776 138.759 133.459 142.119C131.616 144.801 129.184 147.982 128.339 149.07C131.066 149.767 139.718 152.02 140.397 152.692C141.075 153.364 145.139 162.183 145.363 163.323C145.513 163.921 145.542 164.543 145.449 165.153C145.356 165.763 145.141 166.348 144.819 166.875C144.645 167.112 144.423 167.309 144.167 167.453C143.911 167.598 143.627 167.686 143.334 167.713C141.875 167.841 133.734 163.694 132.454 163.015L125.184 164.02C124.474 164.884 119.558 170.708 116.051 171.873C114.472 172.431 112.858 172.887 111.219 173.236L111.392 185.863C111.391 185.911 111.381 185.957 111.361 186C111.341 186.043 111.312 186.082 111.277 186.113C111.218 186.16 111.147 186.187 111.072 186.19ZM100.48 183.687L110.72 185.46L110.547 172.942C110.548 172.864 110.577 172.788 110.629 172.729C110.68 172.671 110.751 172.633 110.829 172.622C112.53 172.297 114.201 171.835 115.827 171.239C119.354 170.062 124.691 163.559 124.742 163.495C124.794 163.433 124.867 163.392 124.947 163.38L132.48 162.363C132.544 162.351 132.61 162.362 132.666 162.395C136.262 164.244 142.342 167.163 143.302 167.067C143.506 167.049 143.704 166.987 143.882 166.885C144.06 166.783 144.214 166.644 144.333 166.478C144.601 166.024 144.777 165.522 144.851 165.001C144.925 164.479 144.894 163.948 144.762 163.438C144.531 162.286 140.544 153.716 139.968 153.14C139.424 152.66 132.173 150.689 127.738 149.563C127.686 149.549 127.639 149.524 127.6 149.488C127.562 149.452 127.532 149.406 127.515 149.356C127.498 149.306 127.494 149.253 127.502 149.2C127.511 149.148 127.532 149.099 127.565 149.057C127.565 149.012 130.72 145.012 132.954 141.748C135.187 138.484 136.237 132.999 136.083 131.412C135.11 132.129 131.987 136.487 130.253 138.9C129.018 140.622 128.045 141.979 127.693 142.331C127.341 142.683 124.954 144.673 121.683 147.406C115.853 152.263 107.046 159.611 105.914 160.967C104.55 162.599 101.568 177.62 100.48 183.687Z" fill="#263238"/>
<path d="M145.069 163.7C145.017 163.702 144.965 163.689 144.919 163.665C144.873 163.64 144.834 163.604 144.806 163.559C142.778 160.571 139.398 155.694 138.97 155.355C138.541 155.015 133.133 154.203 128.326 153.556C128.242 153.544 128.165 153.499 128.113 153.431C128.062 153.362 128.039 153.276 128.051 153.191C128.063 153.107 128.108 153.03 128.177 152.978C128.245 152.927 128.331 152.904 128.416 152.916C130.822 153.243 138.733 154.337 139.373 154.836C140.013 155.335 144.794 162.382 145.331 163.156C145.355 163.191 145.373 163.23 145.381 163.272C145.39 163.313 145.391 163.356 145.383 163.398C145.376 163.439 145.36 163.479 145.336 163.514C145.313 163.55 145.283 163.58 145.248 163.604C145.199 163.653 145.136 163.686 145.069 163.7Z" fill="#263238"/>
<path d="M144.64 166.343C144.593 166.343 144.547 166.333 144.505 166.313C144.463 166.293 144.426 166.264 144.397 166.228C143.027 164.647 140.288 161.53 139.718 161.05C139.258 160.679 133.856 159.297 128.998 158.183C128.916 158.164 128.845 158.112 128.801 158.04C128.756 157.968 128.742 157.882 128.762 157.799C128.771 157.758 128.788 157.719 128.812 157.685C128.836 157.651 128.868 157.622 128.903 157.599C128.939 157.577 128.979 157.563 129.021 157.556C129.062 157.55 129.105 157.552 129.146 157.563C130.842 157.947 139.386 159.924 140.128 160.564C140.87 161.204 144.717 165.62 144.883 165.812C144.911 165.843 144.932 165.88 144.946 165.92C144.959 165.959 144.965 166.001 144.962 166.043C144.959 166.085 144.947 166.125 144.928 166.163C144.909 166.2 144.883 166.233 144.851 166.26C144.794 166.314 144.718 166.344 144.64 166.343Z" fill="#263238"/>
<path d="M144.845 246.798C144.845 246.798 131.149 244.238 130.605 244.058C130.061 243.879 120.365 240.954 119.085 240.404C117.805 239.854 102.285 237.121 101.555 238.215C100.826 239.31 100.096 245.703 99.9104 246.247C99.7248 246.791 98.2656 249.351 98.6304 250.817C98.8274 252.147 98.8274 253.499 98.6304 254.83C98.6304 254.83 98.4448 263.412 100.634 263.598C102.822 263.783 104.838 255.559 104.838 255.559C104.838 255.559 107.942 257.39 114.33 257.754C120.717 258.119 126.931 255.015 126.931 255.015L143.93 259.06L144.845 246.798Z" fill="white"/>
<path d="M100.723 263.917H100.627C98.2592 263.719 98.2976 256.308 98.3232 254.823C98.5168 253.52 98.5168 252.196 98.3232 250.893C98.0032 249.613 98.8928 247.693 99.3728 246.689C99.4816 246.445 99.5712 246.253 99.6096 246.151C99.648 246.049 99.7696 245.261 99.8848 244.468C100.333 241.517 100.774 238.804 101.286 238.036C102.246 236.602 118.272 239.706 119.206 240.109C120.141 240.513 126.15 242.362 129.024 243.245L130.682 243.751C131.098 243.885 139.405 245.46 144.883 246.484C144.961 246.498 145.031 246.54 145.08 246.603C145.128 246.666 145.152 246.744 145.146 246.823L144.25 259.06C144.247 259.106 144.234 259.152 144.212 259.193C144.19 259.234 144.159 259.269 144.122 259.297C144.085 259.325 144.042 259.344 143.996 259.353C143.951 259.362 143.904 259.36 143.859 259.348L126.989 255.361C126.131 255.764 120.282 258.42 114.33 258.081C109.107 257.78 106.074 256.532 105.069 256.039C104.557 258.017 102.854 263.917 100.723 263.917ZM102.874 238.266C102.515 238.228 102.152 238.279 101.818 238.413C101.357 239.105 100.819 242.657 100.538 244.564C100.378 245.645 100.294 246.17 100.237 246.349C100.179 246.529 100.096 246.682 99.968 246.957C99.5584 247.841 98.688 249.69 98.9632 250.74C99.1705 252.11 99.1705 253.504 98.9632 254.874C98.8928 258.279 99.3792 263.194 100.685 263.277C102.093 263.367 103.795 258.561 104.525 255.489C104.538 255.44 104.561 255.395 104.593 255.356C104.625 255.317 104.665 255.286 104.71 255.265C104.755 255.243 104.804 255.231 104.854 255.231C104.904 255.231 104.954 255.243 104.998 255.265C104.998 255.265 108.128 257.057 114.349 257.415C120.57 257.773 126.726 254.74 126.79 254.708C126.859 254.685 126.933 254.685 127.002 254.708L143.642 258.637L144.506 247.066C142.202 246.637 131.027 244.545 130.502 244.365L128.858 243.86C125.747 242.906 119.968 241.133 118.97 240.705C117.722 240.161 106.483 238.266 102.874 238.266Z" fill="#263238"/>
<path d="M97.4784 180.225L115.84 183.585L115.155 195.06C115.155 195.06 119.219 196.98 120.454 208.314C121.69 219.649 125.229 245.901 124.346 247.847C123.462 249.793 117.984 258.279 105.254 258.81C92.5248 259.341 85.632 247.674 84.3968 243.956C83.1616 240.237 89.7024 215.917 90.0544 213.799C90.4064 211.681 92.1728 197.159 93.7664 194.708C94.7486 193.193 95.9377 191.823 97.2992 190.637L97.4784 180.225Z" fill="#06BCC1"/>
<path d="M104.41 259.156C91.744 259.156 85.2096 247.323 84.096 244.071C83.0976 241.083 86.7968 225.947 88.7808 217.831C89.2928 215.732 89.664 214.215 89.7408 213.767C89.8176 213.319 89.9072 212.647 90.048 211.649C90.7264 206.785 92.1472 196.66 93.4976 194.561C94.469 193.059 95.6427 191.698 96.9856 190.516L97.1584 180.231C97.1584 180.185 97.1687 180.139 97.1886 180.097C97.2085 180.055 97.2376 180.018 97.2736 179.988C97.3102 179.959 97.3526 179.939 97.3979 179.928C97.4431 179.917 97.4902 179.915 97.536 179.924L115.917 183.278C115.995 183.292 116.065 183.334 116.113 183.397C116.162 183.46 116.185 183.538 116.179 183.617L115.488 194.907C116.339 195.457 119.674 198.215 120.774 208.308C121.082 211.137 121.542 214.951 122.054 218.99C123.93 234.555 125.312 246.58 124.666 248.007C124.614 248.11 119.706 258.555 105.293 259.15L104.41 259.156ZM97.792 180.609L97.6192 190.657C97.6193 190.704 97.6089 190.749 97.589 190.792C97.5691 190.834 97.5401 190.871 97.504 190.9C96.169 192.065 95.0017 193.409 94.0352 194.894C92.7552 196.871 91.3024 207.284 90.6816 211.726C90.5408 212.731 90.432 213.486 90.368 213.863C90.2912 214.337 89.92 215.86 89.4016 217.966C87.5712 225.46 83.7632 241.051 84.704 243.873C85.7792 247.073 92.416 259.041 105.242 258.497C116.877 258.017 122.765 250.561 124.058 247.726C124.698 246.35 122.778 230.574 121.395 219.054C120.909 215.009 120.448 211.195 120.115 208.366C118.912 197.358 115.027 195.38 114.995 195.361C114.939 195.333 114.892 195.288 114.86 195.234C114.828 195.179 114.813 195.117 114.816 195.054L115.507 183.847L97.792 180.609Z" fill="#263238"/>
<path d="M112 193.978C110.96 193.974 109.922 193.908 108.89 193.78C108.806 193.77 108.729 193.728 108.676 193.662C108.624 193.596 108.599 193.512 108.608 193.428C108.619 193.344 108.663 193.267 108.73 193.214C108.797 193.162 108.882 193.137 108.966 193.146C109.973 193.269 110.986 193.333 112 193.338C112.085 193.338 112.166 193.372 112.226 193.432C112.286 193.492 112.32 193.574 112.32 193.658C112.32 193.743 112.286 193.825 112.226 193.885C112.166 193.945 112.085 193.978 112 193.978Z" fill="#263238"/>
<path d="M104.608 193.044H104.538C102.05 192.492 99.5966 191.796 97.1904 190.958C97.1129 190.927 97.0504 190.867 97.0161 190.792C96.9818 190.716 96.9784 190.629 97.0068 190.551C97.0351 190.473 97.0929 190.408 97.1678 190.372C97.2427 190.336 97.3289 190.33 97.408 190.356C99.7867 191.185 102.212 191.873 104.672 192.417C104.713 192.426 104.752 192.443 104.787 192.467C104.822 192.492 104.851 192.522 104.874 192.558C104.896 192.594 104.912 192.634 104.919 192.675C104.926 192.717 104.925 192.76 104.915 192.801C104.899 192.87 104.86 192.932 104.804 192.976C104.748 193.02 104.679 193.044 104.608 193.044Z" fill="#263238"/>
<path d="M198.528 185.991L196.704 233.101C196.704 233.101 194.694 233.287 193.965 234.196C193.479 234.826 193.05 235.499 192.685 236.205C192.685 236.205 174.246 236.935 165.478 239.495C160.446 240.926 155.557 242.82 150.874 245.153L142.835 244.98L141.19 266.157L151.968 266.522C151.968 266.522 157.261 269.626 181.363 271.821C205.466 274.017 216.608 274.561 219.162 271.636C221.715 268.711 222.816 264.148 223.181 261.78C223.546 259.412 227.93 244.794 227.93 223.61C227.93 202.426 208.026 171.77 203.642 164.813C199.258 157.857 194.682 158.413 191.59 159.156" fill="#06BCC1"/>
<path d="M208.941 273.953C202.829 273.953 193.882 273.274 181.338 272.135C158.643 270.068 152.614 267.226 151.898 266.836L141.203 266.471C141.159 266.471 141.116 266.462 141.076 266.445C141.036 266.427 141 266.401 140.971 266.368C140.942 266.335 140.92 266.297 140.907 266.255C140.894 266.213 140.891 266.169 140.896 266.125L142.515 244.98C142.52 244.898 142.557 244.821 142.618 244.766C142.679 244.711 142.759 244.682 142.842 244.685L150.797 244.865C155.481 242.547 160.365 240.658 165.389 239.22C173.619 236.82 190.528 236.02 192.486 235.924C192.839 235.249 193.25 234.606 193.715 234.004C194.355 233.204 195.789 232.916 196.397 232.826L198.208 185.985C198.208 185.942 198.217 185.9 198.234 185.861C198.251 185.822 198.276 185.787 198.307 185.758C198.338 185.729 198.375 185.707 198.415 185.693C198.456 185.679 198.498 185.674 198.541 185.677C198.583 185.679 198.624 185.689 198.662 185.707C198.701 185.724 198.735 185.749 198.763 185.78C198.792 185.811 198.814 185.847 198.829 185.887C198.843 185.926 198.85 185.968 198.848 186.01L197.024 233.121C197.021 233.198 196.991 233.272 196.938 233.328C196.885 233.385 196.813 233.42 196.736 233.428C196.211 233.473 194.746 233.741 194.214 234.401C193.745 235.014 193.33 235.668 192.973 236.353C192.948 236.405 192.909 236.45 192.861 236.481C192.812 236.513 192.756 236.53 192.698 236.532C192.518 236.532 174.195 237.287 165.568 239.809C160.558 241.242 155.689 243.127 151.021 245.441C150.971 245.465 150.916 245.479 150.861 245.479L143.13 245.306L141.536 265.85L151.974 266.202C152.028 266.206 152.08 266.222 152.128 266.247C152.179 266.247 157.722 269.351 181.395 271.501C205.395 273.684 216.506 274.189 218.925 271.425C221.683 268.276 222.637 263.207 222.867 261.729C222.925 261.325 223.091 260.634 223.334 259.578C226.169 247.799 227.604 235.726 227.61 223.61C227.61 210.081 219.616 190.612 203.859 165.748L203.373 164.986C198.822 157.78 193.984 158.919 191.667 159.463C191.584 159.482 191.497 159.469 191.424 159.424C191.351 159.38 191.298 159.309 191.277 159.226C191.267 159.185 191.266 159.142 191.273 159.101C191.28 159.059 191.296 159.019 191.318 158.984C191.341 158.948 191.37 158.917 191.405 158.893C191.44 158.869 191.479 158.851 191.52 158.842C195.277 157.959 199.693 157.959 203.917 164.641L204.397 165.409C220.224 190.369 228.25 209.959 228.25 223.61C228.242 235.775 226.802 247.897 223.962 259.725C223.725 260.724 223.558 261.447 223.501 261.825C223.264 263.348 222.278 268.564 219.405 271.847C218.118 273.313 214.861 273.953 208.941 273.953Z" fill="#263238"/>
<path d="M196.704 233.421C196.648 233.422 196.593 233.408 196.544 233.38C196.496 233.352 196.456 233.311 196.429 233.261C196.392 233.199 196.377 233.125 196.388 233.053C196.398 232.981 196.433 232.914 196.486 232.865L207.078 223.009C207.108 222.979 207.142 222.955 207.181 222.939C207.219 222.923 207.261 222.915 207.302 222.915C207.344 222.915 207.385 222.923 207.424 222.939C207.462 222.955 207.497 222.979 207.526 223.009C207.556 223.038 207.58 223.074 207.596 223.113C207.613 223.152 207.621 223.194 207.621 223.236C207.621 223.278 207.613 223.32 207.596 223.359C207.58 223.398 207.556 223.433 207.526 223.463L197.926 232.423L207.84 229.543C207.925 229.519 208.016 229.53 208.093 229.573C208.169 229.617 208.226 229.689 208.25 229.773C208.273 229.858 208.262 229.949 208.219 230.026C208.176 230.103 208.104 230.159 208.019 230.183L196.813 233.434L196.704 233.421Z" fill="#263238"/>
<path d="M211.418 229.153C211.333 229.164 211.247 229.14 211.179 229.088C211.111 229.036 211.067 228.959 211.056 228.874C211.045 228.789 211.068 228.703 211.12 228.636C211.173 228.568 211.25 228.524 211.334 228.513L214.874 227.489C214.914 227.476 214.956 227.471 214.998 227.476C215.041 227.48 215.081 227.492 215.118 227.513C215.155 227.533 215.188 227.561 215.214 227.594C215.24 227.627 215.259 227.665 215.27 227.706C215.294 227.788 215.285 227.875 215.244 227.95C215.203 228.024 215.134 228.079 215.053 228.103L211.507 229.127C211.48 229.142 211.449 229.151 211.418 229.153Z" fill="#263238"/>
<path d="M209.12 239.265H209.005C204.358 237.473 192.781 236.551 192.659 236.545C192.617 236.541 192.576 236.53 192.539 236.511C192.501 236.491 192.468 236.465 192.44 236.433C192.413 236.401 192.392 236.364 192.379 236.324C192.366 236.284 192.361 236.241 192.365 236.199C192.368 236.157 192.38 236.116 192.399 236.079C192.418 236.041 192.445 236.008 192.477 235.98C192.509 235.953 192.546 235.932 192.586 235.919C192.626 235.906 192.668 235.901 192.71 235.905C193.19 235.943 204.499 236.846 209.235 238.663C209.277 238.671 209.317 238.687 209.353 238.71C209.389 238.733 209.42 238.763 209.445 238.798C209.469 238.833 209.486 238.872 209.495 238.914C209.504 238.956 209.505 238.999 209.498 239.041C209.49 239.083 209.474 239.123 209.451 239.159C209.428 239.195 209.398 239.226 209.363 239.25C209.328 239.275 209.289 239.292 209.247 239.301C209.205 239.31 209.162 239.311 209.12 239.303V239.265Z" fill="#263238"/>
<path d="M212.41 248.763C212.36 248.762 212.311 248.75 212.267 248.728C212.222 248.706 212.184 248.674 212.154 248.635C211.674 247.995 211.149 247.412 210.592 246.83C210.541 246.768 210.515 246.688 210.519 246.607C210.524 246.527 210.559 246.451 210.617 246.395C210.676 246.339 210.753 246.307 210.834 246.306C210.915 246.305 210.993 246.334 211.053 246.388C211.619 246.979 212.156 247.599 212.659 248.244C212.712 248.311 212.736 248.395 212.726 248.479C212.716 248.563 212.674 248.639 212.608 248.692C212.551 248.736 212.482 248.761 212.41 248.763Z" fill="#263238"/>
<path d="M208.589 244.865C208.515 244.863 208.443 244.838 208.384 244.794C205.134 242.163 201.385 240.216 197.363 239.073C197.321 239.063 197.281 239.045 197.246 239.02C197.211 238.995 197.181 238.963 197.158 238.927C197.136 238.89 197.12 238.85 197.113 238.807C197.106 238.765 197.107 238.721 197.117 238.679C197.126 238.637 197.144 238.597 197.169 238.562C197.194 238.527 197.226 238.497 197.263 238.474C197.299 238.451 197.34 238.436 197.382 238.429C197.425 238.422 197.468 238.423 197.51 238.433C201.629 239.596 205.467 241.584 208.794 244.276C208.846 244.318 208.883 244.375 208.901 244.439C208.919 244.503 208.917 244.571 208.894 244.634C208.872 244.697 208.83 244.751 208.776 244.789C208.721 244.827 208.655 244.846 208.589 244.845V244.865Z" fill="#263238"/>
<path d="M150.874 265.197C150.789 265.197 150.707 265.164 150.647 265.104C150.587 265.044 150.554 264.962 150.554 264.877L150.4 247.169C150.399 247.127 150.407 247.085 150.422 247.046C150.437 247.007 150.46 246.971 150.489 246.941C150.518 246.91 150.553 246.886 150.592 246.869C150.63 246.852 150.672 246.843 150.714 246.842C150.798 246.842 150.88 246.876 150.94 246.936C151 246.996 151.034 247.077 151.034 247.162L151.219 264.871C151.219 264.957 151.186 265.039 151.126 265.1C151.066 265.161 150.985 265.196 150.899 265.197H150.874Z" fill="#263238"/>
<path d="M149.594 260.813H141.914C141.829 260.813 141.747 260.78 141.687 260.72C141.627 260.66 141.594 260.578 141.594 260.493C141.594 260.408 141.627 260.327 141.687 260.267C141.747 260.207 141.829 260.173 141.914 260.173H149.594C149.678 260.173 149.76 260.207 149.82 260.267C149.88 260.327 149.914 260.408 149.914 260.493C149.912 260.578 149.878 260.658 149.818 260.718C149.758 260.777 149.678 260.812 149.594 260.813Z" fill="#263238"/>
<path d="M143.75 250.401C143.669 250.401 143.59 250.37 143.531 250.314C143.471 250.258 143.435 250.182 143.43 250.1C143.428 250.058 143.434 250.017 143.447 249.977C143.461 249.938 143.483 249.901 143.511 249.87C143.539 249.839 143.573 249.814 143.611 249.797C143.648 249.779 143.689 249.769 143.731 249.767L146.835 249.582C146.877 249.579 146.919 249.585 146.959 249.599C146.999 249.612 147.036 249.634 147.067 249.662C147.099 249.69 147.124 249.723 147.143 249.761C147.161 249.799 147.172 249.84 147.174 249.882C147.178 249.967 147.149 250.05 147.092 250.113C147.036 250.176 146.958 250.215 146.874 250.222L143.77 250.401H143.75Z" fill="#263238"/>
</svg>
