<svg width="320" height="321" viewBox="0 0 320 321" fill="none" xmlns="http://www.w3.org/2000/svg">
<path d="M277.517 70.8447C276.535 69.2012 275.511 67.5898 274.445 66.0105C260.218 45.0428 236.538 30.7005 213.523 24.1906C203.49 21.3917 193.16 19.8055 182.752 19.4655C114.97 16.9938 90.0672 73.0532 68.2304 87.5175C46.3936 101.982 12.8768 126.679 17.0816 178.527C20.2816 217.959 42.6368 255.67 83.4816 272.824C88.0961 274.767 92.8314 276.408 97.6576 277.736C107.432 280.39 117.472 281.938 127.59 282.352C158.47 283.732 183.546 276.259 208.07 257.461C213.773 253.089 219.443 248.159 226.842 247.619C232.224 247.228 237.318 249.16 231.699 254.38C225.094 260.504 232.717 272.555 249.485 264.183C277.498 250.2 289.018 220.026 294.445 189.345C301.107 151.679 297.882 104.851 277.517 70.8447Z" fill="#06BCC1"/>
<path opacity="0.7" d="M277.517 70.8447C276.535 69.2012 275.511 67.5898 274.445 66.0105C260.218 45.0428 236.538 30.7005 213.523 24.1906C203.49 21.3917 193.16 19.8055 182.752 19.4655C114.97 16.9938 90.0672 73.0532 68.2304 87.5175C46.3936 101.982 12.8768 126.679 17.0816 178.527C20.2816 217.959 42.6368 255.67 83.4816 272.824C88.0961 274.767 92.8314 276.408 97.6576 277.736C107.432 280.39 117.472 281.938 127.59 282.352C158.47 283.732 183.546 276.259 208.07 257.461C213.773 253.089 219.443 248.159 226.842 247.619C232.224 247.228 237.318 249.16 231.699 254.38C225.094 260.504 232.717 272.555 249.485 264.183C277.498 250.2 289.018 220.026 294.445 189.345C301.107 151.679 297.882 104.851 277.517 70.8447Z" fill="white"/>
<path d="M95.9616 246.579C94.272 247.112 90.336 246.579 90.336 246.579C90.336 246.579 91.4688 244.082 91.5584 243.934C92.6208 242.214 95.6864 239.517 97.8816 240.082C98.243 240.184 98.5791 240.36 98.8681 240.6C99.1571 240.84 99.3925 241.138 99.5591 241.475C99.7256 241.813 99.8197 242.181 99.835 242.557C99.8503 242.933 99.7866 243.308 99.648 243.658C99.104 245.16 97.4016 246.13 95.9616 246.579Z" fill="#263238"/>
<path d="M59.3024 245.475C59.264 245.475 58.8736 242.772 58.8672 242.593C58.8096 240.57 59.8848 236.629 62.016 235.871C62.3732 235.755 62.7507 235.716 63.124 235.756C63.4973 235.796 63.8579 235.915 64.1822 236.105C64.5066 236.295 64.7874 236.551 65.0064 236.857C65.2253 237.163 65.3774 237.511 65.4528 237.88C65.8304 239.434 64.9408 241.187 63.9936 242.374C62.8736 243.735 59.3024 245.475 59.3024 245.475Z" fill="#263238"/>
<path d="M59.9872 274.615C61.3056 274.782 63.9168 274.038 64.6464 273.819C64.768 274.949 64.9088 276.06 65.1072 277.151C65.1968 277.62 65.2608 278.108 65.376 278.551C65.4912 278.994 65.5936 279.45 65.696 279.893C65.9456 280.798 66.1696 281.639 66.4256 282.461C66.5472 282.891 66.6752 283.283 66.8032 283.693C66.4896 283.051 65.9776 282.024 65.92 281.934C64.9472 280.445 62.2016 278.14 60.288 278.667C59.9727 278.762 59.6809 278.923 59.4317 279.139C59.1824 279.355 58.9812 279.621 58.8412 279.92C58.7012 280.22 58.6254 280.545 58.6189 280.875C58.6123 281.206 58.6751 281.534 58.8032 281.838C59.3088 283.122 60.832 283.969 62.1056 284.335C63.5072 284.74 66.5856 284.297 66.9696 284.239C67.2896 285.241 67.6096 286.216 67.9168 287.122C68.1216 287.719 68.32 288.277 68.512 288.823H69.792C69.536 288.181 69.2736 287.468 68.9984 286.724C68.7232 285.979 68.3968 285.048 68.0896 284.156C68.4352 284.008 71.1104 282.872 72.1856 281.825C73.0372 282.355 73.9199 282.833 74.8288 283.257C74.5344 284.271 74.2656 285.26 74.0288 286.184C73.792 287.109 73.5744 287.988 73.3888 288.823H74.6688C74.8288 288.072 75.0016 287.301 75.1936 286.467C75.3856 285.632 75.616 284.733 75.8336 283.822C76.2112 283.892 79.2768 284.464 80.6912 284.117C81.9712 283.803 83.5328 283.039 84.0832 281.748C84.2203 281.45 84.294 281.127 84.2994 280.799C84.3049 280.471 84.2421 280.146 84.115 279.844C83.9879 279.542 83.7993 279.269 83.5613 279.045C83.3233 278.82 83.0411 278.647 82.7328 278.538C80.8128 277.941 78.0032 280.13 76.9728 281.581C76.9088 281.678 76.256 282.865 75.936 283.469C76.0768 282.917 76.224 282.371 76.384 281.799C76.608 280.978 76.8704 280.111 77.1264 279.276L77.568 277.992C77.7088 277.543 77.9008 277.139 78.0672 276.708C78.3232 276.066 78.6176 275.424 78.912 274.782C79.7312 275.058 82.1568 275.842 83.4368 275.733C84.7168 275.623 86.4064 275.091 87.1488 273.909C87.3338 273.635 87.4591 273.325 87.5168 272.998C87.5744 272.672 87.563 272.338 87.4834 272.016C87.4037 271.695 87.2575 271.393 87.0543 271.132C86.8512 270.871 86.5955 270.656 86.304 270.5C84.5184 269.621 81.3888 271.361 80.1536 272.638C80.1088 272.677 79.8784 272.972 79.6032 273.331C79.9104 272.689 80.2432 272.099 80.544 271.489C81.4784 269.756 82.464 268.022 83.488 266.276L84.128 265.185C84.8192 265.422 87.4432 266.289 88.7808 266.173C90.1184 266.058 91.7504 265.531 92.4928 264.35C92.6777 264.076 92.8029 263.766 92.8605 263.44C92.9181 263.115 92.9067 262.781 92.827 262.46C92.7473 262.139 92.6011 261.838 92.398 261.578C92.1949 261.317 91.9393 261.102 91.648 260.947C89.8624 260.068 86.7328 261.801 85.4976 263.079C85.4528 263.124 85.1712 263.483 84.8576 263.881C85.3888 262.925 85.9072 261.955 86.3936 260.999C87.2337 259.337 87.9627 257.621 88.576 255.863C88.8192 255.953 91.872 257.038 93.3568 256.903C94.6816 256.787 96.3264 256.261 97.0752 255.079C97.2598 254.805 97.3847 254.495 97.4419 254.169C97.499 253.843 97.487 253.509 97.4067 253.188C97.3264 252.867 97.1796 252.566 96.9758 252.306C96.772 252.046 96.5159 251.831 96.224 251.677C94.4448 250.797 91.3088 252.531 90.0736 253.808C89.984 253.898 88.992 255.189 88.6528 255.664V255.606C89.2166 253.868 89.6215 252.082 89.8624 250.271C90.0912 248.658 90.2237 247.033 90.2592 245.404C90.3104 243.889 90.2592 242.509 90.2144 241.283C90.1824 240.641 90.1376 239.999 90.0928 239.447H90.1248C90.1248 239.447 90.9568 237.18 90.9888 237.033C91.3792 235.299 91.1168 231.717 89.408 230.696C89.1195 230.536 88.8006 230.439 88.4721 230.41C88.1436 230.382 87.8128 230.424 87.5013 230.532C87.1898 230.64 86.9045 230.813 86.664 231.04C86.4236 231.266 86.2333 231.541 86.1056 231.845C85.5168 233.129 85.984 234.786 86.6112 235.961C87.2384 237.136 89.4464 238.914 89.9968 239.344C90.0352 239.935 90.0672 240.564 90.0864 241.27C90.0864 242.496 90.1248 243.877 90.0416 245.385C90.0416 245.783 89.984 246.213 89.952 246.631C89.856 245.918 89.7152 244.936 89.6896 244.846C89.2416 243.125 87.36 240.063 85.3824 239.954C85.05 239.943 84.7192 240.004 84.4118 240.131C84.1045 240.259 83.8276 240.45 83.5995 240.693C83.3714 240.936 83.1973 241.224 83.0887 241.54C82.9801 241.855 82.9395 242.19 82.9696 242.522C83.0336 243.928 84.2176 245.193 85.312 245.944C86.4064 246.695 89.28 247.273 89.9008 247.382C89.8176 248.306 89.7088 249.256 89.5424 250.239C89.2737 252.024 88.8453 253.782 88.2624 255.49H88.1536C88.1536 254.848 88.096 253.417 88.0832 253.301C87.8208 251.536 86.2912 248.287 84.3328 247.96C84.006 247.914 83.6734 247.939 83.3566 248.031C83.0399 248.123 82.746 248.282 82.4943 248.495C82.2425 248.709 82.0384 248.974 81.8954 249.272C81.7523 249.57 81.6735 249.895 81.664 250.226C81.568 251.632 82.6112 253.012 83.584 253.885C84.7424 254.88 87.9744 255.811 88.096 255.856C87.4623 257.536 86.7205 259.172 85.8752 260.755C85.2352 261.93 84.5952 263.098 83.8912 264.26C83.8912 263.791 83.8336 261.942 83.8144 261.808C83.5584 260.049 82.0288 256.8 80.0704 256.473C79.7478 256.434 79.4207 256.463 79.1098 256.558C78.7989 256.652 78.5109 256.811 78.2639 257.022C78.0168 257.234 77.8161 257.494 77.6743 257.788C77.5325 258.081 77.4527 258.4 77.44 258.726C77.3504 260.126 78.3872 261.512 79.392 262.379C80.5184 263.355 83.616 264.266 83.872 264.343C83.5584 264.87 83.232 265.403 82.9248 265.929C81.888 267.65 80.8384 269.364 79.8592 271.097C79.52 271.694 79.2192 272.298 78.8864 272.901C78.8864 272.195 78.8352 270.911 78.816 270.802C78.56 269.043 77.0304 265.794 75.072 265.461C74.7449 265.415 74.412 265.44 74.0949 265.532C73.7778 265.624 73.4835 265.782 73.2312 265.996C72.979 266.21 72.7743 266.474 72.6306 266.772C72.4868 267.071 72.4072 267.396 72.3968 267.727C72.3072 269.133 73.344 270.513 74.3168 271.386C75.2896 272.259 77.9072 273.075 78.6368 273.312C78.1184 274.32 77.6256 275.328 77.1904 276.342C77.0048 276.785 76.7936 277.228 76.6464 277.665C76.4992 278.102 76.3328 278.532 76.1728 278.949C75.8848 279.841 75.6096 280.67 75.36 281.517C75.232 281.941 75.1232 282.339 75.0016 282.756C75.0976 282.037 75.232 280.901 75.232 280.798C75.232 279.013 74.2208 275.572 72.3328 274.949C72.0168 274.855 71.6845 274.828 71.3575 274.87C71.0304 274.913 70.716 275.024 70.4347 275.197C70.1533 275.369 69.9114 275.599 69.7246 275.872C69.5378 276.145 69.4103 276.454 69.3504 276.779C69.3133 276.95 69.2919 277.124 69.2864 277.299C68.4312 278.609 67.9224 280.116 67.808 281.677C67.808 281.787 67.9104 283.141 67.9808 283.828C67.7952 283.289 67.616 282.75 67.4368 282.185C67.168 281.376 66.9184 280.509 66.6688 279.668L66.3232 278.339C66.1952 277.89 66.1248 277.44 66.0288 276.991C65.8944 276.349 65.7856 275.623 65.6832 274.93C66.5216 274.712 68.9792 274.018 69.984 273.222C70.9888 272.426 72.1088 271.052 72.0768 269.646C72.0799 269.317 72.0142 268.991 71.884 268.689C71.7538 268.387 71.5619 268.115 71.3207 267.892C71.0795 267.669 70.7944 267.499 70.4837 267.393C70.173 267.287 69.8436 267.248 69.5168 267.277C67.5456 267.521 65.888 270.706 65.5552 272.458C65.5552 272.516 65.5168 272.889 65.4848 273.338C65.4016 272.657 65.3184 271.977 65.2544 271.284C65.0816 269.319 64.9664 267.316 64.8448 265.306C64.8448 264.889 64.7872 264.465 64.7616 264.022C65.4656 263.843 68.1344 263.117 69.184 262.276C70.2336 261.435 71.3152 260.106 71.2832 258.7C71.2853 258.371 71.219 258.046 71.0884 257.744C70.9579 257.442 70.766 257.171 70.525 256.948C70.284 256.725 69.9993 256.555 69.689 256.449C69.3788 256.343 69.0498 256.303 68.7232 256.331C66.752 256.582 65.0944 259.766 64.7616 261.512C64.7616 261.576 64.7168 262.026 64.6784 262.533C64.5952 261.442 64.4992 260.35 64.3712 259.278C64.1542 257.432 63.8164 255.603 63.36 253.802C63.6096 253.738 66.752 252.948 67.9168 252.017C68.9536 251.189 70.048 249.847 70.016 248.441C70.0181 248.112 69.9518 247.787 69.8212 247.485C69.6907 247.183 69.4988 246.912 69.2578 246.689C69.0168 246.466 68.7321 246.296 68.4218 246.19C68.1116 246.084 67.7826 246.044 67.456 246.072C65.4848 246.323 63.8272 249.507 63.4944 251.253C63.4944 251.382 63.3536 253.006 63.328 253.59C63.331 253.569 63.331 253.547 63.328 253.526C62.8445 251.759 62.2018 250.04 61.408 248.39C60.7076 246.918 59.9234 245.489 59.0592 244.108C58.2656 242.824 57.4656 241.687 56.7488 240.692C56.3584 240.153 55.9936 239.671 55.6416 239.228H55.68C55.68 239.228 55.1232 236.885 55.04 236.744C54.4 235.081 52.224 232.25 50.24 232.333C49.9109 232.359 49.5909 232.454 49.3008 232.612C49.0107 232.77 48.7569 232.988 48.5559 233.25C48.355 233.513 48.2113 233.815 48.1343 234.137C48.0573 234.459 48.0486 234.794 48.1088 235.12C48.32 236.506 49.632 237.636 50.7968 238.272C51.9616 238.907 54.7904 239.164 55.4816 239.216C55.84 239.691 56.2112 240.198 56.608 240.769C57.2992 241.777 58.0736 242.92 58.8352 244.217C59.0336 244.563 59.2384 244.949 59.4432 245.315C58.9696 244.769 58.3168 244.031 58.24 243.966C56.9216 242.779 53.6704 241.264 51.9616 242.272C51.6798 242.444 51.4374 242.675 51.2501 242.948C51.0629 243.22 50.9349 243.53 50.8745 243.855C50.8142 244.181 50.8228 244.516 50.8998 244.838C50.9768 245.16 51.1205 245.463 51.3216 245.725C52.1472 246.862 53.8304 247.26 55.1616 247.286C56.4928 247.311 59.2 246.194 59.7824 245.95C60.224 246.766 60.6528 247.613 61.0624 248.518C61.8116 250.173 62.4113 251.892 62.8544 253.654L62.752 253.699C62.3744 253.147 61.5616 251.998 61.472 251.914C60.288 250.585 57.2288 248.704 55.4112 249.533C55.114 249.676 54.8503 249.881 54.6372 250.134C54.424 250.387 54.2662 250.681 54.1738 250.999C54.0815 251.317 54.0568 251.651 54.1013 251.979C54.1457 252.307 54.2584 252.622 54.432 252.903C55.1232 254.123 56.7552 254.707 58.0672 254.874C59.584 255.067 62.7904 254.059 62.912 254.02C63.3184 255.782 63.6091 257.568 63.7824 259.368C63.9104 260.697 63.9872 262.039 64.0512 263.393C63.8016 262.995 62.7328 261.467 62.6432 261.39C61.4592 260.061 58.4 258.18 56.5824 259.008C56.2852 259.152 56.0215 259.357 55.8084 259.61C55.5952 259.863 55.4374 260.157 55.345 260.475C55.2527 260.793 55.228 261.127 55.2725 261.455C55.3169 261.783 55.4296 262.097 55.6032 262.379C56.2944 263.599 57.9264 264.183 59.2384 264.35C60.7168 264.543 63.8016 263.586 64.0576 263.502C64.0576 264.144 64.1216 264.729 64.1408 265.345C64.224 267.354 64.2944 269.37 64.4224 271.354C64.4672 272.048 64.5376 272.722 64.608 273.402C64.2112 272.818 63.4688 271.771 63.392 271.688C62.208 270.359 59.1488 268.478 57.3312 269.313C57.0335 269.455 56.7692 269.659 56.5555 269.911C56.3418 270.163 56.1836 270.457 56.0911 270.775C55.9987 271.092 55.9742 271.426 56.0191 271.754C56.0641 272.081 56.1775 272.396 56.352 272.677C57.0432 273.864 58.6752 274.449 59.9872 274.615Z" fill="#263238"/>
<path d="M191.782 83.9611C190.076 83.0623 188.48 81.4359 186.995 79.0819C185.453 76.5785 184.672 73.6779 184.749 70.7359C184.749 67.6371 185.572 65.311 187.219 63.7573C188.866 62.2037 191.285 61.0267 194.477 60.2263L206.144 57.3951C211.136 56.1111 213.63 53.71 213.626 50.1919C213.626 48.2915 212.704 46.6395 210.861 45.2356C209.018 43.8318 205.85 43.132 201.357 43.1363C197.462 43.1105 193.583 43.64 189.837 44.7092C186.788 45.527 183.868 46.765 181.158 48.3878C179.449 47.076 177.98 45.4748 176.819 43.6563C175.58 41.6535 174.954 39.3295 175.021 36.9731C174.99 34.5163 175.786 32.1209 177.28 30.1743C178.936 28.0983 181.065 26.4515 183.488 25.3721C186.488 24.0145 189.66 23.0791 192.915 22.5923C196.899 21.9678 200.927 21.6672 204.96 21.6935C216.723 21.6764 225.63 24.2893 231.68 29.5323C237.73 34.7753 240.747 41.6554 240.73 50.1726C240.73 66.1841 229.457 76.4411 206.912 80.9437L191.782 83.9611ZM186.842 103.626C186.842 99.5253 188.122 96.1484 190.682 93.4948C193.242 90.8412 196.759 89.5144 201.235 89.5144C205.719 89.5144 209.235 90.8412 211.782 93.4948C214.33 96.1484 215.61 99.5253 215.622 103.626C215.622 107.734 214.342 111.111 211.782 113.756C209.222 116.401 205.707 117.728 201.235 117.737C196.742 117.737 193.225 116.41 190.682 113.756C188.139 111.103 186.859 107.726 186.842 103.626Z" fill="#263238"/>
<path d="M201.21 118.058C196.653 118.058 193.024 116.684 190.426 113.981C187.827 111.278 186.522 107.798 186.522 103.625C186.522 99.4525 187.834 95.9728 190.426 93.27C193.018 90.5672 196.653 89.1933 201.21 89.1933C205.766 89.1933 209.395 90.5672 211.987 93.27C214.579 95.9728 215.891 99.4589 215.891 103.625C215.891 107.792 214.579 111.285 211.987 113.981C209.395 116.677 205.766 118.058 201.21 118.058ZM201.21 89.8096C196.832 89.8096 193.357 91.0936 190.886 93.6616C188.416 96.2296 187.162 99.5744 187.162 103.568C187.162 107.561 188.442 110.899 190.886 113.48C193.331 116.061 196.832 117.332 201.21 117.332C205.587 117.332 209.056 116.048 211.526 113.48C213.997 110.912 215.251 107.567 215.251 103.568C215.251 99.568 214.003 96.3002 211.526 93.7322C209.05 91.1642 205.587 89.8353 201.21 89.8353V89.8096ZM191.782 84.2563C191.729 84.2558 191.676 84.2426 191.629 84.2178C189.894 83.2997 188.243 81.6498 186.72 79.2295C185.156 76.6764 184.361 73.7249 184.429 70.7294C184.429 67.5515 185.293 65.1247 186.989 63.5133C188.685 61.9019 191.162 60.7206 194.394 59.9117L206.08 57.0805C210.944 55.7965 213.312 53.5559 213.312 50.1918C213.312 48.407 212.429 46.8213 210.675 45.4924C208.922 44.1634 205.76 43.4572 201.363 43.4572C197.499 43.4337 193.651 43.959 189.933 45.0173C186.915 45.8304 184.023 47.0552 181.338 48.6574C181.282 48.6936 181.218 48.7129 181.152 48.7129C181.086 48.7129 181.022 48.6936 180.966 48.6574C179.232 47.3209 177.74 45.6942 176.557 43.8488C175.287 41.7891 174.648 39.4003 174.72 36.9794C174.679 34.444 175.493 31.9692 177.03 29.956C178.712 27.8347 180.876 26.1484 183.341 25.0382C186.367 23.6691 189.568 22.7251 192.851 22.2327C196.853 21.6063 200.898 21.3036 204.947 21.3275C216.742 21.3275 225.798 24.0046 231.872 29.2883C237.946 34.5719 241.03 41.6083 241.03 50.1725C241.03 66.2803 229.568 76.7385 206.957 81.2582L191.84 84.2563H191.782ZM201.382 42.7895C205.92 42.7895 209.184 43.515 211.078 44.9531C212.973 46.3912 213.971 48.1631 213.971 50.1661C213.971 53.8127 211.379 56.3422 206.253 57.6775L194.56 60.5601C191.437 61.3433 189.037 62.4861 187.443 64.0076C185.85 65.5292 185.075 67.7569 185.075 70.7551C185.006 73.6306 185.768 76.4648 187.27 78.9149C188.698 81.1619 190.234 82.7669 191.84 83.6272L206.842 80.6483C229.107 76.1992 240.397 65.9529 240.397 50.1918C240.397 41.8458 237.389 34.9571 231.437 29.789C225.485 24.6209 216.57 21.9887 204.934 21.9887C200.919 21.9627 196.908 22.2633 192.941 22.8875C189.715 23.3695 186.571 24.2941 183.597 25.6353C181.222 26.6963 179.135 28.3121 177.51 30.3476C176.068 32.2516 175.311 34.5888 175.36 36.9794C175.295 39.2721 175.903 41.5334 177.107 43.4829C178.211 45.1996 179.593 46.7186 181.197 47.9769C183.882 46.4034 186.764 45.1945 189.766 44.3817C193.537 43.3135 197.439 42.7861 201.357 42.8152L201.382 42.7895Z" fill="#263238"/>
<path d="M138.938 186.129L140.205 288.939H190.336L186.214 187.4L138.938 186.129Z" fill="#263238"/>
<path d="M190.336 289.259H140.205C140.12 289.259 140.039 289.226 139.979 289.165C139.919 289.105 139.885 289.024 139.885 288.938L138.605 186.129C138.608 186.042 138.642 185.96 138.701 185.897C138.732 185.867 138.769 185.843 138.81 185.827C138.851 185.812 138.894 185.805 138.938 185.808L186.214 187.092C186.295 187.095 186.373 187.128 186.431 187.185C186.489 187.242 186.523 187.318 186.528 187.4L190.656 288.9C190.659 288.943 190.652 288.985 190.637 289.025C190.621 289.065 190.597 289.101 190.566 289.131C190.54 289.168 190.505 289.199 190.466 289.221C190.426 289.244 190.381 289.257 190.336 289.259ZM140.518 288.617H190.003L185.907 187.714L139.258 186.43L140.518 288.617Z" fill="#263238"/>
<path d="M138.938 149.4L140.205 252.21H190.336L186.214 150.671L138.938 149.4Z" fill="white"/>
<path d="M190.336 252.531H140.205C140.12 252.531 140.039 252.497 139.979 252.437C139.919 252.376 139.885 252.295 139.885 252.21L138.605 149.406C138.605 149.319 138.64 149.236 138.701 149.175C138.731 149.142 138.767 149.116 138.808 149.1C138.849 149.083 138.893 149.076 138.938 149.079L186.214 150.363C186.295 150.363 186.373 150.394 186.432 150.45C186.49 150.507 186.525 150.583 186.528 150.664L190.65 252.203C190.652 252.247 190.646 252.291 190.63 252.332C190.615 252.373 190.591 252.41 190.56 252.441C190.5 252.498 190.419 252.53 190.336 252.531ZM140.518 251.889H190.003L185.907 150.985L139.258 149.701L140.518 251.889Z" fill="#263238"/>
<path d="M156.378 160.487L161.6 169.218L152.467 235.113L166.24 248.936L175.232 231.627L164.934 169.655L170.157 162.529L164.358 153.213L156.378 160.487Z" fill="#263238"/>
<path d="M166.24 249.257C166.198 249.257 166.156 249.249 166.118 249.232C166.079 249.216 166.045 249.191 166.016 249.161L152.237 235.345C152.202 235.308 152.176 235.265 152.161 235.217C152.145 235.169 152.14 235.118 152.147 235.069L161.28 169.283L156.122 160.654C156.082 160.591 156.065 160.516 156.076 160.442C156.087 160.367 156.123 160.299 156.179 160.25L164.154 152.976C164.19 152.946 164.232 152.924 164.277 152.91C164.322 152.897 164.369 152.893 164.416 152.899C164.462 152.906 164.506 152.922 164.545 152.948C164.583 152.973 164.616 153.007 164.64 153.047L170.438 162.356C170.474 162.409 170.493 162.471 170.493 162.535C170.493 162.6 170.474 162.662 170.438 162.715L165.318 169.732L175.59 231.57C175.602 231.64 175.591 231.712 175.558 231.775L166.598 249.109C166.575 249.154 166.541 249.192 166.5 249.221C166.459 249.25 166.411 249.269 166.362 249.276L166.24 249.257ZM152.8 235.004L166.15 248.397L174.893 231.57L164.614 169.707C164.601 169.621 164.622 169.533 164.672 169.463L169.792 162.51L164.307 153.714L156.8 160.552L161.92 169.052C161.957 169.116 161.972 169.19 161.965 169.264L152.8 235.004Z" fill="#263238"/>
<path d="M161.6 169.218L161.402 170.663L167.226 166.528L170.157 162.529L167.36 158.035L158.624 164.236L161.6 169.218Z" fill="#06BCC1"/>
<path d="M161.402 170.984C161.342 170.983 161.285 170.965 161.235 170.933C161.182 170.901 161.139 170.854 161.112 170.798C161.085 170.742 161.074 170.68 161.082 170.618L161.267 169.283L158.349 164.403C158.305 164.334 158.29 164.25 158.306 164.17C158.323 164.09 158.37 164.019 158.438 163.973L167.174 157.778C167.247 157.727 167.336 157.706 167.424 157.72C167.466 157.73 167.506 157.748 167.542 157.773C167.577 157.798 167.606 157.831 167.629 157.868L170.426 162.362C170.461 162.415 170.48 162.478 170.48 162.542C170.48 162.606 170.461 162.668 170.426 162.721L167.501 166.721C167.479 166.748 167.453 166.772 167.424 166.792L161.6 170.926C161.541 170.966 161.472 170.986 161.402 170.984ZM159.046 164.352L161.875 169.077C161.912 169.141 161.928 169.215 161.92 169.289L161.818 169.995L167.002 166.323L169.773 162.535L167.27 158.523L159.046 164.352Z" fill="#263238"/>
<path d="M158.579 191.027L167.443 184.736L166.195 177.224L159.866 181.712L158.579 191.027Z" fill="#06BCC1"/>
<path d="M158.579 191.316C158.521 191.317 158.463 191.302 158.413 191.271C158.36 191.239 158.318 191.192 158.291 191.136C158.263 191.081 158.252 191.018 158.259 190.957L159.539 181.641C159.545 181.597 159.561 181.556 159.584 181.518C159.607 181.48 159.637 181.448 159.674 181.423L165.997 176.929C166.041 176.897 166.092 176.878 166.146 176.872C166.2 176.867 166.254 176.875 166.304 176.897C166.354 176.918 166.397 176.952 166.431 176.994C166.464 177.037 166.487 177.087 166.496 177.141L167.744 184.652C167.753 184.711 167.746 184.772 167.724 184.827C167.701 184.883 167.664 184.931 167.616 184.967L158.765 191.316C158.704 191.334 158.64 191.334 158.579 191.316ZM160.166 181.872L158.995 190.308L167.091 184.53L165.965 177.725L160.166 181.872Z" fill="#263238"/>
<path d="M166.496 248.441L173.402 235.146L161.158 243.838L166.061 248.756L166.496 248.441Z" fill="#06BCC1"/>
<path d="M166.061 249.096C165.974 249.096 165.891 249.061 165.83 249L160.934 244.082C160.9 244.049 160.874 244.009 160.857 243.965C160.84 243.92 160.834 243.873 160.838 243.825C160.842 243.779 160.857 243.735 160.88 243.695C160.903 243.655 160.935 243.621 160.973 243.594L173.216 234.908C173.272 234.863 173.342 234.839 173.414 234.839C173.486 234.839 173.556 234.863 173.613 234.908C173.666 234.955 173.702 235.018 173.715 235.088C173.728 235.158 173.717 235.23 173.683 235.293L166.784 248.589C166.759 248.635 166.724 248.674 166.682 248.705L166.246 249.013C166.196 249.062 166.131 249.091 166.061 249.096ZM161.651 243.89L166.093 248.345L166.246 248.236L172.506 236.192L161.651 243.89Z" fill="#263238"/>
<path d="M168.922 193.646L157.043 202.076L155.757 211.385L170.17 201.158L168.922 193.646Z" fill="#06BCC1"/>
<path d="M155.757 211.706C155.698 211.707 155.64 211.692 155.59 211.661C155.536 211.629 155.493 211.581 155.465 211.524C155.438 211.467 155.428 211.403 155.437 211.34L156.717 202.031C156.729 201.944 156.775 201.866 156.845 201.813L168.723 193.39C168.767 193.357 168.819 193.337 168.873 193.33C168.927 193.323 168.983 193.33 169.033 193.351C169.084 193.371 169.129 193.405 169.163 193.447C169.197 193.49 169.22 193.541 169.229 193.595L170.47 201.107C170.483 201.166 170.478 201.228 170.455 201.284C170.432 201.34 170.393 201.388 170.342 201.421L155.93 211.648C155.878 211.683 155.819 211.703 155.757 211.706ZM157.344 202.23L156.16 210.698L169.811 201.01L168.678 194.205L157.344 202.23Z" fill="#263238"/>
<path d="M172.243 213.632L153.613 226.851L152.467 235.113L153.018 235.665L173.491 221.143L172.243 213.632Z" fill="#06BCC1"/>
<path d="M153.018 235.987C152.975 235.988 152.933 235.98 152.893 235.965C152.854 235.949 152.818 235.926 152.787 235.897L152.237 235.345C152.202 235.308 152.176 235.265 152.161 235.217C152.145 235.169 152.14 235.118 152.147 235.069L153.293 226.806C153.308 226.719 153.356 226.641 153.427 226.588L172.058 213.369C172.102 213.338 172.154 213.318 172.207 213.313C172.261 213.307 172.316 213.315 172.366 213.336C172.415 213.358 172.459 213.391 172.493 213.434C172.526 213.477 172.548 213.527 172.557 213.581L173.805 221.092C173.813 221.151 173.805 221.211 173.783 221.267C173.76 221.322 173.724 221.37 173.677 221.407L153.197 235.929C153.144 235.965 153.082 235.985 153.018 235.987ZM152.806 235.004L153.05 235.248L173.139 220.996L172.013 214.191L153.907 227.031L152.806 235.004Z" fill="#263238"/>
<path d="M163.776 156.269L151.014 170.092L146.662 152.199L148.026 146.716L163.776 156.269Z" fill="white"/>
<path d="M151.04 170.413H150.957C150.901 170.398 150.851 170.369 150.81 170.329C150.77 170.288 150.741 170.237 150.726 170.182L146.381 152.289C146.368 152.238 146.368 152.186 146.381 152.135L147.744 146.652C147.757 146.604 147.78 146.56 147.812 146.522C147.844 146.484 147.884 146.454 147.93 146.434C147.974 146.412 148.024 146.4 148.074 146.4C148.123 146.4 148.173 146.412 148.218 146.434L163.942 156.006C163.984 156.031 164.019 156.064 164.045 156.104C164.072 156.144 164.089 156.19 164.096 156.237C164.102 156.285 164.098 156.333 164.083 156.378C164.069 156.424 164.045 156.465 164.013 156.501L151.251 170.323C151.194 170.377 151.119 170.409 151.04 170.413ZM147.021 152.199L151.213 169.437L163.302 156.34L148.262 147.217L147.021 152.199Z" fill="#263238"/>
<path d="M163.776 156.269L173.491 169.071L178.131 151.474L176.538 147.397L163.776 156.269Z" fill="white"/>
<path d="M173.491 169.392C173.442 169.391 173.394 169.38 173.35 169.359C173.306 169.338 173.267 169.308 173.235 169.27L163.52 156.43C163.493 156.396 163.474 156.357 163.464 156.314C163.454 156.272 163.454 156.228 163.462 156.186C163.469 156.143 163.484 156.102 163.507 156.066C163.53 156.029 163.561 155.998 163.597 155.974L176.352 147.102C176.393 147.074 176.439 147.056 176.488 147.048C176.536 147.04 176.586 147.043 176.634 147.057C176.679 147.073 176.72 147.099 176.756 147.132C176.791 147.165 176.819 147.205 176.838 147.249L178.432 151.32C178.451 151.385 178.451 151.454 178.432 151.519L173.792 169.122C173.778 169.181 173.746 169.235 173.702 169.276C173.658 169.317 173.602 169.344 173.542 169.353L173.491 169.392ZM164.237 156.347L173.35 168.358L177.798 151.512L176.39 147.917L164.237 156.347Z" fill="#263238"/>
<path d="M72.704 146.549C72.704 146.549 68.352 137.664 66.176 134.756C64 131.848 61.8176 130.095 59.3536 129.658C56.8896 129.222 55.1424 129.369 53.2544 128.638C51.3664 127.906 47.5904 126.891 46.5792 125.582C45.568 124.272 43.6736 125.145 44.544 127.328C45.4144 129.511 48.4672 130.968 48.4672 130.968L50.9312 132.13C50.9312 132.13 42.9504 133.298 42.368 133.735C41.7856 134.172 34.816 134.756 34.816 134.756C34.816 134.756 37.8688 140.142 42.2208 142.62C46.5728 145.098 60.224 143.057 60.224 143.057L64.288 151.647L72.704 146.549Z" fill="white"/>
<path d="M64.288 151.968H64.192C64.1498 151.954 64.1109 151.931 64.0778 151.901C64.0447 151.871 64.0182 151.835 64 151.794L60.032 143.448C58.112 143.718 46.2016 145.291 42.0672 142.941C37.6832 140.405 34.6688 135.134 34.56 134.91C34.5348 134.862 34.5216 134.809 34.5216 134.756C34.5216 134.702 34.5348 134.649 34.56 134.602C34.585 134.554 34.6216 134.514 34.6664 134.485C34.7112 134.456 34.7627 134.438 34.816 134.435C38.1376 134.159 41.8112 133.722 42.208 133.478C42.7136 133.093 47.328 132.348 49.888 131.969L48.3776 131.257C48.2496 131.199 45.1776 129.722 44.3008 127.45C43.744 126.05 44.224 125.164 44.8064 124.83C45.1594 124.651 45.5657 124.609 45.948 124.71C46.3303 124.812 46.662 125.051 46.88 125.382C47.6096 126.326 50.08 127.18 51.9104 127.803C52.4736 127.995 52.9984 128.175 53.4208 128.336C54.5372 128.729 55.7023 128.967 56.8832 129.042C57.664 129.119 58.4768 129.202 59.4048 129.369C61.8624 129.799 64.0896 131.462 66.4448 134.589C68.6144 137.491 72.8448 146.068 73.0048 146.434C73.0404 146.506 73.0477 146.589 73.0252 146.666C73.0026 146.743 72.952 146.809 72.8832 146.851L64.4672 151.948C64.4099 151.969 64.3484 151.976 64.288 151.968ZM60.224 142.736C60.2841 142.735 60.3433 142.751 60.3943 142.783C60.4454 142.815 60.4862 142.861 60.512 142.916L64.4224 151.184L72.32 146.427C71.5776 144.931 67.84 137.523 65.92 134.948C63.68 131.957 61.5808 130.377 59.296 129.973C58.3872 129.812 57.5872 129.735 56.8192 129.658C55.5589 129.591 54.314 129.349 53.12 128.939C52.704 128.779 52.192 128.599 51.6352 128.413C49.6384 127.726 47.1552 126.872 46.304 125.781C46.1797 125.573 45.9845 125.419 45.7548 125.346C45.5251 125.272 45.2767 125.285 45.056 125.382C44.6912 125.594 44.416 126.191 44.8256 127.206C45.6384 129.254 48.5504 130.666 48.5824 130.679L51.0464 131.841C51.1088 131.871 51.1602 131.92 51.1935 131.981C51.2268 132.042 51.2403 132.112 51.232 132.181C51.2205 132.25 51.1877 132.313 51.1382 132.361C51.0888 132.41 51.0252 132.441 50.9568 132.451C47.1872 133.003 42.9568 133.735 42.5344 133.992C41.984 134.409 37.4144 134.852 35.3408 135.032C36.1664 136.316 38.848 140.341 42.3808 142.338C46.592 144.732 60.0384 142.755 60.1728 142.736H60.224Z" fill="#263238"/>
<path d="M32.0704 133.318C32.0704 133.318 29.8304 128.535 30.016 127.501C30.2016 126.468 32.1664 127.129 32.8192 128.535C33.472 129.941 35.7184 133.318 35.7184 133.318H32.0704Z" fill="white"/>
<path d="M35.7184 133.639H32.0704C32.0099 133.638 31.9509 133.62 31.9001 133.587C31.8492 133.554 31.8085 133.507 31.7824 133.453C31.3984 132.637 29.504 128.522 29.7024 127.444C29.7323 127.244 29.829 127.06 29.9766 126.922C30.1243 126.784 30.3142 126.701 30.5152 126.686C31.0655 126.696 31.6017 126.863 32.0616 127.166C32.5215 127.469 32.8862 127.897 33.1136 128.4C33.7536 129.774 35.9616 133.112 35.9872 133.145C36.0177 133.194 36.0347 133.25 36.0366 133.307C36.0384 133.365 36.025 133.422 35.9977 133.473C35.9704 133.524 35.9302 133.567 35.8812 133.597C35.8321 133.627 35.7759 133.644 35.7184 133.645V133.639ZM32.2752 132.997H35.1232C34.1868 131.599 33.3217 130.155 32.5312 128.67C32.3618 128.293 32.094 127.968 31.756 127.731C31.4181 127.494 31.0226 127.352 30.6112 127.322C30.4064 127.322 30.3616 127.45 30.3424 127.559C30.2144 128.214 31.4304 131.161 32.2752 132.997Z" fill="#263238"/>
<path d="M28.096 131.039C28.096 131.039 31.5776 138.467 33.9008 140.502C36.224 142.537 40.8704 142.691 40.8704 142.691C40.8704 142.691 35.3536 136.862 34.1952 134.679C33.0368 132.496 28.8 127.251 28.096 131.039Z" fill="white"/>
<path d="M40.8704 143.012C40.6784 143.012 36.0832 142.839 33.7024 140.746C31.3216 138.653 27.9424 131.482 27.8208 131.174C27.7988 131.111 27.7988 131.043 27.8208 130.981C28 130.024 28.416 129.491 29.0496 129.395C30.8544 129.119 33.6512 132.907 34.5152 134.531C35.6416 136.65 41.088 142.409 41.1392 142.466C41.1805 142.513 41.2079 142.57 41.2181 142.631C41.2283 142.692 41.2208 142.755 41.1967 142.813C41.1725 142.87 41.1326 142.919 41.0816 142.954C41.0307 142.99 40.9707 143.01 40.9088 143.012H40.8704ZM28.4288 131C28.8448 131.873 32.0064 138.415 34.112 140.264C35.7504 141.702 38.6624 142.19 40.0704 142.306C38.624 140.752 34.8672 136.631 33.9072 134.833C32.9472 133.035 30.3808 129.832 29.1072 130.031C28.8 130.082 28.5632 130.403 28.4288 131Z" fill="#263238"/>
<path d="M30.8992 131.694C30.8992 131.694 34.3808 139.122 36.704 141.163C39.0272 143.205 43.6736 143.346 43.6736 143.346C43.6736 143.346 38.1568 137.523 36.9984 135.334C35.84 133.145 31.6224 127.912 30.8992 131.694Z" fill="white"/>
<path d="M43.6736 143.667C43.4816 143.667 38.8928 143.494 36.5056 141.401C34.1184 139.308 30.7456 132.137 30.624 131.835C30.6021 131.77 30.6021 131.7 30.624 131.636C30.8075 130.681 31.2171 130.155 31.8528 130.056C33.664 129.774 36.4544 133.562 37.3184 135.192C38.4448 137.311 43.8912 143.07 43.9424 143.134C43.9864 143.179 44.016 143.236 44.0274 143.298C44.0388 143.359 44.0315 143.423 44.0064 143.481C43.9774 143.543 43.9296 143.594 43.8699 143.628C43.8102 143.661 43.7415 143.675 43.6736 143.667ZM31.232 131.655C31.648 132.528 34.8096 139.07 36.9152 140.919C38.56 142.357 41.4656 142.845 42.88 142.961C41.4272 141.407 37.6704 137.292 36.7168 135.488C35.7632 133.684 33.184 130.499 31.9104 130.692C31.5904 130.737 31.36 131.064 31.232 131.655Z" fill="#263238"/>
<path d="M62.4 139.269C62.4 139.269 61.6704 138.101 59.2 136.502C56.7296 134.904 43.6672 138.974 43.6672 138.974C43.6672 138.974 37.7152 131.552 36.8448 130.821C35.9744 130.089 34.3744 129.659 34.0864 131.116C33.7984 132.573 37.7152 138.82 38.7328 139.853C39.7504 140.887 43.6672 143.346 43.6672 143.346C46.0481 144.167 48.5548 144.561 51.072 144.508C54.156 144.285 57.2155 143.8 60.2176 143.057" fill="white"/>
<path d="M50.4576 144.842C48.1088 144.819 45.7791 144.415 43.5584 143.648L43.52 143.615C43.36 143.513 39.5584 141.112 38.5344 140.078C37.632 139.173 33.4592 132.74 33.7984 131.052C33.8295 130.798 33.9295 130.558 34.0876 130.357C34.2456 130.157 34.4555 130.004 34.6944 129.915C35.1136 129.826 35.548 129.837 35.9619 129.949C36.3758 130.06 36.7574 130.269 37.0752 130.557C37.8944 131.244 42.8928 137.446 43.808 138.589C45.8752 137.947 56.9792 134.64 59.3984 136.213C61.8176 137.786 62.656 139.032 62.688 139.077C62.7112 139.112 62.727 139.152 62.7344 139.194C62.7418 139.236 62.7407 139.279 62.7312 139.32C62.7216 139.361 62.7038 139.4 62.6787 139.435C62.6537 139.469 62.622 139.498 62.5856 139.52C62.5507 139.543 62.5114 139.558 62.4702 139.566C62.4289 139.573 62.3867 139.572 62.3459 139.562C62.3051 139.553 62.2668 139.535 62.2332 139.51C62.1995 139.485 62.1714 139.453 62.1504 139.417C61.2851 138.341 60.2282 137.435 59.0336 136.746C57.1136 135.494 47.36 138.133 43.7696 139.256C43.7084 139.276 43.6427 139.277 43.581 139.258C43.5194 139.24 43.4646 139.204 43.424 139.154C41.376 136.586 37.3184 131.604 36.6464 131.045C36.4138 130.826 36.1345 130.662 35.8296 130.566C35.5248 130.471 35.2023 130.446 34.8864 130.493C34.7561 130.547 34.6427 130.635 34.5582 130.748C34.4737 130.861 34.4212 130.995 34.4064 131.135C34.1632 132.342 37.856 138.467 38.9632 139.577C39.8976 140.515 43.4432 142.787 43.8144 143.012C46.1495 143.801 48.602 144.183 51.0656 144.142C54.1308 143.931 57.1729 143.463 60.16 142.742C60.2449 142.722 60.3344 142.736 60.4088 142.782C60.4832 142.828 60.5364 142.901 60.5568 142.986C60.5772 143.071 60.563 143.161 60.5174 143.236C60.4718 143.311 60.3985 143.364 60.3136 143.384C57.2904 144.132 54.2095 144.622 51.104 144.848C50.8736 144.842 50.6624 144.842 50.4576 144.842Z" fill="#263238"/>
<path d="M77.7728 154.17L72.544 144.893L59.8784 152.559L63.0912 160.429L77.7728 154.17Z" fill="white"/>
<path d="M63.0912 160.75C63.0509 160.756 63.0099 160.756 62.9696 160.75C62.8918 160.717 62.8299 160.655 62.7968 160.577L59.5968 152.706C59.5691 152.635 59.5674 152.555 59.592 152.483C59.6165 152.41 59.6658 152.348 59.7312 152.308L72.3968 144.643C72.4362 144.626 72.4787 144.617 72.5216 144.617C72.5646 144.617 72.607 144.626 72.6464 144.643C72.729 144.665 72.8 144.717 72.8448 144.79L78.08 154.016C78.0973 154.056 78.1062 154.1 78.1062 154.144C78.1062 154.188 78.0973 154.232 78.08 154.273C78.0658 154.316 78.0424 154.355 78.0115 154.389C77.9806 154.422 77.9428 154.448 77.9008 154.465L63.2192 160.725C63.1782 160.74 63.135 160.749 63.0912 160.75ZM60.2752 152.693L63.264 160.006L77.344 154.016L72.4544 145.336L60.2752 152.693Z" fill="#263238"/>
<path d="M146.662 152.199L141.728 288.945H105.933L113.171 191.502C113.171 191.502 93.664 212.887 91.4496 214.094C89.2352 215.301 86.4256 211.475 86.4256 211.475L60.0768 159.621L75.7632 150.947L93.0432 179.195L95.6544 177.378L97.664 178.386C97.664 178.386 115.584 146.716 116.973 145.907C118.362 145.099 125.018 145.503 125.018 145.503L142.298 146.915L148.154 145.631L146.662 152.199Z" fill="#06BCC1"/>
<path d="M141.728 289.26H105.933C105.888 289.26 105.845 289.25 105.804 289.233C105.763 289.215 105.726 289.189 105.696 289.157C105.663 289.123 105.638 289.083 105.621 289.039C105.605 288.994 105.597 288.947 105.6 288.9L112.768 192.382C109.363 196.105 93.6256 213.247 91.5904 214.357C89.1648 215.686 86.272 211.789 86.1504 211.642L59.7888 159.768C59.752 159.693 59.7454 159.606 59.7704 159.526C59.7954 159.446 59.8501 159.379 59.9232 159.338L75.6096 150.665C75.6817 150.625 75.7658 150.615 75.8452 150.635C75.9247 150.655 75.9936 150.705 76.0384 150.774L93.152 178.733L95.4944 177.109C95.543 177.08 95.5982 177.066 95.6544 177.066C95.7106 177.066 95.7657 177.08 95.8144 177.109L97.5552 177.982C99.9808 173.693 115.424 146.453 116.832 145.651C118.24 144.848 124.365 145.163 125.056 145.201L142.336 146.614L148.141 145.33C148.193 145.317 148.247 145.318 148.299 145.333C148.35 145.347 148.397 145.375 148.435 145.413C148.473 145.452 148.501 145.501 148.515 145.553C148.53 145.606 148.531 145.662 148.518 145.715L147.008 152.244L142.08 288.945C142.078 288.989 142.068 289.033 142.049 289.073C142.03 289.113 142.004 289.148 141.971 289.178C141.938 289.207 141.9 289.229 141.858 289.244C141.816 289.258 141.772 289.263 141.728 289.26ZM106.278 288.618H141.44L146.362 152.186C146.359 152.165 146.359 152.143 146.362 152.122L147.763 146.055L142.406 147.224H142.31L125.03 145.811C123.219 145.702 118.259 145.548 117.171 146.171C116.096 146.903 105.107 165.925 97.9712 178.534C97.9307 178.606 97.8642 178.659 97.7856 178.683C97.7069 178.707 97.6222 178.699 97.5488 178.662L95.7056 177.738L93.248 179.445C93.2123 179.471 93.1716 179.489 93.1286 179.498C93.0856 179.507 93.0412 179.506 92.9984 179.497C92.956 179.487 92.9161 179.469 92.8809 179.444C92.8457 179.419 92.816 179.386 92.7936 179.349L75.648 151.371L60.5056 159.749L86.7072 211.321C86.7072 211.321 89.3568 214.871 91.296 213.805C93.0112 212.868 106.202 198.661 112.934 191.278C112.98 191.228 113.039 191.194 113.104 191.18C113.17 191.166 113.238 191.174 113.299 191.201C113.36 191.228 113.411 191.273 113.445 191.331C113.48 191.388 113.496 191.455 113.491 191.522L106.278 288.618Z" fill="#263238"/>
<path d="M113.37 188.466L114.618 176.011L105.306 199.765L113.171 191.496L113.37 188.466Z" fill="#263238"/>
<path d="M105.306 200.086C105.244 200.086 105.184 200.068 105.133 200.034C105.07 199.995 105.024 199.935 105 199.865C104.977 199.794 104.979 199.718 105.005 199.649L114.323 175.895C114.352 175.823 114.405 175.764 114.473 175.728C114.54 175.691 114.619 175.68 114.694 175.696C114.77 175.714 114.836 175.76 114.881 175.823C114.926 175.887 114.946 175.965 114.938 176.043L113.658 188.498L113.459 191.515C113.453 191.59 113.422 191.66 113.37 191.714L105.536 199.983C105.507 200.015 105.471 200.041 105.432 200.059C105.392 200.077 105.349 200.086 105.306 200.086ZM114.067 178.258L106.202 198.378L112.858 191.374L113.05 188.466L114.067 178.258Z" fill="#263238"/>
<path d="M112.365 179.914C112.288 179.913 112.215 179.885 112.157 179.835C112.099 179.784 112.062 179.714 112.051 179.638C111.846 178.232 110.496 159.242 110.438 158.452C110.435 158.41 110.441 158.368 110.454 158.328C110.468 158.288 110.489 158.251 110.516 158.219C110.572 158.154 110.651 158.115 110.736 158.109C110.821 158.103 110.905 158.131 110.969 158.187C111.033 158.243 111.072 158.322 111.078 158.407C111.078 158.606 112.486 178.181 112.685 179.593C112.696 179.677 112.673 179.763 112.621 179.83C112.57 179.897 112.494 179.942 112.41 179.953L112.365 179.914Z" fill="#263238"/>
<path d="M110.758 187.175C110.682 187.176 110.607 187.15 110.548 187.1C110.49 187.051 110.451 186.982 110.438 186.906L108.23 172.782C108.223 172.74 108.224 172.698 108.233 172.657C108.243 172.616 108.26 172.577 108.285 172.543C108.309 172.509 108.34 172.48 108.376 172.458C108.412 172.437 108.451 172.422 108.493 172.416C108.578 172.403 108.664 172.424 108.734 172.474C108.803 172.525 108.85 172.601 108.864 172.686L111.072 186.81C111.079 186.851 111.078 186.893 111.069 186.934C111.06 186.975 111.042 187.014 111.018 187.048C110.993 187.082 110.962 187.111 110.927 187.133C110.891 187.155 110.851 187.169 110.81 187.175H110.758Z" fill="#263238"/>
<path d="M87.6288 192.016C87.5826 192.028 87.5341 192.028 87.488 192.016C87.4131 191.979 87.3558 191.913 87.3283 191.834C87.3008 191.755 87.3053 191.668 87.3408 191.592L92.5696 180.678C92.5856 180.637 92.61 180.6 92.641 180.569C92.6721 180.538 92.7092 180.513 92.7501 180.497C92.791 180.481 92.8347 180.473 92.8787 180.475C92.9226 180.476 92.9657 180.487 93.0054 180.506C93.045 180.525 93.0804 180.552 93.1091 180.585C93.1379 180.619 93.1596 180.657 93.1728 180.7C93.1859 180.742 93.1903 180.786 93.1856 180.83C93.1809 180.874 93.1673 180.916 93.1456 180.954L87.9168 191.868C87.8872 191.917 87.8446 191.957 87.7937 191.983C87.7428 192.009 87.6857 192.021 87.6288 192.016Z" fill="#263238"/>
<path d="M93.2608 188.587C93.2122 188.587 93.1642 188.576 93.12 188.555C93.0447 188.517 92.9873 188.45 92.9598 188.37C92.9324 188.29 92.937 188.202 92.9728 188.125L97.1968 179.651C97.2151 179.613 97.2409 179.579 97.2726 179.551C97.3043 179.523 97.3413 179.502 97.3813 179.489C97.4213 179.476 97.4636 179.471 97.5056 179.474C97.5475 179.478 97.5884 179.49 97.6256 179.51C97.6635 179.528 97.6974 179.554 97.7253 179.586C97.7532 179.617 97.7746 179.654 97.7882 179.694C97.8019 179.734 97.8076 179.776 97.805 179.818C97.8023 179.861 97.7914 179.902 97.7728 179.94L93.5488 188.408C93.5224 188.462 93.4814 188.507 93.4305 188.539C93.3796 188.571 93.3208 188.588 93.2608 188.587Z" fill="#263238"/>
<path d="M140.122 215.417C140.055 215.419 139.99 215.399 139.936 215.361C139.882 215.323 139.841 215.268 139.821 215.205C136.73 206.531 134.4 193.094 132.986 183.342C132.975 183.259 132.997 183.175 133.047 183.108C133.097 183.04 133.172 182.996 133.254 182.983C133.338 182.972 133.423 182.994 133.491 183.044C133.559 183.094 133.605 183.169 133.619 183.252C135.027 192.972 137.35 206.364 140.422 214.993C140.436 215.033 140.442 215.075 140.44 215.117C140.438 215.158 140.427 215.199 140.408 215.237C140.39 215.275 140.364 215.308 140.332 215.336C140.301 215.364 140.264 215.384 140.224 215.397C140.191 215.41 140.157 215.417 140.122 215.417Z" fill="#263238"/>
<path d="M132.672 179.054C132.595 179.053 132.52 179.025 132.462 178.975C132.403 178.924 132.364 178.854 132.352 178.778C131.968 175.85 131.757 173.995 131.757 173.982C131.751 173.922 131.761 173.861 131.787 173.807C131.813 173.753 131.854 173.707 131.904 173.674L139.251 168.878L130.214 167.401C130.158 167.393 130.105 167.37 130.061 167.333C130.017 167.297 129.984 167.25 129.965 167.196C129.946 167.142 129.941 167.084 129.951 167.028C129.961 166.971 129.986 166.919 130.022 166.875C130.022 166.875 132.045 164.435 134.022 161.457C136 158.478 142.4 148.617 142.464 148.552C142.511 148.48 142.584 148.43 142.668 148.412C142.752 148.394 142.84 148.41 142.912 148.456C142.982 148.503 143.031 148.576 143.048 148.659C143.064 148.742 143.048 148.828 143.002 148.899C142.938 149.002 136.544 158.824 134.554 161.816C133.05 164.076 131.533 166.021 130.861 166.856L140.16 168.384C140.224 168.394 140.283 168.423 140.33 168.468C140.377 168.513 140.409 168.571 140.422 168.634C140.434 168.697 140.427 168.763 140.402 168.822C140.377 168.882 140.335 168.932 140.282 168.968L132.403 174.104C132.467 174.65 132.659 176.319 132.973 178.694C132.984 178.778 132.961 178.864 132.909 178.931C132.858 178.998 132.782 179.043 132.698 179.054H132.672Z" fill="#263238"/>
<path d="M251.987 146.549C251.987 146.549 256.339 137.664 258.522 134.756C260.704 131.848 262.874 130.095 265.344 129.658C267.814 129.222 269.549 129.369 271.437 128.638C273.325 127.906 277.101 126.891 278.118 125.582C279.136 124.272 281.018 125.145 280.147 127.328C279.277 129.511 276.23 130.968 276.23 130.968L273.76 132.13C273.76 132.13 281.747 133.298 282.323 133.735C282.899 134.172 289.875 134.756 289.875 134.756C289.875 134.756 286.822 140.142 282.47 142.62C278.118 145.098 264.474 143.057 264.474 143.057L260.41 151.647L251.987 146.549Z" fill="white"/>
<path d="M260.403 151.968C260.347 151.966 260.292 151.951 260.243 151.923L251.821 146.826C251.753 146.783 251.703 146.717 251.681 146.64C251.659 146.563 251.665 146.481 251.699 146.408C251.878 146.042 256.096 137.465 258.266 134.564C260.602 131.437 262.835 129.774 265.306 129.344C266.234 129.177 267.046 129.094 267.827 129.017C269.024 128.955 270.207 128.726 271.341 128.336C271.77 128.176 272.288 127.996 272.851 127.803C274.669 127.161 277.152 126.327 277.882 125.383C278.099 125.051 278.43 124.811 278.813 124.709C279.196 124.607 279.602 124.65 279.955 124.831C280.538 125.165 281.024 126.051 280.467 127.45C279.558 129.723 276.512 131.199 276.384 131.257L274.874 131.97C277.382 132.349 282.022 133.093 282.554 133.479C282.944 133.722 286.618 134.159 289.939 134.435C289.993 134.439 290.045 134.456 290.09 134.485C290.135 134.514 290.172 134.555 290.197 134.602C290.222 134.65 290.234 134.703 290.233 134.757C290.231 134.811 290.216 134.864 290.189 134.91C290.067 135.135 287.046 140.406 282.669 142.897C278.534 145.246 266.592 143.673 264.698 143.404L260.736 151.75C260.716 151.791 260.689 151.827 260.655 151.857C260.62 151.887 260.581 151.909 260.538 151.923L260.403 151.968ZM252.403 146.428L260.269 151.185L264.179 142.916C264.21 142.854 264.259 142.803 264.32 142.771C264.381 142.738 264.45 142.726 264.518 142.736C264.653 142.736 278.106 144.733 282.31 142.338C285.824 140.342 288.512 136.348 289.35 135.032C287.296 134.852 282.707 134.39 282.15 133.992C281.741 133.729 277.504 133.003 273.734 132.451C273.666 132.442 273.603 132.411 273.555 132.362C273.506 132.313 273.475 132.25 273.466 132.182C273.455 132.113 273.466 132.043 273.499 131.982C273.531 131.92 273.582 131.871 273.645 131.841L276.109 130.679C276.141 130.679 279.059 129.248 279.872 127.206C280.275 126.192 280 125.595 279.642 125.383C279.417 125.278 279.162 125.261 278.925 125.335C278.689 125.408 278.488 125.567 278.362 125.781C277.517 126.872 275.027 127.707 273.03 128.413C272.48 128.599 271.968 128.779 271.546 128.94C270.358 129.348 269.119 129.59 267.866 129.659C267.098 129.736 266.298 129.813 265.389 129.973C263.11 130.378 261.005 131.957 258.771 134.949C256.851 137.523 253.146 144.932 252.403 146.428Z" fill="#263238"/>
<path d="M292.621 133.318C292.621 133.318 294.861 128.535 294.675 127.501C294.49 126.468 292.525 127.129 291.872 128.535C291.219 129.941 288.973 133.318 288.973 133.318H292.621Z" fill="white"/>
<path d="M292.621 133.639H288.973C288.915 133.637 288.858 133.62 288.809 133.59C288.76 133.559 288.719 133.517 288.691 133.466C288.66 133.417 288.643 133.36 288.643 133.302C288.643 133.244 288.66 133.187 288.691 133.138C288.691 133.138 290.925 129.768 291.565 128.394C291.788 127.897 292.147 127.473 292.6 127.171C293.053 126.868 293.581 126.701 294.125 126.686C294.326 126.701 294.516 126.784 294.663 126.922C294.811 127.06 294.908 127.244 294.938 127.444C295.136 128.522 293.242 132.637 292.858 133.453C292.836 133.501 292.803 133.542 292.762 133.575C292.721 133.607 292.672 133.629 292.621 133.639ZM289.568 132.997H292.416C293.267 131.161 294.477 128.214 294.336 127.559C294.336 127.45 294.272 127.347 294.067 127.322C293.656 127.353 293.261 127.494 292.923 127.732C292.585 127.969 292.317 128.293 292.147 128.67C291.361 130.155 290.5 131.599 289.568 132.997Z" fill="#263238"/>
<path d="M296.595 131.039C296.595 131.039 293.114 138.467 290.79 140.502C288.467 142.537 283.821 142.691 283.821 142.691C283.821 142.691 289.338 136.862 290.502 134.679C291.667 132.496 295.872 127.251 296.595 131.039Z" fill="white"/>
<path d="M283.821 143.012C283.759 143.011 283.7 142.992 283.649 142.958C283.598 142.924 283.557 142.876 283.533 142.82C283.507 142.761 283.499 142.697 283.509 142.634C283.519 142.572 283.548 142.513 283.59 142.466C283.648 142.409 289.094 136.65 290.221 134.531C291.085 132.907 293.882 129.113 295.686 129.395C296.326 129.492 296.73 130.037 296.909 130.981C296.928 131.044 296.928 131.111 296.909 131.174C296.762 131.482 293.37 138.685 291.021 140.746C288.672 142.807 284.045 143.006 283.853 143.012H283.821ZM295.475 130.024C294.195 130.024 291.693 133.125 290.784 134.833C289.875 136.541 286.067 140.752 284.621 142.306C286.029 142.165 288.941 141.702 290.579 140.264C292.685 138.415 295.846 131.873 296.262 131C296.134 130.403 295.904 130.082 295.59 130.031L295.475 130.024Z" fill="#263238"/>
<path d="M293.792 131.694C293.792 131.694 290.31 139.122 287.987 141.163C285.664 143.205 281.018 143.346 281.018 143.346C281.018 143.346 286.534 137.523 287.699 135.334C288.864 133.145 293.069 127.912 293.792 131.694Z" fill="white"/>
<path d="M281.018 143.667C280.956 143.666 280.896 143.647 280.845 143.613C280.794 143.579 280.754 143.531 280.73 143.474C280.702 143.418 280.693 143.354 280.703 143.292C280.713 143.229 280.743 143.172 280.787 143.128C280.845 143.063 286.285 137.305 287.411 135.186C288.275 133.562 291.059 129.774 292.877 130.05C293.517 130.146 293.926 130.692 294.106 131.629C294.128 131.694 294.128 131.764 294.106 131.828C293.965 132.13 290.566 139.34 288.224 141.394C285.882 143.449 281.248 143.654 281.056 143.66L281.018 143.667ZM292.672 130.679C291.36 130.679 288.883 133.78 287.981 135.488C287.021 137.292 283.264 141.407 281.818 142.961C283.226 142.819 286.138 142.357 287.776 140.919C289.882 139.07 293.043 132.528 293.459 131.655C293.331 131.064 293.101 130.737 292.781 130.692L292.672 130.679Z" fill="#263238"/>
<path d="M262.291 139.269C262.291 139.269 263.021 138.101 265.491 136.502C267.962 134.904 281.024 138.974 281.024 138.974C281.024 138.974 286.976 131.552 287.846 130.821C288.717 130.089 290.317 129.659 290.605 131.116C290.893 132.573 286.976 138.82 285.958 139.853C284.941 140.887 281.024 143.346 281.024 143.346C278.643 144.167 276.136 144.561 273.619 144.508C270.537 144.286 267.48 143.8 264.48 143.057" fill="white"/>
<path d="M274.24 144.842C274.029 144.842 273.818 144.842 273.6 144.842C270.494 144.616 267.413 144.126 264.39 143.378C264.306 143.357 264.232 143.304 264.187 143.229C264.141 143.155 264.127 143.065 264.147 142.98C264.168 142.895 264.221 142.821 264.295 142.775C264.37 142.73 264.459 142.715 264.544 142.736C267.523 143.472 270.559 143.955 273.619 144.18C276.083 144.226 278.536 143.843 280.87 143.05C281.229 142.819 284.787 140.553 285.722 139.616C286.829 138.505 290.522 132.38 290.278 131.173C290.265 131.033 290.213 130.898 290.128 130.785C290.044 130.672 289.929 130.584 289.798 130.531C289.483 130.484 289.16 130.51 288.855 130.605C288.551 130.701 288.271 130.864 288.038 131.084C287.398 131.642 283.315 136.63 281.261 139.192C281.22 139.242 281.165 139.279 281.104 139.297C281.042 139.315 280.976 139.314 280.915 139.295C277.325 138.178 267.578 135.539 265.651 136.785C263.296 138.312 262.566 139.442 262.56 139.449C262.515 139.521 262.443 139.573 262.36 139.592C262.278 139.611 262.191 139.597 262.118 139.552C262.046 139.506 261.995 139.434 261.976 139.351C261.957 139.268 261.971 139.181 262.016 139.109C262.016 139.064 262.81 137.87 265.306 136.245C267.802 134.621 278.829 137.979 280.902 138.621C281.818 137.478 286.81 131.276 287.629 130.589C287.948 130.303 288.329 130.095 288.743 129.984C289.156 129.872 289.59 129.86 290.01 129.947C290.249 130.035 290.46 130.187 290.618 130.388C290.776 130.589 290.876 130.829 290.906 131.084C291.245 132.772 287.066 139.205 286.176 140.11C285.146 141.144 281.344 143.545 281.184 143.648L281.126 143.68C278.908 144.436 276.583 144.829 274.24 144.842Z" fill="#263238"/>
<path d="M246.918 154.17L252.147 144.893L264.819 152.559L261.6 160.429L246.918 154.17Z" fill="white"/>
<path d="M261.6 160.75C261.558 160.756 261.514 160.756 261.472 160.75L246.79 154.491C246.749 154.474 246.711 154.448 246.681 154.415C246.651 154.382 246.629 154.342 246.618 154.298C246.599 154.258 246.589 154.214 246.589 154.17C246.589 154.125 246.599 154.082 246.618 154.041L251.846 144.758C251.891 144.685 251.962 144.632 252.045 144.61C252.084 144.593 252.127 144.584 252.17 144.584C252.213 144.584 252.255 144.593 252.294 144.61L264.96 152.282C265.024 152.323 265.072 152.386 265.096 152.458C265.119 152.531 265.116 152.609 265.088 152.68L261.888 160.551C261.855 160.629 261.793 160.692 261.715 160.725C261.678 160.739 261.639 160.747 261.6 160.75ZM247.373 154.016L261.453 160.006L264.442 152.693L252.282 145.336L247.373 154.016Z" fill="#263238"/>
<path d="M178.029 152.199L182.963 288.945H218.765L211.52 191.496C211.52 191.496 231.027 212.881 233.242 214.088C235.456 215.295 238.272 211.468 238.272 211.468L264.614 159.621L248.96 150.947L231.68 179.195L229.062 177.378L227.053 178.386C227.053 178.386 209.133 146.716 207.744 145.907C206.355 145.099 199.699 145.503 199.699 145.503L182.419 146.915L176.019 145.631L178.029 152.199Z" fill="#06BCC1"/>
<path d="M218.765 289.26H182.963C182.88 289.258 182.8 289.225 182.741 289.166C182.681 289.108 182.646 289.029 182.643 288.945L177.709 152.25L175.635 145.734C175.619 145.68 175.617 145.623 175.629 145.567C175.641 145.512 175.668 145.461 175.706 145.419C175.743 145.378 175.79 145.346 175.842 145.328C175.895 145.31 175.952 145.306 176.006 145.317L182.406 146.601L199.654 145.188C200.352 145.15 206.438 144.803 207.885 145.638C209.331 146.472 224.736 173.68 227.162 177.969L228.902 177.096C228.952 177.068 229.008 177.053 229.066 177.053C229.123 177.053 229.179 177.068 229.229 177.096L231.565 178.72L248.685 150.761C248.728 150.693 248.796 150.643 248.875 150.623C248.953 150.603 249.036 150.613 249.107 150.652L264.794 159.325C264.867 159.366 264.921 159.433 264.946 159.513C264.971 159.593 264.965 159.68 264.928 159.755L238.579 211.603C238.432 211.809 235.546 215.693 233.114 214.357C231.085 213.247 215.347 196.105 211.936 192.382L219.085 288.9C219.088 288.945 219.081 288.99 219.066 289.032C219.05 289.074 219.026 289.112 218.995 289.144C218.967 289.179 218.932 289.207 218.893 289.227C218.853 289.247 218.809 289.258 218.765 289.26ZM183.27 288.618H218.419L211.2 191.522C211.195 191.454 211.212 191.386 211.247 191.329C211.283 191.271 211.336 191.226 211.398 191.201C211.458 191.173 211.526 191.166 211.59 191.18C211.655 191.193 211.713 191.228 211.757 191.278C218.496 198.661 231.68 212.868 233.395 213.786C235.315 214.852 237.984 211.295 238.016 211.257L264.192 159.73L249.043 151.352L231.904 179.336C231.882 179.374 231.853 179.407 231.817 179.432C231.782 179.458 231.742 179.475 231.699 179.484C231.656 179.493 231.612 179.494 231.569 179.485C231.526 179.476 231.485 179.458 231.45 179.433L228.992 177.725L227.149 178.649C227.076 178.686 226.993 178.693 226.915 178.669C226.837 178.645 226.772 178.592 226.733 178.521C219.603 165.912 208.614 146.89 207.533 146.158C206.451 145.516 201.491 145.689 199.667 145.798L182.387 147.211H182.298L176.41 146.042L178.33 152.09C178.333 152.118 178.333 152.146 178.33 152.173L183.27 288.618Z" fill="#263238"/>
<path d="M211.52 191.496L211.277 181.654L219.04 199.18L211.52 191.496Z" fill="#263238"/>
<path d="M219.04 199.502C218.998 199.502 218.956 199.494 218.918 199.477C218.879 199.461 218.845 199.436 218.816 199.405L211.296 191.701C211.239 191.643 211.205 191.565 211.2 191.483L210.957 181.686C210.956 181.612 210.981 181.54 211.026 181.482C211.071 181.424 211.135 181.383 211.206 181.365C211.279 181.347 211.355 181.355 211.422 181.388C211.489 181.421 211.542 181.476 211.571 181.545L219.334 199.071C219.365 199.14 219.37 199.217 219.349 199.289C219.328 199.36 219.282 199.422 219.219 199.463C219.165 199.494 219.102 199.508 219.04 199.502ZM211.84 191.361L218.029 197.691L211.629 183.259L211.84 191.361Z" fill="#263238"/>
<path d="M211.322 188.787C211.241 188.787 211.163 188.757 211.104 188.702C211.045 188.647 211.008 188.572 211.002 188.492L209.19 161.861C209.187 161.819 209.193 161.777 209.206 161.737C209.22 161.697 209.241 161.66 209.268 161.628C209.296 161.596 209.33 161.57 209.367 161.551C209.405 161.532 209.446 161.521 209.488 161.518C209.53 161.515 209.572 161.52 209.612 161.534C209.652 161.547 209.689 161.568 209.721 161.596C209.753 161.624 209.779 161.657 209.797 161.695C209.816 161.733 209.827 161.774 209.83 161.816L211.642 188.447C211.644 188.489 211.638 188.531 211.625 188.571C211.611 188.611 211.59 188.648 211.562 188.679C211.534 188.711 211.5 188.737 211.462 188.755C211.424 188.774 211.383 188.784 211.341 188.787H211.322Z" fill="#263238"/>
<path d="M212.326 179.914H212.282C212.199 179.901 212.124 179.857 212.074 179.789C212.024 179.722 212.002 179.638 212.013 179.555C212.205 178.168 213.171 166.997 213.178 166.888C213.189 166.803 213.231 166.726 213.296 166.672C213.361 166.617 213.445 166.589 213.53 166.593C213.613 166.601 213.691 166.642 213.745 166.707C213.798 166.772 213.825 166.855 213.818 166.939C213.779 167.402 212.845 178.239 212.646 179.645C212.633 179.72 212.594 179.788 212.535 179.837C212.477 179.887 212.403 179.914 212.326 179.914Z" fill="#263238"/>
<path d="M213.939 187.175H213.888C213.846 187.17 213.805 187.156 213.769 187.134C213.733 187.113 213.701 187.084 213.676 187.05C213.651 187.016 213.633 186.977 213.623 186.935C213.613 186.894 213.612 186.851 213.619 186.809L215.834 172.685C215.84 172.643 215.854 172.602 215.876 172.566C215.898 172.529 215.927 172.498 215.961 172.472C215.995 172.447 216.034 172.429 216.075 172.418C216.117 172.408 216.16 172.406 216.202 172.412C216.244 172.419 216.284 172.433 216.32 172.455C216.357 172.477 216.388 172.506 216.414 172.54C216.439 172.575 216.457 172.614 216.468 172.655C216.478 172.696 216.48 172.739 216.474 172.781L214.259 186.905C214.248 186.982 214.209 187.052 214.15 187.102C214.091 187.151 214.016 187.177 213.939 187.175Z" fill="#263238"/>
<path d="M232.851 186.963C232.776 186.961 232.704 186.934 232.646 186.884C232.589 186.835 232.551 186.768 232.538 186.693L231.52 180.858C231.513 180.816 231.514 180.772 231.524 180.731C231.533 180.689 231.551 180.65 231.575 180.615C231.6 180.58 231.631 180.55 231.667 180.527C231.703 180.505 231.744 180.489 231.786 180.482C231.828 180.475 231.871 180.476 231.912 180.486C231.954 180.495 231.993 180.513 232.028 180.538C232.063 180.562 232.092 180.594 232.115 180.63C232.137 180.666 232.153 180.706 232.16 180.749L233.184 186.584C233.197 186.668 233.177 186.754 233.128 186.824C233.079 186.893 233.005 186.941 232.922 186.957L232.851 186.963Z" fill="#263238"/>
<path d="M227.142 184.1C227.059 184.095 226.98 184.059 226.922 183.998C226.863 183.937 226.83 183.857 226.829 183.773L226.893 179.786C226.902 179.703 226.939 179.626 226.999 179.569C227.059 179.511 227.137 179.477 227.219 179.471C227.261 179.472 227.303 179.481 227.341 179.498C227.38 179.515 227.414 179.539 227.444 179.57C227.473 179.6 227.496 179.636 227.511 179.675C227.526 179.715 227.534 179.756 227.533 179.799L227.469 183.779C227.469 183.822 227.46 183.864 227.444 183.903C227.427 183.943 227.403 183.978 227.373 184.008C227.342 184.038 227.306 184.062 227.267 184.077C227.227 184.093 227.185 184.101 227.142 184.1Z" fill="#263238"/>
<path d="M184.576 215.417C184.54 215.427 184.503 215.427 184.467 215.417C184.388 215.389 184.322 215.331 184.285 215.255C184.248 215.18 184.242 215.092 184.269 215.012C184.755 213.651 185.242 212.11 185.715 210.428C185.727 210.386 185.746 210.347 185.773 210.312C185.799 210.278 185.832 210.249 185.87 210.227C185.908 210.205 185.949 210.191 185.993 210.185C186.036 210.18 186.08 210.183 186.122 210.194C186.164 210.205 186.203 210.225 186.237 210.252C186.272 210.278 186.301 210.312 186.323 210.349C186.344 210.387 186.358 210.429 186.364 210.472C186.37 210.516 186.367 210.56 186.355 210.602C185.875 212.297 185.382 213.857 184.896 215.224C184.869 215.286 184.824 215.338 184.767 215.372C184.709 215.407 184.643 215.422 184.576 215.417Z" fill="#263238"/>
<path d="M186.88 207.745H186.797C186.716 207.724 186.646 207.672 186.603 207.6C186.56 207.528 186.547 207.442 186.566 207.36C189.971 193.878 192.07 176.178 192.326 174.117L184.448 168.981C184.394 168.946 184.352 168.895 184.328 168.835C184.304 168.776 184.299 168.71 184.314 168.647C184.325 168.584 184.356 168.526 184.402 168.481C184.447 168.436 184.506 168.407 184.57 168.397L193.882 166.869C193.242 166.034 191.693 164.089 190.189 161.829C188.198 158.838 181.805 148.989 181.741 148.912C181.7 148.841 181.688 148.756 181.708 148.677C181.727 148.597 181.777 148.528 181.846 148.483C181.915 148.439 181.998 148.422 182.078 148.438C182.159 148.453 182.23 148.499 182.278 148.566C182.342 148.662 188.736 158.484 190.72 161.47C192.704 164.455 194.707 166.869 194.726 166.888C194.761 166.933 194.784 166.986 194.793 167.042C194.802 167.098 194.796 167.156 194.778 167.209C194.758 167.263 194.725 167.31 194.681 167.347C194.637 167.383 194.584 167.406 194.528 167.415L185.491 168.891L192.845 173.687C192.895 173.72 192.934 173.766 192.959 173.821C192.984 173.875 192.993 173.936 192.986 173.995C192.986 174.181 190.822 193.191 187.226 207.514C187.205 207.587 187.159 207.651 187.095 207.693C187.032 207.736 186.956 207.754 186.88 207.745Z" fill="#263238"/>
<path d="M147.968 132.997L148.026 146.717L163.776 156.269L176.538 147.397L175.36 131.835C175.36 131.835 165.498 138.255 164.192 138.525C162.886 138.794 147.968 132.997 147.968 132.997Z" fill="white"/>
<path d="M163.776 156.59C163.717 156.592 163.66 156.576 163.61 156.546L147.84 147.018C147.793 146.989 147.754 146.948 147.726 146.9C147.698 146.852 147.682 146.798 147.68 146.742L147.622 133.023C147.623 132.971 147.637 132.92 147.661 132.874C147.686 132.829 147.721 132.79 147.763 132.76C147.806 132.731 147.854 132.712 147.906 132.705C147.957 132.698 148.009 132.704 148.058 132.721C153.818 134.955 163.2 138.422 164.115 138.236C165.03 138.05 171.232 134.146 175.181 131.591C175.228 131.563 175.282 131.548 175.338 131.548C175.393 131.548 175.447 131.563 175.494 131.591C175.544 131.616 175.587 131.653 175.618 131.699C175.649 131.745 175.669 131.799 175.674 131.854L176.832 147.416C176.836 147.473 176.825 147.529 176.8 147.58C176.776 147.63 176.738 147.674 176.691 147.705L163.936 156.578C163.884 156.595 163.83 156.599 163.776 156.59ZM148.346 146.537L163.763 155.891L176.205 147.237L175.098 132.394C172.998 133.755 165.498 138.57 164.282 138.814C163.066 139.057 151.565 134.711 148.282 133.44L148.346 146.537Z" fill="#263238"/>
<path d="M148.186 144.091L163.142 140.373L148.026 134.185L148.186 144.091Z" fill="#263238"/>
<path d="M148.186 144.405C148.114 144.407 148.044 144.384 147.987 144.341C147.949 144.312 147.918 144.274 147.897 144.23C147.876 144.187 147.865 144.139 147.866 144.091L147.706 134.178C147.706 134.125 147.718 134.073 147.743 134.026C147.767 133.979 147.803 133.939 147.846 133.909C147.892 133.883 147.944 133.87 147.997 133.87C148.049 133.87 148.101 133.883 148.147 133.909L163.264 140.098C163.327 140.123 163.38 140.168 163.415 140.226C163.451 140.283 163.467 140.351 163.462 140.419C163.456 140.486 163.429 140.549 163.385 140.601C163.342 140.652 163.284 140.69 163.219 140.707L148.262 144.418L148.186 144.405ZM148.358 134.666L148.499 143.654L162.112 140.271L148.358 134.666Z" fill="#263238"/>
<path d="M175.36 115.83C175.36 115.83 175.213 109.577 176.954 106.084C177.511 104.953 177.801 103.709 177.801 102.447C177.801 101.186 177.511 99.9412 176.954 98.8104L178.56 98.2262C177.685 97.4915 176.766 96.8118 175.808 96.191C175.373 96.0434 176.096 92.1207 174.79 90.0792C173.485 88.0376 172.179 87.6075 172.179 87.6075L171.456 90.2268C171.456 90.2268 167.539 85.5723 165.363 84.6992C163.187 83.8261 156.96 79.6082 156.8 81.791C156.64 83.9738 157.53 84.8469 157.53 84.8469C157.53 84.8469 153.178 82.3688 149.85 83.2419C146.522 84.115 143.322 86.1566 144.045 86.882C144.768 87.6075 147.962 90.6634 147.962 90.6634C147.962 90.6634 140.57 90.9523 139.699 91.8254C139.115 92.5041 138.679 93.2979 138.419 94.1559L142.624 96.3387C142.624 96.3387 138.854 96.0434 137.402 98.3738C135.949 100.704 135.661 101.584 136.678 102.008C137.684 102.522 138.653 103.105 139.578 103.754C139.578 103.754 138.56 105.5 139.725 108.408C140.89 111.317 143.635 117.724 143.635 117.724C143.635 117.724 144.653 107.246 145.376 105.211C146.099 103.176 155.098 98.3738 156.397 97.9373C157.696 97.5007 166.842 99.9724 167.424 99.9724C168.006 99.9724 171.77 114.668 172.64 115.246C173.51 115.823 175.36 115.83 175.36 115.83Z" fill="#263238"/>
<path d="M143.616 118.045C143.554 118.043 143.494 118.023 143.442 117.988C143.391 117.953 143.352 117.903 143.328 117.846C143.328 117.781 140.557 111.426 139.405 108.53C138.451 106.142 138.906 104.492 139.155 103.869C138.319 103.286 137.442 102.762 136.531 102.303C136.36 102.245 136.205 102.149 136.076 102.022C135.948 101.895 135.85 101.741 135.789 101.571C135.571 100.871 136.064 99.8889 137.114 98.2005C138.099 96.6147 140.038 96.1589 141.338 96.0433L138.24 94.4383C138.173 94.4062 138.12 94.3507 138.09 94.2823C138.061 94.2138 138.057 94.137 138.08 94.066C138.36 93.1545 138.831 92.3139 139.462 91.6007C140.256 90.8046 145.094 90.4836 147.194 90.3745C146.253 89.4693 144.352 87.646 143.814 87.1067C143.724 87.0216 143.66 86.912 143.63 86.7912C143.601 86.6704 143.607 86.5436 143.648 86.4262C143.962 85.2641 147.136 83.6206 149.76 82.9337C152.269 82.2917 155.264 83.4088 156.755 84.0957C156.506 83.348 156.413 82.5571 156.48 81.7717C156.481 81.6119 156.524 81.4554 156.605 81.3178C156.686 81.1802 156.802 81.0666 156.941 80.9884C157.907 80.4556 160.09 81.5534 163.066 83.1712C164.013 83.6848 164.909 84.1728 165.478 84.4039C167.315 85.1358 170.24 88.3522 171.302 89.5399L171.866 87.4983C171.878 87.4562 171.898 87.417 171.926 87.3828C171.953 87.3487 171.987 87.3203 172.026 87.2993C172.065 87.2805 172.107 87.2708 172.15 87.2708C172.194 87.2708 172.236 87.2805 172.275 87.2993C172.333 87.2993 173.702 87.7936 175.053 89.8673C175.93 91.2347 175.942 93.3469 175.949 94.7465C175.94 95.1281 175.957 95.51 176 95.8893C176.959 96.516 177.881 97.1999 178.758 97.9372C178.802 97.9742 178.836 98.0221 178.856 98.0761C178.877 98.1301 178.883 98.1884 178.874 98.2454C178.862 98.3009 178.837 98.3526 178.8 98.3953C178.763 98.4381 178.716 98.4705 178.662 98.4894L177.382 98.9516C177.894 100.093 178.145 101.335 178.118 102.587C178.092 103.838 177.788 105.068 177.229 106.187C175.546 109.57 175.667 115.721 175.667 115.785C175.667 115.872 175.632 115.955 175.571 116.016C175.543 116.047 175.508 116.071 175.469 116.088C175.431 116.104 175.389 116.113 175.347 116.112C175.264 116.112 173.35 116.112 172.416 115.47C171.942 115.156 171.251 113.063 169.414 106.932C168.589 104.19 167.578 100.807 167.232 100.236C166.938 100.197 166.291 100.043 164.909 99.722C162.432 99.1378 157.28 97.918 156.448 98.194C155.091 98.6498 146.285 103.42 145.626 105.256C144.928 107.233 143.917 117.582 143.904 117.685C143.898 117.756 143.868 117.824 143.819 117.876C143.77 117.928 143.706 117.963 143.635 117.974L143.616 118.045ZM142.221 96.6468C141.274 96.6468 138.733 96.8137 137.651 98.5728C136.8 99.9467 136.256 100.955 136.371 101.41C136.371 101.494 136.467 101.622 136.762 101.751C137.786 102.27 138.772 102.863 139.712 103.523C139.78 103.568 139.827 103.639 139.845 103.719C139.863 103.799 139.85 103.882 139.808 103.953C139.808 103.953 138.893 105.616 139.974 108.325C140.826 110.456 142.534 114.514 143.398 116.491C143.693 113.641 144.448 106.784 145.03 105.134C145.843 102.855 155.194 98.0207 156.256 97.6676C157.178 97.353 160.947 98.2005 165.056 99.1699C166.163 99.4331 167.213 99.6771 167.379 99.6835C167.802 99.6835 167.962 99.9274 170.029 106.823C171.021 110.116 172.371 114.616 172.787 115.021C173.487 115.354 174.252 115.53 175.027 115.534C175.027 114.167 175.117 109.07 176.659 105.975C177.188 104.888 177.463 103.695 177.463 102.486C177.463 101.277 177.188 100.083 176.659 98.9965C176.637 98.9559 176.624 98.9109 176.621 98.8646C176.618 98.8184 176.625 98.772 176.641 98.7287C176.657 98.6854 176.683 98.6462 176.716 98.6137C176.749 98.5813 176.788 98.5564 176.832 98.5407L177.894 98.1555C177.194 97.5616 176.455 97.0167 175.68 96.5248C175.302 96.4029 175.302 95.9406 175.29 94.8171C175.29 93.4946 175.29 91.498 174.496 90.2846C173.967 89.3945 173.235 88.6439 172.358 88.0954L171.718 90.3424C171.704 90.3989 171.674 90.4502 171.632 90.491C171.59 90.5317 171.538 90.5602 171.482 90.5735C171.424 90.5851 171.365 90.5811 171.31 90.5619C171.255 90.5427 171.206 90.509 171.168 90.4644C171.13 90.4194 167.277 85.8612 165.203 85.0266C164.354 84.6412 163.525 84.2126 162.72 83.7426C160.8 82.709 157.946 81.1746 157.21 81.5534C157.178 81.5534 157.094 81.6176 157.082 81.8166C156.954 83.8004 157.722 84.6157 157.722 84.6286C157.772 84.6861 157.8 84.7603 157.8 84.8372C157.8 84.9141 157.772 84.9883 157.722 85.0459C157.675 85.1067 157.607 85.1486 157.532 85.1639C157.457 85.1793 157.379 85.167 157.312 85.1293C157.274 85.1293 153.037 82.7347 149.862 83.5629C146.893 84.3397 144.384 85.9447 144.205 86.6059C144.922 87.3763 148.09 90.4066 148.122 90.4579C148.167 90.5017 148.198 90.5579 148.212 90.6195C148.226 90.681 148.221 90.7453 148.198 90.8042C148.176 90.8631 148.137 90.9141 148.085 90.9507C148.034 90.9873 147.973 91.0079 147.91 91.01C144.89 91.1256 140.397 91.5365 139.859 92.0822C139.356 92.6424 138.969 93.297 138.72 94.0082L142.682 96.0626C142.746 96.0976 142.797 96.1534 142.826 96.2209C142.855 96.2885 142.86 96.3639 142.842 96.435C142.82 96.506 142.776 96.5679 142.716 96.611C142.656 96.654 142.583 96.6756 142.509 96.6725C142.509 96.6725 142.438 96.6468 142.221 96.6468Z" fill="#263238"/>
<path d="M151.45 94.3035C151.45 94.3035 141.734 103.934 141.587 105.5C141.44 107.066 145.792 131.976 146.067 132.849C146.342 133.722 156.653 140.271 159.84 140.996C163.027 141.722 166.368 140.849 167.238 140.123C168.109 139.398 176.518 134.595 177.389 130.666C178.259 126.737 172.8 99.9724 172.16 98.958C171.52 97.9437 157.978 91.3889 151.45 94.3035Z" fill="white"/>
<path d="M162.381 141.587C161.509 141.59 160.64 141.497 159.789 141.311C156.749 140.617 146.144 134.05 145.779 132.965C145.382 131.771 141.126 107.079 141.267 105.487C141.408 103.895 149.587 95.703 151.226 94.0851C151.252 94.0567 151.285 94.0347 151.322 94.0209C157.773 91.1448 171.706 97.4749 172.442 98.8103C173.043 99.8631 178.586 126.718 177.696 130.75C176.954 134.107 171.027 137.998 168.499 139.661C167.981 140.001 167.578 140.264 167.437 140.386C166.714 140.996 164.653 141.587 162.381 141.587ZM151.635 94.5731C147.904 98.2581 142.003 104.453 141.907 105.532C141.779 106.976 146.022 131.655 146.387 132.746C146.835 133.594 156.73 139.956 159.93 140.681C163.13 141.407 166.278 140.527 167.053 139.879C167.219 139.738 167.597 139.487 168.173 139.109C170.637 137.491 176.41 133.703 177.094 130.596C177.933 126.821 172.486 100.203 171.91 99.1377C171.373 98.3095 158.08 91.806 151.635 94.5731Z" fill="#263238"/>
<path d="M151.45 94.3035C151.45 94.3035 154.816 95.9727 156.205 96.5954C157.594 97.2182 159.13 95.0482 159.13 95.0482C159.13 95.0482 171.053 99.1506 172.186 98.958C173.318 98.7654 168.986 94.2714 164.506 92.5701C160.026 90.8688 151.475 91.0806 151.45 94.3035Z" fill="#263238"/>
<path d="M172.122 99.2788C170.579 99.2788 161.6 96.2358 159.245 95.4268C158.797 95.979 157.427 97.4877 156.045 96.8906C154.662 96.2935 151.315 94.6051 151.283 94.5858C151.229 94.5594 151.184 94.5182 151.152 94.4672C151.121 94.4161 151.104 94.3571 151.104 94.2969C151.117 93.9181 151.225 93.5487 151.419 93.2232C151.613 92.8977 151.885 92.6266 152.211 92.4351C154.771 90.6953 161.075 90.92 164.621 92.2746C168.55 93.7705 172.774 97.6417 172.659 98.8038C172.65 98.9207 172.601 99.031 172.521 99.1163C172.441 99.2016 172.333 99.2567 172.218 99.2724L172.122 99.2788ZM159.13 94.7271C159.166 94.721 159.202 94.721 159.238 94.7271C163.661 96.2486 170.861 98.5791 172.038 98.624C171.77 97.7445 168.314 94.3354 164.422 92.846C161.043 91.562 154.925 91.3502 152.608 92.9423C152.399 93.0638 152.217 93.2284 152.076 93.4254C151.935 93.6224 151.837 93.8473 151.789 94.0851C152.525 94.4446 155.162 95.7543 156.339 96.2743C157.28 96.6916 158.49 95.3755 158.899 94.8362C158.928 94.8025 158.963 94.7754 159.003 94.7565C159.042 94.7377 159.086 94.7277 159.13 94.7271Z" fill="#263238"/>
<path d="M160.346 121.839C160.263 121.846 160.179 121.846 160.096 121.839L159.283 121.704C158.708 121.798 158.126 121.846 157.542 121.845C157.157 121.819 156.79 121.668 156.498 121.414C156.206 121.161 156.004 120.818 155.923 120.439C155.906 120.357 155.92 120.271 155.965 120.199C156.009 120.127 156.079 120.076 156.16 120.054C156.241 120.035 156.327 120.048 156.399 120.091C156.471 120.134 156.523 120.204 156.544 120.285C156.544 120.324 156.794 121.21 157.542 121.21C158.104 121.212 158.665 121.165 159.219 121.069H159.36L160.23 121.21C161.005 121.345 162.675 120.51 162.79 120.144C162.906 119.778 162.067 116.061 161.51 113.371C160.87 110.212 160.461 108.235 160.461 107.856C160.461 106.906 162.227 104.961 162.579 104.582C162.64 104.523 162.722 104.49 162.806 104.49C162.891 104.49 162.973 104.523 163.034 104.582C163.064 104.612 163.087 104.647 163.104 104.687C163.12 104.726 163.128 104.768 163.128 104.81C163.128 104.852 163.12 104.894 163.104 104.933C163.087 104.973 163.064 105.008 163.034 105.038C162.227 105.905 161.114 107.362 161.114 107.876C161.114 108.235 161.664 110.906 162.15 113.262C163.181 118.263 163.507 119.984 163.43 120.324C163.2 121.017 161.37 121.839 160.346 121.839Z" fill="#263238"/>
<path d="M163.565 120.561C163.372 120.56 163.179 120.542 162.989 120.51C162.948 120.501 162.908 120.485 162.874 120.461C162.839 120.438 162.809 120.408 162.786 120.372C162.763 120.337 162.747 120.298 162.739 120.256C162.731 120.215 162.731 120.172 162.739 120.131C162.747 120.089 162.763 120.05 162.786 120.014C162.809 119.979 162.84 119.949 162.875 119.925C162.91 119.902 162.95 119.886 162.991 119.878C163.033 119.87 163.076 119.871 163.117 119.881C163.477 119.961 163.852 119.927 164.192 119.784C164.266 119.731 164.317 119.65 164.333 119.56L164.474 118.687C164.489 118.603 164.537 118.529 164.606 118.479C164.675 118.43 164.761 118.41 164.845 118.423C164.886 118.43 164.926 118.444 164.962 118.466C164.997 118.488 165.029 118.517 165.053 118.551C165.077 118.585 165.095 118.624 165.104 118.665C165.113 118.705 165.115 118.748 165.107 118.789L164.96 119.662C164.939 119.791 164.892 119.914 164.823 120.024C164.754 120.135 164.663 120.23 164.557 120.304C164.258 120.486 163.913 120.575 163.565 120.561Z" fill="#263238"/>
<path d="M159.277 121.678C159.212 121.679 159.15 121.659 159.098 121.621C158.743 121.346 158.485 120.965 158.359 120.534C158.234 120.103 158.248 119.642 158.4 119.22C158.409 119.175 158.428 119.133 158.455 119.097C158.482 119.06 158.516 119.03 158.555 119.007C158.594 118.985 158.638 118.971 158.683 118.967C158.728 118.962 158.773 118.968 158.816 118.982C158.859 118.997 158.898 119.021 158.931 119.052C158.964 119.082 158.99 119.12 159.008 119.162C159.026 119.204 159.034 119.249 159.033 119.294C159.032 119.339 159.021 119.384 159.002 119.425C158.894 119.718 158.881 120.038 158.965 120.339C159.048 120.64 159.225 120.906 159.469 121.101C159.523 121.141 159.562 121.197 159.582 121.262C159.602 121.326 159.602 121.395 159.58 121.459C159.559 121.523 159.518 121.578 159.464 121.618C159.409 121.657 159.344 121.678 159.277 121.678Z" fill="#263238"/>
<path d="M156.672 130.551C156.593 130.551 156.516 130.524 156.454 130.474C156.395 130.413 156.362 130.331 156.362 130.246C156.362 130.161 156.395 130.079 156.454 130.018C156.506 129.96 161.453 124.49 167.11 126.731C167.149 126.747 167.185 126.77 167.215 126.799C167.245 126.829 167.269 126.864 167.286 126.902C167.303 126.941 167.312 126.983 167.312 127.025C167.313 127.067 167.305 127.109 167.29 127.148C167.274 127.188 167.251 127.223 167.222 127.254C167.192 127.284 167.157 127.308 167.119 127.325C167.08 127.341 167.039 127.35 166.996 127.351C166.954 127.351 166.913 127.344 166.874 127.328C161.632 125.254 156.979 130.39 156.934 130.448C156.901 130.484 156.861 130.512 156.815 130.53C156.77 130.548 156.721 130.555 156.672 130.551Z" fill="#263238"/>
<path d="M146.662 110.507C146.585 110.508 146.509 110.493 146.438 110.462C146.281 110.402 146.154 110.282 146.085 110.128C146.015 109.974 146.009 109.799 146.067 109.641C146.749 107.989 147.892 106.569 149.357 105.551C151.802 103.914 156.038 105.853 156.218 105.936C156.294 105.972 156.363 106.023 156.42 106.085C156.477 106.148 156.521 106.221 156.55 106.3C156.579 106.38 156.591 106.464 156.588 106.549C156.584 106.634 156.564 106.717 156.528 106.793C156.492 106.87 156.442 106.939 156.38 106.996C156.317 107.053 156.244 107.098 156.165 107.127C156.086 107.156 156.002 107.168 155.917 107.165C155.833 107.161 155.75 107.141 155.674 107.105C154.637 106.617 151.597 105.59 150.067 106.617C148.829 107.49 147.858 108.693 147.264 110.09C147.218 110.213 147.136 110.319 147.028 110.393C146.921 110.468 146.793 110.508 146.662 110.507Z" fill="#263238"/>
<path d="M172.045 107.747C171.928 107.748 171.813 107.717 171.713 107.657C171.612 107.597 171.53 107.51 171.475 107.407C170.75 106.168 169.642 105.199 168.32 104.646C167.75 104.439 167.135 104.385 166.537 104.491C165.94 104.597 165.38 104.859 164.915 105.25C164.853 105.307 164.78 105.351 164.7 105.38C164.62 105.409 164.536 105.422 164.451 105.417C164.367 105.413 164.284 105.392 164.208 105.356C164.131 105.319 164.063 105.268 164.006 105.205C163.893 105.079 163.834 104.913 163.842 104.743C163.851 104.573 163.926 104.414 164.051 104.3C164.691 103.75 165.465 103.381 166.294 103.231C167.123 103.081 167.977 103.155 168.768 103.446C170.383 104.105 171.733 105.284 172.608 106.797C172.648 106.871 172.673 106.953 172.682 107.038C172.691 107.122 172.683 107.207 172.658 107.288C172.634 107.37 172.594 107.445 172.54 107.511C172.486 107.576 172.42 107.63 172.346 107.67C172.253 107.72 172.15 107.747 172.045 107.747Z" fill="#263238"/>
<path d="M153.12 114.231C153.721 114.231 154.208 113.547 154.208 112.703C154.208 111.859 153.721 111.175 153.12 111.175C152.519 111.175 152.032 111.859 152.032 112.703C152.032 113.547 152.519 114.231 153.12 114.231Z" fill="#263238"/>
<path d="M167.187 110.521C167.187 111.362 166.694 112.049 166.099 112.049C165.504 112.049 165.011 111.362 165.011 110.521C165.011 109.68 165.498 108.993 166.099 108.993C166.701 108.993 167.187 109.68 167.187 110.521Z" fill="#263238"/>
<path d="M143.36 116.118C143.36 116.118 140.608 112.196 139.302 115.245C137.997 118.295 139.302 120.773 140.582 122.815C141.862 124.856 144.64 125.87 144.64 125.87L143.36 116.118Z" fill="white"/>
<path d="M144.64 126.192C144.604 126.198 144.567 126.198 144.531 126.192C144.416 126.153 141.658 125.113 140.314 122.982C138.848 120.696 137.677 118.167 138.982 115.117C139.081 114.776 139.272 114.469 139.534 114.23C139.796 113.991 140.119 113.829 140.467 113.762C141.92 113.615 143.43 115.688 143.597 115.932C143.629 115.973 143.649 116.022 143.654 116.074L144.934 125.819C144.94 125.875 144.932 125.931 144.911 125.982C144.89 126.034 144.856 126.079 144.813 126.114C144.764 126.157 144.704 126.184 144.64 126.192ZM140.621 114.404H140.531C140.147 114.443 139.827 114.77 139.571 115.367C138.323 118.282 139.571 120.645 140.851 122.635C141.729 123.82 142.9 124.754 144.25 125.344L143.027 116.234C142.605 115.669 141.491 114.404 140.614 114.404H140.621Z" fill="#263238"/>
<path d="M175.667 111.323C175.667 111.323 175.955 108.556 177.12 108.845C178.285 109.134 180.454 111.323 179.149 114.372C177.843 117.422 176.538 120.632 176.538 120.632L175.36 114.668L175.667 111.323Z" fill="white"/>
<path d="M176.538 120.953C176.469 120.945 176.405 120.915 176.354 120.867C176.303 120.82 176.269 120.758 176.256 120.69L175.098 114.725C175.094 114.696 175.094 114.665 175.098 114.636L175.386 111.291C175.386 111.085 175.622 109.262 176.435 108.691C176.55 108.609 176.681 108.554 176.819 108.528C176.957 108.503 177.099 108.508 177.235 108.543C177.722 108.718 178.169 108.989 178.551 109.339C178.932 109.69 179.24 110.113 179.456 110.584C179.752 111.196 179.905 111.866 179.905 112.546C179.905 113.225 179.752 113.896 179.456 114.507C178.176 117.525 176.858 120.728 176.845 120.76C176.82 120.82 176.777 120.871 176.722 120.905C176.667 120.94 176.602 120.957 176.538 120.953ZM175.699 114.648L176.646 119.521C177.139 118.333 177.997 116.247 178.854 114.25C179.107 113.722 179.237 113.144 179.237 112.559C179.237 111.973 179.107 111.395 178.854 110.867C178.5 110.082 177.852 109.468 177.05 109.159C177.002 109.145 176.952 109.142 176.903 109.151C176.854 109.16 176.808 109.18 176.768 109.211C176.339 109.512 176.064 110.681 175.994 111.348L175.699 114.648Z" fill="#263238"/>
<path d="M300.538 289.26H32.2816C32.1967 289.26 32.1153 289.226 32.0553 289.166C31.9953 289.105 31.9616 289.024 31.9616 288.939C31.9616 288.854 31.9953 288.772 32.0553 288.712C32.1153 288.651 32.1967 288.618 32.2816 288.618H300.538C300.622 288.618 300.704 288.651 300.764 288.712C300.824 288.772 300.858 288.854 300.858 288.939C300.856 289.023 300.822 289.104 300.762 289.164C300.702 289.224 300.622 289.258 300.538 289.26Z" fill="#263238"/>
</svg>
