<svg width="320" height="321" viewBox="0 0 320 321" fill="none" xmlns="http://www.w3.org/2000/svg">
<g clip-path="url(#clip0_659_11183)">
<path d="M53.0016 289.784H321.354C321.354 289.784 314.877 276.796 306.461 272.572C298.045 268.348 293.514 276.796 283.152 270.948C272.79 265.099 275.062 251.469 263.408 243.342C251.754 235.214 239.453 244.317 228.771 243.669C218.09 243.021 214.851 228.73 203.171 227.105C191.491 225.481 191.837 239.002 181.155 243.021C170.474 247.04 163.107 240.498 155.587 240.748C148.067 240.998 149.437 245.614 142.314 248.863C135.19 252.111 133.898 250.487 120.304 251.784C106.71 253.081 103.472 267.044 98.6144 270.941C93.7568 274.838 87.2864 268.669 77.2512 270.941C67.216 273.214 53.0016 289.784 53.0016 289.784Z" fill="#06BCC1"/>
<g opacity="0.8">
<path d="M55.0016 289.784H323.354C323.354 289.784 316.877 276.796 308.461 272.572C300.045 268.348 295.514 276.796 285.152 270.948C274.79 265.099 277.062 251.469 265.408 243.342C253.754 235.214 241.453 244.317 230.771 243.669C220.09 243.021 216.851 228.73 205.171 227.105C193.491 225.481 193.837 239.002 183.155 243.021C172.474 247.04 165.107 240.498 157.587 240.748C150.067 240.998 151.437 245.614 144.314 248.863C137.19 252.111 135.898 250.487 122.304 251.784C108.71 253.081 105.472 267.044 100.614 270.941C95.7568 274.838 89.2864 268.669 79.2512 270.941C69.216 273.214 55.0016 289.784 55.0016 289.784Z" fill="white"/>
</g>
<path d="M253.574 240.388C254.08 243.078 260.154 251.842 262.394 256.772C261.875 256.13 261.274 255.373 260.678 254.673C260.211 253.858 259.795 252.946 259.328 252.246C258.605 251.161 257.843 250.102 257.018 249.094C255.752 247.494 254.305 246.048 252.704 244.786C250.854 243.271 248.603 242.332 246.227 242.083C245.587 242.038 241.933 241.762 242.784 243.239C242.94 243.465 243.149 243.65 243.392 243.778C245.638 245.158 248.122 245.897 250.49 246.988C254.035 248.651 258.72 253.081 260.672 255.007L261.664 256.323C258.176 253.061 252.48 251.187 250.528 252.105C248.115 253.209 253.306 254.339 257.709 255.482C259.679 255.931 261.511 256.854 263.046 258.172C263.891 259.315 264.845 260.599 265.798 261.915C265.914 262.12 266.029 262.313 266.144 262.505C265.468 261.718 264.703 261.011 263.866 260.4C261.613 258.852 255.411 257.915 254.758 260.008C254.106 262.101 258.502 261.144 262.285 261.748C264.332 262.127 266.213 263.129 267.674 264.617L267.923 264.887C268.352 265.529 268.762 266.088 269.146 266.653C270.048 267.975 270.906 269.221 271.706 270.421C270.433 268.748 268.924 267.271 267.226 266.036C263.923 263.764 259.514 263.282 257.907 264.502C256.301 265.722 263.712 266.826 267.354 268.11C269.452 268.911 271.312 270.237 272.755 271.962C273.952 273.663 275.136 275.32 276.41 277.053C274.38 275.25 272.207 273.616 269.914 272.167C266.182 269.715 262.317 270.049 261.286 271.525C260.256 273.002 263.411 273.098 269.28 274.363C272.375 275.021 275.244 276.482 277.6 278.6L279.283 280.847C279.923 281.727 280.723 282.626 281.536 283.512C280.544 283.062 279.078 282.42 277.453 281.72C275.636 280.972 273.879 280.083 272.198 279.062C270.278 277.856 267.667 276.578 265.37 277.605C265.195 277.662 265.035 277.755 264.9 277.88C264.765 278.004 264.658 278.156 264.586 278.325C264.515 278.494 264.48 278.677 264.485 278.86C264.49 279.044 264.534 279.225 264.614 279.39C264.868 279.855 265.266 280.224 265.747 280.443C268.307 281.849 271.462 282.221 274.259 282.844C276.826 283.42 279.428 283.825 282.048 284.057C282.81 284.86 283.603 285.649 284.39 286.394L283.213 286.612C281.824 286.876 275.053 284.995 271.693 284.577C268.333 284.16 265.613 286.375 269.261 287.659C272.909 288.943 281.99 287.107 281.99 287.107L284.614 286.612C287.731 289.559 290.618 291.813 290.618 291.813L291.834 290.991C291.834 290.991 289.318 290.297 285.094 286.291C284.995 285.499 284.983 284.698 285.056 283.903C285.325 279.409 289.018 274.337 286.182 269.991C285.498 268.938 284.019 268.36 283.2 269.516C282.611 270.351 282.643 271.757 282.829 272.726C283.469 275.904 284.461 278.722 284.218 282.035C284.218 282.183 284.218 284.404 284.371 285.611C283.795 285.04 283.2 284.417 282.573 283.73C282.056 282.481 281.641 281.193 281.331 279.878C280.518 276.379 281.331 272.668 280.749 269.105C280.563 268.014 278.867 265.426 278.035 267.673C277.67 268.668 278.138 270.556 278.202 271.615C278.394 274.613 278.688 277.746 279.866 280.545L279.36 279.903C278.347 277.11 277.559 274.24 277.005 271.32C276.102 266.499 276.256 262.396 274.707 261.112C273.158 259.828 273.242 265.195 274.707 270.838C275.379 273.411 276.471 275.853 277.939 278.067C276.288 275.949 274.643 273.772 273.075 271.647C271.62 269.333 270.711 266.715 270.419 263.995C270.144 259.713 269.888 256.214 267.917 254.089C265.946 251.964 265.856 253.556 267.411 258.39C268.48 261.703 269.76 266.158 271.251 269.156C270.029 267.494 268.883 265.914 267.853 264.483C267.168 263 265.504 259.167 264.986 255.854C264.346 251.643 263.526 249.434 262.426 250.551C261.664 251.334 263.066 256.445 265.107 260.605C264.243 259.379 263.597 258.435 263.187 257.876C263.017 257.62 262.824 257.35 262.611 257.068C261.619 253.668 260.411 250.336 258.995 247.091C256.518 241.416 253.03 237.454 253.574 240.388Z" fill="#06BCC1"/>
<g opacity="0.6">
<path d="M253.574 240.388C254.08 243.078 260.154 251.842 262.394 256.772C261.875 256.13 261.274 255.373 260.678 254.673C260.211 253.858 259.795 252.946 259.328 252.246C258.605 251.161 257.843 250.102 257.018 249.094C255.752 247.494 254.305 246.048 252.704 244.786C250.854 243.271 248.603 242.332 246.227 242.083C245.587 242.038 241.933 241.762 242.784 243.239C242.94 243.465 243.149 243.65 243.392 243.778C245.638 245.158 248.122 245.897 250.49 246.988C254.035 248.651 258.72 253.081 260.672 255.007L261.664 256.323C258.176 253.061 252.48 251.187 250.528 252.105C248.115 253.209 253.306 254.339 257.709 255.482C259.679 255.931 261.511 256.854 263.046 258.172C263.891 259.315 264.845 260.599 265.798 261.915C265.914 262.12 266.029 262.313 266.144 262.505C265.468 261.718 264.703 261.011 263.866 260.4C261.613 258.852 255.411 257.915 254.758 260.008C254.106 262.101 258.502 261.144 262.285 261.748C264.332 262.127 266.213 263.129 267.674 264.617L267.923 264.887C268.352 265.529 268.762 266.088 269.146 266.653C270.048 267.975 270.906 269.221 271.706 270.421C270.433 268.748 268.924 267.271 267.226 266.036C263.923 263.764 259.514 263.282 257.907 264.502C256.301 265.722 263.712 266.826 267.354 268.11C269.452 268.911 271.312 270.237 272.755 271.962C273.952 273.663 275.136 275.32 276.41 277.053C274.38 275.25 272.207 273.616 269.914 272.167C266.182 269.715 262.317 270.049 261.286 271.525C260.256 273.002 263.411 273.098 269.28 274.363C272.375 275.021 275.244 276.482 277.6 278.6L279.283 280.847C279.923 281.727 280.723 282.626 281.536 283.512C280.544 283.062 279.078 282.42 277.453 281.72C275.636 280.972 273.879 280.083 272.198 279.062C270.278 277.856 267.667 276.578 265.37 277.605C265.195 277.662 265.035 277.755 264.9 277.88C264.765 278.004 264.658 278.156 264.586 278.325C264.515 278.494 264.48 278.677 264.485 278.86C264.49 279.044 264.534 279.225 264.614 279.39C264.868 279.855 265.266 280.224 265.747 280.443C268.307 281.849 271.462 282.221 274.259 282.844C276.826 283.42 279.428 283.825 282.048 284.057C282.81 284.86 283.603 285.649 284.39 286.394L283.213 286.612C281.824 286.876 275.053 284.995 271.693 284.577C268.333 284.16 265.613 286.375 269.261 287.659C272.909 288.943 281.99 287.107 281.99 287.107L284.614 286.612C287.731 289.559 290.618 291.813 290.618 291.813L291.834 290.991C291.834 290.991 289.318 290.297 285.094 286.291C284.995 285.499 284.983 284.698 285.056 283.903C285.325 279.409 289.018 274.337 286.182 269.991C285.498 268.938 284.019 268.36 283.2 269.516C282.611 270.351 282.643 271.757 282.829 272.726C283.469 275.904 284.461 278.722 284.218 282.035C284.218 282.183 284.218 284.404 284.371 285.611C283.795 285.04 283.2 284.417 282.573 283.73C282.056 282.481 281.641 281.193 281.331 279.878C280.518 276.379 281.331 272.668 280.749 269.105C280.563 268.014 278.867 265.426 278.035 267.673C277.67 268.668 278.138 270.556 278.202 271.615C278.394 274.613 278.688 277.746 279.866 280.545L279.36 279.903C278.347 277.11 277.559 274.24 277.005 271.32C276.102 266.499 276.256 262.396 274.707 261.112C273.158 259.828 273.242 265.195 274.707 270.838C275.379 273.411 276.471 275.853 277.939 278.067C276.288 275.949 274.643 273.772 273.075 271.647C271.62 269.333 270.711 266.715 270.419 263.995C270.144 259.713 269.888 256.214 267.917 254.089C265.946 251.964 265.856 253.556 267.411 258.39C268.48 261.703 269.76 266.158 271.251 269.156C270.029 267.494 268.883 265.914 267.853 264.483C267.168 263 265.504 259.167 264.986 255.854C264.346 251.643 263.526 249.434 262.426 250.551C261.664 251.334 263.066 256.445 265.107 260.605C264.243 259.379 263.597 258.435 263.187 257.876C263.017 257.62 262.824 257.35 262.611 257.068C261.619 253.668 260.411 250.336 258.995 247.091C256.518 241.416 253.03 237.454 253.574 240.388Z" fill="white"/>
</g>
<path d="M298.938 227.876C297.453 230.168 295.827 240.716 294.061 245.852C294.15 245.005 294.214 244.067 294.259 243.149C294.483 242.237 294.81 241.294 294.957 240.453C295.174 239.169 295.347 237.885 295.45 236.601C295.634 234.566 295.578 232.517 295.283 230.495C294.979 228.125 293.994 225.894 292.448 224.075C292.045 223.62 289.562 220.865 289.165 222.528C289.121 222.799 289.145 223.077 289.235 223.337C289.907 225.905 291.2 228.146 292.154 230.592C293.574 234.251 293.92 240.697 294.01 243.432C293.958 243.875 293.894 244.433 293.824 245.069C293.542 240.299 290.688 235.009 288.659 234.309C286.15 233.449 289.133 237.853 291.539 241.724C292.655 243.412 293.346 245.346 293.555 247.361C293.382 248.779 293.184 250.365 292.973 251.977C292.915 252.208 292.864 252.426 292.819 252.651C292.869 251.611 292.8 250.568 292.614 249.543C292.045 246.866 288.198 241.897 286.285 242.963C284.371 244.029 288.205 246.378 290.541 249.428C291.762 251.12 292.432 253.149 292.461 255.238C292.461 255.36 292.461 255.482 292.461 255.604C292.352 256.342 292.243 257.055 292.134 257.729C291.878 259.308 291.648 260.798 291.424 262.223C291.652 260.135 291.579 258.024 291.206 255.957C290.368 252.028 287.507 248.625 285.504 248.401C283.501 248.176 288.109 254.095 289.869 257.549C290.845 259.573 291.285 261.815 291.149 264.059C290.848 266.113 290.566 268.136 290.298 270.274C290.064 267.563 289.615 264.875 288.954 262.236C287.936 257.883 284.902 255.443 283.123 255.816C281.344 256.188 283.584 258.422 286.963 263.398C288.744 266.013 289.812 269.049 290.061 272.206C289.952 273.105 289.843 274.029 289.734 274.992C289.613 276.09 289.549 277.278 289.536 278.485C289.12 277.47 288.506 275.987 287.808 274.363C287.008 272.563 286.347 270.705 285.83 268.803C285.254 266.589 284.256 263.866 281.888 263.025C281.723 262.946 281.543 262.903 281.359 262.9C281.176 262.896 280.995 262.932 280.827 263.005C280.659 263.078 280.508 263.187 280.385 263.323C280.263 263.46 280.171 263.621 280.115 263.796C279.978 264.308 280.01 264.85 280.205 265.343C281.075 268.117 283.123 270.582 284.717 272.97C286.184 275.161 287.792 277.254 289.53 279.236C289.53 280.347 289.562 281.464 289.619 282.549L288.614 281.907C287.424 281.136 283.821 275.089 281.677 272.469C279.533 269.85 276.038 269.561 277.792 273.015C279.546 276.469 287.392 281.419 287.392 281.419L289.632 282.883C289.869 287.171 290.406 290.798 290.406 290.798L291.853 291.042C291.853 291.042 290.509 288.802 290.202 282.985C290.675 282.34 291.218 281.75 291.821 281.226C295.098 278.157 301.261 277.04 302.195 271.924C302.419 270.691 301.754 269.253 300.358 269.523C299.36 269.715 298.438 270.762 297.901 271.577C296.166 274.305 294.957 277.047 292.512 279.281C292.403 279.384 290.886 281.001 290.163 281.977C290.163 281.168 290.131 280.302 290.163 279.371C290.65 278.106 291.236 276.883 291.917 275.711C293.734 272.617 296.877 270.498 298.899 267.507C299.539 266.589 300.064 263.545 297.92 264.598C296.966 265.067 296 266.755 295.36 267.564C293.44 269.869 291.52 272.347 290.419 275.185C290.419 274.915 290.47 274.646 290.49 274.376C291.679 271.653 293.083 269.03 294.688 266.531C297.35 262.416 300.275 259.546 300.038 257.543C299.802 255.54 296.198 259.469 293.338 264.605C292.058 266.933 291.171 269.459 290.714 272.078C290.976 269.394 291.277 266.685 291.584 264.078C292.117 261.394 293.26 258.87 294.925 256.702C297.664 253.408 299.885 250.699 299.917 247.797C299.949 244.895 298.79 245.98 296.595 250.558C295.091 253.697 292.96 257.812 291.962 261.003C292.224 258.955 292.48 257.016 292.723 255.27C293.242 253.723 294.643 249.794 296.563 247.04C298.982 243.534 299.917 241.371 298.349 241.429C297.261 241.467 294.739 246.115 293.382 250.558C293.6 249.075 293.779 247.945 293.894 247.277C293.946 246.978 293.99 246.65 294.029 246.295C295.637 243.126 297.044 239.858 298.24 236.511C300.365 230.649 300.55 225.385 298.938 227.876Z" fill="#06BCC1"/>
<g opacity="0.6">
<path d="M298.938 227.876C297.453 230.168 295.827 240.716 294.061 245.852C294.15 245.005 294.214 244.067 294.259 243.149C294.483 242.237 294.81 241.294 294.957 240.453C295.174 239.169 295.347 237.885 295.45 236.601C295.634 234.566 295.578 232.517 295.283 230.495C294.979 228.125 293.994 225.894 292.448 224.075C292.045 223.62 289.562 220.865 289.165 222.528C289.121 222.799 289.145 223.077 289.235 223.337C289.907 225.905 291.2 228.146 292.154 230.592C293.574 234.251 293.92 240.697 294.01 243.432C293.958 243.875 293.894 244.433 293.824 245.069C293.542 240.299 290.688 235.009 288.659 234.309C286.15 233.449 289.133 237.853 291.539 241.724C292.655 243.412 293.346 245.346 293.555 247.361C293.382 248.779 293.184 250.365 292.973 251.977C292.915 252.208 292.864 252.426 292.819 252.651C292.869 251.611 292.8 250.568 292.614 249.543C292.045 246.866 288.198 241.897 286.285 242.963C284.371 244.029 288.205 246.378 290.541 249.428C291.762 251.12 292.432 253.149 292.461 255.238C292.461 255.36 292.461 255.482 292.461 255.604C292.352 256.342 292.243 257.055 292.134 257.729C291.878 259.308 291.648 260.798 291.424 262.223C291.652 260.135 291.579 258.024 291.206 255.957C290.368 252.028 287.507 248.625 285.504 248.401C283.501 248.176 288.109 254.095 289.869 257.549C290.845 259.573 291.285 261.815 291.149 264.059C290.848 266.113 290.566 268.136 290.298 270.274C290.064 267.563 289.615 264.875 288.954 262.236C287.936 257.883 284.902 255.443 283.123 255.816C281.344 256.188 283.584 258.422 286.963 263.398C288.744 266.013 289.812 269.049 290.061 272.206C289.952 273.105 289.843 274.029 289.734 274.992C289.613 276.09 289.549 277.278 289.536 278.485C289.12 277.47 288.506 275.987 287.808 274.363C287.008 272.563 286.347 270.705 285.83 268.803C285.254 266.589 284.256 263.866 281.888 263.025C281.723 262.946 281.543 262.903 281.359 262.9C281.176 262.896 280.995 262.932 280.827 263.005C280.659 263.078 280.508 263.187 280.385 263.323C280.263 263.46 280.171 263.621 280.115 263.796C279.978 264.308 280.01 264.85 280.205 265.343C281.075 268.117 283.123 270.582 284.717 272.97C286.184 275.161 287.792 277.254 289.53 279.236C289.53 280.347 289.562 281.464 289.619 282.549L288.614 281.907C287.424 281.136 283.821 275.089 281.677 272.469C279.533 269.85 276.038 269.561 277.792 273.015C279.546 276.469 287.392 281.419 287.392 281.419L289.632 282.883C289.869 287.171 290.406 290.798 290.406 290.798L291.853 291.042C291.853 291.042 290.509 288.802 290.202 282.985C290.675 282.34 291.218 281.75 291.821 281.226C295.098 278.157 301.261 277.04 302.195 271.924C302.419 270.691 301.754 269.253 300.358 269.523C299.36 269.715 298.438 270.762 297.901 271.577C296.166 274.305 294.957 277.047 292.512 279.281C292.403 279.384 290.886 281.001 290.163 281.977C290.163 281.168 290.131 280.302 290.163 279.371C290.65 278.106 291.236 276.883 291.917 275.711C293.734 272.617 296.877 270.498 298.899 267.507C299.539 266.589 300.064 263.545 297.92 264.598C296.966 265.067 296 266.755 295.36 267.564C293.44 269.869 291.52 272.347 290.419 275.185C290.419 274.915 290.47 274.646 290.49 274.376C291.679 271.653 293.083 269.03 294.688 266.531C297.35 262.416 300.275 259.546 300.038 257.543C299.802 255.54 296.198 259.469 293.338 264.605C292.058 266.933 291.171 269.459 290.714 272.078C290.976 269.394 291.277 266.685 291.584 264.078C292.117 261.394 293.26 258.87 294.925 256.702C297.664 253.408 299.885 250.699 299.917 247.797C299.949 244.895 298.79 245.98 296.595 250.558C295.091 253.697 292.96 257.812 291.962 261.003C292.224 258.955 292.48 257.016 292.723 255.27C293.242 253.723 294.643 249.794 296.563 247.04C298.982 243.534 299.917 241.371 298.349 241.429C297.261 241.467 294.739 246.115 293.382 250.558C293.6 249.075 293.779 247.945 293.894 247.277C293.946 246.978 293.99 246.65 294.029 246.295C295.637 243.126 297.044 239.858 298.24 236.511C300.365 230.649 300.55 225.385 298.938 227.876Z" fill="white"/>
</g>
<path d="M26.2184 252.506C26.5192 254.522 30.8008 261.244 32.324 264.98C31.9592 264.46 31.5368 263.908 31.108 263.369C30.7816 262.727 30.5 262.053 30.1672 261.513C29.6616 260.685 29.124 259.876 28.5416 259.099C27.6413 257.868 26.5994 256.748 25.4376 255.761C24.1026 254.578 22.452 253.813 20.6888 253.559C20.2344 253.508 17.4888 253.193 18.084 254.317C18.1914 254.493 18.3439 254.637 18.5256 254.734C20.164 255.832 21.988 256.454 23.7288 257.36C26.3272 258.669 29.6872 262.136 31.0952 263.606L31.7928 264.614C29.2904 262.078 25.092 260.531 23.6072 261.141C21.7768 261.899 25.6168 262.894 28.868 263.876C30.3258 264.263 31.6664 265.004 32.772 266.033C33.3736 266.906 34.052 267.901 34.692 268.909C34.7688 269.063 34.852 269.211 34.9352 269.359C34.455 268.75 33.905 268.201 33.2968 267.722C31.6584 266.502 27.0568 265.622 26.5064 267.163C25.956 268.704 29.2712 268.12 32.0744 268.678C33.592 269.022 34.9681 269.824 36.0168 270.976C36.0744 271.053 36.132 271.118 36.196 271.188C36.4968 271.651 36.7848 272.106 37.0536 272.537C37.6936 273.551 38.2888 274.501 38.884 275.419C37.9823 274.141 36.9049 272.998 35.684 272.023C33.284 270.232 30.0008 269.744 28.772 270.611C27.5432 271.477 33.0344 272.537 35.716 273.577C37.2581 274.229 38.6085 275.265 39.6392 276.588C40.4776 277.872 41.316 279.156 42.1992 280.491C40.7361 279.081 39.1608 277.792 37.4888 276.639C34.7752 274.713 31.8824 274.835 31.0888 275.926C30.2952 277.018 32.6312 277.165 36.9704 278.276C39.2565 278.859 41.3505 280.032 43.044 281.679C43.4216 282.237 43.8184 282.809 44.2344 283.406C44.7333 284.115 45.2673 284.798 45.8344 285.454C45.1048 285.094 44.036 284.568 42.8392 284.003C41.5069 283.389 40.2231 282.674 38.9992 281.865C37.5848 280.908 35.6904 279.881 33.9432 280.581C33.8112 280.614 33.6878 280.675 33.5816 280.76C33.4754 280.845 33.3889 280.953 33.3281 281.075C33.2673 281.197 33.2335 281.331 33.2292 281.467C33.225 281.603 33.2502 281.739 33.3032 281.865C33.4859 282.243 33.7903 282.548 34.1672 282.731C36.0232 283.855 38.3784 284.221 40.452 284.767C42.3453 285.269 44.2694 285.647 46.212 285.897C46.7624 286.539 47.332 287.129 47.8952 287.707L47.012 287.842C45.9624 287.996 40.9704 286.397 38.4808 285.98C35.9912 285.563 33.892 287.148 36.5608 288.214C39.2296 289.28 46.0712 288.169 46.0712 288.169L48.0488 287.88C50.2888 290.166 52.3752 291.931 52.3752 291.931L53.3032 291.354C53.3032 291.354 51.4536 290.763 48.4136 287.656C48.364 287.061 48.379 286.462 48.4584 285.871C48.7848 282.526 51.6584 278.847 49.6936 275.522C49.2136 274.719 48.132 274.238 47.4792 275.085C47.0746 275.804 46.945 276.646 47.1144 277.454C47.4856 279.842 48.1576 281.948 47.8888 284.433C47.8888 284.548 47.8248 286.205 47.8888 287.104C47.4792 286.667 47.0504 286.185 46.6088 285.653C46.26 284.702 45.9861 283.725 45.7896 282.731C45.2904 280.099 46.0072 277.352 45.668 274.681C45.5592 273.859 44.388 271.882 43.684 273.532C43.3832 274.263 43.684 275.689 43.684 276.478C43.6382 278.754 43.9713 281.022 44.6696 283.187C44.548 283.027 44.4264 282.866 44.3112 282.699C43.6465 280.596 43.15 278.443 42.8264 276.26C42.2952 272.639 42.5256 269.583 41.4056 268.556C40.2856 267.529 40.196 271.567 41.1112 275.811C41.5423 277.751 42.2882 279.608 43.3192 281.306C42.148 279.669 40.9832 278.006 39.876 276.389C38.8551 274.624 38.2529 272.646 38.116 270.611C38.0328 267.401 37.9368 264.794 36.5288 263.15C35.1208 261.507 35.0056 262.688 36.0296 266.36C36.7336 268.864 37.5592 272.222 38.5896 274.507C37.732 273.223 36.9192 272.016 36.196 270.919C35.2842 268.834 34.639 266.643 34.276 264.396C33.9112 261.237 33.3736 259.562 32.516 260.371C31.9272 260.929 32.804 264.781 34.2312 267.946C33.5912 267.002 33.1624 266.283 32.9 265.853C32.7806 265.661 32.6462 265.447 32.4968 265.211C31.8527 262.64 31.049 260.112 30.0904 257.642C28.4072 253.321 25.8984 250.278 26.2184 252.506Z" fill="#06BCC1"/>
<path opacity="0.6" d="M26.2184 252.506C26.5192 254.522 30.8008 261.244 32.324 264.98C31.9592 264.46 31.5368 263.908 31.108 263.369C30.7816 262.727 30.5 262.053 30.1672 261.513C29.6616 260.685 29.124 259.876 28.5416 259.099C27.6413 257.868 26.5994 256.748 25.4376 255.761C24.1026 254.578 22.452 253.813 20.6888 253.559C20.2344 253.508 17.4888 253.193 18.084 254.317C18.1914 254.493 18.3439 254.637 18.5256 254.734C20.164 255.832 21.988 256.454 23.7288 257.36C26.3272 258.669 29.6872 262.136 31.0952 263.606L31.7928 264.614C29.2904 262.078 25.092 260.531 23.6072 261.141C21.7768 261.899 25.6168 262.894 28.868 263.876C30.3258 264.263 31.6664 265.004 32.772 266.033C33.3736 266.906 34.052 267.901 34.692 268.909C34.7688 269.063 34.852 269.211 34.9352 269.359C34.455 268.75 33.905 268.201 33.2968 267.722C31.6584 266.502 27.0568 265.622 26.5064 267.163C25.956 268.704 29.2712 268.12 32.0744 268.678C33.592 269.022 34.9681 269.824 36.0168 270.976C36.0744 271.053 36.132 271.118 36.196 271.188C36.4968 271.651 36.7848 272.106 37.0536 272.537C37.6936 273.551 38.2888 274.501 38.884 275.419C37.9823 274.141 36.9049 272.998 35.684 272.023C33.284 270.232 30.0008 269.744 28.772 270.611C27.5432 271.477 33.0344 272.537 35.716 273.577C37.2581 274.229 38.6085 275.265 39.6392 276.588C40.4776 277.872 41.316 279.156 42.1992 280.491C40.7361 279.081 39.1608 277.792 37.4888 276.639C34.7752 274.713 31.8824 274.835 31.0888 275.926C30.2952 277.018 32.6312 277.165 36.9704 278.276C39.2565 278.859 41.3505 280.032 43.044 281.679C43.4216 282.237 43.8184 282.809 44.2344 283.406C44.7333 284.115 45.2673 284.798 45.8344 285.454C45.1048 285.094 44.036 284.568 42.8392 284.003C41.5069 283.389 40.2231 282.674 38.9992 281.865C37.5848 280.908 35.6904 279.881 33.9432 280.581C33.8112 280.614 33.6878 280.675 33.5816 280.76C33.4754 280.845 33.3889 280.953 33.3281 281.075C33.2673 281.197 33.2335 281.331 33.2292 281.467C33.225 281.603 33.2502 281.739 33.3032 281.865C33.4859 282.243 33.7903 282.548 34.1672 282.731C36.0232 283.855 38.3784 284.221 40.452 284.767C42.3453 285.269 44.2694 285.647 46.212 285.897C46.7624 286.539 47.332 287.129 47.8952 287.707L47.012 287.842C45.9624 287.996 40.9704 286.397 38.4808 285.98C35.9912 285.563 33.892 287.148 36.5608 288.214C39.2296 289.28 46.0712 288.169 46.0712 288.169L48.0488 287.88C50.2888 290.166 52.3752 291.931 52.3752 291.931L53.3032 291.354C53.3032 291.354 51.4536 290.763 48.4136 287.656C48.364 287.061 48.379 286.462 48.4584 285.871C48.7848 282.526 51.6584 278.847 49.6936 275.522C49.2136 274.719 48.132 274.238 47.4792 275.085C47.0746 275.804 46.945 276.646 47.1144 277.454C47.4856 279.842 48.1576 281.948 47.8888 284.433C47.8888 284.548 47.8248 286.205 47.8888 287.104C47.4792 286.667 47.0504 286.185 46.6088 285.653C46.26 284.702 45.9861 283.725 45.7896 282.731C45.2904 280.099 46.0072 277.352 45.668 274.681C45.5592 273.859 44.388 271.882 43.684 273.532C43.3832 274.263 43.684 275.689 43.684 276.478C43.6382 278.754 43.9713 281.022 44.6696 283.187C44.548 283.027 44.4264 282.866 44.3112 282.699C43.6465 280.596 43.15 278.443 42.8264 276.26C42.2952 272.639 42.5256 269.583 41.4056 268.556C40.2856 267.529 40.196 271.567 41.1112 275.811C41.5423 277.751 42.2882 279.608 43.3192 281.306C42.148 279.669 40.9832 278.006 39.876 276.389C38.8551 274.624 38.2529 272.646 38.116 270.611C38.0328 267.401 37.9368 264.794 36.5288 263.15C35.1208 261.507 35.0056 262.688 36.0296 266.36C36.7336 268.864 37.5592 272.222 38.5896 274.507C37.732 273.223 36.9192 272.016 36.196 270.919C35.2842 268.834 34.639 266.643 34.276 264.396C33.9112 261.237 33.3736 259.562 32.516 260.371C31.9272 260.929 32.804 264.781 34.2312 267.946C33.5912 267.002 33.1624 266.283 32.9 265.853C32.7806 265.661 32.6462 265.447 32.4968 265.211C31.8527 262.64 31.049 260.112 30.0904 257.642C28.4072 253.321 25.8984 250.278 26.2184 252.506Z" fill="white"/>
<path d="M72.5672 250.914C70.8584 252.018 66.5256 258.701 63.7608 261.641C64.0808 261.089 64.4008 260.473 64.7208 259.863C65.1496 259.304 65.6616 258.765 66.0008 258.239C66.5448 257.43 67.0568 256.602 67.524 255.748C68.2684 254.42 68.8549 253.008 69.2712 251.543C69.7988 249.834 69.8121 248.007 69.3096 246.291C69.1752 245.855 68.324 243.216 67.5496 244.23C67.4349 244.4 67.3665 244.597 67.3512 244.802C67.0248 246.728 67.2168 248.654 67.1144 250.637C66.9672 253.565 65.2328 258.059 64.452 259.959C64.2856 260.242 64.0744 260.601 63.812 261.012C65.092 257.68 64.7528 253.205 63.588 252.101C62.1416 250.74 62.8264 254.669 63.2808 258.033C63.5244 259.527 63.4036 261.058 62.9288 262.495C62.3784 263.4 61.7576 264.421 61.124 265.455L60.8104 265.866C61.1878 265.178 61.4822 264.447 61.6872 263.689C62.116 261.693 61.0472 257.128 59.3896 257.269C57.732 257.411 59.6648 260.184 60.3112 262.977C60.6306 264.505 60.4696 266.096 59.8504 267.529L59.7352 267.779C59.4344 268.248 59.1464 268.697 58.8648 269.121C58.2248 270.122 57.5848 271.047 56.996 271.978C57.7891 270.628 58.3841 269.171 58.7624 267.65C59.4024 264.717 58.4872 261.519 57.1944 260.749C55.9016 259.979 57.1944 265.429 57.3672 268.318C57.4112 269.997 57.0256 271.659 56.2472 273.146C55.4152 274.43 54.6088 275.714 53.7704 277.114C54.4334 275.193 54.9406 273.222 55.2872 271.22C55.9272 267.946 54.6088 265.352 53.2776 265.063C51.9464 264.774 52.7912 266.989 53.572 271.406C53.9867 273.735 53.786 276.132 52.9896 278.359C52.6376 278.937 52.2856 279.534 51.9144 280.157C51.5432 280.779 51.0952 281.653 50.7112 282.474C50.7112 281.653 50.7752 280.458 50.7944 279.136C50.8025 277.663 50.9201 276.193 51.1464 274.738C51.4344 273.056 51.588 270.886 50.2312 269.602C50.1436 269.496 50.0336 269.41 49.9091 269.351C49.7846 269.293 49.6488 269.262 49.5112 269.262C49.3737 269.262 49.2378 269.293 49.1134 269.351C48.9889 269.41 48.8789 269.496 48.7912 269.602C48.5406 269.907 48.3967 270.286 48.3816 270.681C48.1256 272.844 48.7656 275.175 49.1176 277.268C49.4471 279.221 49.9024 281.151 50.4808 283.046C50.1416 283.797 49.8408 284.574 49.5272 285.325L49.0408 284.574C48.4712 283.681 47.8632 278.455 47.2104 276.009C46.5576 273.563 44.2536 272.299 44.3944 275.188C44.5352 278.077 48.3624 283.867 48.3624 283.867L49.444 285.549C48.292 288.535 47.524 291.173 47.524 291.173L48.4264 291.783C48.4264 291.783 48.2024 289.857 49.7704 285.793C50.2974 285.473 50.8603 285.217 51.4472 285.029C54.6472 283.951 59.1272 285.081 61.3544 281.89C61.8856 281.12 61.8728 279.964 60.8424 279.688C60.0219 279.611 59.202 279.84 58.5384 280.33C56.5224 281.653 54.8648 283.148 52.516 283.912C52.4072 283.951 50.884 284.586 50.0904 285.023C50.3208 284.471 50.5832 283.874 50.884 283.251C51.5995 282.546 52.3723 281.902 53.1944 281.325C55.3768 279.778 58.1672 279.303 60.4584 277.884C61.156 277.454 62.4616 275.547 60.6824 275.605C59.8888 275.605 58.7176 276.484 58.0136 276.831C55.927 277.727 54.004 278.966 52.324 280.497C52.42 280.324 52.516 280.144 52.6184 279.97C54.25 278.472 55.9985 277.106 57.8472 275.887C60.9192 273.91 63.7864 272.857 64.2472 271.393C64.708 269.93 61.0472 271.528 57.54 274.122C55.9545 275.313 54.5769 276.76 53.4632 278.404C54.4616 276.658 55.4984 274.905 56.5032 273.229C57.6937 271.572 59.2485 270.213 61.0472 269.255C63.9272 267.856 66.2632 266.687 67.172 264.761C68.0808 262.835 66.9608 263.182 64.068 265.622C62.084 267.297 59.3768 269.435 57.7192 271.303C58.5256 270.019 59.2936 268.735 59.9912 267.638C61.5048 265.952 63.2252 264.466 65.1112 263.214C67.8312 261.577 69.1304 260.389 68.0424 259.946C67.2872 259.638 64.1512 262.027 61.8664 264.633L63.2168 262.559C63.3448 262.367 63.4792 262.155 63.6136 261.917C65.6746 260.268 67.6305 258.49 69.4696 256.595C72.7016 253.238 74.436 249.713 72.5672 250.914Z" fill="#06BCC1"/>
<path opacity="0.6" d="M72.5672 250.914C70.8584 252.018 66.5256 258.701 63.7608 261.641C64.0808 261.089 64.4008 260.473 64.7208 259.863C65.1496 259.304 65.6616 258.765 66.0008 258.239C66.5448 257.43 67.0568 256.602 67.524 255.748C68.2684 254.42 68.8549 253.008 69.2712 251.543C69.7988 249.834 69.8121 248.007 69.3096 246.291C69.1752 245.855 68.324 243.216 67.5496 244.23C67.4349 244.4 67.3665 244.597 67.3512 244.802C67.0248 246.728 67.2168 248.654 67.1144 250.637C66.9672 253.565 65.2328 258.059 64.452 259.959C64.2856 260.242 64.0744 260.601 63.812 261.012C65.092 257.68 64.7528 253.205 63.588 252.101C62.1416 250.74 62.8264 254.669 63.2808 258.033C63.5244 259.527 63.4036 261.058 62.9288 262.495C62.3784 263.4 61.7576 264.421 61.124 265.455L60.8104 265.866C61.1878 265.178 61.4822 264.447 61.6872 263.689C62.116 261.693 61.0472 257.128 59.3896 257.269C57.732 257.411 59.6648 260.184 60.3112 262.977C60.6306 264.505 60.4696 266.096 59.8504 267.529L59.7352 267.779C59.4344 268.248 59.1464 268.697 58.8648 269.121C58.2248 270.122 57.5848 271.047 56.996 271.978C57.7891 270.628 58.3841 269.171 58.7624 267.65C59.4024 264.717 58.4872 261.519 57.1944 260.749C55.9016 259.979 57.1944 265.429 57.3672 268.318C57.4112 269.997 57.0256 271.659 56.2472 273.146C55.4152 274.43 54.6088 275.714 53.7704 277.114C54.4334 275.193 54.9406 273.222 55.2872 271.22C55.9272 267.946 54.6088 265.352 53.2776 265.063C51.9464 264.774 52.7912 266.989 53.572 271.406C53.9867 273.735 53.786 276.132 52.9896 278.359C52.6376 278.937 52.2856 279.534 51.9144 280.157C51.5432 280.779 51.0952 281.653 50.7112 282.474C50.7112 281.653 50.7752 280.458 50.7944 279.136C50.8025 277.663 50.9201 276.193 51.1464 274.738C51.4344 273.056 51.588 270.886 50.2312 269.602C50.1436 269.496 50.0336 269.41 49.9091 269.351C49.7846 269.293 49.6488 269.262 49.5112 269.262C49.3737 269.262 49.2378 269.293 49.1134 269.351C48.9889 269.41 48.8789 269.496 48.7912 269.602C48.5406 269.907 48.3967 270.286 48.3816 270.681C48.1256 272.844 48.7656 275.175 49.1176 277.268C49.4471 279.221 49.9024 281.151 50.4808 283.046C50.1416 283.797 49.8408 284.574 49.5272 285.325L49.0408 284.574C48.4712 283.681 47.8632 278.455 47.2104 276.009C46.5576 273.563 44.2536 272.299 44.3944 275.188C44.5352 278.077 48.3624 283.867 48.3624 283.867L49.444 285.549C48.292 288.535 47.524 291.173 47.524 291.173L48.4264 291.783C48.4264 291.783 48.2024 289.857 49.7704 285.793C50.2974 285.473 50.8603 285.217 51.4472 285.029C54.6472 283.951 59.1272 285.081 61.3544 281.89C61.8856 281.12 61.8728 279.964 60.8424 279.688C60.0219 279.611 59.202 279.84 58.5384 280.33C56.5224 281.653 54.8648 283.148 52.516 283.912C52.4072 283.951 50.884 284.586 50.0904 285.023C50.3208 284.471 50.5832 283.874 50.884 283.251C51.5995 282.546 52.3723 281.902 53.1944 281.325C55.3768 279.778 58.1672 279.303 60.4584 277.884C61.156 277.454 62.4616 275.547 60.6824 275.605C59.8888 275.605 58.7176 276.484 58.0136 276.831C55.927 277.727 54.004 278.966 52.324 280.497C52.42 280.324 52.516 280.144 52.6184 279.97C54.25 278.472 55.9985 277.106 57.8472 275.887C60.9192 273.91 63.7864 272.857 64.2472 271.393C64.708 269.93 61.0472 271.528 57.54 274.122C55.9545 275.313 54.5769 276.76 53.4632 278.404C54.4616 276.658 55.4984 274.905 56.5032 273.229C57.6937 271.572 59.2485 270.213 61.0472 269.255C63.9272 267.856 66.2632 266.687 67.172 264.761C68.0808 262.835 66.9608 263.182 64.068 265.622C62.084 267.297 59.3768 269.435 57.7192 271.303C58.5256 270.019 59.2936 268.735 59.9912 267.638C61.5048 265.952 63.2252 264.466 65.1112 263.214C67.8312 261.577 69.1304 260.389 68.0424 259.946C67.2872 259.638 64.1512 262.027 61.8664 264.633L63.2168 262.559C63.3448 262.367 63.4792 262.155 63.6136 261.917C65.6746 260.268 67.6305 258.49 69.4696 256.595C72.7016 253.238 74.436 249.713 72.5672 250.914Z" fill="white"/>
<path d="M91.3321 251.087C89.6169 252.198 85.2841 258.881 82.5193 261.815C82.8393 261.269 83.1593 260.653 83.4793 260.037C83.9081 259.485 84.4201 258.939 84.7593 258.419C85.3033 257.61 85.8153 256.782 86.2825 255.928C87.0258 254.599 87.6121 253.188 88.0297 251.723C88.5563 250.014 88.5719 248.188 88.0745 246.471C87.9337 246.035 87.0825 243.396 86.3081 244.404C86.1941 244.577 86.1258 244.775 86.1097 244.982C85.7897 246.908 85.9753 248.834 85.8729 250.811C85.7257 253.745 83.9913 258.239 83.2105 260.139C83.0441 260.422 82.8329 260.781 82.5705 261.192C83.8505 257.854 83.5177 253.379 82.3465 252.281C80.9001 250.92 81.5849 254.849 82.0393 258.213C82.2867 259.705 82.1658 261.235 81.6873 262.669C81.1369 263.581 80.5161 264.595 79.8825 265.635C79.7737 265.77 79.6713 265.911 79.5689 266.046C79.9241 265.355 80.197 264.624 80.3817 263.869C80.8169 261.873 79.7417 257.308 78.0841 257.449C76.4265 257.591 78.3593 260.364 79.0057 263.157C79.3258 264.683 79.1648 266.272 78.5449 267.702L78.4297 267.959C78.1289 268.421 77.8409 268.877 77.5593 269.301C76.9193 270.296 76.2793 271.227 75.6905 272.158C76.4847 270.806 77.0797 269.347 77.4569 267.824C78.0969 264.897 77.1817 261.699 75.8889 260.929C74.5961 260.159 75.9209 265.609 76.0617 268.498C76.1056 270.177 75.72 271.839 74.9417 273.326C74.1097 274.61 73.3033 275.894 72.4649 277.294C73.1354 275.376 73.6512 273.407 74.0073 271.407C74.6473 268.132 73.3289 265.539 71.9977 265.25C70.6665 264.961 71.5113 267.176 72.2985 271.593C72.7078 273.922 72.5049 276.319 71.7097 278.546C71.3577 279.123 71.0057 279.72 70.6345 280.343C70.2633 280.966 69.8153 281.839 69.4313 282.654C69.4313 281.839 69.4953 280.645 69.5145 279.316C69.5228 277.845 69.6404 276.378 69.8665 274.925C70.1545 273.243 70.3081 271.073 68.9513 269.789C68.8636 269.682 68.7536 269.597 68.6291 269.538C68.5047 269.479 68.3688 269.449 68.2313 269.449C68.0937 269.449 67.9578 269.479 67.8334 269.538C67.7089 269.597 67.5989 269.682 67.5113 269.789C67.2607 270.094 67.1168 270.472 67.1017 270.867C66.8457 273.024 67.4857 275.361 67.8377 277.454C68.1674 279.395 68.6228 281.312 69.2009 283.194C68.8617 283.951 68.5609 284.722 68.2473 285.479L67.7609 284.722C67.1913 283.829 66.5833 278.61 65.9305 276.164C65.2777 273.718 62.9737 272.453 63.1145 275.342C63.2553 278.231 67.0825 284.015 67.0825 284.015L68.1641 285.697C67.0121 288.689 66.2441 291.328 66.2441 291.328L67.1465 291.938C67.1465 291.938 66.9225 290.012 68.4905 285.948C69.0089 285.652 69.5584 285.416 70.1289 285.242C73.3289 284.163 77.8089 285.299 80.0361 282.109C80.5673 281.332 80.5545 280.151 79.5241 279.907C78.7033 279.827 77.8822 280.056 77.2201 280.549C75.2041 281.871 73.5465 283.367 71.1977 284.131C71.0889 284.163 69.5657 284.805 68.7721 285.242C69.0025 284.683 69.2649 284.092 69.5657 283.463C70.2826 282.76 71.0553 282.116 71.8761 281.537C74.0649 279.99 76.8489 279.515 79.1401 278.096C79.8441 277.666 81.1433 275.759 79.3641 275.811C78.5705 275.811 77.3993 276.697 76.6953 277.037C74.6096 277.937 72.6871 279.178 71.0057 280.709L71.3001 280.176C72.9416 278.688 74.6986 277.334 76.5545 276.125C79.6265 274.141 82.4937 273.095 82.9545 271.631C83.4153 270.167 79.7545 271.766 76.2473 274.36C74.6617 275.551 73.2841 276.998 72.1705 278.642C73.1689 276.896 74.2057 275.143 75.2105 273.461C76.3949 271.801 77.9428 270.435 79.7353 269.468C82.6153 268.068 84.9513 266.9 85.8601 264.942C86.7689 262.983 85.6489 263.356 82.7561 265.802C80.7721 267.471 78.0649 269.615 76.4073 271.484C77.2137 270.167 77.9817 268.916 78.6793 267.811C80.195 266.13 81.9151 264.646 83.7993 263.394C86.5193 261.751 87.8185 260.57 86.7305 260.127C85.9753 259.818 82.8393 262.207 80.5545 264.813C81.1945 263.869 81.6297 263.157 81.9049 262.74C82.0329 262.547 82.1673 262.335 82.3017 262.098C84.3641 260.45 86.322 258.674 88.1641 256.782C91.4537 253.418 93.1881 249.893 91.3321 251.087Z" fill="#06BCC1"/>
<path opacity="0.6" d="M91.3321 251.087C89.6169 252.198 85.2841 258.881 82.5193 261.815C82.8393 261.269 83.1593 260.653 83.4793 260.037C83.9081 259.485 84.4201 258.939 84.7593 258.419C85.3033 257.61 85.8153 256.782 86.2825 255.928C87.0258 254.599 87.6121 253.188 88.0297 251.723C88.5563 250.014 88.5719 248.188 88.0745 246.471C87.9337 246.035 87.0825 243.396 86.3081 244.404C86.1941 244.577 86.1258 244.775 86.1097 244.982C85.7897 246.908 85.9753 248.834 85.8729 250.811C85.7257 253.745 83.9913 258.239 83.2105 260.139C83.0441 260.422 82.8329 260.781 82.5705 261.192C83.8505 257.854 83.5177 253.379 82.3465 252.281C80.9001 250.92 81.5849 254.849 82.0393 258.213C82.2867 259.705 82.1658 261.235 81.6873 262.669C81.1369 263.581 80.5161 264.595 79.8825 265.635C79.7737 265.77 79.6713 265.911 79.5689 266.046C79.9241 265.355 80.197 264.624 80.3817 263.869C80.8169 261.873 79.7417 257.308 78.0841 257.449C76.4265 257.591 78.3593 260.364 79.0057 263.157C79.3258 264.683 79.1648 266.272 78.5449 267.702L78.4297 267.959C78.1289 268.421 77.8409 268.877 77.5593 269.301C76.9193 270.296 76.2793 271.227 75.6905 272.158C76.4847 270.806 77.0797 269.347 77.4569 267.824C78.0969 264.897 77.1817 261.699 75.8889 260.929C74.5961 260.159 75.9209 265.609 76.0617 268.498C76.1056 270.177 75.72 271.839 74.9417 273.326C74.1097 274.61 73.3033 275.894 72.4649 277.294C73.1354 275.376 73.6512 273.407 74.0073 271.407C74.6473 268.132 73.3289 265.539 71.9977 265.25C70.6665 264.961 71.5113 267.176 72.2985 271.593C72.7078 273.922 72.5049 276.319 71.7097 278.546C71.3577 279.123 71.0057 279.72 70.6345 280.343C70.2633 280.966 69.8153 281.839 69.4313 282.654C69.4313 281.839 69.4953 280.645 69.5145 279.316C69.5228 277.845 69.6404 276.378 69.8665 274.925C70.1545 273.243 70.3081 271.073 68.9513 269.789C68.8636 269.682 68.7536 269.597 68.6291 269.538C68.5047 269.479 68.3688 269.449 68.2313 269.449C68.0937 269.449 67.9578 269.479 67.8334 269.538C67.7089 269.597 67.5989 269.682 67.5113 269.789C67.2607 270.094 67.1168 270.472 67.1017 270.867C66.8457 273.024 67.4857 275.361 67.8377 277.454C68.1674 279.395 68.6228 281.312 69.2009 283.194C68.8617 283.951 68.5609 284.722 68.2473 285.479L67.7609 284.722C67.1913 283.829 66.5833 278.61 65.9305 276.164C65.2777 273.718 62.9737 272.453 63.1145 275.342C63.2553 278.231 67.0825 284.015 67.0825 284.015L68.1641 285.697C67.0121 288.689 66.2441 291.328 66.2441 291.328L67.1465 291.938C67.1465 291.938 66.9225 290.012 68.4905 285.948C69.0089 285.652 69.5584 285.416 70.1289 285.242C73.3289 284.163 77.8089 285.299 80.0361 282.109C80.5673 281.332 80.5545 280.151 79.5241 279.907C78.7033 279.827 77.8822 280.056 77.2201 280.549C75.2041 281.871 73.5465 283.367 71.1977 284.131C71.0889 284.163 69.5657 284.805 68.7721 285.242C69.0025 284.683 69.2649 284.092 69.5657 283.463C70.2826 282.76 71.0553 282.116 71.8761 281.537C74.0649 279.99 76.8489 279.515 79.1401 278.096C79.8441 277.666 81.1433 275.759 79.3641 275.811C78.5705 275.811 77.3993 276.697 76.6953 277.037C74.6096 277.937 72.6871 279.178 71.0057 280.709L71.3001 280.176C72.9416 278.688 74.6986 277.334 76.5545 276.125C79.6265 274.141 82.4937 273.095 82.9545 271.631C83.4153 270.167 79.7545 271.766 76.2473 274.36C74.6617 275.551 73.2841 276.998 72.1705 278.642C73.1689 276.896 74.2057 275.143 75.2105 273.461C76.3949 271.801 77.9428 270.435 79.7353 269.468C82.6153 268.068 84.9513 266.9 85.8601 264.942C86.7689 262.983 85.6489 263.356 82.7561 265.802C80.7721 267.471 78.0649 269.615 76.4073 271.484C77.2137 270.167 77.9817 268.916 78.6793 267.811C80.195 266.13 81.9151 264.646 83.7993 263.394C86.5193 261.751 87.8185 260.57 86.7305 260.127C85.9753 259.818 82.8393 262.207 80.5545 264.813C81.1945 263.869 81.6297 263.157 81.9049 262.74C82.0329 262.547 82.1673 262.335 82.3017 262.098C84.3641 260.45 86.322 258.674 88.1641 256.782C91.4537 253.418 93.1881 249.893 91.3321 251.087Z" fill="white"/>
<path d="M290.208 79.2163C290.208 79.2163 287.757 72.1543 280.704 71.8397C273.651 71.5251 274.88 78.2982 269.978 80.1408C265.075 81.9833 263.232 76.7574 258.938 77.9901C254.643 79.2227 257.408 82.5996 253.728 83.8323C250.048 85.0649 250.355 81.6816 244.838 84.4743C239.322 87.267 238.093 88.1658 236.864 88.4739C235.635 88.7821 224.602 90.6246 224.602 90.6246H300.941C300.941 90.6246 303.091 83.8579 298.797 81.0909C294.502 78.3239 294.81 81.6816 290.208 79.2163Z" fill="#06BCC1"/>
<path opacity="0.7" d="M290.208 79.2163C290.208 79.2163 287.757 72.1543 280.704 71.8397C273.651 71.5251 274.88 78.2982 269.978 80.1408C265.075 81.9833 263.232 76.7574 258.938 77.9901C254.643 79.2227 257.408 82.5996 253.728 83.8323C250.048 85.0649 250.355 81.6816 244.838 84.4743C239.322 87.267 238.093 88.1658 236.864 88.4739C235.635 88.7821 224.602 90.6246 224.602 90.6246H300.941C300.941 90.6246 303.091 83.8579 298.797 81.0909C294.502 78.3239 294.81 81.6816 290.208 79.2163Z" fill="white"/>
<path d="M149.933 67.7885C149.933 67.7885 148.442 63.5 144.173 63.2945C139.904 63.0891 140.646 67.2043 137.67 68.3278C134.694 69.4513 133.581 66.2734 130.976 67.0438C128.371 67.8142 130.048 69.8429 127.821 70.5877C125.594 71.3324 125.773 69.3037 122.426 70.96C119.078 72.6164 118.342 73.2006 117.594 73.3868C116.845 73.573 110.163 74.6708 110.163 74.6708H156.442C156.442 74.6708 157.722 70.5684 155.162 68.8928C152.602 67.2172 152.717 69.278 149.933 67.7885Z" fill="#06BCC1"/>
<path opacity="0.8" d="M149.933 67.7885C149.933 67.7885 148.442 63.5 144.173 63.2945C139.904 63.0891 140.646 67.2043 137.67 68.3278C134.694 69.4513 133.581 66.2734 130.976 67.0438C128.371 67.8142 130.048 69.8429 127.821 70.5877C125.594 71.3324 125.773 69.3037 122.426 70.96C119.078 72.6164 118.342 73.2006 117.594 73.3868C116.845 73.573 110.163 74.6708 110.163 74.6708H156.442C156.442 74.6708 157.722 70.5684 155.162 68.8928C152.602 67.2172 152.717 69.278 149.933 67.7885Z" fill="white"/>
<path d="M72.0832 143.166C72.0832 143.166 70.08 137.388 64.3264 137.144C58.5728 136.9 59.5648 142.414 55.5648 143.923C51.5648 145.432 50.0544 141.156 46.5536 142.164C43.0528 143.172 45.2736 145.926 42.2976 146.934C39.3216 147.942 39.5456 145.175 35.04 147.435C30.5344 149.695 29.536 150.446 28.5312 150.703C27.5264 150.959 18.5216 152.455 18.5216 152.455H80.8448C80.8448 152.455 82.592 146.934 79.0912 144.674C75.5904 142.414 75.8336 145.188 72.0832 143.166Z" fill="#06BCC1"/>
<g opacity="0.7">
<path d="M72.0832 143.166C72.0832 143.166 70.08 137.388 64.3264 137.144C58.5728 136.9 59.5648 142.414 55.5648 143.923C51.5648 145.432 50.0544 141.156 46.5536 142.164C43.0528 143.172 45.2736 145.926 42.2976 146.934C39.3216 147.942 39.5456 145.175 35.04 147.435C30.5344 149.695 29.536 150.446 28.5312 150.703C27.5264 150.959 18.5216 152.455 18.5216 152.455H80.8448C80.8448 152.455 82.592 146.934 79.0912 144.674C75.5904 142.414 75.8336 145.188 72.0832 143.166Z" fill="white"/>
</g>
<mask id="mask0_659_11183" style="mask-type:luminance" maskUnits="userSpaceOnUse" x="155" y="117" width="15" height="58">
<path d="M156.333 127.661C156.333 127.661 160.224 159.858 160.224 161.289C160.224 162.721 156.659 163.434 156.659 165.218C156.559 166.682 156.26 168.125 155.77 169.507C155.77 169.507 155.059 170.226 155.059 170.791C155.059 171.356 156.307 171.15 157.376 170.618C158.445 170.085 158.797 168.114 158.797 168.114C158.552 169.295 158.375 170.489 158.266 171.69L157.555 172.402C157.555 172.402 155.418 174.367 156.838 174.547C158.259 174.726 164.858 172.223 165.216 170.618C165.574 169.013 164.32 161.321 164.32 161.321C164.32 161.321 169.491 125.042 169.491 121.646C169.516 120.697 169.258 119.762 168.749 118.961C168.24 118.16 167.505 117.53 166.637 117.152" fill="white"/>
</mask>
<g mask="url(#mask0_659_11183)">
<g style="mix-blend-mode:multiply" opacity="0.3">
<path d="M169.466 126.166C168.717 123.309 167.904 118.122 167.904 118.122L164.512 117.088L160.032 122.487L163.571 120.304V163.145C163.571 165.328 160.851 173.783 160.851 173.783C160.851 173.783 166.477 172.595 165.568 167.459C164.659 162.323 163.571 163.145 165.203 152.777C166.835 142.408 170.24 129.042 169.466 126.166Z" fill="#06BCC1"/>
</g>
</g>
<mask id="mask1_659_11183" style="mask-type:luminance" maskUnits="userSpaceOnUse" x="100" y="63" width="178" height="237">
<path d="M101.308 129.408L102.928 130.035L126.037 134.279C126.037 134.279 129.805 136.271 131.131 138.393C132.456 140.516 131.26 148.257 131.26 148.257L128.844 166.47L132.716 199.122L125.959 204.21L126.219 207.437C126.401 207.489 126.176 211.743 116.154 213.526C116.154 213.526 114.075 214.569 113.469 214.108C111.936 212.952 113.166 213.047 113.166 213.047L109.112 215.657C109.328 217.709 109.109 219.784 108.471 221.745C107.414 225.224 106.687 225.903 106.687 225.903L108.532 258.268L112.975 264.626L171.009 300H278V63H100V128.913L101.308 129.408Z" fill="white"/>
</mask>
<g mask="url(#mask1_659_11183)">
<path d="M168.032 101.083L163.328 103.805L160.672 99.1502L165.37 96.4346L168.032 101.083Z" stroke="#263238" stroke-width="0.835087" stroke-linecap="round" stroke-linejoin="round"/>
<path d="M166.445 95.7862L159.04 100.075L154.63 91.8828L162.035 87.5942L166.445 95.7862Z" stroke="#263238" stroke-width="0.835087" stroke-linecap="round" stroke-linejoin="round"/>
<path d="M237.738 199.871C259.972 177.568 259.972 141.406 237.738 119.102C215.504 96.7986 179.455 96.7986 157.221 119.102C134.986 141.406 134.986 177.568 157.221 199.871C179.455 222.175 215.504 222.175 237.738 199.871Z" fill="white"/>
<path d="M197.978 92.5762C184.978 92.5724 172.27 96.4357 161.459 103.678C150.649 110.919 142.222 121.214 137.245 133.261C132.268 145.307 130.964 158.563 133.497 171.353C136.031 184.143 142.289 195.892 151.479 205.114C160.67 214.336 172.38 220.617 185.13 223.162C197.879 225.707 211.094 224.403 223.105 219.414C235.115 214.424 245.38 205.974 252.603 195.132C259.825 184.29 263.68 171.543 263.68 158.503C263.68 141.022 256.758 124.256 244.437 111.893C232.116 99.5294 215.405 92.5813 197.978 92.5762ZM197.978 215.615C186.712 215.615 175.699 212.264 166.332 205.986C156.965 199.708 149.665 190.784 145.353 180.343C141.042 169.903 139.914 158.414 142.112 147.33C144.31 136.247 149.735 126.066 157.701 118.075C165.667 110.084 175.816 104.642 186.865 102.437C197.914 100.233 209.367 101.364 219.775 105.689C230.183 110.013 239.079 117.337 245.338 126.733C251.597 136.13 254.938 147.177 254.938 158.477C254.938 165.981 253.464 173.411 250.602 180.343C247.739 187.276 243.544 193.574 238.254 198.88C232.965 204.186 226.686 208.395 219.775 211.266C212.865 214.138 205.458 215.615 197.978 215.615Z" fill="#263238" stroke="#263238" stroke-width="0.835087" stroke-linecap="round" stroke-linejoin="round"/>
<path d="M238.304 108.774C231.754 103.421 224.21 99.425 216.109 97.019" stroke="white" stroke-width="1.67017" stroke-linecap="round" stroke-linejoin="round"/>
<path d="M210.048 95.5424C207.72 95.0993 205.37 94.7843 203.008 94.5986" stroke="white" stroke-width="1.67017" stroke-linecap="round" stroke-linejoin="round"/>
<path d="M245.914 193.749C253.592 183.231 257.624 170.48 257.393 157.446C257.161 144.412 252.68 131.812 244.634 121.575" stroke="white" stroke-width="0.835087" stroke-linecap="round" stroke-linejoin="round"/>
<path d="M237.606 202.923C239.473 201.251 241.23 199.461 242.867 197.562" stroke="white" stroke-width="0.835087" stroke-linecap="round" stroke-linejoin="round"/>
<path d="M173.818 212.983C183.806 217.433 194.823 219.038 205.661 217.623C216.498 216.207 226.738 211.826 235.258 204.958" stroke="white" stroke-width="0.835087" stroke-linecap="round" stroke-linejoin="round"/>
<path d="M165.338 208.329C167.115 209.498 168.955 210.57 170.848 211.539" stroke="white" stroke-width="0.835087" stroke-linecap="round" stroke-linejoin="round"/>
<path d="M158.963 203.476C160.462 204.784 162.026 206.016 163.648 207.167" stroke="white" stroke-width="0.835087" stroke-linecap="round" stroke-linejoin="round"/>
<path d="M181.542 101.198C171.443 104.116 162.296 109.666 155.032 117.285C147.768 124.904 142.648 134.319 140.193 144.57C137.738 154.82 138.036 165.541 141.057 175.638C144.078 185.735 149.713 194.849 157.389 202.05" stroke="white" stroke-width="0.835087" stroke-linecap="round" stroke-linejoin="round"/>
<path d="M240 116.35C233.048 109.385 224.485 104.254 215.075 101.417C205.666 98.5794 195.702 98.1227 186.074 100.088" stroke="white" stroke-width="0.835087" stroke-linecap="round" stroke-linejoin="round"/>
<path d="M206.496 179.619H189.395V184.267H206.496V179.619Z" fill="#06BCC1"/>
<path d="M202.752 158.503C202.752 157.383 202.36 156.298 201.644 155.438C200.928 154.578 199.934 153.997 198.835 153.797L198.33 122.423H197.619L197.12 153.797C196.032 153.994 195.046 154.563 194.33 155.408C193.614 156.253 193.213 157.321 193.196 158.43C193.179 159.538 193.546 160.619 194.235 161.486C194.924 162.353 195.891 162.953 196.973 163.183L196.794 174.316H199.162L198.982 163.183C200.049 162.952 201.004 162.361 201.69 161.51C202.376 160.659 202.75 159.598 202.752 158.503ZM197.978 161.071C197.471 161.071 196.976 160.921 196.555 160.638C196.134 160.356 195.806 159.955 195.612 159.486C195.419 159.017 195.368 158.5 195.467 158.002C195.566 157.504 195.809 157.047 196.167 156.687C196.525 156.328 196.982 156.084 197.478 155.985C197.975 155.886 198.489 155.936 198.957 156.131C199.425 156.325 199.825 156.654 200.106 157.077C200.387 157.499 200.538 157.995 200.538 158.503C200.538 158.84 200.471 159.174 200.343 159.486C200.214 159.798 200.025 160.081 199.788 160.319C199.55 160.558 199.268 160.747 198.957 160.876C198.647 161.005 198.314 161.071 197.978 161.071Z" fill="#263238"/>
<path d="M197.978 161.142C199.43 161.142 200.608 159.961 200.608 158.503C200.608 157.046 199.43 155.865 197.978 155.865C196.525 155.865 195.347 157.046 195.347 158.503C195.347 159.961 196.525 161.142 197.978 161.142Z" fill="#06BCC1"/>
<path d="M197.978 104.595V114.103" stroke="#263238" stroke-width="3.34035" stroke-linecap="round" stroke-linejoin="round"/>
<path d="M197.978 203.231V212.739" stroke="#263238" stroke-width="3.34035" stroke-linecap="round" stroke-linejoin="round"/>
<path d="M171.027 111.843L175.763 120.073" stroke="#263238" stroke-width="3.34035" stroke-linecap="round" stroke-linejoin="round"/>
<path d="M220.192 197.261L224.928 205.498" stroke="#263238" stroke-width="3.34035" stroke-linecap="round" stroke-linejoin="round"/>
<path d="M151.296 131.629L159.501 136.386" stroke="#263238" stroke-width="3.34035" stroke-linecap="round" stroke-linejoin="round"/>
<path d="M236.448 180.948L244.659 185.705" stroke="#263238" stroke-width="3.34035" stroke-linecap="round" stroke-linejoin="round"/>
<path d="M251.878 158.67H242.4" stroke="#263238" stroke-width="3.34035" stroke-linecap="round" stroke-linejoin="round"/>
<path d="M153.549 158.67H144.07" stroke="#263238" stroke-width="3.34035" stroke-linecap="round" stroke-linejoin="round"/>
<path d="M251.878 158.67H242.4" stroke="#263238" stroke-width="3.34035" stroke-linecap="round" stroke-linejoin="round"/>
<path d="M153.549 158.67H144.07" stroke="#263238" stroke-width="3.34035" stroke-linecap="round" stroke-linejoin="round"/>
<path d="M244.659 131.629L236.448 136.386" stroke="#263238" stroke-width="3.34035" stroke-linecap="round" stroke-linejoin="round"/>
<path d="M159.501 180.948L151.296 185.705" stroke="#263238" stroke-width="3.34035" stroke-linecap="round" stroke-linejoin="round"/>
<path d="M224.928 111.843L220.192 120.073" stroke="#263238" stroke-width="3.34035" stroke-linecap="round" stroke-linejoin="round"/>
<path d="M175.763 197.261L171.027 205.498" stroke="#263238" stroke-width="3.34035" stroke-linecap="round" stroke-linejoin="round"/>
<path d="M200.691 90.5024H195.264V95.3174H200.691V90.5024Z" stroke="#263238" stroke-width="0.835087" stroke-linecap="round" stroke-linejoin="round"/>
<path d="M202.253 77.6367H193.702V90.2263H202.253V77.6367Z" stroke="#263238" stroke-width="0.835087" stroke-linecap="round" stroke-linejoin="round"/>
<path d="M204.032 68.7773H191.654V77.3545H204.032V68.7773Z" fill="#06BCC1"/>
<path d="M204.166 68.7773H191.789V77.3545H204.166V68.7773Z" stroke="#263238" stroke-width="0.835087" stroke-linecap="round" stroke-linejoin="round"/>
<path d="M193.165 74.1121V68.9697" stroke="#263238" stroke-width="0.835087" stroke-linecap="round" stroke-linejoin="round"/>
<path d="M193.165 77.5152V75.3003" stroke="#263238" stroke-width="0.835087" stroke-linecap="round" stroke-linejoin="round"/>
<path d="M194.739 77.5147V68.9697" stroke="#263238" stroke-width="0.835087" stroke-linecap="round" stroke-linejoin="round"/>
<path d="M196.314 71.1076V68.9697" stroke="#263238" stroke-width="0.835087" stroke-linecap="round" stroke-linejoin="round"/>
<path d="M196.314 77.5147V72.1348" stroke="#263238" stroke-width="0.835087" stroke-linecap="round" stroke-linejoin="round"/>
<path d="M198.918 77.5147V68.9697" stroke="#263238" stroke-width="0.835087" stroke-linecap="round" stroke-linejoin="round"/>
</g>
<path d="M91.9923 173.466C91.9923 173.466 90.5559 224.518 89.8291 233.405C89.1022 242.291 86.939 265.68 86.4544 270.015C85.9698 274.351 86.939 286.638 86.939 286.638L88.1417 287.832L87.1812 293.889C87.1812 293.889 94.891 298.709 98.7416 300.154C102.592 301.599 97.7811 303.52 94.4151 304.004C91.1091 304.559 87.7219 304.384 84.4902 303.494C80.631 302.533 75.8372 300.846 74.1066 300.604C72.3761 300.361 71.5108 298.215 71.5108 295.55C71.5108 292.885 71.753 292.66 71.5108 291.449C71.2685 290.237 72.7222 285.193 72.9644 283.99C73.2067 282.787 69.5898 255.565 70.308 246.895C71.0262 238.225 71.2771 226.422 71.2771 225.219C71.2771 224.016 71.753 211.487 71.753 211.487C71.753 211.487 67.6602 239.176 67.1756 240.154C66.6911 241.132 58.7477 281.333 58.5227 283.263C58.2977 285.193 59.2495 287.356 59.0072 288.801C58.765 290.246 57.5622 294.581 57.5622 294.581C57.5622 294.581 58.2891 301.088 60.4523 303.978C62.6155 306.868 63.1001 309.274 61.8973 310.243C60.6946 311.212 58.0468 311.203 54.9144 310.485C51.782 309.767 51.782 310.243 48.8573 307.829C45.9326 305.415 45.0068 298.44 45.0068 297.714C45.0068 296.987 43.7954 294.581 43.7954 291.933C43.7954 289.286 43.7954 290.488 44.7645 286.638C45.7336 282.787 45.4827 267.852 45.725 259.182C45.9673 250.512 48.8573 233.163 48.8573 229.762C48.8573 226.361 50.3024 176.044 50.3024 176.044C50.3024 176.044 73.4404 183.131 91.9923 173.466Z" fill="#263238" stroke="#263238" stroke-linecap="round" stroke-linejoin="round"/>
<path d="M81.2626 295.922C83.4069 295.897 85.4847 295.174 87.1812 293.863C87.1812 293.863 94.891 298.682 98.7416 300.127C102.592 301.573 97.7811 303.493 94.4151 303.978C91.111 304.541 87.7238 304.375 84.4902 303.493C80.631 302.533 75.8372 300.846 74.1066 300.603C72.3761 300.361 71.5108 298.215 71.5108 295.55C71.5108 294.434 71.554 293.75 71.5886 293.24C74.2624 294.365 78.7013 296.035 81.2626 295.922Z" fill="white" stroke="#263238" stroke-linecap="round" stroke-linejoin="round"/>
<path d="M75.1451 297.843C79.5149 298.189 84.5336 303.494 91.231 302.741C94.1555 302.492 97.0213 301.776 99.7195 300.621C101.528 301.979 97.4005 303.554 94.4066 303.978C91.1053 304.54 87.7212 304.374 84.4903 303.494C80.6311 302.533 75.8374 300.846 74.1068 300.604C72.8867 300.43 72.0474 299.236 71.6753 297.592C72.5319 297.644 73.6222 297.722 75.1451 297.843Z" fill="white" stroke="#263238" stroke-linecap="round" stroke-linejoin="round"/>
<path d="M49.9736 297.671C51.3791 297.686 52.7736 297.421 54.0752 296.891C55.3769 296.36 56.5594 295.575 57.5536 294.582C57.5536 294.582 58.2805 301.089 60.4437 303.979C62.6069 306.869 63.0915 309.274 61.8888 310.243C60.686 311.213 58.0382 311.204 54.9058 310.486C51.7735 309.767 51.7735 310.243 48.8488 307.829C45.9241 305.415 44.9982 298.441 44.9982 297.714C44.9536 297.347 44.8635 296.986 44.7299 296.641C46.3868 297.347 48.173 297.697 49.9736 297.671Z" fill="white" stroke="#263238" stroke-linecap="round" stroke-linejoin="round"/>
<path d="M48.8834 307.829C47.6027 306.764 46.6942 304.791 46.0885 302.862V302.914C47.0775 304.502 48.3872 305.867 49.9338 306.92C51.4804 307.974 53.2299 308.693 55.0702 309.031C57.5487 309.71 60.1825 309.542 62.555 308.555C62.5924 308.868 62.5537 309.184 62.4422 309.478C62.3307 309.772 62.1497 310.034 61.9147 310.243C60.712 311.203 58.0641 311.203 54.9318 310.485C51.7994 309.767 51.7735 310.243 48.8834 307.829Z" fill="white" stroke="#263238" stroke-linecap="round" stroke-linejoin="round"/>
<path d="M92.5462 171.934C92.5462 171.934 93.2385 175.292 91.8453 176.97C90.4522 178.649 84.8537 182.283 71.5628 182.43C58.2719 182.578 52.6734 179.67 50.7438 178.372C48.8142 177.074 49.6276 171.519 49.6276 171.519C55.9329 174.186 62.6508 175.746 69.4861 176.131C80.0946 176.555 92.5462 171.934 92.5462 171.934Z" fill="#06BCC1" stroke="#263238" stroke-linecap="round" stroke-linejoin="round"/>
<path d="M81.0291 110.568L93.2384 104.216C93.2384 104.216 108.182 91.1332 115.528 86.2789C122.875 81.4246 129.105 83.0427 129.607 89.0218C130.109 95.001 104.825 114.799 100.187 118.537C95.5488 122.275 94.5796 124.144 94.5796 124.144C94.5796 124.144 93.9566 157.519 93.7143 162.875C93.472 168.231 93.7143 171.839 91.9837 173.466C90.2531 175.093 82.1453 180.06 70.81 179.437C59.4746 178.813 54.3694 177.706 52.2494 175.975C50.1294 174.245 48.892 172.739 48.892 169.754C48.892 166.769 45.6645 126.887 45.6645 126.887C45.6645 126.887 23.2447 111.571 17.5165 106.466C11.7882 101.361 11.4075 94.1357 15.1455 93.3829C18.8836 92.6301 28.3499 97.2508 32.088 99.613C35.8261 101.975 47.7758 105.713 51.886 106.838C55.9961 107.963 60.1063 109.201 60.1063 109.201C60.1063 109.201 70.4465 112.056 81.0291 110.568Z" fill="#06BCC1" stroke="#263238" stroke-linecap="round" stroke-linejoin="round"/>
<path d="M94.6055 124.144L98.3954 110.429" stroke="#263238" stroke-linecap="round" stroke-linejoin="round"/>
<path d="M96.2322 119.229L101.986 106.83" stroke="#263238" stroke-linecap="round" stroke-linejoin="round"/>
<path d="M45.6645 126.878L42.4975 115.102" stroke="#263238" stroke-linecap="round" stroke-linejoin="round"/>
<path d="M44.652 123.911L40.3342 116.175" stroke="#263238" stroke-linecap="round" stroke-linejoin="round"/>
<path d="M110.614 93.8936L118.522 98.2027" stroke="#263238" stroke-linecap="round" stroke-linejoin="round"/>
<path d="M30.8073 104.138L27.0346 107.193" stroke="#263238" stroke-linecap="round" stroke-linejoin="round"/>
<path d="M80.4061 125.157L83.5212 145.275C83.5371 145.381 83.5321 145.488 83.5064 145.592C83.4806 145.696 83.4347 145.793 83.3712 145.879C83.3078 145.965 83.228 146.038 83.1364 146.093C83.0448 146.148 82.9433 146.185 82.8376 146.201C82.7317 146.218 82.6235 146.214 82.5193 146.188C82.4151 146.163 82.317 146.117 82.2308 146.054C82.1445 145.99 82.0719 145.91 82.0171 145.818C81.9623 145.725 81.9264 145.623 81.9117 145.517L79.0389 126.022L80.4061 125.157Z" fill="white" stroke="#263238" stroke-linecap="round" stroke-linejoin="round"/>
<path d="M68.3265 125.883L69.9792 145.621C69.9906 145.752 69.9736 145.884 69.9293 146.008C69.885 146.132 69.8145 146.246 69.7225 146.34C69.6306 146.434 69.5193 146.508 69.3964 146.556C69.2734 146.603 69.1416 146.624 69.0101 146.616C68.7846 146.603 68.5717 146.508 68.412 146.348C68.2524 146.189 68.1572 145.976 68.1448 145.75L66.8209 125.502L68.3265 125.883Z" fill="white" stroke="#263238" stroke-linecap="round" stroke-linejoin="round"/>
<path d="M81.7818 109.693C81.7818 109.693 86.2641 114.677 86.6362 116.668C87.0082 118.658 83.5211 121.15 83.5211 121.15C83.5211 121.15 85.2517 121.652 84.0229 122.768C82.7942 123.884 75.5517 129.5 73.4317 129.5C71.3118 129.5 68.6986 126.134 62.1829 124.637C55.6672 123.14 51.0985 116.417 51.5917 113.302C51.6091 112.912 51.7114 112.531 51.8915 112.186C52.0716 111.84 52.3251 111.538 52.6342 111.3C52.9433 111.063 53.3006 110.896 53.6811 110.811C54.0615 110.726 54.4559 110.726 54.8366 110.809C54.8366 110.809 53.5905 108.075 55.5807 106.829C57.5709 105.583 62.1829 105.583 64.424 105.834C66.6651 106.085 76.1747 106.578 81.7818 109.693Z" fill="#06BCC1" stroke="#263238" stroke-linecap="round" stroke-linejoin="round"/>
<path d="M62.9876 121.695C63.7817 122.342 64.6076 122.948 65.4623 123.512" stroke="#263238" stroke-linecap="round" stroke-linejoin="round"/>
<path d="M54.8798 110.81C54.8798 110.81 57.865 116.547 60.0715 119.03" stroke="#263238" stroke-linecap="round" stroke-linejoin="round"/>
<path d="M83.5211 121.15L80.406 122.898" stroke="#263238" stroke-linecap="round" stroke-linejoin="round"/>
<path d="M126.994 94.2483C128.361 93.0023 131.848 89.5152 129.105 85.2839C126.362 81.0526 122.131 82.5409 118.643 82.5409C115.156 82.5409 90.0022 88.6412 90.0022 88.6412C90.0022 88.6412 84.646 79.4258 83.5211 77.8077C82.3963 76.1896 78.0438 76.0771 78.0438 76.0771C78.0438 76.0771 77.0487 76.4492 77.5419 77.6952C78.0352 78.9413 78.9178 78.3183 79.16 81.1564C79.4023 83.9946 80.7868 94.231 83.1491 95.4771C85.5113 96.7231 91.7414 95.2261 91.7414 95.2261L120.019 96.6019" fill="#BDBDBD"/>
<path d="M126.994 94.2483C128.361 93.0023 131.848 89.5152 129.105 85.2839C126.362 81.0526 122.131 82.5409 118.643 82.5409C115.156 82.5409 90.0022 88.6412 90.0022 88.6412C90.0022 88.6412 84.646 79.4258 83.5211 77.8077C82.3963 76.1896 78.0438 76.0771 78.0438 76.0771C78.0438 76.0771 77.0487 76.4492 77.5419 77.6952C78.0352 78.9413 78.9178 78.3183 79.16 81.1564C79.4023 83.9946 80.7868 94.231 83.1491 95.4771C85.5113 96.7231 91.7414 95.2261 91.7414 95.2261L120.019 96.6019" stroke="#263238" stroke-linecap="round" stroke-linejoin="round"/>
<path d="M120.019 96.6016L107.853 96.0045C108.54 95.4159 109.092 94.6861 109.471 93.8648C109.851 93.0435 110.048 92.1501 110.051 91.2454C110.003 88.8249 109.238 86.4731 107.853 84.4875C112.872 83.3885 117.371 82.5059 118.661 82.5059C122.122 82.5059 126.388 81.009 129.122 85.2489C131.856 89.4889 128.378 92.9673 127.011 94.2134" fill="#06BCC1"/>
<path d="M120.019 96.6016L107.853 96.0045C108.54 95.4159 109.092 94.6861 109.471 93.8648C109.851 93.0435 110.048 92.1501 110.051 91.2454C110.003 88.8249 109.238 86.4731 107.853 84.4875C112.872 83.3885 117.371 82.5059 118.661 82.5059C122.122 82.5059 126.388 81.009 129.122 85.2489C131.856 89.4889 128.378 92.9673 127.011 94.2134" stroke="#263238" stroke-linecap="round" stroke-linejoin="round"/>
<path d="M79.5407 76.9337C79.5407 76.9337 84.7325 87.274 84.5161 88.52C84.2998 89.766 83.6508 91.263 83.6508 91.7562C83.6508 92.2494 86.3852 98.6093 85.892 100.349C85.3987 102.088 83.2961 110.196 81.2799 113.06C79.2638 115.924 77.9226 115.924 77.9226 115.924C77.9226 115.924 78.9177 122.768 78.1649 124.767C77.4121 126.766 74.9287 129.959 73.4317 129.5C71.9348 129.042 63.7231 119.411 62.9703 116.521C62.2175 113.631 61.3522 103.81 61.3522 103.81C61.3522 103.81 59.8552 101.075 58.9899 99.8294C56.283 96.5525 54.7077 92.4884 54.4991 88.2431C54.2568 81.7707 60.4783 75.7915 66.0854 74.1734C71.6925 72.5553 77.5678 75.8348 79.5407 76.9337Z" fill="#BDBDBD" stroke="#263238" stroke-linecap="round" stroke-linejoin="round"/>
<path d="M80.5358 93.0024C80.5358 93.0024 83.2701 99.0595 82.7769 99.3537C82.1636 99.8068 81.4579 100.119 80.7102 100.269C79.9624 100.418 79.1909 100.401 78.4504 100.219C76.0882 99.596 76.0882 98.35 76.0882 98.35" stroke="#263238" stroke-linecap="round" stroke-linejoin="round"/>
<path d="M78.113 105.956C77.7669 106.821 77.94 107.755 78.4851 107.963C79.0302 108.171 79.7485 107.608 80.0946 106.708C80.4407 105.808 80.2676 104.909 79.7225 104.701C79.1773 104.493 78.4332 105.056 78.113 105.956Z" fill="#263238"/>
<path d="M77.9226 115.924C77.9226 115.924 76.0536 115.673 74.5566 115.301C73.0597 114.928 67.0805 109.944 67.0805 109.944L78.4332 123.019L77.9226 115.924Z" fill="#263238" stroke="#263238" stroke-linecap="round" stroke-linejoin="round"/>
<path d="M74.1846 87.6459C74.1846 87.6459 70.9398 85.6557 69.2005 89.5149" stroke="#263238" stroke-linecap="round" stroke-linejoin="round"/>
<path d="M79.411 87.7757C79.9416 87.4 80.596 87.2418 81.2397 87.3336C81.8834 87.4253 82.4675 87.76 82.8721 88.2689" stroke="#263238" stroke-linecap="round" stroke-linejoin="round"/>
<path d="M72.1857 93.4437C72.1857 94.1619 72.5491 94.7503 72.9991 94.7503C73.449 94.7503 73.8124 94.1619 73.8124 93.4437C73.8124 92.7255 73.449 92.1284 72.9991 92.1284C72.5491 92.1284 72.1857 92.7168 72.1857 93.4437Z" fill="#263238"/>
<path d="M81.851 93.9629C81.44 93.9629 81.1068 93.4283 81.1068 92.7688C81.1068 92.1093 81.44 91.5747 81.851 91.5747C82.262 91.5747 82.5952 92.1093 82.5952 92.7688C82.5952 93.4283 82.262 93.9629 81.851 93.9629Z" fill="#263238"/>
<path d="M62.7194 102.59C62.2348 102.948 61.726 103.272 61.1964 103.559C60.7898 102.823 59.6908 100.859 58.99 99.8554C56.283 96.5785 54.7077 92.5144 54.4991 88.2691C54.2568 81.7967 60.4783 75.8175 66.0854 74.1994C69.1286 73.4601 72.328 73.7055 75.2229 74.9003C75.0585 75.2204 74.4874 75.5839 72.9385 75.8175C69.5725 76.3107 65.5922 74.6926 63.4722 76.1896C61.3522 77.6865 60.4783 82.1688 62.3473 83.7869C64.2163 85.405 68.0756 88.0182 66.4575 90.1381C65.3072 91.5257 64.4584 93.1377 63.9654 94.8713C63.9654 95.3732 64.7182 95.8664 63.9654 95.9962C63.2126 96.126 62.2348 96.3682 61.8541 95.2434C61.4734 94.1185 59.4832 92.3792 58.4881 94.3781C57.493 96.3769 58.739 98.7046 59.8553 100.227C60.6386 101.202 61.6133 102.006 62.7194 102.59Z" fill="#263238" stroke="#263238" stroke-linecap="round" stroke-linejoin="round"/>
<path d="M22.1198 105.834L31.9582 105.462C31.9582 105.462 60.859 98.358 62.9703 97.2417C65.0816 96.1255 64.5884 92.9153 64.8394 92.1279C65.0903 91.3404 65.7046 88.0177 65.0903 87.1524C64.4759 86.2871 59.2322 82.2894 58.8602 81.7962C58.4881 81.303 59.4832 78.9321 59.2322 78.335C58.9813 77.738 58.3669 77.5822 57.7439 77.963C57.3732 78.1843 57.1032 78.5411 56.9911 78.9581C56.9911 78.9581 55.7451 79.2003 54.6289 81.1992C53.5126 83.198 53.2617 84.8074 53.504 85.5256C53.7463 86.2438 52.3878 87.7668 52.6387 88.883C53.1372 90.2661 53.7599 91.6012 54.4991 92.872C54.4991 92.872 30.9631 91.8769 26.974 91.8769C22.985 91.8769 13.6485 91.375 12.5323 93.6075C11.416 95.84 12.5323 99.7078 14.4013 102.33" fill="#BDBDBD"/>
<path d="M22.1198 105.834L31.9582 105.462C31.9582 105.462 60.859 98.358 62.9703 97.2417C65.0816 96.1255 64.5884 92.9153 64.8394 92.1279C65.0903 91.3404 65.7046 88.0177 65.0903 87.1524C64.4759 86.2871 59.2322 82.2894 58.8602 81.7962C58.4881 81.303 59.4832 78.9321 59.2322 78.335C58.9813 77.738 58.3669 77.5822 57.7439 77.963C57.3732 78.1843 57.1032 78.5411 56.9911 78.9581C56.9911 78.9581 55.7451 79.2003 54.6289 81.1992C53.5126 83.198 53.2617 84.8074 53.504 85.5256C53.7463 86.2438 52.3878 87.7668 52.6387 88.883C53.1372 90.2661 53.7599 91.6012 54.4991 92.872C54.4991 92.872 30.9631 91.8769 26.974 91.8769C22.985 91.8769 13.6485 91.375 12.5323 93.6075C11.416 95.84 12.5323 99.7078 14.4013 102.33" stroke="#263238" stroke-linecap="round" stroke-linejoin="round"/>
<path d="M54.4991 92.8814L57.9516 92.4487" stroke="#263238" stroke-linecap="round" stroke-linejoin="round"/>
<path d="M56.9912 78.9326C56.9912 78.9326 55.4337 82.0304 55.7971 82.9303L56.1519 83.7956" stroke="#263238" stroke-linecap="round" stroke-linejoin="round"/>
<path d="M53.504 85.5347C54.2133 86.2275 54.9804 86.8586 55.797 87.421" stroke="#263238" stroke-linecap="round" stroke-linejoin="round"/>
<path d="M14.4014 102.348C12.5323 99.7516 11.4074 95.8664 12.5323 93.6253C13.6572 91.3842 22.8639 91.8947 26.8962 91.8947C26.4266 92.9492 26.1703 94.0861 26.1421 95.24C26.1139 96.3939 26.3143 97.542 26.7318 98.6181C27.8394 101.794 30.9631 104 33.0917 105.186L31.9582 105.471L22.1198 105.843" fill="#06BCC1"/>
<path d="M14.4014 102.348C12.5323 99.7516 11.4074 95.8664 12.5323 93.6253C13.6572 91.3842 22.8639 91.8947 26.8962 91.8947C26.4266 92.9492 26.1703 94.0861 26.1421 95.24C26.1139 96.3939 26.3143 97.542 26.7318 98.6181C27.8394 101.794 30.9631 104 33.0917 105.186L31.9582 105.471L22.1198 105.843" stroke="#263238" stroke-linecap="round" stroke-linejoin="round"/>
<path d="M319.656 291.707H31.3439C31.2527 291.707 31.1652 291.654 31.1007 291.56C31.0362 291.466 31 291.339 31 291.207C31 291.074 31.0362 290.947 31.1007 290.853C31.1652 290.759 31.2527 290.707 31.3439 290.707H319.656C319.747 290.707 319.835 290.759 319.899 290.853C319.964 290.947 320 291.074 320 291.207C319.998 291.338 319.961 291.464 319.897 291.557C319.833 291.65 319.747 291.704 319.656 291.707Z" fill="#263238"/>
</g>
<defs>
<clipPath id="clip0_659_11183">
<rect width="320" height="321" fill="white"/>
</clipPath>
</defs>
</svg>
