<svg width="365" height="262" viewBox="0 0 365 262" fill="none" xmlns="http://www.w3.org/2000/svg">
<path d="M328.055 91.0553C322.288 78.6308 314.717 67.141 305.591 56.9639C303.858 55.0321 302.062 53.1579 300.204 51.3414C278.983 30.68 248.776 18.8219 219.505 22.579C199.527 25.1518 180.895 34.631 164.973 47.0393C154.791 54.9674 145.166 64.3313 132.904 68.2613C117.351 73.2288 100.576 68.539 84.2636 68.4657C59.0332 68.3504 33.4856 80.5701 19.6432 101.829C7.11642 121.07 5.08322 146.819 14.4744 167.806C23.8656 188.792 44.3328 204.36 66.9216 207.64C81.154 209.736 95.6776 207.231 110.014 208.389C130.944 210.082 150.387 219.393 170.376 225.875C206.776 237.66 247.726 239.777 282.332 223.418C310.807 209.956 333.952 182.064 338.263 150.194C340.988 130.03 336.51 109.338 328.055 91.0553Z" fill="#06BCC1"/>
<path opacity="0.7" d="M328.055 91.0553C322.288 78.6308 314.717 67.141 305.591 56.9639C303.858 55.0321 302.062 53.1579 300.204 51.3414C278.983 30.68 248.776 18.8219 219.505 22.579C199.527 25.1518 180.895 34.631 164.973 47.0393C154.791 54.9674 145.166 64.3313 132.904 68.2613C117.351 73.2288 100.576 68.539 84.2636 68.4657C59.0332 68.3504 33.4856 80.5701 19.6432 101.829C7.11642 121.07 5.08322 146.819 14.4744 167.806C23.8656 188.792 44.3328 204.36 66.9216 207.64C81.154 209.736 95.6776 207.231 110.014 208.389C130.944 210.082 150.387 219.393 170.376 225.875C206.776 237.66 247.726 239.777 282.332 223.418C310.807 209.956 333.952 182.064 338.263 150.194C340.988 130.03 336.51 109.338 328.055 91.0553Z" fill="white"/>
<g filter="url(#filter0_d_664_1910)">
<path d="M266.814 222.7V91.7768H244.045V73.9434H308.575V91.7768H285.914V222.7H266.814Z" fill="#06BCC1"/>
</g>
<g filter="url(#filter1_d_664_1910)">
<path d="M172.976 222.7V73.9434H193.91C227.65 73.9434 244.52 98.6636 244.52 148.104C244.52 172.824 240.312 191.455 231.895 203.997C223.549 216.466 211.787 222.7 196.608 222.7H172.976ZM191.968 204.867H194.773C205.996 204.867 213.91 200.553 218.514 191.927C223.19 183.227 225.528 168.91 225.528 148.974C225.528 128.168 223.334 113.452 218.945 104.826C214.557 96.1264 206.644 91.7768 195.205 91.7768H191.968V204.867Z" fill="#06BCC1"/>
</g>
<g filter="url(#filter2_d_664_1910)">
<path d="M116.798 218.894V199.103C122.481 204.613 127.984 207.367 133.308 207.367C137.265 207.367 140.646 205.954 143.451 203.127C146.257 200.299 147.66 196.892 147.66 192.905C147.66 189.498 146.869 185.366 145.286 180.509C143.703 175.652 139.423 166.699 132.445 153.65C125.538 140.528 121.042 130.597 118.956 123.855C116.869 117.113 115.826 111.169 115.826 106.022C115.826 96.0174 118.632 87.8619 124.243 81.555C129.927 75.1756 137.157 71.9858 145.933 71.9858C150.897 71.9858 156.185 73.2907 161.796 75.9005V93.9514C156.616 90.8341 152.192 89.2755 148.523 89.2755C138.955 89.2755 134.171 94.0239 134.171 103.521C134.171 107 134.962 111.205 136.545 116.134C138.2 120.991 142.48 129.908 149.386 142.884C156.365 155.788 160.861 165.647 162.875 172.462C164.961 179.204 166.005 185.184 166.005 190.404C166.005 200.553 163.163 208.817 157.48 215.197C151.868 221.504 144.566 224.657 135.574 224.657C129.099 224.657 122.841 222.736 116.798 218.894Z" fill="#06BCC1"/>
</g>
<g filter="url(#filter3_d_664_1910)">
<path d="M42.9222 73.9434H61.9144V185.728C61.9144 199.865 66.5546 206.933 75.8348 206.933C79.9354 206.933 83.2806 205.157 85.8705 201.604C88.4603 198.052 89.7552 193.05 89.7552 186.598V73.9434H108.747V184.423C108.747 197.472 105.474 207.44 98.9276 214.327C92.3811 221.214 84.6835 224.657 75.8348 224.657C66.4107 224.657 58.5692 221.069 52.3104 213.892C46.0516 206.715 42.9222 197.4 42.9222 185.946V73.9434Z" fill="#06BCC1"/>
</g>
<g filter="url(#filter4_d_664_1910)">
<path fill-rule="evenodd" clip-rule="evenodd" d="M263.564 225.975V95.0519H240.795V70.6685H311.825V95.0519H289.164V225.975H263.564ZM285.914 91.7769H308.575V73.9435H244.045V91.7769H266.814V222.7H285.914V91.7769Z" fill="white"/>
</g>
<g filter="url(#filter5_d_664_1910)">
<path fill-rule="evenodd" clip-rule="evenodd" d="M169.726 225.975V70.6685H193.91C211.684 70.6685 225.416 77.25 234.545 90.628C243.524 103.785 247.77 123.11 247.77 148.104C247.77 173.103 243.531 192.504 234.587 205.831C225.625 219.219 212.844 225.975 196.608 225.975H169.726ZM231.895 203.997C240.312 191.455 244.52 172.825 244.52 148.104C244.52 98.6637 227.65 73.9435 193.91 73.9435H172.976V222.7H196.608C211.787 222.7 223.549 216.466 231.895 203.997ZM215.651 190.375L215.656 190.367C219.924 182.427 222.278 168.813 222.278 148.974C222.278 128.223 220.061 114.198 216.053 106.32L216.048 106.31C214.128 102.504 211.5 99.7485 208.163 97.9142C204.798 96.0646 200.53 95.0535 195.218 95.0519V201.589C205.218 201.48 211.77 197.648 215.651 190.375ZM195.218 204.864C195.07 204.866 194.922 204.867 194.773 204.867H191.968V91.7769H195.205C195.209 91.7769 195.214 91.7769 195.218 91.7769C206.649 91.7801 214.559 96.1297 218.945 104.826C223.334 113.452 225.528 128.169 225.528 148.974C225.528 168.91 223.19 183.227 218.514 191.927C213.97 200.439 206.205 204.752 195.218 204.864Z" fill="white"/>
</g>
<g filter="url(#filter6_d_664_1910)">
<path fill-rule="evenodd" clip-rule="evenodd" d="M113.548 220.7V191.408L119.051 196.743C124.416 201.945 129.153 204.093 133.308 204.093C136.4 204.093 138.955 203.026 141.153 200.811C143.351 198.596 144.41 196.021 144.41 192.905C144.41 189.972 143.721 186.206 142.198 181.53C140.72 176.993 136.581 168.289 129.583 155.203L129.578 155.194L129.573 155.184C122.652 142.035 118.034 131.879 115.853 124.83C113.703 117.881 112.576 111.596 112.576 106.022C112.576 95.3652 115.583 86.3825 121.823 79.3689L121.825 79.3673C128.146 72.2714 136.267 68.7109 145.933 68.7109C151.468 68.7109 157.222 70.166 163.158 72.927L165.046 73.8051V99.722L160.13 96.7632C155.163 93.7744 151.34 92.5506 148.523 92.5506C144.228 92.5506 141.606 93.6159 140.04 95.1701C138.483 96.7154 137.421 99.2898 137.421 103.521C137.421 106.529 138.111 110.364 139.628 115.098C141.191 119.672 145.339 128.35 152.246 141.328C159.233 154.25 163.865 164.349 165.984 171.507C168.132 178.453 169.255 184.766 169.255 190.404C169.255 201.203 166.213 210.295 159.9 217.383C153.625 224.436 145.417 227.932 135.574 227.932C128.423 227.932 121.57 225.801 115.063 221.664L113.548 220.7ZM157.48 215.197C163.163 208.817 166.005 200.553 166.005 190.404C166.005 185.185 164.961 179.204 162.875 172.462C160.861 165.648 156.365 155.788 149.386 142.885C142.48 129.908 138.2 120.992 136.545 116.134C134.962 111.205 134.171 107 134.171 103.521C134.171 94.024 138.955 89.2756 148.523 89.2756C151.4 89.2756 154.741 90.2338 158.546 92.15C159.594 92.6778 160.678 93.2783 161.796 93.9515V75.9006C156.185 73.2908 150.897 71.9859 145.933 71.9859C137.157 71.9859 129.927 75.1757 124.243 81.5551C118.632 87.862 115.826 96.0175 115.826 106.022C115.826 111.169 116.869 117.113 118.956 123.855C121.042 130.597 125.538 140.529 132.445 153.65C139.423 166.699 143.703 175.652 145.286 180.509C146.869 185.366 147.66 189.498 147.66 192.905C147.66 196.892 146.257 200.299 143.451 203.127C140.646 205.954 137.265 207.368 133.308 207.368C129.005 207.368 124.585 205.568 120.048 201.969C118.971 201.115 117.887 200.16 116.798 199.103V218.894C122.841 222.736 129.099 224.657 135.574 224.657C144.566 224.657 151.868 221.504 157.48 215.197Z" fill="white"/>
</g>
<g filter="url(#filter7_d_664_1910)">
<path fill-rule="evenodd" clip-rule="evenodd" d="M39.6722 70.6685H65.1644V185.728C65.1644 192.539 66.301 197.077 68.1051 199.825C69.7534 202.336 72.1522 203.658 75.8348 203.658C78.8231 203.658 81.2261 202.443 83.2514 199.665C85.2807 196.882 86.5052 192.662 86.5052 186.598V70.6685H111.997V184.424C111.997 198 108.586 208.901 101.275 216.593C94.1625 224.074 85.6361 227.932 75.8348 227.932C65.4694 227.932 56.7407 223.933 49.8691 216.054C42.9897 208.165 39.6722 198.029 39.6722 185.946V70.6685ZM42.9222 73.9435V185.946C42.9222 197.4 46.0516 206.715 52.3104 213.892C58.5692 221.069 66.4107 224.657 75.8348 224.657C84.6835 224.657 92.3811 221.214 98.9276 214.327C105.474 207.44 108.747 197.472 108.747 184.424V73.9435H89.7552V186.598C89.7552 193.05 88.4603 198.052 85.8705 201.604C83.2806 205.157 79.9354 206.933 75.8348 206.933C66.5546 206.933 61.9144 199.865 61.9144 185.728V73.9435H42.9222Z" fill="white"/>
</g>
<path d="M245.053 226.132H352.693" stroke="#263238" stroke-miterlimit="10"/>
<path d="M39.6528 226.132H240.373" stroke="#263238" stroke-miterlimit="10"/>
<path d="M30.5268 226.132H34.9728" stroke="#263238" stroke-miterlimit="10"/>
<path d="M322.673 133.625L329.912 203.543" stroke="#263238" stroke-width="2" stroke-miterlimit="10"/>
<path d="M328.747 190.16L325.46 186.67" stroke="#263238" stroke-width="2" stroke-miterlimit="10"/>
<path d="M326.459 187.713C326.452 187.179 326.333 186.652 326.107 186.169C325.882 185.685 325.557 185.256 325.154 184.909C324.311 184.149 319.876 182.289 319.434 183.861C318.997 185.559 323.536 188.918 326.459 187.713Z" fill="#06BCC1" stroke="#263238" stroke-miterlimit="10"/>
<path d="M326.459 187.713L322.236 185.066" stroke="#263238" stroke-width="0.5" stroke-miterlimit="10"/>
<path d="M329.568 198.114L326.287 194.619" stroke="#263238" stroke-width="2" stroke-miterlimit="10"/>
<path d="M327.28 195.667C327.275 195.132 327.156 194.604 326.931 194.119C326.706 193.635 326.38 193.205 325.975 192.858C325.133 192.104 320.697 190.238 320.255 191.81C319.824 193.508 324.358 196.867 327.28 195.667Z" fill="#06BCC1" stroke="#263238" stroke-miterlimit="10"/>
<path d="M327.28 195.667L323.063 193.016" stroke="#263238" stroke-width="0.5" stroke-miterlimit="10"/>
<path d="M326.734 170.761L323.453 167.266" stroke="#263238" stroke-width="2" stroke-miterlimit="10"/>
<path d="M324.452 168.314C324.445 167.779 324.324 167.251 324.098 166.767C323.872 166.282 323.546 165.852 323.141 165.506C322.299 164.751 317.868 162.886 317.447 164.458C316.99 166.155 321.529 169.514 324.452 168.314Z" fill="#06BCC1" stroke="#263238" stroke-miterlimit="10"/>
<path d="M324.452 168.314L320.229 165.663" stroke="#263238" stroke-width="0.5" stroke-miterlimit="10"/>
<path d="M327.561 178.71L324.275 175.215" stroke="#263238" stroke-width="2" stroke-miterlimit="10"/>
<path d="M325.273 176.263C325.267 175.729 325.147 175.202 324.922 174.719C324.697 174.235 324.372 173.806 323.968 173.46C323.126 172.7 318.69 170.84 318.248 172.412C317.811 174.104 322.351 177.468 325.273 176.263Z" fill="#06BCC1" stroke="#263238" stroke-miterlimit="10"/>
<path d="M325.273 176.263L321.051 173.612" stroke="#263238" stroke-width="0.5" stroke-miterlimit="10"/>
<path d="M325.398 157.845L322.117 154.35" stroke="#263238" stroke-width="2" stroke-miterlimit="10"/>
<path d="M323.11 155.398C323.105 154.863 322.986 154.335 322.761 153.85C322.536 153.366 322.21 152.935 321.805 152.589C320.962 151.834 316.527 149.969 316.085 151.541C315.653 153.239 320.188 156.598 323.11 155.398Z" fill="#06BCC1" stroke="#263238" stroke-miterlimit="10"/>
<path d="M323.11 155.398L318.893 152.746" stroke="#263238" stroke-width="0.5" stroke-miterlimit="10"/>
<path d="M324.056 144.871L320.77 141.375" stroke="#263238" stroke-width="2" stroke-miterlimit="10"/>
<path d="M321.768 142.423C321.762 141.889 321.642 141.362 321.417 140.879C321.192 140.395 320.867 139.966 320.463 139.62C319.621 138.86 315.185 137 314.743 138.572C314.306 140.264 318.846 143.628 321.768 142.423Z" fill="#06BCC1" stroke="#263238" stroke-miterlimit="10"/>
<path d="M321.768 142.423L317.546 139.772" stroke="#263238" stroke-width="0.5" stroke-miterlimit="10"/>
<path d="M328.19 185.459L330.686 181.356" stroke="#263238" stroke-width="2" stroke-miterlimit="10"/>
<path d="M329.927 182.588C329.823 182.063 329.832 181.522 329.953 181.002C330.074 180.481 330.305 179.993 330.629 179.569C331.3 178.652 335.252 175.901 335.985 177.342C336.786 178.925 333.032 183.159 329.927 182.588Z" fill="#06BCC1" stroke="#263238" stroke-miterlimit="10"/>
<path d="M329.927 182.588L333.728 178.925" stroke="#263238" stroke-width="0.5" stroke-miterlimit="10"/>
<path d="M326.027 164.531L328.523 160.433" stroke="#263238" stroke-width="2" stroke-miterlimit="10"/>
<path d="M327.759 161.665C327.657 161.14 327.667 160.599 327.789 160.079C327.911 159.558 328.142 159.07 328.466 158.647C329.132 157.73 333.089 154.979 333.822 156.42C334.618 158.002 330.853 162.231 327.759 161.665Z" fill="#06BCC1" stroke="#263238" stroke-miterlimit="10"/>
<path d="M327.759 161.665L331.56 158.002" stroke="#263238" stroke-width="0.5" stroke-miterlimit="10"/>
<path d="M325.076 155.34L327.572 151.237" stroke="#263238" stroke-width="2" stroke-miterlimit="10"/>
<path d="M326.807 152.484C326.705 151.96 326.714 151.419 326.835 150.899C326.956 150.378 327.186 149.89 327.509 149.466C328.18 148.549 332.132 145.798 332.87 147.239C333.666 148.816 329.917 153.04 326.807 152.484Z" fill="#06BCC1" stroke="#263238" stroke-miterlimit="10"/>
<path d="M326.807 152.468L330.608 148.806" stroke="#263238" stroke-width="0.5" stroke-miterlimit="10"/>
<path d="M323.677 141.857L326.173 137.754" stroke="#263238" stroke-width="2" stroke-miterlimit="10"/>
<path d="M325.414 138.991C325.31 138.467 325.319 137.926 325.44 137.405C325.561 136.884 325.791 136.396 326.116 135.973C326.786 135.056 330.738 132.305 331.472 133.746C332.272 135.323 328.518 139.557 325.414 138.991Z" fill="#06BCC1" stroke="#263238" stroke-miterlimit="10"/>
<path d="M325.414 138.991L329.215 135.328" stroke="#263238" stroke-width="0.5" stroke-miterlimit="10"/>
<path d="M322.611 133.238C322.507 132.714 322.516 132.174 322.637 131.654C322.758 131.135 322.989 130.647 323.313 130.225C323.984 129.308 327.936 126.557 328.669 127.998C329.47 129.575 325.715 133.809 322.611 133.238Z" fill="#06BCC1" stroke="#263238" stroke-miterlimit="10"/>
<path d="M322.611 133.238L326.412 129.58" stroke="#263238" stroke-width="0.5" stroke-miterlimit="10"/>
<path d="M322.829 133.395C322.302 133.444 321.769 133.379 321.269 133.204C320.768 133.029 320.311 132.747 319.928 132.378C319.09 131.608 316.808 127.358 318.29 126.776C319.933 126.137 323.718 130.345 322.829 133.395Z" fill="#06BCC1" stroke="#263238" stroke-miterlimit="10"/>
<path d="M322.829 133.395L319.616 129.203" stroke="#263238" stroke-width="0.5" stroke-miterlimit="10"/>
<path d="M341.768 143.256L334.571 213.174" stroke="#263238" stroke-width="2" stroke-miterlimit="10"/>
<path d="M336.162 199.838L333.661 195.74" stroke="#263238" stroke-width="2" stroke-miterlimit="10"/>
<path d="M334.425 196.972C334.527 196.447 334.517 195.906 334.395 195.386C334.273 194.865 334.042 194.377 333.718 193.953C333.047 193.036 329.095 190.285 328.362 191.732C327.561 193.309 331.316 197.548 334.425 196.972Z" fill="#06BCC1" stroke="#263238" stroke-miterlimit="10"/>
<path d="M334.425 196.972L330.837 193.503" stroke="#263238" stroke-width="0.5" stroke-miterlimit="10"/>
<path d="M338.159 180.434L335.663 176.336" stroke="#263238" stroke-width="2" stroke-miterlimit="10"/>
<path d="M336.422 177.568C336.524 177.043 336.514 176.502 336.392 175.982C336.27 175.461 336.039 174.973 335.715 174.55C335.049 173.633 331.092 170.882 330.359 172.328C329.563 173.905 333.318 178.16 336.422 177.568Z" fill="#06BCC1" stroke="#263238" stroke-miterlimit="10"/>
<path d="M336.422 177.568L332.834 174.099" stroke="#263238" stroke-width="0.5" stroke-miterlimit="10"/>
<path d="M337.337 188.389L334.841 184.286" stroke="#263238" stroke-width="2" stroke-miterlimit="10"/>
<path d="M335.606 185.496C335.708 184.972 335.698 184.432 335.576 183.912C335.454 183.393 335.223 182.905 334.898 182.483C334.228 181.566 330.276 178.815 329.542 180.256C328.742 181.859 332.496 186.088 335.606 185.496Z" fill="#06BCC1" stroke="#263238" stroke-miterlimit="10"/>
<path d="M335.606 185.517L332.012 182.048" stroke="#263238" stroke-width="0.5" stroke-miterlimit="10"/>
<path d="M339.49 167.518L336.989 163.42" stroke="#263238" stroke-width="2" stroke-miterlimit="10"/>
<path d="M337.753 164.651C337.855 164.127 337.845 163.586 337.723 163.065C337.601 162.545 337.37 162.057 337.046 161.633C336.375 160.716 332.423 157.965 331.69 159.411C330.889 160.989 334.644 165.223 337.753 164.651Z" fill="#06BCC1" stroke="#263238" stroke-miterlimit="10"/>
<path d="M337.753 164.651L334.165 161.177" stroke="#263238" stroke-width="0.5" stroke-miterlimit="10"/>
<path d="M340.826 154.543L338.325 150.446" stroke="#263238" stroke-width="2" stroke-miterlimit="10"/>
<path d="M339.09 151.677C339.192 151.152 339.181 150.612 339.059 150.091C338.938 149.571 338.707 149.082 338.382 148.659C337.712 147.742 333.76 144.991 333.026 146.437C332.226 148.014 335.98 152.248 339.09 151.677Z" fill="#06BCC1" stroke="#263238" stroke-miterlimit="10"/>
<path d="M339.09 151.677L335.496 148.208" stroke="#263238" stroke-width="0.5" stroke-miterlimit="10"/>
<path d="M336.583 195.122L339.864 191.627" stroke="#263238" stroke-width="2" stroke-miterlimit="10"/>
<path d="M338.866 192.675C338.873 192.14 338.992 191.613 339.218 191.129C339.443 190.644 339.768 190.214 340.171 189.866C341.014 189.107 345.444 187.246 345.891 188.818C346.328 190.511 341.773 193.88 338.866 192.675Z" fill="#06BCC1" stroke="#263238" stroke-miterlimit="10"/>
<path d="M338.866 192.675L343.333 189.876" stroke="#263238" stroke-width="0.5" stroke-miterlimit="10"/>
<path d="M338.736 174.193L342.017 170.698" stroke="#263238" stroke-width="2" stroke-miterlimit="10"/>
<path d="M341.019 171.746C341.025 171.212 341.145 170.686 341.37 170.202C341.595 169.719 341.92 169.289 342.324 168.943C343.166 168.183 347.602 166.323 348.044 167.895C348.481 169.582 343.946 172.946 341.019 171.746Z" fill="#06BCC1" stroke="#263238" stroke-miterlimit="10"/>
<path d="M341.019 171.746L345.486 168.953" stroke="#263238" stroke-width="0.5" stroke-miterlimit="10"/>
<path d="M339.682 165.002L342.964 161.502" stroke="#263238" stroke-width="2" stroke-miterlimit="10"/>
<path d="M341.965 162.55C341.972 162.016 342.091 161.489 342.316 161.006C342.542 160.522 342.867 160.093 343.27 159.747C344.113 158.987 348.548 157.127 348.99 158.699C349.427 160.391 344.893 163.755 341.965 162.55Z" fill="#06BCC1" stroke="#263238" stroke-miterlimit="10"/>
<path d="M341.965 162.55L346.437 159.757" stroke="#263238" stroke-width="0.5" stroke-miterlimit="10"/>
<path d="M341.071 151.52L344.352 148.025" stroke="#263238" stroke-width="2" stroke-miterlimit="10"/>
<path d="M343.333 149.073C343.339 148.538 343.459 148.011 343.684 147.527C343.909 147.042 344.235 146.612 344.638 146.264C345.48 145.504 349.916 143.644 350.358 145.216C350.816 146.909 346.281 150.273 343.333 149.073Z" fill="#06BCC1" stroke="#263238" stroke-miterlimit="10"/>
<path d="M343.354 149.073L347.826 146.274" stroke="#263238" stroke-width="0.5" stroke-miterlimit="10"/>
<path d="M341.773 142.864C341.779 142.329 341.899 141.802 342.124 141.317C342.349 140.833 342.675 140.402 343.078 140.055C343.92 139.3 348.351 137.435 348.798 139.007C349.25 140.699 344.711 144.063 341.773 142.864Z" fill="#06BCC1" stroke="#263238" stroke-miterlimit="10"/>
<path d="M341.788 142.863L346.255 140.07" stroke="#263238" stroke-width="0.5" stroke-miterlimit="10"/>
<path d="M341.97 143.052C341.444 142.989 340.936 142.814 340.483 142.537C340.029 142.261 339.639 141.889 339.339 141.448C338.679 140.526 337.259 135.889 338.882 135.632C340.618 135.36 343.463 140.259 341.97 143.052Z" fill="#06BCC1" stroke="#263238" stroke-miterlimit="10"/>
<path d="M341.97 143.062L339.682 138.294" stroke="#263238" stroke-width="0.5" stroke-miterlimit="10"/>
<path d="M333.515 114.788V203.202" stroke="#263238" stroke-width="2" stroke-miterlimit="10"/>
<path d="M333.588 189.908L330.681 186.088" stroke="#263238" stroke-width="2" stroke-miterlimit="10"/>
<path d="M331.565 187.236C331.615 186.703 331.55 186.166 331.376 185.661C331.202 185.156 330.923 184.694 330.556 184.307C329.797 183.463 325.58 181.131 324.998 182.651C324.368 184.307 328.534 188.116 331.565 187.236Z" fill="#06BCC1" stroke="#263238" stroke-miterlimit="10"/>
<path d="M331.565 187.236L327.639 184.155" stroke="#263238" stroke-width="0.5" stroke-miterlimit="10"/>
<path d="M333.588 173.292L330.681 169.472" stroke="#263238" stroke-width="2" stroke-miterlimit="10"/>
<path d="M331.565 170.62C331.615 170.087 331.55 169.55 331.376 169.045C331.202 168.54 330.923 168.078 330.556 167.691C329.797 166.847 325.58 164.515 324.998 166.035C324.368 167.68 328.534 171.511 331.565 170.62Z" fill="#06BCC1" stroke="#263238" stroke-miterlimit="10"/>
<path d="M331.565 170.62L327.639 167.539" stroke="#263238" stroke-width="0.5" stroke-miterlimit="10"/>
<path d="M333.588 153.783L330.681 149.963" stroke="#263238" stroke-width="2" stroke-miterlimit="10"/>
<path d="M331.565 151.111C331.615 150.579 331.55 150.042 331.376 149.537C331.202 149.031 330.923 148.569 330.556 148.182C329.797 147.344 325.58 145.007 324.998 146.532C324.368 148.182 328.534 152.002 331.565 151.111Z" fill="#06BCC1" stroke="#263238" stroke-miterlimit="10"/>
<path d="M331.565 151.111L327.639 148.03" stroke="#263238" stroke-width="0.5" stroke-miterlimit="10"/>
<path d="M333.588 140.799L330.681 136.979" stroke="#263238" stroke-width="2" stroke-miterlimit="10"/>
<path d="M331.565 138.127C331.615 137.594 331.55 137.057 331.376 136.552C331.202 136.046 330.923 135.585 330.556 135.197C329.797 134.354 325.58 132.022 324.998 133.542C324.368 135.192 328.534 139.017 331.565 138.127Z" fill="#06BCC1" stroke="#263238" stroke-miterlimit="10"/>
<path d="M331.565 138.127L327.639 135.045" stroke="#263238" stroke-width="0.5" stroke-miterlimit="10"/>
<path d="M333.588 127.756L330.681 123.937" stroke="#263238" stroke-width="2" stroke-miterlimit="10"/>
<path d="M331.565 125.079C331.614 124.547 331.55 124.011 331.376 123.507C331.202 123.002 330.922 122.541 330.556 122.155C329.797 121.311 325.58 118.98 324.998 120.499C324.368 122.155 328.534 125.97 331.565 125.079Z" fill="#06BCC1" stroke="#263238" stroke-miterlimit="10"/>
<path d="M331.565 125.079L327.639 122.003" stroke="#263238" stroke-width="0.5" stroke-miterlimit="10"/>
<path d="M333.526 194.981L336.427 191.161" stroke="#263238" stroke-width="2" stroke-miterlimit="10"/>
<path d="M335.533 192.308C335.489 191.773 335.559 191.235 335.738 190.73C335.918 190.225 336.202 189.764 336.573 189.379C337.332 188.541 341.549 186.204 342.126 187.728C342.745 189.379 338.575 193.199 335.533 192.308Z" fill="#06BCC1" stroke="#263238" stroke-miterlimit="10"/>
<path d="M335.543 192.308L339.703 189.064" stroke="#263238" stroke-width="0.5" stroke-miterlimit="10"/>
<path d="M333.526 168.555L336.427 164.735" stroke="#263238" stroke-width="2" stroke-miterlimit="10"/>
<path d="M335.533 165.883C335.488 165.348 335.558 164.81 335.738 164.305C335.917 163.8 336.202 163.339 336.573 162.954C337.332 162.11 341.549 159.778 342.126 161.298C342.745 162.964 338.575 166.774 335.533 165.883Z" fill="#06BCC1" stroke="#263238" stroke-miterlimit="10"/>
<path d="M335.543 165.883L339.703 162.639" stroke="#263238" stroke-width="0.5" stroke-miterlimit="10"/>
<path d="M333.526 155.513L336.427 151.693" stroke="#263238" stroke-width="2" stroke-miterlimit="10"/>
<path d="M335.533 152.84C335.488 152.306 335.558 151.768 335.738 151.262C335.917 150.757 336.202 150.296 336.573 149.911C337.332 149.068 341.549 146.736 342.126 148.255C342.745 149.911 338.575 153.731 335.533 152.84Z" fill="#06BCC1" stroke="#263238" stroke-miterlimit="10"/>
<path d="M335.543 152.84L339.703 149.597" stroke="#263238" stroke-width="0.5" stroke-miterlimit="10"/>
<path d="M333.526 138.273L336.427 134.453" stroke="#263238" stroke-width="2" stroke-miterlimit="10"/>
<path d="M335.533 135.601C335.488 135.066 335.558 134.528 335.738 134.023C335.917 133.517 336.202 133.057 336.573 132.672C337.332 131.828 341.549 129.496 342.126 131.016C342.745 132.672 338.575 136.492 335.533 135.601Z" fill="#06BCC1" stroke="#263238" stroke-miterlimit="10"/>
<path d="M335.543 135.601L339.703 132.357" stroke="#263238" stroke-width="0.5" stroke-miterlimit="10"/>
<path d="M333.526 124.717L336.427 120.902" stroke="#263238" stroke-width="2" stroke-miterlimit="10"/>
<path d="M335.533 122.045C335.489 121.511 335.559 120.974 335.738 120.469C335.917 119.965 336.202 119.505 336.573 119.121C337.332 118.277 341.549 115.94 342.126 117.465C342.745 119.121 338.575 122.936 335.533 122.045Z" fill="#06BCC1" stroke="#263238" stroke-miterlimit="10"/>
<path d="M335.543 122.045L339.703 118.801" stroke="#263238" stroke-width="0.5" stroke-miterlimit="10"/>
<path d="M333.349 116.035C333.301 115.502 333.366 114.966 333.54 114.461C333.714 113.956 333.993 113.494 334.358 113.106C335.122 112.267 339.334 109.93 339.916 111.455C340.551 113.106 336.38 116.926 333.349 116.035Z" fill="#06BCC1" stroke="#263238" stroke-miterlimit="10"/>
<path d="M333.349 116.035L337.509 112.791" stroke="#263238" stroke-width="0.5" stroke-miterlimit="10"/>
<path d="M333.552 116.213C333.022 116.206 332.499 116.086 332.019 115.859C331.539 115.632 331.113 115.304 330.77 114.898C330.016 114.043 328.17 109.574 329.73 109.134C331.42 108.693 334.748 113.273 333.552 116.213Z" fill="#06BCC1" stroke="#263238" stroke-miterlimit="10"/>
<path d="M333.552 116.213L330.785 111.707" stroke="#263238" stroke-width="0.5" stroke-miterlimit="10"/>
<path d="M337.129 226.132H327.837L326.672 202.484H338.289L337.129 226.132Z" fill="#263238" stroke="#263238" stroke-miterlimit="10"/>
<path d="M173.899 79.2531C173.899 79.2531 195.738 71.9493 218.556 75.3371" stroke="#263238" stroke-miterlimit="10"/>
<path d="M201.723 74.5036L211.253 62.9907" stroke="#263238" stroke-miterlimit="10"/>
<path d="M195.258 75.124L205.937 84.5751" stroke="#263238" stroke-miterlimit="10"/>
<path d="M206.425 68.4905C206.425 68.4905 204.735 65.0447 208.087 60.6854C210.203 58.0393 213.193 56.2487 216.51 55.641C216.407 58.7843 215.498 61.8471 213.871 64.5307C211.19 68.78 206.425 68.4905 206.425 68.4905Z" stroke="#263238" stroke-miterlimit="10"/>
<path d="M190.886 70.7144C190.886 70.7144 189.2 67.2717 192.548 62.9094C194.665 60.2635 197.657 58.4739 200.975 57.868C200.868 61.0097 199.956 64.0701 198.327 66.7515C195.668 71.0163 190.886 70.7144 190.886 70.7144Z" stroke="#263238" stroke-miterlimit="10"/>
<path d="M201.375 80.4208C202.503 80.1628 203.673 80.1545 204.804 80.3965C205.936 80.6386 207.001 81.1252 207.928 81.8228C211.176 84.2085 211.203 91.049 211.203 91.049C208.363 90.2416 205.721 88.8467 203.445 86.9533C199.718 83.8143 201.375 80.4208 201.375 80.4208Z" stroke="#263238" stroke-miterlimit="10"/>
<path d="M211.334 74.9031C211.334 74.9031 212.973 69.8883 218.36 71.2383C221.501 71.9808 224.237 73.9175 225.994 76.6438C225.994 76.6438 222.867 80.9674 217.854 79.8921C212.841 78.8168 211.334 74.9031 211.334 74.9031Z" stroke="#263238" stroke-miterlimit="10"/>
<path d="M187.68 75.9777L194.711 65.7036" stroke="#263238" stroke-miterlimit="10"/>
<path d="M34.2344 94.2729H53.0792V106.241H42.4036L42.752 111.701L38.566 106.241H34.2344V94.2729Z" stroke="#263238" stroke-miterlimit="10"/>
<path d="M47.536 101.3C48.1075 101.3 48.5708 100.833 48.5708 100.257C48.5708 99.6812 48.1075 99.2144 47.536 99.2144C46.9645 99.2144 46.5012 99.6812 46.5012 100.257C46.5012 100.833 46.9645 101.3 47.536 101.3Z" stroke="#263238" stroke-miterlimit="10"/>
<path d="M43.1472 101.3C43.7187 101.3 44.182 100.833 44.182 100.257C44.182 99.6812 43.7187 99.2144 43.1472 99.2144C42.5757 99.2144 42.1124 99.6812 42.1124 100.257C42.1124 100.833 42.5757 101.3 43.1472 101.3Z" stroke="#263238" stroke-miterlimit="10"/>
<path d="M38.7584 101.3C39.3299 101.3 39.7932 100.833 39.7932 100.257C39.7932 99.6812 39.3299 99.2144 38.7584 99.2144C38.1869 99.2144 37.7236 99.6812 37.7236 100.257C37.7236 100.833 38.1869 101.3 38.7584 101.3Z" stroke="#263238" stroke-miterlimit="10"/>
<path d="M298.931 112.92C298.931 112.92 302.925 113.727 305.317 115.682C307.709 117.636 309.305 122.342 308.166 125.329C307.028 128.316 306.721 128.122 308.088 129.846C309.456 131.57 308.317 134.562 308.317 134.562L299.54 131.805C299.6 129.679 299.774 127.557 300.06 125.449C300.512 122.347 300.283 116.604 298.916 114.995L298.931 112.92Z" fill="#263238" stroke="#263238" stroke-linecap="round" stroke-linejoin="round"/>
<path d="M286.545 186.804L288.027 194.848C287.861 198.132 288.168 201.424 288.937 204.62C290.19 209.336 291.105 219.9 291.105 219.9C291.105 219.9 289.166 221.503 287.112 222.882C285.058 224.26 283.81 225.528 286.659 225.528C289.509 225.528 290.991 224.721 292.697 224.034C294.402 223.348 295.775 222.986 295.775 222.08C295.775 221.173 294.865 217.364 294.865 217.364C294.865 217.364 295.208 203.929 295.208 199.548C295.227 197.036 294.958 194.531 294.407 192.081V187.747L286.545 186.804Z" fill="white" stroke="#263238" stroke-linecap="round" stroke-linejoin="round"/>
<path d="M292.697 224.045C294.407 223.353 295.775 222.997 295.775 222.091C295.746 221.627 295.683 221.167 295.588 220.712C294.782 221.116 293.861 221.598 293.269 221.975C292.015 222.782 290.305 223.584 289.28 223.584C288.518 223.503 287.779 223.272 287.107 222.903C285.058 224.276 283.81 225.523 286.659 225.523C289.509 225.523 290.991 224.731 292.697 224.045Z" fill="#263238" stroke="#263238" stroke-linecap="round" stroke-linejoin="round"/>
<path d="M293.154 189.356L293.497 194.753C293.497 194.753 292.811 201.298 293.497 205.757C294.184 210.216 294.178 218.737 294.178 220.115C294.178 221.493 293.138 222.986 291.329 224.595C291.329 224.595 289.847 226.319 290.533 227.351C291.22 228.383 296.118 226.434 296.253 225.287C296.388 224.139 297.506 221.619 297.506 220.806V217.138C297.506 216.337 300.699 205.542 300.356 201.633C300.013 197.724 300.013 191.986 300.013 191.986L300.127 187.967C300.127 187.967 295.094 189.586 293.154 189.356Z" fill="white" stroke="#263238" stroke-linecap="round" stroke-linejoin="round"/>
<path d="M294.75 225.193C293.081 225.984 292.15 224.475 291.953 224.04C291.76 224.234 291.552 224.422 291.329 224.616C291.329 224.616 289.847 226.34 290.533 227.372C291.22 228.405 296.118 226.455 296.253 225.308C296.388 224.16 297.506 221.64 297.506 220.828C296.955 222.352 295.993 224.6 294.75 225.193Z" fill="#263238" stroke="#263238" stroke-linecap="round" stroke-linejoin="round"/>
<path d="M285.858 153.86C285.858 153.86 281.527 163.512 281.178 168.679C280.83 173.846 283.919 187.517 283.919 187.517C283.919 187.517 289.504 190.137 294.173 189.927C296.947 189.805 299.687 189.263 302.301 188.319C302.301 188.319 306.404 176.267 305.15 169.14C303.897 162.014 300.819 154.667 300.819 154.667L286.181 152.828L285.858 153.86Z" fill="#263238" stroke="#263238" stroke-linecap="round" stroke-linejoin="round"/>
<path d="M292.587 129.51C292.587 129.51 294.522 128.362 296.004 128.362H298.287C298.287 128.362 299.327 132.497 299.327 132.958C299.327 133.419 294.995 154.552 294.995 154.552L286.789 153.745C286.789 153.745 286.789 140.425 287.928 136.4C289.067 132.376 292.587 129.51 292.587 129.51Z" fill="white" stroke="#263238" stroke-linecap="round" stroke-linejoin="round"/>
<path d="M286.181 113.046C286.181 113.046 285.385 117.872 286.41 121.204C287.434 124.537 290.284 128.095 291.428 128.21C292.274 128.213 293.103 127.973 293.82 127.519L293.398 129.054L292.488 134.451L296.591 134.797C296.591 134.797 298.302 128.708 298.302 128.362C298.302 128.016 298.266 127.178 298.266 127.178L297.808 122.583C298.436 121.542 299.007 120.468 299.519 119.365C299.862 118.448 299.061 116.955 299.061 116.955C299.061 116.955 299.883 111.987 297.127 109.488C293.705 106.386 287.767 109.142 286.295 110.635C284.824 112.129 286.181 113.046 286.181 113.046Z" fill="white" stroke="#263238" stroke-linecap="round" stroke-linejoin="round"/>
<path d="M259.212 97.4312H281.962V111.484H269.074L269.497 117.9L264.44 111.484H259.212V97.4312Z" stroke="#263238" stroke-miterlimit="10"/>
<path d="M273.837 104.391C273.837 104.634 273.909 104.871 274.043 105.073C274.177 105.275 274.367 105.432 274.59 105.525C274.812 105.618 275.058 105.643 275.294 105.595C275.53 105.548 275.747 105.431 275.918 105.259C276.088 105.087 276.204 104.869 276.251 104.63C276.299 104.392 276.274 104.145 276.182 103.921C276.09 103.696 275.934 103.505 275.733 103.37C275.533 103.235 275.297 103.163 275.056 103.163C274.896 103.162 274.737 103.193 274.589 103.255C274.441 103.316 274.306 103.407 274.193 103.521C274.08 103.635 273.99 103.771 273.929 103.92C273.868 104.069 273.837 104.229 273.837 104.391Z" stroke="#263238" stroke-miterlimit="10"/>
<path d="M268.962 104.395C268.963 104.638 269.036 104.875 269.17 105.076C269.305 105.278 269.495 105.434 269.718 105.527C269.941 105.619 270.186 105.643 270.422 105.595C270.658 105.547 270.875 105.429 271.045 105.257C271.215 105.086 271.33 104.867 271.377 104.629C271.423 104.39 271.399 104.144 271.307 103.92C271.214 103.696 271.058 103.504 270.858 103.369C270.657 103.235 270.422 103.163 270.181 103.163C270.021 103.163 269.862 103.195 269.714 103.257C269.566 103.319 269.431 103.409 269.318 103.524C269.205 103.639 269.115 103.774 269.054 103.924C268.993 104.074 268.962 104.234 268.962 104.395Z" stroke="#263238" stroke-miterlimit="10"/>
<path d="M263.275 104.395C263.276 104.638 263.348 104.875 263.483 105.076C263.617 105.278 263.808 105.434 264.03 105.527C264.253 105.619 264.498 105.643 264.734 105.595C264.97 105.547 265.187 105.429 265.357 105.257C265.527 105.086 265.643 104.867 265.689 104.629C265.736 104.39 265.712 104.144 265.619 103.92C265.527 103.696 265.371 103.504 265.17 103.369C264.97 103.235 264.735 103.163 264.494 103.163C264.333 103.163 264.174 103.195 264.026 103.257C263.878 103.319 263.743 103.409 263.63 103.524C263.517 103.639 263.427 103.774 263.366 103.924C263.305 104.074 263.274 104.234 263.275 104.395Z" stroke="#263238" stroke-miterlimit="10"/>
<path d="M293.804 127.519L295.369 127.058L293.123 131.045L293.804 127.519Z" fill="#263238" stroke="#263238" stroke-linecap="round" stroke-linejoin="round"/>
<path d="M297.101 109.488C293.461 106.386 287.741 109.142 286.269 110.635C284.798 112.129 286.155 113.046 286.155 113.046C286.155 113.046 286.956 112.244 289.004 113.046C291.053 113.847 292.644 117.987 294.137 118.448C295.073 118.732 296.024 118.961 296.987 119.135C296.987 119.135 296.987 117.411 297.782 117.18C298.189 117.054 298.61 116.978 299.035 116.955C299.035 116.955 299.945 111.898 297.101 109.488Z" fill="#263238" stroke="#263238" stroke-linecap="round" stroke-linejoin="round"/>
<path d="M288.786 118.218L289.701 119.596L289.244 123.269L290.726 123.5" stroke="#263238" stroke-linecap="round" stroke-linejoin="round"/>
<path d="M290.268 124.763C290.578 124.822 290.898 124.8 291.197 124.7C291.496 124.6 291.765 124.425 291.979 124.191" stroke="#263238" stroke-linecap="round" stroke-linejoin="round"/>
<path d="M287.081 118.904L287.419 120.513C287.999 120.579 288.587 120.5 289.129 120.282" stroke="#263238" stroke-linecap="round" stroke-linejoin="round"/>
<path d="M291.75 118.218L291.979 119.942C291.979 119.942 293.575 120.398 294.147 120.052" stroke="#263238" stroke-linecap="round" stroke-linejoin="round"/>
<path d="M286.623 117.757C287.192 117.487 287.831 117.406 288.448 117.526" stroke="#263238" stroke-linecap="round" stroke-linejoin="round"/>
<path d="M290.861 117.071C290.861 117.071 291.318 116.609 292.572 116.84" stroke="#263238" stroke-linecap="round" stroke-linejoin="round"/>
<path d="M293.383 129.054C293.383 129.054 288.365 131.465 287.226 131.674C286.087 131.884 284.033 132.822 284.148 133.623C284.262 134.425 283.695 146.834 284.033 147.64C284.371 148.447 284.033 154.877 283.81 155.679C283.586 156.48 279.941 166.955 279.941 166.955C279.941 166.955 280.742 167.877 282.453 167.186C284.163 166.494 286.555 159.148 287.008 156.276C287.46 153.404 290.544 140.766 291.339 137.894C292.135 135.023 293.383 129.054 293.383 129.054Z" fill="white" stroke="#263238" stroke-linecap="round" stroke-linejoin="round"/>
<path d="M298.286 128.362C298.286 128.362 296.004 137.207 294.865 140.765C293.726 144.323 292.587 146.398 292.785 149.149C292.982 151.9 292.67 165.802 294.724 167.757C296.778 169.711 299.404 170.969 302.004 170.969C303.816 170.923 305.614 170.653 307.36 170.167C307.36 170.167 304.168 152.592 304.168 152.136C304.168 151.68 309.186 135.478 309.071 134.1C308.957 132.722 298.286 128.362 298.286 128.362Z" fill="white" stroke="#263238" stroke-linecap="round" stroke-linejoin="round"/>
<path d="M288.937 139.272C288.952 141.376 289.107 143.477 289.4 145.56C290.206 142.227 290.96 139.136 291.329 137.883C292.13 135.012 293.409 129.043 293.409 129.043C293.409 129.043 292.156 129.646 290.757 130.275C290.112 132.235 288.937 136.311 288.937 139.272Z" fill="#06BCC1" stroke="#263238" stroke-linecap="round" stroke-linejoin="round"/>
<path d="M298.286 128.362C298.286 128.362 296.004 137.207 294.865 140.765C294.251 142.673 293.643 144.156 293.242 145.539C294.898 144.228 296.331 142.654 297.486 140.881C299.358 138.056 300.538 131.674 300.897 129.473C299.394 128.813 298.286 128.362 298.286 128.362Z" fill="#06BCC1" stroke="#263238" stroke-linecap="round" stroke-linejoin="round"/>
<path d="M277.861 152.943L276.722 156.276L275.578 152.026C276.006 151.935 276.451 151.974 276.857 152.137C277.263 152.3 277.613 152.581 277.861 152.943Z" fill="#263238" stroke="#263238" stroke-linecap="round" stroke-linejoin="round"/>
<path d="M269.775 139.943L276.27 151.429L284.704 151.89L279.119 139.943H269.775Z" fill="#263238" stroke="#263238" stroke-linecap="round" stroke-linejoin="round"/>
<path d="M275.599 152.026C275.599 152.026 272.411 147.31 271.959 146.168C271.562 145.219 271.33 144.209 271.273 143.181C271.273 142.489 271.501 142.259 271.845 143.066C272.188 143.873 272.885 145.591 272.885 145.591L273.457 142.144C273.457 142.144 273.8 141.572 274.138 142.259C274.476 142.945 274.138 145.591 274.138 145.591L275.053 141.572C275.053 141.572 275.505 140.765 275.849 141.342C276.192 141.918 275.62 145.13 275.62 145.13L276.66 142.72C276.822 142.723 276.978 142.782 277.102 142.887C277.225 142.992 277.31 143.136 277.341 143.296C277.455 143.868 276.545 146.964 276.545 146.964L278.027 145.471C278.027 145.471 278.594 145.24 278.365 145.932C277.948 146.78 277.454 147.587 276.889 148.342C277.167 149.014 277.395 149.706 277.57 150.412C277.474 150.852 277.32 151.277 277.112 151.675L277.913 152.938L277.455 153.855L275.599 152.026Z" fill="white" stroke="#263238" stroke-linecap="round" stroke-linejoin="round"/>
<path d="M283.81 155.7C283.99 154.466 284.094 153.221 284.122 151.974L277.767 152.498L276.727 156.292L283.487 156.58C283.674 156.124 283.773 155.815 283.81 155.7Z" fill="white" stroke="#263238" stroke-linecap="round" stroke-linejoin="round"/>
<path d="M293.497 148.693C293.497 148.693 289.81 145.77 289.067 145.125C288.063 144.26 286.316 144.559 286.316 144.559C286.316 144.559 283.581 146.398 283.123 146.854C282.666 147.31 282.666 147.776 283.123 147.661C283.952 147.259 284.751 146.799 285.515 146.283L285.63 148.002L288.027 148.693L288.708 148.002C289.046 148.269 289.433 148.465 289.847 148.578C290.232 148.639 290.626 148.599 290.991 148.463L293.154 150.417L293.497 148.693Z" fill="white" stroke="#263238" stroke-linecap="round" stroke-linejoin="round"/>
<path d="M305.239 132.036C305.239 132.036 309.685 132.958 310.252 134.451C310.818 135.945 310.366 159.263 309.908 159.949C309.451 160.636 291.901 151.696 291.901 151.696L293.383 148.248L303.528 151.004L302.821 139.733" fill="white"/>
<path d="M305.239 132.036C305.239 132.036 309.685 132.958 310.252 134.451C310.818 135.945 310.366 159.263 309.908 159.949C309.451 160.636 291.901 151.696 291.901 151.696L293.383 148.248L303.528 151.004L302.821 139.733" stroke="#263238" stroke-linecap="round" stroke-linejoin="round"/>
<path d="M286.342 148.112C286.342 148.112 286.488 145.366 286.581 145.031" stroke="#263238" stroke-linecap="round" stroke-linejoin="round"/>
<path d="M287.252 148.259C287.252 148.259 287.491 145.707 287.585 145.272" stroke="#263238" stroke-linecap="round" stroke-linejoin="round"/>
<path d="M288.708 148.002L288.687 147.342L288.11 147.248" stroke="#263238" stroke-linecap="round" stroke-linejoin="round"/>
<path d="M133.389 70.9789C133.389 70.9789 133.654 71.2461 134.798 71.3352C135.942 71.4243 137.18 71.7806 138.501 71.4243C139.821 71.068 140.612 70.9003 140.175 71.5134C139.738 72.1264 136.649 73.819 136.207 73.9971C135.765 74.1753 134.361 74.2644 134.008 74.6207C133.654 74.977 133.389 75.9516 132.51 76.0407C131.631 76.1298 129.957 72.9334 129.957 72.9334L132.687 70.6226L133.389 70.9789Z" fill="#B0B0B0" stroke="#263238" stroke-linecap="round" stroke-linejoin="round"/>
<path d="M105.995 66.8075C105.995 66.8075 113.307 60.5195 117.888 57.7528C122.469 54.9861 123.436 54.2053 124.055 54.3783C124.674 54.5512 134.455 70.5384 134.455 70.5384L129.343 74.7304L122.828 61.9448C122.828 61.9448 113.577 70.9105 111.201 72.5087C108.824 74.1069 104.061 69.4904 103.801 68.783C103.541 68.0756 105.995 66.8075 105.995 66.8075Z" fill="#263238" stroke="#263238" stroke-linecap="round" stroke-linejoin="round"/>
<path d="M118.996 76.4808L131.528 76.5436L128.532 73.845L117.342 73.5254L118.996 76.4808Z" fill="white" stroke="#263238" stroke-linecap="round" stroke-linejoin="round"/>
<path d="M131.527 76.5435L138.989 66.7342L134.575 65.3613L128.532 73.8449L131.527 76.5435Z" fill="white" stroke="#263238" stroke-linecap="round" stroke-linejoin="round"/>
<path d="M111.456 52.7856L115.512 62.6368L121.85 71.3352C121.85 71.3352 124.144 71.4243 124.58 71.5134C125.017 71.6025 126.255 71.6916 126.785 72.3099C127.221 72.9949 127.547 73.7446 127.752 74.5316L127.232 74.6207L126.192 73.4679L124.258 73.0225C124.258 73.0225 121.965 72.8444 121.44 72.5771C120.914 72.3099 118.356 70.3606 118.356 70.3606L109.896 59.7077L108.575 55.9768L111.456 52.7856Z" fill="#B0B0B0" stroke="#263238" stroke-linecap="round" stroke-linejoin="round"/>
<path d="M121.408 70.2084L119.474 71.7804L109.838 61.6882L108.845 56.422L112.163 53.2256L115.563 61.4367L121.408 70.2084Z" fill="#06BCC1" stroke="#263238" stroke-linecap="round" stroke-linejoin="round"/>
<path d="M107.493 102.136C107.493 102.136 104.056 107.46 103.973 108.172C103.927 108.507 103.999 108.847 104.176 109.134C104.352 109.42 104.622 109.636 104.94 109.744C105.642 110.011 107.051 110.541 107.935 110.986C108.819 111.432 110.753 112.495 112.163 112.495C113.572 112.495 113.925 112.05 113.483 111.61C113.041 111.17 110.4 108.853 110.135 108.324C109.736 107.436 109.413 106.516 109.167 105.573C109.167 105.306 109.958 102.822 109.958 102.822L107.493 102.136Z" fill="#B0B0B0" stroke="#263238" stroke-linecap="round" stroke-linejoin="round"/>
<path d="M94.6335 65.3247C93.1535 67.3079 92.4618 69.7765 92.6939 72.2468C93.2139 76.7741 96.9215 77.9321 100.27 78.9068C103.619 79.8814 116.302 83.256 116.302 83.256C116.302 83.256 112.693 87.0707 111.367 90.2671C110.041 93.4635 106.526 102.696 106.526 102.696L112.953 105.673L121.237 88.6427C121.237 88.6427 123.26 85.0061 123.613 83.1407C123.967 81.2753 123.436 80.1225 123.259 79.8552C123.083 79.588 112.163 72.1367 110.135 70.8005C108.972 70.0249 107.733 69.3717 106.437 68.8512L94.6335 65.3247Z" fill="#263238" stroke="#263238" stroke-linecap="round" stroke-linejoin="round"/>
<path d="M111.097 47.8127C111.097 47.8127 109.688 43.0181 107.457 42.3998C105.226 41.7814 102.699 43.9718 100.697 46.3926C98.6947 48.8135 99.0223 54.4675 99.0223 56.0657C99.0223 57.6639 94.5295 64.6802 94.0875 66.1841C94.0875 66.1841 95.9387 67.5203 99.5527 68.3168C101.958 68.806 104.411 69.0152 106.864 68.9404C106.864 68.9404 107.566 63.8785 107.743 62.2803C107.92 60.6821 109.152 58.3765 110.119 57.753C111.086 57.1294 112.059 55.3583 112.147 53.2256C112.236 51.0929 111.097 47.8127 111.097 47.8127Z" fill="#06BCC1" stroke="#263238" stroke-linecap="round" stroke-linejoin="round"/>
<path d="M118.33 71.2461L120.441 72.2207C120.441 72.2207 124.845 72.488 125.199 72.488C125.553 72.488 126.343 75.0608 126.343 75.0608C126.343 75.0608 126.078 75.3281 125.729 74.977C125.381 74.6259 125.022 74.1753 125.022 74.1753C125.022 74.1753 122.823 74.3534 121.939 74.3534C121.055 74.3534 119.474 73.3054 119.474 73.3054L117.337 72.3989L118.33 71.2461Z" fill="#B0B0B0" stroke="#263238" stroke-linecap="round" stroke-linejoin="round"/>
<path d="M102.558 48.5204C102.558 48.5204 105.293 58.0205 106.261 60.4152C107.228 62.8099 109.698 65.7443 110.577 66.8971C111.455 68.0499 118.065 73.1851 118.065 73.1851L119.474 71.765L112.454 61.1697C112.454 61.1697 108.902 47.0217 108.991 46.5554C109.079 46.089 107.951 44.8681 107.139 44.6899" fill="#06BCC1"/>
<path d="M102.558 48.5204C102.558 48.5204 105.293 58.0205 106.261 60.4152C107.228 62.8099 109.698 65.7443 110.577 66.8971C111.455 68.0499 118.065 73.1851 118.065 73.1851L119.474 71.765L112.454 61.1697C112.454 61.1697 108.902 47.0217 108.991 46.5554C109.079 46.089 107.951 44.8681 107.139 44.6899" stroke="#263238" stroke-linecap="round" stroke-linejoin="round"/>
<path d="M123.613 32.9889C123.613 32.9889 123.878 36.1853 123.436 37.2491C122.994 38.3128 120.977 38.9363 120.977 39.8219C120.977 40.7075 121.065 41.5983 120.623 41.9546C120.181 42.3109 119.391 41.9546 119.391 41.9546C119.234 42.4512 118.927 42.8856 118.512 43.1965C117.805 43.7205 117.93 43.7205 117.93 43.7205C117.343 44.2842 116.584 44.6313 115.777 44.7056C114.633 44.7056 113.754 43.1074 113.489 42.9292C113.224 42.7511 112.506 43.2541 111.814 43.7309C110.904 44.3545 110.228 47.7238 110.228 47.7238C110.228 47.7238 107.675 42.8401 107.41 42.7511C107.145 42.662 105.533 42.5519 105.533 42.5519C105.533 42.5519 108.133 41.2419 108.466 40.1782C108.798 39.1145 108.466 37.4272 108.466 37.0709C108.466 36.7146 108.642 33.078 110.14 31.2126C111.638 29.3471 117.976 28.8179 120.353 28.645C122.729 28.4721 123.613 32.9889 123.613 32.9889Z" fill="#B0B0B0" stroke="#263238" stroke-linecap="round" stroke-linejoin="round"/>
<path d="M123.613 32.9888C123.613 32.9888 122.734 32.4648 122.573 33.9635C122.412 35.4621 122.662 35.5617 121.601 35.6507C120.54 35.7398 120.103 36.0071 120.103 36.6306C120.103 37.2542 119.313 37.5162 118.694 37.5162C118.075 37.5162 117.55 36.6306 117.196 37.5162C116.843 38.4017 115.636 38.8471 114.82 38.8471C114.004 38.8471 113.941 39.3711 112.532 39.6489C111.123 39.9266 110.858 38.4017 110.858 38.4017C110.1 38.5619 109.335 38.6808 108.564 38.7581C108.044 38.7581 108.128 36.5415 108.128 36.5415C107.459 36.6682 106.78 36.7262 106.1 36.7145C105.58 36.6306 105.132 35.3835 105.132 34.9433C105.132 34.5032 104.16 33.7853 104.16 33.167V32.119C104.16 32.119 103.9 30.6099 104.072 30.2535C104.243 29.8972 105.377 29.1689 105.377 28.7287C105.377 28.2885 105.023 26.2449 105.637 25.4432C106.25 24.6415 106.874 23.8712 107.488 23.8712C108.102 23.8712 108.284 22.7184 109.251 22.5403C109.918 22.4032 110.598 22.3434 111.279 22.3621C111.981 22.3621 112.423 21.4765 113.213 21.3141C114.254 21.2288 115.302 21.3499 116.297 21.6704C116.65 21.8486 116.916 21.8486 117.618 21.5813C118.076 21.4816 118.55 21.4853 119.007 21.5922C119.464 21.6991 119.891 21.9066 120.259 22.1997C120.796 22.6959 121.475 23.0078 122.199 23.0905C122.641 23.0905 123.078 22.8232 123.696 23.976C124.315 25.1288 125.371 25.307 125.984 25.8415C126.241 26.0699 126.434 26.3627 126.543 26.6903C126.651 27.0179 126.672 27.3686 126.603 27.7069C126.515 28.3252 126.957 28.8597 127.31 29.5671C127.472 29.8547 127.549 30.1826 127.534 30.5127C127.518 30.8428 127.41 31.1617 127.222 31.4325C126.868 31.8779 127.134 32.7635 127.222 33.1198C127.31 33.4761 126.338 34.1678 125.548 34.4508C124.757 34.7337 123.967 35.1215 123.613 32.9888Z" fill="#263238" stroke="#263238" stroke-linecap="round" stroke-linejoin="round"/>
<path d="M120.727 39.1773C120.535 39.5232 120.259 39.738 120.108 39.6542C119.957 39.5703 119.983 39.2192 120.171 38.8734C120.358 38.5276 120.633 38.3127 120.789 38.3966C120.945 38.4804 120.914 38.8315 120.727 39.1773Z" fill="#263238"/>
<path d="M120.29 37.275C120.29 37.275 121.237 36.7982 121.788 38.2287" stroke="#263238" stroke-linecap="round" stroke-linejoin="round"/>
<path d="M61.4343 138.285C61.4343 138.285 63.0255 140.8 63.4779 141.565C63.9303 142.33 63.8575 144.017 63.8575 144.017L65.6827 145.851L63.5143 147.538C63.5143 147.538 61.2315 146.008 60.7791 145.778C60.3217 145.57 59.8331 145.441 59.3335 145.395C59.1047 145.395 56.9779 142.712 56.9779 142.712L55.7143 141.848L56.4631 139.752L59.8067 140.747L61.4343 138.285Z" fill="#CFCFCF" stroke="#263238" stroke-linecap="round" stroke-linejoin="round"/>
<path d="M53.6499 138.615L61.1743 145.851L63.9095 143.441L57.1859 137.006L53.6499 138.615Z" fill="#263238" stroke="#263238" stroke-linecap="round" stroke-linejoin="round"/>
<path d="M60.3371 137.986C60.2117 137.993 60.0924 138.043 59.9982 138.126C59.9039 138.21 59.8401 138.323 59.8171 138.447C59.6611 139.286 59.4011 141.01 59.9055 141.156C60.0175 141.203 60.139 141.221 60.2597 141.21C60.3803 141.199 60.4966 141.159 60.5986 141.094C60.7006 141.028 60.7854 140.938 60.8458 140.832C60.9062 140.726 60.9404 140.608 60.9455 140.486C61.0391 140.003 61.6111 138.667 61.4187 138.285C61.2575 137.981 60.8727 137.976 60.3371 137.986Z" fill="#CFCFCF" stroke="#263238" stroke-linecap="round" stroke-linejoin="round"/>
<path d="M55.2463 139.653C55.2463 139.653 54.2063 141.602 55.0175 142.178C55.8287 142.755 55.8183 141.602 56.0575 140.916C56.2967 140.229 56.2707 139.307 55.2463 139.653Z" fill="#CFCFCF" stroke="#263238" stroke-linecap="round" stroke-linejoin="round"/>
<path d="M57.1859 141.602C57.1859 141.602 56.2707 143.441 56.6139 144.017C56.9571 144.594 57.4147 144.017 57.6539 143.441C57.8516 143.089 57.9688 142.697 57.9971 142.293C58.0023 141.287 57.1859 141.602 57.1859 141.602Z" fill="#CFCFCF" stroke="#263238" stroke-linecap="round" stroke-linejoin="round"/>
<path d="M58.1323 142.425C58.1323 142.425 57.2223 144.259 57.5603 144.835C57.8983 145.412 58.3611 144.835 58.6003 144.259C58.7993 143.908 58.915 143.515 58.9383 143.111C58.9539 142.105 58.1323 142.425 58.1323 142.425Z" fill="#CFCFCF" stroke="#263238" stroke-linecap="round" stroke-linejoin="round"/>
<path d="M59.2139 143.331C59.2139 143.331 58.3039 145.17 58.6471 145.747C58.9903 146.323 59.4427 145.747 59.6871 145.17C59.8848 144.818 60.002 144.426 60.0303 144.023C60.0355 143.017 59.2139 143.331 59.2139 143.331Z" fill="#CFCFCF" stroke="#263238" stroke-linecap="round" stroke-linejoin="round"/>
<path d="M65.5059 144.783L62.2403 148.152L70.8983 155.273L71.7355 149.378L65.5059 144.783Z" fill="#06BCC1" stroke="#263238" stroke-linecap="round" stroke-linejoin="round"/>
<path d="M69.7231 159.355C69.7231 159.355 68.0799 165.449 68.1631 166.382C68.2254 166.93 68.2601 167.481 68.2671 168.033C68.2671 168.033 63.6495 173.718 61.2939 178.78C58.9383 183.842 58.7303 186.739 59.4479 187.253C60.1655 187.766 69.9051 192.11 70.9295 192.32L71.9695 192.524L80.2895 195.417L81.1111 196.349L82.7491 195.825C83.4667 195.412 83.8775 192.624 84.0855 191.487C84.2935 190.35 84.8031 189.831 84.2883 189.731C83.8115 189.675 83.3298 189.675 82.8531 189.731C82.8531 189.731 83.1599 189.108 82.6503 189.108H81.1943C81.1943 189.108 74.4343 186.32 73.3007 185.702C72.1671 185.083 69.3019 183.532 69.3019 183.532L75.9943 178.68C75.9943 178.68 84.0959 173.928 85.2243 171.963C86.3527 169.998 86.9663 166.277 86.9663 164.726C86.9663 163.175 75.7863 157.914 73.8415 157.914C71.8967 157.914 69.8219 158.323 69.7231 159.355Z" fill="#263238" stroke="#263238" stroke-linecap="round" stroke-linejoin="round"/>
<path d="M84.2831 189.736C84.2831 189.736 90.0031 189.941 90.8455 190.355C91.6879 190.769 91.6671 192.215 91.6671 193.247C91.6671 194.279 90.8455 196.658 91.0535 197.795C91.2615 198.933 91.2979 200.284 91.4591 201.93C91.7711 205.027 90.8715 205.352 90.3359 205.236C88.3859 204.822 88.1779 202.443 87.2575 200.174C86.3371 197.905 85.8223 196.658 85.8223 196.658L82.7543 195.82C82.7543 195.82 83.3627 191.287 84.2831 189.736Z" fill="white" stroke="#263238" stroke-linecap="round" stroke-linejoin="round"/>
<path d="M90.8455 190.355C90.3737 190.2 89.8846 190.105 89.3895 190.072C89.8008 191.649 90.0139 193.272 90.0239 194.903C90.0239 198.105 90.6427 201.825 90.3359 204.204C90.2839 204.587 90.2319 204.906 90.1799 205.189C90.231 205.208 90.283 205.224 90.3359 205.236C90.8559 205.352 91.7711 205.027 91.4591 201.93C91.2979 200.285 91.2563 198.933 91.0535 197.796C90.8507 196.658 91.6671 194.279 91.6671 193.247C91.6671 192.215 91.6671 190.769 90.8455 190.355Z" fill="white" stroke="#263238" stroke-linecap="round" stroke-linejoin="round"/>
<path d="M70.9763 168.048C70.9763 168.048 72.2295 175.861 71.7719 180.451C71.3143 185.041 71.6627 195.27 72.1151 198.141C72.5675 201.013 72.2295 209.627 72.2295 211.121C72.2442 211.851 72.206 212.581 72.1151 213.306C72.1151 213.306 70.8619 213.191 70.9763 213.877C71.0474 214.333 71.0857 214.794 71.0907 215.255C71.8866 215.895 72.8256 216.328 73.8259 216.518C75.5367 216.864 77.3619 217.21 77.6999 216.749C78.0379 216.287 77.9287 214.799 77.9287 214.799C78.1155 214.624 78.263 214.41 78.3616 214.172C78.4603 213.935 78.5077 213.679 78.5007 213.421V212.012C78.5007 212.012 80.0971 205.352 79.9827 201.332C79.8683 197.313 79.0675 195.013 79.2963 193.996C79.5251 192.98 84.6523 177.228 84.6523 177.228C84.6523 177.228 86.2487 173.781 86.5919 171.601C86.8339 169.704 86.395 167.782 85.3543 166.183C84.6679 165.266 74.1847 162.394 74.1847 162.394" fill="#263238"/>
<path d="M70.9763 168.048C70.9763 168.048 72.2295 175.861 71.7719 180.451C71.3143 185.041 71.6627 195.27 72.1151 198.141C72.5675 201.013 72.2295 209.627 72.2295 211.121C72.2442 211.851 72.206 212.581 72.1151 213.306C72.1151 213.306 70.8619 213.191 70.9763 213.877C71.0474 214.333 71.0857 214.794 71.0907 215.255C71.8866 215.895 72.8256 216.328 73.8259 216.518C75.5367 216.864 77.3619 217.21 77.6999 216.749C78.0379 216.287 77.9287 214.799 77.9287 214.799C78.1155 214.624 78.263 214.41 78.3616 214.172C78.4603 213.935 78.5077 213.679 78.5007 213.421V212.012C78.5007 212.012 80.0971 205.352 79.9827 201.332C79.8683 197.313 79.0675 195.013 79.2963 193.996C79.5251 192.98 84.6523 177.228 84.6523 177.228C84.6523 177.228 86.2487 173.781 86.5919 171.601C86.8339 169.704 86.395 167.782 85.3543 166.183C84.6679 165.266 74.1847 162.394 74.1847 162.394" stroke="#263238" stroke-linecap="round" stroke-linejoin="round"/>
<path d="M73.8675 132.27C73.8675 132.27 71.0751 138.149 71.0751 141.817C71.0751 145.485 69.9779 151.705 69.9779 153.408C69.9779 155.111 68.4543 157.673 69.1303 159.14C69.8063 160.607 73.6959 160.586 74.0339 160.586C74.3719 160.586 76.5767 160.67 76.9979 160.503C77.4191 160.335 78.1835 146.266 78.1835 143.027C78.1835 139.789 78.3499 131.499 78.2667 130.493C78.1835 129.487 74.8815 130.394 73.8675 132.27Z" fill="white" stroke="#263238" stroke-linecap="round" stroke-linejoin="round"/>
<path d="M78.5007 126.443C76.2245 130.339 74.824 134.691 74.3979 139.192C73.5971 146.889 71.4339 160.555 73.0303 162.048C74.6267 163.542 78.6151 164.574 80.4351 165.496C82.2551 166.419 85.2243 167.907 86.2487 168.483C87.2731 169.06 88.9839 168.368 88.9839 168.368C88.9839 168.368 90.3515 156.19 89.8991 150.793C89.4467 145.396 88.7603 136.32 86.5919 131.955C84.4235 127.59 79.0675 125.866 78.5007 126.443Z" fill="#06BCC1" stroke="#263238" stroke-linecap="round" stroke-linejoin="round"/>
<path d="M78.7295 165.496L77.3619 166.989L79.6395 170.086L81.0071 167.445L78.7295 165.496Z" fill="#CFCFCF" stroke="#263238" stroke-linecap="round" stroke-linejoin="round"/>
<path d="M78.7295 134.25C78.7295 134.25 76.7899 139.307 77.8143 143.441C78.8387 147.575 81.5791 156.19 81.5791 156.19L78.1575 165.496L81.5791 168.598C81.5791 168.598 88.7603 156.651 88.7603 155.042C88.7603 153.434 87.1639 137.006 86.4775 134.826C85.7911 132.646 84.6523 130.577 82.9467 130.577" fill="#06BCC1"/>
<path d="M78.7295 134.25C78.7295 134.25 76.7899 139.307 77.8143 143.441C78.8387 147.575 81.5791 156.19 81.5791 156.19L78.1575 165.496L81.5791 168.598C81.5791 168.598 88.7603 156.651 88.7603 155.042C88.7603 153.434 87.1639 137.006 86.4775 134.826C85.7911 132.646 84.6523 130.577 82.9467 130.577" stroke="#263238" stroke-linecap="round" stroke-linejoin="round"/>
<path d="M71.5483 215.575C71.5483 215.575 70.7475 215.921 70.7475 216.492C70.7475 217.063 70.0663 220.16 70.0663 220.16C70.0663 220.16 64.4815 222.109 63.4519 222.34C62.4223 222.57 62.0843 224.409 62.4119 224.96C62.7395 225.51 66.5147 226.008 69.8219 226.112C73.1291 226.217 77.0031 226.228 77.3463 225.651C77.6895 225.075 77.5699 219.447 77.5699 219.447L77.6843 216.691C75.6088 216.513 73.5545 216.139 71.5483 215.575Z" fill="white" stroke="#263238" stroke-linecap="round" stroke-linejoin="round"/>
<path d="M62.3235 224.671C62.3383 224.783 62.3736 224.892 62.4275 224.991C62.7707 225.567 66.5303 226.039 69.8375 226.144C73.1447 226.249 77.0187 226.259 77.3619 225.683C77.4386 225.476 77.4825 225.259 77.4919 225.038C72.5987 225.882 65.5423 225.112 62.3235 224.671Z" fill="white" stroke="#263238" stroke-linecap="round" stroke-linejoin="round"/>
<path d="M62.1987 112.315C62.1987 112.315 59.8067 114.495 60.0355 117.597C60.2643 120.699 60.7167 121.847 61.0755 122.193C61.504 122.538 61.9616 122.845 62.4431 123.11C62.4431 123.11 62.2143 126.442 62.9007 126.673C63.5359 126.81 64.1882 126.849 64.8351 126.788C64.8351 126.788 66.6603 130.116 67.6847 130.231C68.7091 130.346 70.7631 128.282 70.7631 128.282L74.1847 131.379L78.0587 125.405L75.8955 122.995C75.8955 122.995 76.9355 116.565 75.4379 113.117C73.9403 109.669 65.0743 107.951 62.1987 112.315Z" fill="#CFCFCF" stroke="#263238" stroke-linecap="round" stroke-linejoin="round"/>
<path d="M70.7475 128.276L72.3387 126.657L72.0891 129.036L70.7475 128.276Z" fill="#263238" stroke="#263238" stroke-linecap="round" stroke-linejoin="round"/>
<path d="M72.3543 122.533C72.3543 122.533 74.3875 122.691 75.9423 122.623C76.1295 121.202 76.7015 116.067 75.4223 113.117C73.9403 109.669 65.0223 107.951 62.1987 112.315C61.3606 113.147 60.7236 114.162 60.3371 115.281C60.4983 115.549 60.7271 115.7 61.0599 115.412C61.8555 114.726 64.2527 114.495 64.4815 115.758C64.7103 117.021 64.4815 118.174 65.8491 117.828C66.5601 117.6 67.3291 117.641 68.0123 117.943C68.0123 117.943 68.9223 119.552 69.4943 119.206C70.0663 118.86 69.6087 118.158 70.2951 117.367C70.9815 116.576 73.5971 117.828 73.7115 119.552C73.8259 121.276 72.3543 122.533 72.3543 122.533Z" fill="#263238" stroke="#263238" stroke-linecap="round" stroke-linejoin="round"/>
<path d="M64.5543 122.125C64.8039 122.429 64.8663 122.79 64.6895 122.937C64.5127 123.084 64.1695 122.937 63.9251 122.649C63.6807 122.361 63.6131 121.983 63.7899 121.837C63.9667 121.69 64.2787 121.821 64.5543 122.125Z" fill="#263238"/>
<path d="M62.8331 121.716C62.8331 121.716 62.5575 120.668 63.8731 120.668" stroke="#263238" stroke-linecap="round" stroke-linejoin="round"/>
<path d="M77.7571 124.341L72.8535 131.84L75.0531 134.737L79.9567 125.96L77.7571 124.341Z" fill="white" stroke="#263238" stroke-linecap="round" stroke-linejoin="round"/>
<defs>
<filter id="filter0_d_664_1910" x="244.045" y="73.9434" width="64.5303" height="149.757" filterUnits="userSpaceOnUse" color-interpolation-filters="sRGB">
<feFlood flood-opacity="0" result="BackgroundImageFix"/>
<feColorMatrix in="SourceAlpha" type="matrix" values="0 0 0 0 0 0 0 0 0 0 0 0 0 0 0 0 0 0 127 0" result="hardAlpha"/>
<feOffset dy="1"/>
<feComposite in2="hardAlpha" operator="out"/>
<feColorMatrix type="matrix" values="0 0 0 0 0.0235294 0 0 0 0 0.737255 0 0 0 0 0.756863 0 0 0 1 0"/>
<feBlend mode="normal" in2="BackgroundImageFix" result="effect1_dropShadow_664_1910"/>
<feBlend mode="normal" in="SourceGraphic" in2="effect1_dropShadow_664_1910" result="shape"/>
</filter>
<filter id="filter1_d_664_1910" x="172.976" y="73.9434" width="71.5444" height="149.757" filterUnits="userSpaceOnUse" color-interpolation-filters="sRGB">
<feFlood flood-opacity="0" result="BackgroundImageFix"/>
<feColorMatrix in="SourceAlpha" type="matrix" values="0 0 0 0 0 0 0 0 0 0 0 0 0 0 0 0 0 0 127 0" result="hardAlpha"/>
<feOffset dy="1"/>
<feComposite in2="hardAlpha" operator="out"/>
<feColorMatrix type="matrix" values="0 0 0 0 0.0235294 0 0 0 0 0.737255 0 0 0 0 0.756863 0 0 0 1 0"/>
<feBlend mode="normal" in2="BackgroundImageFix" result="effect1_dropShadow_664_1910"/>
<feBlend mode="normal" in="SourceGraphic" in2="effect1_dropShadow_664_1910" result="shape"/>
</filter>
<filter id="filter2_d_664_1910" x="115.826" y="71.9858" width="50.1782" height="153.671" filterUnits="userSpaceOnUse" color-interpolation-filters="sRGB">
<feFlood flood-opacity="0" result="BackgroundImageFix"/>
<feColorMatrix in="SourceAlpha" type="matrix" values="0 0 0 0 0 0 0 0 0 0 0 0 0 0 0 0 0 0 127 0" result="hardAlpha"/>
<feOffset dy="1"/>
<feComposite in2="hardAlpha" operator="out"/>
<feColorMatrix type="matrix" values="0 0 0 0 0.0235294 0 0 0 0 0.737255 0 0 0 0 0.756863 0 0 0 1 0"/>
<feBlend mode="normal" in2="BackgroundImageFix" result="effect1_dropShadow_664_1910"/>
<feBlend mode="normal" in="SourceGraphic" in2="effect1_dropShadow_664_1910" result="shape"/>
</filter>
<filter id="filter3_d_664_1910" x="42.9222" y="73.9434" width="65.8252" height="151.714" filterUnits="userSpaceOnUse" color-interpolation-filters="sRGB">
<feFlood flood-opacity="0" result="BackgroundImageFix"/>
<feColorMatrix in="SourceAlpha" type="matrix" values="0 0 0 0 0 0 0 0 0 0 0 0 0 0 0 0 0 0 127 0" result="hardAlpha"/>
<feOffset dy="1"/>
<feComposite in2="hardAlpha" operator="out"/>
<feColorMatrix type="matrix" values="0 0 0 0 0.0235294 0 0 0 0 0.737255 0 0 0 0 0.756863 0 0 0 1 0"/>
<feBlend mode="normal" in2="BackgroundImageFix" result="effect1_dropShadow_664_1910"/>
<feBlend mode="normal" in="SourceGraphic" in2="effect1_dropShadow_664_1910" result="shape"/>
</filter>
<filter id="filter4_d_664_1910" x="240.795" y="70.6685" width="71.0303" height="156.307" filterUnits="userSpaceOnUse" color-interpolation-filters="sRGB">
<feFlood flood-opacity="0" result="BackgroundImageFix"/>
<feColorMatrix in="SourceAlpha" type="matrix" values="0 0 0 0 0 0 0 0 0 0 0 0 0 0 0 0 0 0 127 0" result="hardAlpha"/>
<feOffset dy="1"/>
<feComposite in2="hardAlpha" operator="out"/>
<feColorMatrix type="matrix" values="0 0 0 0 0.0235294 0 0 0 0 0.737255 0 0 0 0 0.756863 0 0 0 1 0"/>
<feBlend mode="normal" in2="BackgroundImageFix" result="effect1_dropShadow_664_1910"/>
<feBlend mode="normal" in="SourceGraphic" in2="effect1_dropShadow_664_1910" result="shape"/>
</filter>
<filter id="filter5_d_664_1910" x="169.726" y="70.6685" width="78.0444" height="156.307" filterUnits="userSpaceOnUse" color-interpolation-filters="sRGB">
<feFlood flood-opacity="0" result="BackgroundImageFix"/>
<feColorMatrix in="SourceAlpha" type="matrix" values="0 0 0 0 0 0 0 0 0 0 0 0 0 0 0 0 0 0 127 0" result="hardAlpha"/>
<feOffset dy="1"/>
<feComposite in2="hardAlpha" operator="out"/>
<feColorMatrix type="matrix" values="0 0 0 0 0.0235294 0 0 0 0 0.737255 0 0 0 0 0.756863 0 0 0 1 0"/>
<feBlend mode="normal" in2="BackgroundImageFix" result="effect1_dropShadow_664_1910"/>
<feBlend mode="normal" in="SourceGraphic" in2="effect1_dropShadow_664_1910" result="shape"/>
</filter>
<filter id="filter6_d_664_1910" x="112.576" y="68.7109" width="56.6782" height="160.221" filterUnits="userSpaceOnUse" color-interpolation-filters="sRGB">
<feFlood flood-opacity="0" result="BackgroundImageFix"/>
<feColorMatrix in="SourceAlpha" type="matrix" values="0 0 0 0 0 0 0 0 0 0 0 0 0 0 0 0 0 0 127 0" result="hardAlpha"/>
<feOffset dy="1"/>
<feComposite in2="hardAlpha" operator="out"/>
<feColorMatrix type="matrix" values="0 0 0 0 0.0235294 0 0 0 0 0.737255 0 0 0 0 0.756863 0 0 0 1 0"/>
<feBlend mode="normal" in2="BackgroundImageFix" result="effect1_dropShadow_664_1910"/>
<feBlend mode="normal" in="SourceGraphic" in2="effect1_dropShadow_664_1910" result="shape"/>
</filter>
<filter id="filter7_d_664_1910" x="39.6722" y="70.6685" width="72.3252" height="158.264" filterUnits="userSpaceOnUse" color-interpolation-filters="sRGB">
<feFlood flood-opacity="0" result="BackgroundImageFix"/>
<feColorMatrix in="SourceAlpha" type="matrix" values="0 0 0 0 0 0 0 0 0 0 0 0 0 0 0 0 0 0 127 0" result="hardAlpha"/>
<feOffset dy="1"/>
<feComposite in2="hardAlpha" operator="out"/>
<feColorMatrix type="matrix" values="0 0 0 0 0.0235294 0 0 0 0 0.737255 0 0 0 0 0.756863 0 0 0 1 0"/>
<feBlend mode="normal" in2="BackgroundImageFix" result="effect1_dropShadow_664_1910"/>
<feBlend mode="normal" in="SourceGraphic" in2="effect1_dropShadow_664_1910" result="shape"/>
</filter>
</defs>
</svg>
