<svg width="360" height="360" viewBox="0 0 360 360" fill="none" xmlns="http://www.w3.org/2000/svg">
<path d="M117.792 287.165C117.792 287.165 163.591 307.361 211.19 283.968C258.79 260.575 285.228 209.182 307.742 168.113C330.257 127.044 321.422 82.9585 287.546 60.6889C253.67 38.4193 228.024 65.7289 178.711 63.5689C129.398 61.4089 116.597 53.3449 74.0376 78.4225C31.4784 103.5 20.0448 169.2 49.2768 220.572C78.5088 271.944 117.792 287.165 117.792 287.165Z" fill="#06BCC1"/>
<path opacity="0.7" d="M117.792 287.165C117.792 287.165 163.591 307.361 211.19 283.968C258.79 260.575 285.228 209.182 307.742 168.113C330.257 127.044 321.422 82.9585 287.546 60.6889C253.67 38.4193 228.024 65.7289 178.711 63.5689C129.398 61.4089 116.597 53.3449 74.0376 78.4225C31.4784 103.5 20.0448 169.2 49.2768 220.572C78.5088 271.944 117.792 287.165 117.792 287.165Z" fill="white"/>
<path d="M75.5136 98.7408C64.5233 112.856 57.758 129.797 56.0016 147.6L42.48 145.627C44.5938 125.33 52.4067 106.045 65.016 90L75.5136 98.7408Z" stroke="#808080" stroke-linecap="round" stroke-linejoin="round"/>
<path d="M193.817 256.817C174.83 265.029 153.894 267.658 133.466 264.395C113.038 261.131 93.9637 252.111 78.48 238.392L87.5448 228.168C101.087 240.156 117.764 248.038 135.624 250.889C153.484 253.74 171.787 251.443 188.388 244.267L193.817 256.817Z" stroke="#808080" stroke-linecap="round" stroke-linejoin="round"/>
<path d="M150.581 157.039V48.3194C122.066 48.2838 94.6861 59.4877 74.376 79.5026L83.6712 89.5466L87.5952 93.773L94.4568 101.16L143.503 153.943L146.383 157.061L146.765 157.471L148.068 158.868L148.514 159.351L149.234 160.071L150.322 161.244L148.478 161.784L118.57 229.5C111.083 226.194 104.158 221.741 98.0424 216.303L145.634 162.612L141.17 163.915L75.744 183.024L66.0528 185.854L60.516 187.467L47.376 191.304C53.4204 209.463 64.1496 225.706 78.48 238.392L87.5376 228.168C101.08 240.156 117.757 248.038 135.617 250.889C153.477 253.74 171.779 251.443 188.381 244.267L186.113 238.975L182.11 229.723C174.799 232.9 167.047 234.944 159.12 235.786L150.581 157.039ZM150.581 157.039L142.07 78.293C128.241 79.7633 115.049 84.8737 103.838 93.1034L150.581 157.039Z" stroke="#808080" stroke-linecap="round" stroke-linejoin="round"/>
<path d="M79.92 102.442C69.6107 115.729 63.2885 131.672 61.6896 148.414L56.0016 147.6C57.7607 129.802 64.5259 112.867 75.5136 98.7554L79.92 102.442Z" stroke="#808080" stroke-linecap="round" stroke-linejoin="round"/>
<path d="M145.642 162.612L147.247 160.798L148.334 159.574L148.55 159.329L150.581 157.04H146.419H145.296H121.284H71.3808" stroke="#808080" stroke-linecap="round" stroke-linejoin="round"/>
<path d="M61.3008 157.04H55.5408H33.9408" stroke="#808080" stroke-linecap="round" stroke-linejoin="round"/>
<path d="M78.4728 238.392L66.3408 252.079" stroke="#808080" stroke-linecap="round" stroke-linejoin="round"/>
<path d="M87.5376 228.168L91.3608 223.856L98.0496 216.303" stroke="#808080" stroke-linecap="round" stroke-linejoin="round"/>
<path d="M245.621 157.04C245.626 175.577 240.211 193.712 230.04 209.21C219.87 224.709 205.389 236.895 188.381 244.268L186.084 238.976C200.232 232.846 212.551 223.157 221.842 210.853C231.133 198.548 237.079 184.047 239.101 168.762C241.123 153.477 239.152 137.928 233.38 123.631C227.608 109.334 218.232 96.7752 206.165 87.178L209.765 82.6636C220.959 91.5585 229.998 102.868 236.207 115.747C242.416 128.626 245.634 142.742 245.621 157.04Z" stroke="#808080" stroke-linecap="round" stroke-linejoin="round"/>
<path d="M206.165 87.1779L199.886 95.0979C194.601 90.8749 188.793 87.3515 182.606 84.6147L186.682 75.3843C193.653 78.4668 200.201 82.4303 206.165 87.1779Z" stroke="#808080" stroke-linecap="round" stroke-linejoin="round"/>
<path d="M209.758 82.6634L229.061 58.3994H250.661" stroke="#808080" stroke-linecap="round" stroke-linejoin="round"/>
<path d="M199.886 95.062L150.581 157.04" stroke="#808080" stroke-linecap="round" stroke-linejoin="round"/>
<path d="M143.669 93.089L142.07 78.293C128.241 79.7633 115.049 84.8737 103.838 93.1034L112.622 105.12C121.728 98.44 132.44 94.289 143.669 93.089Z" stroke="#808080" stroke-linecap="round" stroke-linejoin="round"/>
<path d="M157.745 223.337L159.12 235.786C167.047 234.944 174.799 232.9 182.11 229.724L177.07 218.06C170.943 220.816 164.422 222.597 157.745 223.337Z" stroke="#808080" stroke-linecap="round" stroke-linejoin="round"/>
<path d="M159.12 235.786C145.298 237.269 131.329 235.102 118.606 229.5L148.514 161.784L145.67 162.612L98.0784 216.303C89.6932 208.876 82.9819 199.751 78.3892 189.534C73.7965 179.317 71.4272 168.241 71.4384 157.04C71.4384 154.62 71.5464 152.223 71.7696 149.84C73.1022 134.95 78.6407 120.747 87.7392 108.886C89.8337 106.152 92.1041 103.556 94.536 101.117C97.4401 98.1971 100.57 95.5104 103.896 93.082L150.638 157.018L159.12 235.786Z" stroke="#808080" stroke-linecap="round" stroke-linejoin="round"/>
<path d="M188.741 70.6396L186.66 75.3484" stroke="#808080" stroke-linecap="round" stroke-linejoin="round"/>
<path d="M182.585 84.5786L150.581 157.039" stroke="#808080" stroke-linecap="round" stroke-linejoin="round"/>
<path d="M140.429 63.1372L140.983 68.2708L142.07 78.2932" stroke="#808080" stroke-linecap="round" stroke-linejoin="round"/>
<path d="M150.581 157.039L64.1808 118.879" stroke="#808080" stroke-linecap="round" stroke-linejoin="round"/>
<path d="M71.8344 165.55L61.812 166.637C61.4707 163.449 61.3 160.246 61.3008 157.04H71.3808C71.379 159.882 71.5304 162.723 71.8344 165.55Z" stroke="#808080" stroke-linecap="round" stroke-linejoin="round"/>
<path d="M61.812 166.637L56.6784 167.192" stroke="#808080" stroke-linecap="round" stroke-linejoin="round"/>
<path d="M150.581 157.04L74.3328 212.782" stroke="#808080" stroke-linecap="round" stroke-linejoin="round"/>
<path d="M112.421 243.439L114.502 238.73L118.577 229.5" stroke="#808080" stroke-linecap="round" stroke-linejoin="round"/>
<path d="M148.486 161.784L148.817 161.028L149.155 160.265L149.242 160.071L150.581 157.04" stroke="#808080" stroke-linecap="round" stroke-linejoin="round"/>
<path d="M161.467 263.686L160.178 245.808L159.091 235.786" stroke="#808080" stroke-linecap="round" stroke-linejoin="round"/>
<path d="M206.323 233.288L203.27 229.119L197.323 220.976" stroke="#808080" stroke-linecap="round" stroke-linejoin="round"/>
<path d="M150.581 157.04L236.981 195.2" stroke="#808080" stroke-linecap="round" stroke-linejoin="round"/>
<path d="M150.581 157.039L244.483 146.887" stroke="#808080" stroke-linecap="round" stroke-linejoin="round"/>
<path d="M226.829 101.297L222.66 104.35" stroke="#808080" stroke-linecap="round" stroke-linejoin="round"/>
<path d="M214.517 110.297L150.581 157.039" stroke="#808080" stroke-linecap="round" stroke-linejoin="round"/>
<path d="M150.581 97.2651C141.739 105.502 119.11 113.825 92.7216 131.472C92.7216 131.472 94.3704 191.124 150.581 223.733V97.2651Z" fill="#06BCC1" stroke="#263238" stroke-linecap="round" stroke-linejoin="round"/>
<path d="M150.581 97.2651C159.422 105.502 182.052 113.825 208.44 131.472C208.44 131.472 206.791 191.124 150.581 223.733V97.2651Z" fill="#263238" stroke="#263238" stroke-linecap="round" stroke-linejoin="round"/>
<path d="M150.581 102.341C139.91 109.75 121.414 116.806 96.9624 133.164C96.9624 133.164 98.496 188.438 150.581 218.65C202.666 188.438 204.192 133.2 204.192 133.2C179.748 116.806 161.338 109.75 150.581 102.341Z" fill="#263238" stroke="#263238" stroke-linecap="round" stroke-linejoin="round"/>
<path d="M204.192 133.2C179.712 116.842 161.338 109.786 150.581 102.377V218.65C202.666 188.439 204.192 133.2 204.192 133.2Z" fill="#06BCC1" stroke="#263238" stroke-linecap="round" stroke-linejoin="round"/>
<path d="M170.892 158.069H130.932C130.501 158.074 130.073 157.993 129.673 157.833C129.273 157.672 128.908 157.434 128.6 157.133C128.292 156.831 128.046 156.472 127.876 156.075C127.707 155.679 127.618 155.253 127.613 154.822V136.397C127.613 123.818 138.06 113.58 150.912 113.58C163.764 113.58 174.24 123.84 174.24 136.397V154.8C174.237 155.235 174.148 155.666 173.978 156.066C173.808 156.467 173.56 156.829 173.248 157.133C172.937 157.437 172.568 157.677 172.164 157.837C171.759 157.998 171.327 158.077 170.892 158.069ZM134.251 151.589H167.573V136.397C167.445 132.063 165.634 127.949 162.524 124.929C159.413 121.908 155.248 120.219 150.912 120.219C146.576 120.219 142.411 121.908 139.3 124.929C136.19 127.949 134.379 132.063 134.251 136.397V151.589Z" fill="white" stroke="#263238" stroke-linecap="round" stroke-linejoin="round"/>
<path d="M176.018 149.191H125.143V191.275H176.018V149.191Z" fill="white" stroke="#263238" stroke-linecap="round" stroke-linejoin="round"/>
<path d="M155.873 166.666C155.821 165.231 155.215 163.872 154.181 162.876C153.148 161.879 151.768 161.322 150.332 161.322C148.897 161.322 147.517 161.879 146.483 162.876C145.45 163.872 144.844 165.231 144.792 166.666C144.793 167.648 145.062 168.612 145.569 169.453C146.077 170.294 146.804 170.981 147.672 171.44L146.743 181.001H153.864L152.935 171.44C153.814 170.988 154.553 170.305 155.071 169.463C155.589 168.622 155.866 167.654 155.873 166.666Z" fill="#263238" stroke="#263238" stroke-linecap="round" stroke-linejoin="round"/>
<path d="M276.278 67.2839H290.729V58.3991H282.341L281.491 56.2319H276.278V67.2839Z" fill="#06BCC1" stroke="#263238" stroke-miterlimit="10"/>
<path d="M276.278 81.6409H290.729V72.7633H282.341L281.491 70.5889H276.278V81.6409Z" fill="#06BCC1" stroke="#263238" stroke-miterlimit="10"/>
<path d="M276.278 96.005H290.729V87.1202H282.341L281.491 84.9458H276.278V96.005Z" fill="#263238" stroke="#263238" stroke-miterlimit="10"/>
<path d="M276.278 186.084H290.729V177.199H282.341L281.491 175.032H276.278V186.084Z" fill="#06BCC1" stroke="#263238" stroke-miterlimit="10"/>
<path d="M276.278 200.441H290.729V191.563H282.341L281.491 189.389H276.278V200.441Z" fill="#06BCC1" stroke="#263238" stroke-miterlimit="10"/>
<path d="M276.278 214.805H290.729V205.92H282.341L281.491 203.753H276.278V214.805Z" fill="#263238" stroke="#263238" stroke-miterlimit="10"/>
<path d="M276.278 230.004H290.729V221.119H282.341L281.491 218.952H276.278V230.004Z" fill="#06BCC1" stroke="#263238" stroke-miterlimit="10"/>
<path d="M276.278 244.361H290.729V235.483H282.341L281.491 233.309H276.278V244.361Z" fill="#06BCC1" stroke="#263238" stroke-miterlimit="10"/>
<path d="M276.278 258.725H290.729V249.84H282.341L281.491 247.673H276.278V258.725Z" fill="#263238" stroke="#263238" stroke-miterlimit="10"/>
<path d="M254.801 138.614C254.696 137.176 254.696 135.733 254.801 134.294" stroke="#263238" stroke-linecap="round" stroke-linejoin="round"/>
<path d="M259.488 138.24C259.402 137.025 259.402 135.805 259.488 134.59" stroke="#263238" stroke-linecap="round" stroke-linejoin="round"/>
<path d="M254.707 136.462L259.409 136.426" stroke="#263238" stroke-linecap="round" stroke-linejoin="round"/>
<path d="M254.808 133.733C254.932 132.296 255.153 130.87 255.47 129.463" stroke="#263238" stroke-linecap="round" stroke-linejoin="round"/>
<path d="M259.495 134.121C259.603 132.91 259.791 131.708 260.057 130.521" stroke="#263238" stroke-linecap="round" stroke-linejoin="round"/>
<path d="M255.067 131.587L259.711 132.307" stroke="#263238" stroke-linecap="round" stroke-linejoin="round"/>
<path d="M255.6 128.916C255.944 127.513 256.394 126.139 256.946 124.805" stroke="#263238" stroke-linecap="round" stroke-linejoin="round"/>
<path d="M260.165 130.053C260.458 128.871 260.836 127.711 261.295 126.583" stroke="#263238" stroke-linecap="round" stroke-linejoin="round"/>
<path d="M256.198 126.835L260.669 128.297" stroke="#263238" stroke-linecap="round" stroke-linejoin="round"/>
<path d="M257.162 124.286C257.732 122.961 258.397 121.679 259.15 120.449" stroke="#263238" stroke-linecap="round" stroke-linejoin="round"/>
<path d="M261.482 126.144C261.965 125.026 262.526 123.943 263.16 122.904" stroke="#263238" stroke-linecap="round" stroke-linejoin="round"/>
<path d="M258.084 122.335L262.26 124.495" stroke="#263238" stroke-linecap="round" stroke-linejoin="round"/>
<path d="M259.445 119.974C259.826 119.362 260.237 118.771 260.676 118.195L262.03 116.518" stroke="#263238" stroke-linecap="round" stroke-linejoin="round"/>
<path d="M263.412 122.501C263.734 121.982 264.083 121.48 264.456 120.996L265.601 119.556" stroke="#263238" stroke-linecap="round" stroke-linejoin="round"/>
<path d="M260.676 118.195L264.456 120.996" stroke="#263238" stroke-linecap="round" stroke-linejoin="round"/>
<path d="M262.382 116.078C262.872 115.553 263.39 115.049 263.894 114.53C264.154 114.278 264.391 114.012 264.665 113.81L265.493 113.09" stroke="#263238" stroke-linecap="round" stroke-linejoin="round"/>
<path d="M265.896 119.203L267.178 117.9C267.394 117.684 267.595 117.453 267.826 117.252L268.546 116.676" stroke="#263238" stroke-linecap="round" stroke-linejoin="round"/>
<path d="M263.894 114.53L267.178 117.9" stroke="#263238" stroke-linecap="round" stroke-linejoin="round"/>
<path d="M265.932 112.723C266.473 112.245 267.048 111.807 267.653 111.413C268.25 111.017 268.841 110.599 269.453 110.218" stroke="#263238" stroke-linecap="round" stroke-linejoin="round"/>
<path d="M268.898 116.366C269.35 115.963 269.831 115.595 270.338 115.265C270.85 114.934 271.346 114.545 271.858 114.257" stroke="#263238" stroke-linecap="round" stroke-linejoin="round"/>
<path d="M267.653 111.413L270.346 115.265" stroke="#263238" stroke-linecap="round" stroke-linejoin="round"/>
<path d="M269.95 109.951L271.85 108.922C272.506 108.626 273.175 108.36 273.838 108.079" stroke="#263238" stroke-linecap="round" stroke-linejoin="round"/>
<path d="M272.29 114.027L273.895 113.163L275.573 112.45" stroke="#263238" stroke-linecap="round" stroke-linejoin="round"/>
<path d="M271.85 108.921L273.895 113.162" stroke="#263238" stroke-linecap="round" stroke-linejoin="round"/>
<path d="M274.363 107.856C275.026 107.59 275.731 107.417 276.415 107.186L277.445 106.87L278.503 106.646" stroke="#263238" stroke-linecap="round" stroke-linejoin="round"/>
<path d="M276.012 112.263C276.581 112.032 277.171 111.888 277.747 111.701L278.626 111.427L279.518 111.24" stroke="#263238" stroke-linecap="round" stroke-linejoin="round"/>
<path d="M276.415 107.187L277.747 111.701" stroke="#263238" stroke-linecap="round" stroke-linejoin="round"/>
<path d="M279.058 106.56C279.757 106.396 280.467 106.279 281.182 106.207C281.902 106.135 282.622 106.034 283.342 105.991" stroke="#263238" stroke-linecap="round" stroke-linejoin="round"/>
<path d="M279.986 111.146C280.578 110.998 281.179 110.897 281.786 110.844C282.391 110.786 282.996 110.693 283.601 110.657" stroke="#263238" stroke-linecap="round" stroke-linejoin="round"/>
<path d="M281.182 106.178L281.786 110.844" stroke="#263238" stroke-linecap="round" stroke-linejoin="round"/>
<path d="M283.896 105.948L286.056 105.919L288.216 106.092" stroke="#263238" stroke-linecap="round" stroke-linejoin="round"/>
<path d="M284.076 110.649L285.905 110.621L287.726 110.772" stroke="#263238" stroke-linecap="round" stroke-linejoin="round"/>
<path d="M286.056 105.919L285.905 110.621" stroke="#263238" stroke-linecap="round" stroke-linejoin="round"/>
<path d="M288.778 106.135C289.498 106.222 290.218 106.38 290.938 106.502C291.29 106.567 291.658 106.625 291.996 106.697L293.04 106.992" stroke="#263238" stroke-linecap="round" stroke-linejoin="round"/>
<path d="M288.202 110.808C288.806 110.88 289.404 111.017 290.002 111.118C290.297 111.168 290.599 111.219 290.902 111.283L291.773 111.528" stroke="#263238" stroke-linecap="round" stroke-linejoin="round"/>
<path d="M290.909 106.502L290.002 111.118" stroke="#263238" stroke-linecap="round" stroke-linejoin="round"/>
<path d="M293.551 107.15C294.937 107.548 296.294 108.041 297.612 108.626" stroke="#263238" stroke-linecap="round" stroke-linejoin="round"/>
<path d="M292.234 111.665C293.402 112.002 294.547 112.416 295.661 112.903" stroke="#263238" stroke-linecap="round" stroke-linejoin="round"/>
<path d="M295.603 107.82L293.969 112.233" stroke="#263238" stroke-linecap="round" stroke-linejoin="round"/>
<path d="M298.116 108.886L300.038 109.872C300.665 110.225 301.255 110.643 301.86 111.031" stroke="#263238" stroke-linecap="round" stroke-linejoin="round"/>
<path d="M296.086 113.126L297.713 113.962C298.238 114.257 298.735 114.617 299.254 114.941" stroke="#263238" stroke-linecap="round" stroke-linejoin="round"/>
<path d="M300.038 109.872L297.713 113.962" stroke="#263238" stroke-linecap="round" stroke-linejoin="round"/>
<path d="M302.335 111.333C302.933 111.735 303.508 112.17 304.056 112.637C304.631 113.071 305.179 113.54 305.698 114.041" stroke="#263238" stroke-linecap="round" stroke-linejoin="round"/>
<path d="M299.65 115.2C300.152 115.537 300.633 115.905 301.09 116.302C301.581 116.666 302.048 117.063 302.486 117.49" stroke="#263238" stroke-linecap="round" stroke-linejoin="round"/>
<path d="M304.056 112.637L301.104 116.302" stroke="#263238" stroke-linecap="round" stroke-linejoin="round"/>
<path d="M306.101 114.437C306.605 114.948 307.145 115.431 307.62 115.971L308.995 117.641" stroke="#263238" stroke-linecap="round" stroke-linejoin="round"/>
<path d="M302.839 117.821C303.264 118.26 303.725 118.663 304.121 119.117L305.287 120.557" stroke="#263238" stroke-linecap="round" stroke-linejoin="round"/>
<path d="M307.62 115.97L304.121 119.117" stroke="#263238" stroke-linecap="round" stroke-linejoin="round"/>
<path d="M309.355 118.08C310.204 119.248 310.976 120.47 311.666 121.738" stroke="#263238" stroke-linecap="round" stroke-linejoin="round"/>
<path d="M305.59 120.888C306.302 121.876 306.952 122.907 307.534 123.977" stroke="#263238" stroke-linecap="round" stroke-linejoin="round"/>
<path d="M310.565 119.866L306.612 122.407" stroke="#263238" stroke-linecap="round" stroke-linejoin="round"/>
<path d="M311.933 122.227L312.437 123.177L312.862 124.178C313.128 124.841 313.445 125.496 313.661 126.18" stroke="#263238" stroke-linecap="round" stroke-linejoin="round"/>
<path d="M307.757 124.395L308.189 125.201L308.542 126.043C308.765 126.612 309.046 127.159 309.262 127.735" stroke="#263238" stroke-linecap="round" stroke-linejoin="round"/>
<path d="M312.862 124.178L308.542 126.043" stroke="#263238" stroke-linecap="round" stroke-linejoin="round"/>
<path d="M313.834 126.72C314.042 127.44 314.273 128.088 314.453 128.787L314.899 130.903" stroke="#263238" stroke-linecap="round" stroke-linejoin="round"/>
<path d="M309.362 128.196C309.535 128.779 309.737 129.355 309.895 129.945L310.27 131.731" stroke="#263238" stroke-linecap="round" stroke-linejoin="round"/>
<path d="M314.453 128.787L309.895 129.946" stroke="#263238" stroke-linecap="round" stroke-linejoin="round"/>
<path d="M315.014 131.458C315.22 132.889 315.336 134.332 315.36 135.778" stroke="#263238" stroke-linecap="round" stroke-linejoin="round"/>
<path d="M310.37 132.199C310.537 133.393 310.633 134.595 310.658 135.799" stroke="#263238" stroke-linecap="round" stroke-linejoin="round"/>
<path d="M315.252 133.603L310.565 134.013" stroke="#263238" stroke-linecap="round" stroke-linejoin="round"/>
<path d="M315.36 136.325C315.36 136.685 315.36 137.045 315.36 137.405L315.274 138.478C315.202 139.198 315.194 139.918 315.058 140.638" stroke="#263238" stroke-linecap="round" stroke-linejoin="round"/>
<path d="M310.666 136.317C310.666 136.62 310.666 136.922 310.666 137.225L310.594 138.139C310.564 138.747 310.501 139.352 310.406 139.953" stroke="#263238" stroke-linecap="round" stroke-linejoin="round"/>
<path d="M315.281 138.478L310.594 138.139" stroke="#263238" stroke-linecap="round" stroke-linejoin="round"/>
<path d="M314.964 141.185C314.827 141.905 314.726 142.625 314.561 143.309L313.97 145.389" stroke="#263238" stroke-linecap="round" stroke-linejoin="round"/>
<path d="M310.32 140.4C310.198 140.998 310.118 141.602 309.974 142.193L309.478 143.949" stroke="#263238" stroke-linecap="round" stroke-linejoin="round"/>
<path d="M314.561 143.309L309.982 142.214" stroke="#263238" stroke-linecap="round" stroke-linejoin="round"/>
<path d="M313.812 145.93C313.335 147.291 312.767 148.619 312.113 149.904" stroke="#263238" stroke-linecap="round" stroke-linejoin="round"/>
<path d="M309.355 144.432C308.947 145.578 308.466 146.696 307.915 147.78" stroke="#263238" stroke-linecap="round" stroke-linejoin="round"/>
<path d="M313.027 147.946L308.686 146.131" stroke="#263238" stroke-linecap="round" stroke-linejoin="round"/>
<path d="M311.854 150.408L311.357 151.366C311.177 151.675 310.968 151.971 310.781 152.28L309.6 154.08" stroke="#263238" stroke-linecap="round" stroke-linejoin="round"/>
<path d="M307.699 148.205L307.282 149.018C307.13 149.285 306.95 149.529 306.792 149.789L305.791 151.322" stroke="#263238" stroke-linecap="round" stroke-linejoin="round"/>
<path d="M310.781 152.28L306.792 149.789" stroke="#263238" stroke-linecap="round" stroke-linejoin="round"/>
<path d="M309.247 154.526L307.886 156.24C307.433 156.802 306.893 157.284 306.396 157.802" stroke="#263238" stroke-linecap="round" stroke-linejoin="round"/>
<path d="M305.489 151.689L304.344 153.129C303.962 153.605 303.502 154.008 303.084 154.447" stroke="#263238" stroke-linecap="round" stroke-linejoin="round"/>
<path d="M307.886 156.204L304.344 153.115" stroke="#263238" stroke-linecap="round" stroke-linejoin="round"/>
<path d="M306 158.169C305.491 158.683 304.95 159.164 304.38 159.609C303.838 160.085 303.268 160.527 302.674 160.934" stroke="#263238" stroke-linecap="round" stroke-linejoin="round"/>
<path d="M302.746 154.8C302.319 155.235 301.862 155.639 301.378 156.009C300.922 156.414 300.441 156.789 299.938 157.133" stroke="#263238" stroke-linecap="round" stroke-linejoin="round"/>
<path d="M304.38 159.603L301.378 155.981" stroke="#263238" stroke-linecap="round" stroke-linejoin="round"/>
<path d="M302.213 161.28C301.601 161.669 301.032 162.115 300.391 162.453L298.49 163.44" stroke="#263238" stroke-linecap="round" stroke-linejoin="round"/>
<path d="M299.52 157.363C299.002 157.694 298.526 158.083 297.986 158.357L296.381 159.228" stroke="#263238" stroke-linecap="round" stroke-linejoin="round"/>
<path d="M300.391 162.418L298.015 158.357" stroke="#263238" stroke-linecap="round" stroke-linejoin="round"/>
<path d="M297.986 163.692C296.677 164.295 295.327 164.807 293.947 165.225" stroke="#263238" stroke-linecap="round" stroke-linejoin="round"/>
<path d="M295.985 159.437C294.877 159.943 293.737 160.376 292.572 160.733" stroke="#263238" stroke-linecap="round" stroke-linejoin="round"/>
<path d="M295.992 164.535L294.3 160.143" stroke="#263238" stroke-linecap="round" stroke-linejoin="round"/>
<path d="M293.407 165.391C292.721 165.611 292.021 165.784 291.312 165.91C290.6 166.075 289.879 166.2 289.152 166.284" stroke="#263238" stroke-linecap="round" stroke-linejoin="round"/>
<path d="M292.111 160.87C291.532 161.057 290.94 161.202 290.34 161.302C289.75 161.448 289.151 161.557 288.547 161.626" stroke="#263238" stroke-linecap="round" stroke-linejoin="round"/>
<path d="M291.312 165.91L290.34 161.302" stroke="#263238" stroke-linecap="round" stroke-linejoin="round"/>
<path d="M288.626 166.32C287.906 166.385 287.186 166.521 286.466 166.514H284.306" stroke="#263238" stroke-linecap="round" stroke-linejoin="round"/>
<path d="M288.072 161.676C287.468 161.763 286.86 161.819 286.25 161.841H284.422" stroke="#263238" stroke-linecap="round" stroke-linejoin="round"/>
<path d="M286.474 166.543L286.25 161.842" stroke="#263238" stroke-linecap="round" stroke-linejoin="round"/>
<path d="M283.752 166.558C282.302 166.49 280.858 166.319 279.432 166.046" stroke="#263238" stroke-linecap="round" stroke-linejoin="round"/>
<path d="M283.946 161.856C282.738 161.794 281.535 161.649 280.346 161.424" stroke="#263238" stroke-linecap="round" stroke-linejoin="round"/>
<path d="M281.599 166.385L282.125 161.712" stroke="#263238" stroke-linecap="round" stroke-linejoin="round"/>
<path d="M278.906 165.946C278.198 165.816 277.498 165.643 276.811 165.427C276.111 165.253 275.424 165.035 274.752 164.772" stroke="#263238" stroke-linecap="round" stroke-linejoin="round"/>
<path d="M279.857 161.337C279.257 161.23 278.666 161.084 278.086 160.898C277.496 160.752 276.917 160.569 276.35 160.351" stroke="#263238" stroke-linecap="round" stroke-linejoin="round"/>
<path d="M276.811 165.427L278.086 160.898" stroke="#263238" stroke-linecap="round" stroke-linejoin="round"/>
<path d="M274.226 164.571C273.557 164.29 272.866 164.067 272.225 163.743L270.302 162.72" stroke="#263238" stroke-linecap="round" stroke-linejoin="round"/>
<path d="M275.904 160.178C275.342 159.941 274.759 159.761 274.219 159.458L272.599 158.623" stroke="#263238" stroke-linecap="round" stroke-linejoin="round"/>
<path d="M272.225 163.742L274.219 159.48" stroke="#263238" stroke-linecap="round" stroke-linejoin="round"/>
<path d="M269.806 162.49C268.61 161.683 267.358 160.97 266.206 160.049" stroke="#263238" stroke-linecap="round" stroke-linejoin="round"/>
<path d="M272.16 158.4C271.152 157.68 270.079 157.118 269.143 156.341" stroke="#263238" stroke-linecap="round" stroke-linejoin="round"/>
<path d="M267.991 161.309L270.641 157.421" stroke="#263238" stroke-linecap="round" stroke-linejoin="round"/>
<path d="M265.802 159.703C264.686 158.789 263.636 157.795 262.663 156.729" stroke="#263238" stroke-linecap="round" stroke-linejoin="round"/>
<path d="M268.783 156.067C267.843 155.291 266.958 154.452 266.134 153.554" stroke="#263238" stroke-linecap="round" stroke-linejoin="round"/>
<path d="M264.182 158.271L267.415 154.851" stroke="#263238" stroke-linecap="round" stroke-linejoin="round"/>
<path d="M262.282 156.319C261.333 155.232 260.46 154.083 259.668 152.877" stroke="#263238" stroke-linecap="round" stroke-linejoin="round"/>
<path d="M265.81 153.202C265.007 152.294 264.268 151.332 263.599 150.322" stroke="#263238" stroke-linecap="round" stroke-linejoin="round"/>
<path d="M260.914 154.642L264.658 151.791" stroke="#263238" stroke-linecap="round" stroke-linejoin="round"/>
<path d="M259.358 152.402C258.593 151.18 257.914 149.904 257.328 148.586" stroke="#263238" stroke-linecap="round" stroke-linejoin="round"/>
<path d="M263.34 149.904C262.694 148.87 262.122 147.792 261.626 146.678" stroke="#263238" stroke-linecap="round" stroke-linejoin="round"/>
<path d="M258.278 150.53L262.433 148.32" stroke="#263238" stroke-linecap="round" stroke-linejoin="round"/>
<path d="M257.098 148.075C256.545 146.743 256.083 145.374 255.715 143.979" stroke="#263238" stroke-linecap="round" stroke-linejoin="round"/>
<path d="M261.432 146.246C260.965 145.12 260.575 143.963 260.266 142.783" stroke="#263238" stroke-linecap="round" stroke-linejoin="round"/>
<path d="M256.342 146.052L260.791 144.533" stroke="#263238" stroke-linecap="round" stroke-linejoin="round"/>
<path d="M255.6 143.438C255.263 142.036 255.022 140.611 254.88 139.176" stroke="#263238" stroke-linecap="round" stroke-linejoin="round"/>
<path d="M260.143 142.322C259.861 141.137 259.656 139.934 259.531 138.722" stroke="#263238" stroke-linecap="round" stroke-linejoin="round"/>
<path d="M255.139 141.322L259.776 140.53" stroke="#263238" stroke-linecap="round" stroke-linejoin="round"/>
<path d="M285.264 117.9C287.865 117.932 290.429 118.517 292.787 119.615C295.145 120.713 297.243 122.3 298.942 124.27C300.64 126.24 301.901 128.549 302.64 131.043C303.379 133.537 303.579 136.159 303.228 138.737" stroke="#263238" stroke-width="2" stroke-miterlimit="10"/>
<path d="M267.919 129.658C269.267 126.163 271.65 123.164 274.75 121.063C277.851 118.961 281.519 117.858 285.264 117.9" stroke="#06BCC1" stroke-width="5" stroke-miterlimit="10"/>
<path d="M288.353 154.296C285.147 154.883 281.842 154.605 278.779 153.491C275.715 152.377 273.004 150.468 270.923 147.959C268.842 145.45 267.467 142.432 266.939 139.216C266.411 135.999 266.75 132.7 267.919 129.658" stroke="#263238" stroke-width="2" stroke-miterlimit="10"/>
<path d="M303.228 138.737C302.702 142.566 300.981 146.131 298.31 148.925C295.639 151.719 292.154 153.598 288.353 154.296" stroke="#06BCC1" stroke-width="5" stroke-miterlimit="10"/>
<path d="M132.178 245.808H146.628V236.923H138.24L137.39 234.749H132.178V245.808Z" fill="#06BCC1" stroke="#263238" stroke-miterlimit="10"/>
<path d="M132.178 260.165H146.628V251.28H138.24L137.39 249.113H132.178V260.165Z" fill="#06BCC1" stroke="#263238" stroke-miterlimit="10"/>
<path d="M132.178 274.522H146.628V265.637H138.24L137.39 263.47H132.178V274.522Z" fill="#263238" stroke="#263238" stroke-miterlimit="10"/>
<path d="M155.218 245.808H169.668V236.923H161.28L160.43 234.749H155.218V245.808Z" fill="#06BCC1" stroke="#263238" stroke-miterlimit="10"/>
<path d="M155.218 260.165H169.668V251.28H161.28L160.43 249.113H155.218V260.165Z" fill="#263238" stroke="#263238" stroke-miterlimit="10"/>
<path d="M155.218 274.522H169.668V265.637H161.28L160.43 263.47H155.218V274.522Z" fill="#06BCC1" stroke="#263238" stroke-miterlimit="10"/>
<path d="M132.178 65.088H146.628V56.2032H138.24L137.39 54.0288H132.178V65.088Z" fill="#06BCC1" stroke="#263238" stroke-miterlimit="10"/>
<path d="M132.178 79.4446H146.628V70.5598H138.24L137.39 68.3926H132.178V79.4446Z" fill="#06BCC1" stroke="#263238" stroke-miterlimit="10"/>
<path d="M132.178 93.8015H146.628V84.9167H138.24L137.39 82.7495H132.178V93.8015Z" fill="#06BCC1" stroke="#263238" stroke-miterlimit="10"/>
<path d="M155.218 65.088H169.668V56.2032H161.28L160.43 54.0288H155.218V65.088Z" fill="#263238" stroke="#263238" stroke-miterlimit="10"/>
<path d="M155.218 79.4446H169.668V70.5598H161.28L160.43 68.3926H155.218V79.4446Z" fill="#06BCC1" stroke="#263238" stroke-miterlimit="10"/>
<path d="M155.218 93.8015H169.668V84.9167H161.28L160.43 82.7495H155.218V93.8015Z" fill="#263238" stroke="#263238" stroke-miterlimit="10"/>
<path d="M236.21 319.759C258.081 319.759 275.81 317.019 275.81 313.639C275.81 310.259 258.081 307.519 236.21 307.519C214.34 307.519 196.61 310.259 196.61 313.639C196.61 317.019 214.34 319.759 236.21 319.759Z" fill="#263238"/>
<path d="M228.852 305.222C228.852 305.222 221.292 310.082 217.152 310.982C213.012 311.882 211.752 313.142 215.172 314.762C218.592 316.382 229.032 316.922 233.892 315.842C238.752 314.762 240.552 316.202 241.092 314.042C241.492 312.015 241.431 309.923 240.912 307.922C240.552 306.302 231.732 303.782 228.852 305.222Z" fill="white" stroke="#263238" stroke-linecap="round" stroke-linejoin="round"/>
<path d="M218.952 208.022C218.952 208.022 219.852 222.062 222.372 233.042C224.892 244.022 226.152 258.782 227.412 266.882C228.672 274.982 229.572 288.302 229.752 294.242C229.932 300.182 230.292 301.982 229.932 302.522C229.572 303.062 228.672 303.242 228.672 303.962C228.672 304.682 228.492 306.302 228.492 306.302C228.492 306.302 230.112 307.742 234.432 309.362C238.752 310.982 241.632 311.882 241.632 311.882C242.927 310.638 243.754 308.985 243.972 307.202C244.512 303.962 242.892 300.182 242.892 298.022C242.892 295.862 247.572 276.962 245.952 269.222C244.332 261.482 241.092 252.662 241.092 247.982C241.092 243.302 242.892 229.442 242.892 229.442C242.892 229.442 247.572 221.702 247.752 216.122C247.863 212.821 247.803 209.517 247.572 206.222C247.572 206.222 226.332 209.282 218.952 208.022Z" fill="#263238" stroke="#263238" stroke-linecap="round" stroke-linejoin="round"/>
<path d="M222.66 157.903C221.019 162.377 220.129 167.092 220.025 171.856C220.025 179.092 218.974 194.76 217.915 201.6C216.857 208.44 216.079 208.843 217.915 209.894C219.751 210.945 225.158 212.133 233.186 211.608C241.214 211.082 249.746 208.447 250.171 207.288C250.596 206.128 250.301 204.523 249.905 202.968C249.509 201.412 251.345 184.802 247.406 170.985C243.468 157.168 240.689 150.184 238.846 148.341L237.002 146.498L222.66 157.903Z" fill="#06BCC1" stroke="#263238" stroke-linecap="round" stroke-linejoin="round"/>
<path d="M210.283 122.882C210.283 122.882 210.024 127.756 210.679 129.47C211.334 131.184 211.601 133.149 210.946 134.467C210.29 135.784 208.966 137.347 209.887 138.153C210.495 138.663 211.157 139.104 211.86 139.471C211.86 139.471 214.495 144.208 215.813 146.844C217.13 149.479 217.786 150.134 219.103 149.608C220.061 149.202 220.986 148.72 221.868 148.168C221.868 148.168 225.554 152.38 226.08 153.432C226.553 154.208 227.18 154.88 227.923 155.404L236.88 145.656C235.335 143.935 234.248 141.852 233.719 139.6C232.798 135.784 232.538 135.28 233.46 133.545C234.382 131.81 236.225 131.702 235.166 127.49C234.108 123.278 235.562 121.96 231.746 119.332C227.93 116.704 220.687 116.301 218.585 116.301C216.891 116.255 215.228 116.76 213.847 117.741C212.782 118.54 210.283 122.882 210.283 122.882Z" fill="white" stroke="#263238" stroke-linecap="round" stroke-linejoin="round"/>
<path d="M218.837 113.148C218.837 113.148 209.362 116.172 208.037 117.36C206.712 118.548 210.017 125.784 210.017 125.784L216.598 121.961L213.84 125.28C213.84 125.28 212.4 125.669 217.526 125.409C222.653 125.15 225.158 123.3 225.158 123.3C225.158 123.3 221.868 126.986 222.134 128.037C222.401 129.089 224.237 130.802 224.762 131.594C225.288 132.386 226.08 131.335 226.08 131.335C226.08 131.335 226.872 134.625 227.131 133.833C227.382 132.66 227.557 131.472 227.657 130.277C227.657 130.277 228.845 127.649 230.537 128.304C232.229 128.959 233.165 133.171 231.977 135.151C231.234 136.342 230.052 137.193 228.686 137.52C228.686 137.52 231.451 140.544 232.236 139.889C233.021 139.233 233.294 137.916 233.82 137.253C234.346 136.591 240.926 130.939 241.74 126.857C242.554 122.774 236.606 112.903 231.998 111.981C227.39 111.06 218.837 113.148 218.837 113.148Z" fill="#263238" stroke="#263238" stroke-linecap="round" stroke-linejoin="round"/>
<path d="M210.996 130.176L212.069 134.496C212.12 134.725 212.242 134.932 212.418 135.088C212.594 135.243 212.814 135.338 213.048 135.36C214.25 135.468 216.446 135.576 216.734 135.007C217.13 134.222 216.605 129.089 215.942 128.297C215.136 127.325 213.3 128.102 212.407 128.527C212.046 128.729 211.697 128.952 211.363 129.197C211.214 129.308 211.101 129.459 211.035 129.632C210.97 129.806 210.957 129.995 210.996 130.176Z" fill="white" stroke="#263238" stroke-linecap="round" stroke-linejoin="round"/>
<path d="M216.864 130.385L227.794 129.333L216.914 131.573L216.864 130.385Z" fill="#263238" stroke="#263238" stroke-linecap="round" stroke-linejoin="round"/>
<path d="M228.053 137.52C228.053 137.52 229.637 142.128 228.578 143.438C227.52 144.749 224.107 146.866 224.107 146.866" fill="white"/>
<path d="M228.053 137.52C228.053 137.52 229.637 142.128 228.578 143.438C227.52 144.749 224.107 146.866 224.107 146.866" stroke="#263238" stroke-linecap="round" stroke-linejoin="round"/>
<path d="M236.88 143.028C236.88 143.028 220.032 158.429 220.428 158.825C220.824 159.221 223.826 163.793 223.826 163.793C226.129 160.357 228.612 157.045 231.264 153.871C234.04 150.937 236.97 148.151 240.041 145.526L236.88 143.028Z" fill="#263238" stroke="#263238" stroke-linecap="round" stroke-linejoin="round"/>
<path d="M197.28 184.356C197.28 184.356 192.542 184.356 191.621 185.414C190.699 186.473 193.198 187.517 194.119 187.646C195.272 187.641 196.421 187.511 197.546 187.258L197.28 184.356Z" fill="white" stroke="#263238" stroke-linecap="round" stroke-linejoin="round"/>
<path d="M199.361 183.175C199.361 183.175 197.251 182.383 196.726 184.097C196.2 185.81 197.518 190.937 198.302 191.073C199.087 191.21 199.49 190.677 199.49 189.101C199.49 187.524 199.361 183.175 199.361 183.175Z" fill="white" stroke="#263238" stroke-linecap="round" stroke-linejoin="round"/>
<path d="M203.04 182.88C203.04 182.88 200.275 181.303 199.217 182.484C198.158 183.664 199.354 190.648 199.354 190.648C200.138 191.044 201.456 186.436 202.644 184.989C203.181 184.375 203.662 183.715 204.084 183.016L203.04 182.88Z" fill="white" stroke="#263238" stroke-linecap="round" stroke-linejoin="round"/>
<path d="M220.154 183.045C220.154 183.045 213.314 189.36 212.126 189.36C210.938 189.36 206.071 183.701 204.89 183.045C203.71 182.39 202.126 186.069 201.73 187.257C201.431 188.553 201.255 189.874 201.204 191.203C201.284 191.309 201.389 191.392 201.51 191.445C201.631 191.499 201.764 191.52 201.896 191.507C202.027 191.494 202.153 191.447 202.262 191.371C202.37 191.295 202.457 191.193 202.514 191.073C203.336 189.673 204.083 188.232 204.754 186.753L205.546 187.812" fill="white"/>
<path d="M220.154 183.045C220.154 183.045 213.314 189.36 212.126 189.36C210.938 189.36 206.071 183.701 204.89 183.045C203.71 182.39 202.126 186.069 201.73 187.257C201.431 188.553 201.255 189.874 201.204 191.203C201.284 191.309 201.389 191.392 201.51 191.445C201.631 191.499 201.764 191.52 201.896 191.507C202.027 191.494 202.153 191.447 202.262 191.371C202.37 191.295 202.457 191.193 202.514 191.073C203.336 189.673 204.083 188.232 204.754 186.753L205.546 187.812" stroke="#263238" stroke-linecap="round" stroke-linejoin="round"/>
<path d="M209.232 187.517C209.232 187.517 205.15 188.179 204.494 189.36C203.839 190.541 203.702 190.677 205.15 190.8C206.597 190.922 210.024 191.325 210.55 190.67C211.075 190.015 209.758 187.646 209.232 187.517Z" fill="white" stroke="#263238" stroke-linecap="round" stroke-linejoin="round"/>
<path d="M185.537 195.545L169.214 159.876L179.215 160.402L193.306 193.838L185.537 195.545Z" fill="#7D7D7D" stroke="#263238" stroke-linecap="round" stroke-linejoin="round"/>
<path d="M192.384 191.332L185.141 194.493H224.762L219.37 191.073L192.384 191.332Z" fill="#7D7D7D" stroke="#263238" stroke-linecap="round" stroke-linejoin="round"/>
<path d="M235.296 157.637C235.296 157.637 230.292 158.558 229.5 163.037C228.708 167.515 230.94 184.637 230.94 185.018V188.179C230.94 188.964 234.101 188.705 237.787 190.411C241.474 192.118 243.713 194.89 243.713 192.78C243.713 190.67 243.187 165.42 243.187 165.42" fill="#06BCC1"/>
<path d="M235.296 157.637C235.296 157.637 230.292 158.558 229.5 163.037C228.708 167.515 230.94 184.637 230.94 185.018V188.179C230.94 188.964 234.101 188.705 237.787 190.411C241.474 192.118 243.713 194.89 243.713 192.78C243.713 190.67 243.187 165.42 243.187 165.42" stroke="#263238" stroke-linecap="round" stroke-linejoin="round"/>
<path d="M243.454 175.536L245.563 168.3" stroke="#263238" stroke-linecap="round" stroke-linejoin="round"/>
<path d="M228.449 186.069L229.104 191.729C229.104 191.729 243.454 200.153 243.85 199.893C244.246 199.634 244.642 198.835 244.642 197.524C244.642 196.214 246.744 189.36 244.246 187.783C241.747 186.206 232.56 185.94 232.56 185.94C232.56 185.94 229.896 185.414 228.449 186.069Z" fill="#263238" stroke="#263238" stroke-linecap="round" stroke-linejoin="round"/>
<path d="M230.162 191.47C230.162 191.47 216.605 196.337 207.785 196.862C198.965 197.388 197.914 196.862 197.914 196.862C197.914 196.862 197.122 193.702 195.804 192.917C194.486 192.132 190.274 192.78 189.482 192.254C188.69 191.729 188.698 190.022 188.172 189.49C187.646 188.957 185.292 189.23 185.292 189.23C185.292 189.23 184.111 189.886 184.111 190.807C184.111 191.729 183.319 197.654 184.37 198.18C185.422 198.706 199.116 201.341 204.25 201.341C209.383 201.341 224.525 202.781 232.286 201.6C240.048 200.419 242.95 199.498 242.69 197.388C242.431 195.278 232.661 190.937 230.162 191.47Z" fill="white" stroke="#263238" stroke-linecap="round" stroke-linejoin="round"/>
<path d="M184.615 190.022L184.882 196.992" stroke="#263238" stroke-linecap="round" stroke-linejoin="round"/>
<path d="M186.725 189.36L187.114 196.207" stroke="#263238" stroke-linecap="round" stroke-linejoin="round"/>
<path d="M189.482 192.24C189.482 192.24 188.957 193.824 189.878 194.479C190.8 195.134 194.357 195.667 194.357 195.667" fill="white"/>
<path d="M189.482 192.24C189.482 192.24 188.957 193.824 189.878 194.479C190.8 195.134 194.357 195.667 194.357 195.667" stroke="#263238" stroke-linecap="round" stroke-linejoin="round"/>
<path d="M228.715 172.908H222.394V183.305H228.715V172.908Z" fill="white" stroke="#263238" stroke-linecap="round" stroke-linejoin="round"/>
</svg>
