<svg width="16" height="16" viewBox="0 0 16 16" fill="none" xmlns="http://www.w3.org/2000/svg">
<path d="M7.99999 8.66669C8.36818 8.66669 8.66666 8.36821 8.66666 8.00002C8.66666 7.63183 8.36818 7.33335 7.99999 7.33335C7.63181 7.33335 7.33333 7.63183 7.33333 8.00002C7.33333 8.36821 7.63181 8.66669 7.99999 8.66669Z" stroke="#2D1E2F" stroke-width="1.25" stroke-linecap="round" stroke-linejoin="round"/>
<path d="M7.99999 4.00002C8.36818 4.00002 8.66666 3.70154 8.66666 3.33335C8.66666 2.96516 8.36818 2.66669 7.99999 2.66669C7.63181 2.66669 7.33333 2.96516 7.33333 3.33335C7.33333 3.70154 7.63181 4.00002 7.99999 4.00002Z" stroke="#2D1E2F" stroke-width="1.25" stroke-linecap="round" stroke-linejoin="round"/>
<path d="M7.99999 13.3334C8.36818 13.3334 8.66666 13.0349 8.66666 12.6667C8.66666 12.2985 8.36818 12 7.99999 12C7.63181 12 7.33333 12.2985 7.33333 12.6667C7.33333 13.0349 7.63181 13.3334 7.99999 13.3334Z" stroke="#2D1E2F" stroke-width="1.25" stroke-linecap="round" stroke-linejoin="round"/>
</svg>
