<svg width="14" height="14" viewBox="0 0 14 14" fill="none" xmlns="http://www.w3.org/2000/svg">
<path d="M6.33398 3.66665H7.66732V4.99998H6.33398V3.66665ZM6.33398 6.33331H7.66732V10.3333H6.33398V6.33331ZM7.00065 0.333313C3.32065 0.333313 0.333984 3.31998 0.333984 6.99998C0.333984 10.68 3.32065 13.6666 7.00065 13.6666C10.6807 13.6666 13.6673 10.68 13.6673 6.99998C13.6673 3.31998 10.6807 0.333313 7.00065 0.333313ZM7.00065 12.3333C4.06065 12.3333 1.66732 9.93998 1.66732 6.99998C1.66732 4.05998 4.06065 1.66665 7.00065 1.66665C9.94065 1.66665 12.334 4.05998 12.334 6.99998C12.334 9.93998 9.94065 12.3333 7.00065 12.3333Z" fill="#6A12CB"/>
</svg>
