<svg width="16" height="16" viewBox="0 0 16 16" fill="none" xmlns="http://www.w3.org/2000/svg">
  <!-- Основной путь (облако сообщения) -->
  <path d="M5.26667 13.3333C6.53905 13.986 8.00273 14.1628 9.39393 13.8318C10.7851 13.5009 12.0124 12.6839 12.8545 11.5281C13.6966 10.3723 14.0983 8.9538 13.9871 7.5281C13.8758 6.1024 13.2591 4.7633 12.2479 3.75212C11.2367 2.74093 9.89759 2.12416 8.4719 2.01293C7.0462 1.90171 5.62765 2.30335 4.47188 3.14549C3.31611 3.98762 2.49913 5.21486 2.16815 6.60607C1.83717 7.99727 2.01396 9.46094 2.66667 10.7333L1.33334 14.6667L5.26667 13.3333Z" stroke="white" stroke-width="1.25" stroke-linecap="round" stroke-linejoin="round" />

  <!-- Точки (с возможностью перекраски) -->
  <circle cx="5.333" cy="8" r="0.3" fill="red" /> <!-- Левая точка -->
  <circle cx="8" cy="8" r="0.3" fill="red" />     <!-- Центральная точка -->
  <circle cx="10.667" cy="8" r="0.3" fill="red" /> <!-- Правая точка -->
</svg>
