<svg width="16" height="16" viewBox="0 0 16 16" fill="none" xmlns="http://www.w3.org/2000/svg">
<g clip-path="url(#clip0_2004_2398)">
<path d="M3.28668 3.28665L6.11334 6.11331M9.88668 6.11331L12.7133 3.28665M9.88668 9.88665L12.7133 12.7133M6.11334 9.88665L3.28668 12.7133M14.6667 7.99998C14.6667 11.6819 11.6819 14.6666 8.00001 14.6666C4.31811 14.6666 1.33334 11.6819 1.33334 7.99998C1.33334 4.31808 4.31811 1.33331 8.00001 1.33331C11.6819 1.33331 14.6667 4.31808 14.6667 7.99998ZM10.6667 7.99998C10.6667 9.47274 9.47277 10.6666 8.00001 10.6666C6.52725 10.6666 5.33334 9.47274 5.33334 7.99998C5.33334 6.52722 6.52725 5.33331 8.00001 5.33331C9.47277 5.33331 10.6667 6.52722 10.6667 7.99998Z" stroke="#2D1E2F" stroke-width="1.25" stroke-linecap="round" stroke-linejoin="round"/>
</g>
<defs>
<clipPath id="clip0_2004_2398">
<rect width="16" height="16" fill="white"/>
</clipPath>
</defs>
</svg>
