<svg width="115" height="120" viewBox="0 0 115 120" fill="none" xmlns="http://www.w3.org/2000/svg">
<g clip-path="url(#clip0_496_2512)">
<rect width="115" height="120" fill="url(#paint0_linear_496_2512)"/>
<path d="M44.0118 45.6317L45.8442 55.1579L60.7876 63.8428L58.7215 67.471C58.7215 67.471 41.4464 62.4318 41.0249 61.2531C40.6035 60.0744 36.6225 47.5904 36.6225 47.5904L44.0118 45.6317Z" fill="#263238"/>
<path d="M37.4655 29.5242L38.4642 41.0748L38.991 47.1349C41.8725 48.4758 44.6898 46.4601 44.8639 46.3287C44.0805 44.129 43.1689 31.7151 37.4655 29.5242Z" fill="#999999" stroke="#263238" stroke-linecap="round" stroke-linejoin="round"/>
<path d="M38.4824 41.0747L39.0092 47.1348C41.8907 48.4757 44.7081 46.46 44.8821 46.3285C44.7585 46.3811 43.2421 46.9946 42.2572 46.3285C42.6017 45.9728 42.9086 45.5853 43.1734 45.1717C43.233 44.9439 42.2572 44.8825 42.2572 44.8825C42.2572 44.8825 42.8985 39.9704 41.1898 37.8715C40.521 37.074 39.4765 38.7391 38.4824 41.0747Z" fill="#263238"/>
<path d="M36.4621 62.2434C40.269 73.7809 52.0835 92.2856 50.8878 97.0224C50.2327 99.6077 46.3343 114.256 43.2833 120.685C42.1243 123.143 39.6185 124.786 39.6185 124.786L37.8089 128.497C33.3974 130.333 31.8169 126.6 31.8169 126.6L32.7056 122.393C30.3418 118.283 31.3313 118.283 34.4052 96.9786C34.7671 94.4677 28.6789 86.7074 28.6789 86.7074L25.5546 106.233L25.0461 122.227L23.4244 127.17C23.4244 127.17 23.0213 131.81 23.0579 132.091H15.8061L15.0182 126.99C15.0182 126.99 11.6511 123.953 11.6511 120.448C11.6511 116.942 12.3749 99.0862 11.6511 93.885C10.9273 88.6837 13.3461 64.4343 13.3461 64.4343L36.4621 62.2434Z" fill="#263238"/>
<path d="M85.7608 51.9633L75.6824 52.8309C75.454 52.8506 75.2431 52.9562 75.0962 53.1246C74.9492 53.293 74.8782 53.5104 74.8987 53.7288L75.546 60.6084L87.3468 59.5925L86.6995 52.7129C86.679 52.4945 86.5685 52.2927 86.3925 52.1522C86.2164 52.0116 85.9892 51.9436 85.7608 51.9633Z" fill="#06BCC1"/>
<mask id="mask0_496_2512" style="mask-type:luminance" maskUnits="userSpaceOnUse" x="74" y="51" width="14" height="10">
<path d="M85.7608 51.9633L75.6824 52.8309C75.454 52.8506 75.2431 52.9562 75.0962 53.1246C74.9492 53.293 74.8782 53.5104 74.8987 53.7288L75.546 60.6084L87.3468 59.5925L86.6995 52.7129C86.679 52.4945 86.5685 52.2927 86.3925 52.1522C86.2164 52.0116 85.9892 51.9436 85.7608 51.9633Z" fill="white"/>
</mask>
<g mask="url(#mask0_496_2512)">
<path opacity="0.3" d="M85.7608 51.9633L75.6824 52.8309C75.454 52.8506 75.2431 52.9562 75.0962 53.1246C74.9492 53.293 74.8782 53.5104 74.8987 53.7288L75.546 60.6084L87.3468 59.5925L86.6995 52.7129C86.679 52.4945 86.5685 52.2927 86.3925 52.1522C86.2164 52.0116 85.9892 51.9436 85.7608 51.9633Z" fill="black" fill-opacity="0.7"/>
<path opacity="0.3" d="M75.5242 52.7115L78.4133 52.4741L78.9097 58.0012L76.0206 58.2386L75.5242 52.7115Z" fill="white" fill-opacity="0.7"/>
</g>
<path d="M85.7608 51.9633L75.6824 52.8309C75.454 52.8506 75.2431 52.9562 75.0962 53.1246C74.9492 53.293 74.8782 53.5104 74.8987 53.7288L75.546 60.6084L87.3468 59.5925L86.6995 52.7129C86.679 52.4945 86.5685 52.2927 86.3925 52.1522C86.2164 52.0116 85.9892 51.9436 85.7608 51.9633Z" stroke="#263238" stroke-width="1.00404" stroke-linecap="round" stroke-linejoin="round"/>
<path d="M68.365 52.5723L58.3237 53.3974C58.0961 53.4161 57.8856 53.5206 57.7385 53.6877C57.5914 53.8549 57.5197 54.071 57.5393 54.2887L58.1549 61.143L69.9124 60.1769L69.2968 53.3226C69.2772 53.1049 69.1681 52.9036 68.9933 52.7629C68.8186 52.6222 68.5926 52.5536 68.365 52.5723Z" fill="#06BCC1"/>
<mask id="mask1_496_2512" style="mask-type:luminance" maskUnits="userSpaceOnUse" x="57" y="52" width="13" height="10">
<path d="M68.365 52.5723L58.3237 53.3974C58.0961 53.4161 57.8856 53.5206 57.7385 53.6877C57.5914 53.8549 57.5197 54.071 57.5393 54.2887L58.1549 61.143L69.9124 60.1769L69.2968 53.3226C69.2772 53.1049 69.1681 52.9036 68.9933 52.7629C68.8186 52.6222 68.5926 52.5536 68.365 52.5723Z" fill="white"/>
</mask>
<g mask="url(#mask1_496_2512)">
<path opacity="0.3" d="M68.365 52.5723L58.3237 53.3974C58.0961 53.4161 57.8856 53.5206 57.7385 53.6877C57.5914 53.8549 57.5197 54.071 57.5393 54.2887L58.1549 61.143L69.9124 60.1769L69.2968 53.3226C69.2772 53.1049 69.1681 52.9036 68.9933 52.7629C68.8186 52.6222 68.5926 52.5536 68.365 52.5723Z" fill="black" fill-opacity="0.7"/>
<path opacity="0.3" d="M58.3783 54.1231L60.1218 53.9799L60.6182 59.507L58.8747 59.6502L58.3783 54.1231Z" fill="white" fill-opacity="0.7"/>
</g>
<path d="M68.365 52.5723L58.3237 53.3974C58.0961 53.4161 57.8856 53.5206 57.7385 53.6877C57.5914 53.8549 57.5197 54.071 57.5393 54.2887L58.1549 61.143L69.9124 60.1769L69.2968 53.3226C69.2772 53.1049 69.1681 52.9036 68.9933 52.7629C68.8186 52.6222 68.5926 52.5536 68.365 52.5723Z" stroke="#263238" stroke-linecap="round" stroke-linejoin="round"/>
<path d="M72.0124 52.2702L61.971 53.0953C61.7434 53.114 61.5329 53.2184 61.3858 53.3856C61.2388 53.5527 61.1671 53.7689 61.1867 53.9866L61.8022 60.8409L73.5597 59.8748L72.9441 53.0205C72.9246 52.8028 72.8154 52.6015 72.6407 52.4608C72.4659 52.3201 72.2399 52.2515 72.0124 52.2702Z" fill="#06BCC1" stroke="#263238" stroke-linecap="round" stroke-linejoin="round"/>
<path d="M54.6722 53.698L44.6309 54.5231C44.4033 54.5418 44.1928 54.6462 44.0457 54.8133C43.8986 54.9805 43.8269 55.1967 43.8465 55.4143L44.4617 62.2643L56.2192 61.2982L55.6036 54.4439C55.5829 54.227 55.4733 54.0268 55.2988 53.8871C55.1243 53.7473 54.899 53.6793 54.6722 53.698Z" fill="#06BCC1" stroke="#263238" stroke-linecap="round" stroke-linejoin="round"/>
<path opacity="0.3" d="M61.8312 53.8373L64.7203 53.5999L65.2167 59.127L62.3276 59.3644L61.8312 53.8373Z" fill="white" fill-opacity="0.7"/>
<path opacity="0.3" d="M44.681 55.2447L47.5702 55.0073L48.0666 60.5344L45.1774 60.7718L44.681 55.2447Z" fill="white" fill-opacity="0.7"/>
<path d="M39.2108 61.0999L42.0465 92.6188L95.1364 88.2369L92.3007 56.7224C92.2776 56.4616 92.201 56.2077 92.0751 55.9753C91.9493 55.7429 91.7767 55.5365 91.5674 55.368C91.358 55.1994 91.1159 55.0721 90.855 54.9932C90.594 54.9144 90.3194 54.8855 90.0468 54.9083L41.112 58.9309C40.8376 58.9524 40.5705 59.0257 40.326 59.1467C40.0815 59.2676 39.8646 59.4338 39.6877 59.6356C39.5109 59.8373 39.3777 60.0707 39.2958 60.322C39.2139 60.5734 39.1851 60.8378 39.2108 61.0999Z" fill="#06BCC1"/>
<mask id="mask2_496_2512" style="mask-type:luminance" maskUnits="userSpaceOnUse" x="39" y="54" width="57" height="39">
<path d="M39.2108 61.0999L42.0465 92.6188L95.1364 88.2369L92.3007 56.7224C92.2776 56.4616 92.201 56.2077 92.0751 55.9753C91.9493 55.7429 91.7767 55.5365 91.5674 55.368C91.358 55.1994 91.1159 55.0721 90.855 54.9932C90.594 54.9144 90.3194 54.8855 90.0468 54.9083L41.112 58.9309C40.8376 58.9524 40.5705 59.0257 40.326 59.1467C40.0815 59.2676 39.8646 59.4338 39.6877 59.6356C39.5109 59.8373 39.3777 60.0707 39.2958 60.322C39.2139 60.5734 39.1851 60.8378 39.2108 61.0999Z" fill="white"/>
</mask>
<g mask="url(#mask2_496_2512)">
<path opacity="0.3" d="M39.2108 61.0999L42.0465 92.6188L95.1364 88.2369L92.3007 56.7224C92.2776 56.4616 92.201 56.2077 92.0751 55.9753C91.9493 55.7429 91.7767 55.5365 91.5674 55.368C91.358 55.1994 91.1159 55.0721 90.855 54.9932C90.594 54.9144 90.3194 54.8855 90.0468 54.9083L41.112 58.9309C40.8376 58.9524 40.5705 59.0257 40.326 59.1467C40.0815 59.2676 39.8646 59.4338 39.6877 59.6356C39.5109 59.8373 39.3777 60.0707 39.2958 60.322C39.2139 60.5734 39.1851 60.8378 39.2108 61.0999Z" fill="black" fill-opacity="0.7"/>
</g>
<path d="M39.2108 61.0999L42.0465 92.6188L95.1364 88.2369L92.3007 56.7224C92.2776 56.4616 92.201 56.2077 92.0751 55.9753C91.9493 55.7429 91.7767 55.5365 91.5674 55.368C91.358 55.1994 91.1159 55.0721 90.855 54.9932C90.594 54.9144 90.3194 54.8855 90.0468 54.9083L41.112 58.9309C40.8376 58.9524 40.5705 59.0257 40.326 59.1467C40.0815 59.2676 39.8646 59.4338 39.6877 59.6356C39.5109 59.8373 39.3777 60.0707 39.2958 60.322C39.2139 60.5734 39.1851 60.8378 39.2108 61.0999Z" stroke="#263238" stroke-linecap="round" stroke-linejoin="round"/>
<path d="M39.2109 61.0998L42.0465 92.6187L81.4436 89.3761L78.6034 57.8616C78.5803 57.6008 78.5036 57.3469 78.3778 57.1145C78.252 56.882 78.0794 56.6756 77.87 56.5071C77.6606 56.3386 77.4186 56.2112 77.1576 56.1324C76.8967 56.0535 76.6221 56.0247 76.3495 56.0475L41.1074 58.9439C40.8347 58.966 40.5693 59.0393 40.3263 59.1597C40.0833 59.28 39.8675 59.4451 39.6914 59.6454C39.5152 59.8456 39.382 60.0772 39.2996 60.3268C39.2171 60.5764 39.187 60.8391 39.2109 61.0998Z" fill="#06BCC1" stroke="#263238" stroke-linecap="round" stroke-linejoin="round"/>
<path opacity="0.3" d="M41.9779 62.0026L75.6532 59.2333C75.8777 59.2143 76.0855 59.1119 76.2319 58.948C76.3784 58.7842 76.4519 58.572 76.4366 58.3569C76.4168 58.1422 76.3097 57.9435 76.1384 57.8034C75.9671 57.6633 75.7453 57.593 75.5204 57.6076L41.8451 60.377C41.6206 60.396 41.4128 60.4984 41.2664 60.6622C41.1199 60.826 41.0465 61.0383 41.0617 61.2533C41.0816 61.4681 41.1886 61.6668 41.3599 61.8069C41.5312 61.9469 41.7531 62.0172 41.9779 62.0026Z" fill="white" fill-opacity="0.7"/>
<path d="M11.5 70.67C11.5 70.67 21.6745 72.5762 31.6566 69.4826C33.9295 68.7898 36.1037 67.8301 38.1297 66.6256C38.1297 66.6256 38.1022 66.0121 38.0838 65.0087C38.0014 61.0913 38.0243 51.2364 40.182 48.7957C41.5563 47.2577 42.6328 37.749 39.9804 32.9421L31.8674 26.7023C20.6346 28.8012 18.2616 31.645 16.4063 37.7797C16.0627 38.9014 15.742 40.1327 15.3847 41.4911C14.9953 42.9722 14.6289 44.7819 14.2807 46.7494C12.5949 56.5472 11.5 70.67 11.5 70.67Z" fill="#999999"/>
<mask id="mask3_496_2512" style="mask-type:luminance" maskUnits="userSpaceOnUse" x="11" y="26" width="31" height="46">
<path d="M11.5 70.67C11.5 70.67 21.6745 72.5762 31.6566 69.4826C33.9295 68.7898 36.1037 67.8301 38.1297 66.6256C38.1297 66.6256 38.1022 66.0121 38.0838 65.0087C38.0014 61.0913 38.0243 51.2364 40.182 48.7957C41.5563 47.2577 42.6328 37.749 39.9804 32.9421L31.8674 26.7023C20.6346 28.8012 18.2616 31.645 16.4063 37.7797C16.0627 38.9014 15.742 40.1327 15.3847 41.4911C14.9953 42.9722 14.6289 44.7819 14.2807 46.7494C12.5949 56.5472 11.5 70.67 11.5 70.67Z" fill="white"/>
</mask>
<g mask="url(#mask3_496_2512)">
<path opacity="0.2" d="M14.2808 46.7493L18.8618 66.3232C18.8618 66.3232 25.4815 68.0759 31.6521 69.4825C33.9265 68.7901 36.1024 67.8304 38.1298 66.6255C38.1298 66.6255 38.1023 66.0121 38.0839 65.0086C32.5409 62.2962 24.4507 58.3087 24.5149 58.1203C24.6202 57.8267 24.5149 47.6038 24.5149 47.6038C24.5149 47.6038 17.1852 45.9781 16.4064 37.7665C16.0628 38.8882 15.7421 40.1195 15.3848 41.4779C14.9954 42.9634 14.629 44.76 14.2808 46.7493Z" fill="black"/>
</g>
<path d="M11.5 70.67C11.5 70.67 21.6745 72.5762 31.6566 69.4826C33.9295 68.7898 36.1037 67.8301 38.1297 66.6256C38.1297 66.6256 38.1022 66.0121 38.0838 65.0087C38.0014 61.0913 38.0243 51.2364 40.182 48.7957C41.5563 47.2577 42.6328 37.749 39.9804 32.9421L31.8674 26.7023C20.6346 28.8012 18.2616 31.645 16.4063 37.7797C16.0627 38.9014 15.742 40.1327 15.3847 41.4911C14.9953 42.9722 14.6288 44.7819 14.2807 46.7494C12.5949 56.5472 11.5 70.67 11.5 70.67Z" stroke="#263238" stroke-linecap="round" stroke-linejoin="round"/>
<path d="M31.5102 18.5123C31.5102 18.5123 35.0926 23.42 30.3283 27.2498C30.3283 27.2498 36.1095 33.4545 38.0107 32.6001C38.8124 32.2408 38.0107 30.0016 38.0107 30.0016L41.364 24.0686L31.5102 18.5123Z" fill="white" stroke="#263238" stroke-linecap="round" stroke-linejoin="round"/>
<path d="M32.6783 21.054C31.5605 16.3785 32.0965 9.41574 38.9452 10.0336C43.7461 10.4718 47.1682 13.0133 45.8167 19.1742C45.2533 21.7726 44.7906 25.4534 42.2985 28.7749C41.6067 29.6951 34.3687 26.4393 34.8085 23.8058" fill="white"/>
<path d="M32.6783 21.054C31.5605 16.3785 32.0965 9.41574 38.9452 10.0336C43.7461 10.4718 47.1682 13.0133 45.8167 19.1742C45.2533 21.7726 44.7906 25.4534 42.2985 28.7749C41.6067 29.6951 34.3687 26.4393 34.8085 23.8058" stroke="#263238" stroke-linecap="round" stroke-linejoin="round"/>
<path d="M42.4771 18.131C41.9941 17.9521 41.4741 17.8839 40.9586 17.9319C40.4431 17.9798 39.9465 18.1426 39.5086 18.4071" stroke="#263238" stroke-linecap="round" stroke-linejoin="round"/>
<path d="M45.922 18.7052C45.834 18.5257 45.6814 18.3827 45.4921 18.3022C45.3027 18.2217 45.0894 18.2092 44.8913 18.267" stroke="#263238" stroke-linecap="round" stroke-linejoin="round"/>
<path d="M44.2088 19.678C44.2088 19.678 45.6197 22.1362 45.6243 22.4868C45.6289 22.8373 43.8881 22.9556 43.8881 22.9556" fill="white"/>
<path d="M44.2088 19.678C44.2088 19.678 45.6197 22.1362 45.6243 22.4868C45.6289 22.8373 43.8881 22.9556 43.8881 22.9556" stroke="#263238" stroke-linecap="round" stroke-linejoin="round"/>
<path d="M41.176 20.1774C41.176 20.4447 41.2997 20.6638 41.4738 20.6726C41.6479 20.6813 41.7945 20.4622 41.8036 20.1949C41.8128 19.9276 41.6799 19.7085 41.5059 19.7042C41.3318 19.6998 41.1852 19.9189 41.176 20.1774Z" fill="#263238"/>
<path d="M43.1688 24.7434C43.1688 24.7434 40.4614 24.257 39.9621 23.3456" stroke="#263238" stroke-linecap="round" stroke-linejoin="round"/>
<path d="M45.9404 14.9193L43.8331 14.3321C43.8331 14.3321 40.8783 13.0175 40.2507 13.2016C39.6231 13.3856 38.3496 15.2567 38.3908 16.3258C38.3908 16.3258 36.4026 17.9997 36.1507 20.4273L35.546 20.1644C35.546 20.1644 35.578 17.9734 34.277 18.0304C32.976 18.0874 32.3896 19.5772 32.4767 20.0461C32.5637 20.5149 33.9884 22.4605 33.9884 22.4605C33.9884 22.4605 30.7267 21.996 30.6213 15.8877C30.516 9.77931 37.5158 8.78462 40.9196 9.03439C42.6429 9.19231 44.3744 9.25376 46.1053 9.21843L45.9129 10.9712L47.2872 11.3173L46.2519 12.5311L47.388 13.0263L45.9404 14.9193Z" fill="#263238"/>
<path d="M34.1395 81.5238C34.1395 81.5238 25.8478 83.6227 23.6031 89.5295" stroke="white" stroke-linecap="round" stroke-linejoin="round"/>
<path d="M30.3419 84.7007C30.3419 84.7007 34.8222 91.8388 41.6801 95.5458" stroke="white" stroke-linecap="round" stroke-linejoin="round"/>
<path d="M14.3906 92.5179C14.3906 92.5179 18.5731 102.881 20.6896 103.841" stroke="white" stroke-linecap="round" stroke-linejoin="round"/>
<path d="M32.7058 76.2874C32.5913 77.4135 27.6667 82.6323 23.6033 84.7006" stroke="white" stroke-linecap="round" stroke-linejoin="round"/>
<path d="M28.5049 71.8837C27.9121 73.2809 27.7888 74.8201 28.1521 76.2874C28.5473 77.554 28.5473 78.9033 28.1521 80.1698" stroke="white" stroke-linecap="round" stroke-linejoin="round"/>
<path d="M37.4655 50.3336C37.4655 50.3336 29.7555 59.8773 21.4684 63.0104" stroke="#263238" stroke-linecap="round" stroke-linejoin="round"/>
<path d="M29.4852 34.905C29.4852 34.905 29.5127 41.3946 24.6201 44.3217" stroke="#263238" stroke-linecap="round" stroke-linejoin="round"/>
<path d="M26.732 44.3742C27.7674 45.347 26.6404 57.5549 26.6404 57.5549C26.6404 57.5549 32.6553 59.8072 34.5382 61.2576C36.421 62.708 45.3403 66.0382 45.3403 66.0382C45.3403 66.0382 46.7146 70.5165 45.0013 70.6699C43.288 70.8233 25.5456 65.0392 21.4867 63.0104C21.4867 63.0104 18.8435 48.112 18.8618 44.3217" fill="white"/>
<path d="M26.732 44.3742C27.7674 45.347 26.6404 57.5549 26.6404 57.5549C26.6404 57.5549 32.6553 59.8072 34.5382 61.2576C36.421 62.708 45.3403 66.0382 45.3403 66.0382C45.3403 66.0382 46.7146 70.5165 45.0013 70.6699C43.288 70.8233 25.5456 65.0392 21.4867 63.0104C21.4867 63.0104 18.8435 48.112 18.8618 44.3217" stroke="#263238" stroke-linecap="round" stroke-linejoin="round"/>
<path d="M44.6348 65.7708C45.4593 65.6218 46.9253 65.1048 47.6949 65.2757C48.4645 65.4466 49.8709 66.2572 51.3185 66.5902C52.7661 66.9233 52.166 67.4666 51.3185 67.6288C50.6982 67.7275 50.0651 67.7275 49.4449 67.6288L50.6222 68.7286C51.2964 69.0776 51.9925 69.3864 52.7066 69.6532C53.1326 69.6532 54.6398 70.0432 54.539 70.6566C54.4382 71.2701 53.5724 71.2 52.6058 71.235C52.6058 71.235 54.145 71.5286 53.9801 72.3656C53.8793 72.9396 52.1477 72.4225 51.2635 72.4225C51.2635 72.4225 51.9874 73.1762 51.4468 73.4084C50.9062 73.6407 49.706 73.0623 49.706 73.0623C49.706 73.0623 49.7518 73.6845 49.2112 73.7458C48.6707 73.8072 47.3101 73.3077 46.3847 72.7731C45.4735 72.2113 44.6012 71.5936 43.7735 70.9239C43.4232 70.6176 43.0223 70.3689 42.587 70.1878" fill="white"/>
<path d="M44.6348 65.7708C45.4593 65.6218 46.9253 65.1048 47.6949 65.2757C48.4645 65.4466 49.8709 66.2572 51.3185 66.5902C52.7661 66.9233 52.166 67.4666 51.3185 67.6288C50.6982 67.7275 50.0651 67.7275 49.4449 67.6288L50.6222 68.7286C51.2964 69.0776 51.9925 69.3864 52.7066 69.6532C53.1326 69.6532 54.6398 70.0432 54.539 70.6566C54.4382 71.2701 53.5724 71.2 52.6058 71.235C52.6058 71.235 54.145 71.5286 53.9801 72.3656C53.8793 72.9396 52.1477 72.4225 51.2635 72.4225C51.2635 72.4225 51.9874 73.1762 51.4468 73.4084C50.9062 73.6407 49.706 73.0623 49.706 73.0623C49.706 73.0623 49.7518 73.6845 49.2112 73.7458C48.6707 73.8072 47.3101 73.3077 46.3847 72.7731C45.4735 72.2113 44.6012 71.5936 43.7735 70.9239C43.4232 70.6176 43.0223 70.3689 42.587 70.1878" stroke="#263238" stroke-linecap="round" stroke-linejoin="round"/>
<path d="M52.5829 71.2527C52.1574 71.2307 51.7336 71.1838 51.314 71.1125C50.9521 71.0248 50.5902 70.9109 50.5902 70.9109" stroke="#263238" stroke-linecap="round" stroke-linejoin="round"/>
<path d="M51.259 72.4402C50.7054 72.3657 50.172 72.1902 49.6877 71.9231" stroke="#263238" stroke-linecap="round" stroke-linejoin="round"/>
<path d="M49.7014 73.0799C49.2919 73.0305 48.8999 72.891 48.5562 72.6724" stroke="#263238" stroke-linecap="round" stroke-linejoin="round"/>
<path d="M50.4757 69.0618C50.4757 69.0618 50.8056 69.7848 50.4757 70.1879C50.1459 70.591 49.7473 70.6261 49.6878 71.0643C49.6282 71.5025 48.8403 71.5025 48.5563 71.7873C48.2722 72.0721 48.0569 72.6199 47.1499 72.6637" stroke="#263238" stroke-linecap="round" stroke-linejoin="round"/>
<path d="M27.1169 31.7151C30.2366 38.4676 27.1169 47.836 27.1169 47.836C27.1169 47.836 19.5673 50.2899 18.871 49.2338C18.1747 48.1778 16.9011 42.9984 16.6858 40.6059" fill="#999999"/>
<path d="M27.1169 31.7151C30.2366 38.4676 27.1169 47.836 27.1169 47.836C27.1169 47.836 19.5673 50.2899 18.871 49.2338C18.1747 48.1778 16.9011 42.9984 16.6858 40.6059" stroke="#263238" stroke-linecap="round" stroke-linejoin="round"/>
<path d="M18.8617 41.3553C18.8617 41.3553 22.0685 45.5751 24.6201 45.6321" stroke="#263238" stroke-linecap="round" stroke-linejoin="round"/>
</g>
<defs>
<linearGradient id="paint0_linear_496_2512" x1="57.5" y1="0" x2="57.5" y2="120" gradientUnits="userSpaceOnUse">
<stop offset="0.2" stop-color="white"/>
<stop offset="0.705" stop-color="#C1F8F9" stop-opacity="0.7"/>
<stop offset="1" stop-color="#06BCC1" stop-opacity="0.5"/>
</linearGradient>
<clipPath id="clip0_496_2512">
<rect width="115" height="120" fill="white"/>
</clipPath>
</defs>
</svg>
