<svg width="115" height="120" viewBox="0 0 115 120" fill="none" xmlns="http://www.w3.org/2000/svg">
<g clip-path="url(#clip0_663_3640)">
<rect width="115" height="120" fill="url(#paint0_linear_663_3640)"/>
<mask id="mask0_663_3640" style="mask-type:luminance" maskUnits="userSpaceOnUse" x="34" y="14" width="7" height="25">
<path d="M35.4455 18.4845C35.4455 18.4845 37.084 32.0417 37.084 32.6446C37.084 33.2474 35.583 33.5475 35.583 34.299C35.541 34.9153 35.4149 35.5229 35.2084 36.1049C35.2084 36.1049 34.9092 36.4076 34.9092 36.6455C34.9092 36.8834 35.4347 36.7969 35.8848 36.5725C36.3349 36.3482 36.4831 35.5182 36.4831 35.5182C36.3801 36.0155 36.3054 36.5182 36.2594 37.024L35.9603 37.3241C35.9603 37.3241 35.0602 38.1513 35.6584 38.227C36.2567 38.3027 39.0352 37.2484 39.1861 36.5725C39.337 35.8967 38.8088 32.6581 38.8088 32.6581C38.8088 32.6581 40.9863 17.3815 40.9863 15.9514C40.9968 15.5518 40.8879 15.1581 40.6738 14.8209C40.4596 14.4837 40.1499 14.2184 39.7844 14.0591" fill="white"/>
</mask>
<g mask="url(#mask0_663_3640)">
<g style="mix-blend-mode:multiply" opacity="0.3">
<path d="M40.9756 17.8545C40.6602 16.6515 40.318 14.4672 40.318 14.4672L38.8897 14.032L37.0032 16.3055L38.4935 15.3864V33.4258C38.4935 34.3449 37.3482 37.9052 37.3482 37.9052C37.3482 37.9052 39.717 37.4051 39.3343 35.2424C38.9517 33.0798 38.4935 33.4258 39.1807 29.0599C39.8679 24.694 41.3016 19.0656 40.9756 17.8545Z" fill="#06BCC1"/>
</g>
</g>
<mask id="mask1_663_3640" style="mask-type:luminance" maskUnits="userSpaceOnUse" x="31" y="0" width="73" height="72">
<path d="M31.7841 19.9814L32.4462 20.1699L41.8913 21.447C41.8913 21.447 43.4313 22.0463 43.9729 22.6849C44.5146 23.3234 44.026 25.6527 44.026 25.6527L43.0383 31.1328L44.6208 40.9574L41.8595 42.4884L41.9657 43.4593C42.04 43.475 41.948 44.7547 37.852 45.2912C37.852 45.2912 37.0023 45.6053 36.7545 45.4666C36.1279 45.1185 36.6306 45.1473 36.6306 45.1473L34.9738 45.9324C35.0619 46.5499 34.9727 47.1742 34.7119 47.7644C34.28 48.8112 33.9826 49.0154 33.9826 49.0154L34.7366 58.7535L36.5527 60.6666L60.2719 71.3103H104V0H31.2496V19.8323L31.7841 19.9814Z" fill="white"/>
</mask>
<g mask="url(#mask1_663_3640)">
<path d="M54.1944 15.7643L52.2137 16.9106L51.0953 14.9506L53.0734 13.8071L54.1944 15.7643Z" stroke="#263238" stroke-width="0.835087" stroke-linecap="round" stroke-linejoin="round"/>
<path d="M53.5261 13.5341L50.4081 15.3399L48.5513 11.8904L51.6693 10.0846L53.5261 13.5341Z" stroke="#263238" stroke-width="0.835087" stroke-linecap="round" stroke-linejoin="round"/>
<path d="M83.5463 57.362C92.9088 47.9703 92.9088 32.7433 83.5463 23.3516C74.1839 13.9599 59.0043 13.9599 49.6419 23.3516C40.2795 32.7433 40.2795 47.9703 49.6419 57.362C59.0043 66.7537 74.1839 66.7537 83.5463 57.362Z" fill="white"/>
<path d="M66.804 12.1821C61.3303 12.1805 55.9789 13.8073 51.4269 16.8567C46.8748 19.9061 43.3265 24.2412 41.2307 29.3136C39.1348 34.3861 38.5856 39.9681 39.6525 45.3536C40.7194 50.7392 43.3545 55.6865 47.2245 59.5697C51.0945 63.4529 56.0255 66.0976 61.394 67.1694C66.7625 68.2412 72.3273 67.692 77.3845 65.5911C82.4418 63.4902 86.7644 59.932 89.8056 55.3666C92.8469 50.8012 94.4701 45.4337 94.4701 39.9428C94.4701 32.5816 91.5556 25.5218 86.3674 20.3159C81.1792 15.11 74.1423 12.1843 66.804 12.1821ZM66.804 63.9917C62.0603 63.9917 57.4231 62.5807 53.4788 59.9369C49.5345 57.2932 46.4603 53.5356 44.6449 49.1392C42.8296 44.7429 42.3546 39.9053 43.2801 35.2381C44.2055 30.571 46.4899 26.284 49.8442 22.9191C53.1985 19.5543 57.4722 17.2628 62.1248 16.3345C66.7774 15.4061 71.6 15.8826 75.9826 17.7036C80.3653 19.5247 84.1112 22.6085 86.7467 26.5651C89.3822 30.5217 90.7889 35.1734 90.7889 39.932C90.7889 43.0915 90.1685 46.2202 88.9631 49.1392C87.7578 52.0583 85.9911 54.7106 83.7639 56.9448C81.5367 59.179 78.8926 60.9512 75.9826 62.1603C73.0727 63.3694 69.9538 63.9917 66.804 63.9917Z" fill="#263238" stroke="#263238" stroke-width="0.835087" stroke-linecap="round" stroke-linejoin="round"/>
<path d="M83.7847 19.0027C81.0267 16.7484 77.85 15.066 74.4387 14.0529" stroke="white" stroke-width="1.67017" stroke-linecap="round" stroke-linejoin="round"/>
<path d="M71.8866 13.4312C70.9064 13.2446 69.9168 13.112 68.9222 13.0338" stroke="white" stroke-width="1.67017" stroke-linecap="round" stroke-linejoin="round"/>
<path d="M86.9891 54.7843C90.2222 50.3556 91.92 44.9862 91.8227 39.4977C91.7253 34.0093 89.8382 28.7039 86.4501 24.3933" stroke="white" stroke-width="0.835087" stroke-linecap="round" stroke-linejoin="round"/>
<path d="M83.4909 58.6473C84.2768 57.9432 85.0167 57.1893 85.7061 56.39" stroke="white" stroke-width="0.835087" stroke-linecap="round" stroke-linejoin="round"/>
<path d="M56.6307 62.8836C60.8367 64.7573 65.4757 65.4332 70.0393 64.8371C74.6028 64.241 78.9146 62.396 82.502 59.5044" stroke="white" stroke-width="0.835087" stroke-linecap="round" stroke-linejoin="round"/>
<path d="M53.0599 60.9236C53.8084 61.4158 54.583 61.867 55.3802 62.2753" stroke="white" stroke-width="0.835087" stroke-linecap="round" stroke-linejoin="round"/>
<path d="M50.3757 58.88C51.0068 59.431 51.6652 59.9498 52.3484 60.4344" stroke="white" stroke-width="0.835087" stroke-linecap="round" stroke-linejoin="round"/>
<path d="M59.8835 15.8129C55.6309 17.0413 51.779 19.3787 48.7204 22.5869C45.6617 25.7951 43.5057 29.7594 42.4719 34.0757C41.4382 38.3921 41.5637 42.9062 42.8357 47.1581C44.1077 51.41 46.4807 55.2475 49.7128 58.2797" stroke="white" stroke-width="0.835087" stroke-linecap="round" stroke-linejoin="round"/>
<path d="M84.4988 22.1927C81.5714 19.2599 77.9656 17.0997 74.0034 15.9048C70.0412 14.71 65.8457 14.5177 61.7914 15.3452" stroke="white" stroke-width="0.835087" stroke-linecap="round" stroke-linejoin="round"/>
<path d="M70.3909 48.8344H63.1901V50.7916H70.3909V48.8344Z" fill="#06BCC1"/>
<path d="M68.8144 39.9429C68.8144 39.4712 68.6493 39.0144 68.3479 38.6522C68.0465 38.2901 67.6279 38.0456 67.1651 37.9614L66.9522 24.7501H66.6531L66.4429 37.9614C65.9848 38.044 65.5695 38.2837 65.2681 38.6395C64.9667 38.9953 64.7979 39.4451 64.7905 39.9119C64.7832 40.3788 64.9378 40.8337 65.2279 41.1988C65.518 41.564 65.9256 41.8167 66.3809 41.9137L66.3054 46.6013H67.3026L67.2271 41.9137C67.6762 41.8162 68.0785 41.5675 68.3672 41.2091C68.6559 40.8506 68.8137 40.4038 68.8144 39.9429ZM66.804 41.0243C66.5908 41.0243 66.3824 40.9608 66.2051 40.842C66.0278 40.7232 65.8897 40.5543 65.8081 40.3567C65.7265 40.1591 65.7052 39.9417 65.7468 39.732C65.7884 39.5222 65.891 39.3295 66.0418 39.1783C66.1925 39.0271 66.3846 38.9241 66.5937 38.8824C66.8028 38.8406 67.0196 38.8621 67.2165 38.9439C67.4135 39.0257 67.5819 39.1643 67.7003 39.3422C67.8188 39.52 67.882 39.7291 67.882 39.9429C67.882 40.0849 67.8541 40.2255 67.7999 40.3567C67.7458 40.4879 67.6663 40.6071 67.5663 40.7075C67.4662 40.808 67.3473 40.8876 67.2165 40.9419C67.0857 40.9963 66.9456 41.0243 66.804 41.0243Z" fill="#263238"/>
<path d="M66.804 41.0539C67.4157 41.0539 67.9116 40.5565 67.9116 39.9429C67.9116 39.3292 67.4157 38.8318 66.804 38.8318C66.1922 38.8318 65.6964 39.3292 65.6964 39.9429C65.6964 40.5565 66.1922 41.0539 66.804 41.0539Z" fill="#06BCC1"/>
<path d="M66.804 17.243V21.2467" stroke="#263238" stroke-width="3.34035" stroke-linecap="round" stroke-linejoin="round"/>
<path d="M66.804 58.7772V62.7809" stroke="#263238" stroke-width="3.34035" stroke-linecap="round" stroke-linejoin="round"/>
<path d="M55.4557 20.295L57.4499 23.7607" stroke="#263238" stroke-width="3.34035" stroke-linecap="round" stroke-linejoin="round"/>
<path d="M76.158 56.2629L78.1523 59.7313" stroke="#263238" stroke-width="3.34035" stroke-linecap="round" stroke-linejoin="round"/>
<path d="M47.1473 28.6267L50.6022 30.6299" stroke="#263238" stroke-width="3.34035" stroke-linecap="round" stroke-linejoin="round"/>
<path d="M83.0032 49.3938L86.4608 51.397" stroke="#263238" stroke-width="3.34035" stroke-linecap="round" stroke-linejoin="round"/>
<path d="M89.5006 40.0132H85.5095" stroke="#263238" stroke-width="3.34035" stroke-linecap="round" stroke-linejoin="round"/>
<path d="M48.0959 40.0132H44.1047" stroke="#263238" stroke-width="3.34035" stroke-linecap="round" stroke-linejoin="round"/>
<path d="M89.5006 40.0132H85.5095" stroke="#263238" stroke-width="3.34035" stroke-linecap="round" stroke-linejoin="round"/>
<path d="M48.0959 40.0132H44.1047" stroke="#263238" stroke-width="3.34035" stroke-linecap="round" stroke-linejoin="round"/>
<path d="M86.4608 28.6267L83.0032 30.6299" stroke="#263238" stroke-width="3.34035" stroke-linecap="round" stroke-linejoin="round"/>
<path d="M50.6022 49.3938L47.1473 51.397" stroke="#263238" stroke-width="3.34035" stroke-linecap="round" stroke-linejoin="round"/>
<path d="M78.1523 20.295L76.158 23.7607" stroke="#263238" stroke-width="3.34035" stroke-linecap="round" stroke-linejoin="round"/>
<path d="M57.4499 56.2629L55.4557 59.7313" stroke="#263238" stroke-width="3.34035" stroke-linecap="round" stroke-linejoin="round"/>
<path d="M67.9467 11.3091H65.6614V13.3366H67.9467V11.3091Z" stroke="#263238" stroke-width="0.835087" stroke-linecap="round" stroke-linejoin="round"/>
<path d="M68.6043 5.89172H65.0038V11.193H68.6043V5.89172Z" stroke="#263238" stroke-width="0.835087" stroke-linecap="round" stroke-linejoin="round"/>
<path d="M69.3533 2.16089H64.1414V5.77256H69.3533V2.16089Z" fill="#06BCC1"/>
<path d="M69.41 2.16089H64.1981V5.77256H69.41V2.16089Z" stroke="#263238" stroke-width="0.835087" stroke-linecap="round" stroke-linejoin="round"/>
<path d="M64.7773 4.40745V2.24207" stroke="#263238" stroke-width="0.835087" stroke-linecap="round" stroke-linejoin="round"/>
<path d="M64.7773 5.84025V4.90759" stroke="#263238" stroke-width="0.835087" stroke-linecap="round" stroke-linejoin="round"/>
<path d="M65.4404 5.84022V2.24207" stroke="#263238" stroke-width="0.835087" stroke-linecap="round" stroke-linejoin="round"/>
<path d="M66.1033 3.14228V2.24207" stroke="#263238" stroke-width="0.835087" stroke-linecap="round" stroke-linejoin="round"/>
<path d="M66.1033 5.84023V3.57483" stroke="#263238" stroke-width="0.835087" stroke-linecap="round" stroke-linejoin="round"/>
<path d="M67.2001 5.84022V2.24207" stroke="#263238" stroke-width="0.835087" stroke-linecap="round" stroke-linejoin="round"/>
</g>
<path d="M48.6421 61.5272C48.6421 61.5272 47.8756 87.3917 47.4877 91.8938C47.0999 96.396 45.9455 108.245 45.6869 110.442C45.4283 112.638 45.9455 118.863 45.9455 118.863L46.5873 119.468L46.0748 122.537C46.0748 122.537 50.189 124.978 52.2437 125.71C54.2985 126.443 51.7312 127.416 49.935 127.661C48.1708 127.942 46.3633 127.854 44.6387 127.403C42.5793 126.916 40.0212 126.061 39.0977 125.938C38.1742 125.816 37.7125 124.728 37.7125 123.378C37.7125 122.028 37.8418 121.914 37.7125 121.3C37.5832 120.687 38.3589 118.131 38.4882 117.522C38.6175 116.912 36.6874 103.121 37.0707 98.7282C37.4539 94.3356 37.5878 88.3561 37.5878 87.7467C37.5878 87.1374 37.8418 80.7896 37.8418 80.7896C37.8418 80.7896 35.6577 94.8178 35.3991 95.3132C35.1405 95.8085 30.9017 116.176 30.7816 117.153C30.6616 118.131 31.1695 119.227 31.0402 119.959C30.9109 120.691 30.2691 122.887 30.2691 122.887C30.2691 122.887 30.657 126.184 31.8113 127.648C32.9657 129.112 33.2243 130.331 32.5825 130.822C31.9406 131.313 30.5277 131.309 28.8561 130.945C27.1846 130.581 27.1846 130.822 25.6239 129.599C24.0632 128.376 23.5691 124.842 23.5691 124.474C23.5691 124.106 22.9227 122.887 22.9227 121.546C22.9227 120.204 22.9227 120.814 23.4398 118.863C23.957 116.912 23.8231 109.346 23.9524 104.953C24.0817 100.561 25.6239 91.7711 25.6239 90.0482C25.6239 88.3254 26.395 62.8336 26.395 62.8336C26.395 62.8336 38.7422 66.4239 48.6421 61.5272Z" fill="#263238" stroke="#263238" stroke-linecap="round" stroke-linejoin="round"/>
<path d="M48.9375 60.7514C48.9375 60.7514 49.3069 62.4524 48.5635 63.3028C47.8201 64.1533 44.8326 65.9945 37.7401 66.069C30.6476 66.1435 27.6601 64.6706 26.6304 64.013C25.6007 63.3554 26.0347 60.541 26.0347 60.541C29.3995 61.8922 32.9843 62.6826 36.6319 62.8776C42.2929 63.0924 48.9375 60.7514 48.9375 60.7514Z" fill="#06BCC1" stroke="#263238" stroke-linecap="round" stroke-linejoin="round"/>
<path d="M42.7916 29.6614L49.3069 26.4437C49.3069 26.4437 57.2813 19.8154 61.2015 17.3561C65.1218 14.8968 68.4464 15.7165 68.7142 18.7457C68.982 21.775 55.4897 31.8051 53.0147 33.6989C50.5397 35.5927 50.0226 36.5396 50.0226 36.5396C50.0226 36.5396 49.6901 53.4479 49.5608 56.1615C49.4315 58.875 49.5608 60.7031 48.6373 61.5272C47.7138 62.3514 43.3872 64.8677 37.3383 64.5521C31.2894 64.2364 28.5651 63.6753 27.4338 62.7986C26.3025 61.9218 25.6422 61.159 25.6422 59.6466C25.6422 58.1342 23.9199 37.9293 23.9199 37.9293C23.9199 37.9293 11.956 30.1699 8.89917 27.5835C5.84239 24.997 5.63921 21.3366 7.63397 20.9552C9.62873 20.5738 14.6803 22.9147 16.675 24.1115C18.6698 25.3083 25.0466 27.2021 27.2399 27.772C29.4332 28.3419 31.6265 28.9688 31.6265 28.9688C31.6265 28.9688 37.1444 30.4154 42.7916 29.6614Z" fill="#06BCC1" stroke="#263238" stroke-linecap="round" stroke-linejoin="round"/>
<path d="M50.0364 36.5396L52.0589 29.5913" stroke="#263238" stroke-linecap="round" stroke-linejoin="round"/>
<path d="M50.9046 34.0496L53.9752 27.7676" stroke="#263238" stroke-linecap="round" stroke-linejoin="round"/>
<path d="M23.92 37.925L22.23 31.9586" stroke="#263238" stroke-linecap="round" stroke-linejoin="round"/>
<path d="M23.3797 36.4213L21.0756 32.5022" stroke="#263238" stroke-linecap="round" stroke-linejoin="round"/>
<path d="M58.5788 21.2137L62.7992 23.3969" stroke="#263238" stroke-linecap="round" stroke-linejoin="round"/>
<path d="M15.9918 26.4042L13.9785 27.9517" stroke="#263238" stroke-linecap="round" stroke-linejoin="round"/>
<path d="M42.4591 37.0524L44.1214 47.2447C44.1299 47.2982 44.1272 47.3529 44.1135 47.4054C44.0998 47.458 44.0753 47.5074 44.0414 47.551C44.0075 47.5946 43.965 47.6314 43.9161 47.6593C43.8672 47.6872 43.813 47.7057 43.7566 47.7138C43.7002 47.7225 43.6424 47.7204 43.5868 47.7076C43.5312 47.6948 43.4789 47.6716 43.4328 47.6393C43.3868 47.6071 43.348 47.5664 43.3188 47.5197C43.2896 47.473 43.2704 47.4212 43.2626 47.3674L41.7296 37.4907L42.4591 37.0524Z" fill="white" stroke="#263238" stroke-linecap="round" stroke-linejoin="round"/>
<path d="M36.0132 37.4207L36.8951 47.4201C36.9012 47.4867 36.8921 47.5537 36.8685 47.6166C36.8449 47.6795 36.8072 47.7368 36.7582 47.7846C36.7091 47.8325 36.6497 47.8697 36.5841 47.8938C36.5185 47.9179 36.4482 47.9283 36.378 47.9243C36.2577 47.918 36.144 47.8698 36.0588 47.7889C35.9736 47.708 35.9228 47.6001 35.9162 47.4859L35.2097 37.2278L36.0132 37.4207Z" fill="white" stroke="#263238" stroke-linecap="round" stroke-linejoin="round"/>
<path d="M43.1934 29.2185C43.1934 29.2185 45.5853 31.7436 45.7838 32.7519C45.9824 33.7601 44.1215 35.0227 44.1215 35.0227C44.1215 35.0227 45.045 35.2769 44.3893 35.8424C43.7336 36.4079 39.8688 39.253 38.7375 39.253C37.6062 39.253 36.2117 37.5477 32.7348 36.7893C29.2578 36.0309 26.8198 32.6247 27.083 31.0466C27.0923 30.8493 27.1469 30.6563 27.243 30.4812C27.3391 30.3061 27.4743 30.153 27.6393 30.0327C27.8042 29.9125 27.9949 29.8279 28.1979 29.7849C28.4009 29.742 28.6114 29.7416 28.8145 29.784C28.8145 29.784 28.1496 28.3987 29.2116 27.7675C30.2736 27.1362 32.7348 27.1362 33.9307 27.2633C35.1266 27.3905 40.2013 27.6403 43.1934 29.2185Z" fill="#06BCC1" stroke="#263238" stroke-linecap="round" stroke-linejoin="round"/>
<path d="M33.1641 35.2991C33.5879 35.6267 34.0286 35.9339 34.4847 36.2197" stroke="#263238" stroke-linecap="round" stroke-linejoin="round"/>
<path d="M28.8376 29.7841C28.8376 29.7841 30.4306 32.6905 31.6081 33.9487" stroke="#263238" stroke-linecap="round" stroke-linejoin="round"/>
<path d="M44.1215 35.0231L42.4592 35.9086" stroke="#263238" stroke-linecap="round" stroke-linejoin="round"/>
<path d="M67.3198 21.3936C68.0494 20.7623 69.9102 18.9957 68.4465 16.852C66.9827 14.7083 64.7248 15.4623 62.8639 15.4623C61.0031 15.4623 47.58 18.5529 47.58 18.5529C47.58 18.5529 44.7218 13.8842 44.1215 13.0644C43.5212 12.2446 41.1986 12.1876 41.1986 12.1876C41.1986 12.1876 40.6676 12.3761 40.9308 13.0074C41.194 13.6387 41.665 13.323 41.7943 14.7609C41.9236 16.1988 42.6624 21.3848 43.923 22.0161C45.1835 22.6474 48.5081 21.889 48.5081 21.889L63.5981 22.586" fill="#BDBDBD"/>
<path d="M67.3198 21.3936C68.0494 20.7623 69.9102 18.9957 68.4465 16.852C66.9827 14.7083 64.7248 15.4623 62.8639 15.4623C61.0031 15.4623 47.58 18.5529 47.58 18.5529C47.58 18.5529 44.7218 13.8842 44.1215 13.0644C43.5212 12.2446 41.1986 12.1876 41.1986 12.1876C41.1986 12.1876 40.6676 12.3761 40.9308 13.0074C41.194 13.6387 41.665 13.323 41.7943 14.7609C41.9236 16.1988 42.6624 21.3848 43.923 22.0161C45.1835 22.6474 48.5081 21.889 48.5081 21.889L63.5981 22.586" stroke="#263238" stroke-linecap="round" stroke-linejoin="round"/>
<path d="M63.5981 22.5858L57.1059 22.2833C57.4725 21.9851 57.7671 21.6154 57.9695 21.1993C58.1719 20.7832 58.2774 20.3306 58.2788 19.8722C58.2532 18.646 57.845 17.4544 57.1059 16.4485C59.7841 15.8918 62.1852 15.4446 62.8732 15.4446C64.7202 15.4446 66.9966 14.6862 68.4557 16.8343C69.9149 18.9823 68.0586 20.7446 67.3291 21.3759" fill="#06BCC1"/>
<path d="M63.5981 22.5858L57.1059 22.2833C57.4725 21.9851 57.7671 21.6154 57.9695 21.1993C58.1719 20.7832 58.2774 20.3306 58.2788 19.8722C58.2532 18.646 57.845 17.4544 57.1059 16.4485C59.7841 15.8918 62.1852 15.4446 62.8732 15.4446C64.7202 15.4446 66.9966 14.6862 68.4557 16.8343C69.9149 18.9823 68.0586 20.7446 67.3291 21.3759" stroke="#263238" stroke-linecap="round" stroke-linejoin="round"/>
<path d="M41.9975 12.6216C41.9975 12.6216 44.768 17.8602 44.6525 18.4915C44.5371 19.1228 44.1908 19.8812 44.1908 20.131C44.1908 20.3809 45.6499 23.603 45.3867 24.4842C45.1235 25.3653 44.0015 29.4729 42.9256 30.924C41.8497 32.375 41.134 32.375 41.134 32.375C41.134 32.375 41.665 35.8426 41.2633 36.8552C40.8616 37.8679 39.5363 39.4855 38.7375 39.2532C37.9387 39.0208 33.5567 34.1417 33.155 32.6775C32.7532 31.2133 32.2915 26.2377 32.2915 26.2377C32.2915 26.2377 31.4927 24.8524 31.0309 24.2211C29.5864 22.561 28.7458 20.502 28.6344 18.3512C28.5051 15.0721 31.8251 12.0429 34.8173 11.2232C37.8094 10.4034 40.9447 12.0649 41.9975 12.6216Z" fill="#BDBDBD" stroke="#263238" stroke-linecap="round" stroke-linejoin="round"/>
<path d="M42.5284 20.7623C42.5284 20.7623 43.9875 23.831 43.7243 23.98C43.397 24.2096 43.0205 24.3679 42.6215 24.4437C42.2224 24.5194 41.8107 24.5108 41.4156 24.4184C40.155 24.1028 40.155 23.4715 40.155 23.4715" stroke="#263238" stroke-linecap="round" stroke-linejoin="round"/>
<path d="M41.2356 27.3247C41.0509 27.7631 41.1432 28.2366 41.4341 28.3418C41.725 28.447 42.1083 28.162 42.293 27.7061C42.4777 27.2502 42.3853 26.7943 42.0944 26.6891C41.8035 26.5839 41.4064 26.8688 41.2356 27.3247Z" fill="#263238"/>
<path d="M41.1339 32.375C41.1339 32.375 40.1366 32.2479 39.3377 32.0594C38.5389 31.8709 35.3482 29.3458 35.3482 29.3458L41.4064 35.9697L41.1339 32.375Z" fill="#263238" stroke="#263238" stroke-linecap="round" stroke-linejoin="round"/>
<path d="M39.1392 18.0487C39.1392 18.0487 37.4076 17.0405 36.4795 18.9956" stroke="#263238" stroke-linecap="round" stroke-linejoin="round"/>
<path d="M41.9281 18.1145C42.2113 17.9241 42.5605 17.844 42.904 17.8905C43.2475 17.9369 43.5592 18.1065 43.7751 18.3643" stroke="#263238" stroke-linecap="round" stroke-linejoin="round"/>
<path d="M38.0726 20.9859C38.0726 21.3498 38.2665 21.6479 38.5066 21.6479C38.7467 21.6479 38.9407 21.3498 38.9407 20.9859C38.9407 20.6221 38.7467 20.3196 38.5066 20.3196C38.2665 20.3196 38.0726 20.6177 38.0726 20.9859Z" fill="#263238"/>
<path d="M43.2304 21.2489C43.0111 21.2489 42.8333 20.978 42.8333 20.6439C42.8333 20.3098 43.0111 20.0389 43.2304 20.0389C43.4497 20.0389 43.6275 20.3098 43.6275 20.6439C43.6275 20.978 43.4497 21.2489 43.2304 21.2489Z" fill="#263238"/>
<path d="M33.021 25.6196C32.7624 25.801 32.4908 25.9651 32.2083 26.1106C31.9912 25.738 31.4048 24.7429 31.0308 24.2343C29.5863 22.5742 28.7457 20.5152 28.6343 18.3644C28.505 15.0854 31.825 12.0562 34.8172 11.2364C36.4411 10.8619 38.1484 10.9862 39.6932 11.5915C39.6055 11.7537 39.3007 11.9378 38.4742 12.0561C36.678 12.306 34.554 11.4863 33.4227 12.2447C32.2914 13.0031 31.825 15.2739 32.8224 16.0936C33.8198 16.9134 35.8792 18.2373 35.0157 19.3113C34.4019 20.0143 33.949 20.831 33.6859 21.7093C33.6859 21.9635 34.0876 22.2134 33.6859 22.2792C33.2841 22.3449 32.7624 22.4677 32.5592 21.8978C32.356 21.3279 31.294 20.4467 30.763 21.4594C30.232 22.4721 30.8969 23.6513 31.4926 24.4229C31.9106 24.9167 32.4307 25.324 33.021 25.6196Z" fill="#263238" stroke="#263238" stroke-linecap="round" stroke-linejoin="round"/>
<path d="M11.3557 27.2636L16.6058 27.0751C16.6058 27.0751 32.0282 23.476 33.1549 22.9105C34.2816 22.345 34.0184 20.7186 34.1523 20.3197C34.2862 19.9207 34.614 18.2374 34.2862 17.799C33.9583 17.3606 31.1601 15.3353 30.9616 15.0854C30.763 14.8355 31.294 13.6344 31.1601 13.3319C31.0262 13.0294 30.6984 12.9505 30.3659 13.1434C30.1681 13.2555 30.024 13.4363 29.9642 13.6475C29.9642 13.6475 29.2993 13.7703 28.7036 14.7829C28.108 15.7956 27.9741 16.611 28.1034 16.9748C28.2327 17.3387 27.5077 18.1102 27.6416 18.6757C27.9076 19.3764 28.2399 20.0528 28.6344 20.6967C28.6344 20.6967 16.0748 20.1925 13.9461 20.1925C11.8175 20.1925 6.83518 19.9383 6.23952 21.0693C5.64386 22.2003 6.23952 24.1599 7.2369 25.4882" fill="#BDBDBD"/>
<path d="M11.3557 27.2636L16.6058 27.0751C16.6058 27.0751 32.0282 23.476 33.1549 22.9105C34.2816 22.345 34.0184 20.7186 34.1523 20.3197C34.2862 19.9207 34.614 18.2374 34.2862 17.799C33.9583 17.3606 31.1601 15.3353 30.9616 15.0854C30.763 14.8355 31.294 13.6344 31.1601 13.3319C31.0262 13.0294 30.6984 12.9505 30.3659 13.1434C30.1681 13.2555 30.024 13.4363 29.9642 13.6475C29.9642 13.6475 29.2993 13.7703 28.7036 14.7829C28.108 15.7956 27.9741 16.611 28.1034 16.9748C28.2327 17.3387 27.5077 18.1102 27.6416 18.6757C27.9076 19.3764 28.2399 20.0528 28.6344 20.6967C28.6344 20.6967 16.0748 20.1925 13.9461 20.1925C11.8175 20.1925 6.83518 19.9383 6.23952 21.0693C5.64386 22.2003 6.23952 24.1599 7.2369 25.4882" stroke="#263238" stroke-linecap="round" stroke-linejoin="round"/>
<path d="M28.6344 20.7008L30.4767 20.4816" stroke="#263238" stroke-linecap="round" stroke-linejoin="round"/>
<path d="M29.9642 13.6343C29.9642 13.6343 29.1331 15.2037 29.327 15.6596L29.5163 16.098" stroke="#263238" stroke-linecap="round" stroke-linejoin="round"/>
<path d="M28.1034 16.9791C28.4819 17.3302 28.8913 17.6499 29.327 17.9348" stroke="#263238" stroke-linecap="round" stroke-linejoin="round"/>
<path d="M7.2369 25.4969C6.23952 24.1817 5.63925 22.2134 6.23952 21.078C6.8398 19.9426 11.7528 20.2012 13.9046 20.2012C13.654 20.7354 13.5172 21.3114 13.5022 21.896C13.4871 22.4806 13.594 23.0623 13.8168 23.6075C14.4079 25.2163 16.0748 26.3342 17.2107 26.9348L16.6058 27.0794L11.3557 27.2679" fill="#06BCC1"/>
<path d="M7.2369 25.4969C6.23952 24.1817 5.63925 22.2134 6.23952 21.078C6.8398 19.9426 11.7528 20.2012 13.9046 20.2012C13.654 20.7354 13.5172 21.3114 13.5022 21.896C13.4871 22.4806 13.594 23.0623 13.8168 23.6075C14.4079 25.2163 16.0748 26.3342 17.2107 26.9348L16.6058 27.0794L11.3557 27.2679" stroke="#263238" stroke-linecap="round" stroke-linejoin="round"/>
</g>
<defs>
<linearGradient id="paint0_linear_663_3640" x1="57.5" y1="0" x2="57.5" y2="120" gradientUnits="userSpaceOnUse">
<stop offset="0.2" stop-color="white"/>
<stop offset="0.705" stop-color="#C1F8F9" stop-opacity="0.7"/>
<stop offset="1" stop-color="#06BCC1" stop-opacity="0.5"/>
</linearGradient>
<clipPath id="clip0_663_3640">
<rect width="115" height="120" fill="white"/>
</clipPath>
</defs>
</svg>
