<svg width="122" height="118" viewBox="0 0 122 118" fill="none" xmlns="http://www.w3.org/2000/svg">
<rect width="122" height="118" fill="url(#paint0_linear_663_2955)"/>
<path d="M101.078 29.5475C99.3794 25.8883 97.1496 22.5045 94.462 19.5072C93.9515 18.9382 93.4226 18.3863 92.8754 17.8513C86.6255 11.7663 77.7292 8.27393 69.1086 9.38043C63.2248 10.1382 57.7376 12.9299 53.0482 16.5843C50.0496 18.9192 47.2149 21.677 43.6037 22.8344C39.0231 24.2974 34.0826 22.9162 29.2784 22.8946C21.8478 22.8606 14.3237 26.4595 10.247 32.7204C6.5577 38.3872 5.9589 45.9707 8.72472 52.1513C11.4905 58.332 17.5184 62.917 24.171 63.883C28.3626 64.5003 32.64 63.7627 36.8622 64.1037C43.0264 64.6022 48.7525 67.3445 54.6394 69.2535C65.3596 72.7243 77.4199 73.3477 87.6117 68.5297C95.998 64.5652 102.815 56.3505 104.084 46.9645C104.887 41.0261 103.568 34.9319 101.078 29.5475Z" fill="#06BCC1"/>
<path opacity="0.7" d="M101.078 29.5475C99.3794 25.8883 97.1496 22.5045 94.462 19.5072C93.9515 18.9382 93.4226 18.3863 92.8754 17.8513C86.6255 11.7663 77.7292 8.27393 69.1086 9.38043C63.2248 10.1382 57.7376 12.9299 53.0482 16.5843C50.0496 18.9192 47.2149 21.677 43.6037 22.8344C39.0231 24.2974 34.0826 22.9162 29.2784 22.8946C21.8478 22.8606 14.3237 26.4595 10.247 32.7204C6.5577 38.3872 5.9589 45.9707 8.72472 52.1513C11.4905 58.332 17.5184 62.917 24.171 63.883C28.3626 64.5003 32.64 63.7627 36.8622 64.1037C43.0264 64.6022 48.7525 67.3445 54.6394 69.2535C65.3596 72.7243 77.4199 73.3477 87.6117 68.5297C95.998 64.5652 102.815 56.3505 104.084 46.9645C104.887 41.0261 103.568 34.9319 101.078 29.5475Z" fill="white"/>
<g filter="url(#filter0_d_663_2955)">
<path d="M83.0417 68.3182V29.7598H76.3359V24.5077H95.3408V29.7598H88.6669V68.3182H83.0417Z" fill="#06BCC1"/>
</g>
<g filter="url(#filter1_d_663_2955)">
<path d="M55.4052 68.3182V24.5077H61.5706C71.5074 24.5077 76.4758 31.7881 76.4758 46.3489C76.4758 53.6293 75.2364 59.1163 72.7575 62.8099C70.2997 66.4821 66.8356 68.3182 62.3651 68.3182H55.4052ZM60.9986 63.0661H61.8249C65.1301 63.0661 67.4607 61.7958 68.8166 59.2551C70.1938 56.6931 70.8824 52.4764 70.8824 46.6051C70.8824 40.4776 70.2362 36.1435 68.9438 33.6029C67.6513 31.0408 65.3208 29.7598 61.952 29.7598H60.9986V63.0661Z" fill="#06BCC1"/>
</g>
<g filter="url(#filter2_d_663_2955)">
<path d="M38.86 67.1974V61.3688C40.5338 62.9914 42.1546 63.8027 43.7225 63.8027C44.8878 63.8027 45.8836 63.3864 46.7099 62.5537C47.5362 61.7211 47.9493 60.7176 47.9493 59.5434C47.9493 58.5399 47.7162 57.3229 47.2501 55.8925C46.784 54.462 45.5234 51.8253 43.4682 47.9822C41.4342 44.1179 40.11 41.1929 39.4956 39.2073C38.8812 37.2218 38.574 35.471 38.574 33.9552C38.574 31.0089 39.4003 28.607 41.0529 26.7495C42.7267 24.8707 44.856 23.9313 47.4408 23.9313C48.9027 23.9313 50.46 24.3156 52.1126 25.0842V30.4004C50.5871 29.4823 49.2841 29.0233 48.2035 29.0233C45.3857 29.0233 43.9767 30.4217 43.9767 33.2186C43.9767 34.2434 44.2098 35.4817 44.6759 36.9335C45.1632 38.364 46.4238 40.9901 48.4578 44.8117C50.513 48.6121 51.8372 51.5157 52.4304 53.5226C53.0448 55.5082 53.352 57.2696 53.352 58.8068C53.352 61.7958 52.5151 64.2297 50.8414 66.1085C49.1888 67.966 47.0383 68.8947 44.3899 68.8947C42.483 68.8947 40.6397 68.3289 38.86 67.1974Z" fill="#06BCC1"/>
</g>
<g filter="url(#filter3_d_663_2955)">
<path d="M17.1029 24.5077H22.6963V57.4296C22.6963 61.5929 24.0629 63.6746 26.796 63.6746C28.0037 63.6746 28.9889 63.1515 29.7517 62.1053C30.5144 61.0592 30.8958 59.586 30.8958 57.6858V24.5077H36.4892V57.0453C36.4892 60.8884 35.5252 63.824 33.5971 65.8523C31.6691 67.8806 29.4021 68.8947 26.796 68.8947C24.0205 68.8947 21.7111 67.8378 19.8678 65.7242C18.0245 63.6105 17.1029 60.867 17.1029 57.4937V24.5077Z" fill="#06BCC1"/>
</g>
<g filter="url(#filter4_d_663_2955)">
<path fill-rule="evenodd" clip-rule="evenodd" d="M82.0845 69.2828V30.7244H75.3788V23.5432H96.298V30.7244H89.6241V69.2828H82.0845ZM88.6669 29.7599H95.3409V24.5077H76.3359V29.7599H83.0417V68.3183H88.6669V29.7599Z" fill="white"/>
</g>
<g filter="url(#filter5_d_663_2955)">
<path fill-rule="evenodd" clip-rule="evenodd" d="M54.4479 69.2828V23.5432H61.5706C66.8053 23.5432 70.8494 25.4815 73.5381 29.4215C76.1825 33.2964 77.4329 38.9879 77.4329 46.349C77.4329 53.7113 76.1846 59.4251 73.5503 63.3503C70.911 67.2931 67.1469 69.2828 62.3651 69.2828H54.4479ZM72.7574 62.8099C75.2363 59.1164 76.4758 53.6294 76.4758 46.349C76.4758 31.7881 71.5074 24.5077 61.5706 24.5077H55.4051V68.3183H62.3651C66.8356 68.3183 70.2997 66.4822 72.7574 62.8099ZM67.9736 58.7983L67.975 58.7957C69.232 56.4573 69.9252 52.4478 69.9252 46.6052C69.9252 40.4937 69.2722 36.363 68.0919 34.0429L68.0905 34.04C67.525 32.919 66.751 32.1076 65.7681 31.5674C64.7771 31.0227 63.5203 30.7249 61.9557 30.7244V62.1009C64.9007 62.0686 66.8304 60.9402 67.9736 58.7983ZM61.9557 63.0655C61.9122 63.0659 61.8686 63.0661 61.8248 63.0661H60.9985V29.7599H61.9519C61.9532 29.7599 61.9544 29.7599 61.9557 29.7599C65.3224 29.7608 67.6518 31.0418 68.9437 33.6029C70.2361 36.1436 70.8823 40.4777 70.8823 46.6052C70.8823 52.4765 70.1938 56.6931 68.8166 59.2551C67.4786 61.7621 65.1916 63.0322 61.9557 63.0655Z" fill="white"/>
</g>
<g filter="url(#filter6_d_663_2955)">
<path fill-rule="evenodd" clip-rule="evenodd" d="M37.9028 67.7293V59.1025L39.5236 60.6737C41.1038 62.2057 42.4989 62.8382 43.7225 62.8382C44.6331 62.8382 45.3857 62.5241 46.033 61.8717C46.6804 61.2194 46.9921 60.461 46.9921 59.5434C46.9921 58.6797 46.7894 57.5703 46.3407 56.1934C45.9053 54.8571 44.6866 52.2938 42.6256 48.4398L42.6241 48.437L42.6226 48.4342C40.5843 44.5615 39.2243 41.5705 38.5819 39.4945C37.9486 37.448 37.6168 35.5971 37.6168 33.9552C37.6168 30.8168 38.5024 28.1713 40.3402 26.1057L40.3406 26.1052C42.2024 24.0154 44.594 22.9668 47.4408 22.9668C49.0708 22.9668 50.7653 23.3953 52.5137 24.2085L53.0698 24.4671V32.0999L51.6218 31.2285C50.1592 30.3483 49.0333 29.9879 48.2036 29.9879C46.9385 29.9879 46.1663 30.3016 45.7051 30.7593C45.2466 31.2144 44.9339 31.9726 44.9339 33.2186C44.9339 34.1045 45.1369 35.2342 45.5839 36.6284C46.0442 37.9754 47.2659 40.5313 49.2999 44.3532C51.3579 48.159 52.7219 51.1333 53.346 53.2414C53.9786 55.2871 54.3092 57.1463 54.3092 58.8068C54.3092 61.9872 53.4134 64.6651 51.554 66.7524C49.7061 68.8295 47.2888 69.8593 44.3899 69.8593C42.2838 69.8593 40.2655 69.2315 38.3493 68.0132L37.9028 67.7293ZM50.8414 66.1086C52.5152 64.2298 53.352 61.7958 53.352 58.8068C53.352 57.2696 53.0448 55.5082 52.4304 53.5227C51.8372 51.5157 50.513 48.6121 48.4578 44.8118C46.4238 40.9901 45.1632 38.364 44.6759 36.9336C44.2098 35.4818 43.9767 34.2435 43.9767 33.2186C43.9767 30.4218 45.3857 29.0233 48.2036 29.0233C49.0508 29.0233 50.0347 29.3055 51.1554 29.8699C51.4641 30.0253 51.7832 30.2022 52.1126 30.4004V25.0842C50.46 24.3156 48.9027 23.9313 47.4408 23.9313C44.856 23.9313 42.7267 24.8707 41.0529 26.7495C39.4003 28.607 38.574 31.0089 38.574 33.9552C38.574 35.4711 38.8812 37.2218 39.4956 39.2074C40.1101 41.1929 41.4343 44.1179 43.4682 47.9823C45.5234 51.8253 46.784 54.4621 47.2501 55.8925C47.7163 57.323 47.9493 58.5399 47.9493 59.5434C47.9493 60.7177 47.5362 61.7211 46.7099 62.5538C45.8836 63.3864 44.8878 63.8028 43.7225 63.8028C42.4553 63.8028 41.1535 63.2728 39.8172 62.2129C39.5001 61.9614 39.181 61.68 38.86 61.3688V67.1974C40.6397 68.329 42.483 68.8948 44.3899 68.8948C47.0383 68.8948 49.1888 67.966 50.8414 66.1086Z" fill="white"/>
</g>
<g filter="url(#filter7_d_663_2955)">
<path fill-rule="evenodd" clip-rule="evenodd" d="M16.1458 23.5432H23.6535V57.4297C23.6535 59.4356 23.9882 60.7719 24.5196 61.5812C25.005 62.3207 25.7115 62.7101 26.7961 62.7101C27.6761 62.7101 28.3839 62.3524 28.9803 61.5343C29.578 60.7146 29.9386 59.4718 29.9386 57.6859V23.5432H37.4464V57.0454C37.4464 61.0439 36.4418 64.2542 34.2884 66.5195C32.1938 68.723 29.6826 69.8593 26.7961 69.8593C23.7433 69.8593 21.1726 68.6815 19.1489 66.3609C17.1228 64.0377 16.1458 61.0525 16.1458 57.4937V23.5432ZM17.1029 24.5077V57.4937C17.1029 60.8671 18.0246 63.6106 19.8678 65.7242C21.7111 67.8379 24.0205 68.8947 26.7961 68.8947C29.4021 68.8947 31.6691 67.8806 33.5971 65.8523C35.5252 63.8241 36.4892 60.8884 36.4892 57.0454V24.5077H30.8958V57.6859C30.8958 59.5861 30.5144 61.0592 29.7517 62.1054C28.9889 63.1515 28.0037 63.6746 26.7961 63.6746C24.0629 63.6746 22.6963 61.593 22.6963 57.4297V24.5077H17.1029Z" fill="white"/>
</g>
<path d="M76.6328 69.3291H108.334" stroke="#263238" stroke-width="0.4" stroke-miterlimit="10"/>
<path d="M16.1401 69.3291H75.2544" stroke="#263238" stroke-width="0.4" stroke-miterlimit="10"/>
<path d="M13.4524 69.3291H14.7618" stroke="#263238" stroke-width="0.4" stroke-miterlimit="10"/>
<path d="M99.4928 42.0847L101.625 62.6762" stroke="#263238" stroke-width="0.4" stroke-miterlimit="10"/>
<path d="M101.282 58.7347L100.314 57.7069" stroke="#263238" stroke-width="0.4" stroke-miterlimit="10"/>
<path d="M100.608 58.0141C100.606 57.8568 100.571 57.7017 100.504 57.5593C100.438 57.4169 100.342 57.2904 100.223 57.1884C99.9752 56.9647 98.6689 56.4168 98.5387 56.8798C98.4101 57.3798 99.7471 58.369 100.608 58.0141Z" fill="#06BCC1" stroke="#263238" stroke-width="0.4" stroke-miterlimit="10"/>
<path d="M100.608 58.0141L99.3641 57.2347" stroke="#263238" stroke-width="0.4" stroke-miterlimit="10"/>
<path d="M101.523 61.0773L100.557 60.048" stroke="#263238" stroke-width="0.4" stroke-miterlimit="10"/>
<path d="M100.85 60.3567C100.848 60.1991 100.813 60.0437 100.747 59.9009C100.68 59.7582 100.584 59.6315 100.465 59.5295C100.217 59.3073 98.9108 58.7579 98.7807 59.2208C98.6536 59.7209 99.989 60.7101 100.85 60.3567Z" fill="#06BCC1" stroke="#263238" stroke-width="0.4" stroke-miterlimit="10"/>
<path d="M100.85 60.3567L99.6077 59.5758" stroke="#263238" stroke-width="0.4" stroke-miterlimit="10"/>
<path d="M100.689 53.0217L99.7225 51.9923" stroke="#263238" stroke-width="0.4" stroke-miterlimit="10"/>
<path d="M100.017 52.301C100.015 52.1434 99.979 51.988 99.9124 51.8453C99.8459 51.7026 99.7498 51.576 99.6306 51.4738C99.3825 51.2516 98.0777 50.7022 97.9537 51.1652C97.8189 51.6652 99.1559 52.6544 100.017 52.301Z" fill="#06BCC1" stroke="#263238" stroke-width="0.4" stroke-miterlimit="10"/>
<path d="M100.017 52.3009L98.773 51.52" stroke="#263238" stroke-width="0.4" stroke-miterlimit="10"/>
<path d="M100.932 55.3627L99.9645 54.3334" stroke="#263238" stroke-width="0.4" stroke-miterlimit="10"/>
<path d="M100.258 54.6421C100.257 54.4848 100.221 54.3298 100.155 54.1874C100.089 54.0449 99.9929 53.9185 99.8741 53.8165C99.626 53.5927 98.3197 53.0449 98.1895 53.5079C98.0608 54.0063 99.3978 54.9971 100.258 54.6421Z" fill="#06BCC1" stroke="#263238" stroke-width="0.4" stroke-miterlimit="10"/>
<path d="M100.258 54.6421L99.015 53.8612" stroke="#263238" stroke-width="0.4" stroke-miterlimit="10"/>
<path d="M100.295 49.2176L99.3289 48.1882" stroke="#263238" stroke-width="0.4" stroke-miterlimit="10"/>
<path d="M99.6214 48.4969C99.6199 48.3393 99.5849 48.1839 99.5185 48.0412C99.4522 47.8985 99.3562 47.7718 99.237 47.6698C98.9889 47.4475 97.6826 46.8981 97.5524 47.3611C97.4253 47.8611 98.7607 48.8503 99.6214 48.4969Z" fill="#06BCC1" stroke="#263238" stroke-width="0.4" stroke-miterlimit="10"/>
<path d="M99.6215 48.4969L98.3795 47.7161" stroke="#263238" stroke-width="0.4" stroke-miterlimit="10"/>
<path d="M99.9002 45.3965L98.9323 44.3672" stroke="#263238" stroke-width="0.4" stroke-miterlimit="10"/>
<path d="M99.2263 44.6758C99.2245 44.5185 99.1892 44.3635 99.1229 44.221C99.0566 44.0786 98.9608 43.9522 98.8419 43.8502C98.5938 43.6264 97.2875 43.0786 97.1573 43.5415C97.0287 44.04 98.3656 45.0308 99.2263 44.6758Z" fill="#06BCC1" stroke="#263238" stroke-width="0.4" stroke-miterlimit="10"/>
<path d="M99.2263 44.6758L97.9828 43.8949" stroke="#263238" stroke-width="0.4" stroke-miterlimit="10"/>
<path d="M101.118 57.3504L101.853 56.1421" stroke="#263238" stroke-width="0.4" stroke-miterlimit="10"/>
<path d="M101.629 56.5047C101.599 56.3503 101.601 56.191 101.637 56.0377C101.673 55.8843 101.74 55.7405 101.836 55.6158C102.033 55.3457 103.197 54.5355 103.413 54.9599C103.649 55.426 102.543 56.6729 101.629 56.5047Z" fill="#06BCC1" stroke="#263238" stroke-width="0.4" stroke-miterlimit="10"/>
<path d="M101.629 56.5048L102.749 55.426" stroke="#263238" stroke-width="0.4" stroke-miterlimit="10"/>
<path d="M100.481 51.1868L101.216 49.98" stroke="#263238" stroke-width="0.4" stroke-miterlimit="10"/>
<path d="M100.991 50.3426C100.96 50.188 100.963 50.0288 100.999 49.8755C101.035 49.7222 101.103 49.5784 101.199 49.4537C101.395 49.1836 102.56 48.3734 102.776 48.7978C103.011 49.2639 101.902 50.5093 100.991 50.3426Z" fill="#06BCC1" stroke="#263238" stroke-width="0.4" stroke-miterlimit="10"/>
<path d="M100.991 50.3426L102.11 49.2639" stroke="#263238" stroke-width="0.4" stroke-miterlimit="10"/>
<path d="M100.2 48.48L100.935 47.2716" stroke="#263238" stroke-width="0.4" stroke-miterlimit="10"/>
<path d="M100.71 47.6389C100.68 47.4844 100.683 47.3252 100.719 47.1719C100.754 47.0187 100.822 46.8748 100.917 46.7499C101.115 46.4799 102.279 45.6697 102.496 46.0941C102.73 46.5586 101.626 47.8024 100.71 47.6389Z" fill="#06BCC1" stroke="#263238" stroke-width="0.4" stroke-miterlimit="10"/>
<path d="M100.71 47.6341L101.83 46.5554" stroke="#263238" stroke-width="0.4" stroke-miterlimit="10"/>
<path d="M99.7883 44.5091L100.523 43.3008" stroke="#263238" stroke-width="0.4" stroke-miterlimit="10"/>
<path d="M100.3 43.665C100.269 43.5105 100.272 43.3513 100.308 43.1979C100.343 43.0446 100.411 42.9007 100.507 42.7761C100.704 42.506 101.868 41.6958 102.084 42.1202C102.32 42.5847 101.214 43.8316 100.3 43.665Z" fill="#06BCC1" stroke="#263238" stroke-width="0.4" stroke-miterlimit="10"/>
<path d="M100.3 43.665L101.419 42.5863" stroke="#263238" stroke-width="0.4" stroke-miterlimit="10"/>
<path d="M99.4744 41.9706C99.4439 41.8164 99.4465 41.6573 99.4822 41.5043C99.5178 41.3512 99.5857 41.2076 99.6812 41.0832C99.8787 40.8131 101.043 40.0029 101.259 40.4273C101.494 40.8918 100.389 42.1388 99.4744 41.9706Z" fill="#06BCC1" stroke="#263238" stroke-width="0.4" stroke-miterlimit="10"/>
<path d="M99.4744 41.9705L100.594 40.8933" stroke="#263238" stroke-width="0.4" stroke-miterlimit="10"/>
<path d="M99.5388 42.0169C99.3833 42.0315 99.2266 42.0123 99.0792 41.9607C98.9318 41.909 98.7971 41.8261 98.6842 41.7175C98.4376 41.4906 97.7653 40.239 98.2018 40.0677C98.6857 39.8795 99.8006 41.1187 99.5388 42.0169Z" fill="#06BCC1" stroke="#263238" stroke-width="0.4" stroke-miterlimit="10"/>
<path d="M99.5387 42.0168L98.5923 40.7822" stroke="#263238" stroke-width="0.4" stroke-miterlimit="10"/>
<path d="M105.116 44.9213L102.997 65.5127" stroke="#263238" stroke-width="0.4" stroke-miterlimit="10"/>
<path d="M103.465 61.5851L102.729 60.3783" stroke="#263238" stroke-width="0.4" stroke-miterlimit="10"/>
<path d="M102.954 60.741C102.984 60.5864 102.981 60.4272 102.945 60.2739C102.909 60.1206 102.841 59.9768 102.746 59.8521C102.548 59.582 101.384 58.7718 101.168 59.1977C100.932 59.6622 102.038 60.9107 102.954 60.741Z" fill="#06BCC1" stroke="#263238" stroke-width="0.4" stroke-miterlimit="10"/>
<path d="M102.954 60.741L101.897 59.7194" stroke="#263238" stroke-width="0.4" stroke-miterlimit="10"/>
<path d="M104.054 55.8705L103.318 54.6637" stroke="#263238" stroke-width="0.4" stroke-miterlimit="10"/>
<path d="M103.542 55.0263C103.572 54.8717 103.569 54.7124 103.533 54.5591C103.497 54.4058 103.429 54.262 103.334 54.1373C103.138 53.8673 101.972 53.0571 101.756 53.483C101.522 53.9475 102.628 55.2006 103.542 55.0263Z" fill="#06BCC1" stroke="#263238" stroke-width="0.4" stroke-miterlimit="10"/>
<path d="M103.542 55.0263L102.485 54.0046" stroke="#263238" stroke-width="0.4" stroke-miterlimit="10"/>
<path d="M103.812 58.2131L103.076 57.0048" stroke="#263238" stroke-width="0.4" stroke-miterlimit="10"/>
<path d="M103.302 57.3613C103.332 57.207 103.329 57.048 103.293 56.8949C103.257 56.7418 103.189 56.5983 103.093 56.4739C102.896 56.2039 101.732 55.3937 101.516 55.8181C101.28 56.2903 102.386 57.5357 103.302 57.3613Z" fill="#06BCC1" stroke="#263238" stroke-width="0.4" stroke-miterlimit="10"/>
<path d="M103.302 57.3674L102.243 56.3458" stroke="#263238" stroke-width="0.4" stroke-miterlimit="10"/>
<path d="M104.446 52.0664L103.709 50.8596" stroke="#263238" stroke-width="0.4" stroke-miterlimit="10"/>
<path d="M103.934 51.2223C103.964 51.0677 103.961 50.9085 103.925 50.7552C103.889 50.6019 103.821 50.4581 103.726 50.3334C103.528 50.0633 102.364 49.2531 102.148 49.6791C101.912 50.1436 103.018 51.3905 103.934 51.2223Z" fill="#06BCC1" stroke="#263238" stroke-width="0.4" stroke-miterlimit="10"/>
<path d="M103.934 51.2223L102.877 50.1991" stroke="#263238" stroke-width="0.4" stroke-miterlimit="10"/>
<path d="M104.839 48.2454L104.102 47.0386" stroke="#263238" stroke-width="0.4" stroke-miterlimit="10"/>
<path d="M104.328 47.4011C104.358 47.2466 104.355 47.0873 104.319 46.934C104.283 46.7807 104.215 46.6369 104.119 46.5122C103.922 46.2422 102.758 45.432 102.542 45.8579C102.306 46.3224 103.412 47.5693 104.328 47.4011Z" fill="#06BCC1" stroke="#263238" stroke-width="0.4" stroke-miterlimit="10"/>
<path d="M104.328 47.4011L103.269 46.3795" stroke="#263238" stroke-width="0.4" stroke-miterlimit="10"/>
<path d="M103.589 60.1962L104.556 59.1669" stroke="#263238" stroke-width="0.4" stroke-miterlimit="10"/>
<path d="M104.262 59.4755C104.264 59.318 104.299 59.1627 104.365 59.02C104.432 58.8774 104.527 58.7506 104.646 58.6483C104.894 58.4245 106.199 57.8767 106.331 58.3396C106.459 58.8381 105.118 59.8304 104.262 59.4755Z" fill="#06BCC1" stroke="#263238" stroke-width="0.4" stroke-miterlimit="10"/>
<path d="M104.262 59.4755L105.577 58.6514" stroke="#263238" stroke-width="0.4" stroke-miterlimit="10"/>
<path d="M104.223 54.0325L105.19 53.0032" stroke="#263238" stroke-width="0.4" stroke-miterlimit="10"/>
<path d="M104.896 53.3118C104.898 53.1545 104.933 52.9994 104.999 52.857C105.066 52.7146 105.161 52.5882 105.28 52.4862C105.528 52.2624 106.835 51.7146 106.965 52.1775C107.093 52.6745 105.758 53.6652 104.896 53.3118Z" fill="#06BCC1" stroke="#263238" stroke-width="0.4" stroke-miterlimit="10"/>
<path d="M104.896 53.3118L106.211 52.4893" stroke="#263238" stroke-width="0.4" stroke-miterlimit="10"/>
<path d="M104.502 51.3257L105.469 50.2948" stroke="#263238" stroke-width="0.4" stroke-miterlimit="10"/>
<path d="M105.174 50.6034C105.176 50.4461 105.212 50.2911 105.278 50.1487C105.344 50.0063 105.44 49.8798 105.559 49.7778C105.807 49.554 107.113 49.0062 107.244 49.4692C107.372 49.9676 106.037 50.9584 105.174 50.6034Z" fill="#06BCC1" stroke="#263238" stroke-width="0.4" stroke-miterlimit="10"/>
<path d="M105.174 50.6034L106.492 49.7809" stroke="#263238" stroke-width="0.4" stroke-miterlimit="10"/>
<path d="M104.911 47.3549L105.877 46.3256" stroke="#263238" stroke-width="0.4" stroke-miterlimit="10"/>
<path d="M105.577 46.6342C105.579 46.4766 105.615 46.3214 105.681 46.1787C105.747 46.0361 105.843 45.9093 105.962 45.807C106.21 45.5832 107.516 45.0354 107.646 45.4983C107.781 45.9968 106.446 46.9876 105.577 46.6342Z" fill="#06BCC1" stroke="#263238" stroke-width="0.4" stroke-miterlimit="10"/>
<path d="M105.583 46.6341L106.9 45.8101" stroke="#263238" stroke-width="0.4" stroke-miterlimit="10"/>
<path d="M105.118 44.8054C105.12 44.6479 105.155 44.4926 105.221 44.35C105.288 44.2073 105.383 44.0806 105.502 43.9782C105.75 43.756 107.055 43.2066 107.187 43.6696C107.32 44.168 105.983 45.1588 105.118 44.8054Z" fill="#06BCC1" stroke="#263238" stroke-width="0.4" stroke-miterlimit="10"/>
<path d="M105.122 44.8055L106.438 43.9829" stroke="#263238" stroke-width="0.4" stroke-miterlimit="10"/>
<path d="M105.176 44.861C105.021 44.8426 104.872 44.7909 104.738 44.7094C104.604 44.628 104.489 44.5187 104.401 44.3888C104.207 44.1172 103.789 42.7514 104.266 42.6758C104.778 42.5956 105.616 44.0385 105.176 44.861Z" fill="#06BCC1" stroke="#263238" stroke-width="0.4" stroke-miterlimit="10"/>
<path d="M105.176 44.8641L104.502 43.4597" stroke="#263238" stroke-width="0.4" stroke-miterlimit="10"/>
<path d="M102.686 36.5367V62.5758" stroke="#263238" stroke-width="0.4" stroke-miterlimit="10"/>
<path d="M102.707 58.6607L101.851 57.5356" stroke="#263238" stroke-width="0.4" stroke-miterlimit="10"/>
<path d="M102.112 57.8736C102.126 57.7167 102.107 57.5586 102.056 57.4098C102.005 57.261 101.922 57.1249 101.814 57.0109C101.591 56.7625 100.349 56.0757 100.177 56.5232C99.992 57.0109 101.219 58.1328 102.112 57.8736Z" fill="#06BCC1" stroke="#263238" stroke-width="0.4" stroke-miterlimit="10"/>
<path d="M102.112 57.8736L100.955 56.9662" stroke="#263238" stroke-width="0.4" stroke-miterlimit="10"/>
<path d="M102.707 53.7671L101.851 52.6421" stroke="#263238" stroke-width="0.4" stroke-miterlimit="10"/>
<path d="M102.112 52.98C102.126 52.8232 102.107 52.665 102.056 52.5162C102.005 52.3674 101.922 52.2314 101.814 52.1174C101.591 51.8689 100.349 51.1822 100.177 51.6297C99.992 52.1143 101.219 53.2424 102.112 52.98Z" fill="#06BCC1" stroke="#263238" stroke-width="0.4" stroke-miterlimit="10"/>
<path d="M102.112 52.9799L100.955 52.0725" stroke="#263238" stroke-width="0.4" stroke-miterlimit="10"/>
<path d="M102.707 48.0215L101.851 46.8965" stroke="#263238" stroke-width="0.4" stroke-miterlimit="10"/>
<path d="M102.112 47.2345C102.126 47.0777 102.107 46.9195 102.056 46.7707C102.005 46.6219 101.922 46.4859 101.814 46.3718C101.591 46.1249 100.349 45.4366 100.177 45.8857C99.992 46.3718 101.219 47.4969 102.112 47.2345Z" fill="#06BCC1" stroke="#263238" stroke-width="0.4" stroke-miterlimit="10"/>
<path d="M102.112 47.2345L100.955 46.327" stroke="#263238" stroke-width="0.4" stroke-miterlimit="10"/>
<path d="M102.707 44.1974L101.851 43.0724" stroke="#263238" stroke-width="0.4" stroke-miterlimit="10"/>
<path d="M102.112 43.4103C102.126 43.2535 102.107 43.0953 102.056 42.9465C102.005 42.7977 101.922 42.6617 101.814 42.5477C101.591 42.2992 100.349 41.6125 100.177 42.06C99.992 42.5461 101.219 43.6727 102.112 43.4103Z" fill="#06BCC1" stroke="#263238" stroke-width="0.4" stroke-miterlimit="10"/>
<path d="M102.112 43.4104L100.955 42.5029" stroke="#263238" stroke-width="0.4" stroke-miterlimit="10"/>
<path d="M102.707 40.3562L101.851 39.2312" stroke="#263238" stroke-width="0.4" stroke-miterlimit="10"/>
<path d="M102.112 39.5677C102.126 39.4111 102.107 39.2532 102.056 39.1046C102.005 38.9561 101.922 38.8203 101.814 38.7066C101.591 38.4581 100.349 37.7714 100.177 38.2189C99.992 38.7066 101.219 39.8301 102.112 39.5677Z" fill="#06BCC1" stroke="#263238" stroke-width="0.4" stroke-miterlimit="10"/>
<path d="M102.112 39.5676L100.955 38.6617" stroke="#263238" stroke-width="0.4" stroke-miterlimit="10"/>
<path d="M102.689 60.1546L103.544 59.0295" stroke="#263238" stroke-width="0.4" stroke-miterlimit="10"/>
<path d="M103.28 59.3674C103.267 59.21 103.288 59.0515 103.341 58.9027C103.393 58.7539 103.477 58.6182 103.586 58.5048C103.81 58.2579 105.052 57.5696 105.222 58.0187C105.404 58.5048 104.176 59.6298 103.28 59.3674Z" fill="#06BCC1" stroke="#263238" stroke-width="0.4" stroke-miterlimit="10"/>
<path d="M103.283 59.3675L104.508 58.4122" stroke="#263238" stroke-width="0.4" stroke-miterlimit="10"/>
<path d="M102.689 52.372L103.544 51.2469" stroke="#263238" stroke-width="0.4" stroke-miterlimit="10"/>
<path d="M103.28 51.5849C103.267 51.4274 103.288 51.2689 103.34 51.1201C103.393 50.9713 103.477 50.8356 103.586 50.7222C103.81 50.4738 105.052 49.787 105.222 50.2346C105.404 50.7253 104.176 51.8472 103.28 51.5849Z" fill="#06BCC1" stroke="#263238" stroke-width="0.4" stroke-miterlimit="10"/>
<path d="M103.283 51.5849L104.508 50.6296" stroke="#263238" stroke-width="0.4" stroke-miterlimit="10"/>
<path d="M102.689 48.5309L103.544 47.4059" stroke="#263238" stroke-width="0.4" stroke-miterlimit="10"/>
<path d="M103.28 47.7438C103.267 47.5863 103.288 47.4278 103.34 47.279C103.393 47.1302 103.477 46.9946 103.586 46.8812C103.81 46.6327 105.052 45.9459 105.222 46.3935C105.404 46.8812 104.176 48.0062 103.28 47.7438Z" fill="#06BCC1" stroke="#263238" stroke-width="0.4" stroke-miterlimit="10"/>
<path d="M103.283 47.7437L104.508 46.7885" stroke="#263238" stroke-width="0.4" stroke-miterlimit="10"/>
<path d="M102.689 43.4536L103.544 42.3286" stroke="#263238" stroke-width="0.4" stroke-miterlimit="10"/>
<path d="M103.28 42.6666C103.267 42.5091 103.288 42.3506 103.34 42.2018C103.393 42.053 103.477 41.9173 103.586 41.8039C103.81 41.5554 105.052 40.8687 105.222 41.3162C105.404 41.8039 104.176 42.9289 103.28 42.6666Z" fill="#06BCC1" stroke="#263238" stroke-width="0.4" stroke-miterlimit="10"/>
<path d="M103.283 42.6664L104.508 41.7112" stroke="#263238" stroke-width="0.4" stroke-miterlimit="10"/>
<path d="M102.689 39.4612L103.544 38.3378" stroke="#263238" stroke-width="0.4" stroke-miterlimit="10"/>
<path d="M103.28 38.6742C103.267 38.5169 103.288 38.3587 103.341 38.2101C103.393 38.0616 103.477 37.9262 103.586 37.8131C103.81 37.5646 105.052 36.8763 105.222 37.3254C105.404 37.8131 104.176 38.9365 103.28 38.6742Z" fill="#06BCC1" stroke="#263238" stroke-width="0.4" stroke-miterlimit="10"/>
<path d="M103.283 38.6741L104.508 37.7189" stroke="#263238" stroke-width="0.4" stroke-miterlimit="10"/>
<path d="M102.637 36.9041C102.623 36.7473 102.642 36.5892 102.693 36.4405C102.744 36.2918 102.827 36.1557 102.934 36.0414C103.159 35.7945 104.4 35.1062 104.571 35.5553C104.758 36.0414 103.53 37.1664 102.637 36.9041Z" fill="#06BCC1" stroke="#263238" stroke-width="0.4" stroke-miterlimit="10"/>
<path d="M102.637 36.904L103.862 35.9487" stroke="#263238" stroke-width="0.4" stroke-miterlimit="10"/>
<path d="M102.697 36.9565C102.541 36.9546 102.387 36.9191 102.245 36.8523C102.104 36.7855 101.978 36.6889 101.877 36.5692C101.655 36.3176 101.112 35.0012 101.571 34.8716C102.069 34.742 103.049 36.0908 102.697 36.9565Z" fill="#06BCC1" stroke="#263238" stroke-width="0.4" stroke-miterlimit="10"/>
<path d="M102.697 36.9566L101.882 35.6294" stroke="#263238" stroke-width="0.4" stroke-miterlimit="10"/>
<path d="M103.75 69.329H101.014L100.67 62.3644H104.092L103.75 69.329Z" fill="#263238" stroke="#263238" stroke-width="0.4" stroke-miterlimit="10"/>
<path d="M55.6772 26.0716C55.6772 26.0716 62.1089 23.9205 68.829 24.9183" stroke="#263238" stroke-width="0.4" stroke-miterlimit="10"/>
<path d="M63.8716 24.6727L66.6783 21.282" stroke="#263238" stroke-width="0.4" stroke-miterlimit="10"/>
<path d="M61.9675 24.8555L65.1126 27.6389" stroke="#263238" stroke-width="0.4" stroke-miterlimit="10"/>
<path d="M65.2565 22.9018C65.2565 22.9018 64.7587 21.8869 65.746 20.6031C66.369 19.8238 67.2495 19.2964 68.2266 19.1174C68.1963 20.0432 67.9285 20.9452 67.4492 21.7356C66.6597 22.987 65.2565 22.9018 65.2565 22.9018Z" stroke="#263238" stroke-width="0.4" stroke-miterlimit="10"/>
<path d="M60.6801 23.5566C60.6801 23.5566 60.1835 22.5427 61.1696 21.2579C61.793 20.4787 62.674 19.9516 63.6514 19.7732C63.6197 20.6985 63.3511 21.5998 62.8716 22.3895C62.0882 23.6455 60.6801 23.5566 60.6801 23.5566Z" stroke="#263238" stroke-width="0.4" stroke-miterlimit="10"/>
<path d="M63.769 26.4153C64.1012 26.3393 64.4458 26.3369 64.779 26.4082C65.1122 26.4795 65.4261 26.6228 65.699 26.8282C66.6557 27.5308 66.6634 29.5454 66.6634 29.5454C65.827 29.3076 65.0489 28.8968 64.3787 28.3392C63.2812 27.4147 63.769 26.4153 63.769 26.4153Z" stroke="#263238" stroke-width="0.4" stroke-miterlimit="10"/>
<path d="M66.7022 24.7904C66.7022 24.7904 67.1848 23.3135 68.7714 23.7111C69.6965 23.9298 70.502 24.5001 71.0197 25.3031C71.0197 25.3031 70.0988 26.5764 68.6223 26.2597C67.1458 25.943 66.7022 24.7904 66.7022 24.7904Z" stroke="#263238" stroke-width="0.4" stroke-miterlimit="10"/>
<path d="M59.7356 25.1068L61.8066 22.0809" stroke="#263238" stroke-width="0.4" stroke-miterlimit="10"/>
<path d="M14.5443 30.495H20.0943V34.0198H16.9502L17.0528 35.6278L15.82 34.0198H14.5443V30.495Z" stroke="#263238" stroke-width="0.4" stroke-miterlimit="10"/>
<path d="M18.4618 32.5645C18.6301 32.5645 18.7666 32.427 18.7666 32.2574C18.7666 32.0878 18.6301 31.9503 18.4618 31.9503C18.2935 31.9503 18.157 32.0878 18.157 32.2574C18.157 32.427 18.2935 32.5645 18.4618 32.5645Z" stroke="#263238" stroke-width="0.4" stroke-miterlimit="10"/>
<path d="M17.1693 32.5645C17.3376 32.5645 17.474 32.427 17.474 32.2574C17.474 32.0878 17.3376 31.9503 17.1693 31.9503C17.0009 31.9503 16.8645 32.0878 16.8645 32.2574C16.8645 32.427 17.0009 32.5645 17.1693 32.5645Z" stroke="#263238" stroke-width="0.4" stroke-miterlimit="10"/>
<path d="M15.8767 32.5645C16.045 32.5645 16.1815 32.427 16.1815 32.2574C16.1815 32.0878 16.045 31.9503 15.8767 31.9503C15.7084 31.9503 15.572 32.0878 15.572 32.2574C15.572 32.427 15.7084 32.5645 15.8767 32.5645Z" stroke="#263238" stroke-width="0.4" stroke-miterlimit="10"/>
<path d="M92.5005 35.9868C92.5005 35.9868 93.6767 36.2245 94.3811 36.8001C95.0856 37.3757 95.5558 38.7616 95.2204 39.6412C94.885 40.5209 94.7946 40.4638 95.1974 40.9715C95.6002 41.4792 95.2648 42.3604 95.2648 42.3604L92.6797 41.5487C92.6975 40.9224 92.7487 40.2975 92.8328 39.6767C92.9661 38.7631 92.8987 37.0717 92.4959 36.5979L92.5005 35.9868Z" fill="#263238" stroke="#263238" stroke-width="0.4" stroke-linecap="round" stroke-linejoin="round"/>
<path d="M88.8526 57.7466L89.289 60.1155C89.2403 61.0828 89.3306 62.0522 89.557 62.9936C89.9261 64.3825 90.1957 67.4937 90.1957 67.4937C90.1957 67.4937 89.6244 67.9659 89.0195 68.3718C88.4146 68.7777 88.047 69.1511 88.8863 69.1511C89.7255 69.1511 90.162 68.9135 90.6643 68.7113C91.1666 68.5091 91.5709 68.4027 91.5709 68.1357C91.5709 67.8687 91.3029 66.7468 91.3029 66.7468C91.3029 66.7468 91.404 62.7899 91.404 61.4997C91.4095 60.76 91.3303 60.0221 91.1681 59.3006V58.0244L88.8526 57.7466Z" fill="white" stroke="#263238" stroke-width="0.4" stroke-linecap="round" stroke-linejoin="round"/>
<path d="M90.6643 68.7143C91.1681 68.5106 91.5709 68.4056 91.5709 68.1387C91.5623 68.0022 91.5439 67.8666 91.5158 67.7328C91.2784 67.8516 91.0073 67.9936 90.8327 68.1047C90.4637 68.3424 89.9598 68.5785 89.6581 68.5785C89.4337 68.5548 89.2161 68.4866 89.018 68.3779C88.4146 68.7822 88.047 69.1495 88.8863 69.1495C89.7255 69.1495 90.162 68.9165 90.6643 68.7143Z" fill="#263238" stroke="#263238" stroke-width="0.4" stroke-linecap="round" stroke-linejoin="round"/>
<path d="M90.7991 58.4982L90.9001 60.0877C90.9001 60.0877 90.698 62.0152 90.9001 63.3285C91.1023 64.6418 91.1008 67.1511 91.1008 67.557C91.1008 67.9629 90.7945 68.4027 90.2615 68.8765C90.2615 68.8765 89.825 69.3842 90.0272 69.6882C90.2294 69.9922 91.672 69.4182 91.7118 69.0802C91.7516 68.7422 92.0809 67.9999 92.0809 67.7607V66.6805C92.0809 66.4443 93.0212 63.2653 92.9201 62.114C92.8191 60.9627 92.819 59.2729 92.819 59.2729L92.8527 58.0892C92.8527 58.0892 91.3703 58.5661 90.7991 58.4982Z" fill="white" stroke="#263238" stroke-width="0.4" stroke-linecap="round" stroke-linejoin="round"/>
<path d="M91.2692 69.0524C90.7776 69.2854 90.5035 68.8409 90.4453 68.7129C90.3886 68.77 90.3274 68.8255 90.2615 68.8826C90.2615 68.8826 89.825 69.3903 90.0272 69.6944C90.2294 69.9984 91.672 69.4243 91.7118 69.0863C91.7516 68.7483 92.0809 68.006 92.0809 67.7668C91.9186 68.2159 91.6352 68.878 91.2692 69.0524Z" fill="#263238" stroke="#263238" stroke-width="0.4" stroke-linecap="round" stroke-linejoin="round"/>
<path d="M88.6504 48.0443C88.6504 48.0443 87.3747 50.8869 87.2721 52.4085C87.1695 53.9302 88.0792 57.9565 88.0792 57.9565C88.0792 57.9565 89.724 58.7281 91.0992 58.6664C91.9162 58.6304 92.7231 58.4707 93.4929 58.1926C93.4929 58.1926 94.7012 54.6431 94.3321 52.5443C93.9631 50.4455 93.0564 48.2819 93.0564 48.2819L88.7454 47.7402L88.6504 48.0443Z" fill="#263238" stroke="#263238" stroke-width="0.4" stroke-linecap="round" stroke-linejoin="round"/>
<path d="M90.6321 40.8728C90.6321 40.8728 91.2018 40.5348 91.6383 40.5348H92.3106C92.3106 40.5348 92.6169 41.7524 92.6169 41.8882C92.6169 42.024 91.3412 48.2479 91.3412 48.2479L88.9246 48.0102C88.9246 48.0102 88.9246 44.0873 89.2599 42.9021C89.5953 41.7169 90.6321 40.8728 90.6321 40.8728Z" fill="white" stroke="#263238" stroke-width="0.4" stroke-linecap="round" stroke-linejoin="round"/>
<path d="M88.7454 36.024C88.7454 36.024 88.5111 37.4453 88.8128 38.4268C89.1145 39.4083 89.9537 40.4562 90.2907 40.4901C90.5399 40.4908 90.7842 40.4202 90.9951 40.2864L90.8711 40.7386L90.6031 42.3281L91.8114 42.43C91.8114 42.43 92.3152 40.6367 92.3152 40.5349C92.3152 40.433 92.3045 40.1861 92.3045 40.1861L92.1697 38.8327C92.3548 38.5263 92.523 38.21 92.6736 37.8851C92.7747 37.615 92.5388 37.1752 92.5388 37.1752C92.5388 37.1752 92.7808 35.7122 91.9691 34.9761C90.9614 34.0625 89.2125 34.8743 88.7791 35.3141C88.3457 35.7539 88.7454 36.024 88.7454 36.024Z" fill="white" stroke="#263238" stroke-width="0.4" stroke-linecap="round" stroke-linejoin="round"/>
<path d="M80.8029 31.4252H87.503V35.5639H83.7071L83.8317 37.4535L82.3425 35.5639H80.8029V31.4252Z" stroke="#263238" stroke-width="0.4" stroke-miterlimit="10"/>
<path d="M85.1101 33.4747C85.1101 33.5463 85.1311 33.6162 85.1706 33.6757C85.21 33.7352 85.2661 33.7815 85.3316 33.8089C85.3972 33.8363 85.4694 33.8434 85.539 33.8295C85.6087 33.8155 85.6726 33.7811 85.7228 33.7305C85.773 33.6799 85.8072 33.6155 85.821 33.5453C85.8349 33.4751 85.8278 33.4024 85.8006 33.3363C85.7734 33.2702 85.7274 33.2137 85.6684 33.174C85.6094 33.1343 85.54 33.113 85.469 33.113C85.4218 33.1129 85.3751 33.1221 85.3314 33.1402C85.2878 33.1583 85.2482 33.1849 85.2148 33.2186C85.1814 33.2522 85.155 33.2921 85.137 33.3361C85.1191 33.3801 85.1099 33.4272 85.1101 33.4747Z" stroke="#263238" stroke-width="0.4" stroke-miterlimit="10"/>
<path d="M83.6743 33.4761C83.6746 33.5476 83.6959 33.6174 83.7355 33.6767C83.7751 33.736 83.8313 33.7821 83.8969 33.8093C83.9625 33.8365 84.0346 33.8434 84.1041 33.8293C84.1737 33.8152 84.2375 33.7806 84.2876 33.73C84.3376 33.6794 84.3717 33.6149 84.3854 33.5448C84.3992 33.4747 84.392 33.402 84.3648 33.336C84.3376 33.27 84.2915 33.2136 84.2325 33.1739C84.1735 33.1342 84.1042 33.113 84.0333 33.113C83.986 33.113 83.9392 33.1224 83.8956 33.1407C83.852 33.159 83.8123 33.1857 83.779 33.2195C83.7456 33.2532 83.7192 33.2932 83.7013 33.3373C83.6833 33.3813 83.6742 33.4285 83.6743 33.4761Z" stroke="#263238" stroke-width="0.4" stroke-miterlimit="10"/>
<path d="M81.9993 33.4761C81.9996 33.5476 82.0208 33.6174 82.0605 33.6767C82.1001 33.736 82.1562 33.7821 82.2218 33.8093C82.2874 33.8365 82.3596 33.8434 82.4291 33.8293C82.4986 33.8152 82.5625 33.7806 82.6125 33.73C82.6626 33.6794 82.6966 33.6149 82.7104 33.5448C82.7241 33.4747 82.7169 33.402 82.6897 33.336C82.6625 33.27 82.6165 33.2136 82.5575 33.1739C82.4985 33.1342 82.4292 33.113 82.3582 33.113C82.311 33.113 82.2642 33.1224 82.2206 33.1407C82.1769 33.159 82.1373 33.1857 82.1039 33.2195C82.0706 33.2532 82.0442 33.2932 82.0262 33.3373C82.0083 33.3813 81.9991 33.4285 81.9993 33.4761Z" stroke="#263238" stroke-width="0.4" stroke-miterlimit="10"/>
<path d="M90.9905 40.2863L91.4514 40.1505L90.7899 41.3249L90.9905 40.2863Z" fill="#263238" stroke="#263238" stroke-width="0.4" stroke-linecap="round" stroke-linejoin="round"/>
<path d="M91.9614 34.9761C90.8894 34.0625 89.2048 34.8743 88.7714 35.3141C88.338 35.7539 88.7377 36.024 88.7377 36.024C88.7377 36.024 88.9736 35.7879 89.5769 36.024C90.1803 36.2601 90.649 37.4792 91.0885 37.615C91.3641 37.6987 91.6444 37.7662 91.9277 37.8172C91.9277 37.8172 91.9277 37.3095 92.1621 37.2416C92.2819 37.2043 92.4059 37.182 92.5311 37.1752C92.5311 37.1752 92.7991 35.686 91.9614 34.9761Z" fill="#263238" stroke="#263238" stroke-width="0.4" stroke-linecap="round" stroke-linejoin="round"/>
<path d="M89.5126 37.5471L89.7822 37.953L89.6474 39.0348L90.0839 39.1027" stroke="#263238" stroke-width="0.4" stroke-linecap="round" stroke-linejoin="round"/>
<path d="M89.9491 39.4746C90.0403 39.492 90.1345 39.4857 90.2226 39.4563C90.3108 39.4268 90.3901 39.3752 90.453 39.3064" stroke="#263238" stroke-width="0.4" stroke-linecap="round" stroke-linejoin="round"/>
<path d="M89.0103 37.7493L89.1099 38.223C89.2808 38.2426 89.4539 38.2193 89.6137 38.1551" stroke="#263238" stroke-width="0.4" stroke-linecap="round" stroke-linejoin="round"/>
<path d="M90.3856 37.5471L90.4529 38.0548C90.4529 38.0548 90.9231 38.1891 91.0916 38.0873" stroke="#263238" stroke-width="0.4" stroke-linecap="round" stroke-linejoin="round"/>
<path d="M88.8755 37.4113C89.043 37.3318 89.2313 37.308 89.4131 37.3434" stroke="#263238" stroke-width="0.4" stroke-linecap="round" stroke-linejoin="round"/>
<path d="M90.1237 37.2091C90.1237 37.2091 90.2584 37.0733 90.6275 37.1412" stroke="#263238" stroke-width="0.4" stroke-linecap="round" stroke-linejoin="round"/>
<path d="M90.8665 40.7385C90.8665 40.7385 89.3886 41.4484 89.0532 41.5101C88.7178 41.5719 88.1129 41.8481 88.1466 42.0842C88.1803 42.3203 88.0134 45.9747 88.1129 46.2124C88.2125 46.4501 88.1129 48.3436 88.0471 48.5797C87.9812 48.8158 86.9077 51.9008 86.9077 51.9008C86.9077 51.9008 87.1435 52.1724 87.6473 51.9687C88.1512 51.765 88.8557 49.6014 88.9889 48.7557C89.1221 47.91 90.0303 44.1877 90.2646 43.342C90.4989 42.4963 90.8665 40.7385 90.8665 40.7385Z" fill="white" stroke="#263238" stroke-width="0.4" stroke-linecap="round" stroke-linejoin="round"/>
<path d="M92.3106 40.5348C92.3106 40.5348 91.6383 43.1398 91.3029 44.1876C90.9675 45.2355 90.6321 45.8466 90.6903 46.6568C90.7485 47.467 90.6566 51.5612 91.2616 52.1369C91.8665 52.7125 92.6399 53.0829 93.4056 53.0829C93.939 53.0693 94.4687 52.99 94.983 52.8468C94.983 52.8468 94.0427 47.6707 94.0427 47.5365C94.0427 47.4022 95.5206 42.6305 95.4869 42.2246C95.4532 41.8188 92.3106 40.5348 92.3106 40.5348Z" fill="white" stroke="#263238" stroke-width="0.4" stroke-linecap="round" stroke-linejoin="round"/>
<path d="M89.5571 43.7479C89.5616 44.3675 89.6071 44.9862 89.6934 45.5998C89.9307 44.6183 90.1528 43.7078 90.2615 43.3389C90.4974 42.4932 90.8741 40.7355 90.8741 40.7355C90.8741 40.7355 90.505 40.9129 90.0931 41.0981C89.9032 41.6753 89.5571 42.8759 89.5571 43.7479Z" fill="#06BCC1" stroke="#263238" stroke-width="0.4" stroke-linecap="round" stroke-linejoin="round"/>
<path d="M92.3106 40.5348C92.3106 40.5348 91.6383 43.1398 91.3029 44.1876C91.1222 44.7494 90.943 45.1861 90.8251 45.5935C91.3125 45.2073 91.7346 44.744 92.0747 44.2216C92.6261 43.3898 92.9737 41.5101 93.0794 40.862C92.6368 40.6675 92.3106 40.5348 92.3106 40.5348Z" fill="#06BCC1" stroke="#263238" stroke-width="0.4" stroke-linecap="round" stroke-linejoin="round"/>
<path d="M86.2951 47.7742L85.9597 48.7557L85.6227 47.5041C85.7487 47.4772 85.8798 47.4885 85.9995 47.5366C86.1191 47.5847 86.222 47.6673 86.2951 47.7742Z" fill="#263238" stroke="#263238" stroke-width="0.4" stroke-linecap="round" stroke-linejoin="round"/>
<path d="M83.9136 43.9453L85.8264 47.3281L88.3105 47.4639L86.6657 43.9453H83.9136Z" fill="#263238" stroke="#263238" stroke-width="0.4" stroke-linecap="round" stroke-linejoin="round"/>
<path d="M85.6289 47.5041C85.6289 47.5041 84.6901 46.1151 84.5568 45.7787C84.44 45.4993 84.3717 45.2018 84.3547 44.8991C84.3547 44.6954 84.4221 44.6275 84.5231 44.8651C84.6242 45.1028 84.8294 45.609 84.8294 45.609L84.9979 44.5935C84.9979 44.5935 85.099 44.4253 85.1985 44.6275C85.2981 44.8296 85.1985 45.609 85.1985 45.609L85.468 44.4253C85.468 44.4253 85.6013 44.1876 85.7024 44.3574C85.8034 44.5272 85.635 45.4732 85.635 45.4732L85.9413 44.7633C85.9889 44.7642 86.0349 44.7815 86.0714 44.8124C86.1079 44.8433 86.1328 44.8859 86.1419 44.933C86.1756 45.1012 85.9076 46.0133 85.9076 46.0133L86.344 45.5735C86.344 45.5735 86.511 45.5056 86.4436 45.7093C86.3207 45.9589 86.1751 46.1966 86.0087 46.4192C86.0907 46.617 86.1578 46.8207 86.2093 47.0287C86.1811 47.1583 86.1358 47.2833 86.0745 47.4007L86.3104 47.7726L86.1756 48.0427L85.6289 47.5041Z" fill="white" stroke="#263238" stroke-width="0.4" stroke-linecap="round" stroke-linejoin="round"/>
<path d="M88.047 48.5859C88.1001 48.2224 88.1308 47.856 88.1389 47.4886L86.2675 47.643L85.9612 48.7603L87.9521 48.8452C88.0072 48.7109 88.0363 48.6198 88.047 48.5859Z" fill="white" stroke="#263238" stroke-width="0.4" stroke-linecap="round" stroke-linejoin="round"/>
<path d="M90.9001 46.5226C90.9001 46.5226 89.8143 45.6615 89.5953 45.4716C89.2997 45.217 88.7852 45.305 88.7852 45.305C88.7852 45.305 87.9796 45.8466 87.8449 45.9809C87.7101 46.1152 87.7101 46.2525 87.8449 46.2186C88.0889 46.1002 88.3243 45.9645 88.5493 45.8127L88.583 46.3189L89.289 46.5226L89.4896 46.3189C89.589 46.3975 89.7031 46.4552 89.825 46.4886C89.9384 46.5065 90.0544 46.4948 90.1619 46.4547L90.799 47.0303L90.9001 46.5226Z" fill="white" stroke="#263238" stroke-width="0.4" stroke-linecap="round" stroke-linejoin="round"/>
<path d="M94.3582 41.6166C94.3582 41.6166 95.6676 41.8882 95.8345 42.328C96.0014 42.7678 95.8682 49.6353 95.7334 49.8374C95.5987 50.0396 90.43 47.4068 90.43 47.4068L90.8665 46.3914L93.8543 47.2031L93.6461 43.8836" fill="white"/>
<path d="M94.3582 41.6166C94.3582 41.6166 95.6676 41.8882 95.8345 42.328C96.0014 42.7678 95.8682 49.6353 95.7334 49.8374C95.5987 50.0396 90.43 47.4068 90.43 47.4068L90.8665 46.3914L93.8543 47.2031L93.6461 43.8836" stroke="#263238" stroke-width="0.4" stroke-linecap="round" stroke-linejoin="round"/>
<path d="M88.7928 46.3513C88.7928 46.3513 88.8357 45.5426 88.8633 45.4438" stroke="#263238" stroke-width="0.4" stroke-linecap="round" stroke-linejoin="round"/>
<path d="M89.0609 46.3945C89.0609 46.3945 89.1313 45.643 89.1589 45.5149" stroke="#263238" stroke-width="0.4" stroke-linecap="round" stroke-linejoin="round"/>
<path d="M89.4896 46.3189L89.4835 46.1245L89.3135 46.0967" stroke="#263238" stroke-width="0.4" stroke-linecap="round" stroke-linejoin="round"/>
<path d="M43.7465 23.6346C43.7465 23.6346 43.8246 23.7133 44.1615 23.7395C44.4984 23.7658 44.8629 23.8707 45.2519 23.7658C45.6409 23.6608 45.8737 23.6115 45.745 23.792C45.6164 23.9726 44.7067 24.471 44.5765 24.5235C44.4464 24.576 44.0329 24.6022 43.9287 24.7072C43.8246 24.8121 43.7465 25.0991 43.4877 25.1254C43.2288 25.1516 42.7357 24.2102 42.7357 24.2102L43.5397 23.5297L43.7465 23.6346Z" fill="#B0B0B0" stroke="#263238" stroke-width="0.4" stroke-linecap="round" stroke-linejoin="round"/>
<path d="M35.6788 22.4062C35.6788 22.4062 37.832 20.5543 39.1812 19.7395C40.5304 18.9246 40.8153 18.6947 40.9975 18.7456C41.1798 18.7965 44.0604 23.505 44.0604 23.505L42.555 24.7396L40.6361 20.974C40.6361 20.974 37.9116 23.6145 37.2117 24.0852C36.5119 24.5559 35.109 23.1963 35.0325 22.988C34.9559 22.7796 35.6788 22.4062 35.6788 22.4062Z" fill="#263238" stroke="#263238" stroke-width="0.4" stroke-linecap="round" stroke-linejoin="round"/>
<path d="M39.5074 25.255L43.1982 25.2736L42.3161 24.4788L39.0204 24.3846L39.5074 25.255Z" fill="white" stroke="#263238" stroke-width="0.4" stroke-linecap="round" stroke-linejoin="round"/>
<path d="M43.1982 25.2736L45.3959 22.3847L44.0957 21.9803L42.3161 24.4789L43.1982 25.2736Z" fill="white" stroke="#263238" stroke-width="0.4" stroke-linecap="round" stroke-linejoin="round"/>
<path d="M37.2868 18.2765L38.4813 21.1778L40.3482 23.7396C40.3482 23.7396 41.0235 23.7658 41.1522 23.792C41.2808 23.8183 41.6453 23.8445 41.8015 24.0266C41.9299 24.2284 42.026 24.4492 42.0864 24.6809L41.9332 24.7072L41.6269 24.3677L41.0572 24.2365C41.0572 24.2365 40.3819 24.184 40.2272 24.1053C40.0725 24.0266 39.319 23.4525 39.319 23.4525L36.8273 20.3151L36.4384 19.2163L37.2868 18.2765Z" fill="#B0B0B0" stroke="#263238" stroke-width="0.4" stroke-linecap="round" stroke-linejoin="round"/>
<path d="M40.218 23.4078L39.6482 23.8707L36.8105 20.8985L36.5179 19.3475L37.495 18.4061L38.4966 20.8244L40.218 23.4078Z" fill="#06BCC1" stroke="#263238" stroke-width="0.4" stroke-linecap="round" stroke-linejoin="round"/>
<path d="M36.1198 32.8108C36.1198 32.8108 35.1075 34.3787 35.083 34.5886C35.0697 34.6871 35.0908 34.7872 35.1428 34.8717C35.1948 34.9562 35.2744 35.0198 35.3679 35.0516C35.5746 35.1303 35.9896 35.2861 36.25 35.4173C36.5103 35.5485 37.08 35.8618 37.4951 35.8618C37.9101 35.8618 38.0142 35.7306 37.884 35.601C37.7539 35.4713 36.9759 34.7892 36.8978 34.6334C36.7804 34.3718 36.6851 34.1008 36.6129 33.8232C36.6129 33.7445 36.8457 33.013 36.8457 33.013L36.1198 32.8108Z" fill="#B0B0B0" stroke="#263238" stroke-width="0.4" stroke-linecap="round" stroke-linejoin="round"/>
<path d="M32.3325 21.9695C31.8966 22.5535 31.6929 23.2806 31.7612 24.0081C31.9144 25.3415 33.0063 25.6825 33.9926 25.9696C34.9788 26.2566 38.7141 27.2505 38.7141 27.2505C38.7141 27.2505 37.6512 28.3739 37.2607 29.3153C36.8702 30.2567 35.8349 32.9759 35.8349 32.9759L37.7278 33.8524L40.1674 28.8369C40.1674 28.8369 40.7632 27.7659 40.8673 27.2165C40.9714 26.6671 40.8152 26.3276 40.7632 26.2489C40.7111 26.1702 37.495 23.9757 36.8978 23.5822C36.5553 23.3537 36.1904 23.1614 35.8089 23.0081L32.3325 21.9695Z" fill="#263238" stroke="#263238" stroke-width="0.4" stroke-linecap="round" stroke-linejoin="round"/>
<path d="M37.1811 16.812C37.1811 16.812 36.7661 15.3999 36.1091 15.2178C35.4521 15.0357 34.7078 15.6808 34.1182 16.3938C33.5286 17.1067 33.625 18.7719 33.625 19.2426C33.625 19.7133 32.3019 21.7797 32.1717 22.2226C32.1717 22.2226 32.7169 22.6161 33.7813 22.8507C34.4897 22.9947 35.2121 23.0564 35.9345 23.0343C35.9345 23.0343 36.1412 21.5436 36.1933 21.0729C36.2454 20.6022 36.6083 19.9232 36.8932 19.7395C37.178 19.5559 37.4644 19.0342 37.4905 18.4061C37.5165 17.778 37.1811 16.812 37.1811 16.812Z" fill="#06BCC1" stroke="#263238" stroke-width="0.4" stroke-linecap="round" stroke-linejoin="round"/>
<path d="M39.3113 23.7134L39.9331 24.0004C39.9331 24.0004 41.2302 24.0791 41.3344 24.0791C41.4385 24.0791 41.6713 24.8369 41.6713 24.8369C41.6713 24.8369 41.5932 24.9156 41.4906 24.8122C41.388 24.7088 41.2823 24.576 41.2823 24.576C41.2823 24.576 40.6345 24.6285 40.3741 24.6285C40.1138 24.6285 39.6482 24.3199 39.6482 24.3199L39.0188 24.0529L39.3113 23.7134Z" fill="#B0B0B0" stroke="#263238" stroke-width="0.4" stroke-linecap="round" stroke-linejoin="round"/>
<path d="M34.6664 17.0203C34.6664 17.0203 35.472 19.8182 35.7568 20.5235C36.0417 21.2287 36.7691 22.093 37.028 22.4325C37.2868 22.772 39.2333 24.2844 39.2333 24.2844L39.6483 23.8661L37.5808 20.7457C37.5808 20.7457 36.5348 16.579 36.5609 16.4416C36.5869 16.3043 36.2546 15.9447 36.0157 15.8922" fill="#06BCC1"/>
<path d="M34.6664 17.0203C34.6664 17.0203 35.472 19.8182 35.7568 20.5235C36.0417 21.2287 36.7691 22.093 37.028 22.4325C37.2868 22.772 39.2333 24.2844 39.2333 24.2844L39.6483 23.8661L37.5808 20.7457C37.5808 20.7457 36.5348 16.579 36.5609 16.4416C36.5869 16.3043 36.2546 15.9447 36.0157 15.8922" stroke="#263238" stroke-width="0.4" stroke-linecap="round" stroke-linejoin="round"/>
<path d="M40.8673 12.4462C40.8673 12.4462 40.9454 13.3876 40.8152 13.7008C40.6851 14.0141 40.0909 14.1978 40.0909 14.4586C40.0909 14.7194 40.1169 14.9817 39.9867 15.0867C39.8565 15.1916 39.6238 15.0867 39.6238 15.0867C39.5777 15.2329 39.4871 15.3609 39.3649 15.4524C39.1567 15.6067 39.1934 15.6067 39.1934 15.6067C39.0206 15.7727 38.7972 15.875 38.5594 15.8969C38.2225 15.8969 37.9637 15.4262 37.8856 15.3737C37.8074 15.3212 37.5961 15.4694 37.3924 15.6098C37.1244 15.7935 36.9253 16.7858 36.9253 16.7858C36.9253 16.7858 36.1734 15.3475 36.0953 15.3212C36.0172 15.295 35.5424 15.2626 35.5424 15.2626C35.5424 15.2626 36.3081 14.8768 36.4062 14.5635C36.5042 14.2502 36.4062 13.7533 36.4062 13.6484C36.4062 13.5434 36.4582 12.4724 36.8993 11.923C37.3404 11.3736 39.2072 11.2178 39.9071 11.1668C40.607 11.1159 40.8673 12.4462 40.8673 12.4462Z" fill="#B0B0B0" stroke="#263238" stroke-width="0.4" stroke-linecap="round" stroke-linejoin="round"/>
<path d="M40.8673 12.4461C40.8673 12.4461 40.6085 12.2918 40.561 12.7332C40.5136 13.1746 40.5871 13.2039 40.2747 13.2301C39.9622 13.2563 39.8336 13.335 39.8336 13.5187C39.8336 13.7023 39.6008 13.7795 39.4186 13.7795C39.2363 13.7795 39.0816 13.5187 38.9775 13.7795C38.8734 14.0403 38.5181 14.1715 38.2776 14.1715C38.0372 14.1715 38.0188 14.3258 37.6038 14.4076C37.1888 14.4894 37.1107 14.0403 37.1107 14.0403C36.8876 14.0875 36.6621 14.1225 36.4353 14.1453C36.2821 14.1453 36.3066 13.4925 36.3066 13.4925C36.1098 13.5298 35.9097 13.5468 35.7094 13.5434C35.5562 13.5187 35.4245 13.1514 35.4245 13.0218C35.4245 12.8921 35.1381 12.6807 35.1381 12.4986V12.19C35.1381 12.19 35.0616 11.7455 35.1121 11.6406C35.1626 11.5356 35.4965 11.3211 35.4965 11.1915C35.4965 11.0619 35.3924 10.46 35.5731 10.2239C35.7538 9.98776 35.9376 9.76091 36.1183 9.76091C36.299 9.76091 36.3526 9.42139 36.6374 9.36892C36.8339 9.32856 37.0343 9.31095 37.2347 9.31645C37.4415 9.31645 37.5716 9.05564 37.8044 9.0078C38.111 8.98269 38.4196 9.01834 38.7126 9.11274C38.8167 9.16521 38.8948 9.16521 39.1016 9.08651C39.2365 9.05714 39.3763 9.05823 39.5108 9.08971C39.6453 9.1212 39.7712 9.18229 39.8795 9.26861C40.0376 9.41476 40.2376 9.50662 40.4508 9.53096C40.5809 9.53096 40.7096 9.45226 40.8918 9.79177C41.0741 10.1313 41.385 10.1838 41.5657 10.3412C41.6414 10.4084 41.6981 10.4947 41.7301 10.5912C41.7622 10.6876 41.7683 10.7909 41.7479 10.8906C41.7219 11.0727 41.8521 11.2301 41.9562 11.4384C42.0038 11.5231 42.0266 11.6197 42.022 11.7169C42.0174 11.8141 41.9855 11.908 41.9302 11.9878C41.826 12.119 41.9041 12.3798 41.9302 12.4847C41.9562 12.5897 41.6698 12.7934 41.437 12.8767C41.2042 12.96 40.9715 13.0742 40.8673 12.4461Z" fill="#263238" stroke="#263238" stroke-width="0.4" stroke-linecap="round" stroke-linejoin="round"/>
<path d="M40.0174 14.2687C39.9607 14.3706 39.8795 14.4339 39.8351 14.4092C39.7907 14.3845 39.7984 14.2811 39.8535 14.1792C39.9086 14.0774 39.9898 14.0141 40.0357 14.0388C40.0817 14.0635 40.0725 14.1669 40.0174 14.2687Z" fill="#263238"/>
<path d="M39.8887 13.7085C39.8887 13.7085 40.1674 13.5681 40.3297 13.9894" stroke="#263238" stroke-width="0.4" stroke-linecap="round" stroke-linejoin="round"/>
<path d="M22.555 43.4572C22.555 43.4572 23.0236 44.1979 23.1568 44.4232C23.2901 44.6485 23.2686 45.1455 23.2686 45.1455L23.8062 45.6856L23.1676 46.1825C23.1676 46.1825 22.4952 45.7319 22.362 45.664C22.2273 45.6028 22.0834 45.5647 21.9363 45.5513C21.8689 45.5513 21.2425 44.7612 21.2425 44.7612L20.8704 44.5066L21.0909 43.8893L22.0756 44.1825L22.555 43.4572Z" fill="#CFCFCF" stroke="#263238" stroke-width="0.4" stroke-linecap="round" stroke-linejoin="round"/>
<path d="M20.2623 43.5543L22.4784 45.6856L23.2839 44.9757L21.3037 43.0806L20.2623 43.5543Z" fill="#263238" stroke="#263238" stroke-width="0.4" stroke-linecap="round" stroke-linejoin="round"/>
<path d="M22.2318 43.3692C22.1949 43.3713 22.1597 43.3859 22.132 43.4105C22.1042 43.4351 22.0855 43.4684 22.0787 43.505C22.0327 43.7519 21.9561 44.2597 22.1047 44.3029C22.1377 44.3165 22.1735 44.322 22.209 44.3188C22.2445 44.3155 22.2788 44.3038 22.3088 44.2844C22.3389 44.265 22.3639 44.2386 22.3816 44.2074C22.3994 44.1763 22.4095 44.1412 22.411 44.1053C22.4386 43.9634 22.607 43.5698 22.5504 43.4572C22.5029 43.3677 22.3896 43.3661 22.2318 43.3692Z" fill="#CFCFCF" stroke="#263238" stroke-width="0.4" stroke-linecap="round" stroke-linejoin="round"/>
<path d="M20.7325 43.8599C20.7325 43.8599 20.4262 44.434 20.6651 44.6037C20.904 44.7735 20.901 44.434 20.9714 44.2318C21.0419 44.0296 21.0342 43.758 20.7325 43.8599Z" fill="#CFCFCF" stroke="#263238" stroke-width="0.4" stroke-linecap="round" stroke-linejoin="round"/>
<path d="M21.3037 44.434C21.3037 44.434 21.0342 44.9757 21.1352 45.1454C21.2363 45.3152 21.3711 45.1454 21.4415 44.9757C21.4997 44.872 21.5343 44.7565 21.5426 44.6377C21.5441 44.3414 21.3037 44.434 21.3037 44.434Z" fill="#CFCFCF" stroke="#263238" stroke-width="0.4" stroke-linecap="round" stroke-linejoin="round"/>
<path d="M21.5824 44.6763C21.5824 44.6763 21.3144 45.2165 21.414 45.3862C21.5135 45.556 21.6498 45.3862 21.7202 45.2165C21.7789 45.113 21.8129 44.9974 21.8198 44.8785C21.8244 44.5822 21.5824 44.6763 21.5824 44.6763Z" fill="#CFCFCF" stroke="#263238" stroke-width="0.4" stroke-linecap="round" stroke-linejoin="round"/>
<path d="M21.901 44.9433C21.901 44.9433 21.6329 45.4849 21.734 45.6547C21.8351 45.8245 21.9683 45.6547 22.0403 45.4849C22.0985 45.3813 22.1331 45.2658 22.1414 45.147C22.1429 44.8507 21.901 44.9433 21.901 44.9433Z" fill="#CFCFCF" stroke="#263238" stroke-width="0.4" stroke-linecap="round" stroke-linejoin="round"/>
<path d="M23.7541 45.3707L22.7923 46.363L25.3422 48.4603L25.5887 46.7241L23.7541 45.3707Z" fill="#06BCC1" stroke="#263238" stroke-width="0.4" stroke-linecap="round" stroke-linejoin="round"/>
<path d="M24.9961 49.6626C24.9961 49.6626 24.5121 51.4573 24.5366 51.732C24.555 51.8935 24.5652 52.0557 24.5673 52.2182C24.5673 52.2182 23.2073 53.8926 22.5136 55.3833C21.8198 56.8741 21.7586 57.7275 21.9699 57.8788C22.1812 58.03 25.0497 59.3093 25.3514 59.3711L25.6577 59.4313L28.108 60.2831L28.35 60.5578L28.8324 60.4035C29.0437 60.2816 29.1647 59.4606 29.226 59.1257C29.2872 58.7908 29.4373 58.638 29.2857 58.6087C29.1453 58.5921 29.0034 58.5921 28.863 58.6087C28.863 58.6087 28.9534 58.4251 28.8033 58.4251H28.3745C28.3745 58.4251 26.3836 57.6041 26.0497 57.422C25.7159 57.2399 24.872 56.7831 24.872 56.7831L26.843 55.354C26.843 55.354 29.229 53.9543 29.5613 53.3756C29.8937 52.7969 30.0744 51.7012 30.0744 51.2444C30.0744 50.7876 26.7817 49.2382 26.209 49.2382C25.6362 49.2382 25.0252 49.3585 24.9961 49.6626Z" fill="#263238" stroke="#263238" stroke-width="0.4" stroke-linecap="round" stroke-linejoin="round"/>
<path d="M29.2842 58.6102C29.2842 58.6102 30.9688 58.6704 31.2169 58.7923C31.465 58.9142 31.4588 59.3402 31.4588 59.6442C31.4588 59.9482 31.2169 60.6488 31.2781 60.9837C31.3394 61.3186 31.3501 61.7168 31.3976 62.2013C31.4895 63.1134 31.2245 63.2091 31.0668 63.1751C30.4925 63.0532 30.4312 62.3526 30.1602 61.6844C29.8891 61.0161 29.7375 60.6488 29.7375 60.6488L28.8339 60.4019C28.8339 60.4019 29.0131 59.067 29.2842 58.6102Z" fill="white" stroke="#263238" stroke-width="0.4" stroke-linecap="round" stroke-linejoin="round"/>
<path d="M31.2169 58.7923C31.0779 58.7467 30.9339 58.7187 30.7881 58.709C30.9092 59.1735 30.972 59.6516 30.9749 60.1319C30.9749 61.0748 31.1572 62.1705 31.0668 62.8711C31.0515 62.9838 31.0362 63.0779 31.0209 63.1612C31.0359 63.1668 31.0512 63.1714 31.0668 63.1751C31.22 63.2091 31.4895 63.1134 31.3976 62.2013C31.3501 61.7168 31.3379 61.3186 31.2782 60.9837C31.2184 60.6488 31.4589 59.9482 31.4589 59.6442C31.4589 59.3402 31.4589 58.9142 31.2169 58.7923Z" fill="white" stroke="#263238" stroke-width="0.4" stroke-linecap="round" stroke-linejoin="round"/>
<path d="M25.3652 52.2228C25.3652 52.2228 25.7342 54.5237 25.5995 55.8756C25.4647 57.2275 25.5673 60.2399 25.7005 61.0856C25.8338 61.9313 25.7342 64.4684 25.7342 64.9082C25.7386 65.1233 25.7273 65.3383 25.7005 65.5517C25.7005 65.5517 25.3315 65.5178 25.3652 65.72C25.3861 65.8542 25.3974 65.9899 25.3988 66.1258C25.6332 66.3142 25.9098 66.4418 26.2044 66.4977C26.7082 66.5996 27.2458 66.7015 27.3453 66.5657C27.4449 66.4298 27.4127 65.9916 27.4127 65.9916C27.4677 65.9398 27.5112 65.8768 27.5402 65.8069C27.5693 65.7369 27.5832 65.6615 27.5812 65.5857V65.1706C27.5812 65.1706 28.0513 63.2091 28.0176 62.0254C27.9839 60.8418 27.7481 60.1643 27.8155 59.8649C27.8829 59.5655 29.3929 54.9265 29.3929 54.9265C29.3929 54.9265 29.863 53.9111 29.9641 53.2691C30.0354 52.7104 29.9061 52.1444 29.5996 51.6734C29.3975 51.4033 26.3101 50.5576 26.3101 50.5576" fill="#263238"/>
<path d="M25.3652 52.2228C25.3652 52.2228 25.7342 54.5237 25.5995 55.8756C25.4647 57.2275 25.5673 60.2399 25.7005 61.0856C25.8338 61.9313 25.7342 64.4684 25.7342 64.9082C25.7386 65.1233 25.7273 65.3383 25.7005 65.5517C25.7005 65.5517 25.3315 65.5178 25.3652 65.72C25.3861 65.8542 25.3974 65.9899 25.3988 66.1258C25.6332 66.3142 25.9098 66.4418 26.2044 66.4977C26.7082 66.5996 27.2458 66.7015 27.3453 66.5656C27.4449 66.4298 27.4127 65.9916 27.4127 65.9916C27.4677 65.9398 27.5112 65.8768 27.5402 65.8069C27.5693 65.7369 27.5832 65.6615 27.5812 65.5857V65.1706C27.5812 65.1706 28.0513 63.2091 28.0176 62.0254C27.9839 60.8418 27.7481 60.1643 27.8155 59.8649C27.8829 59.5655 29.3929 54.9265 29.3929 54.9265C29.3929 54.9265 29.863 53.9111 29.9641 53.2691C30.0354 52.7104 29.9061 52.1444 29.5996 51.6734C29.3975 51.4033 26.3101 50.5576 26.3101 50.5576" stroke="#263238" stroke-width="0.4" stroke-linecap="round" stroke-linejoin="round"/>
<path d="M26.2167 41.6855C26.2167 41.6855 25.3943 43.417 25.3943 44.4973C25.3943 45.5775 25.0711 47.4093 25.0711 47.9109C25.0711 48.4125 24.6224 49.1671 24.8215 49.5992C25.0206 50.0313 26.1661 50.0251 26.2657 50.0251C26.3652 50.0251 27.0146 50.0498 27.1386 50.0005C27.2627 49.9511 27.4878 45.8075 27.4878 44.8537C27.4878 43.9 27.5368 41.4586 27.5123 41.1623C27.4878 40.866 26.5153 41.133 26.2167 41.6855Z" fill="white" stroke="#263238" stroke-width="0.4" stroke-linecap="round" stroke-linejoin="round"/>
<path d="M27.5812 39.9695C26.9108 41.1169 26.4983 42.3986 26.3729 43.7242C26.137 45.9912 25.4999 50.0159 25.9701 50.4558C26.4403 50.8956 27.6149 51.1996 28.1509 51.4712C28.6869 51.7428 29.5614 52.1811 29.8631 52.3509C30.1648 52.5206 30.6686 52.3169 30.6686 52.3169C30.6686 52.3169 31.0714 48.7304 30.9381 47.1409C30.8049 45.5514 30.6028 42.8785 29.9641 41.5929C29.3255 40.3074 27.7481 39.7997 27.5812 39.9695Z" fill="#06BCC1" stroke="#263238" stroke-width="0.4" stroke-linecap="round" stroke-linejoin="round"/>
<path d="M27.6486 51.4712L27.2458 51.911L27.9166 52.8231L28.3193 52.0453L27.6486 51.4712Z" fill="#CFCFCF" stroke="#263238" stroke-width="0.4" stroke-linecap="round" stroke-linejoin="round"/>
<path d="M27.6486 42.2688C27.6486 42.2688 27.0773 43.7581 27.379 44.9757C27.6807 46.1933 28.4878 48.7304 28.4878 48.7304L27.4801 51.4712L28.4878 52.3848C28.4878 52.3848 30.6028 48.8662 30.6028 48.3924C30.6028 47.9186 30.1326 43.0806 29.9304 42.4386C29.7283 41.7966 29.3929 41.187 28.8906 41.187" fill="#06BCC1"/>
<path d="M27.6486 42.2688C27.6486 42.2688 27.0773 43.7581 27.379 44.9757C27.6807 46.1933 28.4878 48.7304 28.4878 48.7304L27.4801 51.4712L28.4878 52.3848C28.4878 52.3848 30.6028 48.8662 30.6028 48.3924C30.6028 47.9186 30.1326 43.0806 29.9304 42.4386C29.7283 41.7966 29.3929 41.187 28.8906 41.187" stroke="#263238" stroke-width="0.4" stroke-linecap="round" stroke-linejoin="round"/>
<path d="M25.5336 66.22C25.5336 66.22 25.2978 66.3218 25.2978 66.49C25.2978 66.6583 25.0972 67.5703 25.0972 67.5703C25.0972 67.5703 23.4524 68.1444 23.1492 68.2123C22.8459 68.2802 22.7464 68.8219 22.8429 68.9839C22.9394 69.1459 24.0512 69.2926 25.0252 69.3234C25.9992 69.3543 27.1402 69.3574 27.2412 69.1876C27.3423 69.0179 27.3071 67.3604 27.3071 67.3604L27.3408 66.5487C26.7295 66.4963 26.1245 66.3863 25.5336 66.22Z" fill="white" stroke="#263238" stroke-width="0.4" stroke-linecap="round" stroke-linejoin="round"/>
<path d="M22.8168 68.899C22.8211 68.9321 22.8315 68.964 22.8474 68.9932C22.9485 69.1629 24.0557 69.3018 25.0297 69.3327C26.0037 69.3636 27.1447 69.3666 27.2458 69.1969C27.2684 69.136 27.2813 69.072 27.284 69.0071C25.8429 69.2555 23.7647 69.0287 22.8168 68.899Z" fill="white" stroke="#263238" stroke-width="0.4" stroke-linecap="round" stroke-linejoin="round"/>
<path d="M22.7801 35.8089C22.7801 35.8089 22.0756 36.4508 22.143 37.3644C22.2104 38.278 22.3436 38.616 22.4493 38.7179C22.5755 38.8195 22.7102 38.9099 22.852 38.9879C22.852 38.9879 22.7847 39.9694 22.9868 40.0373C23.1739 40.0778 23.366 40.0892 23.5565 40.0713C23.5565 40.0713 24.0941 41.0512 24.3957 41.0852C24.6974 41.1192 25.3024 40.5111 25.3024 40.5111L26.3101 41.4232L27.451 39.6639L26.8139 38.954C26.8139 38.954 27.1202 37.0604 26.6792 36.045C26.2381 35.0295 23.627 34.5233 22.7801 35.8089Z" fill="#CFCFCF" stroke="#263238" stroke-width="0.4" stroke-linecap="round" stroke-linejoin="round"/>
<path d="M25.2978 40.5096L25.7664 40.0327L25.6929 40.7333L25.2978 40.5096Z" fill="#263238" stroke="#263238" stroke-width="0.4" stroke-linecap="round" stroke-linejoin="round"/>
<path d="M25.771 38.8182C25.771 38.8182 26.3698 38.8645 26.8277 38.8444C26.8829 38.4262 27.0513 36.9138 26.6746 36.045C26.2381 35.0295 23.6117 34.5233 22.7801 35.8089C22.5332 36.0538 22.3456 36.3526 22.2318 36.6823C22.2793 36.761 22.3467 36.8058 22.4447 36.7209C22.679 36.5188 23.385 36.4509 23.4524 36.8228C23.5198 37.1947 23.4524 37.5342 23.8552 37.4324C24.0646 37.3652 24.291 37.3773 24.4922 37.4663C24.4922 37.4663 24.7603 37.9401 24.9287 37.8382C25.0972 37.7364 24.9624 37.5296 25.1646 37.2965C25.3667 37.0635 26.137 37.4323 26.1707 37.9401C26.2044 38.4478 25.771 38.8182 25.771 38.8182Z" fill="#263238" stroke="#263238" stroke-width="0.4" stroke-linecap="round" stroke-linejoin="round"/>
<path d="M23.4738 38.6978C23.5473 38.7873 23.5657 38.8938 23.5136 38.937C23.4616 38.9802 23.3605 38.937 23.2885 38.8522C23.2165 38.7673 23.1966 38.6562 23.2487 38.613C23.3008 38.5697 23.3927 38.6083 23.4738 38.6978Z" fill="#263238"/>
<path d="M22.9669 38.5774C22.9669 38.5774 22.8857 38.2688 23.2732 38.2688" stroke="#263238" stroke-width="0.4" stroke-linecap="round" stroke-linejoin="round"/>
<path d="M27.3622 39.3506L25.918 41.559L26.5658 42.4124L28.01 39.8274L27.3622 39.3506Z" fill="white" stroke="#263238" stroke-width="0.4" stroke-linecap="round" stroke-linejoin="round"/>
<defs>
<filter id="filter0_d_663_2955" x="76.3359" y="24.5077" width="19.0049" height="44.8105" filterUnits="userSpaceOnUse" color-interpolation-filters="sRGB">
<feFlood flood-opacity="0" result="BackgroundImageFix"/>
<feColorMatrix in="SourceAlpha" type="matrix" values="0 0 0 0 0 0 0 0 0 0 0 0 0 0 0 0 0 0 127 0" result="hardAlpha"/>
<feOffset dy="1"/>
<feComposite in2="hardAlpha" operator="out"/>
<feColorMatrix type="matrix" values="0 0 0 0 0.0235294 0 0 0 0 0.737255 0 0 0 0 0.756863 0 0 0 1 0"/>
<feBlend mode="normal" in2="BackgroundImageFix" result="effect1_dropShadow_663_2955"/>
<feBlend mode="normal" in="SourceGraphic" in2="effect1_dropShadow_663_2955" result="shape"/>
</filter>
<filter id="filter1_d_663_2955" x="55.4052" y="24.5077" width="21.0707" height="44.8105" filterUnits="userSpaceOnUse" color-interpolation-filters="sRGB">
<feFlood flood-opacity="0" result="BackgroundImageFix"/>
<feColorMatrix in="SourceAlpha" type="matrix" values="0 0 0 0 0 0 0 0 0 0 0 0 0 0 0 0 0 0 127 0" result="hardAlpha"/>
<feOffset dy="1"/>
<feComposite in2="hardAlpha" operator="out"/>
<feColorMatrix type="matrix" values="0 0 0 0 0.0235294 0 0 0 0 0.737255 0 0 0 0 0.756863 0 0 0 1 0"/>
<feBlend mode="normal" in2="BackgroundImageFix" result="effect1_dropShadow_663_2955"/>
<feBlend mode="normal" in="SourceGraphic" in2="effect1_dropShadow_663_2955" result="shape"/>
</filter>
<filter id="filter2_d_663_2955" x="38.574" y="23.9313" width="14.7781" height="45.9635" filterUnits="userSpaceOnUse" color-interpolation-filters="sRGB">
<feFlood flood-opacity="0" result="BackgroundImageFix"/>
<feColorMatrix in="SourceAlpha" type="matrix" values="0 0 0 0 0 0 0 0 0 0 0 0 0 0 0 0 0 0 127 0" result="hardAlpha"/>
<feOffset dy="1"/>
<feComposite in2="hardAlpha" operator="out"/>
<feColorMatrix type="matrix" values="0 0 0 0 0.0235294 0 0 0 0 0.737255 0 0 0 0 0.756863 0 0 0 1 0"/>
<feBlend mode="normal" in2="BackgroundImageFix" result="effect1_dropShadow_663_2955"/>
<feBlend mode="normal" in="SourceGraphic" in2="effect1_dropShadow_663_2955" result="shape"/>
</filter>
<filter id="filter3_d_663_2955" x="17.1029" y="24.5077" width="19.3863" height="45.387" filterUnits="userSpaceOnUse" color-interpolation-filters="sRGB">
<feFlood flood-opacity="0" result="BackgroundImageFix"/>
<feColorMatrix in="SourceAlpha" type="matrix" values="0 0 0 0 0 0 0 0 0 0 0 0 0 0 0 0 0 0 127 0" result="hardAlpha"/>
<feOffset dy="1"/>
<feComposite in2="hardAlpha" operator="out"/>
<feColorMatrix type="matrix" values="0 0 0 0 0.0235294 0 0 0 0 0.737255 0 0 0 0 0.756863 0 0 0 1 0"/>
<feBlend mode="normal" in2="BackgroundImageFix" result="effect1_dropShadow_663_2955"/>
<feBlend mode="normal" in="SourceGraphic" in2="effect1_dropShadow_663_2955" result="shape"/>
</filter>
<filter id="filter4_d_663_2955" x="75.3788" y="23.5432" width="20.9193" height="46.7396" filterUnits="userSpaceOnUse" color-interpolation-filters="sRGB">
<feFlood flood-opacity="0" result="BackgroundImageFix"/>
<feColorMatrix in="SourceAlpha" type="matrix" values="0 0 0 0 0 0 0 0 0 0 0 0 0 0 0 0 0 0 127 0" result="hardAlpha"/>
<feOffset dy="1"/>
<feComposite in2="hardAlpha" operator="out"/>
<feColorMatrix type="matrix" values="0 0 0 0 0.0235294 0 0 0 0 0.737255 0 0 0 0 0.756863 0 0 0 1 0"/>
<feBlend mode="normal" in2="BackgroundImageFix" result="effect1_dropShadow_663_2955"/>
<feBlend mode="normal" in="SourceGraphic" in2="effect1_dropShadow_663_2955" result="shape"/>
</filter>
<filter id="filter5_d_663_2955" x="54.4479" y="23.5432" width="22.985" height="46.7396" filterUnits="userSpaceOnUse" color-interpolation-filters="sRGB">
<feFlood flood-opacity="0" result="BackgroundImageFix"/>
<feColorMatrix in="SourceAlpha" type="matrix" values="0 0 0 0 0 0 0 0 0 0 0 0 0 0 0 0 0 0 127 0" result="hardAlpha"/>
<feOffset dy="1"/>
<feComposite in2="hardAlpha" operator="out"/>
<feColorMatrix type="matrix" values="0 0 0 0 0.0235294 0 0 0 0 0.737255 0 0 0 0 0.756863 0 0 0 1 0"/>
<feBlend mode="normal" in2="BackgroundImageFix" result="effect1_dropShadow_663_2955"/>
<feBlend mode="normal" in="SourceGraphic" in2="effect1_dropShadow_663_2955" result="shape"/>
</filter>
<filter id="filter6_d_663_2955" x="37.6168" y="22.9668" width="16.6924" height="47.8925" filterUnits="userSpaceOnUse" color-interpolation-filters="sRGB">
<feFlood flood-opacity="0" result="BackgroundImageFix"/>
<feColorMatrix in="SourceAlpha" type="matrix" values="0 0 0 0 0 0 0 0 0 0 0 0 0 0 0 0 0 0 127 0" result="hardAlpha"/>
<feOffset dy="1"/>
<feComposite in2="hardAlpha" operator="out"/>
<feColorMatrix type="matrix" values="0 0 0 0 0.0235294 0 0 0 0 0.737255 0 0 0 0 0.756863 0 0 0 1 0"/>
<feBlend mode="normal" in2="BackgroundImageFix" result="effect1_dropShadow_663_2955"/>
<feBlend mode="normal" in="SourceGraphic" in2="effect1_dropShadow_663_2955" result="shape"/>
</filter>
<filter id="filter7_d_663_2955" x="16.1458" y="23.5432" width="21.3006" height="47.316" filterUnits="userSpaceOnUse" color-interpolation-filters="sRGB">
<feFlood flood-opacity="0" result="BackgroundImageFix"/>
<feColorMatrix in="SourceAlpha" type="matrix" values="0 0 0 0 0 0 0 0 0 0 0 0 0 0 0 0 0 0 127 0" result="hardAlpha"/>
<feOffset dy="1"/>
<feComposite in2="hardAlpha" operator="out"/>
<feColorMatrix type="matrix" values="0 0 0 0 0.0235294 0 0 0 0 0.737255 0 0 0 0 0.756863 0 0 0 1 0"/>
<feBlend mode="normal" in2="BackgroundImageFix" result="effect1_dropShadow_663_2955"/>
<feBlend mode="normal" in="SourceGraphic" in2="effect1_dropShadow_663_2955" result="shape"/>
</filter>
<linearGradient id="paint0_linear_663_2955" x1="61" y1="0" x2="61" y2="118" gradientUnits="userSpaceOnUse">
<stop offset="0.2" stop-color="white"/>
<stop offset="0.64" stop-color="#C1F8F9" stop-opacity="0.7"/>
<stop offset="1" stop-color="#06BCC1" stop-opacity="0.5"/>
</linearGradient>
</defs>
</svg>
