<?xml version="1.0" encoding="utf-8"?><svg viewBox="0 0 16 16" xmlns="http://www.w3.org/2000/svg" xmlns:xlink="http://www.w3.org/1999/xlink"><style>:root>svg{display:none}:root>svg:target{display:block}</style><svg viewBox="0 0 16 16" id="arrow" xmlns="http://www.w3.org/2000/svg"><path d="M4 6l4 4 4-4"/></svg><svg viewBox="0 0 16 16" id="check" xmlns="http://www.w3.org/2000/svg"><path d="M13.333 4L6 11.333 2.667 8"/></svg><svg viewBox="0 0 16 16" id="close" xmlns="http://www.w3.org/2000/svg"><path d="M12 4l-8 8m0-8l8 8"/></svg><svg viewBox="0 0 16 16" id="copy" xmlns="http://www.w3.org/2000/svg"><g clip-path="url(#da)"><path d="M2.667 10.667c-.734 0-1.334-.6-1.334-1.334V2.667c0-.734.6-1.334 1.334-1.334h6.666c.734 0 1.334.6 1.334 1.334m-4 2.666h6.666c.737 0 1.334.597 1.334 1.334v6.666c0 .737-.597 1.334-1.334 1.334H6.667a1.333 1.333 0 01-1.334-1.334V6.667c0-.737.597-1.334 1.334-1.334z"/></g><defs><clipPath id="da"><path d="M0 0h16v16H0z"/></clipPath></defs></svg><svg viewBox="0 0 16 16" id="ellipsis-vertical" xmlns="http://www.w3.org/2000/svg"><path d="M8 8.667a.667.667 0 100-1.334.667.667 0 000 1.334zM8 4a.667.667 0 100-1.333A.667.667 0 008 4zm0 9.333A.667.667 0 108 12a.667.667 0 000 1.333z"/></svg><svg viewBox="0 0 16 16" id="info" xmlns="http://www.w3.org/2000/svg"><path d="M8 10.667V8m0-2.667h.007M14.667 8A6.667 6.667 0 111.333 8a6.667 6.667 0 0113.334 0z"/></svg><svg viewBox="0 0 16 16" id="log-in" xmlns="http://www.w3.org/2000/svg"><path d="M10 2h2.667A1.333 1.333 0 0114 3.333v9.334A1.334 1.334 0 0112.667 14H10m-3.333-2.667L10 8m0 0L6.667 4.667M10 8H2"/></svg><svg viewBox="0 0 16 16" id="log-out" xmlns="http://www.w3.org/2000/svg"><path d="M6 14H3.333A1.334 1.334 0 012 12.667V3.333A1.333 1.333 0 013.333 2H6m4.667 9.333L14 8m0 0l-3.333-3.333M14 8H6"/></svg><svg viewBox="0 0 16 16" id="message-circle-more" xmlns="http://www.w3.org/2000/svg"><path d="M5.267 13.333a6 6 0 10-2.6-2.6l-1.334 3.934 3.934-1.334z"/><circle cx="5.333" cy="8" r=".3"/><circle cx="8" cy="8" r=".3"/><circle cx="10.667" cy="8" r=".3"/></svg><svg viewBox="0 0 16 16" id="pencil" xmlns="http://www.w3.org/2000/svg"><g clip-path="url(#ja)"><path d="M10 3.333L12.667 6m1.449-1.459a1.88 1.88 0 00-2.657-2.658l-8.898 8.9a1.337 1.337 0 00-.333.553l-.88 2.901a.334.334 0 00.415.415l2.902-.88c.208-.063.398-.177.553-.331l8.898-8.9z"/></g><defs><clipPath id="ja"><path d="M0 0h16v16H0z"/></clipPath></defs></svg><svg viewBox="0 0 16 16" id="plus" xmlns="http://www.w3.org/2000/svg"><path d="M3.333 8h9.334M8 3.333v9.334"/></svg><svg viewBox="0 0 24 24" id="sliders-horizontal" xmlns="http://www.w3.org/2000/svg"><path d="M2 20a1 1 0 011-1h7a1 1 0 110 2H3a1 1 0 01-1-1zm13-1v-2a1 1 0 10-2 0v6a1 1 0 102 0v-2h6a1 1 0 100-2h-6zm-3-8a1 1 0 100 2h9a1 1 0 100-2h-9zM2 12a1 1 0 011-1h4V9a1 1 0 012 0v6a1 1 0 11-2 0v-2H3a1 1 0 01-1-1zm13-9V1a1 1 0 10-2 0v6a1 1 0 102 0V5h6a1 1 0 100-2h-6zM2 4a1 1 0 001 1h7a1 1 0 100-2H3a1 1 0 00-1 1z"/></svg><svg viewBox="0 0 16 16" id="support" xmlns="http://www.w3.org/2000/svg"><g clip-path="url(#ma)"><path d="M3.287 3.287l2.826 2.826m3.774 0l2.826-2.826m-2.826 6.6l2.826 2.826m-6.6-2.826l-2.826 2.826M14.667 8A6.667 6.667 0 111.333 8a6.667 6.667 0 0113.334 0zm-4 0a2.667 2.667 0 11-5.334 0 2.667 2.667 0 015.334 0z"/></g><defs><clipPath id="ma"><path d="M0 0h16v16H0z"/></clipPath></defs></svg><svg viewBox="0 0 16 16" id="trash" xmlns="http://www.w3.org/2000/svg"><path d="M2 4h12m-1.333 0v9.333c0 .667-.667 1.334-1.334 1.334H4.667c-.667 0-1.334-.667-1.334-1.334V4m2 0V2.667C5.333 2 6 1.333 6.667 1.333h2.666c.667 0 1.334.667 1.334 1.334V4m-4 3.333v4m2.666-4v4"/></svg></svg>